/* XPM */
static const char *folder_prj_48_xpm[] = {
/* width height num_colors chars_per_pixel */
"    48    48      256            2",
/* colors */
"`` c None",
"`. c #949294",
"`# c #e4ca6c",
"`a c #fce68c",
"`b c #cccacc",
"`c c #e4da9c",
"`d c #c4aa54",
"`e c #ece6cc",
"`f c #ccbe9c",
"`g c #ccba74",
"`h c #f4d274",
"`i c #dcca8c",
"`j c #fcf2ac",
"`k c #f4da74",
"`l c #e4dabc",
"`m c #fcf6cc",
"`n c #e4c264",
"`o c #f4da8c",
"`p c #ccb67c",
"`q c #acaaac",
"`r c #f4e6b4",
"`s c #ccb25c",
"`t c #e4d294",
"`u c #d4be7c",
"`v c #ecd274",
"`w c #dccaac",
"`x c #f4e6cc",
"`y c #e4ca84",
"`z c #fcfabc",
"`A c #dcdadc",
"`B c #f4e294",
"`C c #c4aa64",
"`D c #dcca9c",
"`E c #fce284",
"`F c #bcbaa4",
"`G c #f4eeb4",
"`H c #c4c2c4",
"`I c #dcba64",
"`J c #f4d684",
"`K c #fcf2bc",
"`L c #fcda74",
"`M c #f4f6f4",
"`N c #9c9e9c",
"`O c #ecca6c",
"`P c #fceea4",
"`Q c #ece2a4",
"`R c #fcd264",
"`S c #ece2cc",
"`T c #d4b25c",
"`U c #e4d29c",
"`V c #e4d6ac",
"`W c #fce6a4",
"`X c #ecda94",
"`Y c #e4e6e4",
"`Z c #d4c6a4",
"`0 c #ecdabc",
"`1 c #ecc66c",
"`2 c #fcde8c",
"`3 c #dcc67c",
"`4 c #f4eee4",
"`5 c #bcbebc",
"`6 c #d4d2d4",
"`7 c #ccae5c",
"`8 c #d4be94",
".` c #e4ce8c",
".. c #fcfedc",
".# c #e4c664",
".a c #f4de9c",
".b c #fceaac",
".c c #fce28c",
".d c #ccae64",
".e c #e4ce9c",
".f c #b4b6b4",
".g c #fceeb4",
".h c #dcc264",
".i c #fcf6bc",
".j c #fcde84",
".k c #ecce6c",
".l c #fcd674",
".m c #ecdea4",
".n c #ecdec4",
".o c #9c9a9c",
".p c #fcea94",
".q c #c4ae5c",
".r c #d4ba64",
".s c #dcce8c",
".t c #fcf6b4",
".u c #f4da84",
".v c #fcfadc",
".w c #f4de8c",
".x c #b4b2b4",
".y c #ccb66c",
".z c #ecd28c",
".A c #dcc28c",
".B c #dcceac",
".C c #fceecc",
".D c #ecce7c",
".E c #e4e2e4",
".F c #c4ae64",
".G c #dccea4",
".H c #fcde7c",
".I c #fcfaec",
".J c #a4a6a4",
".K c #fcd66c",
".L c #d4b65c",
".M c #e4d69c",
".N c #e4d6bc",
".O c #ecde9c",
".P c #eceeec",
".Q c #ecdeb4",
".R c #d4c294",
".S c #fceabc",
".T c #fce29c",
".U c #fceec4",
".V c #747274",
".W c #949694",
".X c #e4ca74",
".Y c #fce694",
".Z c #cccecc",
".0 c #c4aa5c",
".1 c #ece6d4",
".2 c #f4d674",
".3 c #dcca94",
".4 c #fcf2b4",
".5 c #f4da7c",
".6 c #fcfad4",
".7 c #e4c26c",
".8 c #ccb68c",
"#` c #acaeac",
"#. c #a4a2a4",
"## c #eceaec",
"#a c #bcbabc",
"#b c #f4f2f4",
"#c c #ecd284",
"#d c #fcfafc",
"#e c #fcea9c",
"#f c #f4eacc",
"#g c #e4ce84",
"#h c #dcdedc",
"#i c #c4c6c4",
"#j c #dcbe64",
"#k c #d4d6d4",
"#l c #ecd68c",
"#m c #ccb264",
"#n c #d4be84",
"#o c #fcfac4",
"#p c #dccaa4",
"#q c #bcbaac",
"#r c #fcf2c4",
"#s c #fcda7c",
"#t c #ecca74",
"#u c #fcd26c",
"#v c #e4d6b4",
"#w c #ecda9c",
"#x c #dcc684",
"#y c #e4c66c",
"#z c #fceab4",
"#A c #fce294",
"#B c #fceebc",
"#C c #dcc26c",
"#D c #fcf6c4",
"#E c #ecce74",
"#F c #d4ba6c",
"#G c #f4de94",
"#H c #dcceb4",
"#I c #c4ae6c",
"#J c #d4b664",
"#K c #e4d6a4",
"#L c #ecdebc",
"#M c #d4c29c",
"#N c #000000",
"#O c #000000",
"#P c #000000",
"#Q c #000000",
"#R c #000000",
"#S c #000000",
"#T c #000000",
"#U c #000000",
"#V c #000000",
"#W c #000000",
"#X c #000000",
"#Y c #000000",
"#Z c #000000",
"#0 c #000000",
"#1 c #000000",
"#2 c #000000",
"#3 c #000000",
"#4 c #000000",
"#5 c #000000",
"#6 c #000000",
"#7 c #000000",
"#8 c #000000",
"a` c #000000",
"a. c #000000",
"a# c #000000",
"aa c #000000",
"ab c #000000",
"ac c #000000",
"ad c #000000",
"ae c #000000",
"af c #000000",
"ag c #000000",
"ah c #000000",
"ai c #000000",
"aj c #000000",
"ak c #000000",
"al c #000000",
"am c #000000",
"an c #000000",
"ao c #000000",
"ap c #000000",
"aq c #000000",
"ar c #000000",
"as c #000000",
"at c #000000",
"au c #000000",
"av c #000000",
"aw c #000000",
"ax c #000000",
"ay c #000000",
"az c #000000",
"aA c #000000",
"aB c #000000",
"aC c #000000",
"aD c #000000",
"aE c #000000",
"aF c #000000",
"aG c #000000",
"aH c #000000",
"aI c #000000",
"aJ c #000000",
"aK c #000000",
"aL c #000000",
"aM c #000000",
"aN c #000000",
"aO c #000000",
"aP c #000000",
"aQ c #000000",
"aR c #000000",
"aS c #000000",
"aT c #000000",
"aU c #000000",
"aV c #000000",
"aW c #000000",
"aX c #000000",
"aY c #000000",
"aZ c #000000",
"a0 c #000000",
"a1 c #000000",
"a2 c #000000",
"a3 c #000000",
"a4 c #000000",
"a5 c #000000",
"a6 c #000000",
"a7 c #000000",
"a8 c #000000",
/* pixels */
"```````````````````````````````````````````````````````````````````````S.N.G.8#p.I``````````````",
"```````````````````````````````````````````````````````x.N`w`8`p.d.d`C`d.0`C.s#D..``````````````",
"````````````````````````````````````````.n#v.e.A`u#J#J`T.y`s`7`s`7.0`7`C.s`G#o#o.v``````````````",
"`````````````````````````x`0`V`y`y#t`h`h`h`O`##y.7#j#F#J`T`s`s`7`7.y.s.i#o`z#o.i..``````````````",
"``````````````````````.A.u.H.j#s#s.5#s.2`v.k#y#y`n#j.r#J`s`s`7`p.M`K`z#o`z#D`z#o.v``````````````",
"````````````````````#p.j.j.j.j.5#s.5.l.2`h`O`##y#j#j`I#J.L.d`c.t`z.i`z.i`z.i`z.i.v``````````````",
"````````````````````#M.j`E.w.H.H#s.5`L.2#E.k`O#y.7#j.r#J`7.G`z.i`z.i`z.i`z.i`z.i.v``````````````",
"````````````````````#M.c.j.j.H.u#s`L.5.2`h.k#y#y.h#j.r#J.q`Q.i`z.i.i`z.i.i`z.i`z.v``````````````",
"````````````````````#M.j.j.w.H#s.5#s`k.2`h.k`O#y.7#j`I#J`C.a`z.i.i.i.i`z.i.i.i.i.6``````````````",
"````````````````````.A.c.j.j.j.5.H`L.5.2`h`O`##y.h#j.r#J.F`Q.t.t.t.t.t.t.t.t.t.t.6``````````````",
"````````````````````#M.c.w.H.j.H#s.5`L.2`h.k`##y.7#j`I.L`C.m.4.t.4.t.4.4.t.4.t.4.6``````````````",
"````````````````````#M.j.j.j.5.H.5#s`k`h`h.k`O#y.h#j.r#J`7.m.4.4.4.4.t.4.4.4.4.4.6``````````````",
"````````````````````.A.c.w.j.j.j#s.5`L.2`h.k`##y.7#j`I.r`C.O.t`j.t`j`j`j`j.t`j`j`m``````````````",
"````````````````````#M.c.j.j.j.5.H#s`L.2.2#E`O#y.7#j`I#J`7.O`j`j`j`j`j`j`j`j`j`j`m``````````````",
"````````````````````#M.c.j.w.H.H.5#s.5.2`h.k`O`#`n#C.r.r.F#w`j`P`j`P`j`P`j`P`j`P`m``````````````",
"````````````````````.A.c.j.j.j.5.H#s`L.2`h#E`##y.7#j#j#J`7`X`P`P`P`P`P`P`P`P`P`j`m``````````````",
"````````````````````#M.c.w.H.j.j#s.5`L.2.2.k.k#y#y#j`I#J.F`X`P`P`P`P`P`P`P`P`P`P`m``````````````",
"````````````````````.A.c.j.j.w#s.5.H.5.2`h#E`O#y`n#C.r.r`7`X`P`P`P`P`P`P`P`P`P`P`m``````````````",
"````````````````````#M.c.w.j.H.H#s`k#s.2.2.k`O`#.7.h`I.r.d#l`P`P`P#e`P`P.b`P#e`P#r``````````````",
"````````````````````#M`E.j.j.j.5.H#s`L.2`h#E`##y`n#j#j#J.0`X#e#e#e#e#e#e#e#e#e#e`m``````````````",
"````````````````````.A#A.j.j.w.H#s.5#s.2.2.k.k#y#y#j`I.r.d#l#e#e#e#e#e#e#e#e#e#e#r``````````````",
"````````````````````#M.c.w.H.j.5.H#s`k.2.2#E`O#y.7.h#j.r.0#l#e.p#e.p#e.p.p#e.p#e#r``````````````",
"````````````````````#M`E.j.j.j#s.H.5`L.2`h.k`O`#`n#j.r.r.d#l.Y.p.Y`W.p.Y`W.p.Y.Y#r``````````````",
"````````````````````.A#A`E.j.w#s.H.5#s`L`h`v`O#y#y#C`I#J.0#l.Y.Y.Y.Y.Y.Y`a.Y.Y.Y#r``````````````",
"````````````````````#M.c.w.j.H.u.H#s`k`J.2.k.k#y.7.h#j.r.d#c.Y.Y.Y`a.Y.Y.Y.Y.Y.Y#B``````````````",
"````````````````````#M.c.j.j.j.H.5.H`L.2.2.k#E`##y`n`I.r.d#c`a.c.Y.c`a.c#A`a.c.Y#B``````````````",
"````````````````````.A.c`E.w.j.H#s.5.H.2.2`h`O#y#y#j#j.r`7#g`a.c`a#A`a`a.c`a.c`a.U``````````````",
"`````````````````````8.c`2.j.w#s.5.H#s.2.2.k`O`##y.h`I.r.d#c.c`B.c`B.c`B.c`B.c.c#B``````````````",
"``````````````````#p.D.c.w`E.H.j.H.5`L`k.2`h`O`#.7#C#j.r.d`3`E.c`E`E`E`E`E`E.c.w`K``````````````",
"````````````````.A.w#A`E`E.j.w#s.H.5#s`L`h`v`O`##y`n`I.r.L.d#g`E`E`B`E`E`B`E`E`E#B``````````````",
"``````````````.N`o.c.c`B.j.j.H.u.H#s.5`k.2#E.k`1#y#j#j.r#J`s.0.D.j`E.j`E.j`E.w`E.g``````````````",
"```````````````w#G.x.x.x.x#`.x.x#`.x.x`F.2`h`O`##y#j#j.r#J`s.0#g.H.w.H.j.w.H.H.j.S``````````````",
"```````````````w`2#`.Z`A`5#.`N.f`N`5`6`F`h#E.k#y#y.7#j.r.L`T.0#t.H.H.H.H.H.H.j.H#z``````````````",
"```````````````w`B.x`5#a.J`q#k`Y.x.Z`A`F.2`h`O`##y#j#j.r#J`s.0`y.H#s.w.H.5.j.5.H#z``````````````",
"```````````````w`B.x#i#a.f#i#d#b`5`A.E`F`h`h`O`##y`n#j.r#J`s.0#t.H.5.H#s.H#s.H.H#z``````````````",
"```````````````w`2.x.E#k`A##`M#h.f`b#k#q.2`h.k`O#y#C#j.r#J.L.0.X#s`L.5`L.5#s.5#s#z``````````````",
"```````````````w`B.x.P#k`A`M.P`H`q.J.x`F.l#E.k`##y`n#j`I#J`s`C#t`k#s`L#s`k`L`L.5.b``````````````",
"```````````````w`B.x.P`5#.#`.o.V`.`H`b`F.2`h.k`O#y#C#j.r.r.L.0`1`L`k#s`L`L.5`L`L#z``````````````",
"``````````````#H.w.x#``.#..Z`6.W.Z`Y`A`F.2`h`O`##y`n#j`I#J`s`C#y`L.l.2`L.2.l`L.2.b``````````````",
"```````````````w#G.x`q#``b.P`Y#``Y#d#h#q#u`v#E`O#y.7#j.r.r`T.0#y.l.2.l.K.l.2.K.l.S``````````````",
"``````````````.N.w.x.f#i#k#h`6.x`6.E`6`F.2`h.k`##y`n#C`I#J`s`C`1.K.K.2.K.2.K.l`W````````````````",
"```````````````0.w#q#q#q#q#q#q`F#q`F#q`f.2`h.k`O#y.7#j.r.r#x`D#y.K.2.K.K.K.K`W``````````````````",
"``````````````.n`o#A.c.c`E.j.j.j#s#s#s`L.2`h#E`#.X`t.m`````````1#u.K`h.K.2`W````````````````````",
"```````````````4.z.c.c.c`2.j.j.j.H.5#s.5.5`o`r````````````````.7`R`h`R.K#z``````````````````````",
"`````````````````x`B#A.c`E.j.j.w#s`W#z````````````````````````.#`R`h`R#z````````````````````````",
"`````````````````````x#l.w`W#B`````````````````````````````````1`h`R#B``````````````````````````",
"```````````````````````````````````````````````````````````````n`R.U````````````````````````````",
"```````````````````````````````````````````````````````````````y.C``````````````````````````````"
};
