/* XPM */
static const char *kml_dset_16_xpm[] = {
/* width height num_colors chars_per_pixel */
"    16    16      256            2",
/* colors */
"`` c None",
"`. c #b4b4b4",
"`# c #aaaaaa",
"`a c #a0a0a0",
"`b c #969696",
"`c c #8c8c8c",
"`d c #828282",
"`e c #787878",
"`f c #6e6e6e",
"`g c #5a5a5a",
"`h c #e5e9fc",
"`i c #fdfcfe",
"`j c #fffffd",
"`k c #fffffc",
"`l c #cccfeb",
"`m c #9ba3d7",
"`n c #6674ce",
"`o c #545454",
"`p c #8fa0f0",
"`q c #b7c4fe",
"`r c #e9ebfc",
"`s c #fefcf5",
"`t c #fefcf4",
"`u c #cccee7",
"`v c #4d4d4d",
"`w c #94a3f0",
"`x c #a2b0fa",
"`y c #a1aff6",
"`z c #c4c9f0",
"`A c #f3f2f1",
"`B c #fef9f0",
"`C c #d3d2e1",
"`D c #464646",
"`E c #8594e7",
"`F c #8e9feb",
"`G c #8b9bea",
"`H c #7a8ae2",
"`I c #8c97dd",
"`J c #d2d1e3",
"`K c #faf3ea",
"`L c #404040",
"`M c #717fd9",
"`N c #7787de",
"`O c #7586de",
"`P c #6d7dd7",
"`Q c #5e6bce",
"`R c #616fc3",
"`S c #9ba0c9",
"`T c #393939",
"`U c #6171cb",
"`V c #6574cf",
"`W c #6473cf",
"`X c #6171ca",
"`Y c #606ec2",
"`Z c #5c68b6",
"`0 c #525ea8",
"`1 c #323232",
"`2 c #5d69ba",
"`3 c #5765ba",
"`4 c #5c69bd",
"`5 c #5e69ba",
"`6 c #5d69b4",
"`7 c #5c66aa",
"`8 c #5961a1",
".` c #2c2c2c",
".. c #252525",
".# c #000000",
".a c #000000",
".b c #000000",
".c c #000000",
".d c #000000",
".e c #000000",
".f c #000000",
".g c #000000",
".h c #000000",
".i c #000000",
".j c #000000",
".k c #000000",
".l c #000000",
".m c #000000",
".n c #000000",
".o c #000000",
".p c #000000",
".q c #000000",
".r c #000000",
".s c #000000",
".t c #000000",
".u c #000000",
".v c #000000",
".w c #000000",
".x c #000000",
".y c #000000",
".z c #000000",
".A c #000000",
".B c #000000",
".C c #000000",
".D c #000000",
".E c #000000",
".F c #000000",
".G c #000000",
".H c #000000",
".I c #000000",
".J c #000000",
".K c #000000",
".L c #000000",
".M c #000000",
".N c #000000",
".O c #000000",
".P c #000000",
".Q c #000000",
".R c #000000",
".S c #000000",
".T c #000000",
".U c #000000",
".V c #000000",
".W c #000000",
".X c #000000",
".Y c #000000",
".Z c #000000",
".0 c #000000",
".1 c #000000",
".2 c #000000",
".3 c #000000",
".4 c #000000",
".5 c #000000",
".6 c #000000",
".7 c #000000",
".8 c #000000",
"#` c #000000",
"#. c #000000",
"## c #000000",
"#a c #000000",
"#b c #000000",
"#c c #000000",
"#d c #000000",
"#e c #000000",
"#f c #000000",
"#g c #000000",
"#h c #000000",
"#i c #000000",
"#j c #000000",
"#k c #000000",
"#l c #000000",
"#m c #000000",
"#n c #000000",
"#o c #000000",
"#p c #000000",
"#q c #000000",
"#r c #000000",
"#s c #000000",
"#t c #000000",
"#u c #000000",
"#v c #000000",
"#w c #000000",
"#x c #000000",
"#y c #000000",
"#z c #000000",
"#A c #000000",
"#B c #000000",
"#C c #000000",
"#D c #000000",
"#E c #000000",
"#F c #000000",
"#G c #000000",
"#H c #000000",
"#I c #000000",
"#J c #000000",
"#K c #000000",
"#L c #000000",
"#M c #000000",
"#N c #000000",
"#O c #000000",
"#P c #000000",
"#Q c #000000",
"#R c #000000",
"#S c #000000",
"#T c #000000",
"#U c #000000",
"#V c #000000",
"#W c #000000",
"#X c #000000",
"#Y c #000000",
"#Z c #000000",
"#0 c #000000",
"#1 c #000000",
"#2 c #000000",
"#3 c #000000",
"#4 c #000000",
"#5 c #000000",
"#6 c #000000",
"#7 c #000000",
"#8 c #000000",
"a` c #000000",
"a. c #000000",
"a# c #000000",
"aa c #000000",
"ab c #000000",
"ac c #000000",
"ad c #000000",
"ae c #000000",
"af c #000000",
"ag c #000000",
"ah c #000000",
"ai c #000000",
"aj c #000000",
"ak c #000000",
"al c #000000",
"am c #000000",
"an c #000000",
"ao c #000000",
"ap c #000000",
"aq c #000000",
"ar c #000000",
"as c #000000",
"at c #000000",
"au c #000000",
"av c #000000",
"aw c #000000",
"ax c #000000",
"ay c #000000",
"az c #000000",
"aA c #000000",
"aB c #000000",
"aC c #000000",
"aD c #000000",
"aE c #000000",
"aF c #000000",
"aG c #000000",
"aH c #000000",
"aI c #000000",
"aJ c #000000",
"aK c #000000",
"aL c #000000",
"aM c #000000",
"aN c #000000",
"aO c #000000",
"aP c #000000",
"aQ c #000000",
"aR c #000000",
"aS c #000000",
"aT c #000000",
"aU c #000000",
"aV c #000000",
"aW c #000000",
"aX c #000000",
"aY c #000000",
"aZ c #000000",
"a0 c #000000",
"a1 c #000000",
"a2 c #000000",
"a3 c #000000",
"a4 c #000000",
"a5 c #000000",
"a6 c #000000",
"a7 c #000000",
"a8 c #000000",
/* pixels */
"````````````````````````````````",
"```.`#`a`b`c`d`e`f`g````````````",
"```#`h`i`j`k`l`m`n`o````````````",
"```a`p`q`r`s`t`u`m`v`b`c`d`e`f`g",
"```b`w`x`y`z`A`B`C`D`j`k`l`m`n`o",
"```c`E`F`G`H`I`J`K`L`r`s`t`u`m`v",
"```d`M`N`O`P`Q`R`S`T`e`f`g`B`C`D",
"```e`U`V`W`X`Y`Z`0`1`m`n`o`J`K`L",
"```f`2`3`4`5`6`7`8.``u`m`v`R`S`T",
"```g`o`v`D`L`T`1.`..`B`C`D`Z`0`1",
"`````````c`E`F`G`H`I`J`K`L`7`8.`",
"`````````d`M`N`O`P`Q`R`S`T`1.`..",
"`````````e`U`V`W`X`Y`Z`0`1``````",
"`````````f`2`3`4`5`6`7`8.```````",
"`````````g`o`v`D`L`T`1.`..``````",
"````````````````````````````````"
};
