/* XPM */
static const char *mi_dset_16_xpm[] = {
/* width height num_colors chars_per_pixel */
"    16    16      256            2",
/* colors */
"`` c None",
"`. c #969696",
"`# c #878787",
"`a c #9a9a9a",
"`b c #909090",
"`c c #656565",
"`d c #7b7b7b",
"`e c #888888",
"`f c #d3d3d3",
"`g c #838383",
"`h c #fcf2eb",
"`i c #eecaac",
"`j c #e19250",
"`k c #db7521",
"`l c #d7680c",
"`m c #d8690e",
"`n c #616161",
"`o c #c3c3c3",
"`p c #575757",
"`q c #9d9d9d",
"`r c #828282",
"`s c #868c95",
"`t c #e19353",
"`u c #d76406",
"`v c #d7670a",
"`w c #de8439",
"`x c #e9ad7b",
"`y c #f0c8a6",
"`z c #69717d",
"`A c #525252",
"`B c #777777",
"`C c #f1dac7",
"`D c #da7624",
"`E c #da731e",
"`F c #e8ab78",
"`G c #f5dbc6",
"`H c #f5d9c2",
"`I c #f1ccad",
"`J c #dd8034",
"`K c #e49a5d",
"`L c #f3d4ba",
"`M c #f4d8c1",
"`N c #ebb68b",
"`O c #e29352",
"`P c #dc7c2c",
"`Q c #d96b12",
"`R c #d56203",
"`S c #d46000",
"`T c #e18f4d",
"`U c #e18a43",
"`V c #e69f64",
"`W c #de8033",
"`X c #d66304",
"`Y c #d56000",
"`Z c #df8439",
"`0 c #e49a5c",
"`1 c #e7a874",
"`2 c #e9b68d",
"`3 c #d96c13",
"`4 c #d96e16",
"`5 c #da7019",
"`6 c #e39554",
"`7 c #eebf99",
"`8 c #dc7e2f",
".` c #d86a10",
".. c #e39656",
".# c #efc7a5",
".a c #f5dbc5",
".b c #edbf98",
".c c #e8aa76",
".d c #e3985a",
".e c #e08c46",
".f c #f1c9a9",
".g c #f6dfcb",
".h c #efc5a2",
".i c #e6a168",
".j c #e08b45",
".k c #dc7826",
".l c #d66305",
".m c #d56304",
".n c #d56405",
".o c #e2914f",
".p c #da721d",
".q c #d86a0f",
".r c #d76608",
".s c #d66203",
".t c #e2904d",
".u c #e8a975",
".v c #ecba90",
".w c #efc5a3",
".x c #d96d13",
".y c #d86b11",
".z c #d96c12",
".A c #e1904c",
".B c #edbc93",
".C c #f6deca",
".D c #3c3c3c",
".E c #454a52",
".F c #e7a872",
".G c #f7e2d1",
".H c #f6dfcc",
".I c #efc4a0",
".J c #e7a670",
".K c #e2904c",
".L c #2a3241",
".M c #0a0a0a",
".N c #2f2f2f",
".O c #393939",
".P c #b6b6b6",
".Q c #2f2f30",
".R c #f0ccad",
".S c #e8ae7f",
".T c #e4a36c",
".U c #e2985b",
".V c #e29658",
".W c #e39d62",
".X c #e4a068",
".Y c #090909",
".Z c #a5a5a5",
".0 c #030303",
".1 c #5a5a5a",
".2 c #2d2d2d",
".3 c #474747",
".4 c #010101",
".5 c #3b3b3b",
".6 c #000000",
".7 c #000000",
".8 c #000000",
"#` c #000000",
"#. c #000000",
"## c #000000",
"#a c #000000",
"#b c #000000",
"#c c #000000",
"#d c #000000",
"#e c #000000",
"#f c #000000",
"#g c #000000",
"#h c #000000",
"#i c #000000",
"#j c #000000",
"#k c #000000",
"#l c #000000",
"#m c #000000",
"#n c #000000",
"#o c #000000",
"#p c #000000",
"#q c #000000",
"#r c #000000",
"#s c #000000",
"#t c #000000",
"#u c #000000",
"#v c #000000",
"#w c #000000",
"#x c #000000",
"#y c #000000",
"#z c #000000",
"#A c #000000",
"#B c #000000",
"#C c #000000",
"#D c #000000",
"#E c #000000",
"#F c #000000",
"#G c #000000",
"#H c #000000",
"#I c #000000",
"#J c #000000",
"#K c #000000",
"#L c #000000",
"#M c #000000",
"#N c #000000",
"#O c #000000",
"#P c #000000",
"#Q c #000000",
"#R c #000000",
"#S c #000000",
"#T c #000000",
"#U c #000000",
"#V c #000000",
"#W c #000000",
"#X c #000000",
"#Y c #000000",
"#Z c #000000",
"#0 c #000000",
"#1 c #000000",
"#2 c #000000",
"#3 c #000000",
"#4 c #000000",
"#5 c #000000",
"#6 c #000000",
"#7 c #000000",
"#8 c #000000",
"a` c #000000",
"a. c #000000",
"a# c #000000",
"aa c #000000",
"ab c #000000",
"ac c #000000",
"ad c #000000",
"ae c #000000",
"af c #000000",
"ag c #000000",
"ah c #000000",
"ai c #000000",
"aj c #000000",
"ak c #000000",
"al c #000000",
"am c #000000",
"an c #000000",
"ao c #000000",
"ap c #000000",
"aq c #000000",
"ar c #000000",
"as c #000000",
"at c #000000",
"au c #000000",
"av c #000000",
"aw c #000000",
"ax c #000000",
"ay c #000000",
"az c #000000",
"aA c #000000",
"aB c #000000",
"aC c #000000",
"aD c #000000",
"aE c #000000",
"aF c #000000",
"aG c #000000",
"aH c #000000",
"aI c #000000",
"aJ c #000000",
"aK c #000000",
"aL c #000000",
"aM c #000000",
"aN c #000000",
"aO c #000000",
"aP c #000000",
"aQ c #000000",
"aR c #000000",
"aS c #000000",
"aT c #000000",
"aU c #000000",
"aV c #000000",
"aW c #000000",
"aX c #000000",
"aY c #000000",
"aZ c #000000",
"a0 c #000000",
"a1 c #000000",
"a2 c #000000",
"a3 c #000000",
"a4 c #000000",
"a5 c #000000",
"a6 c #000000",
"a7 c #000000",
"a8 c #000000",
/* pixels */
"````````````````````````````````",
"```.`#`a`````````````````b`c`d``",
"```e`f`g`h`h`h`i`j`k`l`m`n`o`p``",
"```q`r`s`h`h`t`u`v`w`x`y`z`A`B``",
"`````h`h`C`D`E`F`G`h`h`h`H`I````",
"`````h`h`J`K`L`M`N`O`P`Q`R`S````",
"`````h`T`U`V`W`X`Y`m`k`Z`0`1````",
"`````2`3`4`X`5`6`7`h`h`h`h`h````",
"`````8.`...#`h`h`h.a.b.c.d.e````",
"````...f.g.h.i.j.k`l.l`u.m.n````",
"````.i.o.p.q.r.s`4`P.t.u.v.w````",
"````.x.y.z.p.A.B.C`h`h`h`h`h````",
"```p.D.E.F.G`h`h.H.I.J.K.L.M.N``",
"``.O.P.Q`h.R.S.T.U.V.W.X.Y.Z.0``",
"``.1.2`p````````````````.3.4.5``",
"````````````````````````````````"
};
