/* XPM */
static const char *oper_16_xpm[] = {
/* width height num_colors chars_per_pixel */
"    48    16      256            2",
/* colors */
"`` c #141214",
"`. c #5c82b4",
"`# c #e4c234",
"`a c #b48214",
"`b c #a4c2ec",
"`c c #f4e2a4",
"`d c None",
"`e c #4c4a4c",
"`f c #a4a294",
"`g c #aca6a4",
"`h c #ccc6bc",
"`i c #4c6a9c",
"`j c #948264",
"`k c #6c6e6c",
"`l c #d4a224",
"`m c #bcd2f4",
"`n c #d4e2f4",
"`o c #7492c4",
"`p c #f4e294",
"`q c #84a6d4",
"`r c #343234",
"`s c #c4c2bc",
"`t c #b4b2ac",
"`u c #d4d2d4",
"`v c #8cb2ec",
"`w c #e4b224",
"`x c #849ac4",
"`y c #7c8eac",
"`z c #645254",
"`A c #e4c264",
"`B c #f4f2b4",
"`C c #747674",
"`D c #5476ac",
"`E c #94928c",
"`F c #b4b6c4",
"`G c #648ac4",
"`H c #544244",
"`I c #9cb2dc",
"`J c #e4daac",
"`K c #343e34",
"`L c #f4b244",
"`M c #9cbaec",
"`N c #b4caec",
"`O c #545654",
"`P c #fcfae4",
"`Q c #c4cadc",
"`R c #bcbab4",
"`S c #f4ca64",
"`T c #242214",
"`U c #d49214",
"`V c #ccdaec",
"`W c #847a74",
"`X c #647eac",
"`Y c #6c86b4",
"`Z c #fceaa4",
"`0 c #fcee94",
"`1 c #9caac4",
"`2 c #dcbe4c",
"`3 c #5c7eb4",
"`4 c #9c9a94",
"`5 c #5c82bc",
"`6 c #c49214",
"`7 c #b4c6e4",
"`8 c #f4eab4",
".` c #b4aa94",
".. c #f4aa34",
".# c #dceafc",
".a c #7c9ac4",
".b c #f4f2c4",
".c c #dcdad4",
".d c #ece2b4",
".e c #cccecc",
".f c #848684",
".g c #6c7274",
".h c #e4a224",
".i c #c4daf4",
".j c #f4ea94",
".k c #94aed4",
".l c #443a34",
".m c #bcb2ac",
".n c #645e5c",
".o c #d4c284",
".p c #7c7674",
".q c #5c7aac",
".r c #a4b2cc",
".s c #e4dab4",
".t c #443e44",
".u c #a4badc",
".v c #545e5c",
".w c #bcceec",
".x c #342a24",
".y c #f4c244",
".z c #acc2ec",
".A c #545244",
".B c #5472a4",
".C c #c4d2ec",
".D c #e4e2dc",
".E c #7c96c4",
".F c #c4cad4",
".G c #dcba3c",
".H c #6c8abc",
".I c #c4bebc",
".J c #fcda74",
".K c #2c222c",
".L c #d4def4",
".M c #a49a84",
".N c #acaaa4",
".O c #f4e6b4",
".P c #e4aa24",
".Q c #746254",
".R c #44464c",
".S c #a4beec",
".T c #241214",
".U c #6482ac",
".V c #c48a14",
".W c #947224",
".X c #cccacc",
".Y c #7496c4",
".Z c #fce284",
".0 c #8ca2c4",
".1 c #343a44",
".2 c #bcc6d4",
".3 c #8c9abc",
".4 c #748ebc",
".5 c #e4ca64",
".6 c #fcf2a4",
".7 c #747a74",
".8 c #547ab4",
"#` c #a49284",
"#. c #e49a24",
"## c #a47a24",
"#a c #9ca6b4",
"#b c #948a84",
"#c c #e4c254",
"#d c #dcca8c",
"#e c #242a34",
"#f c #141a24",
"#g c #948a74",
"#h c #b4bed4",
"#i c #f4ba44",
"#j c #f4d264",
"#k c #c49a24",
"#l c #fcfac4",
"#m c #b4a294",
"#n c #e4ba44",
"#o c #747264",
"#p c #dce6fc",
"#q c #5c5654",
"#r c #6486bc",
"#s c #ecdeb4",
"#t c #b4aeac",
"#u c #746a6c",
"#v c #b4b6bc",
"#w c #e4c674",
"#x c #fcfef4",
"#y c #a4aec4",
"#z c #e4eefc",
"#A c #d4d2cc",
"#B c #ecdaa4",
"#C c #5c5e54",
"#D c #e4ba34",
"#E c #3c3a3c",
"#F c #b48224",
"#G c #e4b234",
"#H c #242224",
"#I c #c49224",
"#J c #fcf2c4",
"#K c #e4a234",
"#L c #fcea94",
"#M c #443a44",
"#N c #f4c254",
"#O c #545254",
"#P c #a49a94",
"#Q c #e4aa34",
"#R c #fce294",
"#S c #fcf2b4",
"#T c #f4ba54",
"#U c #f4d274",
"#V c #e4ba54",
"#W c #cccac4",
"#X c #4c6ea4",
"#Y c #c4c6c4",
"#Z c #849ecc",
"#0 c #9cb6d4",
"#1 c #b4cef4",
"#2 c #c4cedc",
"#3 c #bcbeb4",
"#4 c #ccdef4",
"#5 c #847e7c",
"#6 c #ece6bc",
"#7 c #bcb6ac",
"#8 c #646254",
"a` c #7c7a7c",
"a. c #a4b6d4",
"a# c #e4debc",
"aa c #44423c",
"ab c #a4bee4",
"ac c #acc6ec",
"ad c #c4d6f4",
"ae c #e4e6e4",
"af c #6c8ec4",
"ag c #acaeac",
"ah c #5c5a5c",
"ai c #4c4e4c",
"aj c #d4d6d4",
"ak c #94968c",
"al c #b4bac4",
"am c #fcfee4",
"an c #fcf294",
"ao c #9c9e94",
"ap c #8ca6c4",
"aq c #5476b4",
"ar c #b4caf4",
"as c #ccdaf4",
"at c #847a7c",
"au c #5c7ebc",
"av c #b4c6ec",
"aw c #7c9acc",
"ax c #dcdadc",
"ay c #ece2bc",
"az c #94aedc",
"aA c #5c7ab4",
"aB c #a4bae4",
"aC c #bccef4",
"aD c #5472ac",
"aE c #c4d2f4",
"aF c #6c8ac4",
"aG c #6482b4",
"aH c #7496cc",
"aI c #748ec4",
"aJ c #747a7c",
"aK c #948a8c",
"aL c #74726c",
"aM c #6486c4",
"aN c #9cb6dc",
"aO c #c4cee4",
"aP c #bcbebc",
"aQ c #bcb6b4",
"aR c #64625c",
"aS c #444244",
"aT c #acc6f4",
"aU c #000000",
"aV c #000000",
"aW c #000000",
"aX c #000000",
"aY c #000000",
"aZ c #000000",
"a0 c #000000",
"a1 c #000000",
"a2 c #000000",
"a3 c #000000",
"a4 c #000000",
"a5 c #000000",
"a6 c #000000",
"a7 c #000000",
"a8 c #000000",
/* pixels */
"`d`d`d`d`d`d`d`d`d`d`d`d`d`d`d`d`d`d`d`d`d`d`d`d`d`d`d`d`d`d`d`d`d`d`d`daO.k`oaw.k#2`d`d`d#Z`d`d",
"`d`d`d`d`d`d`d`d`d#w#Bay`w#s`J#d`daQ#u#t`d`d`d`d`d`d`d`d`d`d`d`d`d`d`d.raw`7#4`V.uaf`I`daIaA#A`d",
"`d`d`d`d`d`d`d`d`d#s#D`0`A`0#D.s`d`4.t.R`g`d`d`d`d`d`d`d.I`E`d`d`d`da..E`G`5aF.w#z.C.Haf`I.8`s`d",
"`d.`.`.`.`.``d`d`d.O`0#x.Oam`0a#`d`4`k`raSaK`d`d`d`d`h.N`zaL`d`d`d#2aF.0#yaP#y.H.w#4adaEad.8`s`d",
".`.d`Z#S`B#B#m`d`d.h#c`B#x`Z`2#c`d`d#t`k#EaS.p`d`d`h.g#EaJ`h`d`d`d`Q`u#W`u.cae#hawasac.zaC`D`s`d",
"`f#m#m`f#m#mao.M.M.o`p`P`B#l`0#s`d`d`d`d`E#EaS#5.ma`aS`C`h`d`d`d`o`o`oafaf#r`3`x#Z.w`b`Mar#X#Y`d",
"#m#J#J`Z#J`Z.6`Z.Z.J.Gan`Aan`w.s`d`d`d`d`daQah.1.1#E.v`h`d`d`d`d.E#z#p#p`n.uaIalawac`M`vac#X`s`d",
"`f#S#S#S`B`0#L#R.Z.y`S#j`#.G`j#d`d`d`d`d`d`d`g`r#E.t`s`d`d`d`d`daI.#asadad`o#v.Yab#1av`b.S`i`s`d",
".M`8#S`Z`Z#L#R.J.J`S`S#i`l`6.n`d`d`d`d`d`d.I.R`r.x.1#M`d`d`d`d`daf#p.iadad`G.a`.`3.q#X`i`i`i`s`d",
".M#J`B`Z`Z.Z.J.J`S`S#n`L#Q`a`z`d`d`d`d`d.IaS#eahag`O`r.f`d`d`d`daF`nas.iad`q#r#Y`h`s#Y#Y`s#Y`s`d",
"#``Z#S`Z.Z.Z.J#U`S.y`L..`l`a`H`d`d`d`daQ.t`T`O`d`d`s`k#E`R`d`d`daMaN`G`I`mavaHaM.Fae.2.0.E.2`d`d",
"#`.d`Z.Z.Z.J`S`A.y`L.P#K`U`a.l`d`d`d`haR.KaS#t`d`d`d`h`e`k`d`d`d`X`o`1auaB`NaT`q.4`X`XaA`F`u`d`d",
"#b`8#L.Z.J#U`S#N#i..#K#.`U.W.x`d`d`d`4#f#eaJ`d`d`d`d`d`R#E#7`d`d.E`h.X.r.8aw.k`Iaz.4.B#a#Y.D`d`d",
"`j`c`S`2.P#K`l`6#I##`a`a.W.W`T`d`d`daL``.R#7`d`d`d`d`d`daJ#t`d`d`d`u`d`d.e.3aG.q.q`y`s#Wax`d`d`d",
"#g.p#o#Cai#E.x`T``````.T.T``.T`d`d`d#t#C`4`d`d`d`d`d`d`d`d.I`d`d`d`d`d`d`d`d.c#A#W#A.c`d`d`d`d`d",
"`d`d`d`d`d`d`d`d`d`d`d`d`d`d`d`d`d`d`d`d`d`d`d`d`d`d`d`d`d`d`d`d`d`d`d`d`d`d`d`d`d`d`d`d`d`d`d`d"
};
