/* XPM */
static const char *sr_16_2_xpm[] = {
/* width height num_colors chars_per_pixel */
"    16    16      256            2",
/* colors */
"`` c None",
"`. c #fefefe",
"`# c #ffffff",
"`a c #c1c1c1",
"`b c #b3b3b3",
"`c c #f2f2f2",
"`d c #f4f4f4",
"`e c #b1b1b1",
"`f c #cecece",
"`g c #f9f9f9",
"`h c #bdbdbd",
"`i c #a8a8a8",
"`j c #f5f5f5",
"`k c #fdfdfd",
"`l c #b2b2b2",
"`m c #c9c9c9",
"`n c #fbfbfb",
"`o c #f3f3f3",
"`p c #f0f0f0",
"`q c #656565",
"`r c #959595",
"`s c #a6a6a6",
"`t c #9a9a9a",
"`u c #989898",
"`v c #4c4c4c",
"`w c #545454",
"`x c #c4c4c4",
"`y c #c0c0c0",
"`z c #5e5e5e",
"`A c #868686",
"`B c #8c8c8c",
"`C c #818181",
"`D c #777777",
"`E c #4b4b4b",
"`F c #b6b6b6",
"`G c #d3d3d3",
"`H c #8b8b8b",
"`I c #cccccc",
"`J c #979797",
"`K c #ababab",
"`L c #696969",
"`M c #e9e9e9",
"`N c #fcfcfc",
"`O c #f7f7f7",
"`P c #8d8d8d",
"`Q c #e3e3e3",
"`R c #a2a2a2",
"`S c #e5e5e5",
"`T c #e8e8e8",
"`U c #909090",
"`V c #919191",
"`W c #878787",
"`X c #e2e2e2",
"`Y c #f6f6f6",
"`Z c #dfdfdf",
"`0 c #a1a1a1",
"`1 c #7a7a7a",
"`2 c #d0d0d0",
"`3 c #cfcfcf",
"`4 c #bababa",
"`5 c #adadad",
"`6 c #787878",
"`7 c #5f5f5f",
"`8 c #848484",
".` c #808080",
".. c #737373",
".# c #404040",
".a c #828282",
".b c #7e7e7e",
".c c #5b5b5b",
".d c #484848",
".e c #9f9f9f",
".f c #b8b8b8",
".g c #898989",
".h c #d5d5d5",
".i c #f1f1f1",
".j c #aeaeae",
".k c #fafafa",
".l c #dedede",
".m c #8a8a8a",
".n c #c3c3c3",
".o c #a4a4a4",
".p c #c2c2c2",
".q c #d7d7d7",
".r c #888888",
".s c #9d9d9d",
".t c #d1d1d1",
".u c #9b9b9b",
".v c #e7e7e7",
".w c #d9d9d9",
".x c #b7b7b7",
".y c #6f6f6f",
".z c #464646",
".A c #515151",
".B c #535353",
".C c #000000",
".D c #000000",
".E c #000000",
".F c #000000",
".G c #000000",
".H c #000000",
".I c #000000",
".J c #000000",
".K c #000000",
".L c #000000",
".M c #000000",
".N c #000000",
".O c #000000",
".P c #000000",
".Q c #000000",
".R c #000000",
".S c #000000",
".T c #000000",
".U c #000000",
".V c #000000",
".W c #000000",
".X c #000000",
".Y c #000000",
".Z c #000000",
".0 c #000000",
".1 c #000000",
".2 c #000000",
".3 c #000000",
".4 c #000000",
".5 c #000000",
".6 c #000000",
".7 c #000000",
".8 c #000000",
"#` c #000000",
"#. c #000000",
"## c #000000",
"#a c #000000",
"#b c #000000",
"#c c #000000",
"#d c #000000",
"#e c #000000",
"#f c #000000",
"#g c #000000",
"#h c #000000",
"#i c #000000",
"#j c #000000",
"#k c #000000",
"#l c #000000",
"#m c #000000",
"#n c #000000",
"#o c #000000",
"#p c #000000",
"#q c #000000",
"#r c #000000",
"#s c #000000",
"#t c #000000",
"#u c #000000",
"#v c #000000",
"#w c #000000",
"#x c #000000",
"#y c #000000",
"#z c #000000",
"#A c #000000",
"#B c #000000",
"#C c #000000",
"#D c #000000",
"#E c #000000",
"#F c #000000",
"#G c #000000",
"#H c #000000",
"#I c #000000",
"#J c #000000",
"#K c #000000",
"#L c #000000",
"#M c #000000",
"#N c #000000",
"#O c #000000",
"#P c #000000",
"#Q c #000000",
"#R c #000000",
"#S c #000000",
"#T c #000000",
"#U c #000000",
"#V c #000000",
"#W c #000000",
"#X c #000000",
"#Y c #000000",
"#Z c #000000",
"#0 c #000000",
"#1 c #000000",
"#2 c #000000",
"#3 c #000000",
"#4 c #000000",
"#5 c #000000",
"#6 c #000000",
"#7 c #000000",
"#8 c #000000",
"a` c #000000",
"a. c #000000",
"a# c #000000",
"aa c #000000",
"ab c #000000",
"ac c #000000",
"ad c #000000",
"ae c #000000",
"af c #000000",
"ag c #000000",
"ah c #000000",
"ai c #000000",
"aj c #000000",
"ak c #000000",
"al c #000000",
"am c #000000",
"an c #000000",
"ao c #000000",
"ap c #000000",
"aq c #000000",
"ar c #000000",
"as c #000000",
"at c #000000",
"au c #000000",
"av c #000000",
"aw c #000000",
"ax c #000000",
"ay c #000000",
"az c #000000",
"aA c #000000",
"aB c #000000",
"aC c #000000",
"aD c #000000",
"aE c #000000",
"aF c #000000",
"aG c #000000",
"aH c #000000",
"aI c #000000",
"aJ c #000000",
"aK c #000000",
"aL c #000000",
"aM c #000000",
"aN c #000000",
"aO c #000000",
"aP c #000000",
"aQ c #000000",
"aR c #000000",
"aS c #000000",
"aT c #000000",
"aU c #000000",
"aV c #000000",
"aW c #000000",
"aX c #000000",
"aY c #000000",
"aZ c #000000",
"a0 c #000000",
"a1 c #000000",
"a2 c #000000",
"a3 c #000000",
"a4 c #000000",
"a5 c #000000",
"a6 c #000000",
"a7 c #000000",
"a8 c #000000",
/* pixels */
"````````````````````````````````",
"```.`#`a`b`#`c`d`e`f`#`g`g`h`i``",
"```j`k`l`m`n`o`p`q`r`s`t`u`v`w``",
"```x`y`z`A`B`C`D`E`s`F`a`G`H`I``",
"```J`K`L`G`M`#`#`H`k`#`N`O`P`Q``",
"```#`N`R`#`.`#`g`C`k`#`#`g`C`S``",
"```#`T`U`#`N`o`Q`V`#`#`#`#`W`T``",
"```#`X`P`#`#`Y`Z`0`#`k`d`N`1`2``",
"```Y`G`t`3`4`5`6`7`8`6.`...#.a``",
"``.b.c.d`J.e.f.g`H.h`T`p`G`V`O``",
"``.i`a`I`#`g`#.j`e.k`#`#.l.m`.``",
"```O`R.n`n`p`#.o.p`#`k`O.q.r`#``",
"```#.s.t`N`O`#.u`2`#`#`#`3`B`#``",
"```N`0.v`#`#`k`V.w`g`Y`p.x`P.l``",
"```G.y`0`u`0.u.z...b.b`A.A.B.r``",
"````````````````````````````````"
};
