/* XPM */
static const char *charmap16_xpm[] = {
/* width height num_colors chars_per_pixel */
"    16    16      256            2",
/* colors */
"`` c None",
"`. c #858177",
"`# c #7f7869",
"`a c #847e73",
"`b c #95928b",
"`c c #646568",
"`d c #8c7b5c",
"`e c #bfa56b",
"`f c #d0be91",
"`g c #d7c9a4",
"`h c #cab684",
"`i c #a38c5f",
"`j c #817767",
"`k c #355d91",
"`l c #969487",
"`m c #d0b881",
"`n c #d5c38f",
"`o c #dfcc97",
"`p c #e1cb8d",
"`q c #dbc382",
"`r c #d5ba7b",
"`s c #c7a767",
"`t c #7d6a44",
"`u c #3a6397",
"`v c #609de8",
"`w c #7ea5d3",
"`x c #c9c9be",
"`y c #e7d9b4",
"`z c #e5d19b",
"`A c #e5c46d",
"`B c #e3c87e",
"`C c #b3b5a8",
"`D c #8d9dac",
"`E c #8f887c",
"`F c #545456",
"`G c #778395",
"`H c #3f81d4",
"`I c #8ca6bd",
"`J c #93aac0",
"`K c #d0ccbc",
"`L c #e5d8b4",
"`M c #dbc68b",
"`N c #d9c180",
"`O c #d7c38b",
"`P c #8babcd",
"`Q c #74a6e2",
"`R c #6084b5",
"`S c #63605c",
"`T c #486c9c",
"`U c #73848f",
"`V c #c2a664",
"`W c #d6c291",
"`X c #d6c9a6",
"`Y c #d8c89e",
"`Z c #adada3",
"`0 c #a7b1ba",
"`1 c #b4bbc0",
"`2 c #a1b3c9",
"`3 c #8fa7c4",
"`4 c #7d99bd",
"`5 c #7385a3",
"`6 c #686a73",
"`7 c #466c9f",
"`8 c #92958b",
".` c #cab481",
".. c #c3b492",
".# c #c9b893",
".a c #c4bca5",
".b c #b6b5b2",
".c c #cdcccb",
".d c #cdcbc9",
".e c #dad7d0",
".f c #d6d1cb",
".g c #d7d3cb",
".h c #d7d4cf",
".i c #d3d1cc",
".j c #aaaaa9",
".k c #4771ad",
".l c #6794c9",
".m c #aa9e7f",
".n c #c8ac6d",
".o c #cabb96",
".p c #aaa08e",
".q c #c3c1be",
".r c #d0cec9",
".s c #ccc9c4",
".t c #7a7875",
".u c #545351",
".v c #b0aea9",
".w c #dbd7d2",
".x c #dad8d2",
".y c #989896",
".z c #3c6098",
".A c #557eaf",
".B c #a48d61",
".C c #dabf7b",
".D c #c1ad7b",
".E c #a7946f",
".F c #cbcac8",
".G c #dfddd8",
".H c #979592",
".I c #373635",
".J c #b3b1ae",
".K c #cac7c2",
".L c #dbd8d2",
".M c #dfddd7",
".N c #9a9998",
".O c #3e527d",
".P c #4469a2",
".Q c #897759",
".R c #b29c70",
".S c #a2906c",
".T c #a08f6d",
".U c #d1cfcc",
".V c #e6e3dd",
".W c #9b9995",
".X c #3c3b3b",
".Y c #c3c1bd",
".Z c #d1cec9",
".0 c #e0ddd8",
".1 c #e5e2dd",
".2 c #9d9d9b",
".3 c #6b6f78",
".4 c #3f5e9b",
".5 c #52617e",
".6 c #7e6c57",
".7 c #977d53",
".8 c #9c8b6d",
"#` c #d3d1cf",
"#. c #e4e1db",
"## c #e0ded8",
"#a c #787774",
"#b c #373836",
"#c c #bab8b3",
"#d c #eae7e1",
"#e c #e9e6e1",
"#f c #9c9c9b",
"#g c #35415f",
"#h c #475f8b",
"#i c #665d55",
"#j c #92754f",
"#k c #988567",
"#l c #d4d3d0",
"#m c #dddbd5",
"#n c #8e8d89",
"#o c #dad7d3",
"#p c #ebe8e2",
"#q c #e9e7e1",
"#r c #999898",
"#s c #808082",
"#t c #364362",
"#u c #4b587e",
"#v c #58555f",
"#w c #6e665d",
"#x c #c6c5c1",
"#y c #f1efe9",
"#z c #eeebe6",
"#A c #eae8e2",
"#B c #e7e4e0",
"#C c #eae8e3",
"#D c #f6f4ee",
"#E c #e4e2de",
"#F c #969695",
"#G c #7b7b7b",
"#H c #35384b",
"#I c #3d466a",
"#J c #585b69",
"#K c #9a9a96",
"#L c #a8a6a4",
"#M c #acaba9",
"#N c #a9a8a6",
"#O c #a6a5a3",
"#P c #a09e9d",
"#Q c #a3a3a1",
"#R c #a7a7a5",
"#S c #929292",
"#T c #767677",
"#U c #4d4e51",
"#V c #777776",
"#W c #8e8d8c",
"#X c #8c8b8a",
"#Y c #8d8d8d",
"#Z c #8a8a8a",
"#0 c #8a8989",
"#1 c #878786",
"#2 c #858585",
"#3 c #979797",
"#4 c #939393",
"#5 c #9a9a9a",
"#6 c #9d9d9d",
"#7 c #a0a0a0",
"#8 c #9c9c9c",
"a` c #959595",
"a. c #9f9f9f",
"a# c #000000",
"aa c #000000",
"ab c #000000",
"ac c #000000",
"ad c #000000",
"ae c #000000",
"af c #000000",
"ag c #000000",
"ah c #000000",
"ai c #000000",
"aj c #000000",
"ak c #000000",
"al c #000000",
"am c #000000",
"an c #000000",
"ao c #000000",
"ap c #000000",
"aq c #000000",
"ar c #000000",
"as c #000000",
"at c #000000",
"au c #000000",
"av c #000000",
"aw c #000000",
"ax c #000000",
"ay c #000000",
"az c #000000",
"aA c #000000",
"aB c #000000",
"aC c #000000",
"aD c #000000",
"aE c #000000",
"aF c #000000",
"aG c #000000",
"aH c #000000",
"aI c #000000",
"aJ c #000000",
"aK c #000000",
"aL c #000000",
"aM c #000000",
"aN c #000000",
"aO c #000000",
"aP c #000000",
"aQ c #000000",
"aR c #000000",
"aS c #000000",
"aT c #000000",
"aU c #000000",
"aV c #000000",
"aW c #000000",
"aX c #000000",
"aY c #000000",
"aZ c #000000",
"a0 c #000000",
"a1 c #000000",
"a2 c #000000",
"a3 c #000000",
"a4 c #000000",
"a5 c #000000",
"a6 c #000000",
"a7 c #000000",
"a8 c #000000",
/* pixels */
"`````````````.`#`a`b````````````",
"`````````c`d`e`f`g`h`i`j````````",
"```````k`l`m`n`o`p`q`r`s`t``````",
"`````u`v`w`x`y`z`A`B`C`D`E`F````",
"```G`H`I`J`K`L`M`N`O`P`Q`R`S````",
"```T`U`V`W`X`Y`Z`0`1`2`3`4`5`6``",
"```7`8.`...#.a.b.c.d.e.f.g.h.i.j",
"``.k.l.m.n.o.p.q.r.s.t.u.v.w.x.y",
"``.z.A.B.C.D.E.F.G.H.I.J.K.L.M.N",
"``.O.P.Q.R.S.T.U.V.W.X.Y.Z.0.1.2",
"``.3.4.5.6.7.8#`#.###a#b#c#d#e#f",
"````#g#h#i#j#k#l#e#d#m#n#o#p#q#r",
"````#s#t#u#v#w#x#y#z#A#B#C#D#E#F",
"``````#G#H#I#J#K#L#M#N#O#P#Q#R#S",
"``````````#T#U#V#W#X#Y#Z#0#1#2#3",
"````````````````#4#5#6#7#8a`a.``"
};
