/* XPM */
static const char *document_xpm[] = {
/* width height num_colors chars_per_pixel */
"    16    16      256            2",
/* colors */
"`` c None",
"`. c #d3d2d3",
"`# c #b3b2b3",
"`a c #bbbabb",
"`b c #d6d6d6",
"`c c #fbfbfb",
"`d c #b7b7b7",
"`e c #f8f8f8",
"`f c #e0e0e0",
"`g c #d0d0d0",
"`h c #dad9da",
"`i c #d3d3d3",
"`j c #e7eae8",
"`k c #e6e9e7",
"`l c #dde0de",
"`m c #cccccc",
"`n c #f7f7f7",
"`o c #e8e7e8",
"`p c #e4e7e5",
"`q c #c7c8c7",
"`r c #e2e4e3",
"`s c #f6f7f7",
"`t c #d1d0d1",
"`u c #d4d4d4",
"`v c #e9ebea",
"`w c #e7e9e8",
"`x c #c7c7c7",
"`y c #c5c5c5",
"`z c #c9c9c9",
"`A c #ebedec",
"`B c #e8eae9",
"`C c #e4e6e5",
"`D c #e0e1e1",
"`E c #dddddd",
"`F c #a5a4a5",
"`G c #edefee",
"`H c #eff1f0",
"`I c #f8f7f8",
"`J c #b5b4b5",
"`K c #f1f3f2",
"`L c #fbfafb",
"`M c #b8b7b8",
"`N c #f3f5f4",
"`O c #f4f5f4",
"`P c #f5f6f5",
"`Q c #f6f7f6",
"`R c #f7f8f7",
"`S c #f8f9f8",
"`T c #f9faf9",
"`U c #fafafa",
"`V c #fbfcfc",
"`W c #fcfcfc",
"`X c #f4f3f4",
"`Y c #b7b6b7",
"`Z c #f2f2f2",
"`0 c #cac9ca",
"`1 c #cdcccd",
"`2 c #f3f3f3",
"`3 c #000000",
"`4 c #000000",
"`5 c #000000",
"`6 c #000000",
"`7 c #000000",
"`8 c #000000",
".` c #000000",
".. c #000000",
".# c #000000",
".a c #000000",
".b c #000000",
".c c #000000",
".d c #000000",
".e c #000000",
".f c #000000",
".g c #000000",
".h c #000000",
".i c #000000",
".j c #000000",
".k c #000000",
".l c #000000",
".m c #000000",
".n c #000000",
".o c #000000",
".p c #000000",
".q c #000000",
".r c #000000",
".s c #000000",
".t c #000000",
".u c #000000",
".v c #000000",
".w c #000000",
".x c #000000",
".y c #000000",
".z c #000000",
".A c #000000",
".B c #000000",
".C c #000000",
".D c #000000",
".E c #000000",
".F c #000000",
".G c #000000",
".H c #000000",
".I c #000000",
".J c #000000",
".K c #000000",
".L c #000000",
".M c #000000",
".N c #000000",
".O c #000000",
".P c #000000",
".Q c #000000",
".R c #000000",
".S c #000000",
".T c #000000",
".U c #000000",
".V c #000000",
".W c #000000",
".X c #000000",
".Y c #000000",
".Z c #000000",
".0 c #000000",
".1 c #000000",
".2 c #000000",
".3 c #000000",
".4 c #000000",
".5 c #000000",
".6 c #000000",
".7 c #000000",
".8 c #000000",
"#` c #000000",
"#. c #000000",
"## c #000000",
"#a c #000000",
"#b c #000000",
"#c c #000000",
"#d c #000000",
"#e c #000000",
"#f c #000000",
"#g c #000000",
"#h c #000000",
"#i c #000000",
"#j c #000000",
"#k c #000000",
"#l c #000000",
"#m c #000000",
"#n c #000000",
"#o c #000000",
"#p c #000000",
"#q c #000000",
"#r c #000000",
"#s c #000000",
"#t c #000000",
"#u c #000000",
"#v c #000000",
"#w c #000000",
"#x c #000000",
"#y c #000000",
"#z c #000000",
"#A c #000000",
"#B c #000000",
"#C c #000000",
"#D c #000000",
"#E c #000000",
"#F c #000000",
"#G c #000000",
"#H c #000000",
"#I c #000000",
"#J c #000000",
"#K c #000000",
"#L c #000000",
"#M c #000000",
"#N c #000000",
"#O c #000000",
"#P c #000000",
"#Q c #000000",
"#R c #000000",
"#S c #000000",
"#T c #000000",
"#U c #000000",
"#V c #000000",
"#W c #000000",
"#X c #000000",
"#Y c #000000",
"#Z c #000000",
"#0 c #000000",
"#1 c #000000",
"#2 c #000000",
"#3 c #000000",
"#4 c #000000",
"#5 c #000000",
"#6 c #000000",
"#7 c #000000",
"#8 c #000000",
"a` c #000000",
"a. c #000000",
"a# c #000000",
"aa c #000000",
"ab c #000000",
"ac c #000000",
"ad c #000000",
"ae c #000000",
"af c #000000",
"ag c #000000",
"ah c #000000",
"ai c #000000",
"aj c #000000",
"ak c #000000",
"al c #000000",
"am c #000000",
"an c #000000",
"ao c #000000",
"ap c #000000",
"aq c #000000",
"ar c #000000",
"as c #000000",
"at c #000000",
"au c #000000",
"av c #000000",
"aw c #000000",
"ax c #000000",
"ay c #000000",
"az c #000000",
"aA c #000000",
"aB c #000000",
"aC c #000000",
"aD c #000000",
"aE c #000000",
"aF c #000000",
"aG c #000000",
"aH c #000000",
"aI c #000000",
"aJ c #000000",
"aK c #000000",
"aL c #000000",
"aM c #000000",
"aN c #000000",
"aO c #000000",
"aP c #000000",
"aQ c #000000",
"aR c #000000",
"aS c #000000",
"aT c #000000",
"aU c #000000",
"aV c #000000",
"aW c #000000",
"aX c #000000",
"aY c #000000",
"aZ c #000000",
"a0 c #000000",
"a1 c #000000",
"a2 c #000000",
"a3 c #000000",
"a4 c #000000",
"a5 c #000000",
"a6 c #000000",
"a7 c #000000",
"a8 c #000000",
/* pixels */
"`````.`#`#`#`#`#`#`a`b``````````",
"```c`d`````````e`f`g`h`i````````",
"```c`d```j`j`j`k`l`m`n`o`b``````",
"```c`d```j`j`j`j`p`q`r`s`t`u````",
"```c`d```v`v`v`v`w`x`y`m`z`#````",
"```c`d```A`A`A`A`A`B`C`D`E`F````",
"```c`d```G`G`G`G`G`G`G`H`I`J````",
"```c`d```H`H`H`H`H`H`H`K`L`M````",
"```c`d```K`K`K`K`K`K`K`N`L`M````",
"```c`d```O`O`O`O`O`O`O`P`L`M````",
"```c`d```Q`Q`Q`Q`Q`Q`Q`R`L`M````",
"```c`d```S`S`S`S`S`S`S`T`L`M````",
"```c`d```U`U`U`U`U`U`U`c`L`M````",
"```c`d```V`V`V`V`V`V`V`W`L`M````",
"```X`d```````````````````L`Y`e``",
"```Z`0`#`#`#`#`#`#`#`#`#`Y`1`2``"
};
