/* XPM */
static const char *folder_arch1_16_xpm[] = {
/* width height num_colors chars_per_pixel */
"    16    16      256            2",
/* colors */
"`` c None",
"`. c #e8f7ff",
"`# c #dfecff",
"`a c #d2e1ff",
"`b c #c6d4f2",
"`c c #b7c6e5",
"`d c #abbad7",
"`e c #b2c1de",
"`f c #e3f2ff",
"`g c #d8e5ff",
"`h c #bfceed",
"`i c #b6c3e2",
"`j c #a9b8d7",
"`k c #9daccb",
"`l c #b3c2df",
"`m c #d6e4ff",
"`n c #e2f2ff",
"`o c #cbdaf9",
"`p c #cad7f7",
"`q c #c6d6f4",
"`r c #c0cfee",
"`s c #e1efff",
"`t c #e7f6ff",
"`u c #ddebff",
"`v c #e6f3ff",
"`w c #cddbf9",
"`x c #c3d0f0",
"`y c #b5c5e3",
"`z c #aab9d6",
"`A c #dbe9ff",
"`B c #d9e6ff",
"`C c #d4e3ff",
"`D c #e1f1ff",
"`E c #b6c6e4",
"`F c #e0edff",
"`G c #cbd8f8",
"`H c #c4d1f1",
"`I c #cedefd",
"`J c #e4f3ff",
"`K c #acbbd8",
"`L c #a4b3d0",
"`M c #dceaff",
"`N c #cedcfa",
"`O c #a2afcf",
"`P c #b0bfde",
"`Q c #d9e8ff",
"`R c #c5d3f1",
"`S c #b8c7e6",
"`T c #acbcdb",
"`U c #a2b1ce",
"`V c #afbedd",
"`W c #d8e8ff",
"`X c #a4b4d2",
"`Y c #b1c0df",
"`Z c #c7d7f5",
"`0 c #cfddfb",
"`1 c #d3e2ff",
"`2 c #c7d5f3",
"`3 c #000000",
"`4 c #000000",
"`5 c #000000",
"`6 c #000000",
"`7 c #000000",
"`8 c #000000",
".` c #000000",
".. c #000000",
".# c #000000",
".a c #000000",
".b c #000000",
".c c #000000",
".d c #000000",
".e c #000000",
".f c #000000",
".g c #000000",
".h c #000000",
".i c #000000",
".j c #000000",
".k c #000000",
".l c #000000",
".m c #000000",
".n c #000000",
".o c #000000",
".p c #000000",
".q c #000000",
".r c #000000",
".s c #000000",
".t c #000000",
".u c #000000",
".v c #000000",
".w c #000000",
".x c #000000",
".y c #000000",
".z c #000000",
".A c #000000",
".B c #000000",
".C c #000000",
".D c #000000",
".E c #000000",
".F c #000000",
".G c #000000",
".H c #000000",
".I c #000000",
".J c #000000",
".K c #000000",
".L c #000000",
".M c #000000",
".N c #000000",
".O c #000000",
".P c #000000",
".Q c #000000",
".R c #000000",
".S c #000000",
".T c #000000",
".U c #000000",
".V c #000000",
".W c #000000",
".X c #000000",
".Y c #000000",
".Z c #000000",
".0 c #000000",
".1 c #000000",
".2 c #000000",
".3 c #000000",
".4 c #000000",
".5 c #000000",
".6 c #000000",
".7 c #000000",
".8 c #000000",
"#` c #000000",
"#. c #000000",
"## c #000000",
"#a c #000000",
"#b c #000000",
"#c c #000000",
"#d c #000000",
"#e c #000000",
"#f c #000000",
"#g c #000000",
"#h c #000000",
"#i c #000000",
"#j c #000000",
"#k c #000000",
"#l c #000000",
"#m c #000000",
"#n c #000000",
"#o c #000000",
"#p c #000000",
"#q c #000000",
"#r c #000000",
"#s c #000000",
"#t c #000000",
"#u c #000000",
"#v c #000000",
"#w c #000000",
"#x c #000000",
"#y c #000000",
"#z c #000000",
"#A c #000000",
"#B c #000000",
"#C c #000000",
"#D c #000000",
"#E c #000000",
"#F c #000000",
"#G c #000000",
"#H c #000000",
"#I c #000000",
"#J c #000000",
"#K c #000000",
"#L c #000000",
"#M c #000000",
"#N c #000000",
"#O c #000000",
"#P c #000000",
"#Q c #000000",
"#R c #000000",
"#S c #000000",
"#T c #000000",
"#U c #000000",
"#V c #000000",
"#W c #000000",
"#X c #000000",
"#Y c #000000",
"#Z c #000000",
"#0 c #000000",
"#1 c #000000",
"#2 c #000000",
"#3 c #000000",
"#4 c #000000",
"#5 c #000000",
"#6 c #000000",
"#7 c #000000",
"#8 c #000000",
"a` c #000000",
"a. c #000000",
"a# c #000000",
"aa c #000000",
"ab c #000000",
"ac c #000000",
"ad c #000000",
"ae c #000000",
"af c #000000",
"ag c #000000",
"ah c #000000",
"ai c #000000",
"aj c #000000",
"ak c #000000",
"al c #000000",
"am c #000000",
"an c #000000",
"ao c #000000",
"ap c #000000",
"aq c #000000",
"ar c #000000",
"as c #000000",
"at c #000000",
"au c #000000",
"av c #000000",
"aw c #000000",
"ax c #000000",
"ay c #000000",
"az c #000000",
"aA c #000000",
"aB c #000000",
"aC c #000000",
"aD c #000000",
"aE c #000000",
"aF c #000000",
"aG c #000000",
"aH c #000000",
"aI c #000000",
"aJ c #000000",
"aK c #000000",
"aL c #000000",
"aM c #000000",
"aN c #000000",
"aO c #000000",
"aP c #000000",
"aQ c #000000",
"aR c #000000",
"aS c #000000",
"aT c #000000",
"aU c #000000",
"aV c #000000",
"aW c #000000",
"aX c #000000",
"aY c #000000",
"aZ c #000000",
"a0 c #000000",
"a1 c #000000",
"a2 c #000000",
"a3 c #000000",
"a4 c #000000",
"a5 c #000000",
"a6 c #000000",
"a7 c #000000",
"a8 c #000000",
/* pixels */
"`````````````.`#`a`b`c`d`e`f````",
"```````g`b`h`h`i`j`k`l`m`n`.````",
"```````o`p`q`r`i`j`d`s`s`s`t````",
"```````o`p`q`r`i`j`d`u`u`u`v````",
"```````w`p`q`x`y`z`d`A`A`A`f````",
"```````w`p`q`x`y`z`z`B`B`B`n````",
"```````w`p`q`x`y`z`z`C`C`C`D````",
"```````w`p`q`x`E`z`j`a`a`a`F````",
"```````w`G`q`H`E`d`j`I`I`I`u````",
"`````J`b`G`q`H`c`K`L`G`w`w`M````",
"`````N`N`G`q`H`c`K`O`e`G`G`A````",
"`````w`N`G`q`H`c`K`O`P`q`q`Q````",
"`````w`N`G`q`R`S`T`U`V`b`b`W````",
"`````I`N`G`q`R`S`T`X`Y`x`R`f````",
"`````Q`N`G`Z`0`1`#```r`x`f``````",
"```````J`f```````````2`J````````"
};
