/* XPM */
static const char *shape_icon16_xpm[] = {
/* width height num_colors chars_per_pixel */
"    64    16      256            2",
/* colors */
"`` c #040204",
"`. c #5c8a3c",
"`# c #9cc274",
"`a c #948e64",
"`b c #ccc69c",
"`c c #6ca244",
"`d c #94ae84",
"`e c #dce6cc",
"`f c None",
"`g c #444644",
"`h c #848254",
"`i c #b4deb4",
"`j c #ece6bc",
"`k c #7cb254",
"`l c #646664",
"`m c #c4c294",
"`n c #9c9e74",
"`o c #b4ae84",
"`p c #64963c",
"`q c #fcf6cc",
"`r c #6c6a44",
"`s c #a4d2ac",
"`t c #749254",
"`u c #74a27c",
"`v c #94c29c",
"`w c #949294",
"`x c #dcdeb4",
"`y c #848284",
"`z c #84b28c",
"`A c #acaaac",
"`B c #d4fed4",
"`C c #9c9e9c",
"`D c #b4b2b4",
"`E c #f4f6f4",
"`F c #7c764c",
"`G c #2c2e2c",
"`H c #54865c",
"`I c #a4ca84",
"`J c #8cb264",
"`K c #a4c284",
"`L c #9c966c",
"`M c #84a264",
"`N c #545654",
"`O c #c4eecc",
"`P c #b4ce94",
"`Q c #6c966c",
"`R c #e4fee4",
"`S c #cccacc",
"`T c #94ba6c",
"`U c #8c8a5c",
"`V c #f4f2f4",
"`W c #4c764c",
"`X c #aca67c",
"`Y c #7caa7c",
"`Z c #747674",
"`0 c #3c3a3c",
"`1 c #648e64",
"`2 c #74aa4c",
"`3 c #bce6bc",
"`4 c #eceec4",
"`5 c #a4a67c",
"`6 c #c4be94",
"`7 c #6c9e3c",
"`8 c #fcfedc",
".` c #dcdadc",
".. c #848e94",
".# c #dcfedc",
".a c #bcbabc",
".b c #fcfafc",
".c c #8cba64",
".d c #5c7e44",
".e c #9cc67c",
".f c #949264",
".g c #74a644",
".h c #acaa7c",
".i c #545254",
".j c #8c865c",
".k c #84b25c",
".l c #c4c2c4",
".m c #a49e74",
".n c #b4b284",
".o c #6c9644",
".p c #6c727c",
".q c #749e74",
".r c #9ccaa4",
".s c #9c9a9c",
".t c #94be94",
".u c #a4a6a4",
".v c #7c7e54",
".w c #2c3244",
".x c #a4c67c",
".y c #9c9a6c",
".z c #646264",
".A c #bcd6ac",
".B c #d4d2d4",
".C c #4c7e54",
".D c #7cae84",
".E c #64926c",
".F c #f4eec4",
".G c #0c0a0c",
".H c #64923c",
".I c #9cc27c",
".J c #ccca9c",
".K c #6ca644",
".L c #e4e6bc",
".M c #847e54",
".N c #444a54",
".O c #84865c",
".P c #b4e2bc",
".Q c #649a3c",
".R c #fcfacc",
".S c #74724c",
".T c #acd6ac",
".U c #7ca67c",
".V c #9cc69c",
".W c #949694",
".X c #e4deb4",
".Y c #848684",
".Z c #8cb68c",
".0 c #acaeac",
".1 c #d4fedc",
".2 c #a4a2a4",
".3 c #b4b6b4",
".4 c #ecfef4",
".5 c #7c7a54",
".6 c #2c2e34",
".7 c #5c8a64",
".8 c #8cb664",
"#` c #7cae54",
"#. c #e4e2e4",
"## c #bcd2a4",
"#a c #c4f6cc",
"#b c #5c5a5c",
"#c c #7c7a7c",
"#d c #8c8a8c",
"#e c #6c9a74",
"#f c #94be74",
"#g c #4c7a54",
"#h c #bceac4",
"#i c #acae84",
"#j c #cccecc",
"#k c #3c3e3c",
"#l c #bcbebc",
"#m c #fcfefc",
"#n c #84b65c",
"#o c #c4c6c4",
"#p c #a4a274",
"#q c #f4f2c4",
"#r c #e4feec",
"#s c #8c8a64",
"#t c #7caa84",
"#u c #648e6c",
"#v c #fcfee4",
"#w c #dcfee4",
"#x c #8cba6c",
"#y c #94926c",
"#z c #b4b28c",
"#A c #749e7c",
"#B c #a4c684",
"#C c #9c9a74",
"#D c #000000",
"#E c #000000",
"#F c #000000",
"#G c #000000",
"#H c #000000",
"#I c #000000",
"#J c #000000",
"#K c #000000",
"#L c #000000",
"#M c #000000",
"#N c #000000",
"#O c #000000",
"#P c #000000",
"#Q c #000000",
"#R c #000000",
"#S c #000000",
"#T c #000000",
"#U c #000000",
"#V c #000000",
"#W c #000000",
"#X c #000000",
"#Y c #000000",
"#Z c #000000",
"#0 c #000000",
"#1 c #000000",
"#2 c #000000",
"#3 c #000000",
"#4 c #000000",
"#5 c #000000",
"#6 c #000000",
"#7 c #000000",
"#8 c #000000",
"a` c #000000",
"a. c #000000",
"a# c #000000",
"aa c #000000",
"ab c #000000",
"ac c #000000",
"ad c #000000",
"ae c #000000",
"af c #000000",
"ag c #000000",
"ah c #000000",
"ai c #000000",
"aj c #000000",
"ak c #000000",
"al c #000000",
"am c #000000",
"an c #000000",
"ao c #000000",
"ap c #000000",
"aq c #000000",
"ar c #000000",
"as c #000000",
"at c #000000",
"au c #000000",
"av c #000000",
"aw c #000000",
"ax c #000000",
"ay c #000000",
"az c #000000",
"aA c #000000",
"aB c #000000",
"aC c #000000",
"aD c #000000",
"aE c #000000",
"aF c #000000",
"aG c #000000",
"aH c #000000",
"aI c #000000",
"aJ c #000000",
"aK c #000000",
"aL c #000000",
"aM c #000000",
"aN c #000000",
"aO c #000000",
"aP c #000000",
"aQ c #000000",
"aR c #000000",
"aS c #000000",
"aT c #000000",
"aU c #000000",
"aV c #000000",
"aW c #000000",
"aX c #000000",
"aY c #000000",
"aZ c #000000",
"a0 c #000000",
"a1 c #000000",
"a2 c #000000",
"a3 c #000000",
"a4 c #000000",
"a5 c #000000",
"a6 c #000000",
"a7 c #000000",
"a8 c #000000",
/* pixels */
"`f`f`f`f`f`f`f`f`f`f`f`f`f`f`f`f`f`f`f`f`f`f`f`f`f`f`f`f`f`f`f`f`f`f`f`f`f`f`f`f`f`f`f`f`f`f`f`f`f`f`f`f`f`f`f`f`f`f`f`f`f`f`f`f",
"`f`f`f`f.s`y.s##.A.A`w.z#c`f`f`f`f#r.1`3`R.1`3#r.1`i.4`B`i.4.1.U`f`L.m`L`a`L`L.j#y`a.j#y`a.j`f`f`f`a.m`L`a#C`L.j`L#y.j`f`f`f`f`f",
"`f`f`f`f#d.B`y######.z.l#b`f`f`f`f`3.T`z`i`s#t.P.r.U.P.V.U.P.V.7`f#z`4.L#z`4.L`o`4.L`o.F`j#i`f`f`f`o.F`j`o.F`j`o#q`j`o`f`f`f`f`f",
"`f`f`f.A.s`y..`P`P`P.p.i`Z`e`f`f`f`u.U#e.U#A`Q.q#e`1#e.E#u#e.E#u`f`L`b`6#y`b`6#y`b`6#s`6#i.j`f`f`f#s`6#i#s`6#i#s`6#i.j`f`f`f`f`f",
"`f`f`f`K`#.e#B.e#B.e.e`K`I.I`f`f`f`B`3`z`E`V#j`E`V#j`E`V#j`E`V`S`f`a#C`L`a#C`L`a#C`L.j#y#y#s`f`f`f.j#y#y`a#C`L#s#C`L#s`L#y.j`f`f",
"`f`f`K.I`T#f#f`##f.I.I#f#f#B##`f`f`s`v.q#..`.3#..`.3#..``D.`#j`A`f`o.F`j`o.F`j`o#q`j.n#q`j#i`f`f`f`X.R.F`o`4`4`o#q`j`o`4`j`o`f`f",
"`f`f.8.k#n.8.c.c#x.8.c.8.8.8`J`f`f#A#A.E#l.3`D#l.a`D#l.3.0.3.3.0`f#s`6#i#s`6#i#s`6#i#s`6#i.j`f`f`f.M#z`5#s`6#i#s`6#i#s`6#i.j`f`f",
"`f.s.Y.s#`#``k.k.k.k.k.k`k`w`l#c`f.#`O`z.b`E#j`E`V#j`E`E#j.b`V`S`f.j#y#y#s#y#y`U#y#y.j#y#y#s`f`f`f`F#s`U.j#y`L.j#y#y#s#y#y#s`f`f",
"`f#d.B`y.K`2`2`2#``2`2`2`2.z.l`N`f.V.Z.E.``S`D.`#j`D.`#j`D.B#j.0`f`X.R.F`5.R`4`5`q.F`5#v.L.m`f`f`f#p`8`x`5.R`4`5`q.F`5#v.X.m`f`f",
"`f.s`y..`c`c`c`c`c.K`c.K`c.p.i`Z`f#A#e`1.3.3.0.3.3`A.a.3`A.a.3.0`f.M#z`5.M.n`X.M#z`5`r`6`L`r`f`f`f#s.J`o.M#z`X.M#z`5`r`6#C`r`f`f",
"`f`f.o.Q`7.Q`7`7`7`7`7`7.Q.Q`M`f`f#w#h#t.b`E#o.b`E#o.b`E#o#m`V.l`f`F`U.j.S#s`U.S`U`U`F.f#s.v`f`f`f`F.O`h`F`U.O`F`U`U`F.f.j.v`f`f",
"`f`f`f.H`p`p.Q.Q.Q.Q.Q`p.Q.H`f`f`f.t#t.7#j#o.2.B.l.2#j#o`w.`.a.W`f#C.R`4`X`8.X#p#v.L`5#v.X#C`f`f`f`f`f`f`5`8.X`n#v.L`5#v.X`n`f`f",
"`f`f`f`t`N#k.N.H.H.H.w.G`G`d`f`f`f`Q#u#g`D`A`C.0.0`C`D.0`C`D.0.2`f#s`6`o`U.J#i`a.J.h`a`b.h.M`f`f`f`f`f`f.j.J`o#y.J`X`a`b.h.M`f`f",
"`f`f`f`f`0.3.6`.`.`..G.u```f`f`f`f.4`O.U.b`V#o#m`V.l.b`V#o#m`V#l`f.S`h.O.5`h.O.5.j`h.v.j`h.v`f`f`f`f`f`f.5`h.O.5.j.O.5.j`h.v`f`f",
"`f`f`f`f#b`G#b.d.d.d`g```0`f`f`f`f.V`z`1.`#j`D#.#j`D#.`S`D#.`S.2`f`f`f`f`f`f`f`f`f`f`f`f`f`f`f`f`f`f`f`f`f`f`f`f`f`f`f`f`f`f`f`f",
"`f`f`f`f`f`f`f`f`f`f`f`f`f`f`f`f`f#g#g`W.u`A`C`A.u.2`A.u.2`A.u.2`f`f`f`f`f`f`f`f`f`f`f`f`f`f`f`f`f`f`f`f`f`f`f`f`f`f`f`f`f`f`f`f"
};
