/* XPM */
static char * add_layer_xpm[] = {
"16 16 256 2",
"  	c None",
". 	c #B2B3B0",
"+ 	c #9B9C98",
"@ 	c #AEAFAC",
"# 	c #ECECEB",
"$ 	c #AFB0AD",
"% 	c #FEFEFE",
"& 	c #FFFFFF",
"* 	c #E5E5E5",
"= 	c #BCBCBA",
"- 	c #C5C6C3",
"; 	c #DFE0DE",
"> 	c #F6F6F6",
", 	c #EAEAEA",
"' 	c #E8E8E8",
") 	c #E3E3E3",
"! 	c #E1E1E1",
"~ 	c #DEDEDE",
"{ 	c #DCDCDC",
"] 	c #DADADA",
"^ 	c #BDBDBC",
"/ 	c #E4E4E3",
"( 	c #A2A39F",
"_ 	c #FAFAFA",
": 	c #EDEDED",
"< 	c #E7E7E7",
"[ 	c #E4E4E4",
"} 	c #E2E2E2",
"| 	c #E0E0E0",
"1 	c #DDDDDD",
"2 	c #DBDBDB",
"3 	c #D9D9D9",
"4 	c #DFDFDF",
"5 	c #FDFDFD",
"6 	c #DFDFDE",
"7 	c #C0C1BE",
"8 	c #FBFBFB",
"9 	c #E6E6E6",
"0 	c #D7710C",
"a 	c #D56E0B",
"b 	c #B8B8B6",
"c 	c #E9E9E8",
"d 	c #F1F1F1",
"e 	c #E79F52",
"f 	c #FEE2BA",
"g 	c #E69C4D",
"h 	c #F6F7F6",
"i 	c #A3A3A0",
"j 	c #FCFCFC",
"k 	c #B06304",
"l 	c #D27207",
"m 	c #E38613",
"n 	c #E8A054",
"o 	c #FDCB81",
"p 	c #E07F19",
"q 	c #E7AB2C",
"r 	c #EFA524",
"s 	c #B26C18",
"t 	c #D2D3D1",
"u 	c #B7B7B5",
"v 	c #D6721E",
"w 	c #E59C56",
"x 	c #E49B54",
"y 	c #F7D0A1",
"z 	c #FDC168",
"A 	c #F2A84E",
"B 	c #E8A055",
"C 	c #E69A4F",
"D 	c #D26B13",
"E 	c #BFC0BD",
"F 	c #9D9E9A",
"G 	c #9FA09C",
"H 	c #9E9F9C",
"I 	c #9E9F9B",
"J 	c #D6711B",
"K 	c #FCC87F",
"L 	c #FCAF3E",
"M 	c #D46F19",
"N 	c #D87421",
"O 	c #E08023",
"P 	c #E18125",
"Q 	c #F3AA53",
"R 	c #F09A30",
"S 	c #DE7E20",
"T 	c #DC7B1D",
"U 	c #E9A25E",
"V 	c #E8A15B",
"W 	c #000000",
"X 	c #000000",
"Y 	c #000000",
"Z 	c #000000",
"` 	c #000000",
" .	c #000000",
"..	c #000000",
"+.	c #000000",
"@.	c #000000",
"#.	c #000000",
"$.	c #000000",
"%.	c #000000",
"&.	c #000000",
"*.	c #000000",
"=.	c #000000",
"-.	c #000000",
";.	c #000000",
">.	c #000000",
",.	c #000000",
"'.	c #000000",
").	c #000000",
"!.	c #000000",
"~.	c #000000",
"{.	c #000000",
"].	c #000000",
"^.	c #000000",
"/.	c #000000",
"(.	c #000000",
"_.	c #000000",
":.	c #000000",
"<.	c #000000",
"[.	c #000000",
"}.	c #000000",
"|.	c #000000",
"1.	c #000000",
"2.	c #000000",
"3.	c #000000",
"4.	c #000000",
"5.	c #000000",
"6.	c #000000",
"7.	c #000000",
"8.	c #000000",
"9.	c #417C00",
"0.	c #000000",
"a.	c #000000",
"b.	c #D8D7B4",
"c.	c #D8D7B4",
"d.	c #0000C0",
"e.	c #000000",
"f.	c #000000",
"g.	c #000000",
"h.	c #000000",
"i.	c #000000",
"j.	c #020000",
"k.	c #D8D7D8",
"l.	c #D8D7D8",
"m.	c #00009C",
"n.	c #000000",
"o.	c #D86D7C",
"p.	c #D3951C",
"q.	c #000024",
"r.	c #040000",
"s.	c #000000",
"t.	c #612608",
"u.	c #612608",
"v.	c #001430",
"w.	c #000034",
"x.	c #000013",
"y.	c #417CC0",
"z.	c #000000",
"A.	c #000000",
"B.	c #D8D81C",
"C.	c #D8D81C",
"D.	c #000058",
"E.	c #000000",
"F.	c #000000",
"G.	c #000000",
"H.	c #000000",
"I.	c #000000",
"J.	c #000000",
"K.	c #D8D638",
"L.	c #D8D7D8",
"M.	c #000034",
"N.	c #000000",
"O.	c #D8D07C",
"P.	c #D758E8",
"Q.	c #000024",
"R.	c #002000",
"S.	c #000000",
"T.	c #000000",
"U.	c #000000",
"V.	c #000000",
"W.	c #0001D4",
"X.	c #000013",
"Y.	c #417CC0",
"Z.	c #000000",
"`.	c #000000",
" +	c #D8D884",
".+	c #D8D884",
"++	c #000058",
"@+	c #000000",
"#+	c #000000",
"$+	c #000000",
"%+	c #000000",
"&+	c #000000",
"*+	c #400000",
"=+	c #D8D638",
"-+	c #D8D638",
";+	c #000034",
">+	c #000000",
",+	c #D8D07C",
"'+	c #D3951C",
")+	c #000024",
"!+	c #000000",
"~+	c #000000",
"{+	c #000000",
"]+	c #000001",
"^+	c #000000",
"/+	c #0002A4",
"(+	c #000013",
"_+	c #417CC0",
":+	c #000000",
"<+	c #000000",
"[+	c #612608",
"}+	c #612608",
"|+	c #001340",
"1+	c #000000",
"2+	c #000000",
"3+	c #000000",
"4+	c #000000",
"5+	c #000000",
"6+	c #000000",
"7+	c #612608",
"8+	c #612608",
"9+	c #00131C",
"0+	c #000000",
"a+	c #D3951C",
"b+	c #D3951C",
"c+	c #000024",
"d+	c #000000",
"e+	c #000000",
"f+	c #000000",
"g+	c #000000",
"h+	c #000000",
"i+	c #000034",
"j+	c #000013",
"k+	c #417CC0",
"l+	c #000000",
"m+	c #000000",
"n+	c #D758E8",
"o+	c #D3951C",
"p+	c #000024",
"q+	c #000000",
"r+	c #000000",
"s+	c #000000",
"t+	c #000000",
"u+	c #000000",
"v+	c #000068",
"w+	c #000013",
"x+	c #417CC0",
"y+	c #000000",
"z+	c #000000",
"A+	c #D8F3E0",
"B+	c #D758E8",
"C+	c #000024",
"D+	c #000000",
"E+	c #000000",
"F+	c #000000",
"G+	c #000000",
"                                ",
"                                ",
"                                ",
"      . + + + + + + + + + + + @ ",
"    # $ % & & & & & & & & & * = ",
"    - ; > , ' * ) ! ~ { ] & ^ / ",
"    ( _ : < [ } | 1 2 3 4 5 (   ",
"  6 7 8 9 ) ! 4 1 [ 0 a 0 6 7   ",
"  b c d } | ~ [ [ [ e f g b c   ",
"h i j j 8 _ _ k l m n o p q r s ",
"t u ) } | ~ { v w x y z A B C D ",
"E F G G H I I J K o z L z o K M ",
"              N O P Q z R S T N ",
"                    U o P       ",
"                    V K O       ",
"                    N J N       "};
