/* XPM */
static char * cancel_map_rotate_xpm[] = {
"16 16 119 2",
"  	c None",
". 	c #FF0000",
"+ 	c #F50304",
"@ 	c #F60204",
"# 	c #F70204",
"$ 	c #DE080F",
"% 	c #DE090E",
"& 	c #484A7D",
"* 	c #6E7198",
"= 	c #5F638D",
"- 	c #C70E18",
"; 	c #65678D",
"> 	c #B3B4C4",
", 	c #C3C9D3",
"' 	c #F3F3F3",
") 	c #ADB9C9",
"! 	c #9EACC9",
"~ 	c #8E90A7",
"{ 	c #AE1424",
"] 	c #666890",
"^ 	c #D3D4DA",
"/ 	c #C9CFD5",
"( 	c #D2DEE9",
"_ 	c #C9D5E3",
": 	c #C2D1E5",
"< 	c #B7C2CD",
"[ 	c #CFD1D6",
"} 	c #BBBCC4",
"| 	c #CFD0D8",
"1 	c #FEFEFE",
"2 	c #C0C4C8",
"3 	c #D8E5F2",
"4 	c #E0EFFE",
"5 	c #C5D4E6",
"6 	c #D5D8DB",
"7 	c #F5F5F6",
"8 	c #E5E5E5",
"9 	c #8B8D9B",
"0 	c #585B88",
"a 	c #EAECED",
"b 	c #BCC2C8",
"c 	c #DAEDFF",
"d 	c #DFEFFF",
"e 	c #DBECFD",
"f 	c #C0CBD7",
"g 	c #CCD0D5",
"h 	c #ABB7C4",
"i 	c #D3D4D6",
"j 	c #B6B6BA",
"k 	c #888CA5",
"l 	c #AEB8C5",
"m 	c #B1CEEB",
"n 	c #C6DEF7",
"o 	c #D1E4F9",
"p 	c #C9DEF4",
"q 	c #E5E6E8",
"r 	c #FDFDFD",
"s 	c #B8BCC1",
"t 	c #9298A2",
"u 	c #434674",
"v 	c #666992",
"w 	c #99ACC3",
"x 	c #B5C0CC",
"y 	c #AFBCCA",
"z 	c #A9C8E8",
"A 	c #A2C2E4",
"B 	c #C0C7CE",
"C 	c #E0E2E5",
"D 	c #EEEEEE",
"E 	c #CACBCB",
"F 	c #667690",
"G 	c #424473",
"H 	c #4B4E7E",
"I 	c #859CBF",
"J 	c #DFE2E5",
"K 	c #BFC6CE",
"L 	c #84A9D1",
"M 	c #78A0CD",
"N 	c #7497BE",
"O 	c #DADADA",
"P 	c #9FA3A7",
"Q 	c #5B6891",
"R 	c #777DA1",
"S 	c #8B9EB1",
"T 	c #F0F0F0",
"U 	c #CED0D4",
"V 	c #6894C3",
"W 	c #5E8CBE",
"X 	c #5381B6",
"Y 	c #C1C1C1",
"Z 	c #787F8A",
"` 	c #585983",
" .	c #454B7B",
"..	c #7786AB",
"+.	c #CFCFCF",
"@.	c #667F9A",
"#.	c #4B7DB4",
"$.	c #4276AF",
"%.	c #3E6CA2",
"&.	c #909396",
"*.	c #666984",
"=.	c #FF5353",
"-.	c #464977",
";.	c #7B7D8F",
">.	c #5F75A0",
",.	c #516F9D",
"'.	c #526C97",
").	c #5B6991",
"!.	c #585A83",
"~.	c #FF3D3D",
"{.	c #FF3939",
"].	c #4B4D79",
"^.	c #464878",
"/.	c #FF2626",
"(.	c #FF2323",
"_.	c #FF1212",
":.	c #FF0F0F",
"<.	c #FF0C0C",
"[.	c #FF0909",
"  . .                           ",
"    + @ # @                     ",
"    $ %     & * =               ",
"  -     ; > , ' ) ! ~           ",
"  {   ] ^ / ( _ : < [ }         ",
"      | 1 2 3 4 5 6 7 8 9       ",
"    0 a b c d e f g h i j       ",
"    k l m n o p q 1 r s t u     ",
"    v w x y z A B C D E F G     ",
"    H I J 1 K L M N O P Q       ",
"      R S T U V W X Y Z `       ",
"       ...+.@.#.$.%.&.*.    =.  ",
"        -.;.>.,.'.).!.    ~.{.  ",
"              ].^.      /.(.    ",
"                    _.:.<.[.    ",
"                            .   "};
