/* XPM */
static const char *close_bw_16_xpm[] = {
/* width height num_colors chars_per_pixel */
"    16    16      256            2",
/* colors */
"`` c None",
"`. c #f1f1f1",
"`# c #efefef",
"`a c #f2f2f2",
"`b c #f3f3f3",
"`c c #eeeeee",
"`d c #c1c1c1",
"`e c #a2a2a2",
"`f c #9b9b9b",
"`g c #949494",
"`h c #8c8c8c",
"`i c #8b8b8b",
"`j c #888888",
"`k c #898989",
"`l c #868686",
"`m c #828282",
"`n c #7f7f7f",
"`o c #797979",
"`p c #969696",
"`q c #f5f5f5",
"`r c #a5a5a5",
"`s c #bebebe",
"`t c #b4b4b4",
"`u c #a0a0a0",
"`v c #999999",
"`w c #9a9a9a",
"`x c #979797",
"`y c #8a8a8a",
"`z c #858585",
"`A c #7d7d7d",
"`B c #494949",
"`C c #f0f0f0",
"`D c #bababa",
"`E c #a8a8a8",
"`F c #a6a6a6",
"`G c #929292",
"`H c #8e8e8e",
"`I c #7e7e7e",
"`J c #7a7a7a",
"`K c #585858",
"`L c #959595",
"`M c #a4a4a4",
"`N c #a7a7a7",
"`O c #f9f9f9",
"`P c #d3d3d3",
"`Q c #818181",
"`R c #727272",
"`S c #cbcbcb",
"`T c #f6f6f6",
"`U c #838383",
"`V c #747474",
"`W c #575757",
"`X c #919191",
"`Y c #a3a3a3",
"`Z c #d2d2d2",
"`0 c #fefefe",
"`1 c #cdcdcd",
"`2 c #7b7b7b",
"`3 c #777777",
"`4 c #c7c7c7",
"`5 c #c8c8c8",
"`6 c #787878",
"`7 c #bfbfbf",
"`8 c #c2c2c2",
".` c #6a6a6a",
".. c #737373",
".# c #939393",
".a c #848484",
".b c #c3c3c3",
".c c #fdfdfd",
".d c #bcbcbc",
".e c #6e6e6e",
".f c #757575",
".g c #767676",
".h c #8f8f8f",
".i c #bbbbbb",
".j c #505050",
".k c #7c7c7c",
".l c #c0c0c0",
".m c #6b6b6b",
".n c #717171",
".o c #525252",
".p c #cecece",
".q c #8d8d8d",
".r c #f7f7f7",
".s c #646464",
".t c #6c6c6c",
".u c #676767",
".v c #4b4b4b",
".w c #5f5f5f",
".x c #6f6f6f",
".y c #707070",
".z c #636363",
".A c #404040",
".B c #474747",
".C c #535353",
".D c #515151",
".E c #4f4f4f",
".F c #4d4d4d",
".G c #414141",
".H c #000000",
".I c #000000",
".J c #000000",
".K c #000000",
".L c #000000",
".M c #000000",
".N c #000000",
".O c #000000",
".P c #000000",
".Q c #000000",
".R c #000000",
".S c #000000",
".T c #000000",
".U c #000000",
".V c #000000",
".W c #000000",
".X c #000000",
".Y c #000000",
".Z c #000000",
".0 c #000000",
".1 c #000000",
".2 c #000000",
".3 c #000000",
".4 c #000000",
".5 c #000000",
".6 c #000000",
".7 c #000000",
".8 c #000000",
"#` c #000000",
"#. c #000000",
"## c #000000",
"#a c #000000",
"#b c #000000",
"#c c #000000",
"#d c #000000",
"#e c #000000",
"#f c #000000",
"#g c #000000",
"#h c #000000",
"#i c #000000",
"#j c #000000",
"#k c #000000",
"#l c #000000",
"#m c #000000",
"#n c #000000",
"#o c #000000",
"#p c #000000",
"#q c #000000",
"#r c #000000",
"#s c #000000",
"#t c #000000",
"#u c #000000",
"#v c #000000",
"#w c #000000",
"#x c #000000",
"#y c #000000",
"#z c #000000",
"#A c #000000",
"#B c #000000",
"#C c #000000",
"#D c #000000",
"#E c #000000",
"#F c #000000",
"#G c #000000",
"#H c #000000",
"#I c #000000",
"#J c #000000",
"#K c #000000",
"#L c #000000",
"#M c #000000",
"#N c #000000",
"#O c #000000",
"#P c #000000",
"#Q c #000000",
"#R c #000000",
"#S c #000000",
"#T c #000000",
"#U c #000000",
"#V c #000000",
"#W c #000000",
"#X c #000000",
"#Y c #000000",
"#Z c #000000",
"#0 c #000000",
"#1 c #000000",
"#2 c #000000",
"#3 c #000000",
"#4 c #000000",
"#5 c #000000",
"#6 c #000000",
"#7 c #000000",
"#8 c #000000",
"a` c #000000",
"a. c #000000",
"a# c #000000",
"aa c #000000",
"ab c #000000",
"ac c #000000",
"ad c #000000",
"ae c #000000",
"af c #000000",
"ag c #000000",
"ah c #000000",
"ai c #000000",
"aj c #000000",
"ak c #000000",
"al c #000000",
"am c #000000",
"an c #000000",
"ao c #000000",
"ap c #000000",
"aq c #000000",
"ar c #000000",
"as c #000000",
"at c #000000",
"au c #000000",
"av c #000000",
"aw c #000000",
"ax c #000000",
"ay c #000000",
"az c #000000",
"aA c #000000",
"aB c #000000",
"aC c #000000",
"aD c #000000",
"aE c #000000",
"aF c #000000",
"aG c #000000",
"aH c #000000",
"aI c #000000",
"aJ c #000000",
"aK c #000000",
"aL c #000000",
"aM c #000000",
"aN c #000000",
"aO c #000000",
"aP c #000000",
"aQ c #000000",
"aR c #000000",
"aS c #000000",
"aT c #000000",
"aU c #000000",
"aV c #000000",
"aW c #000000",
"aX c #000000",
"aY c #000000",
"aZ c #000000",
"a0 c #000000",
"a1 c #000000",
"a2 c #000000",
"a3 c #000000",
"a4 c #000000",
"a5 c #000000",
"a6 c #000000",
"a7 c #000000",
"a8 c #000000",
/* pixels */
"`````.`#`a`a`a`a`a`b`b`.`.`c````",
"```d`e`f`g`h`i`j`k`l`m`n`o```p``",
"`q`r`s`t`r`u`u`v`w`x`g`y`z`A`B`q",
"`C`u`D`E`F`f`g`G`H`z`k`i`I`J`K`C",
"`a`L`M`N`O`P`z`z`Q`R`S`T`U`V`W`a",
"`a`X`Y`w`Z`0`1`2`3`4`0`5`6`3`W`a",
"`a`y`w`G`k`1`0`7`7`0`8.`..`6`K`a",
"`.`z`L.#`H.a.b.c.c.d.e`V.f.g`W`.",
"`.`m`H`G.h.a.b.c.c.i`R`3`V...j`.",
"`a.k`i`H`l`1`0`8`d`0.l.m.n`V.o`a",
"`..f.a`i.p`0.p`n`J`5.c`5...e.j`.",
"`..e.k.q.r`Z`I.a.a.f.p`q`3.s`B`.",
"`c.t`6.k`H`Q`n`Q`n`I`o.k``.u.v`c",
"`O.w.x.x.n`V.g`3.g.n.y.```.z.A`O",
"```p.B.C.C.o.D.j.j.E.F.v.v.G`i``",
"`````.`#`a`a`a`a`a`b`b`.`.`c````"
};
