/* XPM */
static const char *db2_xpm[] = {
/* width height num_colors chars_per_pixel */
"    80    16      256            2",
/* colors */
"`` c #242224",
"`. c #2c7eb4",
"`# c #94aa84",
"`a c #649254",
"`b c #b4daa4",
"`c c #84a284",
"`d c None",
"`e c #045294",
"`f c #647254",
"`g c #a4ca84",
"`h c #5482a4",
"`i c #d4dacc",
"`j c #146aac",
"`k c #6ca2c4",
"`l c #6486a4",
"`m c #84b2d4",
"`n c #5492bc",
"`o c #7c96a4",
"`p c #94a6b4",
"`q c #84a6bc",
"`r c #acceec",
"`s c #1c5e94",
"`t c #4c86b4",
"`u c #94badc",
"`v c #2c6e9c",
"`w c #6496bc",
"`x c #045e94",
"`y c #d4eac4",
"`z c #94b6c4",
"`A c #c4cedc",
"`B c #acbac4",
"`C c #84aabc",
"`D c #448ebc",
"`E c #3c6e94",
"`F c #1c76b4",
"`G c #74aed4",
"`H c #5c8ebc",
"`I c #043e7c",
"`J c #3c7eac",
"`K c #d4e2ec",
"`L c #549acc",
"`M c #8c9aac",
"`N c #4c8ebc",
"`O c #a4b6c4",
"`P c #54728c",
"`Q c #045a9c",
"`R c #5c829c",
"`S c #246a9c",
"`T c #648eac",
"`U c #bcced4",
"`V c #9cc2dc",
"`W c #7496ac",
"`X c #044e8c",
"`Y c #94b284",
"`Z c #1c72ac",
"`0 c #8cbadc",
"`1 c #5c92bc",
"`2 c #7c9eb4",
"`3 c #145e94",
"`4 c #94b6cc",
"`5 c #ccdae4",
"`6 c #b4c6d4",
"`7 c #84aecc",
"`8 c #044674",
".` c #4486bc",
".. c #0c568c",
".# c #d4dee4",
".a c #7ca6bc",
".b c #8cb2cc",
".c c #a4aebc",
".d c #2c76a4",
".e c #eceef4",
".f c #3c769c",
".g c #447ea4",
".h c #849274",
".i c #cccebc",
".j c #4c8aac",
".k c #1c6ea4",
".l c #5496cc",
".m c #9caebc",
".n c #8ca2b4",
".o c #b4d6ec",
".p c #5486b4",
".q c #a4bac4",
".r c #649ecc",
".s c #0466ac",
".t c #9cb2bc",
".u c #ccd6dc",
".v c #acc2d4",
".w c #8caabc",
".x c #7caacc",
".y c #044284",
".z c #548eb4",
".A c #748ea4",
".B c #447a9c",
".C c #94a2ac",
".D c #84b264",
".E c #045694",
".F c #5486a4",
".G c #d4d6dc",
".H c #6c8694",
".I c #5496c4",
".J c #849aa4",
".K c #9caab4",
".L c #b4d2e4",
".M c #2c5a7c",
".N c #4c8ac4",
".O c #346e9c",
".P c #6c9abc",
".Q c #0462ac",
".R c #ccd2dc",
".S c #b4bec4",
".T c #044274",
".U c #3c82b4",
".V c #e4e6e4",
".W c #547a9c",
".X c #5c8aac",
".Y c #6492ac",
".Z c #bcd2dc",
".0 c #a4c6dc",
".1 c #749aac",
".2 c #acaea4",
".3 c #849eac",
".4 c #7ca6cc",
".5 c #8cb6d4",
".6 c #f4f6fc",
".7 c #ccd2bc",
".8 c #a4bed4",
"#` c #9cb6c4",
"#. c #e4eaec",
"## c #a4a69c",
"#a c #1466a4",
"#b c #84ba74",
"#c c #cce2ec",
"#d c #649a54",
"#e c #849a74",
"#f c #5c7a8c",
"#g c #247abc",
"#h c #2c7ab4",
"#i c #f4f2f4",
"#j c #3c7aac",
"#k c #4482b4",
"#l c #5c9ac4",
"#m c #a4ca94",
"#n c #dce2ec",
"#o c #acb6c4",
"#p c #dcdee4",
"#q c #94aabc",
"#r c #4c8abc",
"#s c #649ac4",
"#t c #acbecc",
"#u c #8c9eb4",
"#v c #5c86a4",
"#w c #5c96c4",
"#x c #8ca6bc",
"#y c #8caec4",
"#z c #7caecc",
"#A c #6c8a9c",
"#B c #acb2ac",
"#C c #146eac",
"#D c #84b6d4",
"#E c #1c6294",
"#F c #c4d2dc",
"#G c #b4cad4",
"#H c #d4dadc",
"#I c #2c7ebc",
"#J c #6ca2cc",
"#K c #5492c4",
"#L c #84a6c4",
"#M c #2c6ea4",
"#N c #045e9c",
"#O c #84aac4",
"#P c #3c7eb4",
"#Q c #4c8ec4",
"#R c #045aa4",
"#S c #648eb4",
"#T c #bccedc",
"#U c #1c72b4",
"#V c #7c9ebc",
"#W c #94b6d4",
"#X c #84aed4",
"#Y c #04467c",
"#Z c #0c5694",
"#0 c #7ca6c4",
"#1 c #8cb2d4",
"#2 c #1c6eac",
"#3 c #a4bacc",
"#4 c #9cb2c4",
"#5 c #548ebc",
"#6 c #447aa4",
"#7 c #04569c",
"#8 c #5486ac",
"a` c #849aac",
"a. c #b4d2ec",
"a# c #04427c",
"aa c #a4c6e4",
"ab c #749ab4",
"ac c #ccd2c4",
"ad c #7caed4",
"ae c #000000",
"af c #000000",
"ag c #000000",
"ah c #000000",
"ai c #000000",
"aj c #000000",
"ak c #000000",
"al c #000000",
"am c #000000",
"an c #000000",
"ao c #000000",
"ap c #000000",
"aq c #000000",
"ar c #000000",
"as c #000000",
"at c #000000",
"au c #000000",
"av c #000000",
"aw c #000000",
"ax c #000000",
"ay c #000000",
"az c #000000",
"aA c #000000",
"aB c #000000",
"aC c #000000",
"aD c #000000",
"aE c #000000",
"aF c #000000",
"aG c #000000",
"aH c #000000",
"aI c #000000",
"aJ c #000000",
"aK c #000000",
"aL c #000000",
"aM c #000000",
"aN c #000000",
"aO c #000000",
"aP c #000000",
"aQ c #000000",
"aR c #000000",
"aS c #000000",
"aT c #000000",
"aU c #000000",
"aV c #000000",
"aW c #000000",
"aX c #000000",
"aY c #000000",
"aZ c #000000",
"a0 c #000000",
"a1 c #000000",
"a2 c #000000",
"a3 c #000000",
"a4 c #000000",
"a5 c #000000",
"a6 c #000000",
"a7 c #000000",
"a8 c #000000",
/* pixels */
"`d`d`d`d`d`d`d`d`d`d`d`d`d`d`d`d`d`d`d`d`d`d`d`d`d`d`d`d`d`d`d`d`d`d`d`d`d`d`d`d`d`d`d`d`d`d`d`d`d`d`d`d`d`d`d`d`d`d`d`d`d`d`d`d`d`d`d`d`d`d`d`d`d`d`d`d`d`d`d`d",
"`d`d`d`d`d`d`d`d`d`d`d`d`d`d`d`d`d`d`d`d`d`d`d`d`d`d`d`d`d`d`d`d`d`d`d`d`d`d`d`d`d`d`d`d`d`d`d`d`d`d`d`d`d`d`d`d`d`d`d`d`d`d`d`d`d`d`d`d`d`d`d`d`d`d`d`d`d`d`d`d",
"`d`d`d`d`d`d`d`d`d`d`d`d`d`d`d`d`d`d`d`d`d`d`d`d`d`d`d`d`d`d`d`d`d`d`d`d`d`d`d`d`d`d`d`d`d`d`d`d`d`d`d`d`d`d`d`d`d`d`d`d`d`d`d`d`d`d`d`d`d`d`d`d`d`d`d`d`d`d`d`d",
"`d`d.K`o`d`d`d`d`d`d`d`d.A`d`d`d`d`d`d`d`d`d`d`d`d`d#o.C`d`d`d`d`d`d`d`d.H#p`d`d`d`d`d`d`d`d`d`d`d`d.C.m`d`d`d`d`d`d`d.ca``d`d`d`d`d`d`d`d`d`i`d`d`d`d`d`d`d`d`d",
"`d`d.3#y`d`d`d`d`d`d.S.n`4`d`d`d`d`d`d`d`d`d`d`d#p.C#y`6`d`d`d`d`d`d`d`d#4.3.c#i`d`d`d`d`d`d`d`d`d`d`6.w`M#p`d`d`d`d`d.w`q`d`d`d`d`d`d`d`d`d`#ac`d`d`d`d`d`d`d`d",
"`d`d`O#T`d`d`d`d.G.m.n#F#F`d`d`d`d`d`d`d`d`d`d`B.n#3#c`A`d`d`d`d`d`d`d`d#F`5#x#u.S.6`d`d`d`d`d`d`d`d.R`K`O.3.m#n`d`d`d.v`6`d`d`d`d`d`d`d`d`d`Y.h.i`d`d`d`d`d`d`d",
"`d`d#V.b`d`d.Va`#S`V.oa.#1`d`d`d`d`d`d`d`d`B#A#La..Laa.8`d`d`d`d`d`d`d`d#1`r.oaa#S`R`A`d`d`d`d`d`d`d.8aaa.a.#L.W#q`d`d.w#O`d`d`d`d`d`d`d`d`d`#`y.h.7`d`d`d`d`d`d",
"`d`d.P`k`d`B`t#V`0.5.x`m#J`d`d`d`d`d`d`d#S`1#X`0ad#X`G.b`d`d`d`d`d`d`d`d#J`mad#1`u#0`t`W`d`d`d`d`d`d#W`G#Xad`0#1`H#8`d#0#s`d`d`d`d`d`d`d`d`d`Y`b`g.h.i`d`d`d`d`d",
"`d`d.p`t`d`p`.#K`L#K#K#w.U`d`d`d`d`d`d`d#6#Q`L.l#K.I#r#0`d`d`d`d`d`d`d`d.`#w`n.I.l.I#P.F`d`d`d`d`d`d.4#Q`n#w.l.I.N.f`d.P#k`d`d`d`d`d`d`d`d`d`#`g.D`a`f`d`d`d`d`d",
"`d`d#j#M`d`d.R#8#a`F#h#I`j`d`d`d`d`d`d`d`d`q`S#2#g`.#2#s`d`d`d`d`d`d`d`d#2`.#h#g#a.O`O`d`d`d`d`d`d`d#s`Z#h#g#2#E`W`d`d.p#2`d`d`d`d`d`d`d`d`d`c.D`a``.K`d`d`d`d`d",
"`d`d#2#N`d`d`d`d#4.O`e.Q#7`d`d`d`d`d`d`d`d`d#p.X..#R#R.z`d`d`d`d`d`d`d`d`Q.s`e`s#x.e`d`d`d`d`d`d`d`d#5#R`Q.E`h#H`d`d`d#6#N`d`d`d`d`d`d`d`d`d.h`a``.K`d`d`d`d`d`d",
"`d`d`3`X`d`d`d`d`d`d#x`3`I`d`d`d`d`d`d`d`d`d`d`d`A.B.y`R`d`d`d`d`d`d`d`d#Y#Zab#.`d`d`d`d`d`d`d`d`d`d`R`I.g#T`d`d`d`d`d.d`X`d`d`d`d`d`d`d`d`d.h``.K`d`d`d`d`d`d`d",
"`d`d.Ma#`d`d`d`d`d`d`d`d#f`d`d`d`d`d`d`d`d`d`d`d`d`d#`#A`d`d`d`d`d`d`d`d`P.e`d`d`d`d`d`d`d`d`d`d`d`d.A`O`d`d`d`d`d`d`d`Ea#`d`d`d`d`d`d`d`d`d.h##`d`d`d`d`d`d`d`d",
"`d`d`d`d`d`d`d`d`d`d`d`d`d`d`d`d`d`d`d`d`d`d`d`d`d`d`d`d`d`d`d`d`d`d`d`d`d`d`d`d`d`d`d`d`d`d`d`d`d`d`d`d`d`d`d`d`d`d`d`d`d`d`d`d`d`d`d`d`d`d##`d`d`d`d`d`d`d`d`d",
"`d`d`d`d`d`d`d`d`d`d`d`d`d`d`d`d`d`d`d`d`d`d`d`d`d`d`d`d`d`d`d`d`d`d`d`d`d`d`d`d`d`d`d`d`d`d`d`d`d`d`d`d`d`d`d`d`d`d`d`d`d`d`d`d`d`d`d`d`d`d`d`d`d`d`d`d`d`d`d`d",
"`d`d`d`d`d`d`d`d`d`d`d`d`d`d`d`d`d`d`d`d`d`d`d`d`d`d`d`d`d`d`d`d`d`d`d`d`d`d`d`d`d`d`d`d`d`d`d`d`d`d`d`d`d`d`d`d`d`d`d`d`d`d`d`d`d`d`d`d`d`d`d`d`d`d`d`d`d`d`d`d"
};
