/* XPM */
static const char *dbf_dset_48_xpm[] = {
/* width height num_colors chars_per_pixel */
"    48    48      256            2",
/* colors */
"`` c None",
"`. c #d1fed6",
"`# c #cbfad2",
"`a c #c4f1c9",
"`b c #b5e2ba",
"`c c #acd9b0",
"`d c #a9d8b0",
"`e c #d2fed8",
"`f c #cefbd2",
"`g c #c6f3ca",
"`h c #b4e1b9",
"`i c #a9d5af",
"`j c #d5ffda",
"`k c #cffcd3",
"`l c #a7d3ad",
"`m c #d7ffdd",
"`n c #c7f4cb",
"`o c #b3e0b7",
"`p c #a6d3aa",
"`q c #b2deb6",
"`r c #8cb991",
"`s c #90bc94",
"`t c #719d77",
"`u c #b0dcb6",
"`v c #98c49c",
"`w c #8bb890",
"`x c #6f9a73",
"`y c #84b189",
"`z c #88b38c",
"`A c #638e69",
"`B c #afdbb5",
"`C c #aedbb3",
"`D c #90bd95",
"`E c #83b087",
"`F c #5c8762",
"`G c #c3efc9",
"`H c #a2d1a7",
"`I c #a1cda7",
"`J c #8fba93",
"`K c #6f9b75",
"`L c #9ecba2",
"`M c #8ab78e",
"`N c #69956d",
"`O c #c3f0ca",
"`P c #9fcba3",
"`Q c #9bcaa0",
"`R c #86b28c",
"`S c #628e66",
"`T c #98c59f",
"`U c #82af86",
"`V c #5a865e",
"`W c #91be95",
"`X c #8db993",
"`Y c #89b68d",
"`Z c #67936b",
"`0 c #85b18b",
"`1 c #608c64",
"`2 c #81ae85",
"`3 c #59855d",
"`4 c #6e9972",
"`5 c #88b58d",
"`6 c #65926c",
"`7 c #5e8b63",
"`8 c #7fac84",
".` c #56835b",
".. c #6c9772",
".# c #6a9670",
".a c #68946c",
".b c #65906b",
".c c #648f6a",
".d c #5d8964",
".e c #5d8863",
".f c #57845c",
".g c #55815a",
".h c #d4ffd8",
".i c #fcfcfc",
".j c #fafafa",
".k c #f7f7f7",
".l c #f0f0f0",
".m c #eaeaea",
".n c #e8e8e8",
".o c #fdfdfd",
".p c #fbfbfb",
".q c #e7e7e7",
".r c #efefef",
".s c #d6d6d6",
".t c #cbcbcb",
".u c #b0b0b0",
".v c #eeeeee",
".w c #c6c6c6",
".x c #c8c8c8",
".y c #a7a7a7",
".z c #d5d5d5",
".A c #cacaca",
".B c #a9a9a9",
".C c #f6f6f6",
".D c #e1e1e1",
".E c #dddddd",
".F c #ababab",
".G c #dfdfdf",
".H c #dbdbdb",
".I c #a5a5a5",
".J c #dcdcdc",
".K c #c9c9c9",
".L c #cecece",
".M c #a4a4a4",
".N c #a2a2a2",
".O c #acacac",
".P c #a3a3a3",
".Q c #a0a0a0",
".R c #d6ffda",
".S c #d5ffd9",
".T c #a8d4ae",
".U c #f1f1f1",
".V c #d2d2d2",
".W c #afafaf",
".X c #cdcdcd",
".Y c #aeaeae",
".Z c #cbf7d1",
".0 c #9dcaa1",
".1 c #99c69e",
".2 c #cccccc",
".3 c #c5c5c5",
".4 c #cfcfcf",
".5 c #c3c3c3",
".6 c #9f9f9f",
".7 c #daffdf",
".8 c #c8f5cc",
"#` c #b2dfb7",
"#. c #a4d1a8",
"## c #fefefe",
"#a c #f8f8f8",
"#b c #e4e4e4",
"#c c #f9f9f9",
"#d c #f3f3f3",
"#e c #ededed",
"#f c #addab1",
"#g c #7ba87f",
"#h c #7eaa84",
"#i c #548058",
"#j c #c2c2c2",
"#k c #9e9e9e",
"#l c #ececec",
"#m c #bcbcbc",
"#n c #919191",
"#o c #96c29a",
"#p c #7da983",
"#q c #537f57",
"#r c #d7d7d7",
"#s c #c0c0c0",
"#t c #bebebe",
"#u c #929292",
"#v c #e6e6e6",
"#w c #adadad",
"#x c #7ca880",
"#y c #4f7c54",
"#z c #79a57d",
"#A c #77a37d",
"#B c #457249",
"#C c #48754d",
"#D c #426e47",
"#E c #416d46",
"#F c #406d45",
"#G c #e6ffea",
"#H c #e0ffe5",
"#I c #a1cea8",
"#J c #729e78",
"#K c #9d9d9d",
"#L c #76a17a",
"#M c #000000",
"#N c #000000",
"#O c #000000",
"#P c #000000",
"#Q c #000000",
"#R c #000000",
"#S c #000000",
"#T c #000000",
"#U c #000000",
"#V c #000000",
"#W c #000000",
"#X c #000000",
"#Y c #000000",
"#Z c #000000",
"#0 c #000000",
"#1 c #000000",
"#2 c #000000",
"#3 c #000000",
"#4 c #000000",
"#5 c #000000",
"#6 c #000000",
"#7 c #000000",
"#8 c #000000",
"a` c #000000",
"a. c #000000",
"a# c #000000",
"aa c #000000",
"ab c #000000",
"ac c #000000",
"ad c #000000",
"ae c #000000",
"af c #000000",
"ag c #000000",
"ah c #000000",
"ai c #000000",
"aj c #000000",
"ak c #000000",
"al c #000000",
"am c #000000",
"an c #000000",
"ao c #000000",
"ap c #000000",
"aq c #000000",
"ar c #000000",
"as c #000000",
"at c #000000",
"au c #000000",
"av c #000000",
"aw c #000000",
"ax c #000000",
"ay c #000000",
"az c #000000",
"aA c #000000",
"aB c #000000",
"aC c #000000",
"aD c #000000",
"aE c #000000",
"aF c #000000",
"aG c #000000",
"aH c #000000",
"aI c #000000",
"aJ c #000000",
"aK c #000000",
"aL c #000000",
"aM c #000000",
"aN c #000000",
"aO c #000000",
"aP c #000000",
"aQ c #000000",
"aR c #000000",
"aS c #000000",
"aT c #000000",
"aU c #000000",
"aV c #000000",
"aW c #000000",
"aX c #000000",
"aY c #000000",
"aZ c #000000",
"a0 c #000000",
"a1 c #000000",
"a2 c #000000",
"a3 c #000000",
"a4 c #000000",
"a5 c #000000",
"a6 c #000000",
"a7 c #000000",
"a8 c #000000",
/* pixels */
"````````````````````````````````````````````````````````````````````````````````````````````````",
"````````````````````````````````````````````````````````````````````````````````````````````````",
"````````````````````````````````````````````````````````````````````````````````````````````````",
"````````````````````````````````````````````````````````````````````````````````````````````````",
"````````````````````````````````````````````````````````````````````````````````````````````````",
"````````````````````````````````````````````````````````````````````````````````````````````````",
"`````````````.`#`a`b`c`d`e`f`g`h`d`i`j`k`g`h`i`l`m`.`n`o`l`p`m`.`n`o`l`p`m`.`n`o`l`p````````````",
"`````````````#`q`q`r`s`t`f`u`q`v`w`x`k`u`u`y`z`A`.`B`C`D`E`F`.`B`C`D`E`F`.`B`C`D`E`F````````````",
"`````````````G`H`I`J`J`K`G`I`L`M`M`N`O`P`Q`z`R`S`a`Q`T`U`U`V`a`Q`T`U`U`V`a`Q`T`U`U`V````````````",
"`````````````b`W`J`X`X`x`h`J`M`M`Y`Z`o`Y`R`0`0`1`o`0`U`2`2`3`o`0`U`2`2`3`o`0`U`2`2`3````````````",
"`````````````c`J`X`X`r`4`d`M`M`Y`5`6`i`R`0`y`E`7`l`U`2`8`8.``l`U`2`8`8.``l`U`2`8`8.`````````````",
"`````````````t`K`x`4.....#`N.a`6.b.c`A`S`1`7.d.e`F`V`3.f.`.g`F`V`3.f.`.g`F`V`3.f.`.g````````````",
"````````````.h`f`g`h`d`i.i.j.k.l.m.n.o.p.k.l.n.q.i.j.k.l.n.n.i.j.k.l.n.n.i.j.k.l.n.n````````````",
"`````````````f`u`u`R`M.a.j.r.r.s.t.u.p.v.v.w.x.y.j.r.v.z.A.B.j.r.v.z.A.B.j.r.v.z.A.B````````````",
"`````````````O`I`L`M`Y`6.C.D.E.t.A.F.C.G.H.x.w.I.C.G.J.K.K.y.C.G.J.K.K.y.C.G.J.K.K.y````````````",
"`````````````h`r`Y`Y`5.b.l.L.t.A.A.B.l.A.x.w.w.M.l.t.K.x.x.y.l.t.K.x.x.y.l.t.K.x.x.y````````````",
"`````````````d`Y`5`5`z`A.n.A.A.A.A.B.n.w.w.w.w.N.n.K.x.w.w.M.n.K.x.w.w.M.n.K.x.w.w.M````````````",
"````````````.a`6.b.c`A`S.O.F.B.B.B.y.y.I.M.P.N.Q.B.y.y.I.M.P.B.y.y.I.M.P.B.y.y.I.M.P````````````",
"````````````.R.S`k`o.T`l.o.p.k.l.n.q.i.j.k.U.m.n.i.j.k.l.n.n.i.j.k.l.n.n.i.j.k.l.n.n````````````",
"````````````.S`C`B`W`E`7.p.v.v.V.w.W.j.r.r.A.X.Y.j.r.v.z.A.B.j.r.v.z.A.B.j.r.v.z.A.B````````````",
"````````````.Z.0.1`E`E.e.k.V.H.w.w.P.C.D.G.X.2.Y.C.G.J.K.K.y.C.G.J.K.K.y.C.G.J.K.K.y````````````",
"`````````````o`z`E`E`U`V.l.A.w.w.3.Q.l.4.2.t.t.O.l.t.K.x.x.y.l.t.K.x.x.y.l.t.K.x.x.y````````````",
"````````````.T`E`E`U`2`3.n.w.w.3.5.Q.m.2.t.A.A.F.n.K.x.w.w.M.n.K.x.w.w.M.n.K.x.w.w.M````````````",
"````````````.d`1`F`V`3.f.M.y.N.Q.Q.6.Y.Y.O.F.B.B.B.y.y.I.M.P.B.y.y.I.M.P.B.y.y.I.M.P````````````",
"````````````.7.h.8#``p#.##.i#a.l.q#b##.i#c#d.r#e.j.p#a.r#b.D.j.p#a.r#b.D.j.p#a.r#b.D````````````",
"````````````.h#f#f#g#h#i.i#e#e.4#j#k.i.U.U.2.4.Y.p.n#l.K#m#n.p.n#l.K#m#n.p.n#l.K#m#n````````````",
"`````````````g`T#o#p#p#q.k.H#r#s#t#u#c#v#b.4.4#w.k.s.V#m#m#n.k.s.V#m#m#n.k.s.V#m#m#n````````````",
"````````````#``2#p#x#x#y.l#j#t#m#m#n#d.V.4.L.L.F.r#t#m#m#m#n.r#t#m#m#m#n.r#t#m#m#m#n````````````",
"`````````````p#p#g#z#A#B#b#m#m#m#m#n.r.4.L.X.2.B#b#m#m#m#m#n#b#m#m#m#m#n#b#m#m#m#m#n````````````",
"````````````#C#B#D#D#E#F#n#n#n#n#n#n.Y#w.F.B.B.y#n#n#n#n#n#n#n#n#n#n#n#n#n#n#n#n#n#n````````````",
"````````````#G#H`m`u#I`P##.o#a.r#b.G##.o#a.r#b.G.p.p#a.r#b.D##.o#a.r#b.D##.o#a.r#b.D````````````",
"````````````#H`d`d`U#J#F.o#l#l.K#m#K.o#l#l.K#m#K.i.n#l.K#m#n.o#l#l.K#m#n.o#l#l.K#m#n````````````",
"`````````````.`W`X#J#J#F.k.w.V#m#m#n.k.w.V#m#m#n.k.w.V#m#m#n.k.w.V#m#m#n.k.w.V#m#m#n````````````",
"`````````````u#L#J#J#J#F.r#t#m#m#m#n.r#t#m#m#m#n.r#t#m#m#m#n.r#t#m#m#m#n.r#t#m#m#m#n````````````",
"````````````#I#J#J#J#J#F#b#m#m#m#m#n#b#m#m#m#m#n#b#m#m#m#m#n#b#m#m#m#m#n#b#m#m#m#m#n````````````",
"````````````#F#F#F#F#F#F#n#n#n#n#n#n#n#n#n#n#n#n#n#n#n#n#n#n#n#n#n#n#n#n#n#n#n#n#n#n````````````",
"````````````#G#H`m`u#I`P##.o#a.r#b.G##.o#a.r#b.G.p.p#a.r#b.D##.o#a.r#b.D##.o#a.r#b.D````````````",
"````````````#H`d`d`U#J#F.o#l#l.K#m#K.o#l#l.K#m#K.i.n#l.K#m#n.o#l#l.K#m#n.o#l#l.K#m#n````````````",
"`````````````.`W`X#J#J#F.k.w.V#m#m#n.k.w.V#m#m#n.k.w.V#m#m#n.k.w.V#m#m#n.k.w.V#m#m#n````````````",
"`````````````u#L#J#J#J#F.r#t#m#m#m#n.r#t#m#m#m#n.r#t#m#m#m#n.r#t#m#m#m#n.r#t#m#m#m#n````````````",
"````````````#I#J#J#J#J#F#b#m#m#m#m#n#b#m#m#m#m#n#b#m#m#m#m#n#b#m#m#m#m#n#b#m#m#m#m#n````````````",
"````````````#F#F#F#F#F#F#n#n#n#n#n#n#n#n#n#n#n#n#n#n#n#n#n#n#n#n#n#n#n#n#n#n#n#n#n#n````````````",
"````````````````````````````````````````````````````````````````````````````````````````````````",
"````````````````````````````````````````````````````````````````````````````````````````````````",
"````````````````````````````````````````````````````````````````````````````````````````````````",
"````````````````````````````````````````````````````````````````````````````````````````````````",
"````````````````````````````````````````````````````````````````````````````````````````````````",
"````````````````````````````````````````````````````````````````````````````````````````````````"
};
