/* XPM */
static const char *dbf_dset_16_xpm[] = {
/* width height num_colors chars_per_pixel */
"    16    16      256            2",
/* colors */
"`` c None",
"`. c #e2ffe7",
"`# c #d5ffd9",
"`a c #b8e5bc",
"`b c #dfffe3",
"`c c #d5ffda",
"`d c #b6e3bb",
"`e c #d4ffd8",
"`f c #b2deb6",
"`g c #e7ffeb",
"`h c #7ba87f",
"`i c #a8d4ae",
"`j c #86b28c",
"`k c #b4e1b9",
"`l c #7fac84",
"`m c #b5e2ba",
"`n c #9fcba3",
"`o c #98c59f",
"`p c #5d8863",
"`q c #77a27b",
"`r c #78a47c",
"`s c #6f9b75",
"`t c #75a079",
"`u c #67936b",
"`v c #729e78",
"`w c #6f9a73",
"`x c #618d65",
"`y c #6e9972",
"`z c #65926c",
"`A c #638e69",
"`B c #d0fdd5",
"`C c #bae6be",
"`D c #8ab78e",
"`E c #f5f5f5",
"`F c #f3f3f3",
"`G c #cfcfcf",
"`H c #cecece",
"`I c #f7f7f7",
"`J c #f4f4f4",
"`K c #cbcbcb",
"`L c #a5d2a9",
"`M c #94c399",
"`N c #e3e3e3",
"`O c #d9d9d9",
"`P c #b7b7b7",
"`Q c #b0b0b0",
"`R c #cdcdcd",
"`S c #acacac",
"`T c #73a078",
"`U c #68946c",
"`V c #bcbcbc",
"`W c #b9b9b9",
"`X c #b2b2b2",
"`Y c #b6b6b6",
"`Z c #daffdf",
"`0 c #c2eec8",
"`1 c #88b58d",
"`2 c #9ac79f",
"`3 c #65906b",
"`4 c #719d77",
"`5 c #deffe5",
"`6 c #bdeac2",
"`7 c #7eaa84",
"`8 c #f9f9f9",
".` c #f6f6f6",
".. c #c5c5c5",
".# c #fefefe",
".a c #f2f2f2",
".b c #bfbfbf",
".c c #90bc94",
".d c #57845c",
".e c #d0d0d0",
".f c #a4a4a4",
".g c #939393",
".h c #959595",
".i c #648f6a",
".j c #4e7b53",
".k c #aeaeae",
".l c #9d9d9d",
".m c #b4b4b4",
".n c #a3a3a3",
".o c #edfff1",
".p c #c7f4cb",
".q c #fbfbfb",
".r c #f1f1f1",
".s c #c0c0c0",
".t c #bebebe",
".u c #99c69e",
".v c #85b18b",
".w c #dbdbdb",
".x c #b3b3b3",
".y c #c9c9c9",
".z c #b1b1b1",
".A c #e2e2e2",
".B c #4d7a51",
".C c #4f7c54",
".D c #4b764f",
".E c #a6a6a6",
".F c #ababab",
".G c #a1a1a1",
".H c #a9a9a9",
".I c #a2a2a2",
".J c #000000",
".K c #000000",
".L c #000000",
".M c #000000",
".N c #000000",
".O c #000000",
".P c #000000",
".Q c #000000",
".R c #000000",
".S c #000000",
".T c #000000",
".U c #000000",
".V c #000000",
".W c #000000",
".X c #000000",
".Y c #000000",
".Z c #000000",
".0 c #000000",
".1 c #000000",
".2 c #000000",
".3 c #000000",
".4 c #000000",
".5 c #000000",
".6 c #000000",
".7 c #000000",
".8 c #000000",
"#` c #000000",
"#. c #000000",
"## c #000000",
"#a c #000000",
"#b c #000000",
"#c c #000000",
"#d c #000000",
"#e c #000000",
"#f c #000000",
"#g c #000000",
"#h c #000000",
"#i c #000000",
"#j c #000000",
"#k c #000000",
"#l c #000000",
"#m c #000000",
"#n c #000000",
"#o c #000000",
"#p c #000000",
"#q c #000000",
"#r c #000000",
"#s c #000000",
"#t c #000000",
"#u c #000000",
"#v c #000000",
"#w c #000000",
"#x c #000000",
"#y c #000000",
"#z c #000000",
"#A c #000000",
"#B c #000000",
"#C c #000000",
"#D c #000000",
"#E c #000000",
"#F c #000000",
"#G c #000000",
"#H c #000000",
"#I c #000000",
"#J c #000000",
"#K c #000000",
"#L c #000000",
"#M c #000000",
"#N c #000000",
"#O c #000000",
"#P c #000000",
"#Q c #000000",
"#R c #000000",
"#S c #000000",
"#T c #000000",
"#U c #000000",
"#V c #000000",
"#W c #000000",
"#X c #000000",
"#Y c #000000",
"#Z c #000000",
"#0 c #000000",
"#1 c #000000",
"#2 c #000000",
"#3 c #000000",
"#4 c #000000",
"#5 c #000000",
"#6 c #000000",
"#7 c #000000",
"#8 c #000000",
"a` c #000000",
"a. c #000000",
"a# c #000000",
"aa c #000000",
"ab c #000000",
"ac c #000000",
"ad c #000000",
"ae c #000000",
"af c #000000",
"ag c #000000",
"ah c #000000",
"ai c #000000",
"aj c #000000",
"ak c #000000",
"al c #000000",
"am c #000000",
"an c #000000",
"ao c #000000",
"ap c #000000",
"aq c #000000",
"ar c #000000",
"as c #000000",
"at c #000000",
"au c #000000",
"av c #000000",
"aw c #000000",
"ax c #000000",
"ay c #000000",
"az c #000000",
"aA c #000000",
"aB c #000000",
"aC c #000000",
"aD c #000000",
"aE c #000000",
"aF c #000000",
"aG c #000000",
"aH c #000000",
"aI c #000000",
"aJ c #000000",
"aK c #000000",
"aL c #000000",
"aM c #000000",
"aN c #000000",
"aO c #000000",
"aP c #000000",
"aQ c #000000",
"aR c #000000",
"aS c #000000",
"aT c #000000",
"aU c #000000",
"aV c #000000",
"aW c #000000",
"aX c #000000",
"aY c #000000",
"aZ c #000000",
"a0 c #000000",
"a1 c #000000",
"a2 c #000000",
"a3 c #000000",
"a4 c #000000",
"a5 c #000000",
"a6 c #000000",
"a7 c #000000",
"a8 c #000000",
/* pixels */
"````````````````````````````````",
"`.`#`a`b`c`d`.`e`f`g`e`f`g`e`h``",
"`a`i`j`k`i`l`m`n`h`d`o`h`d`o`p``",
"`q`r`s`r`t`u`v`w`x`y`z`x`y`z`A``",
"`B`C`D`E`F`G`E`F`G`E`F`H`I`J`K``",
"`L`M`w`N`O`P`N`O`P`N`O`Q`O`R`S``",
"`v`T`U`V`W`X`V`W`X`V`W`S`W`Y`S``",
"`Z`0`1`I`J`H`I`J`H`I`J`H`I`J`K``",
"`2`D`3`O`R`Q`O`R`Q`O`R`Q`O`R`S``",
"`4`s`x`W`Y`S`W`Y`S`W`Y`S`W`Y`S``",
"`5`6`7`8.`..`8.`..`8.`...#.a.b``",
".c`7.d.e...f.e...f.e...g`O`V.h``",
"`u.i.j.k.k.l.k.k.l.k.k.l.m`S.n``",
".o.p`q.q`E...#.r.s.#`F...#.r.t``",
".u.v`A.w`H.k`N`R.x`N.y.z.A.y.f``",
".B.C.D.E.F.G.H.H.G.F.H.I.F.H.n``"
};
