/* XPM */
static const char *folder_prj_48_xpm[] = {
/* width height num_colors chars_per_pixel */
"    48    48      256            2",
/* colors */
"`` c #040204",
"`. c #848284",
"`# c #dcc24c",
"`a c #aca26c",
"`b c None",
"`c c #ece294",
"`d c #b4ae84",
"`e c #bcc2bc",
"`f c #444244",
"`g c #ac8244",
"`h c #8c6e3c",
"`i c #9c763c",
"`j c #ccae64",
"`k c #e4e2dc",
"`l c #e4d264",
"`m c #646264",
"`n c #949284",
"`o c #b4923c",
"`p c #847264",
"`q c #dcc6ac",
"`r c #242224",
"`s c #ccb28c",
"`t c #f4f2ec",
"`u c #d4ba44",
"`v c #9c825c",
"`w c #74726c",
"`x c #ccc67c",
"`y c #c4a25c",
"`z c #e4d294",
"`A c #947a54",
"`B c #b49254",
"`C c #848a84",
"`D c #ece2ac",
"`E c #b4b2b4",
"`F c #54524c",
"`G c #ac7e3c",
"`H c #d4ba64",
"`I c #141214",
"`J c #dcca5c",
"`K c #cccecc",
"`L c #9c7644",
"`M c #eceae4",
"`N c #7c7a74",
"`O c #a48e6c",
"`P c #94764c",
"`Q c #e4da9c",
"`R c #d4be54",
"`S c #ac9e64",
"`T c #e4da7c",
"`U c #9c9a9c",
"`V c #8c7a64",
"`W c #34322c",
"`X c #fcfaf4",
"`Y c #c4a67c",
"`Z c #8c8a7c",
"`0 c #acaa7c",
"`1 c #a4a2a4",
"`2 c #cccacc",
"`3 c #b48a3c",
"`4 c #846e54",
"`5 c #a47634",
"`6 c #e4d674",
"`7 c #d4be84",
"`8 c #dcbe44",
".` c #7c7264",
".. c #c4aa5c",
".# c #e4da84",
".a c #f4eab4",
".b c #5c5a5c",
".c c #dcdad4",
".d c #947e64",
".e c #8c8a8c",
".f c #0c0a0c",
".g c #dcc65c",
".h c #ece2a4",
".i c #c4cac4",
".j c #4c4a4c",
".k c #ccb664",
".l c #ece6dc",
".m c #6c6a6c",
".n c #949294",
".o c #f4e6ac",
".p c #bcbabc",
".q c #1c1a1c",
".r c #e4ce64",
".s c #f4eeec",
".t c #bc9a5c",
".u c #847e74",
".v c #acaaac",
".w c #a47a34",
".x c #ecda84",
".y c #ecdecc",
".z c #84867c",
".A c #dcc654",
".B c #c4c2c4",
".C c #b48634",
".D c #e4e6e4",
".E c #e4d66c",
".F c #bc923c",
".G c #2c2a2c",
".H c #f4f6f4",
".I c #d4be44",
".J c #9c8e64",
".K c #747674",
".L c #dcca8c",
".M c #c4a66c",
".N c #947e5c",
".O c #bc9654",
".P c #545654",
".Q c #d4d6d4",
".R c #9c7a44",
".S c #eceeec",
".T c #7c7e7c",
".U c #3c3e3c",
".V c #fcfefc",
".W c #8c8e84",
".X c #b4aa7c",
".Y c #8c7654",
".Z c #d4ba94",
".0 c #dcdedc",
".1 c #bc9a64",
".2 c #ecde84",
".3 c #040604",
".4 c #dcc254",
".5 c #aca674",
".6 c #ece29c",
".7 c #444644",
".8 c #ac8644",
"#` c #8c6e4c",
"#. c #e4d2bc",
"## c #b48e54",
"#a c #948674",
"#b c #d4b674",
"#c c #d4c284",
"#d c #d4d2d4",
"#e c #b4924c",
"#f c #d4ba74",
"#g c #c4aa6c",
"#h c #ccb694",
"#i c #c4a664",
"#j c #dcce64",
"#k c #bc9e54",
"#l c #646664",
"#m c #242624",
"#n c #ece6ac",
"#o c #b4b6b4",
"#p c #141614",
"#q c #9c9e9c",
"#r c #a4a6a4",
"#s c #b48e3c",
"#t c #5c5e5c",
"#u c #8c8e8c",
"#v c #0c0e0c",
"#w c #ece6a4",
"#x c #4c4e4c",
"#y c #6c6e6c",
"#z c #949694",
"#A c #bcbebc",
"#B c #1c1e1c",
"#C c #acaeac",
"#D c #c4c6c4",
"#E c #b4ae7c",
"#F c #ccae6c",
"#G c #e4e2e4",
"#H c #e4d26c",
"#I c #94928c",
"#J c #f4f2f4",
"#K c #747274",
"#L c #947a5c",
"#M c #b4925c",
"#N c #545254",
"#O c #eceaec",
"#P c #7c7a7c",
"#Q c #947654",
"#R c #d4be5c",
"#S c #8c7a6c",
"#T c #343234",
"#U c #fcfafc",
"#V c #8c8a84",
"#W c #a4763c",
"#X c #e4d67c",
"#Y c #dcbe4c",
"#Z c #7c726c",
"#0 c #dcdadc",
"#1 c #f4e6b4",
"#2 c #e4ce6c",
"#3 c #847e7c",
"#4 c #a47a3c",
"#5 c #848684",
"#6 c #d4be4c",
"#7 c #9c7a4c",
"#8 c #8c765c",
"a` c #d4ba9c",
"a. c #ecde8c",
"a# c #000000",
"aa c #000000",
"ab c #000000",
"ac c #000000",
"ad c #000000",
"ae c #000000",
"af c #000000",
"ag c #000000",
"ah c #000000",
"ai c #000000",
"aj c #000000",
"ak c #000000",
"al c #000000",
"am c #000000",
"an c #000000",
"ao c #000000",
"ap c #000000",
"aq c #000000",
"ar c #000000",
"as c #000000",
"at c #000000",
"au c #000000",
"av c #000000",
"aw c #000000",
"ax c #000000",
"ay c #000000",
"az c #000000",
"aA c #000000",
"aB c #000000",
"aC c #000000",
"aD c #000000",
"aE c #000000",
"aF c #000000",
"aG c #000000",
"aH c #000000",
"aI c #000000",
"aJ c #000000",
"aK c #000000",
"aL c #000000",
"aM c #000000",
"aN c #000000",
"aO c #000000",
"aP c #000000",
"aQ c #000000",
"aR c #000000",
"aS c #000000",
"aT c #000000",
"aU c #000000",
"aV c #000000",
"aW c #000000",
"aX c #000000",
"aY c #000000",
"aZ c #000000",
"a0 c #000000",
"a1 c #000000",
"a2 c #000000",
"a3 c #000000",
"a4 c #000000",
"a5 c #000000",
"a6 c #000000",
"a7 c #000000",
"a8 c #000000",
/* pixels */
"`b`b`b`b`b`b`b`b`b`b`b`b`b`b`b`b`b`b`b`b`b`b`b`b`b`b`b`b`b`b`b`b`b`b`b`b`b`b`b`b`b`b`b`b`b`b`b`b",
".B#P#P.K#P#P#K#P#P#K#P#P#K#P#P#K#P#P#P.n#O`b`b`b`b`b`b`b`b`b`b`b`b`b`b`b`b`b`b`b`b`b`b`b`b`b`b`b",
"#P`E#D.B.B.B.B.B#A.B#A.B#A#A.p.B.p.p.p.n.n`b`b`b`b`b`b`b`b`b`b`b`b`b`b`b`b`b`b`b`b`b`b`b`b`b`b`b",
"#P.B`2`E#C#C#C.v.v.v#r#r`1#r`1`1`1#q#r#o.K`b`b`b`b`b`b`b`b`b`b`b`b`b`b`b`b`b`b`b`b`b`b`b`b`b`b`b",
".T#A#o`1#q#q`U`U#z#z`U.n.n.n.n#u.n#u.n`1.T#0`b`b`b`b`b`b`b`b`b`b`b`b`b`b`b`b`b`b`b`b`b`b`b`b`b`b",
".T.p#o#q`U`U#z#z#z.n.n#u.n#u#u#u.e.e.e.n#u.p`b`b`b`b`b`b`b`b`b`b`b`b`b`b`b`b`b`b`b`b`b`b`b`b`b`b",
"`.#o.p`1#q#q#q`U`U#z#z#z.n#u.n#u.n#u#u#u.e#P#0#O#O#O#O#O#O#O#O#O#O#O#O#O#O#O`b`b`b`b`b`b`b`b`b`b",
"`.#C#C.n.n#u.e.e.e#5.e`.`.#5`.`..T`..T`.#5#P#K.m.m.m.m.m.m.m#l.m#l.m#l.m#l.m.m`2`b`b`b`b`b`b`b`b",
"#5.v.p#q#q`U`U#z#z#z.n.n#u#u#u#u#u.e.e`C.e.e#u#r#C#o#o#o#o.p.p#A#A#A.B#A.B.B`U#5`b`b`b`b`b`b`b`b",
".e#r#C#u#u.e.e#5#5`.`..T`..T.T#P#P#P.K#P.K#P.K#P#P#P#P#P.T.T.T.T#3`.`.#5#5.e`..T`b`b`b`b`b`b`b`b",
".e`1#o`U.n.n#u.n.e.e.e#5#5`.`.`..T`..T`..T.T`..T.T.T`..T`.`.#5#5#5.e.e.e#u.n#5.K`b`b`b`b`b`b`b`b",
"#u#q#C#u.e.e`C#5#5`..T`..T.T#P#P#P.K#P.K#P.K.K#P.K#P.K#P.K#P.T.T#3.T`.#5#5#5`.#K`b`b`b`b`b`b`b`b",
".n#z#C.e.e`C.d#L#L`A#L#Q.Y#Q.Y.Y.Y.Y#`.Y.Y#Q.Y.Y.Y.Y.Y#Q.Y#Q.Y#Q#8#L`A#L#L.N`A#`#h`sa``s#h`sa`.s",
"#z.n`E.n#u#V`5`y#g#g.M#g#g.M.M.M#i#F.M#i.M#i`y.M`y.M`y.M#i#i.M#i#i#i#i#i#i#i`y.M.M#F.M.M.M.M.O.O",
"`U#u#r`..T.u`5#1#1#n.o.o.o.o.a.o#n.o#n.a#n.o#n#1#1.o#1#n#1#n#1#n#1#n#1#n#1#n.a#n.a#1.o#1.a.a.L##",
"#q.e`E#u#u#a#W.a.#`T`T`T`T`T`T`T`T`T`T`T.x`T`T`T`T`T`T`T`T.x`T`T`T.x`T`T.#.x`T`T#X`T`T`T`T.h`7.1",
"`1#5`1.T#P#8.8.a.#.x#X`T#X`T.x#X.x`T.x#X`T`T.x`T`T.x`T.x`T`T`T.x`T`T`T.x`T`T#X.x`T`T.x#X.x.6#b`Y",
"#r`..v.e#5`V#M.a`T`T.x`T.x#X`T`T`T#X`T.x`T#X`T.x#X`T#X`T#X.x`6`T#X.x#X`T#X.x`T`T.x#X`T`T.E#n#F`s",
".v.T#r.T.T#Q`y#n.##X`T#X`T.x`T.x`6.x`T`6.x`T#X`T`T.x`T.x`T`T`T.x`T`T`T.x`T`T#X`T#X`T.x.E`6.o`ya`",
"#C#P`1`.#P#Q#g#1`T.x`T.x`T`6`T#X`T`T.x`T`T`T.x`T#X`T#X`T#X.x`6`T#X.x`6`T#X.x`T.x`T`T`6#H`6#n.1`q",
"#o.K#r`..T#7#f#w`T#X`T`6.x`T.x`T.x`6`T#X.x`6`T.x`T.x`T.x`T`T`T.x`T`T`T.x`T`T`6`T.x`6`6.E`6.a###.",
"#o#K#q#P#K.R#c.h`T.x`T`T`T#X`T#X`T.x`T`T`T`T#X`T`6`T`6`T`6.x#X`T#X.x`6`T#X.x`T#X`6.E`6`6.x.o`g.y",
"#A#y`1#5.T#4.L.6`T#X.x#X.x`T.x`T`T`6`T.x`6.x`T.x`T.x`T.x`T`T`T.x`T`T`T.x`T`T.x`T.E`6#H.E#X#n#4.l",
".B.m#z.K#K`5`z.6.x`T`T`T`T`6`T.x`6.x#X`T`T`T#X`T#X`T#X`T#X.x`6`T#X.x`6`T#X`T`6#H.E`6.E`6.x#n`5.s",
".B#l`U`..K`5`Qa.`T#X.x`6.x`T#X`T`T`T`T.x#X.x`T.x`T#c`n`n`n.W`n.z`n`n`n`n`n`n`n.W`n`n.W`n`n#I`Z#o",
"`2#t#z#P`w`5.ha..#`T`T`T`T`T.x`T.x`T#X`T`T`T`6`T`T#E#o.S.S.S`k`2#0#O#O#O#O.Q.D.S#O#O.S#O.S#O.Q#V",
"`K#t#z#P.``5`Da.#X.x`6.x#X`T#X`T`6.x`T.x`6.x`T.x`6`d.i.V#U#U#5#y`w#u.D.V#o#K.K.l#U#U#U#U#U.V#J`C",
"#d.P#z#3`p#4.o`T`T`T`T`T.x`T.x`T`T`T#X`T`T`6#X`T`6`d#D.V`X.H#G#N````.3`m````.P.H.H#U.H.H.H#U.S#V",
"#0#x.n.K.`.8#w.x`T.x#X`T#X`T`6.x`6`6`6.E`6.E.E.E`6.X.i#U#U.H`X.H#r`I``````.q#O.H#U.H.H.H#J#D#J`C",
".0.j.n`..Y#e.6#X`T#X.x`T`6`6`6.E`6.E`6#H`6`6#H`6#H.X.i#U`X.H#U.H#U.D.q``````.K#J.H.H`X#J.K#l#0`C",
"#G.7#5#K#`#ka..x`T`6`6.E`6.E`6#H`6#H`6.E`6.E`6.E`6.X.i#U#U.H#U.H`X.e````#v````.G.B.H#J.p``.m.0`C",
".D.7#u.T`P#ia.#X`6.E`6.E`6#H`6.E`6.E`6#H`6#H`6#H`6.X#D.V#U.H#U.H#D.3``.7#O#t``````#y.0#B``.K.s`C",
"`b`f#5#P`P`j.x.E.E`6#H`6.E`6.E#H`6#H`6#H.E#H`6#H.E`0`2#U.H`X.H#O`r``#p.D.H.H#o#B````#v````.Q#J`C",
"`b`f`.`N`i`H#H#H#H#H`l#2.r#2#H#2`l.r`l#2#H.r.r.r#2`0#D.V`X.H#U.P````#o.H#J#J#J.D#l``````.G.S`t`C",
"`b`f`.#P#W.k#2#j`J`J#j#j.r`J#j.r`J`J`J`J`J#j`J#j`J.5`2.0.T#J#z````#P.H#J#J`t.S#J.Q#v``````.K#O`C",
"`b`f#P.K`5`H`J.A`J.g.A.A.A.g.A.A.A.g.g.A.g.A.A.A.A`a#A.p``#m.f``.U.S#J`t.S#J.S.S`f``.3#t.3.m.Q#V",
"`b`f.T#3`5`u.A.4`#`#.4.4`#`#`#.4`#`#`#`#`#`#.4`#`#`a.B`K``````.3#d#J`t.S#J.S.S#5````.e#O.p`..D#V",
"`b.j#K`w`5#6#Y`8#6#Y`8#6`8#6`8#6`8#6`8#6.I`8`u`u`8`S.i#U`f``````#m#o#J.S.S.S#D.3```f.D.D.D#J.S.W",
"`b#x.K#S`5`u`u`u`u`u`u`u`u`u`u`u`u`u`u`8`u`u`8`u`u`S#D.D````#m``````#l#G.S#O.G```I.Q.D#O.D#J.S.e",
"`b#N#K`A`3`8`u`8`u`8`u`8`u`8`u`8`u`8`u`u`u`u`u`u`u`S`e.p```W#O#C#B````#B.v.m````#q.D#O.D.D`t.S.W",
"`b#P`h`5.C#s.F#s.F#s.F#s.F#s.F#s.F.C.F#s.F.F#s.F#s.J`U.p.f`K.S.S.D.m``````````#t.D#O.D.D.D#J.S.e",
"`b`b`O`v`v`v`v`v`v`v`v#7`v`v`v#7`v`v`v`v`v`v`v`v`v#a#D`K#q.S.s.S#O#O#o#m``````#z.l.D.D.D#G.s.S#V",
"`b`b`b`b`b`b`b`b`b`b`b`b`b`b`b`b`b`b`b`b`b`b`b`b`b.p`2`X.S.S.S#O#O.D#O#x````````#x#d.D#G.D.S`t`C",
"`b`b`b`b`b`b`b`b`b`b`b`b`b`b`b`b`b`b`b`b`b`b`b`b`b#A#D#U#O#O#O.D#O.D#z````#t.G`````I#I`k`k.S#J`C",
"`b`b`b`b`b`b`b`b`b`b`b`b`b`b`b`b`b`b`b`b`b`b`b`b`b.p`2`X.S.S#J.S.S.D.j.U#l#O`M#q.7.U`f#C#O`t.S#V",
"`b`b`b`b`b`b`b`b`b`b`b`b`b`b`b`b`b`b`b`b`b`b`b`b`b#A#D.V.V.V.V.V.V.V#U#U.V.V.V.V#U#U.H.V.V.V#O`C",
"`b`b`b`b`b`b`b`b`b`b`b`b`b`b`b`b`b`b`b`b`b`b`b`b`b#0#V#V`C.e#V#V.e#V`C#V`C#V`C#V`C`C`.#V`C#V`C#C",
"`b`b`b`b`b`b`b`b`b`b`b`b`b`b`b`b`b`b`b`b`b`b`b`b`b`b`b`b`b`b`b`b`b`b`b`b`b`b`b`b`b`b`b`b`b`b`b`b"
};
