/* XPM */
static const char *folder_up16_xpm[] = {
/* width height num_colors chars_per_pixel */
"    16    16      256            2",
/* colors */
"`` c #aeaeae",
"`. c #afafaf",
"`# c #adadad",
"`a c #acacac",
"`b c #aaaaaa",
"`c c #a9a9a9",
"`d c #a8a8a8",
"`e c None",
"`f c #b1b1b1",
"`g c #9c9c9c",
"`h c #969696",
"`i c #929292",
"`j c #8f8f8f",
"`k c #8c8c8c",
"`l c #8d8d8d",
"`m c #898989",
"`n c #858585",
"`o c #828282",
"`p c #818181",
"`q c #848484",
"`r c #949494",
"`s c #979797",
"`t c #98886b",
"`u c #968466",
"`v c #948263",
"`w c #928062",
"`x c #907f61",
"`y c #907e60",
"`z c #948264",
"`A c #978566",
"`B c #9a8869",
"`C c #c0ae90",
"`D c #deccae",
"`E c #e5d6bf",
"`F c #a4a4a4",
"`G c #878481",
"`H c #d4c085",
"`I c #e8db91",
"`J c #e8db90",
"`K c #e8db8f",
"`L c #e7da8f",
"`M c #dac48e",
"`N c #a1a1a1",
"`O c #847d73",
"`P c #dccb84",
"`Q c #e6d97d",
"`R c #e5d776",
"`S c #dbc793",
"`T c #9e9e9e",
"`U c #887d6a",
"`V c #e3d58a",
"`W c #b7bc7f",
"`X c #79988b",
"`Y c #e5d778",
"`Z c #e5d673",
"`0 c #dcc897",
"`1 c #9a9a9a",
"`2 c #8e7d5f",
"`3 c #e8da8f",
"`4 c #cac77d",
"`5 c #5e8ea5",
"`6 c #387aaa",
"`7 c #829c84",
"`8 c #e4d570",
".` c #e6d778",
".. c #dbc797",
".# c #979796",
".a c #95825c",
".b c #eade8c",
".c c #e6d87b",
".d c #e6d879",
".e c #d9d077",
".f c #6692a2",
".g c #367aae",
".h c #216ca5",
".i c #3376a4",
".j c #91a47d",
".k c #d9c597",
".l c #959595",
".m c #9d895f",
".n c #e8da82",
".o c #e4d672",
".p c #e0d270",
".q c #6d959c",
".r c #4c88b6",
".s c #3378ac",
".t c #10609e",
".u c #3677a0",
".v c #a2af81",
".w c #d9c398",
".x c #a28c5b",
".y c #e2d16b",
".z c #e1cf66",
".A c #e1cf65",
".B c #739692",
".C c #5c93bc",
".D c #4487b7",
".E c #337eb4",
".F c #1d71ac",
".G c #0b63a4",
".H c #075d9e",
".I c #407c9e",
".J c #aaaa96",
".K c #a58b50",
".L c #dac14e",
".M c #dac14d",
".N c #d9c04c",
".O c #a8a556",
".P c #789995",
".Q c #5497c5",
".R c #1d7ab8",
".S c #0d71b4",
".T c #0d6eb1",
".U c #4583a5",
".V c #628988",
".W c #688999",
".X c #9f998f",
".Y c #ab8540",
".Z c #b79742",
".0 c #b69741",
".1 c #b69640",
".2 c #b59540",
".3 c #b4943e",
".4 c #b3943e",
".5 c #727c5c",
".6 c #3d8fc5",
".7 c #117dc1",
".8 c #127fc3",
"#` c #107abd",
"#. c #4e8399",
"## c #c8a867",
"#a c #9dbccf",
"#b c #2c88c5",
"#c c #1384c9",
"#d c #1589cf",
"#e c #5b98c0",
"#f c #a2bed0",
"#g c #4c90be",
"#h c #428dbd",
"#i c #428ebe",
"#j c #428cbb",
"#k c #5d94b8",
"#l c #000000",
"#m c #000000",
"#n c #000000",
"#o c #000000",
"#p c #000000",
"#q c #000000",
"#r c #000000",
"#s c #000000",
"#t c #000000",
"#u c #000000",
"#v c #000000",
"#w c #000000",
"#x c #000000",
"#y c #000000",
"#z c #000000",
"#A c #000000",
"#B c #000000",
"#C c #000000",
"#D c #000000",
"#E c #000000",
"#F c #000000",
"#G c #000000",
"#H c #000000",
"#I c #000000",
"#J c #000000",
"#K c #000000",
"#L c #000000",
"#M c #000000",
"#N c #000000",
"#O c #000000",
"#P c #000000",
"#Q c #000000",
"#R c #000000",
"#S c #000000",
"#T c #000000",
"#U c #000000",
"#V c #000000",
"#W c #000000",
"#X c #000000",
"#Y c #000000",
"#Z c #000000",
"#0 c #000000",
"#1 c #000000",
"#2 c #000000",
"#3 c #000000",
"#4 c #000000",
"#5 c #000000",
"#6 c #000000",
"#7 c #000000",
"#8 c #000000",
"a` c #000000",
"a. c #000000",
"a# c #000000",
"aa c #000000",
"ab c #000000",
"ac c #000000",
"ad c #000000",
"ae c #000000",
"af c #000000",
"ag c #000000",
"ah c #000000",
"ai c #000000",
"aj c #000000",
"ak c #000000",
"al c #000000",
"am c #000000",
"an c #000000",
"ao c #000000",
"ap c #000000",
"aq c #000000",
"ar c #000000",
"as c #000000",
"at c #000000",
"au c #000000",
"av c #000000",
"aw c #000000",
"ax c #000000",
"ay c #000000",
"az c #000000",
"aA c #000000",
"aB c #000000",
"aC c #000000",
"aD c #000000",
"aE c #000000",
"aF c #000000",
"aG c #000000",
"aH c #000000",
"aI c #000000",
"aJ c #000000",
"aK c #000000",
"aL c #000000",
"aM c #000000",
"aN c #000000",
"aO c #000000",
"aP c #000000",
"aQ c #000000",
"aR c #000000",
"aS c #000000",
"aT c #000000",
"aU c #000000",
"aV c #000000",
"aW c #000000",
"aX c #000000",
"aY c #000000",
"aZ c #000000",
"a0 c #000000",
"a1 c #000000",
"a2 c #000000",
"a3 c #000000",
"a4 c #000000",
"a5 c #000000",
"a6 c #000000",
"a7 c #000000",
"a8 c #000000",
/* pixels */
"```.`#`a`b`c`d`e`e`e`e`e`e`e`e`e",
"`f`g`h`i`j`k`i`e`e`e`e`e`e`e`e`e",
"`a`i`l`m`n`o`p`q`j`i`r`s`s`e`e`e",
"`d`j`t`u`v`w`x`y`x`w`z`A`B`C`D`E",
"`F`G`H`I`J`J`J`J`J`J`J`K`K`K`L`M",
"`N`O`P`Q`Q`Q`Q`Q`Q`Q`Q`Q`Q`Q`R`S",
"`T`U`V`Q`Q`Q`Q`Q`Q`Q`W`X`Q`Y`Z`0",
"`1`2`3`Q`Q`Q`Q`Q`Q`4`5`6`7`8.`..",
".#.a.b`Q`Q`Q.c.d.e.f.g.h.i.j.c.k",
".l.m.n`R.o`8`8.p.q.r.s.h.t.u.v.w",
"`r.x.y.z.z.A.A.B.C.D.E.F.G.H.I.J",
"`h.K.L.M.N.N.O.P.q.Q.R.S.T.U.V.W",
".X.Y.Z.0.1.2.3.4.5.6.7.8#`#.##`e",
"`e`e`e`e`e`e`e`e#a#b#c#d.8#e`e`e",
"`e`e`e`e`e`e`e`e#f#g#h#i#j#k`e`e",
"`e`e`e`e`e`e`e`e`e`e`e`e`e`e`e`e"
};
