/* XPM */
static const char *folder_conn_disbl_48_xpm[] = {
/* width height num_colors chars_per_pixel */
"    48    48      256            2",
/* colors */
"`` c #2c5284",
"`. c #447ab4",
"`# c #94b6dc",
"`a c #848284",
"`b c None",
"`c c #5c5a5c",
"`d c #c4bebc",
"`e c #849ebc",
"`f c #6492c4",
"`g c #3466a4",
"`h c #546a94",
"`i c #a4a29c",
"`j c #7c7a7c",
"`k c #d4d6d4",
"`l c #accae4",
"`m c #3c72ac",
"`n c #6c6a6c",
"`o c #4c527c",
"`p c #8c92a4",
"`q c #b4b6b4",
"`r c #446694",
"`s c #acaaa4",
"`t c #749ecc",
"`u c #dcdad4",
"`v c #647aa4",
"`w c #5486bc",
"`x c #545a7c",
"`y c #2c5e9c",
"`z c #849ec4",
"`A c #cccac4",
"`B c #6c6e8c",
"`C c #446ea4",
"`D c #6486b4",
"`E c #546284",
"`F c #547aac",
"`G c #7492bc",
"`H c #94928c",
"`I c #84aad4",
"`J c #7486ac",
"`K c #acaec4",
"`L c #a4c2e4",
"`M c #bcd6f4",
"`N c #4c72a4",
"`O c #acc6e4",
"`P c #e4e6e4",
"`Q c #8c8a8c",
"`R c #54769c",
"`S c #a4a6bc",
"`T c #cce2fc",
"`U c #44669c",
"`V c #b4b2ac",
"`W c #747694",
"`X c #94aed4",
"`Y c #2c5a94",
"`Z c #a4b6d4",
"`0 c #a4a6a4",
"`1 c #bcd2f4",
"`2 c #bcbebc",
"`3 c #e4e2e4",
"`4 c #3c5e8c",
"`5 c #d4d2cc",
"`6 c #648ebc",
"`7 c #5482b4",
"`8 c #9492a4",
".` c #c4c6c4",
".. c #6c9ac4",
".# c #3c6ea4",
".a c #b4d2ec",
".b c #44628c",
".c c #b4aeac",
".d c #7ca6d4",
".e c #5c5e84",
".f c #74728c",
".g c #5c628c",
".h c #9cbedc",
".i c #84869c",
".j c #3c669c",
".k c #4472a4",
".l c #747274",
".m c #bcbacc",
".n c #acaab4",
".o c #7c9ec4",
".p c #dcdae4",
".q c #cccedc",
".r c #749acc",
".s c #8cb2d4",
".t c #64729c",
".u c #34568c",
".v c #4c82b4",
".w c #6c92bc",
".x c #a49eac",
".y c #747a94",
".z c #c4daf4",
".A c #b4ceec",
".B c #8492b4",
".C c #bcb6b4",
".D c #4c668c",
".E c #5c86b4",
".F c #545e8c",
".G c #345e94",
".H c #d4cecc",
".I c #6c729c",
".J c #4c6e94",
".K c #6c8ab4",
".L c #546694",
".M c #5c7eac",
".N c #9c9a9c",
".O c #748ebc",
".P c #4c76a4",
".Q c #d4eafc",
".R c #4c6a9c",
".S c #3c6a9c",
".T c #4476b4",
".U c #2c5694",
".V c #4c7ab4",
".W c #9cbadc",
".X c #848684",
".Y c #646264",
".Z c #c4c2bc",
".0 c #9c9e9c",
".1 c #646a94",
".2 c #acceec",
".3 c #6c6e84",
".4 c #445a8c",
".5 c #acaeac",
".6 c #dcdedc",
".7 c #545e84",
".8 c #8ca6cc",
"#` c #cccecc",
"#. c #9c9aac",
"## c #7c829c",
"#a c #a4bedc",
"#b c #7c92bc",
"#c c #7c8ab4",
"#d c #eceaec",
"#e c #4c5e8c",
"#f c #8caad4",
"#g c #b4b2c4",
"#h c #8c8a9c",
"#i c #d4e6fc",
"#j c #3c629c",
"#k c #345a8c",
"#l c #aca6a4",
"#m c #6c8ebc",
"#n c #5c82b4",
"#o c #ccc6c4",
"#p c #7c9ac4",
"#q c #7c8eb4",
"#r c #4c5a84",
"#s c #8c9ebc",
"#t c #5c6a94",
"#u c #8c9ec4",
"#v c #5476ac",
"#w c #bcbecc",
"#x c #74729c",
"#y c #4c6ea4",
"#z c #6c7294",
"#A c #648ab4",
"#B c #54668c",
"#C c #7496c4",
"#D c #949694",
"#E c #446a9c",
"#F c #94b2d4",
"#G c #3c6294",
"#H c #4476ac",
"#I c #7ca2cc",
"#J c #6c96c4",
"#K c #c4def4",
"#L c #8496bc",
"#M c #bcbab4",
"#N c #4c6a94",
"#O c #5c8abc",
"#P c #34629c",
"#Q c #4c6284",
"#R c #94badc",
"#S c #7c7e7c",
"#T c #6c6e6c",
"#U c #74a2cc",
"#V c #547eac",
"#W c #a4c6e4",
"#X c #bcdaf4",
"#Y c #8c8e8c",
"#Z c #cce6fc",
"#0 c #9496a4",
"#1 c #5c668c",
"#2 c #747674",
"#3 c #acaeb4",
"#4 c #dcdee4",
"#5 c #64769c",
"#6 c #a4a2ac",
"#7 c #4c7eb4",
"#8 c #646664",
"a` c #8caed4",
"a. c #2c528c",
"a# c #a4a2a4",
"aa c #accaec",
"ab c #8c92ac",
"ac c #acaaac",
"ad c #dcdadc",
"ae c #545a84",
"af c #cccacc",
"ag c #6c6e94",
"ah c #54628c",
"ai c #949294",
"aj c #4c72ac",
"ak c #acc6ec",
"al c #5476a4",
"am c #b4b2b4",
"an c #74769c",
"ao c #a4a6ac",
"ap c #e4e2ec",
"aq c #d4d2d4",
"ar c #648ec4",
"as c #5482bc",
"at c #c4c6cc",
"au c #6c9acc",
"av c #b4d2f4",
"aw c #5c5e8c",
"ax c #9cbee4",
"ay c #8486a4",
"az c #3c66a4",
"aA c #4472ac",
"aB c #7c9ecc",
"aC c #8cb2dc",
"aD c #6c92c4",
"aE c #4c6694",
"aF c #5c86bc",
"aG c #345e9c",
"aH c #4c6e9c",
"aI c #5c7eb4",
"aJ c #4c76ac",
"aK c #3c6aa4",
"aL c #84868c",
"aM c #c4c2c4",
"aN c #345a94",
"aO c #648abc",
"aP c #446aa4",
"aQ c #94b2dc",
"aR c #c4defc",
"aS c #bcbabc",
"aT c #000000",
"aU c #000000",
"aV c #000000",
"aW c #000000",
"aX c #000000",
"aY c #000000",
"aZ c #000000",
"a0 c #000000",
"a1 c #000000",
"a2 c #000000",
"a3 c #000000",
"a4 c #000000",
"a5 c #000000",
"a6 c #000000",
"a7 c #000000",
"a8 c #000000",
/* pixels */
"`b`b`b`b`b`b`b`b`b`b`b`b`b`b`b`b`b`b`b`b`b`b`b`b`b`b`b`b`b`b`b`b`b`b`b`b`b`b`b`b`b`b`b`b`b`b`b`b",
"`b`b`b`b`b`b`b`b`b`b`b`b`b`b`b`b`b`b`b`b`b`b`b`b`b`b`b`b`b`b`b`b`b`b`b`b`b`b`b`b`b`b`b`b`b`b`b`b",
"`b`b`b`b`b`b`b`b`b`b`b`b`b`b`b`b`b`b`b`b`b`b`b`b`b`b`b`b`b`b`b`b`b`b`b`b`b`b`b`b`b`b`b`b`b`b`b`b",
"`b`b`b`b`b`b`b`b`b`b`b`b`b`b`b`b`b`b`b`b`b`b`b`b`b`b`b`b`b`b`b`b`b`b`b`b`b`b`b`b`b`b`b`b`b`b`b`b",
"`b`b`ba#`j`j.l`j`j`j`j`j`j`j`j`j`j`j`j`jam`b`b`b`b`b`b`b`b`b`b`b`b`b`b`b`b`b`b`b`b`b`b`b`b`b`b`b",
"`b`b`3`Qaf#`af#oat.`aMaMaMaM`2aM`2aM`2`2`a`3`b`b`b`b`b`b`b`b`b`b`b`b`b`b`b`b`b`b`b`b`b`b`b`b`b`b",
"`b`badai#`amacac`0#l`0a#.0a#.0.0.N.0.N`0.N`2`b`b`b`b`b`b`b`b`b`b`b`b`b`b`b`b`b`b`b`b`b`b`b`b`b`b",
"`b`b`3#Y.`.N#D#Dai#Y#Y#Y#Y`Q`Q`Q.X`Q.X`Q.N.N`b`b`b`b`b`b`b`b`b`b`b`b`b`b`b`b`b`b`b`b`b`b`b`b`b`b",
"`b`b`P`Q#oaoa#.0a#.0.N.N#D#D#Daiaiai#Yai#D`j`b`b`b`b`b`b`b`b`b`b`b`b`b`b`b`b`b`b`b`b`b`b`b`b`b`b",
"`b`b#d`a`2.Nai#Y#Y#Y`Q`Q.X`Q`a`a.X`a#S`a`a#S.l`a`a`a`a`a`a`a`a`a`a`a`a`a`a`3`b`b`b`b`b`b`b`b`b`b",
"`b`b`b`j.`a#.0.N#D#Daiai#Y#Y#Y`Q.X#Y`Q.X`Q`Q`Q.N`0acacacac.5ac.5.c#3.5am`0.l`b`b`b`b`b`b`b`b`b`b",
"`b`b`b#2`2ai#Y#Y`QaL.X`a`a`a#S#S#S`j`j#S`j#2#S`j`j`j#S#S#S`a`a.XaL`Q#Y#Yai#8`b`b`b`b`b`b`b`b`b`b",
"`b`b`b.l`d.0#Dai`H#Y`Q`Q.X`Q.X`a`a`a#S`a#S`a#S#S`a#S`a`a`a.X.X`Q`Q`Q#Y`Hai`n`b`b`b`b`b`b`b`b`b`b",
"`b`b`b`n`qai`Q.X`a`a`a#S#S`j`j#2`j#2#2#2#2.l.l#2#2#2#2#2#2`j`j`j#S#S`a`aaL`n`b`b`b`b`b`b`b`b`b`b",
"`b`b`b`n`q.N#Y`Qai#Yai#Yai#Y`H#Y#Yai#Yai#Y#Y#Yai#Y#Yai#Yai#Y#Y#Yai#Yai#Y#D#Y`i.xa#a#a#a#aS`b`b`b",
"`b`b`b#8#3ai.X.Xai#`#``5#`#`.q`5#`#`#`#`#`.H#`#`.H#`#`#`#`#`.H#`#`#`#`#`#`af#`#`#`af#`af.N`b`b`b",
"`b`b`b`nac#D`Q.X#Dadafafaf`A`A`Aaf#oaf#oafafaf`Aafaf`Aaf`Aaf`Aafafaf`Aafaf`Aaf`Aaf`A#``uai`b`b`b",
"`b`b`b`n`0ai`a`a.Nad.Z`2.ZaM`2aM.Z`2aM.Z`2.Z.Z`2aM.Z`daM`daM`2.Z.Z.ZaM.Z.ZaM.Z.ZaM.ZaM`kai`b`b`b",
"`b`b`b#Ta#ai`a.Xa#`u.ZaM.Z`2aM.ZaM.ZaM.ZaMaM`2aM.Z`2aM`2.ZaS#6#0ay`p.x`qaM`2aM`2.Z`2aM`5.N`b`b`b",
"`b`b`b.l.N#Y#S`a.5aq.Z`2aM.Z.Z`2aM`2.Z`2aM.Z.ZaM.ZaM.Z`p.1.I#L`e`z#s#c.t#1#h`2aMaMaS.`af.0`b`b`b",
"`b`b`b.l.N#Y#S.XamaqaM.ZaM`2aM.ZaM.ZaM.Z`2aM`2.Z`2#g`B#s#aa`.M#y#EaO`##F.s#b.1ac`2#M.`#oac`b`b`b",
"`b`b`b.l#D#Y`j`QaS`5`2aM.Z.ZaM`2.Z`2aM.ZaM.ZaM.Z`p.t`Z.oa``M#n`NaI.s#Ra``I`6.K`h.iaS`AaM#3`b`b`b",
"`b`b`b`j#Y`Q#2`Q.Z#`aM.Z`2aM.ZaM.ZaM.Z`2aM`2.Zan#L.8#R`O#a.z#n#a.A#fax`##m`C`C`Fal.gaf`2`2`b`b`b",
"`b`b`b`j`Q`Q`j#Yat#`.ZaM.Z`2aM`2aM`2aM.Z.ZaM.N#q#p.z`X#A.z#i#K#K`M.2#W`I#m#Oaj.G#jaH`p.C.``b`b`b",
"`b`b`b`a`a.X#2`H#`af.Z`2aM.Z.ZaM.Z.ZaM`2aM`q#t`G`N#mal`Fa`.Q.Q`T#X.aaQ#maJ`N#PaG.GaP#eao.H`b`b`b",
"`b`b`b`a`a#Y#2ai.H.`aM.ZaM`2aM`2.Z`2aM.Z.Z#z#b`N.P#v#V#a.z#i.Q.QaR`M`l#n#E.j#j#P.G`Y`C#rad`b`b`b",
"`b`b`b`Q#S`a.l#Y`k.`.ZaM`2.Z.ZaMaM.Z.Z`2`S`J`F`Nal#n`O.Q.Q.Q.Q#i#Kav#C`F`I.E`C#P.G`YaNaE`S`b`b`b",
"`b`b`b`Q`j`Q#2aiaqaM`d.ZaM.ZaM`2.Z`2aM.Z`W`G#y`Naj`O.Q.Q#i.Q#Z.QaR.aa`#m`6#I.r.EaKaN.UaP.1`b`b`b",
"`b`b`bai#2`a.l#Daq.Z`2aM`2aM.ZaM.Z`2`d`2.g.K`N.E`X`T.Q.Q.Q.Q.Q`T#X.A#n#E#E`CaP.kaG`Y.U.j.4`b`b`b",
"`b`b`b.N.l.X`j.N#`.ZaM.Z.Z`2`2aSaSaSaS#M.L#A.haa`l.zaR#Z#i`TaR.zav#p`CaP.j.j#P.G`C`Y`y#E#e`b`b`b",
"`b`b`b.0`n`a#2.0af.Z`2`2`2aSaS#M`2#M`2#3.t#n#I#a.2`1#X.zaR#K#X`1.2#V#E.j.j#j#PaGaG.j.UaN`h.p`b`b",
"`b`b`ba#`n.X`a`0#o`2aSaS#M`2#MaS#MaS#Mao`J#m#y#I#Wak.Aav.aav.Aaa`L#yaP.j.j#j.G.G`Y`g`Y.j.L.q`b`b",
"`b`b`b#l#8`j#S`s`2aS#M#M.C#M`q#M`q#M`q.c.ta`a``6`Gaj`6.hak`O#W`L.h`6.j.j#j#PaG`Y`Y`Y.U#E#B`3`b`b",
"`b`b`b.n`n.X`Q`0.C.5.5.5.5.c.5.c.5.c.5.5.ga`.da`aF#E#EaI`#.h.W`#aCa`aF`6#n#PaN`Y.U.U.G#E.7`b`b`b",
"`b`b`bam.Y`j.X`0ac#l`s`0#l`0`0#l`0`0`0#l.7`I#I#I.jaz.j#EaJaBaCa``I.daB..`faG`Y`Y.U.U#G#N.e`b`b`b",
"`b`b`b.C#8.X#Y`i.0.0.0`i.N.0`i.N.0.N.0.N.f`G#JaD#j.j.j.j.j.j#n.d#I`t#J`f#O.S`Y.Ua.`Y#G.Day`b`b`b",
"`b`b`b`2.Y`j`Q#Dai.N`H#D#Dai`H#D`H.N`H`H#Y.7`t`f.k#P#j#P#j#PaO..#J`f`6#OasaK.U.Ua.`Y.b`xap`b`b`b",
"`b`b`baM`c.Xai#Y`H`Q`H`Q`H#Y`H`Q`H`Q#Y`H`Q.f`v`6#O.j.GaG.GaG`6`far#O`w.v.V#P.Ua.``#k.7.i`b`b`b`b",
"`b`b`baf`c`Q#Y`H`Q#Y`H`Q#Y`H`Q`H`Q`H`Q#Y`H`Q`x.K`w.VaN.GaG.j#O`w`w`7#7`.`m#Pa.a.``.D`o`b`b`b`b`b",
"`b`b`b`b`j#Y#Y`Q`H`Q#Y`H`Q#Y#Y#Y#Y#Y`H`Q#Y#YaL#raO`.`Y.UaG.v#7#7.V#H`m`CaK#Ga.```4`oaM`b`b`b`b`b",
"`b`b`b`b`baqaq.H.q`5.H.q.H.H.H.q.H#`.H.q`5.H`5`Sah.MaN`Y`g#H.T`m`m`CaK.S#G`4.U`4`x.m`b`b`b`b`b`b",
"`b`b`b`b`b`b`b`b`b`b`b`b`b`b`b`b`b`b`b`b`b`b`b`b`ban`r`C.#.#aK#E.S.j#G`4`4.b.7`B`b`b`b`b`b`b`b`b",
"`b`b`b`b`b`b`b`b`b`b`b`b`b`b`b`b`b`b`b`b`b`b`b`b`b`b#w.g`h`R`R.R`r#E#N.D#Q.e`K`b`b`b`b`b`b`b`b`b",
"`b`b`b`b`b`b`b`b`b`b`b`b`b`b`b`b`b`b`b`b`b`b`b`b`b`b`b`b.m.I.g.g.g.g.g`B#g`b`b`b`b`b`b`b`b`b`b`b",
"`b`b`b`b`b`b`b`b`b`b`b`b`b`b`b`b`b`b`b`b`b`b`b`b`b`b`b`b`b`b`b`b`b`b`b`b`b`b`b`b`b`b`b`b`b`b`b`b",
"`b`b`b`b`b`b`b`b`b`b`b`b`b`b`b`b`b`b`b`b`b`b`b`b`b`b`b`b`b`b`b`b`b`b`b`b`b`b`b`b`b`b`b`b`b`b`b`b",
"`b`b`b`b`b`b`b`b`b`b`b`b`b`b`b`b`b`b`b`b`b`b`b`b`b`b`b`b`b`b`b`b`b`b`b`b`b`b`b`b`b`b`b`b`b`b`b`b",
"`b`b`b`b`b`b`b`b`b`b`b`b`b`b`b`b`b`b`b`b`b`b`b`b`b`b`b`b`b`b`b`b`b`b`b`b`b`b`b`b`b`b`b`b`b`b`b`b"
};
