/* XPM */
static const char *folder_48_xpm[] = {
/* width height num_colors chars_per_pixel */
"    48    48      256            2",
/* colors */
"`` c None",
"`. c #c4aa54",
"`# c #f4d674",
"`a c #dcc264",
"`b c #e4d6b4",
"`c c #ecc66c",
"`d c #fce68c",
"`e c #e4d69c",
"`f c #d4c294",
"`g c #f4eeb4",
"`h c #ccb67c",
"`i c #d4b65c",
"`j c #fcfad4",
"`k c #f4de8c",
"`l c #dcc67c",
"`m c #f4de94",
"`n c #fcf6b4",
"`o c #dccea4",
"`p c #ecce7c",
"`q c #d4b25c",
"`r c #fcd66c",
"`s c #ccb25c",
"`t c #ecce6c",
"`u c #ecde9c",
"`v c #c4aa64",
"`w c #e4ca6c",
"`x c #fceea4",
"`y c #fceec4",
"`z c #dcba64",
"`A c #dcca8c",
"`B c #ecd68c",
"`C c #fceab4",
"`D c #dcca94",
"`E c #e4c264",
"`F c #fce6a4",
"`G c #e4d6a4",
"`H c #ccb66c",
"`I c #fcde7c",
"`J c #fcf6c4",
"`K c #dcceac",
"`L c #fcd264",
"`M c #fceeb4",
"`N c #d4be7c",
"`O c #fce294",
"`P c #e4ca84",
"`Q c #fcde8c",
"`R c #ccae5c",
"`S c #ecdec4",
"`T c #fcea9c",
"`U c #ecda94",
"`V c #fcfaec",
"`W c #e4ce9c",
"`X c #fcda7c",
"`Y c #f4d274",
"`Z c #ccae64",
"`0 c #f4d684",
"`1 c #dccaa4",
"`2 c #e4c664",
"`3 c #fcf2b4",
"`4 c #c4ae5c",
"`5 c #f4da74",
"`6 c #ecdabc",
"`7 c #ecca6c",
"`8 c #fcea94",
".` c #d4c6a4",
".. c #d4ba64",
".# c #fcfedc",
".a c #dcc28c",
".b c #f4e294",
".c c #fcfabc",
".d c #ecd28c",
".e c #fcda74",
".f c #ecd274",
".g c #ece2a4",
".h c #c4ae64",
".i c #fcf2c4",
".j c #f4e6cc",
".k c #d4ba6c",
".l c #fce284",
".m c #fcfac4",
".n c #d4be94",
".o c #e4ce84",
".p c #e4d294",
".q c #f4da84",
".r c #c4aa5c",
".s c #dcc26c",
".t c #e4d6bc",
".u c #fce694",
".v c #e4da9c",
".w c #d4c29c",
".x c #ccb68c",
".y c #d4b664",
".z c #fcfadc",
".A c #dcc684",
".B c #f4de9c",
".C c #fcf6bc",
".D c #ecd284",
".E c #fcd674",
".F c #ccb264",
".G c #ecce74",
".H c #ecdea4",
".I c #e4ca74",
".J c #fcf2ac",
".K c #fceecc",
".L c #dcbe64",
".M c #dcce8c",
".N c #fceabc",
".O c #dcca9c",
".P c #e4c26c",
".Q c #fceaac",
".R c #e4d6ac",
".S c #ccba74",
".T c #fcde84",
".U c #fcf6cc",
".V c #dcceb4",
".W c #fcd26c",
".X c #fceebc",
".Y c #d4be84",
".Z c #fce29c",
".0 c #fce28c",
".1 c #ecda9c",
".2 c #dccaac",
".3 c #e4c66c",
".4 c #fcf2bc",
".5 c #f4da7c",
".6 c #ecca74",
".7 c #c4ae6c",
".8 c #e4ce8c",
"#` c #e4d29c",
"#. c #f4da8c",
"## c #000000",
"#a c #000000",
"#b c #000000",
"#c c #000000",
"#d c #000000",
"#e c #000000",
"#f c #000000",
"#g c #000000",
"#h c #000000",
"#i c #000000",
"#j c #000000",
"#k c #000000",
"#l c #000000",
"#m c #000000",
"#n c #000000",
"#o c #000000",
"#p c #000000",
"#q c #000000",
"#r c #000000",
"#s c #000000",
"#t c #000000",
"#u c #000000",
"#v c #000000",
"#w c #000000",
"#x c #000000",
"#y c #000000",
"#z c #000000",
"#A c #000000",
"#B c #000000",
"#C c #000000",
"#D c #000000",
"#E c #000000",
"#F c #000000",
"#G c #000000",
"#H c #000000",
"#I c #000000",
"#J c #000000",
"#K c #000000",
"#L c #000000",
"#M c #000000",
"#N c #000000",
"#O c #000000",
"#P c #000000",
"#Q c #000000",
"#R c #000000",
"#S c #000000",
"#T c #000000",
"#U c #000000",
"#V c #000000",
"#W c #000000",
"#X c #000000",
"#Y c #000000",
"#Z c #000000",
"#0 c #000000",
"#1 c #000000",
"#2 c #000000",
"#3 c #000000",
"#4 c #000000",
"#5 c #000000",
"#6 c #000000",
"#7 c #000000",
"#8 c #000000",
"a` c #000000",
"a. c #000000",
"a# c #000000",
"aa c #000000",
"ab c #000000",
"ac c #000000",
"ad c #000000",
"ae c #000000",
"af c #000000",
"ag c #000000",
"ah c #000000",
"ai c #000000",
"aj c #000000",
"ak c #000000",
"al c #000000",
"am c #000000",
"an c #000000",
"ao c #000000",
"ap c #000000",
"aq c #000000",
"ar c #000000",
"as c #000000",
"at c #000000",
"au c #000000",
"av c #000000",
"aw c #000000",
"ax c #000000",
"ay c #000000",
"az c #000000",
"aA c #000000",
"aB c #000000",
"aC c #000000",
"aD c #000000",
"aE c #000000",
"aF c #000000",
"aG c #000000",
"aH c #000000",
"aI c #000000",
"aJ c #000000",
"aK c #000000",
"aL c #000000",
"aM c #000000",
"aN c #000000",
"aO c #000000",
"aP c #000000",
"aQ c #000000",
"aR c #000000",
"aS c #000000",
"aT c #000000",
"aU c #000000",
"aV c #000000",
"aW c #000000",
"aX c #000000",
"aY c #000000",
"aZ c #000000",
"a0 c #000000",
"a1 c #000000",
"a2 c #000000",
"a3 c #000000",
"a4 c #000000",
"a5 c #000000",
"a6 c #000000",
"a7 c #000000",
"a8 c #000000",
/* pixels */
"````````````````````````````````````````````````````````````````````````.t`o.x`1`V``````````````",
"``````````````````````````````````````````````````````````.2.n`h`Z`Z`v`..r`v.M`J.#``````````````",
"```````````````````````````````````````````b`W.a`N.y.y`q.y`s`R`R`R`4`R`v`A`g.m.m.z``````````````",
"````````````````````````````.R`D`P.6`Y`Y`Y`7`w.3.P.L.k.y`s`s`s`R`R.F.M.C.m.c.m.c.z``````````````",
"``````````````````````.a`X.T`X`X`X`X`5`#`Y`t.3.3`E.L...y`q`s`R.S`e.C.m.c.m.c.C.m.z``````````````",
"`````````````````````1.T.T.T.T`I.5`X.e`Y.f`t`7.3.L.L`z.y`s.F.v.C.C.c.C`J.C.c`J.c.z``````````````",
"````````````````````.w.T`k.T`k`X`X`5`X`#`Y`7`w.3.P.L...y`R#`.C.c.C.c.C.c.c.C.c.C.z``````````````",
"````````````````````.w.l.T.T`I`X`I.5.e`#.f`t`c.3`a.L`z.y.h.H.c.C.c.C.c.C.C.c.C.c`j``````````````",
"````````````````````.w`Q.T.T.5`I.5.e.5`Y`Y`t`w.3.P.L..`i.h.g.C.C.C.C.C.c.C.C`n.C.z``````````````",
"````````````````````.a.0`k.T.T`I`X.5.e`#`Y`t`7.3.L.L...y`Z.H`n`n`n`n`n`n`n`n`n`n`j``````````````",
"````````````````````.w.0.T.T`I.5`X`X`5`#`Y`t`w.3.P.L`z.y.r.g`3`n`3`n`3`3`n`3`n`3`j``````````````",
"````````````````````.w.l.T`k`I.T.5.e.5`#`Y`7`w.3`E.L....`v`u`3`3`3`3`n`3`3`3`3`3`j``````````````",
"````````````````````.a.0.T.T.T.5`I`X.e`#`Y`t`7.3.P.L`z.y`R.H`n.J`n.J.J.J.J`n.J.J.U``````````````",
"````````````````````.w.0`k`I.T`I`X.5`X`#`Y.G`w`w.P.L....`v`u.J.J.J.J.J.J.J.J.J.J.U``````````````",
"````````````````````.w.0.T.T`k`X.5`I`5`#`Y`t`t.3`E.s`z..`R.1.J`x.J`x.J`x.J`x.J`x.U``````````````",
"````````````````````.a.0`k`I.T`I`X.5.e`#`Y`t`7.3.s.L.L.y.r.1`x`x`x`x`x`x`x`x`x.J.U``````````````",
"````````````````````.w.0.T.T.T.5`I`X`X`#`#.G`w.3.P.L.L.y.h`U`x`x`x`x`x`x`x`x`x`x.U``````````````",
"````````````````````.a.0.T.T`k`I`X`5`X`#`Y`t`7`w`E.L.L.y`R`U`x`x`x`x`x`x`x`x`x`x.U``````````````",
"````````````````````.w.0`k.T`I.5`I`X`5`#`#.G`7.3.3.L.L...h`U`x`x`x`T`x`x`T`x`T`x.i``````````````",
"````````````````````.w.0.T.T.T`X`I.5`X`#`Y`t`w.3.P.L.L.y`R`B`T`T`T`T`T`T`T`T`T`T.U``````````````",
"````````````````````.a.0.T.T`k`X`I.5.e`#`#.G`t.3.3.L`z..`v`B`T`T`T`T`T`T`T`T`T`T.i``````````````",
"````````````````````.w.0`k`I`I.5`X`I.e`#`#`t`7.3`E.s.L..`Z`B`T`8`T`8`T`8`T`T`T`T.i``````````````",
"````````````````````.w.l.T.T.T.T.5`X.5`#`Y.G`7`w.P.L`z.y`4`B.u`8.u`F`8.u.u`8.u.u.i``````````````",
"````````````````````.a`O.l`k`I`X`I.5.e.e`Y.f`7.3`2.s....`R.d.u.u.u.u.u.u.u.u.u.u.i``````````````",
"````````````````````.w.0.T.T`k`I.5`I.5`#`#`t`t.3.P`a.L..`Z.D.u.u.u`d.u.u.u.u.u.u.X``````````````",
"````````````````````.w.0`k.T`I.T`X.5`X.E`#.G`t`w.3`E`z..`Z.o`d`d`d`O`d`d.0`d`d`O.4``````````````",
"````````````````````.a.0.l.T`k`I`I`X`I`#`#`t`7.3.3.L.L..`R.D`d`O.b`d.0`d`O`d.0`d`y``````````````",
"````````````````````.n.0`k.T`I.q`X.5.e`#`#`Y`t.3.3.s`z...h`p.b`d.l.0.b.0.b.0.b.0.X``````````````",
"```````````````````1`p.0.l.T.T`I`I.5`I`#`#.G`t.3.3.L.L..`Z`P.l.l.0`k`d.l.l.l.l.0.X``````````````",
"````````````````.a`k`O.0`k.T.T.q`I`X`X`5`#`Y`7`w.3`E.L..`i`R.o.l.l.l.l.l`k.l.l.l.X``````````````",
"``````````````.t#..0.0.0.T.T`k`X.5`I`5.E`#.G`7.3.3.L.L...y`s.r`p`k.l.T.l.l.l`k.l.X``````````````",
"``````````````.2`m.0.0.b.l.T`I.T`I.5`X`5`#`Y`7`w.3.P.L.y.y`s.r`p`I.T`k`I`k`I.T.T`C``````````````",
"``````````````.2.0.0.0.l.T.T`k`I`X`X`X.E`#.G`t`c.3.L.L..`i`q.r`P`I`I`I`I`I.T`I.T`C``````````````",
"``````````````.2`m.0.b.0`k.l.T.5`I.5`X`5`#.G`t`w.3`a.L...y`s.r.6.5.T`I`k`I`I.5`I`C``````````````",
"``````````````.2.b.0.0.l.T.T.T.T`X.5`I`#`#`Y`7`w.P.P.L...y`s.r.G`I`X.5`I`X`X`I.5`C``````````````",
"``````````````.2`m.0.0.0.b.T`k`I`I`X.5.e`#.f`t`7.3`a.L`z.y`i`v.I`X.5`I.e.5`X.5`I`C``````````````",
"``````````````.2.b.0`O.l.T.l`I`k`X.5`X.e`#`Y`7`w.3.P.L....`s.r.6.e`5`X.e`5.e`X.e`C``````````````",
"``````````````.2`O.0.0.0`k.T.T`I`X`I`X`5`#.f`t`7.3`E.L...y`i`v.3`X.e`5`X.e.e`5.e`C``````````````",
"``````````````.V`m.0.0.0.l.T`k`I.5`X.5.e`#`Y`7`w.3.s.L`z.y`s.r`c.e`#.E.e`#.E.E`#.Q``````````````",
"``````````````.2`m.0.b.0`k.l.T.T`I.5`X`5`#`Y`t`7.3`E.L....`i`v.3.E.E`#`r.E`#.E.E.N``````````````",
"``````````````.t`k`O.0.l.T.T.T`k`X`I`X.e`#`Y`t`w.3.P`a`z.y`s.r`c`#`r`r.E`#`r`r`F````````````````",
"```````````````6`k.0.0.0.0.T`k`I`X.5`X`5`#`Y`t`7.3.P.L.....A.O`c`r`#`r`r`#`r`F``````````````````",
"```````````````S#.`O.b.0`k.l`I.T.5`I`X.e`#.f`t`w.I.d``````````.P`L.W`Y`L`r`F````````````````````",
"````````````````.d.0.0.l`Q.T`k`I`I.5`X.5.5#.```````````````````c`Y`r`L`#`C``````````````````````",
"``````````````````.B.0.0`k.l.T`I.q`O```````````````````````````E`L`L`#.Q````````````````````````",
"````````````````````.j`B`Q`F```````````````````````````````````c`L`L.X``````````````````````````",
"```````````````````````````````````````````````````````````````E`L.K````````````````````````````",
"```````````````````````````````````````````````````````````````P.K``````````````````````````````"
};
