/* XPM */
static const char *folder_conn16_xpm[] = {
/* width height num_colors chars_per_pixel */
"    16    16      256            2",
/* colors */
"`` c #adadad",
"`. c #b0b0b0",
"`# c #aeaeae",
"`a c #ababab",
"`b c #a9a9a9",
"`c c None",
"`d c #b1b1b1",
"`e c #9f9f9f",
"`f c #999999",
"`g c #949494",
"`h c #919191",
"`i c #8f8f8f",
"`j c #939393",
"`k c #acacac",
"`l c #8e8e8e",
"`m c #898989",
"`n c #858585",
"`o c #838383",
"`p c #888888",
"`q c #969696",
"`r c #989898",
"`s c #9a9a9a",
"`t c #a8a8a8",
"`u c #8d8d8d",
"`v c #8b847b",
"`w c #888177",
"`x c #847c72",
"`y c #817a70",
"`z c #80786e",
"`A c #7f776d",
"`B c #857d73",
"`C c #898177",
"`D c #8c857b",
"`E c #c5bdb3",
"`F c #a4a4a4",
"`G c #8a8782",
"`H c #cbb479",
"`I c #ddcc86",
"`J c #ddcb86",
"`K c #dfce87",
"`L c #e0ce89",
"`M c #d3ba83",
"`N c #a0a0a0",
"`O c #dbca85",
"`P c #e6d97d",
"`Q c #c4bd80",
"`R c #acac91",
"`S c #a3a796",
"`T c #b1ae84",
"`U c #e0d47c",
"`V c #e6d778",
"`W c #dac590",
"`X c #9e9e9e",
"`Y c #867968",
"`Z c #e3d48a",
"`0 c #ded37d",
"`1 c #949ea0",
"`2 c #96afcf",
"`3 c #6d8fbc",
"`4 c #7c9fc9",
"`5 c #88abd3",
"`6 c #6a84a0",
"`7 c #b3ae7b",
"`8 c #dbc795",
".` c #8e7e62",
".. c #e7d98e",
".# c #8e9a9f",
".a c #7e9ec6",
".b c #95b3d5",
".c c #cce3fb",
".d c #b4d1ee",
".e c #6d92bf",
".f c #416aa1",
".g c #4a6b99",
".h c #c2b291",
".i c #979797",
".j c #947f5a",
".k c #eade8f",
".l c #c3bc81",
".m c #6585b2",
".n c #7394bf",
".o c #c7def7",
".p c #d3e9ff",
".q c #b6d1ee",
".r c #668bba",
".s c #527baf",
".t c #325d98",
".u c #687891",
".v c #9b845b",
".w c #e9dc88",
".x c #e6d87b",
".y c #e5d777",
".z c #e5d675",
".A c #9fa58e",
".B c #7b9dc7",
".C c #b8d3ef",
".D c #d2e8fe",
".E c #cae2fa",
".F c #8babd2",
".G c #41699f",
".H c #3b659d",
".I c #325f99",
".J c #4f6990",
".K c #929292",
".L c #a18b5d",
".M c #e5d87a",
".N c #e4d570",
".O c #a1a792",
".P c #7297c3",
".Q c #83a5cd",
".R c #a8c6e6",
".S c #abc9e9",
".T c #6e93c0",
".U c #3c659d",
".V c #335e98",
".W c #2d5b96",
".X c #53698e",
".Y c #a48b55",
".Z c #ddc95b",
".0 c #ddc859",
".1 c #ddc758",
".2 c #aaa36e",
".3 c #7aa2cd",
".4 c #40699f",
".5 c #4b73a7",
".6 c #7ca1cc",
".7 c #7ca4cf",
".8 c #6591c2",
"#` c #2e5a95",
"#. c #2e5a94",
"## c #6e758a",
"#a c #929291",
"#b c #ab8c46",
"#c c #d6ba41",
"#d c #ceb344",
"#e c #71879b",
"#f c #4671a8",
"#g c #356099",
"#h c #5984b7",
"#i c #5e8cbf",
"#j c #4e7fb6",
"#k c #2a5691",
"#l c #395b8c",
"#m c #a39fa5",
"#n c #c6c0b6",
"#o c #a88d5a",
"#p c #a78e5b",
"#q c #a78d5b",
"#r c #a68c5a",
"#s c #a48b59",
"#t c #a38a57",
"#u c #867b67",
"#v c #4e6f9d",
"#w c #34629c",
"#x c #4779b2",
"#y c #4073ac",
"#z c #3e699e",
"#A c #36598b",
"#B c #777888",
"#C c #8694b3",
"#D c #6b7ea3",
"#E c #5d7198",
"#F c #7984a3",
"#G c #b3b6c7",
"#H c #000000",
"#I c #000000",
"#J c #000000",
"#K c #000000",
"#L c #000000",
"#M c #000000",
"#N c #000000",
"#O c #000000",
"#P c #000000",
"#Q c #000000",
"#R c #000000",
"#S c #000000",
"#T c #000000",
"#U c #000000",
"#V c #000000",
"#W c #000000",
"#X c #000000",
"#Y c #000000",
"#Z c #000000",
"#0 c #000000",
"#1 c #000000",
"#2 c #000000",
"#3 c #000000",
"#4 c #000000",
"#5 c #000000",
"#6 c #000000",
"#7 c #000000",
"#8 c #000000",
"a` c #000000",
"a. c #000000",
"a# c #000000",
"aa c #000000",
"ab c #000000",
"ac c #000000",
"ad c #000000",
"ae c #000000",
"af c #000000",
"ag c #000000",
"ah c #000000",
"ai c #000000",
"aj c #000000",
"ak c #000000",
"al c #000000",
"am c #000000",
"an c #000000",
"ao c #000000",
"ap c #000000",
"aq c #000000",
"ar c #000000",
"as c #000000",
"at c #000000",
"au c #000000",
"av c #000000",
"aw c #000000",
"ax c #000000",
"ay c #000000",
"az c #000000",
"aA c #000000",
"aB c #000000",
"aC c #000000",
"aD c #000000",
"aE c #000000",
"aF c #000000",
"aG c #000000",
"aH c #000000",
"aI c #000000",
"aJ c #000000",
"aK c #000000",
"aL c #000000",
"aM c #000000",
"aN c #000000",
"aO c #000000",
"aP c #000000",
"aQ c #000000",
"aR c #000000",
"aS c #000000",
"aT c #000000",
"aU c #000000",
"aV c #000000",
"aW c #000000",
"aX c #000000",
"aY c #000000",
"aZ c #000000",
"a0 c #000000",
"a1 c #000000",
"a2 c #000000",
"a3 c #000000",
"a4 c #000000",
"a5 c #000000",
"a6 c #000000",
"a7 c #000000",
"a8 c #000000",
/* pixels */
"```.`#```a`b`b`c`c`c`c`c`c`c`c`c",
"`d`e`f`g`h`i`j`c`c`c`c`c`c`c`c`c",
"`k`g`l`m`n`o`o`p`g`q`r`s`r`c`c`c",
"`t`u`v`w`x`y`z`A`z`y`B`C`D`E`c`c",
"`F`G`H`I`J`J`J`J`J`J`J`I`I`K`L`M",
"`N`B`O`P`P`P`P`P`P`Q`R`S`T`U`V`W",
"`X`Y`Z`P`P`P`P`0`1`2`3`4`5`6`7`8",
"`f.`..`P`P`P`P.#.a.b.c.d.e.f.g.h",
".i.j.k`P`P`P.l.m.n.o.p.q.r.s.t.u",
"`j.v.w.x.y.z.A.B.C.D.E.F.G.H.I.J",
".K.L.M.N.N.N.O.P.Q.R.S.T.U.V.W.X",
"`h.Y.Z.0.1.1.2.3.4.5.6.7.8#`#.##",
"#a#b#c#c#c#c#d#e#f#g#h#i#j#k#l#m",
"#n#o#p#q#r#s#t#u#v#w#x#y#z#A#B`c",
"`c`c`c`c`c`c`c`c`c#C#D#E#F#G`c`c",
"`c`c`c`c`c`c`c`c`c`c`c`c`c`c`c`c"
};
