/* XPM */
static const char *folder_16_xpm[] = {
/* width height num_colors chars_per_pixel */
"    16    16      256            2",
/* colors */
"`` c None",
"`. c #fcfaf3",
"`# c #f7f0df",
"`a c #efe5c9",
"`b c #e6d8b3",
"`c c #dccb9d",
"`d c #d3c088",
"`e c #d8c890",
"`f c #fbf7de",
"`g c #f3e9d1",
"`h c #f0d993",
"`i c #f1d47d",
"`j c #f4d474",
"`k c #e8c96c",
"`l c #dcbd66",
"`m c #d0b360",
"`n c #dcc981",
"`o c #f5ecaf",
"`p c #fff9bf",
"`q c #fffcdd",
"`r c #eddeb5",
"`s c #fade82",
"`t c #fadb7c",
"`u c #f5d574",
"`v c #dcbe66",
"`w c #d7c076",
"`x c #fff7bb",
"`y c #fffbdb",
"`z c #eedeb5",
"`A c #f5d675",
"`B c #e8ca6c",
"`C c #d8c077",
"`D c #fef4b3",
"`E c #fffad8",
"`F c #eedfb5",
"`G c #fade83",
"`H c #fadc7c",
"`I c #f6d675",
"`J c #e9cb6d",
"`K c #ddbf67",
"`L c #d8c075",
"`M c #fdf1ac",
"`N c #fef8d4",
"`O c #d8bf73",
"`P c #fdeea4",
"`Q c #fef7d0",
"`R c #fadc7d",
"`S c #f6d776",
"`T c #debf67",
"`U c #d8bf71",
"`V c #fceb9d",
"`W c #fef5cc",
"`X c #eacb6d",
"`Y c #d8be6f",
"`Z c #fce896",
"`0 c #fdf3c9",
"`1 c #fbdf84",
"`2 c #f7d876",
"`3 c #eacc6e",
"`4 c #dfc067",
"`5 c #d8be6e",
"`6 c #fbe58f",
"`7 c #fdf1c5",
"`8 c #faf6ed",
".` c #eed99a",
".. c #ebcc6e",
".# c #dfc167",
".a c #d5b968",
".b c #f8e087",
".c c #fbe289",
".d c #fdf0c1",
".e c #ede0bc",
".f c #fbe28c",
".g c #dfc168",
".h c #d3b661",
".i c #e3c773",
".j c #fbdf82",
".k c #fdeebe",
".l c #ece0bc",
".m c #fbdf85",
".n c #fadc7e",
".o c #f7d877",
".p c #ebcd6f",
".q c #e0c168",
".r c #e2c570",
".s c #fdedba",
".t c #ece0bd",
".u c #fbe28d",
".v c #f8d877",
".w c #eccd6f",
".x c #e0c268",
".y c #d4b761",
".z c #e2c36c",
".A c #fad976",
".B c #fdecb7",
".C c #efe3c0",
".D c #f8d977",
".E c #ecce6f",
".F c #e1c268",
".G c #d6ba66",
".H c #e4c56e",
".I c #fad66f",
".J c #f9d875",
".K c #fef6dd",
".L c #f5edd5",
".M c #fae28e",
".N c #f9dd82",
".O c #f9e299",
".P c #f7e7b8",
".Q c #f9f1da",
".R c #eed48e",
".S c #f9d672",
".T c #fef6de",
".U c #fbf6e8",
".V c #fdf6e0",
".W c #efd99e",
".X c #fef7e2",
".Y c #000000",
".Z c #000000",
".0 c #000000",
".1 c #000000",
".2 c #000000",
".3 c #000000",
".4 c #000000",
".5 c #000000",
".6 c #000000",
".7 c #000000",
".8 c #000000",
"#` c #000000",
"#. c #000000",
"## c #000000",
"#a c #000000",
"#b c #000000",
"#c c #000000",
"#d c #000000",
"#e c #000000",
"#f c #000000",
"#g c #000000",
"#h c #000000",
"#i c #000000",
"#j c #000000",
"#k c #000000",
"#l c #000000",
"#m c #000000",
"#n c #000000",
"#o c #000000",
"#p c #000000",
"#q c #000000",
"#r c #000000",
"#s c #000000",
"#t c #000000",
"#u c #000000",
"#v c #000000",
"#w c #000000",
"#x c #000000",
"#y c #000000",
"#z c #000000",
"#A c #000000",
"#B c #000000",
"#C c #000000",
"#D c #000000",
"#E c #000000",
"#F c #000000",
"#G c #000000",
"#H c #000000",
"#I c #000000",
"#J c #000000",
"#K c #000000",
"#L c #000000",
"#M c #000000",
"#N c #000000",
"#O c #000000",
"#P c #000000",
"#Q c #000000",
"#R c #000000",
"#S c #000000",
"#T c #000000",
"#U c #000000",
"#V c #000000",
"#W c #000000",
"#X c #000000",
"#Y c #000000",
"#Z c #000000",
"#0 c #000000",
"#1 c #000000",
"#2 c #000000",
"#3 c #000000",
"#4 c #000000",
"#5 c #000000",
"#6 c #000000",
"#7 c #000000",
"#8 c #000000",
"a` c #000000",
"a. c #000000",
"a# c #000000",
"aa c #000000",
"ab c #000000",
"ac c #000000",
"ad c #000000",
"ae c #000000",
"af c #000000",
"ag c #000000",
"ah c #000000",
"ai c #000000",
"aj c #000000",
"ak c #000000",
"al c #000000",
"am c #000000",
"an c #000000",
"ao c #000000",
"ap c #000000",
"aq c #000000",
"ar c #000000",
"as c #000000",
"at c #000000",
"au c #000000",
"av c #000000",
"aw c #000000",
"ax c #000000",
"ay c #000000",
"az c #000000",
"aA c #000000",
"aB c #000000",
"aC c #000000",
"aD c #000000",
"aE c #000000",
"aF c #000000",
"aG c #000000",
"aH c #000000",
"aI c #000000",
"aJ c #000000",
"aK c #000000",
"aL c #000000",
"aM c #000000",
"aN c #000000",
"aO c #000000",
"aP c #000000",
"aQ c #000000",
"aR c #000000",
"aS c #000000",
"aT c #000000",
"aU c #000000",
"aV c #000000",
"aW c #000000",
"aX c #000000",
"aY c #000000",
"aZ c #000000",
"a0 c #000000",
"a1 c #000000",
"a2 c #000000",
"a3 c #000000",
"a4 c #000000",
"a5 c #000000",
"a6 c #000000",
"a7 c #000000",
"a8 c #000000",
/* pixels */
"`````````````.`#`a`b`c`d`e`f````",
"```````g`h`i`j`k`l`m`n`o`p`q````",
"```````r`s`t`u`k`v`w`x`x`x`y````",
"```````z`s`t`A`B`v`C`D`D`D`E````",
"```````F`G`H`I`J`K`L`M`M`M`N````",
"```````F`G`H`I`J`K`O`P`P`P`Q````",
"```````F`G`R`S`J`T`U`V`V`V`W````",
"```````F`G`R`S`X`T`Y`Z`Z`Z`0````",
"```````F`1`R`2`3`4`5`6`6`6`7````",
"`````8.``1`R`2...#.a.b.c.c.d````",
"````.e.f`1`R`2...g.h.i.j.j.k````",
"````.l.f.m.n.o.p.q.h.r`H`H.s````",
"````.t.u.m.n.v.w.x.y.z.A.A.B````",
"````.C.u.m.n.D.E.F.G.H.I.J.K````",
"````.L.M.m.N.O.P.Q``.R.S.T``````",
"``````.U.V``````````.W.X````````"
};
