/* XPM */
static const char *folder_arch_16_xpm[] = {
/* width height num_colors chars_per_pixel */
"    16    16      256            2",
/* colors */
"`` c None",
"`. c #fcfaf3",
"`# c #f7f0df",
"`a c #efe5c9",
"`b c #e6d8b3",
"`c c #dccb9d",
"`d c #d3c088",
"`e c #d8c890",
"`f c #fbf7de",
"`g c #f3e9d1",
"`h c #f0d993",
"`i c #f1d47d",
"`j c #f4d474",
"`k c #e8c96c",
"`l c #dcbd66",
"`m c #d0b360",
"`n c #dcc981",
"`o c #f5ecaf",
"`p c #fff9bf",
"`q c #fffcdd",
"`r c #eddeb5",
"`s c #fade82",
"`t c #fadb7c",
"`u c #f5d574",
"`v c #dcbe66",
"`w c #d7c076",
"`x c #fff7bb",
"`y c #fffbdb",
"`z c #ff6600",
"`A c #fef4b3",
"`B c #fffad8",
"`C c #ffffff",
"`D c #fdf1ac",
"`E c #fef8d4",
"`F c #fdeea4",
"`G c #fef7d0",
"`H c #fceb9d",
"`I c #fef5cc",
"`J c #fce896",
"`K c #fdf3c9",
"`L c #fbe58f",
"`M c #fdf1c5",
"`N c #fbe289",
"`O c #fdf0c1",
"`P c #ede0bc",
"`Q c #fbe28c",
"`R c #fbdf84",
"`S c #fadc7d",
"`T c #f7d876",
"`U c #ebcc6e",
"`V c #dfc168",
"`W c #d3b661",
"`X c #e3c773",
"`Y c #fbdf82",
"`Z c #fdeebe",
"`0 c #ece0bc",
"`1 c #fbdf85",
"`2 c #fadc7e",
"`3 c #f7d877",
"`4 c #ebcd6f",
"`5 c #e0c168",
"`6 c #e2c570",
"`7 c #fadc7c",
"`8 c #fdedba",
".` c #ece0bd",
".. c #fbe28d",
".# c #f8d877",
".a c #eccd6f",
".b c #e0c268",
".c c #d4b761",
".d c #e2c36c",
".e c #fad976",
".f c #fdecb7",
".g c #efe3c0",
".h c #f8d977",
".i c #ecce6f",
".j c #e1c268",
".k c #d6ba66",
".l c #e4c56e",
".m c #fad66f",
".n c #f9d875",
".o c #fef6dd",
".p c #f5edd5",
".q c #fae28e",
".r c #f9dd82",
".s c #f9e299",
".t c #f7e7b8",
".u c #f9f1da",
".v c #eed48e",
".w c #f9d672",
".x c #fef6de",
".y c #fbf6e8",
".z c #fdf6e0",
".A c #efd99e",
".B c #fef7e2",
".C c #000000",
".D c #000000",
".E c #000000",
".F c #000000",
".G c #000000",
".H c #000000",
".I c #000000",
".J c #000000",
".K c #000000",
".L c #000000",
".M c #000000",
".N c #000000",
".O c #000000",
".P c #000000",
".Q c #000000",
".R c #000000",
".S c #000000",
".T c #000000",
".U c #000000",
".V c #000000",
".W c #000000",
".X c #000000",
".Y c #000000",
".Z c #000000",
".0 c #000000",
".1 c #000000",
".2 c #000000",
".3 c #000000",
".4 c #000000",
".5 c #000000",
".6 c #000000",
".7 c #000000",
".8 c #000000",
"#` c #000000",
"#. c #000000",
"## c #000000",
"#a c #000000",
"#b c #000000",
"#c c #000000",
"#d c #000000",
"#e c #000000",
"#f c #000000",
"#g c #000000",
"#h c #000000",
"#i c #000000",
"#j c #000000",
"#k c #000000",
"#l c #000000",
"#m c #000000",
"#n c #000000",
"#o c #000000",
"#p c #000000",
"#q c #000000",
"#r c #000000",
"#s c #000000",
"#t c #000000",
"#u c #000000",
"#v c #000000",
"#w c #000000",
"#x c #000000",
"#y c #000000",
"#z c #000000",
"#A c #000000",
"#B c #000000",
"#C c #000000",
"#D c #000000",
"#E c #000000",
"#F c #000000",
"#G c #000000",
"#H c #000000",
"#I c #000000",
"#J c #000000",
"#K c #000000",
"#L c #000000",
"#M c #000000",
"#N c #000000",
"#O c #000000",
"#P c #000000",
"#Q c #000000",
"#R c #000000",
"#S c #000000",
"#T c #000000",
"#U c #000000",
"#V c #000000",
"#W c #000000",
"#X c #000000",
"#Y c #000000",
"#Z c #000000",
"#0 c #000000",
"#1 c #000000",
"#2 c #000000",
"#3 c #000000",
"#4 c #000000",
"#5 c #000000",
"#6 c #000000",
"#7 c #000000",
"#8 c #000000",
"a` c #000000",
"a. c #000000",
"a# c #000000",
"aa c #000000",
"ab c #000000",
"ac c #000000",
"ad c #000000",
"ae c #000000",
"af c #000000",
"ag c #000000",
"ah c #000000",
"ai c #000000",
"aj c #000000",
"ak c #000000",
"al c #000000",
"am c #000000",
"an c #000000",
"ao c #000000",
"ap c #000000",
"aq c #000000",
"ar c #000000",
"as c #000000",
"at c #000000",
"au c #000000",
"av c #000000",
"aw c #000000",
"ax c #000000",
"ay c #000000",
"az c #000000",
"aA c #000000",
"aB c #000000",
"aC c #000000",
"aD c #000000",
"aE c #000000",
"aF c #000000",
"aG c #000000",
"aH c #000000",
"aI c #000000",
"aJ c #000000",
"aK c #000000",
"aL c #000000",
"aM c #000000",
"aN c #000000",
"aO c #000000",
"aP c #000000",
"aQ c #000000",
"aR c #000000",
"aS c #000000",
"aT c #000000",
"aU c #000000",
"aV c #000000",
"aW c #000000",
"aX c #000000",
"aY c #000000",
"aZ c #000000",
"a0 c #000000",
"a1 c #000000",
"a2 c #000000",
"a3 c #000000",
"a4 c #000000",
"a5 c #000000",
"a6 c #000000",
"a7 c #000000",
"a8 c #000000",
/* pixels */
"`````````````.`#`a`b`c`d`e`f````",
"```````g`h`i`j`k`l`m`n`o`p`q````",
"```````r`s`t`u`k`v`w`x`x`x`y````",
"```z`z`z`z`z`z`z`z`z`z`z`A`B````",
"```z`C`C`C`z`C`z`C`C`z`z`D`E````",
"```z`z`z`C`z`C`z`C`z`C`z`F`G````",
"```z`z`C`z`z`C`z`C`z`C`z`H`I````",
"```z`C`z`z`z`C`z`C`C`z`z`J`K````",
"```z`C`C`C`z`C`z`C`z`z`z`L`M````",
"```z`z`z`z`z`z`z`z`z`z`z`N`O````",
"`````P`Q`R`S`T`U`V`W`X`Y`Y`Z````",
"`````0`Q`1`2`3`4`5`W`6`7`7`8````",
"````.`..`1`2.#.a.b.c.d.e.e.f````",
"````.g..`1`2.h.i.j.k.l.m.n.o````",
"````.p.q`1.r.s.t.u``.v.w.x``````",
"``````.y.z``````````.A.B````````"
};
