/* XPM */
static const char *folder_arch_16_xpm[] = {
/* width height num_colors chars_per_pixel */
"    16    16      256            2",
/* colors */
"`` c None",
"`. c #acacac",
"`# c #aeaeae",
"`a c #adadad",
"`b c #aaaaaa",
"`c c #a9a9a9",
"`d c #b0b0b0",
"`e c #9f9f9f",
"`f c #9a9a9a",
"`g c #969696",
"`h c #929292",
"`i c #909090",
"`j c #959595",
"`k c #dedede",
"`l c #8f8f8f",
"`m c #8a8a8a",
"`n c #868686",
"`o c #848484",
"`p c #8c8c8c",
"`q c #9c9c9c",
"`r c #9e9e9e",
"`s c #a6a6a6",
"`t c #8d8d8d",
"`u c #858688",
"`v c #808183",
"`w c #7b7c7e",
"`x c #78797b",
"`y c #767779",
"`z c #757678",
"`A c #797a7c",
"`B c #7c7d7f",
"`C c #818284",
"`D c #86888a",
"`E c #c1c2c4",
"`F c #a4a4a4",
"`G c #88898b",
"`H c #6f92bc",
"`I c #80a2c7",
"`J c #80a1c8",
"`K c #80a0c7",
"`L c #80a1c7",
"`M c #81a1c7",
"`N c #81a2c8",
"`O c #82a3c8",
"`P c #83a3c9",
"`Q c #87a7cd",
"`R c #8dadd3",
"`S c #7c9fc8",
"`T c #a0a0a0",
"`U c #7a8087",
"`V c #84a6cd",
"`W c #7fa8d3",
"`X c #7ca6d2",
"`Y c #8aabd1",
"`Z c #6c7683",
"`0 c #89add3",
"`1 c #7ea7d3",
"`2 c #74a0d0",
"`3 c #91afd3",
"`4 c #999999",
"`5 c #637489",
"`6 c #8eb1d7",
"`7 c #7da7d3",
"`8 c #75a1d0",
".` c #93b0d4",
".. c #5d7490",
".# c #90b2d9",
".a c #78a3d1",
".b c #73a0cf",
".c c #729fcf",
".d c #7aa4d2",
".e c #94b1d4",
".f c #949494",
".g c #5c7796",
".h c #8bb0d8",
".i c #7ba5d2",
".j c #79a4d1",
".k c #77a2d1",
".l c #739fcf",
".m c #94b1d3",
".n c #5d799b",
".o c #81a9d4",
".p c #74a1d0",
".q c #97b2d4",
".r c #5b7a9f",
".s c #709ecf",
".t c #6d9cce",
".u c #6c9bce",
".v c #6b9bcd",
".w c #6b9acd",
".x c #9ab5d5",
".y c #5578a2",
".z c #6496cc",
".A c #6396cc",
".B c #6395cc",
".C c #6395cb",
".D c #6295cb",
".E c #6394cb",
".F c #a4bbd8",
".G c #8d959f",
".H c #4672a9",
".I c #507db0",
".J c #507cb0",
".K c #4f7bae",
".L c #4e7aae",
".M c #4d7aad",
".N c #4d79ac",
".O c #4e7bae",
".P c #5681b5",
".Q c #6e94c3",
".R c #000000",
".S c #000000",
".T c #000000",
".U c #000000",
".V c #000000",
".W c #000000",
".X c #000000",
".Y c #000000",
".Z c #000000",
".0 c #000000",
".1 c #000000",
".2 c #000000",
".3 c #000000",
".4 c #000000",
".5 c #000000",
".6 c #000000",
".7 c #000000",
".8 c #000000",
"#` c #000000",
"#. c #000000",
"## c #000000",
"#a c #000000",
"#b c #000000",
"#c c #000000",
"#d c #000000",
"#e c #000000",
"#f c #000000",
"#g c #000000",
"#h c #000000",
"#i c #000000",
"#j c #000000",
"#k c #000000",
"#l c #000000",
"#m c #000000",
"#n c #000000",
"#o c #000000",
"#p c #000000",
"#q c #000000",
"#r c #000000",
"#s c #000000",
"#t c #000000",
"#u c #000000",
"#v c #000000",
"#w c #000000",
"#x c #000000",
"#y c #000000",
"#z c #000000",
"#A c #000000",
"#B c #000000",
"#C c #000000",
"#D c #000000",
"#E c #000000",
"#F c #000000",
"#G c #000000",
"#H c #000000",
"#I c #000000",
"#J c #000000",
"#K c #000000",
"#L c #000000",
"#M c #000000",
"#N c #000000",
"#O c #000000",
"#P c #000000",
"#Q c #000000",
"#R c #000000",
"#S c #000000",
"#T c #000000",
"#U c #000000",
"#V c #000000",
"#W c #000000",
"#X c #000000",
"#Y c #000000",
"#Z c #000000",
"#0 c #000000",
"#1 c #000000",
"#2 c #000000",
"#3 c #000000",
"#4 c #000000",
"#5 c #000000",
"#6 c #000000",
"#7 c #000000",
"#8 c #000000",
"a` c #000000",
"a. c #000000",
"a# c #000000",
"aa c #000000",
"ab c #000000",
"ac c #000000",
"ad c #000000",
"ae c #000000",
"af c #000000",
"ag c #000000",
"ah c #000000",
"ai c #000000",
"aj c #000000",
"ak c #000000",
"al c #000000",
"am c #000000",
"an c #000000",
"ao c #000000",
"ap c #000000",
"aq c #000000",
"ar c #000000",
"as c #000000",
"at c #000000",
"au c #000000",
"av c #000000",
"aw c #000000",
"ax c #000000",
"ay c #000000",
"az c #000000",
"aA c #000000",
"aB c #000000",
"aC c #000000",
"aD c #000000",
"aE c #000000",
"aF c #000000",
"aG c #000000",
"aH c #000000",
"aI c #000000",
"aJ c #000000",
"aK c #000000",
"aL c #000000",
"aM c #000000",
"aN c #000000",
"aO c #000000",
"aP c #000000",
"aQ c #000000",
"aR c #000000",
"aS c #000000",
"aT c #000000",
"aU c #000000",
"aV c #000000",
"aW c #000000",
"aX c #000000",
"aY c #000000",
"aZ c #000000",
"a0 c #000000",
"a1 c #000000",
"a2 c #000000",
"a3 c #000000",
"a4 c #000000",
"a5 c #000000",
"a6 c #000000",
"a7 c #000000",
"a8 c #000000",
/* pixels */
"````````````````````````````````",
"`.`#`a`b`b`c`b``````````````````",
"`d`e`f`g`h`i`j`k````````````````",
"`b`j`l`m`n`o`o`p`f`q`r`e`r`k````",
"`s`t`u`v`w`x`y`z`y`A`B`C`D`E````",
"`F`G`H`I`J`K`L`L`L`M`N`O`P`Q`R`S",
"`T`U`V`W`W`W`W`W`W`W`W`W`W`W`X`Y",
"`q`Z`0`W`W`W`W`W`W`W`W`W`W`1`2`3",
"`4`5`6`W`W`W`W`W`W`W`W`W`7`8`8.`",
"`g...#`W`W`W`W`W`W`W`X.a.b.c.d.e",
".f.g.h`W`7.i.j.k`8.l.c.c.c.c.i.m",
"`h.n.o.p.c.c.c.c.c.c.c.c.c.c.i.q",
"`i.r.s.t.t.u.u.u.u.u.v.v.w.w.c.x",
"`h.y.z.z.z.z.z.A.B.C.C.C.D.D.E.F",
".G.H.I.J.K.L.L.M.N.N.M.L.O.P.Q``",
"````````````````````````````````"
};
