/* XPM */
static const char *folder_conn_16_xpm[] = {
/* width height num_colors chars_per_pixel */
"    16    16      256            2",
/* colors */
"`` c #adadad",
"`. c #b0b0b0",
"`# c #aeaeae",
"`a c #ababab",
"`b c #a9a9a9",
"`c c None",
"`d c #b1b1b1",
"`e c #9f9f9f",
"`f c #999999",
"`g c #949494",
"`h c #919191",
"`i c #8f8f8f",
"`j c #939393",
"`k c #dadada",
"`l c #acacac",
"`m c #8e8e8e",
"`n c #898989",
"`o c #858585",
"`p c #838383",
"`q c #888888",
"`r c #969696",
"`s c #989898",
"`t c #9a9a9a",
"`u c #e1e1e1",
"`v c #a8a8a8",
"`w c #8d8d8d",
"`x c #8b847b",
"`y c #888177",
"`z c #847c72",
"`A c #817a70",
"`B c #80786e",
"`C c #7f776d",
"`D c #857d73",
"`E c #898177",
"`F c #8c857b",
"`G c #c5bdb3",
"`H c #f1eae0",
"`I c #f5f0e8",
"`J c #a4a4a4",
"`K c #8a8782",
"`L c #cbb479",
"`M c #ddcc86",
"`N c #ddcb86",
"`O c #dfce87",
"`P c #e0ce89",
"`Q c #d3ba83",
"`R c #a0a0a0",
"`S c #dbca85",
"`T c #e6d97d",
"`U c #c4bd80",
"`V c #acac91",
"`W c #a3a796",
"`X c #b1ae84",
"`Y c #e0d47c",
"`Z c #e6d778",
"`0 c #dac590",
"`1 c #9e9e9e",
"`2 c #867968",
"`3 c #e3d48a",
"`4 c #ded37d",
"`5 c #949ea0",
"`6 c #96afcf",
"`7 c #6d8fbc",
"`8 c #7c9fc9",
".` c #88abd3",
".. c #6a84a0",
".# c #b3ae7b",
".a c #dbc795",
".b c #8e7e62",
".c c #e7d98e",
".d c #8e9a9f",
".e c #7e9ec6",
".f c #95b3d5",
".g c #cce3fb",
".h c #b4d1ee",
".i c #6d92bf",
".j c #416aa1",
".k c #4a6b99",
".l c #c2b291",
".m c #979797",
".n c #947f5a",
".o c #eade8f",
".p c #c3bc81",
".q c #6585b2",
".r c #7394bf",
".s c #c7def7",
".t c #d3e9ff",
".u c #b6d1ee",
".v c #668bba",
".w c #527baf",
".x c #325d98",
".y c #687891",
".z c #9b845b",
".A c #e9dc88",
".B c #e6d87b",
".C c #e5d777",
".D c #e5d675",
".E c #9fa58e",
".F c #7b9dc7",
".G c #b8d3ef",
".H c #d2e8fe",
".I c #cae2fa",
".J c #8babd2",
".K c #41699f",
".L c #3b659d",
".M c #325f99",
".N c #4f6990",
".O c #929292",
".P c #a18b5d",
".Q c #e5d87a",
".R c #e4d570",
".S c #a1a792",
".T c #7297c3",
".U c #83a5cd",
".V c #a8c6e6",
".W c #abc9e9",
".X c #6e93c0",
".Y c #3c659d",
".Z c #335e98",
".0 c #2d5b96",
".1 c #53698e",
".2 c #a48b55",
".3 c #ddc95b",
".4 c #ddc859",
".5 c #ddc758",
".6 c #aaa36e",
".7 c #7aa2cd",
".8 c #40699f",
"#` c #4b73a7",
"#. c #7ca1cc",
"## c #7ca4cf",
"#a c #6591c2",
"#b c #2e5a95",
"#c c #2e5a94",
"#d c #6e758a",
"#e c #929291",
"#f c #ab8c46",
"#g c #d6ba41",
"#h c #ceb344",
"#i c #71879b",
"#j c #4671a8",
"#k c #356099",
"#l c #5984b7",
"#m c #5e8cbf",
"#n c #4e7fb6",
"#o c #2a5691",
"#p c #395b8c",
"#q c #a39fa5",
"#r c #c6c0b6",
"#s c #a88d5a",
"#t c #a78e5b",
"#u c #a78d5b",
"#v c #a68c5a",
"#w c #a48b59",
"#x c #a38a57",
"#y c #867b67",
"#z c #4e6f9d",
"#A c #34629c",
"#B c #4779b2",
"#C c #4073ac",
"#D c #3e699e",
"#E c #36598b",
"#F c #777888",
"#G c #e0e2ea",
"#H c #8694b3",
"#I c #6b7ea3",
"#J c #5d7198",
"#K c #7984a3",
"#L c #b3b6c7",
"#M c #000000",
"#N c #000000",
"#O c #000000",
"#P c #000000",
"#Q c #000000",
"#R c #000000",
"#S c #000000",
"#T c #000000",
"#U c #000000",
"#V c #000000",
"#W c #000000",
"#X c #000000",
"#Y c #000000",
"#Z c #000000",
"#0 c #000000",
"#1 c #000000",
"#2 c #000000",
"#3 c #000000",
"#4 c #000000",
"#5 c #000000",
"#6 c #000000",
"#7 c #000000",
"#8 c #000000",
"a` c #000000",
"a. c #000000",
"a# c #000000",
"aa c #000000",
"ab c #000000",
"ac c #000000",
"ad c #000000",
"ae c #000000",
"af c #000000",
"ag c #000000",
"ah c #000000",
"ai c #000000",
"aj c #000000",
"ak c #000000",
"al c #000000",
"am c #000000",
"an c #000000",
"ao c #000000",
"ap c #000000",
"aq c #000000",
"ar c #000000",
"as c #000000",
"at c #000000",
"au c #000000",
"av c #000000",
"aw c #000000",
"ax c #000000",
"ay c #000000",
"az c #000000",
"aA c #000000",
"aB c #000000",
"aC c #000000",
"aD c #000000",
"aE c #000000",
"aF c #000000",
"aG c #000000",
"aH c #000000",
"aI c #000000",
"aJ c #000000",
"aK c #000000",
"aL c #000000",
"aM c #000000",
"aN c #000000",
"aO c #000000",
"aP c #000000",
"aQ c #000000",
"aR c #000000",
"aS c #000000",
"aT c #000000",
"aU c #000000",
"aV c #000000",
"aW c #000000",
"aX c #000000",
"aY c #000000",
"aZ c #000000",
"a0 c #000000",
"a1 c #000000",
"a2 c #000000",
"a3 c #000000",
"a4 c #000000",
"a5 c #000000",
"a6 c #000000",
"a7 c #000000",
"a8 c #000000",
/* pixels */
"```.`#```a`b`b`c`c`c`c`c`c`c`c`c",
"`d`e`f`g`h`i`j`k`c`c`c`c`c`c`c`c",
"`l`g`m`n`o`p`p`q`g`r`s`t`s`u`c`c",
"`v`w`x`y`z`A`B`C`B`A`D`E`F`G`H`I",
"`J`K`L`M`N`N`N`N`N`N`N`M`M`O`P`Q",
"`R`D`S`T`T`T`T`T`T`U`V`W`X`Y`Z`0",
"`1`2`3`T`T`T`T`4`5`6`7`8.`...#.a",
"`f.b.c`T`T`T`T.d.e.f.g.h.i.j.k.l",
".m.n.o`T`T`T.p.q.r.s.t.u.v.w.x.y",
"`j.z.A.B.C.D.E.F.G.H.I.J.K.L.M.N",
".O.P.Q.R.R.R.S.T.U.V.W.X.Y.Z.0.1",
"`h.2.3.4.5.5.6.7.8#`#.###a#b#c#d",
"#e#f#g#g#g#g#h#i#j#k#l#m#n#o#p#q",
"#r#s#t#u#v#w#x#y#z#A#B#C#D#E#F`c",
"`c`c`c`c`c`c`c`c#G#H#I#J#K#L`c`c",
"`c`c`c`c`c`c`c`c`c`c`c`c`c`c`c`c"
};
