/* XPM */
static const char *folder_prj_16_xpm[] = {
/* width height num_colors chars_per_pixel */
"    16    16      256            2",
/* colors */
"`` c #aeaeae",
"`. c #adadad",
"`# c #ababab",
"`a c #a9a9a9",
"`b c #a8a8a8",
"`c c None",
"`d c #b1b1b1",
"`e c #9d9d9d",
"`f c #989898",
"`g c #939393",
"`h c #909090",
"`i c #8e8e8e",
"`j c #d0d0d0",
"`k c #acacac",
"`l c #8d8d8d",
"`m c #888888",
"`n c #848484",
"`o c #818181",
"`p c #858585",
"`q c #959595",
"`r c #dedede",
"`s c #8f8f8f",
"`t c #928673",
"`u c #90836e",
"`v c #8c7f6b",
"`w c #8b7e68",
"`x c #8a7d68",
"`y c #897c67",
"`z c #8b7e69",
"`A c #8d806b",
"`B c #91846f",
"`C c #948771",
"`D c #c3b5a1",
"`E c #e7dbc6",
"`F c #ede3d3",
"`G c #a4a4a4",
"`H c #888582",
"`I c #d0bb7e",
"`J c #e4d58b",
"`K c #d6be87",
"`L c #9f9f9f",
"`M c #837d74",
"`N c #dbca83",
"`O c #e6d97d",
"`P c #e5d777",
"`Q c #d9c58f",
"`R c #877b6a",
"`S c #e3d48a",
"`T c #e6d87a",
"`U c #e4d672",
"`V c #dac694",
"`W c #8e7e61",
"`X c #e8da8f",
"`Y c #d4ca84",
"`Z c #c2bf9a",
"`0 c #b4b08f",
"`1 c #bfba95",
"`2 c #c1bd95",
"`3 c #c1bd98",
"`4 c #bdb59d",
"`5 c #949494",
"`6 c #94805c",
"`7 c #eade8d",
"`8 c #e6d87b",
".` c #c1bea0",
".. c #f8f8f7",
".# c #868686",
".a c #919191",
".b c #767676",
".c c #f3f3f2",
".d c #f5f5f4",
".e c #d7d6d3",
".f c #929292",
".g c #9c885e",
".h c #e8db86",
".i c #e6d778",
".j c #e5d674",
".k c #e4d570",
".l c #c1bd9d",
".m c #fafaf9",
".n c #f7f7f6",
".o c #2f2f2f",
".p c #252525",
".q c #afafaf",
".r c #a7a7a6",
".s c #a1a09e",
".t c #a38d5e",
".u c #e4d470",
".v c #e2d26b",
".w c #e2d26a",
".x c #e2d16a",
".y c #e2d169",
".z c #c1bc9b",
".A c #f0f0ef",
".B c #828282",
".C c #7d7d7d",
".D c #e0e0e0",
".E c #4e4e4d",
".F c #131312",
".G c #c5c4c2",
".H c #a38b52",
".I c #dbc453",
".J c #dbc452",
".K c #dbc351",
".L c #dbc350",
".M c #dac250",
".N c #bab491",
".O c #606060",
".P c #292929",
".Q c #eeeeed",
".R c #ededed",
".S c #404040",
".T c #acaba9",
".U c #94918a",
".V c #b08e40",
".W c #ceaf3f",
".X c #b0a786",
".Y c #656565",
".Z c #6f6f6f",
".0 c #3a3a3a",
".1 c #646463",
".2 c #7e7e7e",
".3 c #e7e7e6",
".4 c #d4d4d1",
".5 c #f0edea",
".6 c #c9bead",
".7 c #c9bdac",
".8 c #c8bdac",
"#` c #c8bcac",
"#. c #c8bcab",
"## c #b7b5ae",
"#a c #dbdbda",
"#b c #ebebeb",
"#c c #999999",
"#d c #111111",
"#e c #6c6c6b",
"#f c #dcdcda",
"#g c #d4d5d2",
"#h c #c8c9c6",
"#i c #dadbd9",
"#j c #d5d5d4",
"#k c #afb0ae",
"#l c #cacac8",
"#m c #a8a9a8",
"#n c #b8b9b7",
"#o c #c3c3c0",
"#p c #000000",
"#q c #000000",
"#r c #000000",
"#s c #000000",
"#t c #000000",
"#u c #000000",
"#v c #000000",
"#w c #000000",
"#x c #000000",
"#y c #000000",
"#z c #000000",
"#A c #000000",
"#B c #000000",
"#C c #000000",
"#D c #000000",
"#E c #000000",
"#F c #000000",
"#G c #000000",
"#H c #000000",
"#I c #000000",
"#J c #000000",
"#K c #000000",
"#L c #000000",
"#M c #000000",
"#N c #000000",
"#O c #000000",
"#P c #000000",
"#Q c #000000",
"#R c #000000",
"#S c #000000",
"#T c #000000",
"#U c #000000",
"#V c #000000",
"#W c #000000",
"#X c #000000",
"#Y c #000000",
"#Z c #000000",
"#0 c #000000",
"#1 c #000000",
"#2 c #000000",
"#3 c #000000",
"#4 c #000000",
"#5 c #000000",
"#6 c #000000",
"#7 c #000000",
"#8 c #000000",
"a` c #000000",
"a. c #000000",
"a# c #000000",
"aa c #000000",
"ab c #000000",
"ac c #000000",
"ad c #000000",
"ae c #000000",
"af c #000000",
"ag c #000000",
"ah c #000000",
"ai c #000000",
"aj c #000000",
"ak c #000000",
"al c #000000",
"am c #000000",
"an c #000000",
"ao c #000000",
"ap c #000000",
"aq c #000000",
"ar c #000000",
"as c #000000",
"at c #000000",
"au c #000000",
"av c #000000",
"aw c #000000",
"ax c #000000",
"ay c #000000",
"az c #000000",
"aA c #000000",
"aB c #000000",
"aC c #000000",
"aD c #000000",
"aE c #000000",
"aF c #000000",
"aG c #000000",
"aH c #000000",
"aI c #000000",
"aJ c #000000",
"aK c #000000",
"aL c #000000",
"aM c #000000",
"aN c #000000",
"aO c #000000",
"aP c #000000",
"aQ c #000000",
"aR c #000000",
"aS c #000000",
"aT c #000000",
"aU c #000000",
"aV c #000000",
"aW c #000000",
"aX c #000000",
"aY c #000000",
"aZ c #000000",
"a0 c #000000",
"a1 c #000000",
"a2 c #000000",
"a3 c #000000",
"a4 c #000000",
"a5 c #000000",
"a6 c #000000",
"a7 c #000000",
"a8 c #000000",
/* pixels */
"`````.`#`a`b`a`c`c`c`c`c`c`c`c`c",
"`d`e`f`g`h`i`g`j`c`c`c`c`c`c`c`c",
"`k`g`l`m`n`o`o`p`h`g`q`f`q`r`c`c",
"`b`s`t`u`v`w`x`y`x`z`A`B`C`D`E`F",
"`G`H`I`J`J`J`J`J`J`J`J`J`J`J`J`K",
"`L`M`N`O`O`O`O`O`O`O`O`O`O`O`P`Q",
"`e`R`S`O`O`O`O`O`O`O`O`O`O`T`U`V",
"`f`W`X`O`O`O`O`O`Y`Z`0`Z`1`2`3`4",
"`5`6`7`O`O`O`O`8.`...#.a.b.c.d.e",
".f.g.h.i.j`U.k.k.l.m.n.o.p.q.r.s",
".a.t.u.v.w.x.y.y.z.A.B.C.D.E.F.G",
"`g.H.I.J.K.K.L.M.N.O.P.Q.R.S`p.T",
".U.V.W.W.W.W.W.W.X.Y.Z.0.1.2.3.4",
".5.6.7.8.8.8#`#.###a#b#c#d#e#f#g",
"`c`c`c`c`c`c`c`c#h#i#j#k#l#m#n#o",
"`c`c`c`c`c`c`c`c`c`c`c`c`c`c`c`c"
};
