/* XPM */
static const char *folder_arch_48_xpm[] = {
/* width height num_colors chars_per_pixel */
"    48    48      256            2",
/* colors */
"`` c None",
"`. c #c4aa54",
"`# c #f4d674",
"`a c #e4d6bc",
"`b c #dcc264",
"`c c #fcea94",
"`d c #ecc66c",
"`e c #e4d69c",
"`f c #d4c294",
"`g c #fceebc",
"`h c #ccb67c",
"`i c #d4b65c",
"`j c #ece2a4",
"`k c #fce284",
"`l c #dcc67c",
"`m c #f4eee4",
"`n c #fcd66c",
"`o c #dccea4",
"`p c #fcfabc",
"`q c #ecce7c",
"`r c #f4de94",
"`s c #d4b25c",
"`t c #ccb25c",
"`u c #fcf2ac",
"`v c #e4d6ac",
"`w c #ece2cc",
"`x c #ecce6c",
"`y c #c4aa64",
"`z c #f4de8c",
"`A c #e4ca6c",
"`B c #fcf6bc",
"`C c #dcba64",
"`D c #dcca8c",
"`E c #ecd68c",
"`F c #f4eeb4",
"`G c #ecde9c",
"`H c #dcca94",
"`I c #fce294",
"`J c #fcde84",
"`K c #e4c264",
"`L c #ccb66c",
"`M c #dcceac",
"`N c #fcd264",
"`O c #ecdebc",
"`P c #ecda94",
"`Q c #fceecc",
"`R c #d4be7c",
"`S c #fcde7c",
"`T c #fcfad4",
"`U c #e4ca84",
"`V c #ccae5c",
"`W c #fcf2bc",
"`X c #fcda7c",
"`Y c #e4ce9c",
"`Z c #fceabc",
"`0 c #f4d274",
"`1 c #ccae64",
"`2 c #f4d684",
"`3 c #fceaac",
"`4 c #dccaa4",
"`5 c #fce6a4",
"`6 c #e4c664",
"`7 c #c4ae5c",
"`8 c #f4da74",
".` c #ecdabc",
".. c #fceea4",
".# c #ecca6c",
".a c #e4da9c",
".b c #d4c6a4",
".c c #d4ba64",
".d c #f4e6b4",
".e c #fce68c",
".f c #dcc28c",
".g c #fcfaec",
".h c #fcda74",
".i c #ecd28c",
".j c #fcf6b4",
".k c #ecdeb4",
".l c #f4eacc",
".m c #ecd274",
".n c #c4ae64",
".o c #fcf6cc",
".p c #fce694",
".q c #d4ba6c",
".r c #d4be94",
".s c #fcfedc",
".t c #e4ce84",
".u c #e4d294",
".v c #f4da84",
".w c #fceeb4",
".x c #fc6604",
".y c #c4aa5c",
".z c #e4dabc",
".A c #dcc26c",
".B c #fcea9c",
".C c #e4d6a4",
".D c #d4c29c",
".E c #fceec4",
".F c #ccb68c",
".G c #d4b664",
".H c #f4e294",
".I c #fce28c",
".J c #dcc684",
".K c #fcd674",
".L c #fcfac4",
".M c #ecd284",
".N c #f4de9c",
".O c #ccb264",
".P c #fcf2b4",
".Q c #e4d6b4",
".R c #f4e6cc",
".S c #ecce74",
".T c #e4ca74",
".U c #fcf6c4",
".V c #dcbe64",
".W c #dcce8c",
".X c #ecdea4",
".Y c #dcca9c",
".Z c #fce29c",
".0 c #fcde8c",
".1 c #e4c26c",
".2 c #ccba74",
".3 c #dcceb4",
".4 c #fcd26c",
".5 c #ecdec4",
".6 c #ecda9c",
".7 c #d4be84",
".8 c #fcfadc",
"#` c #fcf2c4",
"#. c #fcfefc",
"## c #fceab4",
"#a c #dccaac",
"#b c #e4c66c",
"#c c #f4da7c",
"#d c #ecca74",
"#e c #c4ae6c",
"#f c #e4ce8c",
"#g c #e4d29c",
"#h c #f4da8c",
"#i c #000000",
"#j c #000000",
"#k c #000000",
"#l c #000000",
"#m c #000000",
"#n c #000000",
"#o c #000000",
"#p c #000000",
"#q c #000000",
"#r c #000000",
"#s c #000000",
"#t c #000000",
"#u c #000000",
"#v c #000000",
"#w c #000000",
"#x c #000000",
"#y c #000000",
"#z c #000000",
"#A c #000000",
"#B c #000000",
"#C c #000000",
"#D c #000000",
"#E c #000000",
"#F c #000000",
"#G c #000000",
"#H c #000000",
"#I c #000000",
"#J c #000000",
"#K c #000000",
"#L c #000000",
"#M c #000000",
"#N c #000000",
"#O c #000000",
"#P c #000000",
"#Q c #000000",
"#R c #000000",
"#S c #000000",
"#T c #000000",
"#U c #000000",
"#V c #000000",
"#W c #000000",
"#X c #000000",
"#Y c #000000",
"#Z c #000000",
"#0 c #000000",
"#1 c #000000",
"#2 c #000000",
"#3 c #000000",
"#4 c #000000",
"#5 c #000000",
"#6 c #000000",
"#7 c #000000",
"#8 c #000000",
"a` c #000000",
"a. c #000000",
"a# c #000000",
"aa c #000000",
"ab c #000000",
"ac c #000000",
"ad c #000000",
"ae c #000000",
"af c #000000",
"ag c #000000",
"ah c #000000",
"ai c #000000",
"aj c #000000",
"ak c #000000",
"al c #000000",
"am c #000000",
"an c #000000",
"ao c #000000",
"ap c #000000",
"aq c #000000",
"ar c #000000",
"as c #000000",
"at c #000000",
"au c #000000",
"av c #000000",
"aw c #000000",
"ax c #000000",
"ay c #000000",
"az c #000000",
"aA c #000000",
"aB c #000000",
"aC c #000000",
"aD c #000000",
"aE c #000000",
"aF c #000000",
"aG c #000000",
"aH c #000000",
"aI c #000000",
"aJ c #000000",
"aK c #000000",
"aL c #000000",
"aM c #000000",
"aN c #000000",
"aO c #000000",
"aP c #000000",
"aQ c #000000",
"aR c #000000",
"aS c #000000",
"aT c #000000",
"aU c #000000",
"aV c #000000",
"aW c #000000",
"aX c #000000",
"aY c #000000",
"aZ c #000000",
"a0 c #000000",
"a1 c #000000",
"a2 c #000000",
"a3 c #000000",
"a4 c #000000",
"a5 c #000000",
"a6 c #000000",
"a7 c #000000",
"a8 c #000000",
/* pixels */
"```````````````````````````````````````````````````````````````````````w`a`o.F`4.g``````````````",
"````````````````````````````````````````````````````````.`#a.r`h`1`y`1`..y`y.W.U.s``````````````",
"````````````````````````````````````````.5.Q`Y.f`R.G.G`s.O`t`V`V`V`7.y`y.W`F.L.L.8``````````````",
"``````````````````````````.``v`H`U#d`0`0`0.#`A#b.1.V.q.G`s`t`t`V`V`L.u`B`B.L`p.U.s``````````````",
"``````````````````````.f`X`J`S`X`X`X`8`#`0`x#b#b`K.V`C.G`t`t`V.2`e`W`p`p.L`p`p`p.8``````````````",
"`````````````````````4`J`J`J`J`X#c.h.K`#.S`x`A#b.V.V.c.G`t.O.a`B`B`p`B`B`B.U`B.L`T``````````````",
"````````````````````.D`J.H`S`z`S`X#c`X`#`0.S.##b.1.V.c.G`V#g`B`p`B`p`p`p`p`p`B`p.8``````````````",
"````````````````````.D`k`J`J`S`X`X`8.h`#.m.#`A#b`b.V`C.G.n.X`p`B`p`B`B`B`B`B`p`B`T``````````````",
"````````````````````.D`J`J`J`z`X#c`X`8`#`0`x.##b.1.V.c`i`1`j`B`B`B`B`p`B`B`B`B`p`T``````````````",
"````````````````````.f.I`z`S`S`S`X`8`X`#`0`x`A#b.V.V`C.G`y.X.j.j.j.j.j.j.j.j.j.j`T``````````````",
"````````````````````.D.I`J`J`J#c`S`X`8`#`0`x.##b`K.V.c.G.y`j.j.P.j.P.P.j.P.j.P.P`T``````````````",
"````````````````````.D`J`J`z`S`X#c`X`8`#`0.#`A#b.A.V`C.c`y`G.P.P.P.j.P.P.P.P.j.P.o``````````````",
"````````````````````.f`I`J`J`J#c`S`X.h`#`0`x.##b.1.V.c.G`V.X.j`u`u`u`u.j`u`u`u.P`T``````````````",
"````````````````````.D.I`z`S`J`S`X#c`X`#`0.S`A`A`K.V.V.G.n`G`u`u`u`u`u`u`u`u`u`u.o``````````````",
"````````````````````.D`k`J`J`z`X#c`S`8`#`0`x`x#b.1.V.c.c`V.6`u..`u..`u..`u..`u...o``````````````",
"````````````````````.f.I`z`S`J`S`X#c.h`#`0`x.##b.A`K`C.G`y`P..................`u.o``````````````",
"````````````````````.D.I`J`J`J#c`S`X`X`#`#.S`A#b.1.V.c.c`V.6.....................o``````````````",
"````````````````````.f.I`J`J`z`S`X#c.h`#`0`x.#`A.1`b.V.G`1`P.....................o``````````````",
"````````````````````.D.0`z`J`S#c`S`X`8`#`#.S.##b`K.A`C.c`7`P.......B....`3...B..#```````````````",
"````````````````````.D.I`J`J`J`X`S#c`X`#`0`x`A`A.1.V.V.G`1`E.B.B.B.B.B.B.B.B.B.B.o``````````````",
"````````````````````.f.I`J`J`z`X`S#c.h`#`#.S.##b#b.V.V.G`7`E.B.B`c.B.B.B`c.B.B.B#```````````````",
"````````````````````.D.I`z`J`S#c`X`S.h`#`#`x.##b`K.A`C.c`1`E.B`c.B.B`c.B.B`c.B`c#```````````````",
"````````````````````.D`k`J`J`J`S#c`X#c`#`0.S.#`A.1`b`C.c.y`E.p`c.p.p`c.p.p`c.p`5`W``````````````",
"````````````````````.f`I`J`z`S`X`J`8`X.h`0.m.##b`6.V.c.c`V.i.p.p.p`5.p.p.p.p.p.p#```````````````",
"````````````````````.D.I`k`J`z`S#c`S#c`#`#`x`x#b#b.A.V.c`1.M.p.p.p.e.p.p.p.p.p.p`g``````````````",
"````````````````````.D.I`z`J`S`J`X#c.h.K`#.S`x#b#b`K`C.c`1.t.e.e.e`I.e.e.I.e.e`I`W``````````````",
"````````````````````.f.I`J`k`z`S`S`X`S`#`#.S`x#b#b.V.V.c`V.M.e`I.H.e.I.e`I.e.I.e.E``````````````",
"````````````````````.r.I`z`J`S.v`X#c`X`#`#`0.#`A#b.A.V.c.n`q.H.e`k.I.H.I.H.I.H.I`g``````````````",
"```````````````````4`q.I`k`J`J`S`S#c`S`#`#`x`x#b#b.V.V.G.O`U`k`k.I`z.e`k`k`k`k.I`g``````````````",
"````````````````.f`z`I.I`z`J`J.v`S`X.h`8`#`0.#`A#b`K.V.c`s`V.t`k`k`k`k`k`z`k`k`k`g``````````````",
"```````````````a#h.I.I.I`J`J`z`X#c`S#c.K`#.S.##b#b.V.V.c.G`t.y`q`z`k`J`k`k`k`z`k.w``````````````",
"``````````````#a`r.x.x.x.x.x.x.x.x`X.h#c`#`0.#`A#b.1.V.c.G`t.y`q`S`J`z`S`z`S`J`J`Z``````````````",
"``````````````#a.0.x.x#.#..x.x.x.x`S`X`#`#`x.S`d#b.V.V.c`i`s.y`U`S`S`S`S`S`J`S`S##``````````````",
"``````````````#a.H.x#..x.x#..x.x.x.h#c.h`#`0.#`A#b`b.V.c.G`t.y#d#c`J`S`z`S`S#c`J##``````````````",
"``````````````#a.0.x#.#.#.#.#.#..x`X.h`#`#.S`x#b#b`K.V.G.G`t.y#d`S`S#c.h`X`S`X#c.w``````````````",
"``````````````#a.H.x.x.x.x.x.x.x.x`S#c`X`#`0`x.##b.V.V.c.c`s`y.T`X#c`X`S#c`X#c`S##``````````````",
"``````````````#a`I.x#.#.#.#.#.#..x`X.h`8`#`0.#`A#b.1.V`C.G`t.y#d.h`8`X.h`8`X.h.h##``````````````",
"``````````````#a.H.x.x.x.x.x.x.x.x`S`X.h`#.m`x.##b`b.V.c.c`i`y#b`X.h`8`X.h.h#c.h##``````````````",
"``````````````.3`z.x#.#..x.x.x#..x.h#c`X`#`0.#`A#b.1.V`C.G`t.y`d.h`#.K.K`#.h.K`#`3``````````````",
"``````````````#a.0.x#..x#.#..x#..x`S`X`8`#.m`x.##b.1.V.c.c`s`y#b.K`#.K`n`#.K`#`n`Z``````````````",
"```````````````a`r.x#..x.x.x#.#..x`X.h#c`#`0`x`A#b`K`b`C.G`t.y`d`n`n`#`n`n`n.K`5````````````````",
"``````````````.``z.x.x.x.x.x.x.x.x`X`X.h`#`0`x.##b.1.V.c.c.J.Y#b`n`#`n`n`#`n`5``````````````````",
"``````````````.5#h.x.x.x.x.x.x.x.x`S`8`X`#`0.#`A.T.u.k`````````d`0`N.4`0`n`5````````````````````",
"```````````````m.i.I.I`k.I`J`J`S`S`X`X`8`#`r.d````````````````.1`N`#`N`n##``````````````````````",
"````````````````.R.H`I.I`J`k`J`J.v`I`Z`````````````````````````d`N`N`###````````````````````````",
"````````````````````.R`E`z`5`Z`````````````````````````````````K`N`N`g``````````````````````````",
"```````````````````````````````````````````````````````````````K`0.E````````````````````````````",
"```````````````````````````````````````````````````````````````U`Q``````````````````````````````"
};
