/* XPM */
static const char *folder_conns_48_xpm[] = {
/* width height num_colors chars_per_pixel */
"    48    48      256            2",
/* colors */
"`` c #2c528c",
"`. c #4c7eb4",
"`# c #c4ba7c",
"`a c #a47e35",
"`b c #ccba54",
"`c c None",
"`d c #646264",
"`e c #ccbeb4",
"`f c #aca67c",
"`g c #6c9ac4",
"`h c #3c6aa2",
"`i c #847e5c",
"`j c #e4d26a",
"`k c #9c9e9c",
"`l c #948e6c",
"`m c #ccbe7c",
"`n c #846e54",
"`o c #ecdea4",
"`p c #5c5a5c",
"`q c #747e94",
"`r c #b48e4c",
"`s c #747267",
"`t c #c4a23c",
"`u c #546a8c",
"`v c #cce2fc",
"`w c #6492c4",
"`x c #94badc",
"`y c #dcc655",
"`z c #c4a67c",
"`A c #4476ac",
"`B c #b4ceec",
"`C c #345e97",
"`D c #647ea4",
"`E c #84aad4",
"`F c #e4d294",
"`G c #4c6a94",
"`H c #8c8e74",
"`I c #e4e2e4",
"`J c #d4ca78",
"`K c #748ebc",
"`L c #ccb23c",
"`M c #ac7e39",
"`N c #746654",
"`O c #b48e54",
"`P c #ccba5c",
"`Q c #7c7e7c",
"`R c #4c628c",
"`S c #6c7684",
"`T c #445e8c",
"`U c #5486bc",
"`V c #a4763a",
"`W c #94b2d4",
"`X c #c4c2c4",
"`Y c #ccae64",
"`Z c #7c9ecc",
"`0 c #3c72ac",
"`1 c #ece6aa",
"`2 c #ecde8a",
"`3 c #ac8649",
"`4 c #ac9a54",
"`5 c #ac7a3c",
"`6 c #6c6a6d",
"`7 c #bc9a6c",
"`8 c #7c766c",
".` c #a4c6e4",
".. c #3c669c",
".# c #eceaec",
".a c #848ea4",
".b c #5c6684",
".c c #9c7644",
".d c #dcbe49",
".e c #cccecc",
".f c #949294",
".g c #d4ba94",
".h c #84765c",
".i c #e4ce64",
".j c #bcdaf4",
".k c #4c6690",
".l c #5c82b4",
".m c #446a9f",
".n c #847e70",
".o c #e4da7c",
".p c #6c727c",
".q c #5476ac",
".r c #cce6fc",
".s c #dcc66c",
".t c #3c5e8c",
".u c #6486b4",
".v c #8cb2dc",
".w c #dccc8c",
".x c #7496c4",
".y c #ccb654",
".z c #2c5a94",
".A c #547eae",
".B c #b4ae7c",
".C c #dcd27c",
".D c #a4a4a4",
".E c #dcc284",
".F c #e4dacc",
".G c #7c8694",
".H c #6c96c4",
".I c #a4bedc",
".J c #c4b66c",
".K c #8caad0",
".L c #4c72a5",
".M c #e4e6e4",
".N c #848684",
".O c #b4b4b4",
".P c #7ca6d4",
".Q c #ecde94",
".R c #b48647",
".S c #bc965c",
".T c #646a80",
".U c #947a54",
".V c #6c86ac",
".W c #34568c",
".X c #bcbcbc",
".Y c #749ac6",
".Z c #9c9884",
".0 c #ccc27c",
".1 c #54729c",
".2 c #6c8eb9",
".3 c #e4da84",
".4 c #dcce76",
".5 c #7c8eac",
".6 c #d4b64c",
".7 c #ac8244",
".8 c #746e68",
"#` c #bc9254",
"#. c #94aacc",
"## c #e4d2bc",
"#a c #cccacc",
"#b c #947e5c",
"#c c #dcdedc",
"#d c #ac9a4c",
"#e c #d4b674",
"#f c #dcc6ac",
"#g c #bca264",
"#h c #c4a660",
"#i c #ccb28c",
"#j c #bc963c",
"#k c #5c6274",
"#l c #ccae6c",
"#m c #d4c25c",
"#n c #f4f2ec",
"#o c #bcd6f4",
"#p c #d4d6d4",
"#q c #9c9a9c",
"#r c #acaaac",
"#s c #44669c",
"#t c #8496b4",
"#u c #5c5e74",
"#v c #8c8c8c",
"#w c #d4ba44",
"#x c #5c6a8c",
"#y c #ece1d4",
"#z c #848284",
"#A c #54607c",
"#B c #747a94",
"#C c #f4eaaf",
"#D c #8c7658",
"#E c #848aa4",
"#F c #c4beac",
"#G c #e4da9c",
"#H c #f4eadc",
"#I c #546688",
"#J c #d4b658",
"#K c #7c6e5c",
"#L c #d4ba74",
"#M c #8c724c",
"#N c #9cbadc",
"#O c #4c7aac",
"#P c #5c86b9",
"#Q c #9cb6dc",
"#R c #849ec4",
"#S c #acc6e4",
"#T c #a47a44",
"#U c #d4d2d4",
"#V c #c4daf4",
"#W c #8c8274",
"#X c #747274",
"#Y c #e4ca64",
"#Z c #e4d674",
"#0 c #646274",
"#1 c #94927c",
"#2 c #7c8294",
"#3 c #546e9c",
"#4 c #4c6ea4",
"#5 c #ccb14c",
"#6 c #6c7a94",
"#7 c #7c7a7c",
"#8 c #dcc254",
"a` c #d4eafc",
"a. c #3c629c",
"a# c #5482bc",
"aa c #bcb27c",
"ab c #ecdecc",
"ac c #7c8aa4",
"ad c #bc9a64",
"ae c #8c7a64",
"af c #8c7e60",
"ag c #4472a9",
"ah c #ece6dc",
"ai c #d4c284",
"aj c #d4ba5c",
"ak c #7c7e8c",
"al c #7c96c4",
"am c #ccb664",
"an c #84a6d4",
"ao c #d4c26c",
"ap c #2c5693",
"aq c #3c6ea4",
"ar c #ece2a9",
"as c #dcca5c",
"at c #447ab4",
"au c #34629c",
"av c #ac823c",
"aw c #b49257",
"ax c #a47a35",
"ay c #94b6dc",
"az c #ccb25c",
"aA c #6c6e6c",
"aB c #9c7a49",
"aC c #dcc24c",
"aD c #d4be9c",
"aE c #446ea4",
"aF c #dcca64",
"aG c #3c6294",
"aH c #648ab7",
"aI c #5482b4",
"aJ c #a4c2e4",
"aK c #8caed4",
"aL c #ece296",
"aM c #b48a4c",
"aN c #bc9a58",
"aO c #6c8ab4",
"aP c #749ecc",
"aQ c #6c92bc",
"aR c #7c92b4",
"aS c #9cbee4",
"aT c #5c8abc",
"aU c #accaec",
"aV c #c4defa",
"aW c #747675",
"aX c #646664",
"aY c #acaa7c",
"aZ c #b4d2ec",
"a0 c #84aed4",
"a1 c #e4d694",
"a2 c #4c6e94",
"a3 c #7492bc",
"a4 c #44628c",
"a5 c #c4c6c4",
"a6 c #7ca2cc",
"a7 c #949694",
"a8 c #547aac",
/* pixels */
"`c`c`c`c`c`c`c`c`c`c`c`c`c`c`c`c`c`c`c`c`c`c`c`c`c`c`c`c`c`c`c`c`c`c`c`c`c`c`c`c`c`c`c`c`c`c`c`c",
"`c`c`c`c`c`c`c`c`c`c`c`c`c`c`c`c`c`c`c`c`c`c`c`c`c`c`c`c`c`c`c`c`c`c`c`c`c`c`c`c`c`c`c`c`c`c`c`c",
"`c`c`c`c`c`c`c`c`c`c`c`c`c`c`c`c`c`c`c`c`c`c`c`c`c`c`c`c`c`c`c`c`c`c`c`c`c`c`c`c`c`c`c`c`c`c`c`c",
"`c`c`c`c`c`c`c`c`c`c`c`c`c`c`c`c`c`c`c`c`c`c`c`c`c`c`c`c`c`c`c`c`c`c`c`c`c`c`c`c`c`c`c`c`c`c`c`c",
"`c`c`c`c`c`c`c`c`c`c`c`c`c`c`c`c`c`c`c`c`c`c`c`c`c`c`c`c`c`c`c`c`c`c`c`c`c`c`c`c`c`c`c`c`c`c`c`c",
"`c`c`c`c`I#c#c`I#c#c`I#c#c`I#c#c`I#c#c`I`c`c`c`c`c`c`c`c`c`c`c`c`c`c`c`c`c`c`c`c`c`c`c`c`c`c`c`c",
"`c`c`c.N#v.f#v#v.f#v#v.f#v#v.f.f.f.f.f.N.f`c`c`c`c`c`c`c`c`c`c`c`c`c`c`c`c`c`c`c`c`c`c`c`c`c`c`c",
"`c`c#U.f#U#a`X`X`X`X.X.X.X.X.X.X.O.X.O`X.N#p`c`c`c`c`c`c`c`c`c`c`c`c`c`c`c`c`c`c`c`c`c`c`c`c`c`c",
"`c`c#U#q#a#r#r.D.D.D`k.D`k#q#q#q#q#qa7`k`k.X`c`c`c`c`c`c`c`c`c`c`c`c`c`c`c`c`c`c`c`c`c`c`c`c`c`c",
"`c`c#p.f`Xa7a7a7.f.f.f#v.f#v#v.N.N.N.N.N#q.f`c`c`c`c`c`c`c`c`c`c`c`c`c`c`c`c`c`c`c`c`c`c`c`c`c`c",
"`c`c#c.f#a.D.D.D`k#q#q#qa7a7.fa7.f.f.f.f#q#X.#`c`c`c`c`c`c`c`c`c`c`c`c`c`c`c`c`c`c`c`c`c`c`c`c`c",
"`c`c#c.N.X.f.f#v#v#v.N.N#z#z#z#z#z#z`Q#z#7#z.8.8.8#X.8aA.8.8aA.8aA.8aA.8aA.X`c`c`c`c`c`c`c`c`c`c",
"`c`c`I#za5.D`k#q#qa7#q.f.f.f#v#v#v#v#v.N#v#v#v`k#r.O.O.O.O.O.O.O.X.X.X.X.O`6`c`c`c`c`c`c`c`c`c`c",
"`c`c`I#z.X#v#v#v.N#z#z`Q`Q`Q`Q#7#7#7aW#7aWaWaWaWaWaWaW#7#7ak`Q#zak#z#z.N#v#X`I`c`c`c`c`c`c`c`c`c",
"`c`c.##7.X`ka7.f.f#v#v#v#v.N.N.N.N#z#z#z#z#z#z#z#z#z#z.N.N.N.N#v#v#v#v.f.faA#c`c`c`c`c`c`c`c`c`c",
"`c`c`caW.O.f.N#z.N#z`Q`Q#7#7#7aWaW#X`s.p.8.p.8.p.p#X#X#XaWaW#7aW#7#7`Q`Q.N#X#p`c`c`c`c`c`c`c`c`c",
"`c`c`c.8.Xa7.f#vax`V`V`V`V`V`V`V`V`V`V`V`V`V`V`V`V`V`Vax`V`V`V`V`V`V`V`V`V`V`5`5`5`5`5`5aM`c`c`c",
"`c`c`c`6#r#v#z.n#Tararararararararararararar`oar`oar`oar`oar`oar`oarararar`oar`oar`oar`o.S##`c`c",
"`c`c`c`d.Oa7#v#W.R`1`2.3`2.3`2.3`2.3.3`2.3.3`2.3.3`2.3.3`2.3#G`2.3`2.3`2.3.Q.3.Q.3#G`2`1aw.F`c`c",
"`c`c`c`d.D#v#z`iaw#C.3.o.o.o.o.o.o.o.o.o.o.o.o.o.o.o`2#Z.3.o.o.o.o.3#Z.3`2#Z.3.o.o.o.o#C.Rah`c`c",
"`c`c`c`d#r#v.Nae#g#C#Z.3#Z`2#Z#Z`2#Z`2#Z`2#Z`2#Z`F`#.B.0#Z`2#Z.o#Z`2#Z`2#Z.o#Z`2#Z.o`j#C#T#n`c`c",
"`c`c`c`d.D#v`Q.U#lar.o.o#Z.3#Z`2#Z.3#Z`2.C#1.G#E.5aRa3#t#E#2akaa.3#Z`2#Z#Z`2#Z.3#Z#Z#Z`1`V`c`c`c",
"`c`c`c`d`k#v#7.U#ear.o`2#Z`2#Z.3#Z`2#Z.Z#E#.#NaJa8#4.qay.va0a6.V.p`m#Z.3#Z.3#Z`2#Z#Z`2`o`5`c`c`c",
"`c`c`c`6#q#v#7.U.EaL#Z#Z`2#Z.3#Z`2ao`q#R#Q.I.I#VaQ#SaU`W`x.Y.L.L.q.1#1.3.o`2#Z#Z#Z`j.3a1.R`c`c`c",
"`c`c`c`6.f.N#7.c.waL`2#Z.3#Z`2#Z.4`qaOan.Ka8#Qa`.raVaZaU.Y.x.l`h`Cau#3`f#Z#Z`2`j#Z#Z`2`F`O`c`c`c",
"`c`c`c`6.f.N#7`Va1.Q#Z.3.o#Z`2.4#B.u.L.qa8.K.ja`a``v#VaUalaE..a.`C`Cau.kai#Z#Z#Z`j#Z`2.w`7`c`c`c",
"`c`c`c`6#v.N#X`V#G.Q.3.o.o.3#Z.Na3#4.LaH`Ba`a`a`a``v.jay#PaK.HaI..`Cap#s.p#Z#Z#Z#Z`j.Qai`z`c`c`c",
"`c`c`c#X#v.NaW`V`1.3.o.o#Z`2#Z#6a8a8aH#oa`a`a`a`a`aV#o.K#4`ha8a8#O`Capau#A#Z#Z`j#Z#Z.Q#e#i`c`c`c",
"`c`c`caW#z#z.8`V`1`2#Z`2#Z#Zai`D`Z.``B#o`v`v`v`v#V#o`WaE.m....au`C`hapau.k.4`j#Z#Z#Z`2#laD`c`c`c",
"`c`c`c#7`Q.N`8`5`1.o#Z`2#Z`2#1al.AaQ#SaUaZ#o#o#o`BaUaH.m....aG`C`Cau.z`C`u.J#Z`j#Z#ZaL#h#f`c`c`c",
"`c`c`c`Q#7.n#K`3aL`2#Z#Z.3#Z`f#R`E.x.Ya8.2aJ#S.`aJaSa6`h..a.`C`C.zap.zaG.b.4#Z`j#Z`jaL.S##`c`c`c",
"`c`c`c#z#7.N.h`OaL#Z.3`2#Z.o.saca6`E.A#s`h.Lan`x.v.v`E.Y.Y#P`C.zapap`C.m`6#Z`j#Z#Z#ZaL`rab`c`c`c",
"`c`c`c.N#X#7`naN`o.o#Z#Z#Z#Z#Z#6aP`g..a........L.Pa6aP`g`waT.zapapapaG`R`l#Z#Z`j#Z`j`2.7.#`c`c`c",
"`c`c`c.faA.N#D#h.3#Z#Z#Z`j#Z`j`H`K`w#O`Ca.aua.#O.x.H`waT`U`..zap``apa4`d.4`j#Z`j#Z#Z`2`V`c`c`c`c",
"`c`c`c.f`6#7#M`Y.o`j`j`j`j`j`j`jaWaH#Pag`C`C`C`.aT`Ua#`.#O`0ap````.t#kaoaF`j`j`j`j`j.C`5`c`c`c`c",
"`c`c`c#qaX.N.caz`j.i.i.4.iaF`jaFaF.T.lagap.zag`.`.at`Aaq`h...W``.t#uazasasasasasasas.s`M`c`c`c`c",
"`c`c`c`k`6#7.c#JaFasasasasasasasas#m.n#I..auagaqaE`h`h..aG.t`T#A.8`b`y`yas`y`y`y`yasaj.R`c`c`c`c",
"`c`c`c.DaX#zaB.6`y#8`yaCaCaC#8aC#8aCaC`b`s.T#x`G`G`G.k`R#u#k`s.yaCaCaC#maC.daCaC.daC#5`O`c`c`c`c",
"`c`c`c#r`d#7`V.6#waC#waC.d#waC.d#waC#w.d#w.d#5`4`i.8af#d#5#w.d#w#w#w.d#w#w#w#w#w#w#w`t`7`c`c`c`c",
"`c`c`c.O`d#z`V#w#w#w.d#w#w#w#w#w#w#w#w#w#w#w#w#w#w#w#w#w#w#w#w.d#w#w#w#w#w#w.d#w.d#w#j#i`c`c`c`c",
"`c`c`c.X`p.Uav#w#w#w#w#w.d#w.d#w#w.d#w.d#w#w.d#w#w#w#w#w#w#w#w#w#w#w#w#w#w#w#w#w#w`L`5#H`c`c`c`c",
"`c`c`c`c`N`V`V`5`M`5`Max`5ax`5`a`5ax`5ax`5axax`5ax`5ax`5ax`5axaxaxax`Max`Max`Mavav`5.g`c`c`c`c`c",
"`c`c`c`c`c`e#F#F#F#F#F`e#F#FaD#F#F`e#F#F#F`e#FaD#F`e#FaD#F`eaD#F`eaD#F`eaD`eab#y#y`c`c`c`c`c`c`c",
"`c`c`c`c`c`c`c`c`c`c`c`c`c`c`c`c`c`c`c`c`c`c`c`c`c`c`c`c`c`c`c`c`c`c`c`c`c`c`c`c`c`c`c`c`c`c`c`c",
"`c`c`c`c`c`c`c`c`c`c`c`c`c`c`c`c`c`c`c`c`c`c`c`c`c`c`c`c`c`c`c`c`c`c`c`c`c`c`c`c`c`c`c`c`c`c`c`c",
"`c`c`c`c`c`c`c`c`c`c`c`c`c`c`c`c`c`c`c`c`c`c`c`c`c`c`c`c`c`c`c`c`c`c`c`c`c`c`c`c`c`c`c`c`c`c`c`c",
"`c`c`c`c`c`c`c`c`c`c`c`c`c`c`c`c`c`c`c`c`c`c`c`c`c`c`c`c`c`c`c`c`c`c`c`c`c`c`c`c`c`c`c`c`c`c`c`c",
"`c`c`c`c`c`c`c`c`c`c`c`c`c`c`c`c`c`c`c`c`c`c`c`c`c`c`c`c`c`c`c`c`c`c`c`c`c`c`c`c`c`c`c`c`c`c`c`c"
};
