/* XPM */
static const char *full_left_xpm[] = {
/* width height num_colors chars_per_pixel */
"    16    16      256            2",
/* colors */
"`` c None",
"`. c #bac3db",
"`# c #a4b1d0",
"`a c #a2aecf",
"`b c #cfd9eb",
"`c c #8999c4",
"`d c #7792ca",
"`e c #728abd",
"`f c #8fa5d3",
"`g c #9aadd6",
"`h c #6a8cce",
"`i c #708ac0",
"`j c #8fa4cd",
"`k c #94aedc",
"`l c #a3b5d9",
"`m c #8b9cc5",
"`n c #6d8ecf",
"`o c #728ac0",
"`p c #e4e8f1",
"`q c #97a7cc",
"`r c #b2c1df",
"`s c #a5b9de",
"`t c #a5b4d8",
"`u c #8e9ec7",
"`v c #7495d2",
"`w c #7890c4",
"`x c #d0d7e9",
"`y c #91a3ce",
"`z c #b5c3df",
"`A c #a7bade",
"`B c #a2b2d6",
"`C c #91a3c9",
"`D c #98aed3",
"`E c #8399c5",
"`F c #acbadb",
"`G c #7f99cd",
"`H c #9ab2de",
"`I c #9fb5de",
"`J c #9cb4de",
"`K c #90addd",
"`L c #9badd5",
"`M c #94a4ca",
"`N c #a0b7d8",
"`O c #8aa0c9",
"`P c #aab6d8",
"`Q c #7e9cd7",
"`R c #6f9cdb",
"`S c #699bda",
"`T c #6499da",
"`U c #6397d9",
"`V c #90a6d3",
"`W c #96a7cc",
"`X c #a9c0dd",
"`Y c #8ea5cc",
"`Z c #c8d0e4",
"`0 c #7595d2",
"`1 c #5b92d9",
"`2 c #5991d9",
"`3 c #5891d9",
"`4 c #8ba2d3",
"`5 c #a2b9d9",
"`6 c #8ca3ca",
"`7 c #dadfed",
"`8 c #7894ce",
".` c #588fda",
".. c #538ed9",
".# c #87a0d4",
".a c #91a1c9",
".b c #9ab0d4",
".c c #889ec6",
".d c #839acc",
".e c #5b8fda",
".f c #91a7cf",
".g c #8096c3",
".h c #91a1cf",
".i c #859acc",
".j c #c1cbdf",
".k c #a8b3d2",
".l c #a9b5d3",
".m c #ced5e7",
".n c #000000",
".o c #000000",
".p c #000000",
".q c #000000",
".r c #000000",
".s c #000000",
".t c #000000",
".u c #000000",
".v c #000000",
".w c #000000",
".x c #000000",
".y c #000000",
".z c #000000",
".A c #000000",
".B c #000000",
".C c #000000",
".D c #000000",
".E c #000000",
".F c #000000",
".G c #000000",
".H c #000000",
".I c #000000",
".J c #000000",
".K c #000000",
".L c #000000",
".M c #000000",
".N c #000000",
".O c #000000",
".P c #000000",
".Q c #000000",
".R c #000000",
".S c #000000",
".T c #000000",
".U c #000000",
".V c #000000",
".W c #000000",
".X c #000000",
".Y c #000000",
".Z c #000000",
".0 c #000000",
".1 c #000000",
".2 c #000000",
".3 c #000000",
".4 c #000000",
".5 c #000000",
".6 c #000000",
".7 c #000000",
".8 c #000000",
"#` c #000000",
"#. c #000000",
"## c #000000",
"#a c #000000",
"#b c #000000",
"#c c #000000",
"#d c #000000",
"#e c #000000",
"#f c #000000",
"#g c #000000",
"#h c #000000",
"#i c #000000",
"#j c #000000",
"#k c #000000",
"#l c #000000",
"#m c #000000",
"#n c #000000",
"#o c #000000",
"#p c #000000",
"#q c #000000",
"#r c #000000",
"#s c #000000",
"#t c #000000",
"#u c #000000",
"#v c #000000",
"#w c #000000",
"#x c #000000",
"#y c #000000",
"#z c #000000",
"#A c #000000",
"#B c #000000",
"#C c #000000",
"#D c #000000",
"#E c #000000",
"#F c #000000",
"#G c #000000",
"#H c #000000",
"#I c #000000",
"#J c #000000",
"#K c #000000",
"#L c #000000",
"#M c #000000",
"#N c #000000",
"#O c #000000",
"#P c #000000",
"#Q c #000000",
"#R c #000000",
"#S c #000000",
"#T c #000000",
"#U c #000000",
"#V c #000000",
"#W c #000000",
"#X c #000000",
"#Y c #000000",
"#Z c #000000",
"#0 c #000000",
"#1 c #000000",
"#2 c #000000",
"#3 c #000000",
"#4 c #000000",
"#5 c #000000",
"#6 c #000000",
"#7 c #000000",
"#8 c #000000",
"a` c #000000",
"a. c #000000",
"a# c #000000",
"aa c #000000",
"ab c #000000",
"ac c #000000",
"ad c #000000",
"ae c #000000",
"af c #000000",
"ag c #000000",
"ah c #000000",
"ai c #000000",
"aj c #000000",
"ak c #000000",
"al c #000000",
"am c #000000",
"an c #000000",
"ao c #000000",
"ap c #000000",
"aq c #000000",
"ar c #000000",
"as c #000000",
"at c #000000",
"au c #000000",
"av c #000000",
"aw c #000000",
"ax c #000000",
"ay c #000000",
"az c #000000",
"aA c #000000",
"aB c #000000",
"aC c #000000",
"aD c #000000",
"aE c #000000",
"aF c #000000",
"aG c #000000",
"aH c #000000",
"aI c #000000",
"aJ c #000000",
"aK c #000000",
"aL c #000000",
"aM c #000000",
"aN c #000000",
"aO c #000000",
"aP c #000000",
"aQ c #000000",
"aR c #000000",
"aS c #000000",
"aT c #000000",
"aU c #000000",
"aV c #000000",
"aW c #000000",
"aX c #000000",
"aY c #000000",
"aZ c #000000",
"a0 c #000000",
"a1 c #000000",
"a2 c #000000",
"a3 c #000000",
"a4 c #000000",
"a5 c #000000",
"a6 c #000000",
"a7 c #000000",
"a8 c #000000",
/* pixels */
"````````````````````````````````",
"````````````````````````````````",
"```````.`#`a`````````````b``````",
"```````c`d`e```````````f`g``````",
"```````c`h`i`````````j`k`l``````",
"```````m`n`o`````p`q`r`s`t``````",
"```````u`v`w```x`y`z`r`A`B``````",
"```````C`D`E`F`G`H`I`J`K`L``````",
"```````M`N`O`P`Q`R`S`T`U`V``````",
"```````W`X`Y```Z`0`1`2`3`4``````",
"```````M`5`6`````7`8.`...#``````",
"``````.a.b.c````````.d.e.#``````",
"```````u.f.g``````````.h.i``````",
"``````.j.k.l````````````.m``````",
"````````````````````````````````",
"````````````````````````````````"
};
