/* XPM */
static const char *go_previous_xpm[] = {
/* width height num_colors chars_per_pixel */
"    16    16      256            2",
/* colors */
"`` c None",
"`. c #b2c99d",
"`# c #68953e",
"`a c #7ba256",
"`b c #5f9031",
"`c c #3a7304",
"`d c #528522",
"`e c #83ac5a",
"`f c #c8dfb1",
"`g c #b1c89c",
"`h c #4b801a",
"`i c #a1c47f",
"`j c #bdd9a3",
"`k c #cae0b5",
"`l c #639236",
"`m c #b3d296",
"`n c #aacf88",
"`o c #91c064",
"`p c #c7dfb1",
"`q c #427b0c",
"`r c #4c811b",
"`s c #528523",
"`t c #80aa59",
"`u c #b5d497",
"`v c #94c26a",
"`w c #87ba57",
"`x c #8bbd5c",
"`y c #c4ddac",
"`z c #c5deae",
"`A c #c6deae",
"`B c #c2dcaa",
"`C c #4c811c",
"`D c #98be73",
"`E c #a7cd84",
"`F c #80b64d",
"`G c #7db549",
"`H c #82b74f",
"`I c #85b954",
"`J c #88bb58",
"`K c #89bc59",
"`L c #8abc5a",
"`M c #bfdaa6",
"`N c #87ab65",
"`O c #619135",
"`P c #a5c982",
"`Q c #90bf63",
"`R c #70ad35",
"`S c #75b23c",
"`T c #7bb642",
"`U c #7fb947",
"`V c #7ab742",
"`W c #71b035",
"`X c #65a827",
"`Y c #5ea31d",
"`Z c #60a420",
"`0 c #68a92b",
"`1 c #b8d69b",
"`2 c #5e8e30",
"`3 c #9dc477",
"`4 c #87bb54",
"`5 c #66ac22",
"`6 c #66af20",
"`7 c #62af17",
"`8 c #5cad0e",
".` c #59ac0b",
".. c #58a90a",
".# c #55a409",
".a c #519e07",
".b c #4e9a06",
".c c #a3ca7e",
".d c #487e17",
".e c #88b75c",
".f c #96ca65",
".g c #65b519",
".h c #60b50d",
".i c #61b70e",
".j c #61b60e",
".k c #5eb30d",
".l c #5aad0b",
".m c #56a609",
".n c #538622",
".o c #72a542",
".p c #a5d576",
".q c #7cc833",
".r c #69c211",
".s c #67c111",
".t c #aedb82",
".u c #acd881",
".v c #a9d480",
".w c #a6cf7f",
".x c #7ba356",
".y c #598e27",
".z c #a3d572",
".A c #97da54",
".B c #6ec915",
".C c #b0de83",
".D c #447e0c",
".E c #477f14",
".F c #8ec55a",
".G c #a5dc6e",
".H c #538722",
".I c #70a53c",
".J c #a9d77d",
".K c #548923",
".L c #000000",
".M c #000000",
".N c #000000",
".O c #000000",
".P c #000000",
".Q c #000000",
".R c #000000",
".S c #000000",
".T c #000000",
".U c #000000",
".V c #000000",
".W c #000000",
".X c #000000",
".Y c #000000",
".Z c #000000",
".0 c #000000",
".1 c #000000",
".2 c #000000",
".3 c #000000",
".4 c #000000",
".5 c #000000",
".6 c #000000",
".7 c #000000",
".8 c #000000",
"#` c #000000",
"#. c #000000",
"## c #000000",
"#a c #000000",
"#b c #000000",
"#c c #000000",
"#d c #000000",
"#e c #000000",
"#f c #000000",
"#g c #000000",
"#h c #000000",
"#i c #000000",
"#j c #000000",
"#k c #000000",
"#l c #000000",
"#m c #000000",
"#n c #000000",
"#o c #000000",
"#p c #000000",
"#q c #000000",
"#r c #000000",
"#s c #000000",
"#t c #000000",
"#u c #000000",
"#v c #000000",
"#w c #000000",
"#x c #000000",
"#y c #000000",
"#z c #000000",
"#A c #000000",
"#B c #000000",
"#C c #000000",
"#D c #000000",
"#E c #000000",
"#F c #000000",
"#G c #000000",
"#H c #000000",
"#I c #000000",
"#J c #000000",
"#K c #000000",
"#L c #000000",
"#M c #000000",
"#N c #000000",
"#O c #000000",
"#P c #000000",
"#Q c #000000",
"#R c #000000",
"#S c #000000",
"#T c #000000",
"#U c #000000",
"#V c #000000",
"#W c #000000",
"#X c #000000",
"#Y c #000000",
"#Z c #000000",
"#0 c #000000",
"#1 c #000000",
"#2 c #000000",
"#3 c #000000",
"#4 c #000000",
"#5 c #000000",
"#6 c #000000",
"#7 c #000000",
"#8 c #000000",
"a` c #000000",
"a. c #000000",
"a# c #000000",
"aa c #000000",
"ab c #000000",
"ac c #000000",
"ad c #000000",
"ae c #000000",
"af c #000000",
"ag c #000000",
"ah c #000000",
"ai c #000000",
"aj c #000000",
"ak c #000000",
"al c #000000",
"am c #000000",
"an c #000000",
"ao c #000000",
"ap c #000000",
"aq c #000000",
"ar c #000000",
"as c #000000",
"at c #000000",
"au c #000000",
"av c #000000",
"aw c #000000",
"ax c #000000",
"ay c #000000",
"az c #000000",
"aA c #000000",
"aB c #000000",
"aC c #000000",
"aD c #000000",
"aE c #000000",
"aF c #000000",
"aG c #000000",
"aH c #000000",
"aI c #000000",
"aJ c #000000",
"aK c #000000",
"aL c #000000",
"aM c #000000",
"aN c #000000",
"aO c #000000",
"aP c #000000",
"aQ c #000000",
"aR c #000000",
"aS c #000000",
"aT c #000000",
"aU c #000000",
"aV c #000000",
"aW c #000000",
"aX c #000000",
"aY c #000000",
"aZ c #000000",
"a0 c #000000",
"a1 c #000000",
"a2 c #000000",
"a3 c #000000",
"a4 c #000000",
"a5 c #000000",
"a6 c #000000",
"a7 c #000000",
"a8 c #000000",
/* pixels */
"```````````````````.`#``````````",
"`````````````````a`b`c``````````",
"```````````````d`e`f`c``````````",
"```````````g`h`i`j`k`c``````````",
"`````````a`l`m`n`o`p`q`c`c`c`c`r",
"```````s`t`u`v`w`x`y`z`A`z`y`B`c",
"```g`C`D`E`F`G`H`I`J`K`L`K`J`M`c",
"`N`O`P`Q`R`S`T`U`V`W`X`Y`Z`0`1`c",
"`N`2`3`4`5`6`7`8.`...#.a.b.b.c`c",
"```g.d.e.f.g.h.i.j.k.l.m.a.b.c`c",
"``````.n.o.p.q.r.s.t.u.v.w.c.c`c",
"````````.x.y.z.A.B.C.D`c`c`c`c`r",
"```````````g.E.F.G.C`c``````````",
"``````````````.H.I.J`c``````````",
"````````````````.x.K`c``````````",
"```````````````````.`#``````````"
};
