/* XPM */
static char *info_xpm[] = {
/* width height num_colors chars_per_pixel */
"    16    16      256            2",
/* colors */
"`` c None",
"`. c #d3d5db",
"`# c #adb6c8",
"`a c #91a6cb",
"`b c #90acd5",
"`c c #9ab4d7",
"`d c #9baecc",
"`e c #b0baca",
"`f c #a4b1c8",
"`g c #93b0df",
"`h c #b1c8e1",
"`i c #c9daea",
"`j c #cbdaeb",
"`k c #bfd3e7",
"`l c #94b4d6",
"`m c #adb7c9",
"`n c #cfd2db",
"`o c #90a9da",
"`p c #c3d5e9",
"`q c #ccdbec",
"`r c #d1deed",
"`s c #d2e0ed",
"`t c #d0dded",
"`u c #a9c3dd",
"`v c #a5bdd9",
"`w c #cfd3dd",
"`x c #b2bcd0",
"`y c #95b3d9",
"`z c #c8d8eb",
"`A c #d3e0ee",
"`B c #dae4f0",
"`C c #dde7f1",
"`D c #d9e4f1",
"`E c #b9cfe5",
"`F c #a3c0dc",
"`G c #bdc5d3",
"`H c #abb6cd",
"`I c #87abd0",
"`J c #ccdaeb",
"`K c #dae5f0",
"`L c #e3ebf5",
"`M c #e5eef6",
"`N c #dfe8f2",
"`O c #c7d7e9",
"`P c #b2c8e2",
"`Q c #bfc8d6",
"`R c #b9bfce",
"`S c #95b3d6",
"`T c #bed1e6",
"`U c #e9eff5",
"`V c #e5ecf3",
"`W c #e6ecf2",
"`X c #dde1e5",
"`Y c #d6e2ef",
"`Z c #c9d8ed",
"`0 c #c2c7d3",
"`1 c #a8b6c9",
"`2 c #bbd0e5",
"`3 c #e2ebf4",
"`4 c #ecf1f5",
"`5 c #eff3f5",
"`6 c #f0f4f9",
"`7 c #e2ecf5",
"`8 c #c8cfdd",
".` c #dcdee4",
".. c #c0cada",
".# c #dfe8f0",
".a c #f9fbfb",
".b c #f4f8f9",
".c c #dfe4ec",
".d c #d7d9de",
".e c #c0c6cf",
".f c #cad2d3",
".g c #b1b5a5",
".h c #bbbba7",
".i c #e7e8e4",
".j c #d1d3db",
".k c #cbccc6",
".l c #a7aca7",
".m c #b1b6b1",
".n c #c3c7bb",
".o c #b7bab2",
".p c #c7c8c8",
".q c #cfcfc6",
".r c #d0d19f",
".s c #cfd1ac",
".t c #bcbe9b",
".u c #949467",
".v c #ddddd7",
".w c #cfcfc3",
".x c #d4d5a3",
".y c #eceebf",
".z c #d2d4a2",
".A c #9a996c",
".B c #ccccc3",
".C c #d7d7d2",
".D c #afaf7a",
".E c #d3d5a3",
".F c #adaf81",
".G c #87875f",
".H c #d5d5cf",
".I c #dddddd",
".J c #c2c2c2",
".K c #8b8b8b",
".L c #7b7b7b",
".M c #b4b4b4",
".N c #cdcdcd",
".O c #000000",
".P c #000000",
".Q c #000000",
".R c #000000",
".S c #000000",
".T c #000000",
".U c #000000",
".V c #000000",
".W c #000000",
".X c #000000",
".Y c #000000",
".Z c #000000",
".0 c #000000",
".1 c #000000",
".2 c #000000",
".3 c #000000",
".4 c #000000",
".5 c #000000",
".6 c #000000",
".7 c #000000",
".8 c #000000",
"#` c #000000",
"#. c #000000",
"## c #000000",
"#a c #000000",
"#b c #000000",
"#c c #000000",
"#d c #000000",
"#e c #000000",
"#f c #000000",
"#g c #000000",
"#h c #000000",
"#i c #000000",
"#j c #000000",
"#k c #000000",
"#l c #000000",
"#m c #000000",
"#n c #000000",
"#o c #000000",
"#p c #000000",
"#q c #000000",
"#r c #000000",
"#s c #000000",
"#t c #000000",
"#u c #000000",
"#v c #000000",
"#w c #000000",
"#x c #000000",
"#y c #000000",
"#z c #000000",
"#A c #000000",
"#B c #000000",
"#C c #000000",
"#D c #000000",
"#E c #000000",
"#F c #000000",
"#G c #000000",
"#H c #000000",
"#I c #000000",
"#J c #000000",
"#K c #000000",
"#L c #000000",
"#M c #000000",
"#N c #000000",
"#O c #000000",
"#P c #000000",
"#Q c #000000",
"#R c #000000",
"#S c #000000",
"#T c #000000",
"#U c #000000",
"#V c #000000",
"#W c #000000",
"#X c #000000",
"#Y c #000000",
"#Z c #000000",
"#0 c #000000",
"#1 c #000000",
"#2 c #000000",
"#3 c #000000",
"#4 c #000000",
"#5 c #000000",
"#6 c #000000",
"#7 c #000000",
"#8 c #000000",
"a` c #000000",
"a. c #000000",
"a# c #000000",
"aa c #000000",
"ab c #000000",
"ac c #000000",
"ad c #000000",
"ae c #000000",
"af c #000000",
"ag c #000000",
"ah c #000000",
"ai c #000000",
"aj c #000000",
"ak c #000000",
"al c #000000",
"am c #000000",
"an c #000000",
"ao c #000000",
"ap c #000000",
"aq c #000000",
"ar c #000000",
"as c #000000",
"at c #000000",
"au c #000000",
"av c #000000",
"aw c #000000",
"ax c #000000",
"ay c #000000",
"az c #000000",
"aA c #000000",
"aB c #000000",
"aC c #000000",
"aD c #000000",
"aE c #000000",
"aF c #000000",
"aG c #000000",
"aH c #000000",
"aI c #000000",
"aJ c #000000",
"aK c #000000",
"aL c #000000",
"aM c #000000",
"aN c #000000",
"aO c #000000",
"aP c #000000",
"aQ c #000000",
"aR c #000000",
"aS c #000000",
"aT c #000000",
"aU c #000000",
"aV c #000000",
"aW c #000000",
"aX c #000000",
"aY c #000000",
"aZ c #000000",
"a0 c #000000",
"a1 c #000000",
"a2 c #000000",
"a3 c #000000",
"a4 c #000000",
"a5 c #000000",
"a6 c #000000",
"a7 c #000000",
"a8 c #000000",
/* pixels */
"```````````````.`.``````````````",
"```````````#`a`b`c`d`e``````````",
"`````````f`g`h`i`j`k`l`m````````",
"```````n`o`p`q`r`s`t`u`v`w``````",
"```````x`y`z`A`B`C`D`E`F`G``````",
"```````H`I`J`K`L`M`N`O`P`Q``````",
"```````R`S`T`U`V`W`X`Y`Z`0``````",
"`````````1`2`3`4`5`6`7`8````````",
"````````.`...#`6.a.b.c.d````````",
"``````````.e.f.g.h.i.j``````````",
"``````````.k.l.m.n.o.p``````````",
"``````````.q.r.s.t.u.v``````````",
"``````````.w.x.y.z.A.B``````````",
"``````````.C.D.E.F.G.H``````````",
"``````````.I.J.K.L.M.N``````````",
"````````````````````````````````"
};
