/* XPM */
static const char *kml_dset_48_xpm[] = {
/* width height num_colors chars_per_pixel */
"    48    48      256            2",
/* colors */
"`` c #040943",
"`. c #798691",
"`# c None",
"`a c #144264",
"`b c #c4c2c3",
"`c c #14224c",
"`d c #4c426c",
"`e c #8ca2b0",
"`f c #2c2264",
"`g c #54626c",
"`h c #e4e2de",
"`i c #142586",
"`j c #b4a4b4",
"`k c #0c134b",
"`l c #7482cc",
"`m c #4c62cc",
"`n c #344294",
"`o c #d4d2d2",
"`p c #243391",
"`q c #1c1e54",
"`r c #544ea4",
"`s c #34268c",
"`t c #f4f3f2",
"`u c #041e6c",
"`v c #1c2254",
"`w c #948f99",
"`x c #94a2e4",
"`y c #b4b2b0",
"`z c #6c6eac",
"`A c #545271",
"`B c #ccc5c3",
"`C c #041a44",
"`D c #34425c",
"`E c #8c92c4",
"`F c #142aac",
"`G c #6c7690",
"`H c #44529c",
"`I c #a4a2ac",
"`J c #1c325c",
"`K c #b4b9e1",
"`L c #d4dae4",
"`M c #1c33b0",
"`N c #848294",
"`O c #eceae2",
"`P c #5c74bc",
"`Q c #344e84",
"`R c #142a94",
"`S c #2c3996",
"`T c #c4bdbb",
"`U c #1c0264",
"`V c #2c3260",
"`W c #3c4a94",
"`X c #1c2570",
"`Y c #605290",
"`Z c #848cc8",
"`0 c #fcfcf2",
"`1 c #d4ceec",
"`2 c #a4b2c4",
"`3 c #cccacd",
"`4 c #34427c",
"`5 c #a4a4b8",
"`6 c #140e4c",
"`7 c #6c6d8f",
"`8 c #0c155e",
".` c #2c42bc",
".. c #141b4e",
".# c #040e45",
".a c #646eb4",
".b c #b4bacc",
".c c #2c3cb0",
".d c #7484b8",
".e c #bcc4e8",
".f c #5c4a8c",
".g c #7488e4",
".h c #e4d6d4",
".i c #9c9a9c",
".j c #4c5e8c",
".k c #44456b",
".l c #243ab6",
".m c #242e88",
".n c #473e81",
".o c #0c2264",
".p c #64668c",
".q c #e4e2f0",
".r c #d4d6ec",
".s c #243aa4",
".t c #fcf6ef",
".u c #202a50",
".v c #747ecc",
".w c #8499ec",
".x c #7c7c84",
".y c #acaaa2",
".z c #e4dcd5",
".A c #ecebed",
".B c #4c4e70",
".C c #14164c",
".D c #dcd3d2",
".E c #24359e",
".F c #4c5aa4",
".G c #141e71",
".H c #9492b4",
".I c #94aed4",
".J c #b4b2c4",
".K c #848ca0",
".L c #2c3a84",
".M c #d4ccc9",
".N c #141d60",
".O c #242284",
".P c #b4adab",
".Q c #0c1554",
".R c #f4f4fc",
".S c #9c969c",
".T c #aca5a1",
".U c #2435af",
".V c #5c72d4",
".W c #1c2b86",
".X c #2c3ea4",
".Y c #343a67",
".Z c #1c2a7a",
".0 c #344abc",
".1 c #c4cadc",
".2 c #0c0a44",
".3 c #1c4a84",
".4 c #5c4684",
".5 c #9ca2c4",
".6 c #2c2e5c",
".7 c #646274",
".8 c #ece6df",
"#` c #1c2684",
"#. c #847a8c",
"## c #042e44",
"#a c #6c7ec4",
"#b c #3c52c4",
"#c c #241e7c",
"#d c #3c4ec4",
"#e c #444e64",
"#f c #5c5d79",
"#g c #a4aedc",
"#h c #5c66c4",
"#i c #2c3191",
"#j c #244a6c",
"#k c #a4a6d4",
"#l c #1c2e74",
"#m c #546bd6",
"#n c #344eac",
"#o c #4c5a84",
"#p c #4c5ccb",
"#q c #444a84",
"#r c #8c9ac8",
"#s c #6456ac",
"#t c #7c8ec4",
"#u c #7c7ecc",
"#v c #2c1c64",
"#w c #0c1a64",
"#x c #8486b0",
"#y c #bcaec4",
"#z c #5c6a84",
"#A c #606ea0",
"#B c #2c468c",
"#C c #3c2e94",
"#D c #44567c",
"#E c #1c2ea4",
"#F c #647aac",
"#G c #acaabc",
"#H c #7983a4",
"#I c #4c427c",
"#J c #8ca6c4",
"#K c #5c6680",
"#L c #2c46ac",
"#M c #0c1d7f",
"#N c #344674",
"#O c #14227c",
"#P c #9caaec",
"#Q c #7c8ab8",
"#R c #7c8ee9",
"#S c #647adc",
"#T c #445acc",
"#U c #7476a4",
"#V c #b4beec",
"#W c #444a74",
"#X c #242a64",
"#Y c #6c7edd",
"#Z c #5c6ed4",
"#0 c #7c7c9a",
"#1 c #44527c",
"#2 c #34236c",
"#3 c #5464cc",
"#4 c #242658",
"#5 c #d4c6c4",
"#6 c #8c86a4",
"#7 c #ccbac4",
"#8 c #34365c",
"a` c #8c8ecc",
"a. c #3c468c",
"a# c #746e84",
"aa c #3445bc",
"ab c #bcbbc1",
"ac c #545c96",
"ad c #545e74",
"ae c #949ed4",
"af c #849ef4",
"ag c #1c367c",
"ah c #1c4254",
"ai c #dcdad9",
"aj c #0c0e47",
"ak c #343e94",
"al c #94a6b4",
"am c #bcb4b3",
"an c #1c26a4",
"ao c #f4eee4",
"ap c #24035c",
"aq c #141264",
"ar c #7c82bc",
"as c #c4c6e4",
"at c #142367",
"au c #ece6ec",
"av c #f4eef0",
"aw c #545eac",
"ax c #8c8aa4",
"ay c #6476dc",
"az c #747dbc",
"aA c #4456c7",
"aB c #acb0d8",
"aC c #342e8c",
"aD c #544680",
"aE c #3443a9",
"aF c #3c436f",
"aG c #04064c",
"aH c #142694",
"aI c #7c84cc",
"aJ c #0c1a6c",
"aK c #1c2364",
"aL c #54567c",
"aM c #ccc6cc",
"aN c #0c1b44",
"aO c #8c96d4",
"aP c #2c3aa4",
"aQ c #c4bec4",
"aR c #444e94",
"aS c #1c267c",
"aT c #848ed4",
"aU c #fcfdfc",
"aV c #a4a2c4",
"aW c #5c4e9c",
"aX c #7c8ae4",
"aY c #a49e9c",
"aZ c #444674",
"a0 c #242a94",
"a1 c #e4dee4",
"a2 c #dcd6dc",
"a3 c #bcb6c4",
"a4 c #d4ced4",
"a5 c #aca6ac",
"a6 c #1c2d94",
"a7 c #c4ccec",
"a8 c #0c3244",
/* pixels */
"`#`#`#`#`#`#`#`#`#`#`#`#`#`#`#`#`#`#`#`#`#`#`#`#`#`#`#`#`#`#`#`#`#`#`#`#`#`#`#`#`#`#`#`#`#`#`#`#",
"`#`#`#`#`#`#`#`#`#`#`#`#`#`#`#`#`#`#`#`#`#`#`#`#`#`#`#`#`#`#`#`#`#`#`#`#`#`#`#`#`#`#`#`#`#`#`#`#",
"`#`#`#`#`#`#`#`#`#`#`#`#`#`#`#`#`#`#`#`#`#`#`#`#`#`#`#`#`#`#`#`#`#`#`#`#`#`#`#`#`#`#`#`#`#`#`#`#",
"`#`#`#`#`#`#`#`#`#`#`#`#`#`#`#aea`.varaz.aaza``#`#`#`#`#`#`#`#`#`#`#`#`#`#`#`#`#`#`#`#`#`#`#`#`#",
"`#`#`#`#`#`#`#`#`#`#`#`##a#n#taBasaiau`t`0.ta2`2#U#a`#`#`#`#`#`#`#`#`#`#`#`#`#`#`#`#`#`#`#`#`#`#",
"`#`#`#`#`#`#`#`#`#`#`##E.caEaE.E.EaPaEawarab.8.t`O`3#U#J`#`#`#`#`#`#`#`#`#`#`#`#`#`#`#`#`#`#`#`#",
"`#`#`#`#`#`#`#`#`#`Pan.U.U#E`F`M.U.c#E#E`R.E.F`5`h.8.8#y#Q`#`#`#`#`#`#`#`#`#`#`#`#`#`#`#`#`#`#`#",
"`#`#`#`#`#`#`#`##L#u#gasas`KaO#p.c.laa.XaP.EaH#`.a.Mai.z.D#o`#`#`#`#`#`#`#`#`#`#`#`#`#`#`#`#`#`#",
"`#`#`#`#`#`#`#`PavaUaUaUaUaUaU`taB#p`M.c.caPaP`p#MaRaM.D`o.h#o`#`#`#`#`#`#`#`#`#`#`#`#`#`#`#`#`#",
"`#`#`#`#`#`##r.R.t.R.R`t.t`tav`t`0.q.v.l.`.s.E.E.E#MaRa4a4.Ma4#H`#`#`#`#`#`#`#`#`#`#`#`#`#`#`#`#",
"`#`#`#`#`#.I`1aUaUaUaUaU.R`tav.A.A`tao`l`M.`.c`S.E#iaJ#U.zaM.D`j`e`#`#`#`#`#`#`#`#`#`#`#`#`#`#`#",
"`#`#`#`#`#a`aU`t.r.e`1.q`t`0.A.A.A.8.Aav`l`M.c.E.E`p.W.Z#G.DaQ.D.p`#`#`#`#`#`#`#`#`#`#`#`#`#`#`#",
"`#`#`#`##tavas#h#d#b`m#S`x.r`t`t.A.A`h.8`O#u#E.s`S.m`p.G`W.M`3`Tam`G`#`#`#`#`#`#`#`#`#`#`#`#`#`#",
"`#`#`#`##raB.U`M#d`m#Z#S#Y#R#V.Aao`haua1`h`OaI#E.E.Ea6.m#w`7.Dab#7#z`r`#`#`#`#`#`#`#`#`#`#`#`#`#",
"`#`#`#`##Q.c`M#d#b`m.V#Y#R.waf#P`Lav`ha1aia1.8a`a6.W`p.Z`X`8#0`B.M`..n#B`H`#`#`#`#`#`#`#`#`#`#`#",
"`#`#`#.aaP.E.c.`#b#p#Z#S.g#Raf#RaX`K.8`haiaiai.8.5`p`i.m.Z.G`8#f`w#8aZaM#U.3#s`#`#`#`#`#`#`#`#`#",
"`#`#`#a6a0.s.c.`#d#p#may#YaX.gaX#S#maT`L.8ai.D`o`h.Ja.aJ.Z`X.N.#`k`k`k.8.8#y`Q#C`#`#`#`#`#`#`#`#",
"`#`#`##`.EaP.s.caa#b`m#may#S#Y#S#S#Z#T#p#k`h.za4.Mai`BacaJ.NaK...C..``a4ai.z.D#o`s`#`#`#`#`#`#`#",
"`#`#`##`.E.E.c.c.`#daA#p#m#Z#Z#Z#m`m#paa.l.aaQa1.D`Ba4.M#0`X.Q.C....ajaR`3.D`o.h#oaC`#`#`#`#`#`#",
"`#`#`##O`p.E.E.s.c.`#daA#T#p`m#p#paA.0aa.c#E.c#x`3ai`B`B.M`I#W.Q```k``#MaRa4a4a4.M`4aW`#`#`#`#`#",
"`#`#`##`.ma0.E.c.c.c.`aa#d#b#b#b#daa.`.c.laP#E`i`W.H.M.Mab`Tam`N.k.uaj`p#M#U.z`B.D`j`a`#`#`#`#`#",
"`#`#`#aS.W`p`p.E.saP.s.c.`.`aaaE.`.c.c.s.s.E`p`p`i#O#qaxam`T.Pam.T.S`V`p.m`X#Ga2aQ`o.paF`#`#`#`#",
"`#`#`#aw.Z.m.m#E.EaP.c.s.c.c.c.l.c.s.c.EaP.E`p.m.m.ZaJ.N.Y`7.i`I.y.T`V`p`p#M#q.M`B`Bam`J`#`#`#`#",
"`#`#`#`##l`i.W`S.WaH.EaPaP.s.saP.saP.E.E`p.ma6#l.Z`X`X.N`8aj`q.Y#f`g#c`p.m#laJ`7.Da3`T#K.n`#`#`#",
"`#`#`#`#aJa.#GabaV.a`paH#E`S.E.E.E`p.E.m.ma6.Z.ZaSaKataK....`k.#aj.#`pa6`p.m`XaJ#U`B.M`N`U`#`#`#",
"`#`#`#`##A#G.8.D.z.za3`z.LaH#`a6`S`p.m.ma6.Z.O`XaKat.N...C.Q..`q..ad.5`p#O.m`X.G.Q#f`w#8`k`#`#`#",
"`#`#`#`#`##6.zaM`3.Ma2aiaQ#x`H.m#O#O`i.Z.Z#X.Z`X`X`q.N...C..aj`k.2`I`h.J`n#M.ZaK.N`k.#`k`k`#`#`#",
"`#`#`#`#`#ala3.D`3`3`3`B`o.D.M#G#0ac.L`X.GaJ`8`8.Q.Q.#```k`k`V`d`.`o.M.z`Bac#w.G`v.N.....2`#`#`#",
"`#`#`#`#`#`#ax.D`3`B`B`B`B`B`B`3.M`B.P.S#0.paL#1.kaF.k`A#f.x.S#1`b.z.D`b.M`o`NaK`8.Q..`q```#`#`#",
"`#`#`#`#`#`#`##z.h`TaQ`b`Bab`T`B`T`T`TaQ`Tamam.P.T.T.y.y.y.T#ea0.X#x`3.zaM`BaM`I#W`k.2`k```#`#`#",
"`#`#`#`#`#`#`#`##K#5`T`T#0#XaF`7`w`I.y.P`y.P.y.y.TaY`w.x#f.u.m`S#EaH`W.H`B.M`T`Tam`N.k.uaj`#`#`#",
"`#`#`#`#`#`#`#`#`#.K`j.M#eaG.Q``.Q#4.Y.k.B`A`A.BaF#8#4`6`8#iaP.E`p`p`i#O#qaxam`T.Pam.T.S`V`#`#`#",
"`#`#`#`#`#`#`#`#`#`#`e#.a#`k.C....`kaj``.#``.#``ajaj``#l.saP.E.E.m.m.m.Z.G#w.Y`7.i`I.y.T.6`#`#`#",
"`#`#`#`#`#`#`#`#`#`#`#`#`G`C.Q.C.C....`q`q....`caNat`S.s.E.E`p.ma6#l.Z`X`XaK`8aj`q.Y#f`gap`#`#`#",
"`#`#`#`#`#`#`#`#`#`#`#`#`#`Yaq#X`Vaj.#.#.#.Q.G.O`S.s`p.E`p`p.ma6.Z.m`XaKat.N....`k.#aj.#`d`#`#`#",
"`#`#`#`#`#`#`#`#`#`#`#`#`#`#.o#G.8.D.z.za3`z`S#``i.m`p`S.ma6.Z.Z.O`Xatat.N.N.C.Q....`q`C`#`#`#`#",
"`#`#`#`#`#`#`#`#`#`#`#`#`#`##q#x.z`B`3.Ma2aiaQ#x`H.m#O#O`i.Z.Z.Z.Z`XaKaK.N...C..aj`k.2aF`#`#`#`#",
"`#`#`#`#`#`#`#`#`#`#`#`#`#`#`##j#7`oaM.M`3`3.Mai.M#G#Hac.L`X.G.N`8`8.Qaj.#.#aj`k`V`da8`#`#`#`#`#",
"`#`#`#`#`#`#`#`#`#`#`#`#`#`#`#.4#D.D`3`B`B`B`B`B`B`3#5`B.P.S#0.paL#1.kaF.k`A#f.x.S`D.4`#`#`#`#`#",
"`#`#`#`#`#`#`#`#`#`#`#`#`#`#`#`##2#z.h`TaQ`b`Bab`T`B`T`T`TaQ`Tamam.P.T.T.y.P.y.T#e`f`#`#`#`#`#`#",
"`#`#`#`#`#`#`#`#`#`#`#`#`#`#`#`#`##v#K#5`T`T#0#4aF`7`w`I.y.P`y.P.y.y.TaY`w.x`A.u#v`#`#`#`#`#`#`#",
"`#`#`#`#`#`#`#`#`#`#`#`#`#`#`#`#`#`##2#e`j.M#eaG.Q.#.Q#4.Y.k.B`A`A.B.k`V#4`6``#2`#`#`#`#`#`#`#`#",
"`#`#`#`#`#`#`#`#`#`#`#`#`#`#`#`#`#`#`#aDah#.a#`k......`kaj``.#``````aj`k``##`Y`#`#`#`#`#`#`#`#`#",
"`#`#`#`#`#`#`#`#`#`#`#`#`#`#`#`#`#`#`#`#`#aF`J`C.Q.C.C....`q`q....`caN`C.k`#`#`#`#`#`#`#`#`#`#`#",
"`#`#`#`#`#`#`#`#`#`#`#`#`#`#`#`#`#`#`#`#`#`#`#aDap.C`k``aj.#.#`k.Cap#I`#`#`#`#`#`#`#`#`#`#`#`#`#",
"`#`#`#`#`#`#`#`#`#`#`#`#`#`#`#`#`#`#`#`#`#`#`#`#`#`#`#`#`#`#`#`#`#`#`#`#`#`#`#`#`#`#`#`#`#`#`#`#",
"`#`#`#`#`#`#`#`#`#`#`#`#`#`#`#`#`#`#`#`#`#`#`#`#`#`#`#`#`#`#`#`#`#`#`#`#`#`#`#`#`#`#`#`#`#`#`#`#",
"`#`#`#`#`#`#`#`#`#`#`#`#`#`#`#`#`#`#`#`#`#`#`#`#`#`#`#`#`#`#`#`#`#`#`#`#`#`#`#`#`#`#`#`#`#`#`#`#"
};
