/* XPM */
static const char * layer16_xpm[] = {
"16 16 44 1",
" 	c None",
".	c #D26607",
"+	c #D36707",
"@	c #D36607",
"#	c #E0851C",
"$	c #F9C241",
"%	c #F9C743",
"&	c #E18F1F",
"*	c #D26807",
"=	c #D36507",
"-	c #D97410",
";	c #F5B239",
">	c #FCC645",
",	c #FCCA46",
"'	c #FCCE47",
")	c #FCD248",
"!	c #F7C840",
"~	c #DD8419",
"{	c #D26908",
"]	c #D36405",
"^	c #D46909",
"/	c #F0A02F",
"(	c #FCBE42",
"_	c #FCC244",
":	c #FCD649",
"<	c #FCDA4B",
"[	c #F3C63E",
"}	c #D87910",
"|	c #D16909",
"1	c #D26405",
"2	c #DA7411",
"3	c #F5AC37",
"4	c #F1C03A",
"5	c #D6740D",
"6	c #D36908",
"7	c #D26506",
"8	c #DF8017",
"9	c #F7B83D",
"0	c #F6C53F",
"a	c #DB8015",
"b	c #E38C1E",
"c	c #F9C442",
"d	c #F9C642",
"e	c #E08C1E",
"                ",
"                ",
"                ",
"                ",
"       .+       ",
"     @#$%&*     ",
"   =-;>,')!~{   ",
" ]^/(_>,'):<[}| ",
" 123(_>,'):<456 ",
"   789>,')0a{   ",
"     =bcde+     ",
"       ++       ",
"                ",
"                ",
"                ",
"                "};
