/* XPM */
static const char *left_xpm[] = {
/* width height num_colors chars_per_pixel */
"    16    16      256            2",
/* colors */
"`` c None",
"`. c #d9e3f1",
"`# c #cbd6ea",
"`a c #7795cc",
"`b c #dae1ec",
"`c c #bfcae1",
"`d c #8ca5d3",
"`e c #8da8d9",
"`f c #d7deeb",
"`g c #b2bdda",
"`h c #a5b4d6",
"`i c #acbddf",
"`j c #98aed9",
"`k c #d4d9e9",
"`l c #9babd0",
"`m c #a4b4d8",
"`n c #b5c3df",
"`o c #adbedf",
"`p c #9aafd9",
"`q c #d0d6e6",
"`r c #8298c8",
"`s c #90a9da",
"`t c #9cb3de",
"`u c #9fb5de",
"`v c #97b1de",
"`w c #88a6da",
"`x c #cdd3e6",
"`y c #899dce",
"`z c #779fdd",
"`A c #6c9bdb",
"`B c #6799da",
"`C c #6398d9",
"`D c #6998d8",
"`E c #c8d0e4",
"`F c #93a4d0",
"`G c #6695d9",
"`H c #5991d9",
"`I c #5d90d8",
"`J c #c7cfe3",
"`K c #a6b2d6",
"`L c #6491d6",
"`M c #548ed9",
"`N c #588dd8",
"`O c #c4cde3",
"`P c #bbc6df",
"`Q c #6f93d4",
"`R c #5a8ed9",
"`S c #c4cbe2",
"`T c #d2daeb",
"`U c #7691ce",
"`V c #c2c9e2",
"`W c #e7ebf3",
"`X c #e8eaf3",
"`Y c #000000",
"`Z c #000000",
"`0 c #000000",
"`1 c #000000",
"`2 c #000000",
"`3 c #000000",
"`4 c #000000",
"`5 c #000000",
"`6 c #000000",
"`7 c #000000",
"`8 c #000000",
".` c #000000",
".. c #000000",
".# c #000000",
".a c #000000",
".b c #000000",
".c c #000000",
".d c #000000",
".e c #000000",
".f c #000000",
".g c #000000",
".h c #000000",
".i c #000000",
".j c #000000",
".k c #000000",
".l c #000000",
".m c #000000",
".n c #000000",
".o c #000000",
".p c #000000",
".q c #000000",
".r c #000000",
".s c #000000",
".t c #000000",
".u c #000000",
".v c #000000",
".w c #000000",
".x c #000000",
".y c #000000",
".z c #000000",
".A c #000000",
".B c #000000",
".C c #000000",
".D c #000000",
".E c #000000",
".F c #000000",
".G c #000000",
".H c #000000",
".I c #000000",
".J c #000000",
".K c #000000",
".L c #000000",
".M c #000000",
".N c #000000",
".O c #000000",
".P c #000000",
".Q c #000000",
".R c #000000",
".S c #000000",
".T c #000000",
".U c #000000",
".V c #000000",
".W c #000000",
".X c #000000",
".Y c #000000",
".Z c #000000",
".0 c #000000",
".1 c #000000",
".2 c #000000",
".3 c #000000",
".4 c #000000",
".5 c #000000",
".6 c #000000",
".7 c #000000",
".8 c #000000",
"#` c #000000",
"#. c #000000",
"## c #000000",
"#a c #000000",
"#b c #000000",
"#c c #000000",
"#d c #000000",
"#e c #000000",
"#f c #000000",
"#g c #000000",
"#h c #000000",
"#i c #000000",
"#j c #000000",
"#k c #000000",
"#l c #000000",
"#m c #000000",
"#n c #000000",
"#o c #000000",
"#p c #000000",
"#q c #000000",
"#r c #000000",
"#s c #000000",
"#t c #000000",
"#u c #000000",
"#v c #000000",
"#w c #000000",
"#x c #000000",
"#y c #000000",
"#z c #000000",
"#A c #000000",
"#B c #000000",
"#C c #000000",
"#D c #000000",
"#E c #000000",
"#F c #000000",
"#G c #000000",
"#H c #000000",
"#I c #000000",
"#J c #000000",
"#K c #000000",
"#L c #000000",
"#M c #000000",
"#N c #000000",
"#O c #000000",
"#P c #000000",
"#Q c #000000",
"#R c #000000",
"#S c #000000",
"#T c #000000",
"#U c #000000",
"#V c #000000",
"#W c #000000",
"#X c #000000",
"#Y c #000000",
"#Z c #000000",
"#0 c #000000",
"#1 c #000000",
"#2 c #000000",
"#3 c #000000",
"#4 c #000000",
"#5 c #000000",
"#6 c #000000",
"#7 c #000000",
"#8 c #000000",
"a` c #000000",
"a. c #000000",
"a# c #000000",
"aa c #000000",
"ab c #000000",
"ac c #000000",
"ad c #000000",
"ae c #000000",
"af c #000000",
"ag c #000000",
"ah c #000000",
"ai c #000000",
"aj c #000000",
"ak c #000000",
"al c #000000",
"am c #000000",
"an c #000000",
"ao c #000000",
"ap c #000000",
"aq c #000000",
"ar c #000000",
"as c #000000",
"at c #000000",
"au c #000000",
"av c #000000",
"aw c #000000",
"ax c #000000",
"ay c #000000",
"az c #000000",
"aA c #000000",
"aB c #000000",
"aC c #000000",
"aD c #000000",
"aE c #000000",
"aF c #000000",
"aG c #000000",
"aH c #000000",
"aI c #000000",
"aJ c #000000",
"aK c #000000",
"aL c #000000",
"aM c #000000",
"aN c #000000",
"aO c #000000",
"aP c #000000",
"aQ c #000000",
"aR c #000000",
"aS c #000000",
"aT c #000000",
"aU c #000000",
"aV c #000000",
"aW c #000000",
"aX c #000000",
"aY c #000000",
"aZ c #000000",
"a0 c #000000",
"a1 c #000000",
"a2 c #000000",
"a3 c #000000",
"a4 c #000000",
"a5 c #000000",
"a6 c #000000",
"a7 c #000000",
"a8 c #000000",
/* pixels */
"````````````````````````````````",
"````````````````````````````````",
"`````````````````````.``````````",
"```````````````````#`a`b````````",
"`````````````````c`d`e`f````````",
"```````````````g`h`i`j`k````````",
"`````````````l`m`n`o`p`q````````",
"```````````r`s`t`u`v`w`x````````",
"```````````y`z`A`B`C`D`E````````",
"`````````````F`G`H`H`I`J````````",
"```````````````K`L`M`N`O````````",
"`````````````````P`Q`R`S````````",
"```````````````````T`U`V````````",
"`````````````````````W`X````````",
"````````````````````````````````",
"````````````````````````````````"
};
