/* XPM */
static const char *location16_xpm[] = {
/* width height num_colors chars_per_pixel */
"   112    16      256            2",
/* colors */
"`` c #1c120c",
"`. c #5c82c4",
"`# c #b4c2d4",
"`a c #ac821c",
"`b c #fce284",
"`c c None",
"`d c #244a94",
"`e c #5c524c",
"`f c #244aa4",
"`g c #74a2f4",
"`h c #3c66b4",
"`i c #f4c254",
"`j c #cce2fc",
"`k c #a49284",
"`l c #8c8674",
"`m c #547ea4",
"`n c #6492e4",
"`o c #d4d6c4",
"`p c #d4a224",
"`q c #f4d274",
"`r c #ece6b4",
"`s c #fcf2c4",
"`t c #6482cc",
"`u c #3c76e4",
"`v c #b4d2fc",
"`w c #b4aa94",
"`x c #8cb2fc",
"`y c #2c5aac",
"`z c #4c82e4",
"`A c #746e64",
"`B c #4c76d4",
"`C c #346ad4",
"`D c #f4eeac",
"`E c #94a2b4",
"`F c #e4b234",
"`G c #fcde8c",
"`H c #a49e8c",
"`I c #6c96e4",
"`J c #eceef4",
"`K c #bcc6d4",
"`L c #c48e0c",
"`M c #4472c4",
"`N c #ecc66c",
"`O c #dce6ec",
"`P c #f4da84",
"`Q c #f4fafc",
"`R c #3c362c",
"`S c #7c9ee4",
"`T c #ccd6dc",
"`U c #3c62b4",
"`V c #5c76b4",
"`W c #547ecc",
"`X c #f4f2b4",
"`Y c #a4c2fc",
"`Z c #fcea94",
"`0 c #4c6e94",
"`1 c #9c9284",
"`2 c #a4b2cc",
"`3 c #3462bc",
"`4 c #548aec",
"`5 c #5482d4",
"`6 c #2452a4",
"`7 c #7caafc",
"`8 c #e4ba4c",
".` c #ecf6fc",
".. c #e4eefc",
".# c #acbacc",
".a c #f4e294",
".b c #544e44",
".c c #645e54",
".d c #4c6ab4",
".e c #f4ca64",
".f c #649af4",
".g c #447ee4",
".h c #345aa4",
".i c #847a6c",
".j c #b4a294",
".k c #e4eaec",
".l c #fcda74",
".m c #c4d6fc",
".n c #accafc",
".o c #242214",
".p c #bc8a0c",
".q c #4466ac",
".r c #a49a84",
".s c #9c8e7c",
".t c #4c76c4",
".u c #5c92f4",
".v c #e4aa34",
".w c #648ad4",
".x c #94bafc",
".y c #5c86e4",
".z c #547acc",
".A c #fceea4",
".B c #8caeec",
".C c #aca68c",
".D c #6c9efc",
".E c #c49a24",
".F c #5c82d4",
".G c #3452a4",
".H c #b4bed4",
".I c #345ab4",
".J c #fcda84",
".K c #94721c",
".L c #84a2e4",
".M c #f4c264",
".N c #948674",
".O c #d4dae4",
".P c #fcd26c",
".Q c #fceaa4",
".R c #4476dc",
".S c #5482e4",
".T c #847264",
".U c #4472d4",
".V c #9caabc",
".W c #ac9e8c",
".X c #f4f2f4",
".Y c #4c6eb4",
".Z c #ecce74",
".0 c #443e44",
".1 c #4c7ee0",
".2 c #fceeb4",
".3 c #b4c2ec",
".4 c #2c52a4",
".5 c #f4ba4c",
".6 c #a4bae4",
".7 c #fce294",
".8 c #746254",
"#` c #ccdefc",
"#. c #344a64",
"## c #ac7e18",
"#a c #dcae34",
"#b c #545a6c",
"#c c #342a24",
"#d c #241e14",
"#e c #bc8e28",
"#f c #5c7eca",
"#g c #f4eab4",
"#h c #3c72d4",
"#i c #d49a24",
"#j c #cca63c",
"#k c #94969c",
"#l c #c4cedc",
"#m c #f4dea4",
"#n c #f4e2a4",
"#o c #ecb23c",
"#p c #5c8ae4",
"#q c #6c8ed4",
"#r c #749eec",
"#s c #f4ce6c",
"#t c #7ca6fc",
"#u c #749ae7",
"#v c #443a34",
"#w c #84aaf4",
"#x c #5476c4",
"#y c #4c423c",
"#z c #d4e2fc",
"#A c #bcd2fc",
"#B c #7c7264",
"#C c #dce6fc",
"#D c #fcfafc",
"#E c #acc6fc",
"#F c #6c6254",
"#G c #ccdafc",
"#H c #b4cefc",
"#I c #9cbafc",
"#J c #948a84",
"#K c #d4def4",
"#L c #447ae4",
"#M c #5c8ef4",
"#N c #241214",
"#O c #b48214",
"#P c #645254",
"#Q c #f4f6fc",
"#R c #6492f4",
"#S c #cc9a1c",
"#T c #94b2fc",
"#U c #ccd6ec",
"#V c #e4eafc",
"#W c #a49a94",
"#X c #ecaa34",
"#Y c #648ae4",
"#Z c #3c4a64",
"#0 c #3c72e4",
"#1 c #244e9c",
"#2 c #3c6abc",
"#3 c #f4c65c",
"#4 c #4c7ad8",
"#5 c #94a6bc",
"#6 c #a4a294",
"#7 c #ecf2fa",
"#8 c #c49214",
"a` c #acbed4",
"a. c #345eac",
"a# c #fcde7c",
"aa c #446ab0",
"ab c #fcf2a4",
"ac c #5c86dc",
"ad c #fcd674",
"ae c #447ad4",
"af c #5486e9",
"ag c #9caec4",
"ah c #4c72bb",
"ai c #fcf2b8",
"aj c #2c56a8",
"ak c #fce696",
"al c #ecb644",
"am c #84aefc",
"an c #547ac0",
"ao c #a49684",
"ap c #747264",
"aq c #f4f2ac",
"ar c #a4c6fc",
"as c #4c7294",
"at c #9c9684",
"au c #a4b6cc",
"av c #545244",
"aw c #646254",
"ax c #f4ce64",
"ay c #c4dafc",
"az c #345eb4",
"aA c #fcde84",
"aB c #948a74",
"aC c #d4dee4",
"aD c #aca28c",
"aE c #f4be4c",
"aF c #d4e6fc",
"aG c #bcd6fc",
"aH c #dceafc",
"aI c #fcfefc",
"aJ c #9cbefc",
"aK c #5c82cc",
"aL c #b4c2dc",
"aM c #fce28c",
"aN c #74a2fc",
"aO c #f4c25c",
"aP c #6492ec",
"aQ c #547ed4",
"aR c #fcea9c",
"aS c #3462c4",
"aT c #5482dc",
"aU c #e4ba54",
"aV c #acbad4",
"aW c #447eec",
"aX c #345aac",
"aY c #847a74",
"aZ c #e4eaf4",
"a0 c #fcda7c",
"a1 c #a49a8c",
"a2 c #5c92fc",
"a3 c #648adc",
"a4 c #547ad4",
"a5 c #fceeac",
"a6 c #5c82dc",
"a7 c #fcd274",
"a8 c #ecce7c",
/* pixels */
"`c`c`c`c`c`c`c`c`c`c`c`c`c`c`c`c`c`c`c`c`c`c`c`c`c`c`c`c`c`c`c`c`c`c`c`c`c`c`c`c`c`c`c`c`c`c`c`c`c`c`c`c`c`c`c`c`c`c`c`c`c`c`c`c`c`c`c`c`c`c`c`c`c`c`c`c`c`c`c`c`c`c`c`c`c`c`c`c`c`c`c`c`c`c`c`c`c`c`c`c`c`c`c`c`c`c`c`c`c`c`c`c",
"`c`c`caDaDaDaDaD`c`c`c`c`c`c`c`c`c`caDaDaDaDaD`c`c`c`c`c`c`c`c`c`c`c`c`c`caLaL.Ha`aVaV.#`2`c`c`c`caLaL.Ha`aVaV.#`2`c`c`c`c`c`c`c`c`c`c#Y.y.yaca6a6aQ.z.z#xahah`c`c#Y.y.yaca6a6aQ.z.z#xahah`c`c`c`c`c`c`c`c`c`c`c`c`c`c`c`c`c`c`c",
"`c`caD`r.2.2`D.a.W`c`c`c`c`c`c`c`caD`r.2.2`D.a.W`c`c`c`c`c`c`c`c`c`c`c`c`c.HaIaIaIaIaI#D.V`K`c`c`c.HaIaIaIaIaI#D.V`K`c`c`c`c`c`c`c`c#p`maIaI`Q.X....#C#z#G.m`m.Y#p`maIaI`Q.X....#C#z#G.m`m.Y`c`c`c`c`w`w`w`w`c`c`c`c`c`c`c`c`c`c",
"`c`caD.WaDaD.W.W`H.Waoa1ao`k`l`c`caD.WaDaD.W.W`H.Waoa1ao`k`l`c`c`c`c`c`c`caVaIaIaIaIaIaI`E#Z#.`c`caVaIaIaIaIaIaI`E#Z#.`c`c`c`c`c`c`c#YaIaI#D#Q#7..#C#z#`ay#A#H.d#paIaI#D#Q#7..#C#z#`ay#A#H.d`c`c`c`w`ra5`D.a.W`c`c`c`c`c`c`c`c`c",
"`c`c.W`s`s`s`s`X.Q.Qak`Gad.M#B`c`c.W`s`s`s`s`X.Q.Qak`Gad.M#B`c`c`c`c`c`c`c.#aI#r`IafaW#D.O.O#.`c`c.#aI#r`IafaW#D.O.O#.`c`c`c`c`c`c`c.yaI#D#Q#7..aHaF#`ayaG#A.n.Y#paI#D#Q#7..aHaF#`ayaG#A.n.d`c`c`c.j.j.W.W.W.j`H#Waoaoaoaoao`c`c",
"`c`ca1`X#g#g`D.AakaMa0a7ax#S#B`c`ca1`X#g#g`D.AakaMa0a7ax#S#B`c`c`c`c`c`c`c`2aIaIaI#D#D#Q#7.O#.`c`c`2aIaIaI#D#D#Q#7.O#.`c`c`c`c`c`c`c#p#D`Q#7..aH#C#`#G.m`v#H#Eaa#p#D`Q#7..aH#C#`#G.m`v#H#Eaa`c`c`c.j.2`s`s`s.2.2aRakaMa0.P.M.T`c",
"`c`ca1`o.R.2.QakaMa0`qax`i`L#F`c`ca1`s.2.2.QakaMa0`q`N`z#e#F`c`c`c`c`c`c.RagaI#uaPafaW#0`J`T#Z`c`c`2aI#uaPafaW#0`J`T#Z.1`c`c`c`c`c`c.y#K`u#7..#C#z#`aG#A#H#Earaa.y`Q#Q....#C#z#`aG#A#E.1aJaa`c`c`c`H`s.2a5`DabakaMa#a7#uaE#S#B`c",
"`c`c#k`z#ha5akaM`Padax#3.5.p`e`c`c`k`X`D.QaR`b`Padax#3`u.U#b`c`c`c`c`c.S#h.VaIaI#D#Q.X`J.k#l#.`c`c.VaIaI#D#Q.X`J.k#l#.`u.R`c`c`c`c`c#Y`z#h..#C#zayay#A#H.n#E`Y.q.y#Q#7..#C#z#`.m#A#H.n`u.R.q`c`c`cao.2aia5.QakaMa#.l#raJaj`L.8`c",
"`c`c.S`Y#I`3`yaj`6.P`i.5#o#O#y`c`c`1.2.QaR.7`P.g`u`u`u.1`4aS`c`c`c`c.S`Y.xaS.Iaj.4af.g#0.k`K#Z`c`c`EaI#uaP`4.g.1`u`u`u.1`4aS`c`c`c`c.S`Y#IaS`yaj.4#A#H#Har`Y`Yaaac#7..aH#z#`aGaW`u`u`u.1`4aS`c`c`cao`s`DabakaMaA.l#raJ#Ta3.4#P`c",
"`c.S`Y.x.B`S#qaK`d#3alal.v##`R`c`c.s#g.Q.7a#a8.R`Y`Yam#t.D.Saj`c`c.SaJ#I.B`S#q#f#1`J`J.k`O.H#Z`c`c.V#D`Q.X#7`J.R`Y`Y#w`7.D.Saj`c`c.SaJ#I.B`S`I#f`d`v#H#Ear`Y`0.qacasaH#z`j#G#H.R`Y`Yam#taN.Saj`c`c`ka5aiak.7aA.l#uaJ#T.D#R#h.G`c",
".RaJ#I.B`S#qaK.Y#1#S#e`a`a.K#d`c`c.N#m.Z`8#a#j`u#IaNa2#M.S.1aX#1.R`Y#I.B`S#qaKah`d`I`na3#faQ.w`c`c`I`IaPa3.FaQ#L.xaN#R#M.S#4.I#1.R`Y#I.B`S#q#f.Y#1ah.Y.daaaa.q`c`caTaQaQ.z.t`B#L.xaNa2#M.S#4`y.4`c`k#gak`ZaA.l#u#2`C`x.f.uaX#1`d",
"`c#4.B`S#q#fah`h`d#d```````````c`c`l.i`A.c.b.0`u`xa2afaQ.RaX#1`c`c#4.B`S#qaK.Y`h`d#D#D`Q#7#7.3aK`I#U#D#D#Q#Q...R`x#M`4.1`BaX#1`c`c#4.B`S#q`..Y`h`d`c`c`c`c`c`c`c`c`c`c`c`c`c`c.R`x#M`4.1.RaX#1`c`c.N`rak`badax.e`i.1`Y.ua3`6#c`c",
"`c`c#2#qaK`d#1`d`f`c`c`c`c`c`c`c`c`c`c`c`c`c`caQah`U`h.4az#1`c`c`c`c#2#qaK`d#1`d#1aI#Q.`..#C#z.da6#D#D#Q.`..aHaQah`U`U.4az#1`c`c`c`c#2#qaK`d#1#1`d`c`c`c`c`c`c`c`c`c`c`c`c`c`caQah`U`U.4a..4`c`c`c.N#n.Z`8`F`p`p.E.1#w#p#4`d#d`c",
"`c`c`caX`d`c`c`c`c`c`c`c`c`c`c`c`c`c`c`c`c`c`c`c`c`c`caX#1`c`c`c`c`c`caX`d`c`ca6#D#Q#7..#C#zay.qaT#D`Q#7..#C#Kay.q`c`caX#1`c`c`c`c`c`caX#1`c`c`c`c`c`c`c`c`c`c`c`c`c`c`c`c`c`c`c`c`c`caX#1`c`c`c`c`l.iap.cav`R#c#d`zac`W#2`d```c",
"`c`c`c`c`d`c`c`c`c`c`c`c`c`c`c`c`c`c`c`c`c`c`c`c`c`c`c.h`c`c`c`c`c`c`c`c`d`c`c.z.6#7#VaF#Kay.L`V.t.6#7aH#C#`ay.L`V`c`c.h`c`c`c`c`c`c`c`c`d`c`c`c`c`c`c`c`c`c`c`c`c`c`c`c`c`c`c`c`c`c`c.h`c`c`c`c`c`c`c`c`c`c`c`c`caQ.4`d`d`d`c`c",
"`c`c`c`c`c`c`c`c`c`c`c`c`c`c`c`c`c`c`c`c`c`c`c`c`c`c`c`c`c`c`c`c`c`c`c`c`c`c`c`c`taK#fanah.d`V`c`c`t`t#fan#x.d`V`c`c`c`c`c`c`c`c`c`c`c`c`c`c`c`c`c`c`c`c`c`c`c`c`c`c`c`c`c`c`c`c`c`c`c`c`c`c`c`c`c`c`c`c`c`c`c`c`c`c`c`c`c`c`c`c"
};
