/* XPM */
static const char *mainframe_xpm[] = {
/* width height num_colors chars_per_pixel */
"    16    16      256            2",
/* colors */
"`` c None",
"`. c #f2f1ef",
"`# c #c0aa83",
"`a c #dcc398",
"`b c #dcc297",
"`c c #dcc196",
"`d c #dbc195",
"`e c #dbc094",
"`f c #dabf92",
"`g c #dabf91",
"`h c #dabe90",
"`i c #b4a17b",
"`j c #f9f9f8",
"`k c #c1ac85",
"`l c #eecb94",
"`m c #e9b96e",
"`n c #ecc991",
"`o c #b29f78",
"`p c #e8e8e5",
"`q c #c7aa79",
"`r c #c5831a",
"`s c #b79e72",
"`t c #c3a672",
"`u c #b8821c",
"`v c #c29816",
"`w c #c39815",
"`x c #bd9316",
"`y c #bd821e",
"`z c #b39a6d",
"`A c #c1a36f",
"`B c #ba8920",
"`C c #ffdc00",
"`D c #fbd800",
"`E c #b78727",
"`F c #b1986a",
"`G c #bfa16b",
"`H c #e1bc02",
"`I c #c59e04",
"`J c #e8c402",
"`K c #b09666",
"`L c #bf9f67",
"`M c #b38505",
"`N c #aa6a03",
"`O c #b98e05",
"`P c #ad9463",
"`Q c #bd9d64",
"`R c #be8522",
"`S c #bd9023",
"`T c #be9122",
"`U c #a87917",
"`V c #9f6f11",
"`W c #ac7e1a",
"`X c #b98d23",
"`Y c #c48725",
"`Z c #ab9160",
"`0 c #bc9a61",
"`1 c #b17b1c",
"`2 c #868552",
"`3 c #858553",
"`4 c #89834c",
"`5 c #bc7d17",
"`6 c #aa8f5d",
"`7 c #ba985d",
"`8 c #8b844f",
".` c #00c0ff",
".. c #04bcf6",
".# c #a08440",
".a c #a88d59",
".b c #b89559",
".c c #8a8450",
".d c #01bffd",
".e c #04bdf7",
".f c #00bffe",
".g c #04bcf7",
".h c #9e8440",
".i c #a78b56",
".j c #b79355",
".k c #587b5d",
".l c #83651d",
".m c #4b8474",
".n c #a58852",
".o c #e1e1de",
".p c #b59051",
".q c #a1843f",
".r c #599081",
".s c #589182",
".t c #776f38",
".u c #8d691a",
".v c #717444",
".w c #5e8b77",
".x c #b48837",
".y c #a0834d",
".z c #bcbcb9",
".A c #b39053",
".B c #c78a29",
".C c #ca8d2d",
".D c #c98c2c",
".E c #c98c2b",
".F c #c98b2a",
".G c #c98b29",
".H c #c88a28",
".I c #c78926",
".J c #c58520",
".K c #9b7e47",
".L c #cdcdcd",
".M c #f7f7f7",
".N c #c8c8c7",
".O c #8d8060",
".P c #938565",
".Q c #928464",
".R c #918364",
".S c #918363",
".T c #908362",
".U c #8f8261",
".V c #8f8160",
".W c #8f8161",
".X c #8f805f",
".Y c #887c60",
".Z c #cfcfcf",
".0 c #fafafa",
".1 c #ebebeb",
".2 c #e6e6e6",
".3 c #000000",
".4 c #000000",
".5 c #000000",
".6 c #000000",
".7 c #000000",
".8 c #000000",
"#` c #000000",
"#. c #000000",
"## c #000000",
"#a c #000000",
"#b c #000000",
"#c c #000000",
"#d c #000000",
"#e c #000000",
"#f c #000000",
"#g c #000000",
"#h c #000000",
"#i c #000000",
"#j c #000000",
"#k c #000000",
"#l c #000000",
"#m c #000000",
"#n c #000000",
"#o c #000000",
"#p c #000000",
"#q c #000000",
"#r c #000000",
"#s c #000000",
"#t c #000000",
"#u c #000000",
"#v c #000000",
"#w c #000000",
"#x c #000000",
"#y c #000000",
"#z c #000000",
"#A c #000000",
"#B c #000000",
"#C c #000000",
"#D c #000000",
"#E c #000000",
"#F c #000000",
"#G c #000000",
"#H c #000000",
"#I c #000000",
"#J c #000000",
"#K c #000000",
"#L c #000000",
"#M c #000000",
"#N c #000000",
"#O c #000000",
"#P c #000000",
"#Q c #000000",
"#R c #000000",
"#S c #000000",
"#T c #000000",
"#U c #000000",
"#V c #000000",
"#W c #000000",
"#X c #000000",
"#Y c #000000",
"#Z c #000000",
"#0 c #000000",
"#1 c #000000",
"#2 c #000000",
"#3 c #000000",
"#4 c #000000",
"#5 c #000000",
"#6 c #000000",
"#7 c #000000",
"#8 c #000000",
"a` c #000000",
"a. c #000000",
"a# c #000000",
"aa c #000000",
"ab c #000000",
"ac c #000000",
"ad c #000000",
"ae c #000000",
"af c #000000",
"ag c #000000",
"ah c #000000",
"ai c #000000",
"aj c #000000",
"ak c #000000",
"al c #000000",
"am c #000000",
"an c #000000",
"ao c #000000",
"ap c #000000",
"aq c #000000",
"ar c #000000",
"as c #000000",
"at c #000000",
"au c #000000",
"av c #000000",
"aw c #000000",
"ax c #000000",
"ay c #000000",
"az c #000000",
"aA c #000000",
"aB c #000000",
"aC c #000000",
"aD c #000000",
"aE c #000000",
"aF c #000000",
"aG c #000000",
"aH c #000000",
"aI c #000000",
"aJ c #000000",
"aK c #000000",
"aL c #000000",
"aM c #000000",
"aN c #000000",
"aO c #000000",
"aP c #000000",
"aQ c #000000",
"aR c #000000",
"aS c #000000",
"aT c #000000",
"aU c #000000",
"aV c #000000",
"aW c #000000",
"aX c #000000",
"aY c #000000",
"aZ c #000000",
"a0 c #000000",
"a1 c #000000",
"a2 c #000000",
"a3 c #000000",
"a4 c #000000",
"a5 c #000000",
"a6 c #000000",
"a7 c #000000",
"a8 c #000000",
/* pixels */
"`````.`#`a`b`c`d`e`f`g`h`i``````",
"```j`k`l`m`m`m`m`m`m`m`m`n`o````",
"```p`q`r`r`r`r`r`r`r`r`r`r`s````",
"```p`t`u`v`w`w`w`w`w`w`x`y`z````",
"```p`A`B`C`C`C`C`C`C`C`D`E`F````",
"```p`G`B`C`C`H`I`I`J`C`D`E`K````",
"```p`L`B`C`C`M`N`N`O`C`D`E`P````",
"```p`Q`R`S`T`U`V`V`W`T`X`Y`Z````",
"```p`0`1`2`3`3`3`3`3`3`4`5`6````",
"```p`7`8.`.`.`.`.`.`.`...#.a````",
"```p.b.c.`.`.d.e.e.f.`.g.h.i````",
"```p.j.c.`.`.k.l.l.m.`.g.h.n````",
"``.o.p.q.r.s.t.u.u.v.s.w.x.y````",
"``.z.A.B.C.C.D.E.F.G.H.I.J.K.L``",
".M.N.O.P.Q.R.S.S.T.U.V.W.X.Y.Z.M",
"``.0.1.2.2.2.2.2.2.2.2.2.2.1.0``"
};
