/* XPM */
static char *mainframemap_16_xpm[] = {
/* width height num_colors chars_per_pixel */
"    16    16      256            2",
/* colors */
"`` c None",
"`. c #dfdfe9",
"`# c #adb0c2",
"`a c #b6bbcd",
"`b c #bcc2cf",
"`c c #abb2c6",
"`d c #a4adc7",
"`e c #a2a7c2",
"`f c #dedfe8",
"`g c #fdfdfe",
"`h c #b3b6c7",
"`i c #cdd2dc",
"`j c #c4d1dd",
"`k c #d8dbde",
"`l c #fbfbfb",
"`m c #aab3bb",
"`n c #afcae5",
"`o c #a4bfde",
"`p c #a9b4c8",
"`q c #a5a9c0",
"`r c #afb3c3",
"`s c #ced3d9",
"`t c #bec9d4",
"`u c #c2ccd6",
"`v c #c7ccd2",
"`w c #bbc7d5",
"`x c #c1d0df",
"`y c #bcd2ea",
"`z c #c6ccd4",
"`A c #c5cad0",
"`B c #d0d3d6",
"`C c #8f95a9",
"`D c #b3b6c9",
"`E c #f5f5f6",
"`F c #ccd2d8",
"`G c #f7f7f7",
"`H c #bfc7ce",
"`I c #e3f1ff",
"`J c #dbebfb",
"`K c #cee1f4",
"`L c #b7c1cc",
"`M c #c2c8d0",
"`N c #e1e3e5",
"`O c #efefef",
"`P c #d7d7d9",
"`Q c #989eb1",
"`R c #dadce2",
"`S c #fefefe",
"`T c #bac0c5",
"`U c #d2deeb",
"`V c #cdcfd1",
"`W c #d1d2d3",
"`X c #cfd2d4",
"`Y c #d0d1d1",
"`Z c #bfc1c2",
"`0 c #f1f2f2",
"`1 c #f4f4f4",
"`2 c #dedede",
"`3 c #adb1b6",
"`4 c #dddee7",
"`5 c #a7aec6",
"`6 c #f8f8f9",
"`7 c #fdfdfd",
"`8 c #afb8c1",
".` c #d2deec",
".. c #d2d5d9",
".# c #8ca7c6",
".a c #97b4d6",
".b c #9eb9da",
".c c #8aa5c5",
".d c #c1ccd7",
".e c #b2b7bc",
".f c #a0aebc",
".g c #e0e0e0",
".h c #cfd0d0",
".i c #8b90a9",
".j c #b9bdcb",
".k c #bac0c7",
".l c #a6b3c1",
".m c #c5def8",
".n c #cecfd0",
".o c #88a5c8",
".p c #d7e5f3",
".q c #e8f0f8",
".r c #d9e4f1",
".s c #cedeee",
".t c #8eadd1",
".u c #cfd5dc",
".v c #c9cacc",
".w c #cecfd1",
".x c #9ea4ab",
".y c #868c9a",
".z c #c2c6d0",
".A c #b2bdc9",
".B c #a4c3e3",
".C c #b0c8e1",
".D c #bac4d1",
".E c #9fbdde",
".F c #dae7f4",
".G c #dde8f4",
".H c #dae4ee",
".I c #cbdced",
".J c #a5c1e0",
".K c #9aafca",
".L c #c4c4c4",
".M c #a1a9b2",
".N c #afb0b3",
".O c #7884a4",
".P c #9ba6c2",
".Q c #96aabf",
".R c #a6b5c5",
".S c #b0b6bd",
".T c #a3b5cb",
".U c #a7c4e3",
".V c #c9dbee",
".W c #cbdcef",
".X c #ced9e6",
".Y c #c6d8eb",
".Z c #b1cae4",
".0 c #93abc9",
".1 c #c3c3c3",
".2 c #bcbec1",
".3 c #5a6e87",
".4 c #7985a5",
".5 c #9ca6c2",
".6 c #84a9d2",
".7 c #9fb4cc",
".8 c #ececec",
"#` c #c2cad5",
"#. c #83a5ca",
"## c #a1c0e0",
"#a c #9fbedf",
"#b c #8aaed4",
"#c c #7f9dbe",
"#d c #85a4c5",
"#e c #97adc7",
"#f c #bbbbbb",
"#g c #bbbbbc",
"#h c #4a678a",
"#i c #878daa",
"#j c #9aa2bc",
"#k c #88aad1",
"#l c #a9b6c4",
"#m c #cecece",
"#n c #91aac8",
"#o c #8facc9",
"#p c #7aa3d0",
"#q c #759fcd",
"#r c #6e99c9",
"#s c #6890be",
"#t c #d4d8db",
"#u c #b3b3b3",
"#v c #7a838e",
"#w c #54729a",
"#x c #8f93af",
"#y c #8ca1c2",
"#z c #6f93ba",
"#A c #dcdddf",
"#B c #dcdcdc",
"#C c #d8d9da",
"#D c #94aac5",
"#E c #7096c1",
"#F c #6992c0",
"#G c #7999bf",
"#H c #d2d8df",
"#I c #979797",
"#J c #69727d",
"#K c #6d799c",
"#L c #dddde4",
"#M c #a2a8c1",
"#N c #7898c3",
"#O c #7d92aa",
"#P c #dddddd",
"#Q c #bfbfc2",
"#R c #babdbf",
"#S c #d4d4d4",
"#T c #d9d9d9",
"#U c #c8c9ca",
"#V c #6f8193",
"#W c #b1b1b1",
"#X c #a0a0a0",
"#Y c #949596",
"#Z c #9696ab",
"#0 c #848fb1",
"#1 c #8197b2",
"#2 c #c6c6c6",
"#3 c #738394",
"#4 c #477ab2",
"#5 c #4577af",
"#6 c #4573a9",
"#7 c #3e6da3",
"#8 c #3d6699",
"a` c #797d81",
"a. c #a7a7a7",
"a# c #a8a8a8",
"aa c #969696",
"ab c #d2d2d2",
"ac c #979cb1",
"ad c #8c929d",
"ae c #587fac",
"af c #4571a4",
"ag c #3d699d",
"ah c #3d6597",
"ai c #426694",
"aj c #526d95",
"ak c #6e799a",
"al c #8d909d",
"am c #a5a5a5",
"an c #c1c1c1",
"ao c #bababa",
"ap c #dddee5",
"aq c #9397b2",
"ar c #868eac",
"as c #737fa1",
"at c #727d9e",
"au c #838ba7",
"av c #9498b1",
"aw c #b4b4b4",
"ax c #000000",
"ay c #000000",
"az c #000000",
"aA c #000000",
"aB c #000000",
"aC c #000000",
"aD c #000000",
"aE c #000000",
"aF c #000000",
"aG c #000000",
"aH c #000000",
"aI c #000000",
"aJ c #000000",
"aK c #000000",
"aL c #000000",
"aM c #000000",
"aN c #000000",
"aO c #000000",
"aP c #000000",
"aQ c #000000",
"aR c #000000",
"aS c #000000",
"aT c #000000",
"aU c #000000",
"aV c #000000",
"aW c #000000",
"aX c #000000",
"aY c #000000",
"aZ c #000000",
"a0 c #000000",
"a1 c #000000",
"a2 c #000000",
"a3 c #000000",
"a4 c #000000",
"a5 c #000000",
"a6 c #000000",
"a7 c #000000",
"a8 c #000000",
/* pixels */
"`````````.`#`a`b`c`d`e`f````````",
"`````g`h`i`j`k`l`m`n`o`p`q`g````",
"```g`r`s`t`u`v`w`x`y`z`A`B`C`g``",
"```D`E`F`G`H`I`J`K`L`M`N`O`P`Q``",
"`.`R`S`S`T`U`V`W`X`Y`Z`0`1`2`3`4",
"`5`6`7`8.`...#.a.b.c.d.e.f.g.h.i",
".j.k.l.m.n.o.p.q.r.s.t.u.v.w.x.y",
".z.A.B.C.D.E.F.G.H.I.J.K.L.M.N.O",
".P.Q.R.S.T.U.V.W.X.Y.Z.0.1.2.3.4",
".5.6.7.8#`#.###a#b#c#d#e#f#g#h#i",
"#j#k#l`7#m#n#o#p#q#r#s#t#u#v#w#x",
"`f#y#z#A#B#C#D#E#F#G#H#m#I#J#K#L",
"``#M#N#O#P#Q#R#S#T#U#V#W#X#Y#Z``",
"```g#0#1#2#3#4#5#6#7#8a`a.a#aaab",
"`````gacadaeafagahaiajakalamanao",
"````````apaqarasatauav#L``.g#uaw"
};
