/* XPM */
static const char *open_xpm[] = {
/* width height num_colors chars_per_pixel */
"    16    16      256            2",
/* colors */
"`` c None",
"`. c #6e8bb4",
"`# c #c6d2e2",
"`a c #87a0c3",
"`b c #6f90ba",
"`c c #a1b4cf",
"`d c #b7b7b7",
"`e c #bbbbbb",
"`f c #b9b9b9",
"`g c #b8b8b8",
"`h c #b6b6b6",
"`i c #88a1c4",
"`j c #416faa",
"`k c #6185b6",
"`l c #869fc1",
"`m c #b0b0b0",
"`n c #a1a1a1",
"`o c #9b9b9b",
"`p c #989898",
"`q c #949494",
"`r c #929292",
"`s c #9a9a9a",
"`t c #e0e2e5",
"`u c #8aa2c4",
"`v c #819bc1",
"`w c #7796bf",
"`x c #4c77ae",
"`y c #3465a4",
"`z c #527bb1",
"`A c #7a95bc",
"`B c #ebeff4",
"`C c #acacac",
"`D c #8e8e8e",
"`E c #8a8a8a",
"`F c #878787",
"`G c #787f89",
"`H c #6a86ac",
"`I c #7293bf",
"`J c #6288b9",
"`K c #5b83b6",
"`L c #537db2",
"`M c #3868a6",
"`N c #577fb4",
"`O c #708cb5",
"`P c #a7a7a7",
"`Q c #8f8f8f",
"`R c #888888",
"`S c #838383",
"`T c #7f7f7f",
"`U c #7c7c7c",
"`V c #5b769c",
"`W c #7e9dc5",
"`X c #7193bf",
"`Y c #698ebc",
"`Z c #5a82b5",
"`0 c #4370ab",
"`1 c #6f8db7",
"`2 c #a2a2a2",
"`3 c #898886",
"`4 c #baa06b",
"`5 c #c7b27e",
"`6 c #c6b17d",
"`7 c #a59e7f",
"`8 c #7e9abe",
".` c #7f9ec6",
".. c #7f9dc5",
".# c #7e96b2",
".a c #748caa",
".b c #698dbc",
".c c #507ab0",
".d c #627fa2",
".e c #c5b890",
".f c #ceb47f",
".g c #a0a0a0",
".h c #87827c",
".i c #d7c483",
".j c #e6d97d",
".k c #9ca483",
".l c #8faacc",
".m c #89a5c9",
".n c #798f97",
".o c #e3d77d",
".p c #88988d",
".q c #7295c0",
".r c #6d88a6",
".s c #cec87f",
".t c #e6d87b",
".u c #d8c288",
".v c #9d9d9d",
".w c #857c6f",
".x c #e0cf88",
".y c #97a284",
".z c #8ca7ca",
".A c #839cb7",
".B c #ddd37d",
".C c #8c9989",
".D c #7590aa",
".E c #cac67f",
".F c #e5d673",
".G c #d9c48e",
".H c #999999",
".I c #897b64",
".J c #e5d68c",
".K c #ded37d",
".L c #7c96b1",
".M c #879fb1",
".N c #b4b580",
".O c #c8c47f",
".P c #e6d97c",
".Q c #e4d572",
".R c #dac593",
".S c #969696",
".T c #927f5d",
".U c #e9dc8f",
".V c #949f89",
".W c #a1b0b2",
".X c #acb082",
".Y c #e5d778",
".Z c #e4d672",
".0 c #e4d570",
".1 c #e5d777",
".2 c #d9c494",
".3 c #98835c",
".4 c #e9dd8a",
".5 c #e6d87a",
".6 c #a4aa81",
".7 c #819394",
".8 c #b4b47c",
"#` c #e6d879",
"#. c #d8c294",
"## c #919191",
"#a c #9f895c",
"#b c #e7da7f",
"#c c #d5cb72",
"#d c #bfbb78",
"#e c #c8c173",
"#f c #d8c396",
"#g c #a28c59",
"#h c #e1cf67",
"#i c #e0cd63",
"#j c #e0cd62",
"#k c #e0cd61",
"#l c #e0cc61",
"#m c #dfcc60",
"#n c #dfcb5f",
"#o c #dfcb5e",
"#p c #dfca5e",
"#q c #deca5d",
"#r c #e0cc64",
"#s c #d7c298",
"#t c #a58b4e",
"#u c #d9c04c",
"#v c #d9bf4a",
"#w c #d8bf49",
"#x c #d8be49",
"#y c #d8be48",
"#z c #d8be47",
"#A c #d8bd47",
"#B c #d8bd46",
"#C c #d7bd46",
"#D c #d7bc45",
"#E c #d6bb45",
"#F c #dac5a0",
"#G c #9f978c",
"#H c #ab853e",
"#I c #b69641",
"#J c #b59540",
"#K c #b59440",
"#L c #b4933f",
"#M c #b4933e",
"#N c #b3923d",
"#O c #b3933e",
"#P c #b4943f",
"#Q c #bb9a45",
"#R c #c6a664",
"#S c #000000",
"#T c #000000",
"#U c #000000",
"#V c #000000",
"#W c #000000",
"#X c #000000",
"#Y c #000000",
"#Z c #000000",
"#0 c #000000",
"#1 c #000000",
"#2 c #000000",
"#3 c #000000",
"#4 c #000000",
"#5 c #000000",
"#6 c #000000",
"#7 c #000000",
"#8 c #000000",
"a` c #000000",
"a. c #000000",
"a# c #000000",
"aa c #000000",
"ab c #000000",
"ac c #000000",
"ad c #000000",
"ae c #000000",
"af c #000000",
"ag c #000000",
"ah c #000000",
"ai c #000000",
"aj c #000000",
"ak c #000000",
"al c #000000",
"am c #000000",
"an c #000000",
"ao c #000000",
"ap c #000000",
"aq c #000000",
"ar c #000000",
"as c #000000",
"at c #000000",
"au c #000000",
"av c #000000",
"aw c #000000",
"ax c #000000",
"ay c #000000",
"az c #000000",
"aA c #000000",
"aB c #000000",
"aC c #000000",
"aD c #000000",
"aE c #000000",
"aF c #000000",
"aG c #000000",
"aH c #000000",
"aI c #000000",
"aJ c #000000",
"aK c #000000",
"aL c #000000",
"aM c #000000",
"aN c #000000",
"aO c #000000",
"aP c #000000",
"aQ c #000000",
"aR c #000000",
"aS c #000000",
"aT c #000000",
"aU c #000000",
"aV c #000000",
"aW c #000000",
"aX c #000000",
"aY c #000000",
"aZ c #000000",
"a0 c #000000",
"a1 c #000000",
"a2 c #000000",
"a3 c #000000",
"a4 c #000000",
"a5 c #000000",
"a6 c #000000",
"a7 c #000000",
"a8 c #000000",
/* pixels */
"`````````````````````.`#````````",
"`````````````````````a`b`c``````",
"`d`e`f`g`d`h`h```````i`j`k`l````",
"`m`n`o`p`q`r`s`t`u`v`w`x`y`z`A`B",
"`C`p`r`D`E`F`G`H`I`J`K`L`M`y`N`O",
"`P`Q`R`S`T`U`V`W`X`Y`J`Z`j`0`1`B",
"`2`3`4`5`6`7`8.`...#.a.b.c.d.e.f",
".g.h.i.j.j.k.l.m.n.o.p.q.r.s.t.u",
".v.w.x.j.j.y.z.A.B.j.C.D.E.j.F.G",
".H.I.J.j.j.K.L.M.j.j.N.O.P.F.Q.R",
".S.T.U.j.j.j.V.W.X.j.t.Y.Z.0.1.2",
"`q.3.4.j.P.5.Y.6.7.8.0.0.0.0#`#.",
"###a#b.F.0.0.0.0#c#d#e.0.0.0#`#f",
"###g#h#i#j#k#l#m#m#n#n#o#p#q#r#s",
"`r#t#u#v#v#w#x#y#y#z#A#B#C#D#E#F",
"#G#H#I#J#K#L#M#N#N#N#O#L#P#Q#R``"
};
