/* XPM */
static const char *open_16_xpm[] = {
/* width height num_colors chars_per_pixel */
"    16    16      256            2",
/* colors */
"`` c None",
"`. c #8090a0",
"`# c #8088a0",
"`a c #8098b0",
"`b c #b7bec5",
"`c c #607890",
"`d c #b3bac8",
"`e c #c7cdd2",
"`f c #dad6cd",
"`g c #b0a890",
"`h c #cac5b6",
"`i c #c6c7d2",
"`j c #506890",
"`k c #e0d0a0",
"`l c #f0f0b0",
"`m c #fff0a0",
"`n c #ffe8a0",
"`o c #b0a090",
"`p c #cec9b3",
"`q c #f0f0a0",
"`r c #ffd870",
"`s c #a0a090",
"`t c #a09880",
"`u c #a09080",
"`v c #909080",
"`w c #908870",
"`x c #f0e8a0",
"`y c #ffd880",
"`z c #ffd860",
"`A c #c0b090",
"`B c #b0a080",
"`C c #908880",
"`D c #f0e090",
"`E c #e0c880",
"`F c #ffe080",
"`G c #d0a850",
"`H c #9d9287",
"`I c #ffe090",
"`J c #c0b890",
"`K c #ffd060",
"`L c #ffd050",
"`M c #ffc850",
"`N c #f0b840",
"`O c #e0a030",
"`P c #776749",
"`Q c #f0d880",
"`R c #ffd070",
"`S c #f0c040",
"`T c #f0b030",
"`U c #806820",
"`V c #9a8b6a",
"`W c #f0d080",
"`X c #d0c090",
"`Y c #ffc050",
"`Z c #f0a830",
"`0 c #d08810",
"`1 c #604820",
"`2 c #d0c080",
"`3 c #e0a020",
"`4 c #d09010",
"`5 c #676159",
"`6 c #d0b070",
"`7 c #d09000",
"`8 c #c09000",
".` c #c08810",
".. c #b08010",
".# c #a07820",
".a c #907020",
".b c #908060",
".c c #807860",
".d c #807050",
".e c #706050",
".f c #605840",
".g c #504840",
".h c #403830",
".i c #303020",
".j c #302020",
".k c #201810",
".l c #101010",
".m c #201010",
".n c #000000",
".o c #000000",
".p c #000000",
".q c #000000",
".r c #000000",
".s c #000000",
".t c #000000",
".u c #000000",
".v c #000000",
".w c #000000",
".x c #000000",
".y c #000000",
".z c #000000",
".A c #000000",
".B c #000000",
".C c #000000",
".D c #000000",
".E c #000000",
".F c #000000",
".G c #000000",
".H c #000000",
".I c #000000",
".J c #000000",
".K c #000000",
".L c #000000",
".M c #000000",
".N c #000000",
".O c #000000",
".P c #000000",
".Q c #000000",
".R c #000000",
".S c #000000",
".T c #000000",
".U c #000000",
".V c #000000",
".W c #000000",
".X c #000000",
".Y c #000000",
".Z c #000000",
".0 c #000000",
".1 c #000000",
".2 c #000000",
".3 c #000000",
".4 c #000000",
".5 c #000000",
".6 c #000000",
".7 c #000000",
".8 c #000000",
"#` c #000000",
"#. c #000000",
"## c #000000",
"#a c #000000",
"#b c #000000",
"#c c #000000",
"#d c #000000",
"#e c #000000",
"#f c #000000",
"#g c #000000",
"#h c #000000",
"#i c #000000",
"#j c #000000",
"#k c #000000",
"#l c #000000",
"#m c #000000",
"#n c #000000",
"#o c #000000",
"#p c #000000",
"#q c #000000",
"#r c #000000",
"#s c #000000",
"#t c #000000",
"#u c #000000",
"#v c #000000",
"#w c #000000",
"#x c #000000",
"#y c #000000",
"#z c #000000",
"#A c #000000",
"#B c #000000",
"#C c #000000",
"#D c #000000",
"#E c #000000",
"#F c #000000",
"#G c #000000",
"#H c #000000",
"#I c #000000",
"#J c #000000",
"#K c #000000",
"#L c #000000",
"#M c #000000",
"#N c #000000",
"#O c #000000",
"#P c #000000",
"#Q c #000000",
"#R c #000000",
"#S c #000000",
"#T c #000000",
"#U c #000000",
"#V c #000000",
"#W c #000000",
"#X c #000000",
"#Y c #000000",
"#Z c #000000",
"#0 c #000000",
"#1 c #000000",
"#2 c #000000",
"#3 c #000000",
"#4 c #000000",
"#5 c #000000",
"#6 c #000000",
"#7 c #000000",
"#8 c #000000",
"a` c #000000",
"a. c #000000",
"a# c #000000",
"aa c #000000",
"ab c #000000",
"ac c #000000",
"ad c #000000",
"ae c #000000",
"af c #000000",
"ag c #000000",
"ah c #000000",
"ai c #000000",
"aj c #000000",
"ak c #000000",
"al c #000000",
"am c #000000",
"an c #000000",
"ao c #000000",
"ap c #000000",
"aq c #000000",
"ar c #000000",
"as c #000000",
"at c #000000",
"au c #000000",
"av c #000000",
"aw c #000000",
"ax c #000000",
"ay c #000000",
"az c #000000",
"aA c #000000",
"aB c #000000",
"aC c #000000",
"aD c #000000",
"aE c #000000",
"aF c #000000",
"aG c #000000",
"aH c #000000",
"aI c #000000",
"aJ c #000000",
"aK c #000000",
"aL c #000000",
"aM c #000000",
"aN c #000000",
"aO c #000000",
"aP c #000000",
"aQ c #000000",
"aR c #000000",
"aS c #000000",
"aT c #000000",
"aU c #000000",
"aV c #000000",
"aW c #000000",
"aX c #000000",
"aY c #000000",
"aZ c #000000",
"a0 c #000000",
"a1 c #000000",
"a2 c #000000",
"a3 c #000000",
"a4 c #000000",
"a5 c #000000",
"a6 c #000000",
"a7 c #000000",
"a8 c #000000",
/* pixels */
"````````````````````````````````",
"`````````````````````.`#`a`b````",
"```````````````````c`d`````.`e`c",
"`f`g`g`g`g`g`h`````````````i`j`j",
"`g`k`l`l`m`n`o`p```````````j`j`j",
"`o`q`l`m`n`n`r`s`t`t`u`v`w``````",
"`o`x`m`n`n`y`z`z`z`z`z`z`w``````",
"`s`x`n`n`A`A`g`g`B`B`t`t`u`u`C`w",
"`t`D`n`E`g`F`F`F`F`F`F`F`r`r`G`H",
"`t`D`I`g`J`r`z`z`z`K`L`M`N`O`P``",
"`u`Q`E`g`F`R`z`K`K`M`S`N`T`U`V``",
"`u`W`g`X`r`K`K`M`Y`N`T`Z`0`1````",
"`C`2`g`F`K`M`M`S`T`Z`3`4`U`5````",
"`w`o`6`7`7`7`8.`.....#.a`1``````",
"`w.b.c.d.e.f.g.h.i.j.k.l.m``````",
"````````````````````````````````"
};
