/* XPM */
static const char *oper_16_xpm[] = {
/* width height num_colors chars_per_pixel */
"    32    16      256            2",
/* colors */
"`` c None",
"`. c #e2c471",
"`# c #e9d9a3",
"`a c #eee4b9",
"`b c #e0b020",
"`c c #ece1b1",
"`d c #e4daac",
"`e c #dec88b",
"`f c #bbb6b1",
"`g c #70696d",
"`h c #b2ada9",
"`i c #ede2bc",
"`j c #e0b830",
"`k c #fff090",
"`l c #e0c060",
"`m c #dfba39",
"`n c #e2d8b2",
"`o c #9c9c94",
"`p c #404040",
"`q c #484848",
"`r c #aaa5a2",
"`s c #c3bfb8",
"`t c #92948c",
"`u c #b0a890",
"`v c #f3e7b0",
"`w c #fdef94",
"`x c #fffff0",
"`y c #f0e8b0",
"`z c #ffffe0",
"`A c #e6debe",
"`B c #9c9994",
"`C c #6d6c6a",
"`D c #303840",
"`E c #918b8b",
"`F c #c8c5be",
"`G c #aeaba5",
"`H c #575057",
"`I c #777572",
"`J c #fff0b0",
"`K c #f0f0b0",
"`L c #f0e090",
"`M c #b0a090",
"`N c #e0a820",
"`O c #e0c050",
"`P c #f0f0c0",
"`Q c #dfbe4e",
"`R c #787775",
"`S c #c9c6bf",
"`T c #6d7275",
"`U c #777a72",
"`V c #c9c5be",
"`W c #a0a090",
"`X c #a09890",
"`Y c #a09880",
"`Z c #d0c080",
"`0 c #f0e890",
"`1 c #fff8e0",
"`2 c #fff8c0",
"`3 c #fdee94",
"`4 c #eadfb4",
"`5 c #92908c",
"`6 c #817f7c",
"`7 c #b8b3ae",
"`8 c #807a7b",
".` c #fff0c0",
".. c #ffe8a0",
".# c #ffe890",
".a c #ffd870",
".b c #fff0a0",
".c c #e0c860",
".d c #e0b030",
".e c #b8b4ae",
".f c #5b5a59",
".g c #393938",
".h c #575c5f",
".i c #ffe090",
".j c #ffe080",
".k c #f0c040",
".l c #f0d060",
".m c #e0c030",
".n c #e0b840",
".o c #908060",
".p c #aaa7a1",
".q c #303030",
".r c #403840",
".s c #434342",
".t c #c8c4be",
".u c #f0c860",
".v c #f0b850",
".w c #e0a830",
".x c #c09010",
".y c #706050",
".z c #bfbcb4",
".A c #41464c",
".B c #433c42",
".C c #f0b040",
".D c #c08810",
".E c #605050",
".F c #bfbbb4",
".G c #202830",
".H c #625c5f",
".I c #afada8",
".J c #575654",
".K c #848685",
".L c #a09080",
".M c #f0d070",
".N c #f0c050",
".O c #f0a830",
".P c #e0a020",
".Q c #b08010",
".R c #504040",
".S c #bfbab4",
".T c #41403e",
".U c #202020",
".V c #585755",
".W c #c7c3bc",
".X c #6e6c69",
".Y c #bdbab4",
".Z c #f0b840",
".0 c #e0a030",
".1 c #e09820",
".2 c #403830",
".3 c #c9c5bf",
".4 c #63615e",
".5 c #2a2229",
".6 c #b5b1ab",
".7 c #4e4d4c",
".8 c #908880",
"#` c #d09010",
"#. c #a07820",
"## c #302820",
"#a c #9b9893",
"#b c #101820",
"#c c #797b7b",
"#d c #353c34",
"#e c #bbb7b0",
"#f c #908870",
"#g c #f0e0a0",
"#h c #e0b850",
"#i c #d0a020",
"#j c #c09820",
"#k c #c09020",
"#l c #b08020",
"#m c #907020",
"#n c #202010",
"#o c #71736b",
"#p c #101010",
"#q c #4c4b49",
"#r c #bbb6b0",
"#s c #777a7b",
"#t c #afaba5",
"#u c #807870",
"#v c #707060",
"#w c #606050",
"#x c #505040",
"#y c #201010",
"#z c #b2aea8",
"#A c #5c5f57",
"#B c #9e9b95",
"#C c #c6c2bb",
"#D c #000000",
"#E c #000000",
"#F c #000000",
"#G c #000000",
"#H c #000000",
"#I c #000000",
"#J c #000000",
"#K c #000000",
"#L c #000000",
"#M c #000000",
"#N c #000000",
"#O c #000000",
"#P c #000000",
"#Q c #000000",
"#R c #000000",
"#S c #000000",
"#T c #000000",
"#U c #000000",
"#V c #000000",
"#W c #000000",
"#X c #000000",
"#Y c #000000",
"#Z c #000000",
"#0 c #000000",
"#1 c #000000",
"#2 c #000000",
"#3 c #000000",
"#4 c #000000",
"#5 c #000000",
"#6 c #000000",
"#7 c #000000",
"#8 c #000000",
"a` c #000000",
"a. c #000000",
"a# c #000000",
"aa c #000000",
"ab c #000000",
"ac c #000000",
"ad c #000000",
"ae c #000000",
"af c #000000",
"ag c #000000",
"ah c #000000",
"ai c #000000",
"aj c #000000",
"ak c #000000",
"al c #000000",
"am c #000000",
"an c #000000",
"ao c #000000",
"ap c #000000",
"aq c #000000",
"ar c #000000",
"as c #000000",
"at c #000000",
"au c #000000",
"av c #000000",
"aw c #000000",
"ax c #000000",
"ay c #000000",
"az c #000000",
"aA c #000000",
"aB c #000000",
"aC c #000000",
"aD c #000000",
"aE c #000000",
"aF c #000000",
"aG c #000000",
"aH c #000000",
"aI c #000000",
"aJ c #000000",
"aK c #000000",
"aL c #000000",
"aM c #000000",
"aN c #000000",
"aO c #000000",
"aP c #000000",
"aQ c #000000",
"aR c #000000",
"aS c #000000",
"aT c #000000",
"aU c #000000",
"aV c #000000",
"aW c #000000",
"aX c #000000",
"aY c #000000",
"aZ c #000000",
"a0 c #000000",
"a1 c #000000",
"a2 c #000000",
"a3 c #000000",
"a4 c #000000",
"a5 c #000000",
"a6 c #000000",
"a7 c #000000",
"a8 c #000000",
/* pixels */
"````````````````````````````````````````````````````````````````",
"```````````````````.`#`a`b`c`d`e```f`g`h````````````````````````",
"```````````````````i`j`k`l`k`m`n```o`p`q`r```````````````s`t````",
"```u`u`u`u`u```````v`w`x`y`z`k`A```B`C`D`p`E`````````F`G`H`I````",
"`u`y`J`J`K`L`M`````N`O`P`x`y`O`Q`````G`C`p`p`R`````S`T`p`U`V````",
"`M`M`M`M`M`M`W`X`Y`Z`0`1`P`2`3`4`````````5`p`p`6`7`8`p`I`F``````",
"`M.`.`.`.``J`J...#.a`j.b.c`k.d`n``````````.e.f`D.g.g.h`F````````",
"`W.``J`J`K.b.#.i.j.k.l.l.m.n.o`e````````````.p.q.r.s.t``````````",
"`Y.``J`J...#.i.j.a.l.u.v.w.x.y````````````.z.A.q.q`D.B``````````",
"`Y.``K.b...i.j.a.l.u.v.C.w.D.E``````````.F.A.G.H.I.J.q.K````````",
".L`J`J...i.j.a.M.u.N.C.O.P.Q.R````````.S.T.U.V````.W.X.g.Y``````",
".L`y...#.j.a.M.u.N.Z.O.0.1.Q.2``````.3.4.5.s.6``````.W.7.X``````",
".8`y.#.j.a.M.u.N.Z.O.w.1#`#.##``````#a#b.G#c``````````.Y#d#e````",
"#f#g.M#h.d.w#i#j#k#l#l.Q#.#m#n``````#o#p#q#r````````````#s#t````",
"#f#u#v#w#x.2###n#y#y#y#y#y#y#y``````#z#A#B````````````````#C````",
"````````````````````````````````````````````````````````````````"
};
