/* XPM */
static const char *remoteserver_16_xpm[] = {
/* width height num_colors chars_per_pixel */
"    16    16      256            2",
/* colors */
"`` c None",
"`. c #dbdbdb",
"`# c #999999",
"`a c #989898",
"`b c #d3d3d3",
"`c c #969696",
"`d c #d4d6d2",
"`e c #e0e2df",
"`f c #dbdddd",
"`g c #dfe1de",
"`h c #dbdcd8",
"`i c #929292",
"`j c #e5e7e2",
"`k c #434892",
"`l c #4b5592",
"`m c #4c5692",
"`n c #4b5692",
"`o c #4c5792",
"`p c #454a93",
"`q c #e2e4e4",
"`r c #939392",
"`s c #e5e7e3",
"`t c #3f498f",
"`u c #4f688a",
"`v c #50688b",
"`w c #51698b",
"`x c #526a8c",
"`y c #445e83",
"`z c #314082",
"`A c #d5d7dd",
"`B c #929392",
"`C c #959695",
"`D c #e4e6e2",
"`E c #38458f",
"`F c #436390",
"`G c #446490",
"`H c #3f608d",
"`I c #294e80",
"`J c #22487c",
"`K c #253984",
"`L c #d2d4db",
"`M c #8b8b8b",
"`N c #868686",
"`O c #e3e5e1",
"`P c #344392",
"`Q c #396299",
"`R c #355f97",
"`S c #2d5992",
"`T c #2c5892",
"`U c #2a408f",
"`V c #d1d3da",
"`W c #7a7a7a",
"`X c #787878",
"`Y c #e3e5e2",
"`Z c #353e93",
"`0 c #2d4194",
"`1 c #2e3891",
"`2 c #dee0e1",
"`3 c #686868",
"`4 c #dddddc",
"`5 c #6a6a6a",
"`6 c #dddedc",
"`7 c #e7e8e5",
"`8 c #e2e3e0",
".` c #585858",
".. c #898a85",
".# c #dededd",
".a c #bebebe",
".b c #474747",
".c c #464746",
".d c #444443",
".e c #424242",
".f c #414141",
".g c #404040",
".h c #434343",
".i c #434342",
".j c #a6a6a6",
".k c #d3d3d2",
".l c #aeaeab",
".m c #d0d2d0",
".n c #818381",
".o c #e1e2e1",
".p c #f4f4f3",
".q c #e5e6e4",
".r c #9c9d9a",
".s c #afafaf",
".t c #9b9c98",
".u c #abada9",
".v c #a9aca5",
".w c #abaea7",
".x c #adb1a9",
".y c #afb2ab",
".z c #b1b5ad",
".A c #b4b7b0",
".B c #b6b9b1",
".C c #b8bbb4",
".D c #b7bab3",
".E c #b9bcb5",
".F c #c4c8c1",
".G c #b7b7b4",
".H c #dcdcda",
".I c #bcbfb9",
".J c #e7e9e4",
".K c #eceeea",
".L c #f0f2ee",
".M c #f5f6f3",
".N c #f8f9f7",
".O c #fafbfa",
".P c #fafaf9",
".Q c #eff0ee",
".R c #e5e7e4",
".S c #e8e9e6",
".T c #afb0ab",
".U c #d1d2cf",
".V c #b6b7b4",
".W c #cacbc8",
".X c #dddfdc",
".Y c #c3c6c0",
".Z c #d0d1ce",
".0 c #d0d2ce",
".1 c #d0d2cf",
".2 c #d1d3d0",
".3 c #c3c5c2",
".4 c #dfe0dd",
".5 c #c4c6c1",
".6 c #e1e3e0",
".7 c #bdc0bc",
".8 c #c9cac8",
"#` c #979894",
"#. c #dadbd8",
"## c #dddedb",
"#a c #e0e0de",
"#b c #dcdedb",
"#c c #e0e1de",
"#d c #e6e7e4",
"#e c #dee0dd",
"#f c #d5d6d3",
"#g c #a5a5a1",
"#h c #a1a39f",
"#i c #949691",
"#j c #959792",
"#k c #afafac",
"#l c #000000",
"#m c #000000",
"#n c #000000",
"#o c #000000",
"#p c #000000",
"#q c #000000",
"#r c #000000",
"#s c #000000",
"#t c #000000",
"#u c #000000",
"#v c #000000",
"#w c #000000",
"#x c #000000",
"#y c #000000",
"#z c #000000",
"#A c #000000",
"#B c #000000",
"#C c #000000",
"#D c #000000",
"#E c #000000",
"#F c #000000",
"#G c #000000",
"#H c #000000",
"#I c #000000",
"#J c #000000",
"#K c #000000",
"#L c #000000",
"#M c #000000",
"#N c #000000",
"#O c #000000",
"#P c #000000",
"#Q c #000000",
"#R c #000000",
"#S c #000000",
"#T c #000000",
"#U c #000000",
"#V c #000000",
"#W c #000000",
"#X c #000000",
"#Y c #000000",
"#Z c #000000",
"#0 c #000000",
"#1 c #000000",
"#2 c #000000",
"#3 c #000000",
"#4 c #000000",
"#5 c #000000",
"#6 c #000000",
"#7 c #000000",
"#8 c #000000",
"a` c #000000",
"a. c #000000",
"a# c #000000",
"aa c #000000",
"ab c #000000",
"ac c #000000",
"ad c #000000",
"ae c #000000",
"af c #000000",
"ag c #000000",
"ah c #000000",
"ai c #000000",
"aj c #000000",
"ak c #000000",
"al c #000000",
"am c #000000",
"an c #000000",
"ao c #000000",
"ap c #000000",
"aq c #000000",
"ar c #000000",
"as c #000000",
"at c #000000",
"au c #000000",
"av c #000000",
"aw c #000000",
"ax c #000000",
"ay c #000000",
"az c #000000",
"aA c #000000",
"aB c #000000",
"aC c #000000",
"aD c #000000",
"aE c #000000",
"aF c #000000",
"aG c #000000",
"aH c #000000",
"aI c #000000",
"aJ c #000000",
"aK c #000000",
"aL c #000000",
"aM c #000000",
"aN c #000000",
"aO c #000000",
"aP c #000000",
"aQ c #000000",
"aR c #000000",
"aS c #000000",
"aT c #000000",
"aU c #000000",
"aV c #000000",
"aW c #000000",
"aX c #000000",
"aY c #000000",
"aZ c #000000",
"a0 c #000000",
"a1 c #000000",
"a2 c #000000",
"a3 c #000000",
"a4 c #000000",
"a5 c #000000",
"a6 c #000000",
"a7 c #000000",
"a8 c #000000",
/* pixels */
"`````.`#`#`#`#`#`#`#`#`a`b``````",
"`````c`d`e`f`f`f`f`f`g`h`i``````",
"`````c`j`k`l`m`n`o`o`p`q`r``````",
"`````c`s`t`u`v`w`x`y`z`A`B``````",
"`````C`D`E`F`G`H`I`J`K`L`M``````",
"`````N`O`P`Q`R`S`T`T`U`V`W``````",
"`````X`Y`Z`0`0`0`0`0`1`2`3`4````",
"`````5`6`7`7`7`7`7`7`7`8.`...#``",
"````.a.b.c.d.e.e.f.g.h.i.j.k.l``",
"````````.m.n.o.p.q.r.s``````.t``",
"``.u.v.w.x.y.z.A.B.C.D.D.E.F.G``",
".H.I.J.K.L.M.N.O.P.N.Q.R.S.T.U``",
".V.W.X.Y.Z.0.1.2.3`8.4.5.6.7.8``",
"#`#.###a#b#b#b#b#c##`6#d#e#f#g``",
"#h#i#j#j#j#j#j#j#j#j#j#j#j#i#k``",
"````````````````````````````````"
};
