/* XPM */
static const char *remoteserverdsbl_48_xpm[] = {
/* width height num_colors chars_per_pixel */
"    48    48      256            2",
/* colors */
"`` c None",
"`. c #7c7e7c",
"`# c #b4bab4",
"`a c #9c9e9c",
"`b c #d4dad4",
"`c c #545254",
"`d c #646a64",
"`e c #8c8e8c",
"`f c #c4cac4",
"`g c #acaea4",
"`h c #e4eae4",
"`i c #dce2d4",
"`j c #747674",
"`k c #94968c",
"`l c #bcc2bc",
"`m c #5c5e5c",
"`n c #ccd2cc",
"`o c #848684",
"`p c #a4a6a4",
"`q c #acb6ac",
"`r c #74726c",
"`s c #f4f2ec",
"`t c #e4e2dc",
"`u c #9c9a94",
"`v c #bcbab4",
"`w c #a4a29c",
"`x c #dcdad4",
"`y c #545a54",
"`z c #6c726c",
"`A c #94928c",
"`B c #cccac4",
"`C c #b4b2ac",
"`D c #ecf2ec",
"`E c #c4c2bc",
"`F c #646664",
"`G c #d4d2cc",
"`H c #8c8a84",
"`I c #84827c",
"`J c #6c6a64",
"`K c #eceae4",
"`L c #7c7a74",
"`M c #94969c",
"`N c #64625c",
"`O c #acaaa4",
"`P c #e4e6dc",
"`Q c #bcbeb4",
"`R c #dcded4",
"`S c #cccec4",
"`T c #c4c6bc",
"`U c #d4d6cc",
"`V c #9ca29c",
"`W c #8c928c",
"`X c #acb2ac",
"`Y c #949a94",
"`Z c #848a84",
"`0 c #b4b6ac",
"`1 c #5c5a54",
"`2 c #6c6e6c",
"`3 c #eceeec",
"`4 c #7c827c",
"`5 c #9c9ea4",
"`6 c #545654",
"`7 c #8c8e94",
"`8 c #acaeac",
".` c #dce2dc",
".. c #747a74",
".# c #949694",
".a c #5c625c",
".b c #84868c",
".c c #a4aaa4",
".d c #747274",
".e c #e4e2e4",
".f c #9c9a9c",
".g c #bcbabc",
".h c #a4a2a4",
".i c #dcdadc",
".j c #949294",
".k c #cccacc",
".l c #b4b2b4",
".m c #c4c2c4",
".n c #d4d2d4",
".o c #8c8a8c",
".p c #848284",
".q c #6c6a6c",
".r c #eceaec",
".s c #7c7a7c",
".t c #646264",
".u c #acaaac",
".v c #e4e6e4",
".w c #bcbebc",
".x c #dcdedc",
".y c #cccecc",
".z c #c4c6c4",
".A c #d4d6d4",
".B c #b4b6b4",
".C c #5c5a5c",
".D c #000000",
".E c #000000",
".F c #000000",
".G c #000000",
".H c #000000",
".I c #000000",
".J c #000000",
".K c #000000",
".L c #000000",
".M c #000000",
".N c #000000",
".O c #000000",
".P c #000000",
".Q c #000000",
".R c #000000",
".S c #000000",
".T c #000000",
".U c #000000",
".V c #000000",
".W c #000000",
".X c #000000",
".Y c #000000",
".Z c #000000",
".0 c #000000",
".1 c #000000",
".2 c #000000",
".3 c #000000",
".4 c #000000",
".5 c #000000",
".6 c #000000",
".7 c #000000",
".8 c #000000",
"#` c #000000",
"#. c #000000",
"## c #000000",
"#a c #000000",
"#b c #000000",
"#c c #000000",
"#d c #000000",
"#e c #000000",
"#f c #000000",
"#g c #000000",
"#h c #000000",
"#i c #000000",
"#j c #000000",
"#k c #000000",
"#l c #000000",
"#m c #000000",
"#n c #000000",
"#o c #000000",
"#p c #000000",
"#q c #000000",
"#r c #000000",
"#s c #000000",
"#t c #000000",
"#u c #000000",
"#v c #000000",
"#w c #000000",
"#x c #000000",
"#y c #000000",
"#z c #000000",
"#A c #000000",
"#B c #000000",
"#C c #000000",
"#D c #000000",
"#E c #000000",
"#F c #000000",
"#G c #000000",
"#H c #000000",
"#I c #000000",
"#J c #000000",
"#K c #000000",
"#L c #000000",
"#M c #000000",
"#N c #000000",
"#O c #000000",
"#P c #000000",
"#Q c #000000",
"#R c #000000",
"#S c #000000",
"#T c #000000",
"#U c #000000",
"#V c #000000",
"#W c #000000",
"#X c #000000",
"#Y c #000000",
"#Z c #000000",
"#0 c #000000",
"#1 c #000000",
"#2 c #000000",
"#3 c #000000",
"#4 c #000000",
"#5 c #000000",
"#6 c #000000",
"#7 c #000000",
"#8 c #000000",
"a` c #000000",
"a. c #000000",
"a# c #000000",
"aa c #000000",
"ab c #000000",
"ac c #000000",
"ad c #000000",
"ae c #000000",
"af c #000000",
"ag c #000000",
"ah c #000000",
"ai c #000000",
"aj c #000000",
"ak c #000000",
"al c #000000",
"am c #000000",
"an c #000000",
"ao c #000000",
"ap c #000000",
"aq c #000000",
"ar c #000000",
"as c #000000",
"at c #000000",
"au c #000000",
"av c #000000",
"aw c #000000",
"ax c #000000",
"ay c #000000",
"az c #000000",
"aA c #000000",
"aB c #000000",
"aC c #000000",
"aD c #000000",
"aE c #000000",
"aF c #000000",
"aG c #000000",
"aH c #000000",
"aI c #000000",
"aJ c #000000",
"aK c #000000",
"aL c #000000",
"aM c #000000",
"aN c #000000",
"aO c #000000",
"aP c #000000",
"aQ c #000000",
"aR c #000000",
"aS c #000000",
"aT c #000000",
"aU c #000000",
"aV c #000000",
"aW c #000000",
"aX c #000000",
"aY c #000000",
"aZ c #000000",
"a0 c #000000",
"a1 c #000000",
"a2 c #000000",
"a3 c #000000",
"a4 c #000000",
"a5 c #000000",
"a6 c #000000",
"a7 c #000000",
"a8 c #000000",
/* pixels */
"````````````````````````````````````````````````````````````````````````````````````````````````",
"````````````````````````````````````````````````````````````````````````````````````````````````",
"````````````````````````````````````````````````````````````````````````````````````````````````",
"````````````````````````````````````````````````````````````````````````````````````````````````",
"````````````````````````````````````````````````````````````````````````````````````````````````",
"````````````````````````````````````````````````````````````````````````````````````````````````",
"``````````````````.l.h.f.h`a.h.h.f.h.f.f.f.f.f.f.j.#.j.j.j.j.o.j.o.o.l``````````````````````````",
"````````````````.n.m`D`s`3`s`3`s`3`3`s`3`s`3`3`3`3`3`3`3.r`3.r`K`3`3.f.r````````````````````````",
"````````````````.k.i.v.f.#.j.j.j.#.j.j.j.j.j.#`A.j.j`A.j`A`A.#`S.A.v.l`x````````````````````````",
"````````````````.m.x`P.#`5`a`a`a`a.f`a`Y.f`Y`M`Y.#.#.#.#.j`W`.`l`#`t`#.n````````````````````````",
"````````````````.w.e`P.j`a.f.f.f`M.#`M`u.j.#.j.j.j.j.j`7`W.j.s.B.y`t.w.k````````````````````````",
"````````````````.g.v.`.j.#.#.#.j.#.j.j.j`W.j.j`e`7`e`e`e.o.o`..u`l.x.z`E````````````````````````",
"`````````````````C.r`b`e.j.j.j.j.j`W.j`7.j`e`e`e`A.o.o.o`e.b.d`w.w`x`f.g````````````````````````",
"`````````````````p`3`G`e.j`W`7`e`7`e`e.o`e.o.o.o.o.o.p`j.q.t`F`a`n`x.y.u````````````````````````",
"````````````````.h`s`f.o`e`7`A`e`e.o.o.o.o.o.o`Z`.`2`d.q`F.q`F.#`l`G`n.h````````````````````````",
"````````````````.h.r.z`o`e.o.o.o.o.o.o.o`Z.b`o`j.q.q.q.q.q.q.q.j`T`n.A.f````````````````````````",
"````````````````.f`3`v.p.o.o.o`Z.o`Z.b`o.o`I`2.q`2`2.q`2`2`2`z`e`G`G`b`7````````````````````````",
"````````````````.f`3`X`o.o`Z.o.b`H.b`H.p.s`2.d`2.d.d`2.d.d.d.d`e`n`G.x.p````````````````````````",
"````````````````.f`3`O.p`o.o`o`o`o.p.p`j.d.d.d.d.d.d`j.d`j`j`j.o`n`n.x`.````````````````````````",
"````````````````.h`K`V.p.b`o.p`o.p.p`j`j.d`j`j`j`j`j`j`j.s`j.s`H`n`G`R`j````````````````````````",
"````````````````.h.r`a.p`o.p`o.p`..s`j.s...s.s.s.s.s.s.s.s.s.s`Z`n`S.i`2````````````````````````",
"````````````````.u`h.#`o.p`o.p.s.s.s.s.s.s.s.s`.`.`.`.`.`.`4.p.p`n`n.x.q````````````````````````",
"``````````````.e.l`P.#.p`I`..s`.`.`.`.`..p`.`4.p`..p.p.p.p.p.p`o`S.y`R`F````````````````````````",
"``````````````.x.B.e`k`..p`..p.p.p.p.p.p.p.p.p.p.p.p`o`o`o.p`o.b`f`S.x.q````````````````````````",
"``````````````.n.w.`.j.p.p.p.p.p.p`o`o`o`o`o.b`o`Z.o.b.o.b.o`Z`H`E`S`x.d````````````````````````",
"``````````````.k`E.x`e`H`Z.o`Z.o`Z.o`o.o`Z.o`H.o.o`Z.o`Z.o`H.o.p.w.y`b.s.v``````````````````````",
"``````````````.m.m`R`b.A`U.A`U`n`U`n`U`n.w`O`l`n`n`n`S.y`S.y`S.y`S`S.A`4.i``````````````````````",
"``````````````.m.w`x`Q.w`Q`#.w`Q`Q.w`#`Q`#`v`#`v`#`#`v`#`#`0`#`0.B`0.A.s`x``````````````````````",
"``````````````.r`o.y.A`n.n`n`n.y.y.y.y`B`f.k`f.z.z`E.m`E.w`E.w.w.g`#`p`m````````````````````````",
"````````````````.x.h.f`W.o.p`2.t`m`N.a`F`F.t.t`N.a.C`c`c`c.C`F`2`j`..f.v````````````````````````",
"````````````````````````.k`8`6`F`r`d`j.o`o`Z`o`Z`o`z`m`F`d.d`o.j.m.v````````````````````````````",
"``````````````````````.e.k.g.t...#`e`H`o`I`.`4`I.p`o`o`o`F.d`a.l.u`8.g.k.k.e````````````````````",
"``````````````````````.i.z.l`W`1..`W`V`X`#`#`0`q.c`Y`Z`2`y.p`Y.u.w.k.z.k.k.g.g.k````````````````",
"``````````````````.u.f.j.o`I.s`z.t.C`6.a`m.a`m.C`6`c`c`y`N.q.d`j.s`o.h``````.n.m.g.r````````````",
"````````````````.u.j`C`X`C`X`X.l`X`X`X`C`8`8`X`X`X`g`X`8`X`X`8`C`X`X`o.u````````.m.k````````````",
"````````````````.d.w`a`V`5.h`a`V`w`a.h`a`w`5`w`w`a.h`w`a`p`i.h`V.h`w`#.q.e````.k.l.x````````````",
"``````````````.e`I`8`p.u`p`O`p.u`p.u.h`p.u`p`p.u.h`p.u`p`O.A`w`p`p`p.l`2.j`a.h.g````````````````",
"``````````````.h.B`8`8`8`8.f.f.f.f.f`a`a.f`a.f.f`a`8.u`8`8.g.B`8.l.u`8`O.d.l.n.r````````````````",
"``````````````.d`f.B.g.l`8.l.B.B.B.B.B.B.B.B.B.B.l.l.B.g.l`X.A`8.l.l.l`f`d.y.i``````````````````",
"````````````.i`A`B`8`g`8`0`0`g`8`g`O`8`O`g.u`g`8`E`g`O.c`8`C`R.w`#`#`0.A`4.n````````````````````",
"````````````.h`l`R`b`b`R`b.x`b`b`R`b`R.x`R`R.x`R`i.x.``i.x`i.``i.x`i.`.``E.u````````````````````",
"`````````````8`F.t.t.a`m`m`m`m.a`m.a`m`m`m`m`m.C`m.C`m.C`m`m`m`m`m.C`m.C`N.B````````````````````",
"````````````````````````````````````````````````````````````````````````````````````````````````",
"````````````````````````````````````````````````````````````````````````````````````````````````",
"````````````````````````````````````````````````````````````````````````````````````````````````",
"````````````````````````````````````````````````````````````````````````````````````````````````",
"````````````````````````````````````````````````````````````````````````````````````````````````",
"````````````````````````````````````````````````````````````````````````````````````````````````"
};
