/* XPM */
static const char *remoteserverdsbl_16_xpm[] = {
/* width height num_colors chars_per_pixel */
"    16    16      256            2",
/* colors */
"`` c None",
"`. c #dbdbdb",
"`# c #999999",
"`a c #989898",
"`b c #d3d3d3",
"`c c #969696",
"`d c #d4d6d2",
"`e c #e0e2df",
"`f c #dbdddd",
"`g c #dfe1de",
"`h c #dbdcd8",
"`i c #929292",
"`j c #e5e7e2",
"`k c #4e4e4e",
"`l c #585858",
"`m c #595959",
"`n c #505050",
"`o c #e2e4e4",
"`p c #939392",
"`q c #e5e7e3",
"`r c #4d4d4d",
"`s c #636363",
"`t c #646464",
"`u c #656565",
"`v c #666666",
"`w c #424242",
"`x c #d5d7dd",
"`y c #929392",
"`z c #959695",
"`A c #e4e6e2",
"`B c #484848",
"`C c #5d5d5d",
"`D c #5e5e5e",
"`E c #5a5a5a",
"`F c #414141",
"`G c #3a3a3a",
"`H c #d2d4db",
"`I c #8b8b8b",
"`J c #868686",
"`K c #e3e5e1",
"`L c #464646",
"`M c #5b5b5b",
"`N c #515151",
"`O c #d1d3da",
"`P c #7a7a7a",
"`Q c #787878",
"`R c #e3e5e2",
"`S c #444444",
"`T c #434343",
"`U c #3e3e3e",
"`V c #dee0e1",
"`W c #686868",
"`X c #dddddc",
"`Y c #6a6a6a",
"`Z c #dddedc",
"`0 c #e7e8e5",
"`1 c #e2e3e0",
"`2 c #898a85",
"`3 c #dededd",
"`4 c #bebebe",
"`5 c #474747",
"`6 c #464746",
"`7 c #444443",
"`8 c #404040",
".` c #434342",
".. c #a6a6a6",
".# c #d3d3d2",
".a c #aeaeab",
".b c #d0d2d0",
".c c #818381",
".d c #e1e2e1",
".e c #f4f4f3",
".f c #e5e6e4",
".g c #9c9d9a",
".h c #afafaf",
".i c #9b9c98",
".j c #abada9",
".k c #a9aca5",
".l c #abaea7",
".m c #adb1a9",
".n c #afb2ab",
".o c #b1b5ad",
".p c #b4b7b0",
".q c #b6b9b1",
".r c #b8bbb4",
".s c #b7bab3",
".t c #b9bcb5",
".u c #c4c8c1",
".v c #b7b7b4",
".w c #dcdcda",
".x c #bcbfb9",
".y c #e7e9e4",
".z c #eceeea",
".A c #f0f2ee",
".B c #f5f6f3",
".C c #f8f9f7",
".D c #fafbfa",
".E c #fafaf9",
".F c #eff0ee",
".G c #e5e7e4",
".H c #e8e9e6",
".I c #afb0ab",
".J c #d1d2cf",
".K c #b6b7b4",
".L c #cacbc8",
".M c #dddfdc",
".N c #c3c6c0",
".O c #d0d1ce",
".P c #d0d2ce",
".Q c #d0d2cf",
".R c #d1d3d0",
".S c #c3c5c2",
".T c #dfe0dd",
".U c #c4c6c1",
".V c #e1e3e0",
".W c #bdc0bc",
".X c #c9cac8",
".Y c #979894",
".Z c #dadbd8",
".0 c #dddedb",
".1 c #e0e0de",
".2 c #dcdedb",
".3 c #e0e1de",
".4 c #e6e7e4",
".5 c #dee0dd",
".6 c #d5d6d3",
".7 c #a5a5a1",
".8 c #a1a39f",
"#` c #949691",
"#. c #959792",
"## c #afafac",
"#a c #000000",
"#b c #000000",
"#c c #000000",
"#d c #000000",
"#e c #000000",
"#f c #000000",
"#g c #000000",
"#h c #000000",
"#i c #000000",
"#j c #000000",
"#k c #000000",
"#l c #000000",
"#m c #000000",
"#n c #000000",
"#o c #000000",
"#p c #000000",
"#q c #000000",
"#r c #000000",
"#s c #000000",
"#t c #000000",
"#u c #000000",
"#v c #000000",
"#w c #000000",
"#x c #000000",
"#y c #000000",
"#z c #000000",
"#A c #000000",
"#B c #000000",
"#C c #000000",
"#D c #000000",
"#E c #000000",
"#F c #000000",
"#G c #000000",
"#H c #000000",
"#I c #000000",
"#J c #000000",
"#K c #000000",
"#L c #000000",
"#M c #000000",
"#N c #000000",
"#O c #000000",
"#P c #000000",
"#Q c #000000",
"#R c #000000",
"#S c #000000",
"#T c #000000",
"#U c #000000",
"#V c #000000",
"#W c #000000",
"#X c #000000",
"#Y c #000000",
"#Z c #000000",
"#0 c #000000",
"#1 c #000000",
"#2 c #000000",
"#3 c #000000",
"#4 c #000000",
"#5 c #000000",
"#6 c #000000",
"#7 c #000000",
"#8 c #000000",
"a` c #000000",
"a. c #000000",
"a# c #000000",
"aa c #000000",
"ab c #000000",
"ac c #000000",
"ad c #000000",
"ae c #000000",
"af c #000000",
"ag c #000000",
"ah c #000000",
"ai c #000000",
"aj c #000000",
"ak c #000000",
"al c #000000",
"am c #000000",
"an c #000000",
"ao c #000000",
"ap c #000000",
"aq c #000000",
"ar c #000000",
"as c #000000",
"at c #000000",
"au c #000000",
"av c #000000",
"aw c #000000",
"ax c #000000",
"ay c #000000",
"az c #000000",
"aA c #000000",
"aB c #000000",
"aC c #000000",
"aD c #000000",
"aE c #000000",
"aF c #000000",
"aG c #000000",
"aH c #000000",
"aI c #000000",
"aJ c #000000",
"aK c #000000",
"aL c #000000",
"aM c #000000",
"aN c #000000",
"aO c #000000",
"aP c #000000",
"aQ c #000000",
"aR c #000000",
"aS c #000000",
"aT c #000000",
"aU c #000000",
"aV c #000000",
"aW c #000000",
"aX c #000000",
"aY c #000000",
"aZ c #000000",
"a0 c #000000",
"a1 c #000000",
"a2 c #000000",
"a3 c #000000",
"a4 c #000000",
"a5 c #000000",
"a6 c #000000",
"a7 c #000000",
"a8 c #000000",
/* pixels */
"`````.`#`#`#`#`#`#`#`#`a`b``````",
"`````c`d`e`f`f`f`f`f`g`h`i``````",
"`````c`j`k`l`m`l`m`m`n`o`p``````",
"`````c`q`r`s`t`u`v`m`w`x`y``````",
"`````z`A`B`C`D`E`B`F`G`H`I``````",
"`````J`K`L`M`l`N`n`n`F`O`P``````",
"`````Q`R`S`T`T`T`T`T`U`V`W`X````",
"`````Y`Z`0`0`0`0`0`0`0`1`l`2`3``",
"`````4`5`6`7`w`w`F`8`T.`...#.a``",
"````````.b.c.d.e.f.g.h``````.i``",
"``.j.k.l.m.n.o.p.q.r.s.s.t.u.v``",
".w.x.y.z.A.B.C.D.E.C.F.G.H.I.J``",
".K.L.M.N.O.P.Q.R.S`1.T.U.V.W.X``",
".Y.Z.0.1.2.2.2.2.3.0`Z.4.5.6.7``",
".8#`#.#.#.#.#.#.#.#.#.#.#.#`##``",
"````````````````````````````````"
};
