/* XPM */
static const char *remoteserver_16_xpm[] = {
/* width height num_colors chars_per_pixel */
"    16    16      256            2",
/* colors */
"`` c None",
"`. c #82847f",
"`# c #c8c8c7",
"`a c #ededed",
"`b c #dadad9",
"`c c #364878",
"`d c #f0f0f0",
"`e c #f3f3f3",
"`f c #6e7da0",
"`g c #6d7da0",
"`h c #7081a3",
"`i c #7080a3",
"`j c #6f80a3",
"`k c #6f81a3",
"`l c #7081a2",
"`m c #586b93",
"`n c #eeeeee",
"`o c #7283a6",
"`p c #7284a5",
"`q c #7284a6",
"`r c #516690",
"`s c #425988",
"`t c #efefef",
"`u c #7587a9",
"`v c #7587a8",
"`w c #5d729a",
"`x c #536993",
"`y c #465e8b",
"`z c #465e8c",
"`A c #778aab",
"`B c #61779d",
"`C c #49638f",
"`D c #496290",
"`E c #49628f",
"`F c #4a638f",
"`G c #4c6793",
"`H c #4c6794",
"`I c #4d6793",
"`J c #d6d6d6",
"`K c #d4d4d4",
"`L c #d1d1d1",
"`M c #ececec",
"`N c #ebebeb",
"`O c #c8c8c8",
"`P c #c5c5c5",
"`Q c #e8e8e8",
"`R c #d9d9d9",
"`S c #000000",
"`T c #000000",
"`U c #000000",
"`V c #000000",
"`W c #000000",
"`X c #000000",
"`Y c #000000",
"`Z c #000000",
"`0 c #000000",
"`1 c #000000",
"`2 c #000000",
"`3 c #000000",
"`4 c #000000",
"`5 c #000000",
"`6 c #000000",
"`7 c #000000",
"`8 c #000000",
".` c #000000",
".. c #000000",
".# c #000000",
".a c #000000",
".b c #000000",
".c c #000000",
".d c #000000",
".e c #000000",
".f c #000000",
".g c #000000",
".h c #000000",
".i c #000000",
".j c #000000",
".k c #000000",
".l c #000000",
".m c #000000",
".n c #000000",
".o c #000000",
".p c #000000",
".q c #000000",
".r c #000000",
".s c #000000",
".t c #000000",
".u c #000000",
".v c #000000",
".w c #000000",
".x c #000000",
".y c #000000",
".z c #000000",
".A c #000000",
".B c #000000",
".C c #000000",
".D c #000000",
".E c #000000",
".F c #000000",
".G c #000000",
".H c #000000",
".I c #000000",
".J c #000000",
".K c #000000",
".L c #000000",
".M c #000000",
".N c #000000",
".O c #000000",
".P c #000000",
".Q c #000000",
".R c #000000",
".S c #000000",
".T c #000000",
".U c #000000",
".V c #000000",
".W c #000000",
".X c #000000",
".Y c #000000",
".Z c #000000",
".0 c #000000",
".1 c #000000",
".2 c #000000",
".3 c #000000",
".4 c #000000",
".5 c #000000",
".6 c #000000",
".7 c #000000",
".8 c #000000",
"#` c #000000",
"#. c #000000",
"## c #000000",
"#a c #000000",
"#b c #000000",
"#c c #000000",
"#d c #000000",
"#e c #000000",
"#f c #000000",
"#g c #000000",
"#h c #000000",
"#i c #000000",
"#j c #000000",
"#k c #000000",
"#l c #000000",
"#m c #000000",
"#n c #000000",
"#o c #000000",
"#p c #000000",
"#q c #000000",
"#r c #000000",
"#s c #000000",
"#t c #000000",
"#u c #000000",
"#v c #000000",
"#w c #000000",
"#x c #000000",
"#y c #000000",
"#z c #000000",
"#A c #000000",
"#B c #000000",
"#C c #000000",
"#D c #000000",
"#E c #000000",
"#F c #000000",
"#G c #000000",
"#H c #000000",
"#I c #000000",
"#J c #000000",
"#K c #000000",
"#L c #000000",
"#M c #000000",
"#N c #000000",
"#O c #000000",
"#P c #000000",
"#Q c #000000",
"#R c #000000",
"#S c #000000",
"#T c #000000",
"#U c #000000",
"#V c #000000",
"#W c #000000",
"#X c #000000",
"#Y c #000000",
"#Z c #000000",
"#0 c #000000",
"#1 c #000000",
"#2 c #000000",
"#3 c #000000",
"#4 c #000000",
"#5 c #000000",
"#6 c #000000",
"#7 c #000000",
"#8 c #000000",
"a` c #000000",
"a. c #000000",
"a# c #000000",
"aa c #000000",
"ab c #000000",
"ac c #000000",
"ad c #000000",
"ae c #000000",
"af c #000000",
"ag c #000000",
"ah c #000000",
"ai c #000000",
"aj c #000000",
"ak c #000000",
"al c #000000",
"am c #000000",
"an c #000000",
"ao c #000000",
"ap c #000000",
"aq c #000000",
"ar c #000000",
"as c #000000",
"at c #000000",
"au c #000000",
"av c #000000",
"aw c #000000",
"ax c #000000",
"ay c #000000",
"az c #000000",
"aA c #000000",
"aB c #000000",
"aC c #000000",
"aD c #000000",
"aE c #000000",
"aF c #000000",
"aG c #000000",
"aH c #000000",
"aI c #000000",
"aJ c #000000",
"aK c #000000",
"aL c #000000",
"aM c #000000",
"aN c #000000",
"aO c #000000",
"aP c #000000",
"aQ c #000000",
"aR c #000000",
"aS c #000000",
"aT c #000000",
"aU c #000000",
"aV c #000000",
"aW c #000000",
"aX c #000000",
"aY c #000000",
"aZ c #000000",
"a0 c #000000",
"a1 c #000000",
"a2 c #000000",
"a3 c #000000",
"a4 c #000000",
"a5 c #000000",
"a6 c #000000",
"a7 c #000000",
"a8 c #000000",
/* pixels */
"````````````````````````````````",
"`````.`.`.`.`.`.`.`.`.`.`.`.````",
"```.`#`a`a`a`a`a`a`a`a`a`a`b`.``",
"```.`a`c`c`c`c`c`c`c`c`c`c`d`.``",
"```.`e`c`f`g`g`g`g`g`f`g`c`d`.``",
"```.`d`c`h`i`j`h`k`l`k`m`c`d`.``",
"```.`n`c`o`p`q`p`q`q`r`s`c`t`.``",
"```.`n`c`u`u`v`w`x`y`z`z`c`n`.``",
"```.`n`c`A`B`C`D`D`D`E`F`c`n`.``",
"```.`a`c`G`G`H`G`G`I`H`G`c`a`.``",
"```.`e`c`c`c`c`c`c`c`c`c`c`a`.``",
"```.`J`a`a`a`a`a`a`a`a`a`a`K`.``",
"`````.`.`.`.`.`.`.`.`.`.`.`.````",
"```.`e`d`L`M`N`N`N`N`O`P`P`Q`.``",
"`.`R`R`R`R`R`R`R`R`R`R`R`R`R`R`.",
"```.`.`.`.`.`.`.`.`.`.`.`.`.`.``"
};
