/* XPM */
static const char *shape_icon16_xpm[] = {
/* width height num_colors chars_per_pixel */
"    64    16      256            2",
/* colors */
"`` c #040204",
"`. c #5c8a3c",
"`# c #9cc274",
"`a c #948e64",
"`b c #ccc69c",
"`c c #6ca244",
"`d c #acdab4",
"`e c #94ae84",
"`f c #848254",
"`g c #444644",
"`h c #74a27c",
"`i c #c4c294",
"`j c #cce6cc",
"`k c #446a4c",
"`l c #64923c",
"`m c #ece6bc",
"`n c #94c29c",
"`o c #9c9e74",
"`p c #6c6a44",
"`q c #b4ae84",
"`r c #7cb254",
"`s c #bce6c4",
"`t c #749254",
"`u c #8cb28c",
"`v c #54825c",
"`w c #94ba6c",
"`x c #949294",
"`y c #848284",
"`z c #84a68c",
"`A c #fcf6cc",
"`B c #a4ceac",
"`C c #7c764c",
"`D c #5c8a64",
"`E c #bcdabc",
"`F c #dce6cc",
"`G c #2c2e2c",
"`H c #a4ca84",
"`I c #b4ce94",
"`J c #4c7654",
"`K c #6c926c",
"`L c #9c9e9c",
"`M c #8cb264",
"`N c #94b694",
"`O c #a4c284",
"`P c #9c966c",
"`Q c #84a264",
"`R c #545654",
"`S c #d4e6d4",
"`T c #84ae8c",
"`U c #747674",
"`V c #dcdeb4",
"`W c #8c8a5c",
"`X c #649a3c",
"`Y c #a4caa4",
"`Z c #aca67c",
"`0 c #c4be94",
"`1 c #c4e6c4",
"`2 c #64866c",
"`3 c None",
"`4 c #3c3a3c",
"`5 c #b4d2bc",
"`6 c #94be9c",
"`7 c #74aa4c",
"`8 c #b4e2bc",
".` c #cceacc",
".. c #eceec4",
".# c #a4a67c",
".a c #b4b6b4",
".b c #749a74",
".c c #8cba94",
".d c #5c825c",
".e c #848e94",
".f c #8ca68c",
".g c #fcfedc",
".h c #acd6b4",
".i c #7c7e54",
".j c #648a64",
".k c #bce2c4",
".l c #5c7e44",
".m c #8cba64",
".n c #9cc67c",
".o c #949264",
".p c #d4d2d4",
".q c #74a644",
".r c #b4dabc",
".s c #acaa7c",
".t c #8c865c",
".u c #545254",
".v c #7ca27c",
".w c #646664",
".x c #6c9644",
".y c #9cc2a4",
".z c #a49e74",
".A c #6c727c",
".B c #b4b284",
".C c #84b25c",
".D c #8cb694",
".E c #9c9a9c",
".F c #84aa84",
".G c #acd2ac",
".H c #2c3244",
".I c #94ba94",
".J c #a4c67c",
".K c #9c9a6c",
".L c #646264",
".M c #c4eacc",
".N c #bcd6ac",
".O c #f4eec4",
".P c #749e7c",
".Q c #5c8664",
".R c #648e6c",
".S c #0c0a0c",
".T c #9cc27c",
".U c #ccca9c",
".V c #6ca644",
".W c #84865c",
".X c #444a54",
".Y c #c4c2c4",
".Z c #cce6d4",
".0 c #446e4c",
".1 c #64963c",
".2 c #74724c",
".3 c #bceac4",
".4 c #8cb294",
".5 c #94be74",
".6 c #949694",
".7 c #848684",
".8 c #fcfacc",
"#` c #7c7a54",
"#. c #7cae54",
"## c #5c7e64",
"#a c #a4a6a4",
"#b c #bcd2a4",
"#c c #e4e6bc",
"#d c #accab4",
"#e c #5c5a5c",
"#f c #7c7a7c",
"#g c #8c8a8c",
"#h c #547a54",
"#i c #6c9e3c",
"#j c #9cbea4",
"#k c #8cae8c",
"#l c #e4deb4",
"#m c #847e54",
"#n c #c4e2c4",
"#o c #bcdec4",
"#p c #6c9674",
"#q c #d4eadc",
"#r c #acae84",
"#s c #7ca684",
"#t c #8cb664",
"#u c #3c3e3c",
"#v c #b4d6bc",
"#w c #b4debc",
"#x c #9cc6a4",
"#y c #a4a274",
"#z c #84b65c",
"#A c #f4f2c4",
"#B c #2c2e34",
"#C c #8c8a64",
"#D c #c4e6cc",
"#E c #ccead4",
"#F c #749a7c",
"#G c #5c8264",
"#H c #fcfee4",
"#I c #648a6c",
"#J c #8cba6c",
"#K c #94926c",
"#L c #b4b28c",
"#M c #84aa8c",
"#N c #acd2b4",
"#O c #94ba9c",
"#P c #a4c684",
"#Q c #9c9a74",
"#R c #000000",
"#S c #000000",
"#T c #000000",
"#U c #000000",
"#V c #000000",
"#W c #000000",
"#X c #000000",
"#Y c #000000",
"#Z c #000000",
"#0 c #000000",
"#1 c #000000",
"#2 c #000000",
"#3 c #000000",
"#4 c #000000",
"#5 c #000000",
"#6 c #000000",
"#7 c #000000",
"#8 c #000000",
"a` c #000000",
"a. c #000000",
"a# c #000000",
"aa c #000000",
"ab c #000000",
"ac c #000000",
"ad c #000000",
"ae c #000000",
"af c #000000",
"ag c #000000",
"ah c #000000",
"ai c #000000",
"aj c #000000",
"ak c #000000",
"al c #000000",
"am c #000000",
"an c #000000",
"ao c #000000",
"ap c #000000",
"aq c #000000",
"ar c #000000",
"as c #000000",
"at c #000000",
"au c #000000",
"av c #000000",
"aw c #000000",
"ax c #000000",
"ay c #000000",
"az c #000000",
"aA c #000000",
"aB c #000000",
"aC c #000000",
"aD c #000000",
"aE c #000000",
"aF c #000000",
"aG c #000000",
"aH c #000000",
"aI c #000000",
"aJ c #000000",
"aK c #000000",
"aL c #000000",
"aM c #000000",
"aN c #000000",
"aO c #000000",
"aP c #000000",
"aQ c #000000",
"aR c #000000",
"aS c #000000",
"aT c #000000",
"aU c #000000",
"aV c #000000",
"aW c #000000",
"aX c #000000",
"aY c #000000",
"aZ c #000000",
"a0 c #000000",
"a1 c #000000",
"a2 c #000000",
"a3 c #000000",
"a4 c #000000",
"a5 c #000000",
"a6 c #000000",
"a7 c #000000",
"a8 c #000000",
/* pixels */
"`3`3`3`3`3`3`3`3`3`3`3`3`3`3`3`3`3`3`3`3`3`3`3`3`3`3`3`3`3`3`3`3`3`3`3`3`3`3`3`3`3`3`3`3`3`3`3`3`3`3`3`3`3`3`3`3`3`3`3`3`3`3`3`3",
"`3`3`3`3.E.7.E.N.N.N`x.w#f`3`3`3.r.y`6.D#j`n`N`T`6#O.D`u.c.D`u.D`3`P#y#Q`a#Q`P.t#K`a#C#K`a#C`3`3`3#K.z`P.o#Q.K#C`P#K#C`3`3`3`3`3",
"`3`3`3`3#g.p`y#b#b#b.L.Y#e`3`3`3#x.D#s.j`T`u#p.Q`T.F#p.R#s.P#I.R`3#L..#c.B..#c#L..#c`q.O`m#r`3`3`3`q.O`m`q#A`m`q#A`m`q`3`3`3`3`3",
"`3`3`3.N`L`y.e`I.G`I.A.u`U`F`3`3`n.b.R#h#I.R.Q.0.j.R.d`J`2.j#h`k`3`P`b`0#K`b`0#K`b`0#C`0#r`W`3`3`3#C`0#r#C`0#r#C`0#r.t`3`3`3`3`3",
"`3`3`3.J.T.n.J.J.J.J.n.J#P.T`3`3#x.v#F`v#d`S.Z#N#n#D#n.h.r#n#w`D`3`a#Q`P`a#Q`P`a.K`P.t#K#K#C`3`3`3`W#K#K`a#Q`P#C#Q`P#C`P#K#C`3`3",
"`3`3#P.T`w.5.5.5`#.5`#.5.5#P.N`3#x.v#p.d#d.Z.Z`5#o.Z#n.h`E#n.r`D`3`q#A`m`q#A`m`q#A`m.B#A`m#r`3`3`3`Z.8.O`q..`m.B#A`m`q..`m`q`3`3",
"`3`3#t.C#z#t.m.m#J#J.m#t.m#t`M`3#x.v#p`v#d`S.Z#N#o`j#n.h.r#n.r#G`3#C`0#r#C`0#r#C`0#r#C`0#r`W`3`3`3#m#L.##C`0#r#C`0#r#C`0#r#C`3`3",
"`3.E.7.E#.`r.C.C.C.C.C.C#.`x.w#f#O`2##`k.f#j#j`z`N#O#O`z#k.4#M`k`3#C#K#K`W#K#K`W#K#K#C#K#K#C`3`3`3`C`W#C`W#K`P`W#K#K`W#K#K`W`3`3",
"`3#g.p`y.V`7`7`7`7`7`7`7`7.L.Y`R#x.v.b`v#d`S.Z#N#o.Z#n.h.r#D.r.j`3`Z`A..`Z#A.O.#`A..`Z#H#l.z`3`3`3.#.g`V.#.8...#`A.O.##H#c.z`3`3",
"`3`L`y.e`c`c`c`c.V.q`c.V`c.A.u`U#x#s`h`2`5#q#E#v`s.`.M#N.r.k#w`D`3#m#L.#`f#L.##m#L.#`p`0.K`p`3`3`3#C.U`q#m.B`Z#m#L.#`p`0`P`p`3`3",
"`3`3.x`X#i`X#i#i#i`X`c#i`X#i`Q`3`Y.F.P`D`5#q#E#v`1.M#D`B.r`8.k`D`3`C`W`W.2`W#C`C`W`W`C.o.t.i`3`3`3#``f.W`C`W.W`C`W`W`C.o#C.i`3`3",
"`3`3`3.1.1.1`X.1`X`X`X.1`X`.`3`3#O.Q##`k.f#j#j`z.4#j#O`z#k#k#M`k`3`o.8..`Z.g#l`o#H#c.##H#l`o`3`3`3`3`3`3.#.g#l`o#H#c.##H#l`o`3`3",
"`3`3`3`t`R#u.X`l`l`l.H.S`G`e`3`3#x.v#F`v#d`S`j#N#o`j#n.h.r#n.r.j`3#C`0`q#C.U#r.o.U`Z`a`b.s#m`3`3`3`3`3`3#C.U`q#K.U`Z`a`b.s#m`3`3",
"`3`3`3`3`4.a#B`.`.`..S#a```3`3`3`6.v#F.j#d.M.3`B.r`s.k#x.h`8.r`D`3.2`f.W#``f.W#`.t.W#`.t.W.i`3`3`3`3`3`3#``f.W`C.t.W#`.t`f.i`3`3",
"`3`3`3`3#e`G#e.l.l.l`g```4`3`3`3.y#p.R#h`D#p.Q`k.R.R.d`J.j#I#h#h`3`3`3`3`3`3`3`3`3`3`3`3`3`3`3`3`3`3`3`3`3`3`3`3`3`3`3`3`3`3`3`3",
"`3`3`3`3`3`3`3`3`3`3`3`3`3`3`3`3`3`3`3`3`3`3`3`3`3`3`3`3`3`3`3`3`3`3`3`3`3`3`3`3`3`3`3`3`3`3`3`3`3`3`3`3`3`3`3`3`3`3`3`3`3`3`3`3"
};
