/* XPM */
static const char *sr_16_1_xpm[] = {
/* width height num_colors chars_per_pixel */
"    16    16      256            2",
/* colors */
"`` c None",
"`. c #c9c9c9",
"`# c #cacaca",
"`a c #aeaeae",
"`b c #dedede",
"`c c #b8b8b8",
"`d c #f7f7f7",
"`e c #fbfbfb",
"`f c #a4a4a4",
"`g c #dddddd",
"`h c #ececec",
"`i c #bdbdbd",
"`j c #f2f2f2",
"`k c #e3e3e3",
"`l c #a1a1a1",
"`m c #898989",
"`n c #f6f6f6",
"`o c #c7c7c7",
"`p c #cfcfcf",
"`q c #ffffff",
"`r c #b4b4b4",
"`s c #929292",
"`t c #c1c1c1",
"`u c #adadad",
"`v c #d7d7d7",
"`w c #fdfdfd",
"`x c #e1e1e1",
"`y c #d1d1d1",
"`z c #fcfcfc",
"`A c #b5b5b5",
"`B c #c0c0c0",
"`C c #939393",
"`D c #b7b7b7",
"`E c #fefefe",
"`F c #d9d9d9",
"`G c #d3d3d3",
"`H c #c8c8c8",
"`I c #dcdcdc",
"`J c #bcbcbc",
"`K c #b9b9b9",
"`L c #e6e6e6",
"`M c #ededed",
"`N c #cbcbcb",
"`O c #f9f9f9",
"`P c #d5d5d5",
"`Q c #797979",
"`R c #a0a0a0",
"`S c #bfbfbf",
"`T c #c3c3c3",
"`U c #e0e0e0",
"`V c #e9e9e9",
"`W c #9b9b9b",
"`X c #9a9a9a",
"`Y c #8c8c8c",
"`Z c #ebebeb",
"`0 c #f3f3f3",
"`1 c #eeeeee",
"`2 c #b0b0b0",
"`3 c #999999",
"`4 c #959595",
"`5 c #fafafa",
"`6 c #d4d4d4",
"`7 c #d2d2d2",
"`8 c #c5c5c5",
".` c #7b7b7b",
".. c #cdcdcd",
".# c #e2e2e2",
".a c #acacac",
".b c #c6c6c6",
".c c #9d9d9d",
".d c #858585",
".e c #aaaaaa",
".f c #979797",
".g c #626262",
".h c #a5a5a5",
".i c #f8f8f8",
".j c #f5f5f5",
".k c #8f8f8f",
".l c #f0f0f0",
".m c #a6a6a6",
".n c #f1f1f1",
".o c #f4f4f4",
".p c #dbdbdb",
".q c #949494",
".r c #767676",
".s c #bbbbbb",
".t c #dadada",
".u c #a9a9a9",
".v c #a8a8a8",
".w c #9c9c9c",
".x c #b2b2b2",
".y c #000000",
".z c #000000",
".A c #000000",
".B c #000000",
".C c #000000",
".D c #000000",
".E c #000000",
".F c #000000",
".G c #000000",
".H c #000000",
".I c #000000",
".J c #000000",
".K c #000000",
".L c #000000",
".M c #000000",
".N c #000000",
".O c #000000",
".P c #000000",
".Q c #000000",
".R c #000000",
".S c #000000",
".T c #000000",
".U c #000000",
".V c #000000",
".W c #000000",
".X c #000000",
".Y c #000000",
".Z c #000000",
".0 c #000000",
".1 c #000000",
".2 c #000000",
".3 c #000000",
".4 c #000000",
".5 c #000000",
".6 c #000000",
".7 c #000000",
".8 c #000000",
"#` c #000000",
"#. c #000000",
"## c #000000",
"#a c #000000",
"#b c #000000",
"#c c #000000",
"#d c #000000",
"#e c #000000",
"#f c #000000",
"#g c #000000",
"#h c #000000",
"#i c #000000",
"#j c #000000",
"#k c #000000",
"#l c #000000",
"#m c #000000",
"#n c #000000",
"#o c #000000",
"#p c #000000",
"#q c #000000",
"#r c #000000",
"#s c #000000",
"#t c #000000",
"#u c #000000",
"#v c #000000",
"#w c #000000",
"#x c #000000",
"#y c #000000",
"#z c #000000",
"#A c #000000",
"#B c #000000",
"#C c #000000",
"#D c #000000",
"#E c #000000",
"#F c #000000",
"#G c #000000",
"#H c #000000",
"#I c #000000",
"#J c #000000",
"#K c #000000",
"#L c #000000",
"#M c #000000",
"#N c #000000",
"#O c #000000",
"#P c #000000",
"#Q c #000000",
"#R c #000000",
"#S c #000000",
"#T c #000000",
"#U c #000000",
"#V c #000000",
"#W c #000000",
"#X c #000000",
"#Y c #000000",
"#Z c #000000",
"#0 c #000000",
"#1 c #000000",
"#2 c #000000",
"#3 c #000000",
"#4 c #000000",
"#5 c #000000",
"#6 c #000000",
"#7 c #000000",
"#8 c #000000",
"a` c #000000",
"a. c #000000",
"a# c #000000",
"aa c #000000",
"ab c #000000",
"ac c #000000",
"ad c #000000",
"ae c #000000",
"af c #000000",
"ag c #000000",
"ah c #000000",
"ai c #000000",
"aj c #000000",
"ak c #000000",
"al c #000000",
"am c #000000",
"an c #000000",
"ao c #000000",
"ap c #000000",
"aq c #000000",
"ar c #000000",
"as c #000000",
"at c #000000",
"au c #000000",
"av c #000000",
"aw c #000000",
"ax c #000000",
"ay c #000000",
"az c #000000",
"aA c #000000",
"aB c #000000",
"aC c #000000",
"aD c #000000",
"aE c #000000",
"aF c #000000",
"aG c #000000",
"aH c #000000",
"aI c #000000",
"aJ c #000000",
"aK c #000000",
"aL c #000000",
"aM c #000000",
"aN c #000000",
"aO c #000000",
"aP c #000000",
"aQ c #000000",
"aR c #000000",
"aS c #000000",
"aT c #000000",
"aU c #000000",
"aV c #000000",
"aW c #000000",
"aX c #000000",
"aY c #000000",
"aZ c #000000",
"a0 c #000000",
"a1 c #000000",
"a2 c #000000",
"a3 c #000000",
"a4 c #000000",
"a5 c #000000",
"a6 c #000000",
"a7 c #000000",
"a8 c #000000",
/* pixels */
"````````````````````````````````",
"```````````````.`#`a`b`c`d`e`f``",
"`````````````g`h`c`i`j`c`k`l`m``",
"```````````n`i`o`p`q`r`s`t`u`v``",
"`````````w`x`y`z`A`B`C`n`j`D`E``",
"```````q`F`c`G`m`H`I`J`q`n`K`L``",
"`````q`M`t`r`N`y`O`P`k`h`C`Q`R``",
"```q`M`S`T`U`U`F`V`W`X`A`Y`Z`q``",
"```0`1`N`P`q`a`2`3`4`5`q`a`5`q``",
"```n`6`7`6`8.``V..`I`d.#.a`q`q``",
"```j`V`D`W`c`I`e.b`E`z`H.c`u.d``",
"```B.a`W`q`i`E`q`C.e.f.g.h`U.i``",
"``.c`k.j`q`c.b.k.``6.l.m`n.n.o``",
"```Z.p...q.r`7.s.t`E`Z.u`q`q`U``",
"```U.v`J.w`z`d`a`0`e`6`8`q`n.x``",
"````````````````````````````````"
};
