/* XPM */
static const char *toolbox_16_xpm[] = {
/* width height num_colors chars_per_pixel */
"    16    16      256            2",
/* colors */
"`` c None",
"`. c #b0b0b0",
"`# c #aeaeae",
"`a c #ababab",
"`b c #a9a9a9",
"`c c #aaaaaa",
"`d c #979797",
"`e c #909090",
"`f c #8d8d8d",
"`g c #898989",
"`h c #8e8e8e",
"`i c #b9b9b9",
"`j c #c9c9c9",
"`k c #a4a4a4",
"`l c #929292",
"`m c #8b8b8b",
"`n c #868686",
"`o c #838383",
"`p c #808080",
"`q c #848484",
"`r c #8f8f8f",
"`s c #969696",
"`t c #9d9d9d",
"`u c #b5b5b5",
"`v c #9c9c9c",
"`w c #968972",
"`x c #b8a77b",
"`y c #b6a579",
"`z c #b4a377",
"`A c #b4a376",
"`B c #b4a275",
"`C c #b6a578",
"`D c #c6b486",
"`E c #decc9f",
"`F c #ddcba4",
"`G c #a6936b",
"`H c #e9dd8c",
"`I c #e6da7f",
"`J c #e7da80",
"`K c #e7da81",
"`L c #e7d97f",
"`M c #decb98",
"`N c #ac996e",
"`O c #e8dc86",
"`P c #e6d97d",
"`Q c #e5d87d",
"`R c #e6d97c",
"`S c #e5d673",
"`T c #ddcb9c",
"`U c #b4a273",
"`V c #dace7b",
"`W c #7e8173",
"`X c #666d72",
"`Y c #d3c772",
"`Z c #ddcc9e",
"`0 c #8c8c8c",
"`1 c #b9a574",
"`2 c #606772",
"`3 c #686f75",
"`4 c #626e83",
"`5 c #63728f",
"`6 c #6f7478",
"`7 c #5e667a",
"`8 c #c8b997",
".` c #baa66d",
".. c #e6d87b",
".# c #e5d776",
".a c #e4d572",
".b c #e4d570",
".c c #797b72",
".d c #6c7da6",
".e c #6b799b",
".f c #6c7795",
".g c #7b87af",
".h c #74787e",
".i c #dcc9a1",
".j c #bca460",
".k c #e2d16a",
".l c #e2d169",
".m c #e2d068",
".n c #807f71",
".o c #747b8d",
".p c #7a84aa",
".q c #8d896b",
".r c #b2a767",
".s c #7d829a",
".t c #888ba8",
".u c #757587",
".v c #8b8b8a",
".w c #bb9e4a",
".x c #dac14e",
".y c #dac14d",
".z c #d9c14d",
".A c #d9c04c",
".B c #878166",
".C c #7c7e8c",
".D c #8f94b7",
".E c #847e63",
".F c #a19457",
".G c #8b8ca3",
".H c #908ea3",
".I c #8b8791",
".J c #9d8c6f",
".K c #b39344",
".L c #b59645",
".M c #b49544",
".N c #b39543",
".O c #b29442",
".P c #b19341",
".Q c #756f6b",
".R c #aca9cb",
".S c #a3a1c0",
".T c #9f9bb9",
".U c #bab3d4",
".V c #888291",
".W c #7b7e96",
".X c #8d8ea4",
".Y c #9a97b2",
".Z c #aea7c4",
".0 c #9495aa",
".1 c #7d7e97",
".2 c #d9dae0",
".3 c #a6a7b7",
".4 c #82849a",
".5 c #000000",
".6 c #000000",
".7 c #000000",
".8 c #000000",
"#` c #000000",
"#. c #000000",
"## c #000000",
"#a c #000000",
"#b c #000000",
"#c c #000000",
"#d c #000000",
"#e c #000000",
"#f c #000000",
"#g c #000000",
"#h c #000000",
"#i c #000000",
"#j c #000000",
"#k c #000000",
"#l c #000000",
"#m c #000000",
"#n c #000000",
"#o c #000000",
"#p c #000000",
"#q c #000000",
"#r c #000000",
"#s c #000000",
"#t c #000000",
"#u c #000000",
"#v c #000000",
"#w c #000000",
"#x c #000000",
"#y c #000000",
"#z c #000000",
"#A c #000000",
"#B c #000000",
"#C c #000000",
"#D c #000000",
"#E c #000000",
"#F c #000000",
"#G c #000000",
"#H c #000000",
"#I c #000000",
"#J c #000000",
"#K c #000000",
"#L c #000000",
"#M c #000000",
"#N c #000000",
"#O c #000000",
"#P c #000000",
"#Q c #000000",
"#R c #000000",
"#S c #000000",
"#T c #000000",
"#U c #000000",
"#V c #000000",
"#W c #000000",
"#X c #000000",
"#Y c #000000",
"#Z c #000000",
"#0 c #000000",
"#1 c #000000",
"#2 c #000000",
"#3 c #000000",
"#4 c #000000",
"#5 c #000000",
"#6 c #000000",
"#7 c #000000",
"#8 c #000000",
"a` c #000000",
"a. c #000000",
"a# c #000000",
"aa c #000000",
"ab c #000000",
"ac c #000000",
"ad c #000000",
"ae c #000000",
"af c #000000",
"ag c #000000",
"ah c #000000",
"ai c #000000",
"aj c #000000",
"ak c #000000",
"al c #000000",
"am c #000000",
"an c #000000",
"ao c #000000",
"ap c #000000",
"aq c #000000",
"ar c #000000",
"as c #000000",
"at c #000000",
"au c #000000",
"av c #000000",
"aw c #000000",
"ax c #000000",
"ay c #000000",
"az c #000000",
"aA c #000000",
"aB c #000000",
"aC c #000000",
"aD c #000000",
"aE c #000000",
"aF c #000000",
"aG c #000000",
"aH c #000000",
"aI c #000000",
"aJ c #000000",
"aK c #000000",
"aL c #000000",
"aM c #000000",
"aN c #000000",
"aO c #000000",
"aP c #000000",
"aQ c #000000",
"aR c #000000",
"aS c #000000",
"aT c #000000",
"aU c #000000",
"aV c #000000",
"aW c #000000",
"aX c #000000",
"aY c #000000",
"aZ c #000000",
"a0 c #000000",
"a1 c #000000",
"a2 c #000000",
"a3 c #000000",
"a4 c #000000",
"a5 c #000000",
"a6 c #000000",
"a7 c #000000",
"a8 c #000000",
/* pixels */
"````````````````````````````````",
"```.`.`#`a`b`c``````````````````",
"```b`d`e`f`g`h`i`j`j`j`j````````",
"```k`l`m`n`o`p`q`r`l`s`t`u``````",
"```v`w`x`y`z`A`B`B`A`C`x`D`E`F``",
"```s`G`H`I`I`J`J`J`J`J`K`K`L`M``",
"```l`N`O`P`P`P`P`P`P`Q`Q`R`S`T``",
"```h`U`K`P`P`P`P`V`Q`W`X`S`Y`Z``",
"```0`1`P`P`P`P`R`2`3`4`5`6`7`8``",
"```g.`...#`S.a.b.c.d.e.f.g.h.i``",
"```g.j.k.l.l.m.n.o.p.q.r.s.t.u``",
"``.v.w.x.y.z.A.B.C.D.E.F.G.H.I``",
"``.J.K.L.M.N.O.P.Q.R.S.T.U.V````",
"````````````````.W.X.Y.Z.0.1.2``",
"````````````````````.3.4````````",
"````````````````````````````````"
};
