/* XPM */
static const char *toolbox_48_xpm[] = {
/* width height num_colors chars_per_pixel */
"    48    48      256            2",
/* colors */
"`` c None",
"`. c #7482a4",
"`# c #dcc264",
"`a c #fce284",
"`b c #b4c2e4",
"`c c #c4aa54",
"`d c #ecd274",
"`e c #acb2d4",
"`f c #dce2fc",
"`g c #e4d294",
"`h c #8c9abc",
"`i c #d4c294",
"`j c #ccb67c",
"`k c #444e74",
"`l c #5c6a8c",
"`m c #dcceb4",
"`n c #d4b65c",
"`o c #fcf2ac",
"`p c #f4da74",
"`q c #fcf2c4",
"`r c #e4ca6c",
"`s c #9ca6c4",
"`t c #848eac",
"`u c #c4d2f4",
"`v c #e4da9c",
"`w c #dcca8c",
"`x c #d4b25c",
"`y c #6c7694",
"`z c #ece2a4",
"`A c #ccb25c",
"`B c #545e84",
"`C c #f4da84",
"`D c #acbadc",
"`E c #ecf2fc",
"`F c #e4ca84",
"`G c #c4aa64",
"`H c #dcba64",
"`I c #dccaa4",
"`J c #bccaec",
"`K c #4c567c",
"`L c #d4dafc",
"`M c #fcfac4",
"`N c #a4aecc",
"`O c #f4de94",
"`P c #848aac",
"`Q c #fcea9c",
"`R c #ecd28c",
"`S c #9ca2c4",
"`T c #ccb66c",
"`U c #fcfabc",
"`V c #ecca6c",
"`W c #8c96b4",
"`X c #747e9c",
"`Y c #7c8aac",
"`Z c #f4e294",
"`0 c #f4e6cc",
"`1 c #e4d6a4",
"`2 c #94a2c4",
"`3 c #d4be7c",
"`4 c #6c7294",
"`5 c #ecdabc",
"`6 c #fcf2bc",
"`7 c #fcda74",
"`8 c #a4aacc",
".` c #ccdafc",
".. c #ecda94",
".# c #fcde84",
".a c #b4badc",
".b c #7c82a4",
".c c #dcc67c",
".d c #bcc2e4",
".e c #ccae5c",
".f c #acb6d4",
".g c #e4eafc",
".h c #949abc",
".i c #d4c29c",
".j c #646a8c",
".k c #8c92b4",
".l c #ccd2f4",
".m c #e4ce9c",
".n c #747a9c",
".o c #f4eeb4",
".p c #ccae64",
".q c #dccea4",
".r c #545a7c",
".s c #fcfad4",
".t c #ecce6c",
".u c #ecdea4",
".v c #b4bedc",
".w c #e4c26c",
".x c #c4ae5c",
".y c #f4d274",
".z c #e4d69c",
".A c #4c5274",
".B c #e4d6b4",
".C c #d4ba64",
".D c #fcf6b4",
".E c #fcf6c4",
".F c #9caacc",
".G c #8492b4",
".H c #dcce8c",
".I c #6c7a9c",
".J c #5c668c",
".K c #f4de8c",
".L c #ecce7c",
".M c #c4ae64",
".N c #c4caec",
".O c #f4d684",
".P c #d4ba6c",
".Q c #fce294",
".R c #d4be94",
".S c #fcde7c",
".T c #ecde9c",
".U c #7c86a4",
".V c #bcc6ec",
".W c #949ebc",
".X c #646e94",
".Y c #ccd6fc",
".Z c #fcfedc",
".0 c #fce28c",
".1 c #c4aa5c",
".2 c #acb2dc",
".3 c #dce6fc",
".4 c #e4d29c",
".5 c #dcc28c",
".6 c #ccb68c",
".7 c #d4b664",
".8 c #fcf2b4",
"#` c #f4da7c",
"#. c #fcfaec",
"## c #fce6a4",
"#a c #fceea4",
"#b c #5c6284",
"#c c #ccba74",
"#d c #ecdec4",
"#e c #d4c6a4",
"#f c #c4cef4",
"#g c #e4ce84",
"#h c #dcbe64",
"#i c #4c5a7c",
"#j c #d4defc",
"#k c #ecd68c",
"#l c #fcf6bc",
"#m c #e4eefc",
"#n c #e4c66c",
"#o c #f4d674",
"#p c #e4ca74",
"#q c #9ca6cc",
"#r c #848eb4",
"#s c #dcca94",
"#t c #6c769c",
"#u c #ccb264",
"#v c #f4da8c",
"#w c #dccaac",
"#x c #a4aed4",
"#y c #f4de9c",
"#z c #ecca74",
"#A c #8c96bc",
"#B c #747ea4",
"#C c #e4d6ac",
"#D c #d4be84",
"#E c #fcda7c",
"#F c #a4aad4",
"#G c #ecda9c",
"#H c #fcde8c",
"#I c #b4bae4",
"#J c #bcc2ec",
"#K c #acb6dc",
"#L c #646a94",
"#M c #ccd2fc",
"#N c #dcceac",
"#O c #545a84",
"#P c #fcfadc",
"#Q c #ecce74",
"#R c #b4bee4",
"#S c #4c527c",
"#T c #e4d6bc",
"#U c #fcf6cc",
"#V c #c4ae6c",
"#W c #fce29c",
"#X c #7c86ac",
"#Y c #949ec4",
"#Z c #000000",
"#0 c #000000",
"#1 c #000000",
"#2 c #000000",
"#3 c #000000",
"#4 c #000000",
"#5 c #000000",
"#6 c #000000",
"#7 c #000000",
"#8 c #000000",
"a` c #000000",
"a. c #000000",
"a# c #000000",
"aa c #000000",
"ab c #000000",
"ac c #000000",
"ad c #000000",
"ae c #000000",
"af c #000000",
"ag c #000000",
"ah c #000000",
"ai c #000000",
"aj c #000000",
"ak c #000000",
"al c #000000",
"am c #000000",
"an c #000000",
"ao c #000000",
"ap c #000000",
"aq c #000000",
"ar c #000000",
"as c #000000",
"at c #000000",
"au c #000000",
"av c #000000",
"aw c #000000",
"ax c #000000",
"ay c #000000",
"az c #000000",
"aA c #000000",
"aB c #000000",
"aC c #000000",
"aD c #000000",
"aE c #000000",
"aF c #000000",
"aG c #000000",
"aH c #000000",
"aI c #000000",
"aJ c #000000",
"aK c #000000",
"aL c #000000",
"aM c #000000",
"aN c #000000",
"aO c #000000",
"aP c #000000",
"aQ c #000000",
"aR c #000000",
"aS c #000000",
"aT c #000000",
"aU c #000000",
"aV c #000000",
"aW c #000000",
"aX c #000000",
"aY c #000000",
"aZ c #000000",
"a0 c #000000",
"a1 c #000000",
"a2 c #000000",
"a3 c #000000",
"a4 c #000000",
"a5 c #000000",
"a6 c #000000",
"a7 c #000000",
"a8 c #000000",
/* pixels */
"``````````````````````````````````````````````````````````````````````````#T.q.6`I#.````````````",
"````````````````````````````````````````````````````````````#w.R`j.p.p`G`c.1`G.H.E.Z````````````",
"````````````````````````````````````````````.B.m.5`3.7.7`x.7`A.e.e.e.x.e`G`w.o`M`M#P````````````",
"``````````````````````````````#C`F`F#z.y.y.y`V`r#n.w#h.P.7`A`A`A.e.e#u.H#l`M`U`M`U#P````````````",
"````````````````````````.5#E.##E#E#E#`#E#o`d.t`V.w`##h`H.7`x`A.e#c.z#l`M`U`M`U#l`M#P````````````",
"```````````````````````I.#.#.#.K.##`#E`p.y.y`V`r#n.w#h.C.7`A#u`v#l#l`U#l.E#l`U.E`U#P````````````",
"``````````````````````.i.#.K.#.S#E#E#E`p#o.y.t`r#n#h#h.C.7.e.4#l`U#l`U#l`U`U#l`U#l#P````````````",
"``````````````````````.i`a.#.#.##`.S`p#E#o#Q.t`V#n.w#h`H`n.M.u`U#l`U#l`U#l#l`U#l`U.s````````````",
"``````````````````````.i#H.#.K.S#E#E#E`p#o.y`V`r#n#h#h.C.7.M`z#l#l#l#l#l`U#l#l.D#l#P````````````",
"``````````````````````.i`a.#.#.S#`.S#``7#o.y.t`V#n.w#h.C`n.p.u.D.D.D.D.D.D.D.D.D.D.s````````````",
"``````````````````````.i`a.#.#.#.S#E#E`p#o.y`V`r#n`##h`H.7`G`z.8.D.8.D.8.8.D.8.D.8.s````````````",
"``````````````````````.i#H.#.K.S#`#``7#`.y.y.t`V#n.w#h.C.C.1.u.8.8.8.8.D.8.8.8.8.8.s````````````",
"``````````````````````.i`a.#.#.##E.S#E`7#o.y.t`r#n.w#h`H.7.e.T.D`o.D`o`o`o`o.D`o`o#U````````````",
"``````````````````````.i.0.#.#.K#E#`#E#`#o.y#Q`V#n.w`#.C.C`G.T`o`o`o`o`o`o`o`o`o`o#U````````````",
"``````````````````````.i`a.#.#.S.S#`.S`7#o#o.t.t#n`#`#`H.C.e#G`o#a`o#a`o#a`o#a`o#a#U````````````",
"``````````````````````.i.0.#.#.K#E.S#``7#o.y.t`r`r.w#h#h.7`G..#a#a#a#a#a#a#a#a#a`o#U````````````",
"``````````````````````.i`a.#.#.S#E.S#`#E#o.y#Q`V#n.w#h#h.7.e#G#a#a#a#a#a#a#a#a#a#a#U````````````",
"``````````````````````.i.0.#.#.K#E.S#E`p#o.y.t.t#n#n#h`H.C`G..#a#a#a#a#a#a#a#a#a#a#U````````````",
"``````````````````````.i.##H.K.S#`#E#``7#o#o#Q`V#n.w`#.C.C.e..#a#a#a`Q#a#a`Q#a`Q#a`q````````````",
"``````````````````````.i`a.#.#.#.S.S#`#E#o#o.t`V`r.w#h#h.C.p#k`Q`Q.N#j#j`Q`Q`Q`Q`Q#U````````````",
"``````````````````````.i.0.#.#.K#E#E.S`7#o.y#Q`r#n#n#h`H.7.1#k`Q.N`L.3.g#f`Q`Q`Q`Q`q````````````",
"``````````````````````.i`a#H.S.S#`#E#``7#o#o.t`V#n.w`#.h#x#x#k`Q`D`L.3.g.Y`Q`Q#j.g`f````````````",
"``````````````````````.i`a#H.#.#.##`.S#`#o.y#Q`V`r.w`##x`e.f.2#x.N`L.3.g.g#j`f.g#m#m.a``````````",
"``````````````````````.i.0.#.#.K#E.S`7#E#o#o.t`V#n#n#h`s#x#x`D#J#f.`.3#m#m#m#m`E`E.g#F``````````",
"``````````````````````.i`a.0.K.S.S#`#`#E#o#o#Q.t`r.w`#.h#q#x`e`N`h`P`P#r#q.N`E#m.g#j#K``````````",
"``````````````````````.i.0.#.S.#.K.S#E.S#o#o.y#A#A`t`P`S`S#A#B#b.J#B`Y`P#B`4.G#R.g`f#f.N.N.N````",
"``````````````````````.i`a#H`a.K`7.S#``7`7.y`S#x`N#F#q#q`Y.J`B.U#q.V`L`L#M`D`P#t#x`f#j`L#j`L#J``",
"``````````````````````.5#H.K.#.S#E#`.S#E#o#o.h`b.a`8#q#r.j.J.k#I#M`u.V`u.g.g.Y#Y#t#x#j#j`L#j#x``",
"````````````````````#w#g.0`a.#.K.S.S#`#E`p#o#B.h#R#x#x.n.J`W#K`D.X.j.j.j#B#J.3#M`W.b`J`L#j.2`4``",
"``````````````````.5#H.0`a#H.#.S.##E#E#E#o#o#Q.J`e#K#Y.X`Y`e.F.X`a`a.K`a`a.J.f#j#R#B#F.`.Y.X````",
"````````````````#T#v`Z.0.0.K`a.K#E#`#``7`p#o.y.h`D#I#A`y`8#K#t.1.L.#`a.#`a.#`l#f.Y.h#r#f.N`e````",
"````````````````#w.K.0.0`a.#.#.S.#.S.S#E#o#F#K`b.d#R.G`P#R`s`A.1`F.S.K.S.#.K.S#F.l#q.U.d#f`J#J#R",
"````````````````#w.Q.0.0.0`Z.S.#.K#E#`#E`N`J.N.V.V`b#r.h.V`S#u.e#p.S.#.S.#.S.#`Y.N#x.b#I#f.N.N.N",
"````````````````#w.K.Q`Z`a.#.#.K`7.S#``7.2.l.Y.l#f.N.h#Y#f`8`A.1#z.#.S#`.S.S.S.b#J#q#X.a`J#f`u#M",
"````````````````#w`Z.0.0`a#H`a.S.##`#E#E`p.b#q.V.Y#f#x.W#f.d#u.1#z#`.S.S#E#`.S.k#x`h#r.a.V#R#Y#t",
"````````````````#w#H.Q.0`Z.#.K.#.S.S#`#E`p#o.r.t.l.l`J`P.V#f`n.1#p#E#`#E#`.S#``S#q#B`8#K.a#b````",
"````````````````#w`Z.0.0`a`a.#.#.K#E.S#E`p#o.y#Q.N`u.l#Y`8.V#R.1#z`7#E`7`7#E.W`S.k#B`D`8.F``````",
"````````````````#w`Z.0.0.0.K`a.#.S#`#E#``7#o.y`b.N#f.N#f#X`e.d#I`r`7`p#E`2`S`2#Y#t.f#x#q#q`S````",
"`````````````````m`O.0.Q.0.#.#.K.S.S#E#E`p#o#K#f.V.V.V#f.N#X`N#I#I.2`N#F#q#q.h#t#q.a#q`s#q#q#Y``",
"````````````````#w`O.0.0`Z`a.#.#.##`.S#``7#o#B.N#f.N.N`J#f.l`P#r`s`N.F#q.h`Y#t.a#R`N#K#R#R.v.b``",
"````````````````#T.K.Q.0`a#H`a.K.S#E#`#E`7#o.y`P`P#i`4#R.v.V.Y#R#A#B#X#B#X`8#f`D`S.F.n`K.b#r`P``",
"`````````````````5.K.0.0.0.K.#.#.S.##E#E`p#o.y#Q`r#n`k#q`e#x`N#K.N#M.Y.l.V`e#Y.h.h#A.j``````````",
"````````````````#d#v.Q`Z`a.0.#.K.S#`#`#E`7#o`d.t`V#p`R#Y`s#q#q#q`S#Y.h.h#Y`2#Y#A.k#r````````````",
"```````````````````R.0.0.0.#`a.#.#.S#E#`#E#`#v``````.b#A.h#A#r`4.k.G.G.G.k`4.b#A.G#r````````````",
"````````````````````#y.0.0.K.#.K.S`C.Q```````````````P.n#r#r`k.r.X.U.b.b.I#O`K.b`P#B````````````",
"```````````````````````0#k#H##`````````````````````````4`K#b````#B.n#t#t.n````.j`K.j````````````",
"````````````````````````````````````````````````````````````````#X.n#B`X#B``````````````````````",
"``````````````````````````````````````````````````````````````````.r.A#S````````````````````````"
};
