/* XPM */
static const char *toolbox_16_xpm[] = {
/* width height num_colors chars_per_pixel */
"    16    16      256            2",
/* colors */
"`` c #aeaeae",
"`. c #b0b0b0",
"`# c #adadad",
"`a c #ababab",
"`b c #a9a9a9",
"`c c #afafaf",
"`d c None",
"`e c #b2b2b2",
"`f c #9e9e9e",
"`g c #999999",
"`h c #949494",
"`i c #919191",
"`j c #8f8f8f",
"`k c #979797",
"`l c #8e8e8e",
"`m c #898989",
"`n c #858585",
"`o c #838383",
"`p c #8a8a8a",
"`q c #969696",
"`r c #989898",
"`s c #9a9a9a",
"`t c #9d9d9d",
"`u c #8b847b",
"`v c #888177",
"`w c #847c72",
"`x c #817a70",
"`y c #81796f",
"`z c #80786e",
"`A c #827b71",
"`B c #867e74",
"`C c #8a8278",
"`D c #8d857c",
"`E c #e9e2d8",
"`F c #f1eae0",
"`G c #a5a5a5",
"`H c #8c8781",
"`I c #ceb77a",
"`J c #decc86",
"`K c #decc87",
"`L c #decc88",
"`M c #decd88",
"`N c #e1cf8b",
"`O c #e2d18e",
"`P c #d6c091",
"`Q c #a1a1a1",
"`R c #867e72",
"`S c #dece88",
"`T c #e6d97d",
"`U c #e8da84",
"`V c #dac79b",
"`W c #8a7c66",
"`X c #e4d58c",
"`Y c #e4d77d",
"`Z c #cec479",
"`0 c #e5d87d",
"`1 c #e6d879",
"`2 c #e8db84",
"`3 c #dac69d",
"`4 c #9c9c9c",
"`5 c #928060",
"`6 c #e8db91",
"`7 c #dace7b",
"`8 c #dfd37c",
".` c #a8a375",
".. c #4b5976",
".# c #aba672",
".a c #dacd6f",
".b c #dcd085",
".c c #dac6a0",
".d c #98825b",
".e c #eade8f",
".f c #5e646f",
".g c #656b74",
".h c #636a76",
".i c #5c719b",
".j c #676e77",
".k c #656a74",
".l c #decdae",
".m c #9d885d",
".n c #e8dc87",
".o c #e6d87b",
".p c #e5d777",
".q c #e5d775",
".r c #e5d673",
".s c #e4d571",
".t c #75776f",
".u c #6779a3",
".v c #6c7da6",
".w c #6b7aa2",
".x c #7583ab",
".y c #7683aa",
".z c #7c7c74",
".A c #e6d9c4",
".B c #a38e5e",
".C c #e4d570",
".D c #9d986f",
".E c #6a6f77",
".F c #7a87ae",
".G c #6d717c",
".H c #94906f",
".I c #6f727e",
".J c #8b93b9",
".K c #70727e",
".L c #9897a2",
".M c #969695",
".N c #a78f57",
".O c #ddc95c",
".P c #ddc85a",
".Q c #ddc859",
".R c #ddc758",
".S c #5e6272",
".T c #7f88ad",
".U c #8c93b8",
".V c #7e7b6a",
".W c #dcc655",
".X c #7e7b6c",
".Y c #9d9fc2",
".Z c #9192b1",
".0 c #6b6e87",
".1 c #989796",
".2 c #aa8d47",
".3 c #d6ba42",
".4 c #d6ba41",
".5 c #c2aa45",
".6 c #74716b",
".7 c #9fa1c4",
".8 c #828190",
"#` c #7c776d",
"#. c #878593",
"## c #b0adce",
"#a c #787273",
"#b c #c2bcb1",
"#c c #ab9058",
"#d c #ab915b",
"#e c #a9905a",
"#f c #a88e58",
"#g c #a78e57",
"#h c #a78d56",
"#i c #a58c56",
"#j c #6c6971",
"#k c #aba7c8",
"#l c #b6b1d2",
"#m c #bab4d4",
"#n c #beb6d6",
"#o c #b8afcf",
"#p c #828092",
"#q c #82849a",
"#r c #8b8da2",
"#s c #86879d",
"#t c #b6adcc",
"#u c #82839a",
"#v c #9698aa",
"#w c #85869c",
"#x c #dfe0e5",
"#y c #6d6f8a",
"#z c #c4c5cf",
"#A c #000000",
"#B c #000000",
"#C c #000000",
"#D c #000000",
"#E c #000000",
"#F c #000000",
"#G c #000000",
"#H c #000000",
"#I c #000000",
"#J c #000000",
"#K c #000000",
"#L c #000000",
"#M c #000000",
"#N c #000000",
"#O c #000000",
"#P c #000000",
"#Q c #000000",
"#R c #000000",
"#S c #000000",
"#T c #000000",
"#U c #000000",
"#V c #000000",
"#W c #000000",
"#X c #000000",
"#Y c #000000",
"#Z c #000000",
"#0 c #000000",
"#1 c #000000",
"#2 c #000000",
"#3 c #000000",
"#4 c #000000",
"#5 c #000000",
"#6 c #000000",
"#7 c #000000",
"#8 c #000000",
"a` c #000000",
"a. c #000000",
"a# c #000000",
"aa c #000000",
"ab c #000000",
"ac c #000000",
"ad c #000000",
"ae c #000000",
"af c #000000",
"ag c #000000",
"ah c #000000",
"ai c #000000",
"aj c #000000",
"ak c #000000",
"al c #000000",
"am c #000000",
"an c #000000",
"ao c #000000",
"ap c #000000",
"aq c #000000",
"ar c #000000",
"as c #000000",
"at c #000000",
"au c #000000",
"av c #000000",
"aw c #000000",
"ax c #000000",
"ay c #000000",
"az c #000000",
"aA c #000000",
"aB c #000000",
"aC c #000000",
"aD c #000000",
"aE c #000000",
"aF c #000000",
"aG c #000000",
"aH c #000000",
"aI c #000000",
"aJ c #000000",
"aK c #000000",
"aL c #000000",
"aM c #000000",
"aN c #000000",
"aO c #000000",
"aP c #000000",
"aQ c #000000",
"aR c #000000",
"aS c #000000",
"aT c #000000",
"aU c #000000",
"aV c #000000",
"aW c #000000",
"aX c #000000",
"aY c #000000",
"aZ c #000000",
"a0 c #000000",
"a1 c #000000",
"a2 c #000000",
"a3 c #000000",
"a4 c #000000",
"a5 c #000000",
"a6 c #000000",
"a7 c #000000",
"a8 c #000000",
/* pixels */
"```.```#`a`b`c`d`d`d`d`d`d`d`d`d",
"`e`f`g`h`i`j`k`d`d`d`d`d`d`d`d`d",
"`#`h`l`m`n`o`o`p`q`r`s`t`r`d`d`d",
"`b`l`u`v`w`x`y`z`y`A`B`C`D`E`F`d",
"`G`H`I`J`K`K`K`K`K`L`L`M`M`N`O`P",
"`Q`R`S`T`T`T`T`T`T`T`T`T`T`T`U`V",
"`f`W`X`T`T`T`T`T`T`T`Y`Z`0`1`2`3",
"`4`5`6`T`T`T`T`T`7`8.`...#.a.b.c",
"`g.d.e`T`T`T`T`0.f.g.h.i.j.h.k.l",
"`q.m.n.o.p.q.r.s.t.u.v.w.x.y.z.A",
"`h.B`1.C.C.C.C.D.E.F.G.H.I.J.K.L",
".M.N.O.P.Q.R.R.S.T.U.V.W.X.Y.Z.0",
".1.2.3.4.4.4.4.5.6.7.8#`#.###a`d",
"#b#c#d#e#f#g#h#i#j#k#l#m#n#o#p`d",
"`d`d`d`d`d`d`d`d#q#r#s#t#u#v#w`d",
"`d`d`d`d`d`d`d`d`d`d#x#y#z`d`d`d"
};
