/* XPM */
static const char *toolbox_16_xpm[] = {
/* width height num_colors chars_per_pixel */
"    16    16      256            2",
/* colors */
"`` c None",
"`. c #fcfaf3",
"`# c #f7f0df",
"`a c #efe5c9",
"`b c #e6d8b3",
"`c c #dccb9d",
"`d c #d3c088",
"`e c #d8c890",
"`f c #fbf7de",
"`g c #f3e9d1",
"`h c #f0d993",
"`i c #f1d47d",
"`j c #f4d474",
"`k c #e8c96c",
"`l c #dcbd66",
"`m c #d0b360",
"`n c #dcc981",
"`o c #f5ecaf",
"`p c #fff9bf",
"`q c #fffcdd",
"`r c #eddeb5",
"`s c #fade82",
"`t c #fadb7c",
"`u c #f5d574",
"`v c #dcbe66",
"`w c #d7c076",
"`x c #fff7bb",
"`y c #fffbdb",
"`z c #eedeb5",
"`A c #f5d675",
"`B c #e8ca6c",
"`C c #d8c077",
"`D c #fef4b3",
"`E c #fffad8",
"`F c #eedfb5",
"`G c #fade83",
"`H c #fadc7c",
"`I c #f6d675",
"`J c #e9cb6d",
"`K c #ddbf67",
"`L c #d8c075",
"`M c #fdf1ac",
"`N c #fef8d4",
"`O c #d8bf73",
"`P c #fdeea4",
"`Q c #fef7d0",
"`R c #fadc7d",
"`S c #f6d776",
"`T c #debf67",
"`U c #d8bf71",
"`V c #fceb9d",
"`W c #fef5cc",
"`X c #eacb6d",
"`Y c #9a9bdc",
"`Z c #a0a4e1",
"`0 c #7a7ecd",
"`1 c #5e5da0",
"`2 c #fbdf84",
"`3 c #f7d876",
"`4 c #a7a5e3",
"`5 c #9d9eda",
"`6 c #7e81cf",
"`7 c #5c5b9d",
"`8 c #faf6ed",
".` c #eed99a",
".. c #b7b8e9",
".# c #9190d9",
".a c #b4b5f4",
".b c #a7a8ec",
".c c #8588dc",
".d c #777dd5",
".e c #6d6cc1",
".f c #7272bf",
".g c #7372bc",
".h c #ede0bc",
".i c #fbe28c",
".j c #8d8fdc",
".k c #a5a3e4",
".l c #a7a7ef",
".m c #6e6ba9",
".n c #515281",
".o c #5b5c91",
".p c #5756b0",
".q c #36356d",
".r c #ece0bc",
".s c #fbdf85",
".t c #fadc7e",
".u c #8586d2",
".v c #8c8edf",
".w c #3f3f73",
".x c #8d9cc1",
".y c #8a95c2",
".z c #6e6ecc",
".A c #ece0bd",
".B c #fbe28d",
".C c #8586db",
".D c #7775bf",
".E c #4d4d85",
".F c #404973",
".G c #6367a8",
".H c #6363c3",
".I c #efe3c0",
".J c #555797",
".K c #494982",
".L c #6a6ebf",
".M c #5e61ba",
".N c #656ebe",
".O c #6f70d9",
".P c #8285b2",
".Q c #f5edd5",
".R c #fae28e",
".S c #f9dd82",
".T c #555692",
".U c #6662b0",
".V c #3c3c70",
".W c #535294",
".X c #fbf6e8",
".Y c #fdf6e0",
".Z c #696b9e",
".0 c #606198",
".1 c #b2b5d2",
".2 c #000000",
".3 c #000000",
".4 c #000000",
".5 c #000000",
".6 c #000000",
".7 c #000000",
".8 c #000000",
"#` c #000000",
"#. c #000000",
"## c #000000",
"#a c #000000",
"#b c #000000",
"#c c #000000",
"#d c #000000",
"#e c #000000",
"#f c #000000",
"#g c #000000",
"#h c #000000",
"#i c #000000",
"#j c #000000",
"#k c #000000",
"#l c #000000",
"#m c #000000",
"#n c #000000",
"#o c #000000",
"#p c #000000",
"#q c #000000",
"#r c #000000",
"#s c #000000",
"#t c #000000",
"#u c #000000",
"#v c #000000",
"#w c #000000",
"#x c #000000",
"#y c #000000",
"#z c #000000",
"#A c #000000",
"#B c #000000",
"#C c #000000",
"#D c #000000",
"#E c #000000",
"#F c #000000",
"#G c #000000",
"#H c #000000",
"#I c #000000",
"#J c #000000",
"#K c #000000",
"#L c #000000",
"#M c #000000",
"#N c #000000",
"#O c #000000",
"#P c #000000",
"#Q c #000000",
"#R c #000000",
"#S c #000000",
"#T c #000000",
"#U c #000000",
"#V c #000000",
"#W c #000000",
"#X c #000000",
"#Y c #000000",
"#Z c #000000",
"#0 c #000000",
"#1 c #000000",
"#2 c #000000",
"#3 c #000000",
"#4 c #000000",
"#5 c #000000",
"#6 c #000000",
"#7 c #000000",
"#8 c #000000",
"a` c #000000",
"a. c #000000",
"a# c #000000",
"aa c #000000",
"ab c #000000",
"ac c #000000",
"ad c #000000",
"ae c #000000",
"af c #000000",
"ag c #000000",
"ah c #000000",
"ai c #000000",
"aj c #000000",
"ak c #000000",
"al c #000000",
"am c #000000",
"an c #000000",
"ao c #000000",
"ap c #000000",
"aq c #000000",
"ar c #000000",
"as c #000000",
"at c #000000",
"au c #000000",
"av c #000000",
"aw c #000000",
"ax c #000000",
"ay c #000000",
"az c #000000",
"aA c #000000",
"aB c #000000",
"aC c #000000",
"aD c #000000",
"aE c #000000",
"aF c #000000",
"aG c #000000",
"aH c #000000",
"aI c #000000",
"aJ c #000000",
"aK c #000000",
"aL c #000000",
"aM c #000000",
"aN c #000000",
"aO c #000000",
"aP c #000000",
"aQ c #000000",
"aR c #000000",
"aS c #000000",
"aT c #000000",
"aU c #000000",
"aV c #000000",
"aW c #000000",
"aX c #000000",
"aY c #000000",
"aZ c #000000",
"a0 c #000000",
"a1 c #000000",
"a2 c #000000",
"a3 c #000000",
"a4 c #000000",
"a5 c #000000",
"a6 c #000000",
"a7 c #000000",
"a8 c #000000",
/* pixels */
"`````````````.`#`a`b`c`d`e`f````",
"```````g`h`i`j`k`l`m`n`o`p`q````",
"```````r`s`t`u`k`v`w`x`x`x`y````",
"```````z`s`t`A`B`v`C`D`D`D`E````",
"```````F`G`H`I`J`K`L`M`M`M`N````",
"```````F`G`H`I`J`K`O`P`P`P`Q````",
"```````F`G`R`S`J`T`U`V`V`V`W````",
"```````F`G`R`S`X`T`Y`Z`V`0`1````",
"```````F`2`R`3`X`T`4`5`6`0`7````",
"`````8.``2`R`3...#.a.b.c.d.e.f.g",
"````.h.i`2`R`3.j.k.l.m.n.o.e.p.q",
"````.r.i.s.t`3`X.u.v.w.x.y.z.p``",
"````.A.B.s.t`3.C.D.C.E.F.G.H.p.p",
"````.I.B.s.t`3.J.K.L.M.N.O.H.P.q",
"````.Q.R.s.S`3`X`T.T.U.V.W.V````",
"``````.X.Y````````.Z.0``.1.W````"
};
