/* XPM */
static const char *views16_xpm[] = {
/* width height num_colors chars_per_pixel */
"    16    16      256            2",
/* colors */
"`` c None",
"`. c #adbdc9",
"`# c #1474d2",
"`a c #a0b7ca",
"`b c #0169ce",
"`c c #016acf",
"`d c #0e6fcd",
"`e c #0167cc",
"`f c #017bdf",
"`g c #ffffff",
"`h c #feffff",
"`i c #f3f9ff",
"`j c #eff8ff",
"`k c #e5f2ff",
"`l c #9999cc",
"`m c #0b7fe2",
"`n c #f9fcff",
"`o c #019901",
"`p c #e1f0ff",
"`q c #f0f8ff",
"`r c #d6eaff",
"`s c #a8adb3",
"`t c #ebf5ff",
"`u c #d2e9ff",
"`v c #f6fbff",
"`w c #e2f0ff",
"`x c #eaf5ff",
"`y c #d9ecff",
"`z c #c5e2ff",
"`A c #c8e3ff",
"`B c #c2e1ff",
"`C c #ff7a4c",
"`D c #013499",
"`E c #d3e9ff",
"`F c #cc9901",
"`G c #b7dbff",
"`H c #e3eef9",
"`I c #cae5ff",
"`J c #b3daff",
"`K c #afb1b3",
"`L c #e7f3ff",
"`M c #d4e0ec",
"`N c #a0aab3",
"`O c #a9d4ff",
"`P c #e3f1ff",
"`Q c #bbddff",
"`R c #b5dbff",
"`S c #abd5ff",
"`T c #a7d3ff",
"`U c #000000",
"`V c #000000",
"`W c #000000",
"`X c #000000",
"`Y c #000000",
"`Z c #000000",
"`0 c #000000",
"`1 c #000000",
"`2 c #000000",
"`3 c #000000",
"`4 c #000000",
"`5 c #000000",
"`6 c #000000",
"`7 c #000000",
"`8 c #000000",
".` c #000000",
".. c #000000",
".# c #000000",
".a c #000000",
".b c #000000",
".c c #000000",
".d c #000000",
".e c #000000",
".f c #000000",
".g c #000000",
".h c #000000",
".i c #000000",
".j c #000000",
".k c #000000",
".l c #000000",
".m c #000000",
".n c #000000",
".o c #000000",
".p c #000000",
".q c #000000",
".r c #000000",
".s c #000000",
".t c #000000",
".u c #000000",
".v c #000000",
".w c #000000",
".x c #000000",
".y c #000000",
".z c #000000",
".A c #000000",
".B c #000000",
".C c #000000",
".D c #000000",
".E c #000000",
".F c #000000",
".G c #000000",
".H c #000000",
".I c #000000",
".J c #000000",
".K c #000000",
".L c #000000",
".M c #000000",
".N c #000000",
".O c #000000",
".P c #000000",
".Q c #000000",
".R c #000000",
".S c #000000",
".T c #000000",
".U c #000000",
".V c #000000",
".W c #000000",
".X c #000000",
".Y c #000000",
".Z c #000000",
".0 c #000000",
".1 c #000000",
".2 c #000000",
".3 c #000000",
".4 c #000000",
".5 c #000000",
".6 c #000000",
".7 c #000000",
".8 c #000000",
"#` c #000000",
"#. c #000000",
"## c #000000",
"#a c #000000",
"#b c #000000",
"#c c #000000",
"#d c #000000",
"#e c #000000",
"#f c #000000",
"#g c #000000",
"#h c #000000",
"#i c #000000",
"#j c #000000",
"#k c #000000",
"#l c #000000",
"#m c #000000",
"#n c #000000",
"#o c #000000",
"#p c #000000",
"#q c #000000",
"#r c #000000",
"#s c #000000",
"#t c #000000",
"#u c #000000",
"#v c #000000",
"#w c #000000",
"#x c #000000",
"#y c #000000",
"#z c #000000",
"#A c #000000",
"#B c #000000",
"#C c #000000",
"#D c #000000",
"#E c #000000",
"#F c #000000",
"#G c #000000",
"#H c #000000",
"#I c #000000",
"#J c #000000",
"#K c #000000",
"#L c #000000",
"#M c #000000",
"#N c #000000",
"#O c #000000",
"#P c #000000",
"#Q c #000000",
"#R c #000000",
"#S c #000000",
"#T c #000000",
"#U c #000000",
"#V c #000000",
"#W c #000000",
"#X c #000000",
"#Y c #000000",
"#Z c #000000",
"#0 c #000000",
"#1 c #000000",
"#2 c #000000",
"#3 c #000000",
"#4 c #000000",
"#5 c #000000",
"#6 c #000000",
"#7 c #000000",
"#8 c #000000",
"a` c #000000",
"a. c #000000",
"a# c #000000",
"aa c #000000",
"ab c #000000",
"ac c #000000",
"ad c #000000",
"ae c #000000",
"af c #000000",
"ag c #000000",
"ah c #000000",
"ai c #000000",
"aj c #000000",
"ak c #000000",
"al c #000000",
"am c #000000",
"an c #000000",
"ao c #000000",
"ap c #000000",
"aq c #000000",
"ar c #000000",
"as c #000000",
"at c #000000",
"au c #000000",
"av c #000000",
"aw c #000000",
"ax c #000000",
"ay c #000000",
"az c #000000",
"aA c #000000",
"aB c #000000",
"aC c #000000",
"aD c #000000",
"aE c #000000",
"aF c #000000",
"aG c #000000",
"aH c #000000",
"aI c #000000",
"aJ c #000000",
"aK c #000000",
"aL c #000000",
"aM c #000000",
"aN c #000000",
"aO c #000000",
"aP c #000000",
"aQ c #000000",
"aR c #000000",
"aS c #000000",
"aT c #000000",
"aU c #000000",
"aV c #000000",
"aW c #000000",
"aX c #000000",
"aY c #000000",
"aZ c #000000",
"a0 c #000000",
"a1 c #000000",
"a2 c #000000",
"a3 c #000000",
"a4 c #000000",
"a5 c #000000",
"a6 c #000000",
"a7 c #000000",
"a8 c #000000",
/* pixels */
"````````````````````````````````",
"```.`#`#`#`#`#`#`#`#`#`#`#`#`a``",
"```b`c`c`c`c`c`c`c`c`c`c`c`c`d``",
"```e`f`f`f`f`f`f`f`f`f`f`f`f`e``",
"```e`g`g`g`g`g`g`g`g`h`i`j`k`e``",
"```e`g`l`l`g`g`m`m`g`n`o`o`p`e``",
"```e`g`l`l`g`g`m`m`n`q`o`o`r`e``",
"```e`g`s`s`g`g`s`s`q`t`s`s`u`e``",
"```e`g`g`g`g`g`v`w`x`w`y`z`A`e``",
"```e`g`g`g`g`v`v`w`w`y`y`z`B`e``",
"```e`g`C`C`v`q`D`D`y`E`F`F`G`e``",
"```e`g`C`C`q`H`D`D`E`I`F`F`J`e``",
"```e`g`K`K`L`M`s`s`I`z`N`N`O`e``",
"```e`g`q`L`P`y`E`I`z`Q`R`S`T`e``",
"```e`e`e`e`e`e`e`e`e`e`e`e`e`e``",
"````````````````````````````````"
};
