/* XPM */
static const char *folder_conn_disbl_16_xpm[] = {
/* width height num_colors chars_per_pixel */
"    16    16      256            2",
/* colors */
"`` c None",
"`. c #bdbdbd",
"`# c #c0c0c0",
"`a c #bebebe",
"`b c #bcbcbc",
"`c c #bbbbbb",
"`d c #b0b0b0",
"`e c #9f9f9f",
"`f c #9a9a9a",
"`g c #969696",
"`h c #939393",
"`i c #989898",
"`j c #d6d6d6",
"`k c #a7a7a7",
"`l c #929292",
"`m c #8b8b8b",
"`n c #878787",
"`o c #848484",
"`p c #838383",
"`q c #8a8a8a",
"`r c #979797",
"`s c #9b9b9b",
"`t c #9e9e9e",
"`u c #b3b3b3",
"`v c #a1a1a1",
"`w c #8e8e8e",
"`x c #8c8c8c",
"`y c #888887",
"`z c #858585",
"`A c #898988",
"`B c #a09f9f",
"`C c #dcdcdc",
"`D c #e0e0e0",
"`E c #909090",
"`F c #cdcdcb",
"`G c #c8c7c7",
"`H c #c4c4c3",
"`I c #959595",
"`J c #c9c8c6",
"`K c #c2c1bf",
"`L c #b6b6b9",
"`M c #95a1b8",
"`N c #798fb2",
"`O c #8b9cb9",
"`P c #939cb1",
"`Q c #bebdbc",
"`R c #c3c3c2",
"`S c #9a9a99",
"`T c #c7c6c4",
"`U c #a9acb6",
"`V c #8da5c6",
"`W c #a9c4e4",
"`X c #8dadd3",
"`Y c #98b9dd",
"`Z c #5d85b6",
"`0 c #5a76a2",
"`1 c #bebec1",
"`2 c #8f8f8f",
"`3 c #9f9e9e",
"`4 c #c4c3c1",
"`5 c #bfbebd",
"`6 c #728ab2",
"`7 c #6185b3",
"`8 c #b6d0eb",
".` c #d1e8fe",
".. c #8cacd2",
".# c #4b73a8",
".a c #345f98",
".b c #687da2",
".c c #8e8e8d",
".d c #a3a2a2",
".e c #c0c0be",
".f c #a0a2af",
".g c #6f91bc",
".h c #b1ccea",
".i c #d3e9ff",
".j c #cae2fa",
".k c #6f93bf",
".l c #4f78ad",
".m c #39669e",
".n c #446698",
".o c #a3a2a1",
".p c #bebdbb",
".q c #bcbbb9",
".r c #929bad",
".s c #769ac6",
".t c #95b6da",
".u c #b6d2f0",
".v c #adcaea",
".w c #476fa4",
".x c #38629a",
".y c #325e99",
".z c #406394",
".A c #989897",
".B c #a8a7a4",
".C c #a7a6a4",
".D c #a6a5a3",
".E c #8f919a",
".F c #7aa0c9",
".G c #426aa0",
".H c #5c83b3",
".I c #85aad3",
".J c #719ac7",
".K c #406ca4",
".L c #2a5794",
".M c #546a8f",
".N c #8d8d8d",
".O c #8c8c8a",
".P c #8f8e8b",
".Q c #8e8d8b",
".R c #687ea1",
".S c #4470a6",
".T c #366199",
".U c #628fc0",
".V c #5686ba",
".W c #3566a0",
".X c #30598f",
".Y c #888ca2",
".Z c #c3c2c2",
".0 c #9b9b9a",
".1 c #999998",
".2 c #898b93",
".3 c #4e6e9c",
".4 c #3b6aa4",
".5 c #4073ad",
".6 c #3e6ba0",
".7 c #3d5f8f",
".8 c #677595",
"#` c #abb2c7",
"#. c #8d98b3",
"## c #959db6",
"#a c #bdc0cf",
"#b c #000000",
"#c c #000000",
"#d c #000000",
"#e c #000000",
"#f c #000000",
"#g c #000000",
"#h c #000000",
"#i c #000000",
"#j c #000000",
"#k c #000000",
"#l c #000000",
"#m c #000000",
"#n c #000000",
"#o c #000000",
"#p c #000000",
"#q c #000000",
"#r c #000000",
"#s c #000000",
"#t c #000000",
"#u c #000000",
"#v c #000000",
"#w c #000000",
"#x c #000000",
"#y c #000000",
"#z c #000000",
"#A c #000000",
"#B c #000000",
"#C c #000000",
"#D c #000000",
"#E c #000000",
"#F c #000000",
"#G c #000000",
"#H c #000000",
"#I c #000000",
"#J c #000000",
"#K c #000000",
"#L c #000000",
"#M c #000000",
"#N c #000000",
"#O c #000000",
"#P c #000000",
"#Q c #000000",
"#R c #000000",
"#S c #000000",
"#T c #000000",
"#U c #000000",
"#V c #000000",
"#W c #000000",
"#X c #000000",
"#Y c #000000",
"#Z c #000000",
"#0 c #000000",
"#1 c #000000",
"#2 c #000000",
"#3 c #000000",
"#4 c #000000",
"#5 c #000000",
"#6 c #000000",
"#7 c #000000",
"#8 c #000000",
"a` c #000000",
"a. c #000000",
"a# c #000000",
"aa c #000000",
"ab c #000000",
"ac c #000000",
"ad c #000000",
"ae c #000000",
"af c #000000",
"ag c #000000",
"ah c #000000",
"ai c #000000",
"aj c #000000",
"ak c #000000",
"al c #000000",
"am c #000000",
"an c #000000",
"ao c #000000",
"ap c #000000",
"aq c #000000",
"ar c #000000",
"as c #000000",
"at c #000000",
"au c #000000",
"av c #000000",
"aw c #000000",
"ax c #000000",
"ay c #000000",
"az c #000000",
"aA c #000000",
"aB c #000000",
"aC c #000000",
"aD c #000000",
"aE c #000000",
"aF c #000000",
"aG c #000000",
"aH c #000000",
"aI c #000000",
"aJ c #000000",
"aK c #000000",
"aL c #000000",
"aM c #000000",
"aN c #000000",
"aO c #000000",
"aP c #000000",
"aQ c #000000",
"aR c #000000",
"aS c #000000",
"aT c #000000",
"aU c #000000",
"aV c #000000",
"aW c #000000",
"aX c #000000",
"aY c #000000",
"aZ c #000000",
"a0 c #000000",
"a1 c #000000",
"a2 c #000000",
"a3 c #000000",
"a4 c #000000",
"a5 c #000000",
"a6 c #000000",
"a7 c #000000",
"a8 c #000000",
/* pixels */
"````````````````````````````````",
"```.`#`a`.`b`c``````````````````",
"```d`e`f`g`h`i`j````````````````",
"```k`l`m`n`o`p`q`r`i`s`t`u``````",
"```v`w`x`y`z`o`p`o`z`A`x`B`C`D``",
"```s`E`F`G`G`G`G`G`G`G`G`G`G`H``",
"```r`I`J`K`K`K`K`L`M`N`O`P`Q`R``",
"```h`S`T`K`K`K`U`V`W`X`Y`Z`0`1``",
"```2`3`4`K`K`5`6`7`8.`...#.a.b``",
"``.c.d`K`K.e.f.g.h.i.j.k.l.m.n``",
"```m.o.p.q.q.r.s.t.u.v.w.x.y.z``",
"```m.A.B.C.D.E.F.G.H.I.J.K.L.M``",
"``.N.O.P.P.P.Q.R.S.T.U.V.W.X.Y``",
"``.Z.0`f`S.1`r.2.3.4.5.6.7.8````",
"``````````````````#`#.###a``````",
"````````````````````````````````"
};
