/* XPM */
static const char *folder_prj_48_xpm[] = {
/* width height num_colors chars_per_pixel */
"    48    48      256            2",
/* colors */
"`` c #040204",
"`. c #8c826c",
"`# c #dcc24c",
"`a c #c4a254",
"`b c None",
"`c c #ece294",
"`d c #4c4a44",
"`e c #ac8644",
"`f c #c4c2c4",
"`g c #949284",
"`h c #a4a2a4",
"`i c #646664",
"`j c #847254",
"`k c #e4e2dc",
"`l c #9c763c",
"`m c #e4d264",
"`n c #e4da9c",
"`o c #242624",
"`p c #d4b644",
"`q c #747674",
"`r c #ecf2ec",
"`s c #9c825c",
"`t c #8c928c",
"`u c #847a6c",
"`v c #c49a3c",
"`w c #e4d294",
"`x c #8c8a7c",
"`y c #bcb684",
"`z c #5c5a54",
"`A c #c4a66c",
"`B c #ece6ac",
"`C c #746654",
"`D c #ac7e34",
"`E c #d4c2a4",
"`F c #94764c",
"`G c #d4d2d4",
"`H c #949a94",
"`I c #141214",
"`J c #d4c284",
"`K c #b48e4c",
"`L c #84725c",
"`M c #e4eae4",
"`N c #9c7e54",
"`O c #343634",
"`P c #fcfaf4",
"`Q c #84827c",
"`R c #54524c",
"`S c #c4cac4",
"`T c #a47634",
"`U c #e4da7c",
"`V c #e4da84",
"`W c #b4b2b4",
"`X c #746e6c",
"`Y c #e4d6c4",
"`Z c #dcca5c",
"`0 c #ccaa4c",
"`1 c #9c9a74",
"`2 c #acaaa4",
"`3 c #e4d674",
"`4 c #d4b674",
"`5 c #7c7e74",
"`6 c #947a4c",
"`7 c #bc965c",
"`8 c #8c8a8c",
".` c #f4e6ac",
".. c #ecda84",
".# c #7c6e64",
".a c #0c0a0c",
".b c #ece2a4",
".c c #2c2e2c",
".d c #d4be44",
".e c #f4f2ec",
".f c #94928c",
".g c #8c7a5c",
".h c #646264",
".i c #ccae74",
".j c #dcdadc",
".k c #9c9a94",
".l c #bc925c",
".m c #84765c",
".n c #eceae4",
".o c #8c8684",
".p c #cccac4",
".q c #bcbabc",
".r c #ecde94",
".s c #4c4e4c",
".t c #b4864c",
".u c #6c6e6c",
".v c #8c724c",
".w c #e4e6e4",
".x c #9c7a44",
".y c #e4d66c",
".z c #7c7a74",
".A c #8c8e84",
".B c #5c5e5c",
".C c #c4aa7c",
".D c #1c1a1c",
".E c #b49254",
".F c #3c3e3c",
".G c #fcfefc",
".H c #848684",
".I c #545654",
".J c #a47a44",
".K c #e4ce64",
".L c #ccaa54",
".M c #9c9e84",
".N c #acaeac",
".O c #bc9e5c",
".P c #f4eaac",
".Q c #ecde84",
".R c #7c7264",
".S c #f4f6f4",
".T c #949694",
".U c #8c7a6c",
".V c #9c9e9c",
".W c #eceeec",
".X c #cccecc",
".Y c #040604",
".Z c #8c8274",
".0 c #dcc654",
".1 c #c4a654",
".2 c #ece29c",
".3 c #4c4a4c",
".4 c #c4c6c4",
".5 c #9c9674",
".6 c #a4a6a4",
".7 c #6c6a6c",
".8 c #e4e2e4",
"#` c #9c7644",
"#. c #948e74",
"## c #ccb694",
"#a c #dccab4",
"#b c #bc9654",
"#c c #dcca8c",
"#d c #ecdecc",
"#e c #ecdea4",
"#f c #2c2a2c",
"#g c #343234",
"#h c #3c3a34",
"#i c #dcbe4c",
"#j c #bc9e6c",
"#k c #a47a3c",
"#l c #747274",
"#m c #ccae44",
"#n c #8c7654",
"#o c #d4ba44",
"#p c #c4aa6c",
"#q c #d4d6d4",
"#r c #141614",
"#s c #b4b6b4",
"#t c #8c8e8c",
"#u c #0c0e0c",
"#v c #ece6a4",
"#w c #dcdedc",
"#x c #bcbebc",
"#y c #b48a4c",
"#z c #8c7e6c",
"#A c #e4d26c",
"#B c #8c8a84",
"#C c #5c5a5c",
"#D c #ece6b4",
"#E c #ac7e3c",
"#F c #b48e54",
"#G c #847264",
"#H c #fcfafc",
"#I c #848284",
"#J c #545254",
"#K c #9c9a7c",
"#L c #acaaac",
"#M c #e4d67c",
"#N c #7c7e7c",
"#O c #f4f2f4",
"#P c #949294",
"#Q c #9c9a9c",
"#R c #847664",
"#S c #eceaec",
"#T c #cccacc",
"#U c #7c7a7c",
"#V c #e4ce6c",
"#W c #f4eab4",
"#X c #ecde8c",
"#Y c #7c726c",
"#Z c #000000",
"#0 c #000000",
"#1 c #000000",
"#2 c #000000",
"#3 c #000000",
"#4 c #000000",
"#5 c #000000",
"#6 c #000000",
"#7 c #000000",
"#8 c #000000",
"a` c #000000",
"a. c #000000",
"a# c #000000",
"aa c #000000",
"ab c #000000",
"ac c #000000",
"ad c #000000",
"ae c #000000",
"af c #000000",
"ag c #000000",
"ah c #000000",
"ai c #000000",
"aj c #000000",
"ak c #000000",
"al c #000000",
"am c #000000",
"an c #000000",
"ao c #000000",
"ap c #000000",
"aq c #000000",
"ar c #000000",
"as c #000000",
"at c #000000",
"au c #000000",
"av c #000000",
"aw c #000000",
"ax c #000000",
"ay c #000000",
"az c #000000",
"aA c #000000",
"aB c #000000",
"aC c #000000",
"aD c #000000",
"aE c #000000",
"aF c #000000",
"aG c #000000",
"aH c #000000",
"aI c #000000",
"aJ c #000000",
"aK c #000000",
"aL c #000000",
"aM c #000000",
"aN c #000000",
"aO c #000000",
"aP c #000000",
"aQ c #000000",
"aR c #000000",
"aS c #000000",
"aT c #000000",
"aU c #000000",
"aV c #000000",
"aW c #000000",
"aX c #000000",
"aY c #000000",
"aZ c #000000",
"a0 c #000000",
"a1 c #000000",
"a2 c #000000",
"a3 c #000000",
"a4 c #000000",
"a5 c #000000",
"a6 c #000000",
"a7 c #000000",
"a8 c #000000",
/* pixels */
"`b`b`b`b`b`b`b`b`b`b`b`b`b`b`b`b`b`b`b`b`b`b`b`b`b`b`b`b`b`b`b`b`b`b`b`b`b`b`b`b`b`b`b`b`b`b`b`b",
"`b`b`b`b`b`b`b`b`b`b`b`b`b`b`b`b`b`b`b`b`b`b`b`b`b`b`b`b`b`b`b`b`b`b`b`b`b`b`b`b`b`b`b`b`b`b`b`b",
"`b`b`b`b`b`b`b`b`b`b`b`b`b`b`b`b`b`b`b`b`b`b`b`b`b`b`b`b`b`b`b`b`b`b`b`b`b`b`b`b`b`b`b`b`b`b`b`b",
"`b`b`b`b`f`f`f`f`f`f`f`f`f`f`f`f`f`f`f#T`b`b`b`b`b`b`b`b`b`b`b`b`b`b`b`b`b`b`b`b`b`b`b`b`b`b`b`b",
"`b`b`b.o.V`h`h`h`h`h`h`h`h`h`h`h`h`h.V#Q.o`b`b`b`b`b`b`b`b`b`b`b`b`b`b`b`b`b`b`b`b`b`b`b`b`b`b`b",
"`b`b`b.o`G.4#x.q.q.q#s#s`W`W.N`W.N`W.N.q#t`G`b`b`b`b`b`b`b`b`b`b`b`b`b`b`b`b`b`b`b`b`b`b`b`b`b`b",
"`b`b`b#I#T#L.6`h.V.V.V#Q#Q`H#Q.T.T.T#P.T.V`W`b`b`b`b`b`b`b`b`b`b`b`b`b`b`b`b`b`b`b`b`b`b`b`b`b`b",
"`b`b`b#U.4`h#Q`H.T.T#P#P`t#t#t`8`8`8`8`8#Q`8`b`b`b`b`b`b`b`b`b`b`b`b`b`b`b`b`b`b`b`b`b`b`b`b`b`b",
"`b`b`b#U.4#L.V.V#Q#Q.T.T#P#P#P#t#t#t#t`8`t`q`f.8#w.8.8.j.8.8.j.8.8.j.8.8.8`b`b`b`b`b`b`b`b`b`b`b",
"`b`b`b`X`f.V#P#P#t#t`8`8.H.H.H.H#I#I#I#I#I.H#U#U#U#U`q#U#U#U#U#U#U#U#U`q#l#s`b`b`b`b`b`b`b`b`b`b",
"`b`b`b.u`f.6#Q.T.T#P#P#t#t#t`8`8`8.H.H.H.H.H`8#Q.6#L.N.N.N.N.N`W.N#s#s.q#L.u`b`b`b`b`b`b`b`b`b`b",
"`b`b`b`X#s#Q#t`8`8.H.H#I#I#I#U#U#U#N#U#U#U#U`q#U`q#U#U#U#U#N#I#N#I.H#I.H`8.7`b`b`b`b`b`b`b`b`b`b",
"`b`b`b#l.q.V.T#P`t#P`8`8.H.H.H#I#I#N#I#N#N#N#I#N#I#N#I#N.H#I#I.o`8`8#t#P#P.h`b`b`b`b`b`b`b`b`b`b",
"`b`b`b#l.N.T.o.H`Q.U`u`u#R#R#R#R.R#R.R.R#G.R.R.R.R.R.R#G.R#R#R#R`u#R`u.U`.`C`Y#d#d#d#d#d`b`b`b`b",
"`b`b`b`q`W.V#P#t`T#F.E#F.E.E#F.E#F.E#F#F#F`K#F`K#F`K#F`K.E#F#F#F#F#F`K#F#F#F.E`7.E`7.E.E.t`b`b`b",
"`b`b`b#U`h#P#N#I`T#D.`#D.`#D.`#D`B.`#D.P`B#W`B#W`B#W`B#D#W`B#D`B#D#D#W#D`B#D#W#D#W#D#W.``T`b`b`b",
"`b`b`b#U`h.V#t.o#k#W`V`U`U`U`U..`U`U`U`U`U`U`U`U`U`U..`U`U`U..`U..`U`U`U..`U`U`U`U..`V#e#E`b`b`b",
"`b`b`b#U#Q#t#U#R`e#W`V..`U..`U`U`U..#M..#M..#M..#M`U`U#M..`U`U`U`U`U..`U`U`U..`U`U`U..`n`e`b`b`b",
"`b`b`b#I#Q#Q.H.Z.E.`#M`U#M`U#M..#M`U`U`U`U`U`U`U..`U..`U`U#M..`U..`3`U#M..`U`U..`U`3`V`w.l`b`b`b",
"`b`b`b#I#P#t`q.g`7#D`U..`U..`U`U`U..`3..#M..#M`U#M`U`3`U..`U`U`3`U`U..`U`U`3`U#M...y#X#c#j`b`b`b",
"`b`b`b.H#P.T#I.g.i#v`U`U#M`U#M..`3`U`U`U`U`U..`U..`U..`3`U#M..`U..`3`U#M..`U..`U#A.y.r`J.C`b`b`b",
"`b`b`b`8`8`8`q.v`4.b..`U..`U`U`U..`U..#M..`3`U`3`U#M`U`U..`U`U#M`U`U..`U`U#M`U.y`3#A.r`4##`b`b`b",
"`b`b`b#P.H#P#N`6`J.2`U`3`U..`3`U#M`U`3`U`U`U..`U..`U..`3`U#M..`U..`3`U#M..`U.y#A`3`3.2.i`E`b`b`b",
"`b`b`b#P#I`8#l.x#c.2..`U#M`U..`U..`U..`U..`3`U#M`U`3`U`U..`U`U`3`U`U..`U`3.y`3`3.y.y.b`A#a`b`b`b",
"`b`b`b#Q#N#t#U.x`w.r`U`U..`U`3`U#M`U`3`U#M`U..`U..`y`g`g`t`g.z`g`g`g`t`g`g`g`g`g`g.A.f.A.k`b`b`b",
"`b`b`b`h#U.H#l`T`n#X`U#M`U`U..`U..`U..`U..`U#M`U#M.M.w#H`P`P.W.S#H#H`P.S#O#H.S#H#H.G#H.G.k`b`b`b",
"`b`b`b`h`q`8`q`T.b`V`U..`3`U#M`U`3`U#M`U#M`U..`U...M.e#H#H#Q#f`o.F#x.X.c#f#s#H.S#H.S`P.G.T`b`b`b",
"`b`b`b#L#l.H`X`T.b..`U`U..`U..`U..`U..`3`3`3`3.y.y#K#O.S`P.S`f`o````#u``.I#H.S#H.S.S#O.G.k`b`b`b",
"`b`b`b`W.u`8#l#k.2`U`U#M`U#M`U`3`3.y.y`3.y`3.y#A`3.M.e#H.S#H.S#O`q``````.V#H.S.S.S.S#J#H.T`b`b`b",
"`b`b`b`W.7.H.#`e.r`U..`U`3`3.y.y`3#A`3.y`3#A`3`3.y#K#O#H.S#H.S`P#Q````````#J.8.S.S#Q``.S.H`b`b`b",
"`b`b`b.q`i.H`L`K.r#M`3.y`3.y#A`3.y`3.y#A`3.y`3#A`3.M.e#H.S`P.S#q.a``.H#U.Y``#r`h#q#u``#H`H`b`b`b",
"`b`b`b.q.h.H.##b`V.y`3.y#A`3`3#A`3#A`3`3.y#A`3#A.y#K#O`P.S#H`r.c```d#O.S.4#g`````I``#h.G.k`b`b`b",
"`b`b`b`f.h#I`j`a`3#A.K#A#V`m.K#A.K#A.K.K#V.K.K.K#V#K.e.S#H.S.7``#r#w.S#O#O.W#N``````.H.G`H`b`b`b",
"`b`b`b#T.B#I.v.1.K`Z`Z`Z.K`Z`Z`Z`Z`Z`Z`Z`Z`Z`Z`Z`Z#K.W.7.6#L````#s.S#O#O`r.e`f.Y``````#H#t`b`b`b",
"`b`b`b#T.B#I`F`0.0.0.0.0.0.0.0.0.0.0.0.0.0.0.0.0.0#K#w.3``.Y```q#O#O`r#O.W.w#f``.s`Q.Y#H#t`b`b`b",
"`b`b`b`G#C#I#``0`#`#`#.d`##i`##i`##i`#.d#i#i.d#i#i.5.W#Q``````#Q`r#O.W.W.W.7``#r.j`M#T#H`H`b`b`b",
"`b`b`b.j.I#I`l#m.d#o#o#i#o#o#o#o#o#o#o#o#o#o#o#o#o.5`r.V`````````d#q.W#O.N````#L.w#S.w.G.k`b`b`b",
"`b`b`b#w#J.H`T`p#o#i#o#o#o#i#o#o#o#o#o#o#o#o#o#o#o.5#S.3``.V#N.Y``#u#P.j.D``.h`M.w.n.w.G.k`b`b`b",
"`b`b`b`b`R`T`D`v`v`v`v`v`v`v`v`v`v`v`v`v`v`v`v`v`v#.`G`d`i.W.W#T#g````#r```o#w.n.w.w.8.G.k`b`b`b",
"`b`b`b`b.8`N`N`N`N`6`N`N`N`6`s`N`N`N`N`N`N`N`N.x`N`x.w#U.w.W.W#S`M#I.Y````.u.w.w.8.w.w.G.k`b`b`b",
"`b`b`b`b`b`b`b`b`b`b`b`b`b`b`b`b`b`b`b`b`b`b`b`b`b.6.e#O.W#S#S#S#S.X#u```````O.4.8.w.8.G.k`b`b`b",
"`b`b`b`b`b`b`b`b`b`b`b`b`b`b`b`b`b`b`b`b`b`b`b`b`b`2.W.W#S#S#S.w.w.F```O.H#u``.a#N`k`k.G.T`b`b`b",
"`b`b`b`b`b`b`b`b`b`b`b`b`b`b`b`b`b`b`b`b`b`b`b`b`b.6.e.S.S.S.S.S#S.T.T.w.S.n.N#t#Q#S#O.G.k`b`b`b",
"`b`b`b`b`b`b`b`b`b`b`b`b`b`b`b`b`b`b`b`b`b`b`b`b`b#L.q.4#T.4.p.4.4`f#s.p.4.4#T`W`W.4`S.p#t`b`b`b",
"`b`b`b`b`b`b`b`b`b`b`b`b`b`b`b`b`b`b`b`b`b`b`b`b`b`b.X.X.X#T.X.X.X.X.X.X.X.X.p.X.X.X.p.X.j`b`b`b",
"`b`b`b`b`b`b`b`b`b`b`b`b`b`b`b`b`b`b`b`b`b`b`b`b`b`b`b`b`b`b`b`b`b`b`b`b`b`b`b`b`b`b`b`b`b`b`b`b",
"`b`b`b`b`b`b`b`b`b`b`b`b`b`b`b`b`b`b`b`b`b`b`b`b`b`b`b`b`b`b`b`b`b`b`b`b`b`b`b`b`b`b`b`b`b`b`b`b",
"`b`b`b`b`b`b`b`b`b`b`b`b`b`b`b`b`b`b`b`b`b`b`b`b`b`b`b`b`b`b`b`b`b`b`b`b`b`b`b`b`b`b`b`b`b`b`b`b"
};
