/* XPM */
static const char *folder_conn_16_xpm[] = {
/* width height num_colors chars_per_pixel */
"    16    16      256            2",
/* colors */
"`` c None",
"`. c #bbbbbb",
"`# c #bebebe",
"`a c #bdbdbd",
"`b c #b8b8b8",
"`c c #afafaf",
"`d c #9f9f9f",
"`e c #9a9a9a",
"`f c #969696",
"`g c #929292",
"`h c #d3d3d3",
"`i c #a5a5a5",
"`j c #909090",
"`k c #8b8b8b",
"`l c #868686",
"`m c #838383",
"`n c #828282",
"`o c #8a8a8a",
"`p c #989898",
"`q c #9d9d9d",
"`r c #a0a0a0",
"`s c #b3b3b3",
"`t c #908c83",
"`u c #97886d",
"`v c #938569",
"`w c #918266",
"`x c #8e8065",
"`y c #8e7f64",
"`z c #93856a",
"`A c #98896d",
"`B c #a99a7e",
"`C c #e3d4b9",
"`D c #e6d8c0",
"`E c #999999",
"`F c #a08d67",
"`G c #e9dc96",
"`H c #e7da8d",
"`I c #dcc88a",
"`J c #959595",
"`K c #a6936a",
"`L c #e9dc8a",
"`M c #e6d97d",
"`N c #d7cc7e",
"`O c #a2a89e",
"`P c #7f93a6",
"`Q c #93a1a6",
"`R c #a5a88f",
"`S c #e3d57a",
"`T c #d9c586",
"`U c #ad9a6e",
"`V c #e8dc85",
"`W c #c4be87",
"`X c #91a8c0",
"`Y c #a8c3e2",
"`Z c #8dabd2",
"`0 c #99b9dd",
"`1 c #5f87b7",
"`2 c #5d7897",
"`3 c #cfbe8a",
"`4 c #8d8d8d",
"`5 c #b4a271",
"`6 c #e7da80",
"`7 c #e3d67d",
"`8 c #7890ad",
".` c #6083b3",
".. c #b6d0eb",
".# c #d2e8fe",
".a c #8daed6",
".b c #4d76aa",
".c c #355f98",
".d c #6b7c93",
".e c #8c8c8b",
".f c #b8a46f",
".g c #e6d87c",
".h c #e6d87a",
".i c #bdb57d",
".j c #6f91bd",
".k c #b1ccea",
".l c #d3e9ff",
".m c #cae2fa",
".n c #7295c1",
".o c #5179ac",
".p c #3b669f",
".q c #426595",
".r c #898989",
".s c #baa367",
".t c #e5d674",
".u c #e4d570",
".v c #a9a985",
".w c #779bc5",
".x c #97b7da",
".y c #b6d2ef",
".z c #adcbea",
".A c #486fa4",
".B c #38629a",
".C c #325e98",
".D c #3d6294",
".E c #b99f55",
".F c #dec95b",
".G c #ddc85a",
".H c #b9ac64",
".I c #7ba0cc",
".J c #436ba1",
".K c #5b82b3",
".L c #86abd3",
".M c #729ac8",
".N c #416ea5",
".O c #2b5794",
".P c #546788",
".Q c #8f897f",
".R c #c0a141",
".S c #d6ba41",
".T c #d5b941",
".U c #788890",
".V c #446fa7",
".W c #366099",
".X c #638fc1",
".Y c #5787bb",
".Z c #3667a1",
".0 c #2f578e",
".1 c #86848a",
".2 c #c3b9a7",
".3 c #af9970",
".4 c #ae996e",
".5 c #ac976d",
".6 c #ab966c",
".7 c #aa956b",
".8 c #978970",
"#` c #4f6d96",
"#. c #3a6aa3",
"## c #4074ae",
"#a c #3e6ca2",
"#b c #3b5e8e",
"#c c #656e87",
"#d c #a7aec4",
"#e c #8995b1",
"#f c #8f99b2",
"#g c #b8bbca",
"#h c #000000",
"#i c #000000",
"#j c #000000",
"#k c #000000",
"#l c #000000",
"#m c #000000",
"#n c #000000",
"#o c #000000",
"#p c #000000",
"#q c #000000",
"#r c #000000",
"#s c #000000",
"#t c #000000",
"#u c #000000",
"#v c #000000",
"#w c #000000",
"#x c #000000",
"#y c #000000",
"#z c #000000",
"#A c #000000",
"#B c #000000",
"#C c #000000",
"#D c #000000",
"#E c #000000",
"#F c #000000",
"#G c #000000",
"#H c #000000",
"#I c #000000",
"#J c #000000",
"#K c #000000",
"#L c #000000",
"#M c #000000",
"#N c #000000",
"#O c #000000",
"#P c #000000",
"#Q c #000000",
"#R c #000000",
"#S c #000000",
"#T c #000000",
"#U c #000000",
"#V c #000000",
"#W c #000000",
"#X c #000000",
"#Y c #000000",
"#Z c #000000",
"#0 c #000000",
"#1 c #000000",
"#2 c #000000",
"#3 c #000000",
"#4 c #000000",
"#5 c #000000",
"#6 c #000000",
"#7 c #000000",
"#8 c #000000",
"a` c #000000",
"a. c #000000",
"a# c #000000",
"aa c #000000",
"ab c #000000",
"ac c #000000",
"ad c #000000",
"ae c #000000",
"af c #000000",
"ag c #000000",
"ah c #000000",
"ai c #000000",
"aj c #000000",
"ak c #000000",
"al c #000000",
"am c #000000",
"an c #000000",
"ao c #000000",
"ap c #000000",
"aq c #000000",
"ar c #000000",
"as c #000000",
"at c #000000",
"au c #000000",
"av c #000000",
"aw c #000000",
"ax c #000000",
"ay c #000000",
"az c #000000",
"aA c #000000",
"aB c #000000",
"aC c #000000",
"aD c #000000",
"aE c #000000",
"aF c #000000",
"aG c #000000",
"aH c #000000",
"aI c #000000",
"aJ c #000000",
"aK c #000000",
"aL c #000000",
"aM c #000000",
"aN c #000000",
"aO c #000000",
"aP c #000000",
"aQ c #000000",
"aR c #000000",
"aS c #000000",
"aT c #000000",
"aU c #000000",
"aV c #000000",
"aW c #000000",
"aX c #000000",
"aY c #000000",
"aZ c #000000",
"a0 c #000000",
"a1 c #000000",
"a2 c #000000",
"a3 c #000000",
"a4 c #000000",
"a5 c #000000",
"a6 c #000000",
"a7 c #000000",
"a8 c #000000",
/* pixels */
"````````````````````````````````",
"```.`#`a`.`.`b``````````````````",
"```c`d`e`f`g`f`h````````````````",
"```i`j`k`l`m`n`o`p`e`q`r`s``````",
"```r`t`u`v`w`x`y`x`w`z`A`B`C`D``",
"```E`F`G`H`H`H`H`H`H`H`H`H`H`I``",
"```J`K`L`M`M`M`M`N`O`P`Q`R`S`T``",
"```j`U`V`M`M`M`W`X`Y`Z`0`1`2`3``",
"```4`5`6`M`M`7`8.`...#.a.b.c.d``",
"``.e.f`M.g.h.i.j.k.l.m.n.o.p.q``",
"``.r.s.t.u.u.v.w.x.y.z.A.B.C.D``",
"```o.E.F.F.G.H.I.J.K.L.M.N.O.P``",
"``.Q.R.S.S.S.T.U.V.W.X.Y.Z.0.1``",
"``.2.3.4.5.6.7.8#`#.###a#b#c````",
"``````````````````#d#e#f#g``````",
"````````````````````````````````"
};
