/* XPM */
static const char *folder_conns_16_xpm[] = {
/* width height num_colors chars_per_pixel */
"    16    16      256            2",
/* colors */
"`` c None",
"`. c #afafaf",
"`# c #adadad",
"`a c #ababab",
"`b c #a8a8a8",
"`c c #a6a6a6",
"`d c #a5a5a5",
"`e c #aaaaaa",
"`f c #969696",
"`g c #919191",
"`h c #8d8d8d",
"`i c #898989",
"`j c #8b8b8b",
"`k c #c6c6c6",
"`l c #c7c7c7",
"`m c #e6e6e6",
"`n c #939393",
"`o c #8c8c8c",
"`p c #878787",
"`q c #848484",
"`r c #818181",
"`s c #838383",
"`t c #8e8e8e",
"`u c #929292",
"`v c #9b9b9b",
"`w c #a7a7a7",
"`x c #9c9c9c",
"`y c #938873",
"`z c #b7a375",
"`A c #b5a376",
"`B c #b5a274",
"`C c #b4a174",
"`D c #b4a173",
"`E c #b7a476",
"`F c #c0ad7f",
"`G c #dcc89b",
"`H c #d7c294",
"`I c #989898",
"`J c #a18e68",
"`K c #eadf91",
"`L c #e7da81",
"`M c #e2d580",
"`N c #dcca87",
"`O c #a6956b",
"`P c #e9dc8a",
"`Q c #e6d97d",
"`R c #e4d77d",
"`S c #abb098",
"`T c #a0aeb3",
"`U c #7593b8",
"`V c #8ea4ba",
"`W c #849598",
"`X c #c0bc82",
"`Y c #e5d776",
"`Z c #d9c586",
"`0 c #8f8f8f",
"`1 c #ae9b6f",
"`2 c #e8dc85",
"`3 c #8e9c9f",
"`4 c #6f8fbb",
"`5 c #b5ceeb",
"`6 c #cde4fc",
"`7 c #7ea1ca",
"`8 c #466fa5",
".` c #406697",
".. c #d2c677",
".# c #e4d570",
".a c #dac78b",
".b c #b5a272",
".c c #e7da80",
".d c #dace7d",
".e c #7190b7",
".f c #b3ceeb",
".g c #cee5fc",
".h c #b1cdeb",
".i c #4970a5",
".j c #3f69a0",
".k c #315e9a",
".l c #9f9f77",
".m c #dbc78e",
".n c #8a8a8a",
".o c #b8a46d",
".p c #e6d97c",
".q c #ddd078",
".r c #7a9bbf",
".s c #4d74a8",
".t c #7196c2",
".u c #8aaed6",
".v c #5d87b8",
".w c #2f5a95",
".x c #376096",
".y c #b4ad71",
".z c #dac790",
".A c #b9a364",
".B c #e3d36e",
".C c #e3d36d",
".D c #8f998a",
".E c #4570a6",
".F c #406da4",
".G c #5887bb",
".H c #4678b1",
".I c #2e578f",
".J c #757b75",
".K c #e0cf68",
".L c #e1d068",
".M c #d9c38e",
".N c #898988",
".O c #b79c4f",
".P c #dbc452",
".Q c #dbc351",
".R c #a29b62",
".S c #848973",
".T c #68767d",
".U c #86866a",
".V c #ae9f57",
".W c #dac14d",
".X c #d9c04c",
".Y c #d9c14e",
".Z c #d5be89",
".0 c #96876d",
".1 c #b8963f",
".2 c #c1a140",
".3 c #c1a13f",
".4 c #c0a03e",
".5 c #bf9f3e",
".6 c #bf9f3d",
".7 c #c9a850",
".8 c #e7dac1",
"#` c #e9e6e2",
"#. c #efece8",
"## c #000000",
"#a c #000000",
"#b c #000000",
"#c c #000000",
"#d c #000000",
"#e c #000000",
"#f c #000000",
"#g c #000000",
"#h c #000000",
"#i c #000000",
"#j c #000000",
"#k c #000000",
"#l c #000000",
"#m c #000000",
"#n c #000000",
"#o c #000000",
"#p c #000000",
"#q c #000000",
"#r c #000000",
"#s c #000000",
"#t c #000000",
"#u c #000000",
"#v c #000000",
"#w c #000000",
"#x c #000000",
"#y c #000000",
"#z c #000000",
"#A c #000000",
"#B c #000000",
"#C c #000000",
"#D c #000000",
"#E c #000000",
"#F c #000000",
"#G c #000000",
"#H c #000000",
"#I c #000000",
"#J c #000000",
"#K c #000000",
"#L c #000000",
"#M c #000000",
"#N c #000000",
"#O c #000000",
"#P c #000000",
"#Q c #000000",
"#R c #000000",
"#S c #000000",
"#T c #000000",
"#U c #000000",
"#V c #000000",
"#W c #000000",
"#X c #000000",
"#Y c #000000",
"#Z c #000000",
"#0 c #000000",
"#1 c #000000",
"#2 c #000000",
"#3 c #000000",
"#4 c #000000",
"#5 c #000000",
"#6 c #000000",
"#7 c #000000",
"#8 c #000000",
"a` c #000000",
"a. c #000000",
"a# c #000000",
"aa c #000000",
"ab c #000000",
"ac c #000000",
"ad c #000000",
"ae c #000000",
"af c #000000",
"ag c #000000",
"ah c #000000",
"ai c #000000",
"aj c #000000",
"ak c #000000",
"al c #000000",
"am c #000000",
"an c #000000",
"ao c #000000",
"ap c #000000",
"aq c #000000",
"ar c #000000",
"as c #000000",
"at c #000000",
"au c #000000",
"av c #000000",
"aw c #000000",
"ax c #000000",
"ay c #000000",
"az c #000000",
"aA c #000000",
"aB c #000000",
"aC c #000000",
"aD c #000000",
"aE c #000000",
"aF c #000000",
"aG c #000000",
"aH c #000000",
"aI c #000000",
"aJ c #000000",
"aK c #000000",
"aL c #000000",
"aM c #000000",
"aN c #000000",
"aO c #000000",
"aP c #000000",
"aQ c #000000",
"aR c #000000",
"aS c #000000",
"aT c #000000",
"aU c #000000",
"aV c #000000",
"aW c #000000",
"aX c #000000",
"aY c #000000",
"aZ c #000000",
"a0 c #000000",
"a1 c #000000",
"a2 c #000000",
"a3 c #000000",
"a4 c #000000",
"a5 c #000000",
"a6 c #000000",
"a7 c #000000",
"a8 c #000000",
/* pixels */
"````````````````````````````````",
"````````````````````````````````",
"```.`#`a`b`c`d``````````````````",
"```e`f`g`h`i`j`e`k`k`l`l`m``````",
"```d`n`o`p`q`r`s`t`u`f`v`w``````",
"```x`y`z`A`B`C`D`C`B`A`E`F`G`H``",
"```I`J`K`L`L`L`L`M`L`L`L`L`L`N``",
"```n`O`P`Q`R`S`T`U`V`W`X`Q`Y`Z``",
"```0`1`2`Q`3`4`5`6`7`8.`...#.a``",
"```h.b.c.d.e.f.g.h.i.j.k.l.#.m``",
"``.n.o.p.q.r.s.t.u.v.w.x.y.#.z``",
"```i.A.B.C.D.E.F.G.H.I.J.K.L.M``",
"``.N.O.P.Q.Q.R.S.T.U.V.W.X.Y.Z``",
"``.0.1.2.3.4.5.5.6.5.5.4.2.7.8``",
"````#`#`#`#`#`#`#`#`#`#`#.``````",
"````````````````````````````````"
};
