/* XPM */
static const char *folder_conn_new_xpm[] = {
/* width height num_colors chars_per_pixel */
"    16    16      256            2",
/* colors */
"`` c #adadad",
"`. c #b0b0b0",
"`# c #aeaeae",
"`a c #ababab",
"`b c #a9a9a9",
"`c c None",
"`d c #f1ceb2",
"`e c #eab68b",
"`f c #b1b1b1",
"`g c #9f9f9f",
"`h c #999999",
"`i c #949494",
"`j c #919191",
"`k c #8f8f8f",
"`l c #939393",
"`m c #e29e66",
"`n c #e19c62",
"`o c #dc8940",
"`p c #de8c44",
"`q c #e4a46d",
"`r c #de8f4e",
"`s c #acacac",
"`t c #8e8e8e",
"`u c #898989",
"`v c #858585",
"`w c #838383",
"`x c #888888",
"`y c #be7b42",
"`z c #e9b26a",
"`A c #ecbb75",
"`B c #edbd79",
"`C c #ebb771",
"`D c #dd8d47",
"`E c #a8a8a8",
"`F c #8d8d8d",
"`G c #8b847b",
"`H c #888177",
"`I c #847c72",
"`J c #817a70",
"`K c #80786e",
"`L c #7f776d",
"`M c #a07147",
"`N c #ca7222",
"`O c #e6ac59",
"`P c #e9b462",
"`Q c #e8b15f",
"`R c #d98333",
"`S c #e4ad7c",
"`T c #a4a4a4",
"`U c #8a8782",
"`V c #cbb479",
"`W c #ddcc86",
"`X c #ddcb86",
"`Y c #d7a051",
"`Z c #d4781e",
"`0 c #e09e3d",
"`1 c #e2a443",
"`2 c #e1a241",
"`3 c #d57c21",
"`4 c #d38e43",
"`5 c #a0a0a0",
"`6 c #857d73",
"`7 c #dbca85",
"`8 c #e6d97d",
".` c #cc8431",
".. c #da8c1f",
".# c #db9022",
".a c #db9123",
".b c #db8f22",
".c c #d57e1f",
".d c #dac590",
".e c #9e9e9e",
".f c #867968",
".g c #e3d48a",
".h c #ded37d",
".i c #949ea0",
".j c #bc7e4d",
".k c #b37441",
".l c #c77429",
".m c #cc782a",
".n c #af713c",
".o c #c97523",
".p c #dbc795",
".q c #8e7e62",
".r c #e7d98e",
".s c #8e9a9f",
".t c #7e9ec6",
".u c #95b3d5",
".v c #cce3fb",
".w c #beaea3",
".x c #9f7d66",
".y c #416aa1",
".z c #4a6b99",
".A c #c2b291",
".B c #979797",
".C c #947f5a",
".D c #eade8f",
".E c #c3bc81",
".F c #6585b2",
".G c #7394bf",
".H c #c7def7",
".I c #d3e9ff",
".J c #b6d1ee",
".K c #668bba",
".L c #527baf",
".M c #325d98",
".N c #687891",
".O c #9b845b",
".P c #e9dc88",
".Q c #e6d87b",
".R c #e5d777",
".S c #e5d675",
".T c #9fa58e",
".U c #7b9dc7",
".V c #b8d3ef",
".W c #d2e8fe",
".X c #cae2fa",
".Y c #8babd2",
".Z c #41699f",
".0 c #3b659d",
".1 c #325f99",
".2 c #4f6990",
".3 c #929292",
".4 c #a18b5d",
".5 c #e5d87a",
".6 c #e4d570",
".7 c #a1a792",
".8 c #7297c3",
"#` c #83a5cd",
"#. c #a8c6e6",
"## c #abc9e9",
"#a c #6e93c0",
"#b c #3c659d",
"#c c #335e98",
"#d c #2d5b96",
"#e c #53698e",
"#f c #a48b55",
"#g c #ddc95b",
"#h c #ddc859",
"#i c #ddc758",
"#j c #aaa36e",
"#k c #7aa2cd",
"#l c #40699f",
"#m c #4b73a7",
"#n c #7ca1cc",
"#o c #7ca4cf",
"#p c #6591c2",
"#q c #2e5a95",
"#r c #2e5a94",
"#s c #6e758a",
"#t c #929291",
"#u c #ab8c46",
"#v c #d6ba41",
"#w c #ceb344",
"#x c #71879b",
"#y c #4671a8",
"#z c #356099",
"#A c #5984b7",
"#B c #5e8cbf",
"#C c #4e7fb6",
"#D c #2a5691",
"#E c #395b8c",
"#F c #a39fa5",
"#G c #c6c0b6",
"#H c #a88d5a",
"#I c #a78e5b",
"#J c #a78d5b",
"#K c #a68c5a",
"#L c #a48b59",
"#M c #a38a57",
"#N c #867b67",
"#O c #4e6f9d",
"#P c #34629c",
"#Q c #4779b2",
"#R c #4073ac",
"#S c #3e699e",
"#T c #36598b",
"#U c #777888",
"#V c #8694b3",
"#W c #6b7ea3",
"#X c #5d7198",
"#Y c #7984a3",
"#Z c #b3b6c7",
"#0 c #000000",
"#1 c #000000",
"#2 c #000000",
"#3 c #000000",
"#4 c #000000",
"#5 c #000000",
"#6 c #000000",
"#7 c #000000",
"#8 c #000000",
"a` c #000000",
"a. c #000000",
"a# c #000000",
"aa c #000000",
"ab c #000000",
"ac c #000000",
"ad c #000000",
"ae c #000000",
"af c #000000",
"ag c #000000",
"ah c #000000",
"ai c #000000",
"aj c #000000",
"ak c #000000",
"al c #000000",
"am c #000000",
"an c #000000",
"ao c #000000",
"ap c #000000",
"aq c #000000",
"ar c #000000",
"as c #000000",
"at c #000000",
"au c #000000",
"av c #000000",
"aw c #000000",
"ax c #000000",
"ay c #000000",
"az c #000000",
"aA c #000000",
"aB c #000000",
"aC c #000000",
"aD c #000000",
"aE c #000000",
"aF c #000000",
"aG c #000000",
"aH c #000000",
"aI c #000000",
"aJ c #000000",
"aK c #000000",
"aL c #000000",
"aM c #000000",
"aN c #000000",
"aO c #000000",
"aP c #000000",
"aQ c #000000",
"aR c #000000",
"aS c #000000",
"aT c #000000",
"aU c #000000",
"aV c #000000",
"aW c #000000",
"aX c #000000",
"aY c #000000",
"aZ c #000000",
"a0 c #000000",
"a1 c #000000",
"a2 c #000000",
"a3 c #000000",
"a4 c #000000",
"a5 c #000000",
"a6 c #000000",
"a7 c #000000",
"a8 c #000000",
/* pixels */
"```.`#```a`b`b`c`c`c`c`d`e`c`c`c",
"`f`g`h`i`j`k`l`c`c`m`n`o`p`q`r`c",
"`s`i`t`u`v`w`w`x`i`y`z`A`B`C`D`c",
"`E`F`G`H`I`J`K`L`M`N`O`P`P`Q`R`S",
"`T`U`V`W`X`X`X`X`Y`Z`0`1`1`2`3`4",
"`5`6`7`8`8`8`8`8`8.`...#.a.b.c.d",
".e.f.g`8`8`8`8.h.i.j.k.l.m.n.o.p",
"`h.q.r`8`8`8`8.s.t.u.v.w.x.y.z.A",
".B.C.D`8`8`8.E.F.G.H.I.J.K.L.M.N",
"`l.O.P.Q.R.S.T.U.V.W.X.Y.Z.0.1.2",
".3.4.5.6.6.6.7.8#`#.###a#b#c#d#e",
"`j#f#g#h#i#i#j#k#l#m#n#o#p#q#r#s",
"#t#u#v#v#v#v#w#x#y#z#A#B#C#D#E#F",
"#G#H#I#J#K#L#M#N#O#P#Q#R#S#T#U`c",
"`c`c`c`c`c`c`c`c`c#V#W#X#Y#Z`c`c",
"`c`c`c`c`c`c`c`c`c`c`c`c`c`c`c`c"
};
