/* XPM */
static const char *go_next_xpm[] = {
/* width height num_colors chars_per_pixel */
"    16    16      256            2",
/* colors */
"`` c None",
"`. c #68953e",
"`# c #b1c89c",
"`a c #3a7304",
"`b c #5f9132",
"`c c #7ba257",
"`d c #cbe1b7",
"`e c #85ad5e",
"`f c #528522",
"`g c #cee3bb",
"`h c #c3dcab",
"`i c #a5c785",
"`j c #4b801a",
"`k c #4c811b",
"`l c #427b0c",
"`m c #cbe0b6",
"`n c #99c46f",
"`o c #b1d291",
"`p c #b7d49c",
"`q c #659339",
"`r c #7ba256",
"`s c #c0dba7",
"`t c #c2dcaa",
"`u c #c5ddad",
"`v c #c6deaf",
"`w c #c7deb0",
"`x c #91c164",
"`y c #8fc161",
"`z c #9dc873",
"`A c #bbd99f",
"`B c #84ad5e",
"`C c #528523",
"`D c #bdd9a3",
"`E c #85b954",
"`F c #88bb58",
"`G c #8bbc5b",
"`H c #8bbd5c",
"`I c #8cbe5c",
"`J c #8dc15c",
"`K c #8dc25a",
"`L c #8ac255",
"`M c #8cc358",
"`N c #afd48c",
"`O c #9dc47b",
"`P c #4e821e",
"`Q c #b9d79c",
"`R c #74af3b",
"`S c #6eac33",
"`T c #68a92b",
"`U c #6bac2f",
"`V c #78b63d",
"`W c #82be49",
"`X c #89c350",
"`Y c #88c44d",
"`Z c #84c249",
"`0 c #80be44",
"`1 c #9bca6d",
"`2 c #aace89",
"`3 c #649338",
"`4 c #87ab65",
"`5 c #a3ca7e",
"`6 c #4e9a06",
"`7 c #52a007",
"`8 c #57a709",
".` c #5bae0b",
".. c #5fb20e",
".# c #66b817",
".a c #6cba1f",
".b c #6fba26",
".c c #8dc655",
".d c #9ec976",
".e c #5d8e2f",
".f c #4f9c06",
".g c #54a408",
".h c #5aac0b",
".i c #5eb30d",
".j c #62b90e",
".k c #64bc0f",
".l c #6cbf1c",
".m c #9cd267",
".n c #8cbc5e",
".o c #4a8018",
".p c #a4cc7e",
".q c #a7d17f",
".r c #aad581",
".s c #61b70e",
".t c #66bf10",
".u c #7fcb34",
".v c #a8da78",
".w c #75a943",
".x c #538722",
".y c #437d0c",
".z c #abd681",
".A c #64ba11",
".B c #92d352",
".C c #a5d773",
".D c #5a9027",
".E c #7ca356",
".F c #abd781",
".G c #a0d56c",
".H c #8cc259",
".I c #487f14",
".J c #a6d37b",
".K c #6fa43c",
".L c #548922",
".M c #7ca457",
".N c #000000",
".O c #000000",
".P c #000000",
".Q c #000000",
".R c #000000",
".S c #000000",
".T c #000000",
".U c #000000",
".V c #000000",
".W c #000000",
".X c #000000",
".Y c #000000",
".Z c #000000",
".0 c #000000",
".1 c #000000",
".2 c #000000",
".3 c #000000",
".4 c #000000",
".5 c #000000",
".6 c #000000",
".7 c #000000",
".8 c #000000",
"#` c #000000",
"#. c #000000",
"## c #000000",
"#a c #000000",
"#b c #000000",
"#c c #000000",
"#d c #000000",
"#e c #000000",
"#f c #000000",
"#g c #000000",
"#h c #000000",
"#i c #000000",
"#j c #000000",
"#k c #000000",
"#l c #000000",
"#m c #000000",
"#n c #000000",
"#o c #000000",
"#p c #000000",
"#q c #000000",
"#r c #000000",
"#s c #000000",
"#t c #000000",
"#u c #000000",
"#v c #000000",
"#w c #000000",
"#x c #000000",
"#y c #000000",
"#z c #000000",
"#A c #000000",
"#B c #000000",
"#C c #000000",
"#D c #000000",
"#E c #000000",
"#F c #000000",
"#G c #000000",
"#H c #000000",
"#I c #000000",
"#J c #000000",
"#K c #000000",
"#L c #000000",
"#M c #000000",
"#N c #000000",
"#O c #000000",
"#P c #000000",
"#Q c #000000",
"#R c #000000",
"#S c #000000",
"#T c #000000",
"#U c #000000",
"#V c #000000",
"#W c #000000",
"#X c #000000",
"#Y c #000000",
"#Z c #000000",
"#0 c #000000",
"#1 c #000000",
"#2 c #000000",
"#3 c #000000",
"#4 c #000000",
"#5 c #000000",
"#6 c #000000",
"#7 c #000000",
"#8 c #000000",
"a` c #000000",
"a. c #000000",
"a# c #000000",
"aa c #000000",
"ab c #000000",
"ac c #000000",
"ad c #000000",
"ae c #000000",
"af c #000000",
"ag c #000000",
"ah c #000000",
"ai c #000000",
"aj c #000000",
"ak c #000000",
"al c #000000",
"am c #000000",
"an c #000000",
"ao c #000000",
"ap c #000000",
"aq c #000000",
"ar c #000000",
"as c #000000",
"at c #000000",
"au c #000000",
"av c #000000",
"aw c #000000",
"ax c #000000",
"ay c #000000",
"az c #000000",
"aA c #000000",
"aB c #000000",
"aC c #000000",
"aD c #000000",
"aE c #000000",
"aF c #000000",
"aG c #000000",
"aH c #000000",
"aI c #000000",
"aJ c #000000",
"aK c #000000",
"aL c #000000",
"aM c #000000",
"aN c #000000",
"aO c #000000",
"aP c #000000",
"aQ c #000000",
"aR c #000000",
"aS c #000000",
"aT c #000000",
"aU c #000000",
"aV c #000000",
"aW c #000000",
"aX c #000000",
"aY c #000000",
"aZ c #000000",
"a0 c #000000",
"a1 c #000000",
"a2 c #000000",
"a3 c #000000",
"a4 c #000000",
"a5 c #000000",
"a6 c #000000",
"a7 c #000000",
"a8 c #000000",
/* pixels */
"```````````.`#``````````````````",
"```````````a`b`c````````````````",
"```````````a`d`e`f``````````````",
"```````````a`g`h`i`j`#``````````",
"`k`a`a`a`a`l`m`n`o`p`q`r````````",
"`a`s`t`u`v`w`w`x`y`z`A`B`C``````",
"`a`D`E`F`G`H`I`J`K`L`M`N`O`P`#``",
"`a`Q`R`S`T`U`V`W`X`Y`Z`0`1`2`3`4",
"`a`5`6`6`6`7`8.`...#.a.b.c.d.e`4",
"`a`5`6`6.f.g.h.i.j.k.l.m.n.o`#``",
"`a`5`5`5.p.q.r.s.t.u.v.w.x``````",
"`k`a`a`a`a.y.z.A.B.C.D.E````````",
"```````````a.F.G.H.I`#``````````",
"```````````a.J.K.x``````````````",
"```````````a.L.M````````````````",
"```````````.`#``````````````````"
};
