/* XPM */
static const char *toolboxfavor_48_xpm[] = {
/* width height num_colors chars_per_pixel */
"    48    48      256            2",
/* colors */
"`` c #3c4664",
"`. c #8c7c58",
"`# c #c41a04",
"`a c #bcb684",
"`b c #ac7d3f",
"`c c #a43e24",
"`d c #444b65",
"`e c #844a4c",
"`f c #647aa4",
"`g c #a46664",
"`h c #e4d573",
"`i c #5c6264",
"`j c #c84234",
"`k c #949494",
"`l c #aca26c",
"`m c #b4b6b4",
"`n c #c4523c",
"`o c #aca294",
"`p c #746264",
"`q c #546488",
"`r c None",
"`s c #84839a",
"`t c #d4d4d4",
"`u c #9c8e4c",
"`v c #a43428",
"`w c #747574",
"`x c #d4ba44",
"`y c #645850",
"`z c #9c9c9c",
"`A c #997a49",
"`B c #b44e44",
"`C c #cc624c",
"`D c #d4c664",
"`E c #dc7b55",
"`F c #c4a63c",
"`G c #4c5670",
"`H c #ecde86",
"`I c #8c6654",
"`J c #cc3112",
"`K c #d45029",
"`L c #5c6e94",
"`M c #7c161c",
"`N c #b44634",
"`O c #d47054",
"`P c #7486ac",
"`Q c #c44638",
"`R c #9c9dc3",
"`S c #b48e3c",
"`T c #d4bea4",
"`U c #8485a7",
"`V c #d4b870",
"`W c #7c7c7c",
"`X c #aca9cc",
"`Y c #c4a367",
"`Z c #7c3644",
"`0 c #5c637c",
"`1 c #7c7258",
"`2 c #d45144",
"`3 c #a43e3c",
"`4 c #747a9a",
"`5 c #e4d294",
"`6 c #b43a2c",
"`7 c #94261c",
"`8 c #545274",
".` c #8492b4",
".. c #ece3ac",
".# c #a43a2c",
".a c #94826c",
".b c #6c6f8f",
".c c #d44822",
".d c #cc270e",
".e c #4b526b",
".f c #e4da7c",
".g c #c4c4c4",
".h c #747592",
".i c #d4be44",
".j c #545e80",
".k c #dc7654",
".l c #9ca2c4",
".m c #b4b2b4",
".n c #c4aa6c",
".o c #c47a7c",
".p c #646284",
".q c #948850",
".r c #dcca74",
".s c #e4dea4",
".t c #cc3614",
".u c #84725c",
".v c #9492b0",
".w c #848264",
".x c #bc7a44",
".y c #aca664",
".z c #bcb6d4",
".A c #848a9c",
".B c #5c5e78",
".C c #dc6842",
".D c #545973",
".E c #8c7250",
".F c #d4562d",
".G c #5c729c",
".H c #848db4",
".I c #747166",
".J c #7c8294",
".K c #d4be60",
".L c #bcb2d3",
".M c #cc220f",
".N c #ac4a2c",
".O c #4c4e68",
".P c #a4763a",
".Q c #e4d57e",
".R c #6c6c5c",
".S c #c85a40",
".T c #546a90",
".U c #ac3224",
".V c #a4a4a4",
".W c #a47a3e",
".X c #b45a34",
".Y c #cc9654",
".Z c #dc714b",
".0 c #c48a8c",
".1 c #848484",
".2 c #6c6c6c",
".3 c #9c2b1f",
".4 c #d4493c",
".5 c #d4ac64",
".6 c #ccb66c",
".7 c #ac8647",
".8 c #ac3f32",
"#` c #d4401c",
"#. c #ccb28c",
"## c #bc7274",
"#a c #ccbedc",
"#b c #ccb244",
"#c c #dcdcdc",
"#d c #9c9a6c",
"#e c #544654",
"#f c #bc7244",
"#g c #84222c",
"#h c #b49254",
"#i c #845a5c",
"#j c #cccbcc",
"#k c #7c4644",
"#l c #a49254",
"#m c #bcaa4c",
"#n c #846a6c",
"#o c #dcc26c",
"#p c #acacac",
"#q c #bc9b60",
"#r c #e4ce64",
"#s c #ac463c",
"#t c #e4d6bc",
"#u c #dc6039",
"#v c #b45e5c",
"#w c #dccaac",
"#x c #8c6664",
"#y c #d45a3c",
"#z c #6c6654",
"#A c #948e64",
"#B c #c4a65c",
"#C c #acaecc",
"#D c #948e94",
"#E c #9c7644",
"#F c #948eac",
"#G c #5c5e5f",
"#H c #b44a34",
"#I c #847674",
"#J c #d4b664",
"#K c #b45654",
"#L c #948a84",
"#M c #786a58",
"#N c #dcce64",
"#O c #8c2e2c",
"#P c #897e69",
"#Q c #dcb684",
"#R c #ccaa7c",
"#S c #d4c68c",
"#T c #cc3828",
"#U c #c4be7c",
"#V c #bcbebc",
"#W c #f4eab1",
"#X c #ece6a4",
"#Y c #c4824c",
"#Z c #947a5c",
"#0 c #8c6e44",
"#1 c #6c769c",
"#2 c #949abc",
"#3 c #7482ac",
"#4 c #cc5a54",
"#5 c #ccbe6f",
"#6 c #d4c284",
"#7 c #c4a67c",
"#8 c #d44234",
"a` c #cc554a",
"a. c #bc5240",
"a# c #dcc857",
"aa c #bc423c",
"ab c #646677",
"ac c #7c7d9c",
"ad c #7c7694",
"ae c #dcc14d",
"af c #8c8c8c",
"ag c #8c8aa4",
"ah c #e4da9c",
"ai c #646a8c",
"aj c #646e8c",
"ak c #ac3a34",
"al c #bc4a44",
"am c #444663",
"an c #cc1d0c",
"ao c #6c7da5",
"ap c #bcbabc",
"aq c #5c6484",
"ar c #e47d59",
"as c #7c88ae",
"at c #cc473c",
"au c #a49dbf",
"av c #8c93b9",
"aw c #a4a4c6",
"ax c #ccac64",
"ay c #ece29e",
"az c #8c846c",
"aA c #b4aa6c",
"aB c #c4bada",
"aC c #94764c",
"aD c #dc5a34",
"aE c #64759f",
"aF c #7c7268",
"aG c #8c2127",
"aH c #bc965c",
"aI c #9c926c",
"aJ c #b4b0d2",
"aK c #646564",
"aL c #a43634",
"aM c #7c7674",
"aN c #645a5c",
"aO c #9c9eac",
"aP c #4c5a7c",
"aQ c #ecdf94",
"aR c #cc2e1c",
"aS c #b48c4c",
"aT c #ac403c",
"aU c #747ea4",
"aV c #f4e6ac",
"aW c #d44a2c",
"aX c #74769c",
"aY c #d43814",
"aZ c #9496bc",
"a0 c #545a7c",
"a1 c #a4a2b4",
"a2 c #dc7254",
"a3 c #ac4a4c",
"a4 c #d4584c",
"a5 c #cca25c",
"a6 c #dcca8c",
"a7 c #bc4e4c",
"a8 c #8c8e9c",
/* pixels */
"`r`r`r`r`r`r`r`r`r`r`r`r`r`r`r`r`r`r`r`r`r`r`r`r`r`r`r`r`r`r`r`r`r`r`r`r`r`r`r`r`r`r`r`r`r`r`r`r",
"`r`r`r`r`r`r`r`r`r`r`r`r`r`r`r`r`r`r`r`r`r`r`r`r`r`r`r`r`r`r`r`r`r`r`r`r`r`r`r`r`r`r`r`r`r`r`r`r",
"`r`r`r`r`r`r`r`r`r`r`r`r`r`r`r`r`r`r`r`r`r`r`r`r`r`r`r`r`r`r`r`r`r`r`r`r`r`r`r`r`r`r`r`r`r`r`r`r",
"`r`r`r#D`W`W`W`W`W`W`W`W`W`W`W`W`W`W`W.1`r`r#vak`B`BaT#K`r`r`r`r`r`raT`N`B#sak.0`r`r`r`r`r`r`r`r",
"`r`r#j`k`t#j#j#j.g.g.g.g#V.g#V#V#V#V#V#p`e`6a2`Ear`Ear.k.Sa3`r`rak`C`E`E.k.kar#4aL`r`r`r`r`r`r`r",
"`r`r#jaO#j#p#p.V#p.V.V.VaO`zaO`zaO`z`z`gaa`Ea2.Z.Z.Z.Z.Z.Z`Oak.8.k.C.C.C.C.C.C.C.ka.`r`r`r`r`r`r",
"`r`r`t`zap`k`k`k#Dafafaf#Lafaf.1#L.1#x.#.k.Z.C.C.C.C.C.C.C.Ca2.k.C#u.C#u.C#u#u#u#ua2`B`r`r`r`r`r",
"`r`r`t`k#j.V.V.V`z`z`z`z`k`z`k`k`k`k#O.C.C.C.C.C#u.C#u#u#u#u#y#u#u#y#u#y#u#y#y#y#yaD.ZaT`r`r`r`r",
"`r`r#cafap`k#Dafafafaf.1.1.1.1`W.1#Iak.C#y#u#u#y#u#y#u#y#y#y#u.FaD.F.FaD`KaD.F.F.F#`aRaa`r`r`r`r",
"`r`r#caf#V`z`z`z`z`k`k`k`kaf#Dafaf#na.aD#yaD.FaD.F.F.F.F.F.F`K.F`K`K`K.c#``J.danan`#`#`j##`r`r`r",
"`r`r#c.1ap`kafaf.1.1.1.1`W`W`W`W`W`e.F.F.F`K`K`K`K`K`K`K`K`K`K`K`K.c.dan`#`#`#`#`#`#`#.4a3`r`r`r",
"`r`r`r.1#V`k`z`k`kafafafaf.1.1.1.1#ia.`K`K`K`K`K.c`K.c.c.c.c.c.c`J`#`#`#`#`#`#`#`#`#`#at.o`r`r`r",
"`r`r`raM`maf.1.1.1`W`W`W`W`W`w`w`w`p`N`K.c.c.c.c.c.c.c.c#`.caYan`#an`#`#`#an`#an`#ananaa`r`r`r`r",
"`r`r`r`wap`k#Daf.W.P.W.P.P.P.W.P.P.P`c`K#`#`#`#`#`#`#`#`#``Jan`#`#`#an`#an`#`#`#`#`#aR.U`r`r`r`r",
"`r`r`r.I#paf.1`.aS#X............ay...8aD#`#`aY#`aYaYaYaY.M`#`#`#an`#`#`#`#`#`#an`#an.4.#`r`r`r`r",
"`r`r`rab.m#D.1.a`Y#X`H`H`H`H`H`H`H`Ha5`N.c.taY.t.taY.d`#an`#`#`#`#`#`#`#`#`#`#`#`#.4`v`Y`r`r`r`r",
"`r`r`r`p#p.1.J`.`Y#X.Q.Q.Q.Q.Q.Q.f.Q.f.X`Q.t`J.d.d`#`#`#`#`#`#an`#`#`#`#an`#an`##Tak#Q`Y`r`r`r`r",
"`r`r`r#G#paf.1#Z`Vay.f`H.f.f.f.f`H`h.f.Q.3`jan`#`#`#`#`#`#`#an`#`#`#an`#`#`#`##Taa.xaVaH`r`r`r`r",
"`r`r`raN.V.1`W`A#6ay.f.Q.f`H`h.f.Q`H.Q.f#o.3`j.M`#an`#`#an`#`#`#`#`#`#an`#an#8`6#Y.QaVaS`r`r`r`r",
"`r`r`raK.Vaf`W`Aa6aQ`H`h.f.Q`H`h.f.f`H`h`H#o`v`jaR`#`#an`#`#`#`#an`#an`#`##8ak.Y.Q`haV`b`r`r`r`r",
"`r`r`raK`z.1`w.W`5aQ.f.f`H`h.f`H.Q.f`h.f.f.f`h`vaa#T`#`#`#`#`#an`#`#`#an.4.U.Y.Q`h`haV.P`r`r`r`r",
"`r`r`raK`z.1`W.W.s`H.Q.f.Q`H`h.Q.f`H.Q`H`h`H`h.Q.N`6#8an`#`#`#`#an`#an.4.U.5.Q`h`h.Q...P`r`r`r`r",
"`r`r`r.2#D.1`w.Pay`H.f`H`h.f.f`H`h.f`h.f.Q.f.f.f.Q#f.U.4anan`#`#`#an.4.3#Q`h`h`h`h`Hah.7`r`r`r`r",
"`r`r`r.2af.1aM.P...f.f.Q.f`H`h.f.f`H.Q`H`h`H.Q`H`h#5`I.3a4anan`#an.4aG`p`h`h`h`laz.Q`5aS`r`r`r`r",
"`r`r`r.2af.1.I.W#W.f`H.Q.f.Q.f`H`h.Q.f.f.f.Q.f`h#5.Oam#eaG`2.Man`2aG`8.OaI.6.Iam`daK#6`Y`r`r`r`r",
"`r`r`r.I.1.1aF.7aV.Q.f`H`h`H`h.Q.f`H`h`H`h`H.Q.f.O.e.T.eam`Ma7#4aG`LaEaPam```d`LaE`d.I#7`r`r`r`r",
"`r`r`r`w.1`W.uaSay.f.Q.f.Q.f.f`H.Q.f.Q`h.f`h`h`h`i`d.G.G.T.T`Z#gaE#1`faoao`Lao#3aEamaz#.`r`r`r`r",
"`r`r`raM`W`W.u#qaQ.f`H`h`H.Q.f`h`h`h`h`h`h`h`h`h#5`d.j.G`f#1ao#1aoao#3ao#3#3#3#3.e.R.n`T`r`r`r`r",
"`r`r`r`W`W.1.u#BaQ.f.Q.f`h`h`h`h`h`h`h`h`h`h`h`h`h`W.eaoaoaoao#3ao#1#3#3asasasaU```a`Y#w`r`r`r`r",
"`r`r`r.1`w`W.Eax`H.f`h`h`h`h`h`h`h`h`h`h`h`h`h`h`h.e.j#3#3`P#3`Gam``amaqas.H.H.H.e`WaH#t`r`r`r`r",
"`r`r`raf.I`W#E.6.f`h`h`h`h`h`h`h`h`h`h`h`h`h.K.y.wamaU`Pas#3.O.DaA#U#d.Oaqavavav`4am`y#D`r`r`r`r",
"`r`r`raf.2`W`A`V`h`h#r#r#r`h#r#r`h#r#r#r#r#A```d.Oaias.H.Hai`d`D#r#r#r`l``#3aZaZ#2.haq.D```r`r`r",
"`r`r`r`k.2.1#E#o#N#r#N#N#r#N#N#ra##N#r#Na#`1aPasas.`.`.H.`.B.Ia##Na#a#a#.O.h`R`R`R.l.law`d`r`r`r",
"`r`r`r`z.2aM.P.Ka#a#a#a#a#aea#a#a#aea#aea#.R`GaU.HavavavaZaq.Raea#aea#ae`dac.lawawaZ`U.ham`r`r`r",
"`r`r`raO#z.J.Paeaeaeaeaeaeaeaeaeaeaeae.iae#l.eam```0#2#2#2`4am#mae.iae.q```Rawawau`d``.p.J`r`r`r",
"`r`r`r#paKaM.P`x`x.i`x`x`x.i`x`x`x.i`x.i.i`x`x#b.q``.v`R.l`R.j`d`.`u`1``.h`X`XaJ.J`d.7`r`r`r`r`r",
"`r`r`r#p.2#P`b`x`x`x`x`x`x`x`x`x`x`x`x`x`x`x`x`x`x.O.bawaw`Xa1.h.e``.DagaJaJaJaJ.B#z#R`r`r`r`r`r",
"`r`r`r.g`y.P`S`F`F`F`F`F`F`F`F`F`F`F`F`F`F`F`F`F`F#M.e`X`X`X#C`XaJaJaJaJ.L.L.z.z.D`y`r`r`r`r`r`r",
"`r`r`r`r`o#E#E#E#E.P#E.P#E.P#E.P#E.P.P#E.P.P#E#E#0amadaJaJaJaJ.L.L.L.L.z.zaBaBaBau```r`r`r`r`r`r",
"`r`r`r`r`r`r`r`r`r`r`r`r`r`r`r`r`r`r`r`r`r`r`r`r.B`0aJaJag#F.L.z.zaBaBaB.L`s.b.L#a.h.O`r`r`r`r`r",
"`r`r`r`r`r`r`r`r`r`r`r`r`r`r`r`r`r`r`r`r`r`r`r`r.O.pa1.B`d``.eacaBaBaBad`d.e.B.Oag.e.h`r`r`r`r`r",
"`r`r`r`r`r`r`r`r`r`r`r`r`r`r`r`r`r`r`r`r`r`r`r`r`r.eamab`r`raO.O`saB.v`d`r`r`ra8amai`r`r`r`r`r`r",
"`r`r`r`r`r`r`r`r`r`r`r`r`r`r`r`r`r`r`r`r`r`r`r`r`r`r`r`r`r`r`r.J.b#aadab`r`r`r`r`r`r`r`r`r`r`r`r",
"`r`r`r`r`r`r`r`r`r`r`r`r`r`r`r`r`r`r`r`r`r`r`r`r`r`r`r`r`r`r`ra1.Dau`0ag`r`r`r`r`r`r`r`r`r`r`r`r",
"`r`r`r`r`r`r`r`r`r`r`r`r`r`r`r`r`r`r`r`r`r`r`r`r`r`r`r`r`r`r`r`ram``am`r`r`r`r`r`r`r`r`r`r`r`r`r",
"`r`r`r`r`r`r`r`r`r`r`r`r`r`r`r`r`r`r`r`r`r`r`r`r`r`r`r`r`r`r`r`r`r`r`r`r`r`r`r`r`r`r`r`r`r`r`r`r",
"`r`r`r`r`r`r`r`r`r`r`r`r`r`r`r`r`r`r`r`r`r`r`r`r`r`r`r`r`r`r`r`r`r`r`r`r`r`r`r`r`r`r`r`r`r`r`r`r",
"`r`r`r`r`r`r`r`r`r`r`r`r`r`r`r`r`r`r`r`r`r`r`r`r`r`r`r`r`r`r`r`r`r`r`r`r`r`r`r`r`r`r`r`r`r`r`r`r"
};
