/* XPM */
static const char *check_16_xpm[] = {
/* width height num_colors chars_per_pixel */
"    48    16      256            2",
/* colors */
"`` c None",
"`. c #8e8f8f",
"`# c #f4f4f4",
"`a c #f8f8f8",
"`b c #f9f9f9",
"`c c #f6f6f6",
"`d c #aeb3b9",
"`e c #afb4ba",
"`f c #b4b9bd",
"`g c #bbbec1",
"`h c #c9ccd0",
"`i c #9da7c0",
"`j c #7686ab",
"`k c #dcdfe4",
"`l c #f5f5f5",
"`m c #cbcfd5",
"`n c #d0d3d8",
"`o c #d5d8dc",
"`p c #dbdddf",
"`q c #c1c3c5",
"`r c #ccd0d6",
"`s c #edeef1",
"`t c #56699d",
"`u c #435992",
"`v c #b9bfd0",
"`w c #cdd1d6",
"`x c #d2d5da",
"`y c #d8dbde",
"`z c #dddfe1",
"`A c #e2e3e4",
"`B c #c6c7c8",
"`C c #e0e2e6",
"`D c #afb8cf",
"`E c #445992",
"`F c #6476a5",
"`G c #e7e7e8",
"`H c #c0c0c0",
"`I c #bfbfbf",
"`J c #bdbdbd",
"`K c #b9b9b9",
"`L c #b4b4b4",
"`M c #afafaf",
"`N c #cdd1d7",
"`O c #d0d4d9",
"`P c #d4d7db",
"`Q c #e1e2e3",
"`R c #e5e6e6",
"`S c #e8e8e8",
"`T c #cccdcd",
"`U c #d5d9dd",
"`V c #dfe2e5",
"`W c #f2f3f4",
"`X c #5d70a1",
"`Y c #465b94",
"`Z c #bcc3d6",
"`0 c #dbdcdc",
"`1 c #b8b8b8",
"`2 c #b3b3b3",
"`3 c #adadad",
"`4 c #b2b7bc",
"`5 c #dadcdf",
"`6 c #e0e1e3",
"`7 c #ececec",
"`8 c #ededed",
".` c #d4d5d6",
".. c #c5c9cd",
".# c #c9cfdd",
".a c #a3aec8",
".b c #edeeee",
".c c #bac1d5",
".d c #485d96",
".e c #6375a5",
".f c #d5d5d6",
".g c #bebebe",
".h c #bababa",
".i c #b5b5b5",
".j c #b0b0b0",
".k c #aaaaaa",
".l c #b8bbbf",
".m c #e4e5e5",
".n c #eaeaea",
".o c #efefef",
".p c #f2f2f2",
".q c #dcddde",
".r c #dee0e1",
".s c #6d7eaa",
".t c #cfd4e2",
".u c #6677a7",
".v c #4a5f97",
".w c #b7bfd5",
".x c #bbbbbb",
".y c #b7b7b7",
".z c #b2b2b2",
".A c #a8a8a8",
".B c #bcbfc2",
".C c #e3e4e5",
".D c #e9e9e9",
".E c #e1e2e2",
".F c #cdcfd1",
".G c #dee1e9",
".H c #475c95",
".I c #485e96",
".J c #6072a4",
".K c #f8f9fa",
".L c #a9a9a9",
".M c #a5a5a5",
".N c #c2c4c6",
".O c #f0f0f0",
".P c #e6e6e6",
".Q c #c6c8ca",
".R c #eaecf0",
".S c #8b99bb",
".T c #495e97",
".U c #4b6098",
".V c #b0b9d1",
".W c #b1b1b1",
".X c #acacac",
".Y c #a3a3a3",
".Z c #cacbcc",
".0 c #d4d4d5",
".1 c #dbdbdc",
".2 c #e0e1e1",
".3 c #e6e7e7",
".4 c #eaebeb",
".5 c #ebecec",
".6 c #ebebec",
".7 c #e9e9ea",
".8 c #dadadb",
"#` c #dfe2e9",
"#. c #8c99ba",
"## c #909dbd",
"#a c #f2f3f6",
"#b c #eceded",
"#c c #000000",
"#d c #000000",
"#e c #000000",
"#f c #000000",
"#g c #000000",
"#h c #000000",
"#i c #000000",
"#j c #000000",
"#k c #000000",
"#l c #000000",
"#m c #000000",
"#n c #000000",
"#o c #000000",
"#p c #000000",
"#q c #000000",
"#r c #000000",
"#s c #000000",
"#t c #000000",
"#u c #000000",
"#v c #000000",
"#w c #000000",
"#x c #000000",
"#y c #000000",
"#z c #000000",
"#A c #000000",
"#B c #000000",
"#C c #000000",
"#D c #000000",
"#E c #000000",
"#F c #000000",
"#G c #000000",
"#H c #000000",
"#I c #000000",
"#J c #000000",
"#K c #000000",
"#L c #000000",
"#M c #000000",
"#N c #000000",
"#O c #000000",
"#P c #000000",
"#Q c #000000",
"#R c #000000",
"#S c #000000",
"#T c #000000",
"#U c #000000",
"#V c #000000",
"#W c #000000",
"#X c #000000",
"#Y c #000000",
"#Z c #000000",
"#0 c #000000",
"#1 c #000000",
"#2 c #000000",
"#3 c #000000",
"#4 c #000000",
"#5 c #000000",
"#6 c #000000",
"#7 c #000000",
"#8 c #000000",
"a` c #000000",
"a. c #000000",
"a# c #000000",
"aa c #000000",
"ab c #000000",
"ac c #000000",
"ad c #000000",
"ae c #000000",
"af c #000000",
"ag c #000000",
"ah c #000000",
"ai c #000000",
"aj c #000000",
"ak c #000000",
"al c #000000",
"am c #000000",
"an c #000000",
"ao c #000000",
"ap c #000000",
"aq c #000000",
"ar c #000000",
"as c #000000",
"at c #000000",
"au c #000000",
"av c #000000",
"aw c #000000",
"ax c #000000",
"ay c #000000",
"az c #000000",
"aA c #000000",
"aB c #000000",
"aC c #000000",
"aD c #000000",
"aE c #000000",
"aF c #000000",
"aG c #000000",
"aH c #000000",
"aI c #000000",
"aJ c #000000",
"aK c #000000",
"aL c #000000",
"aM c #000000",
"aN c #000000",
"aO c #000000",
"aP c #000000",
"aQ c #000000",
"aR c #000000",
"aS c #000000",
"aT c #000000",
"aU c #000000",
"aV c #000000",
"aW c #000000",
"aX c #000000",
"aY c #000000",
"aZ c #000000",
"a0 c #000000",
"a1 c #000000",
"a2 c #000000",
"a3 c #000000",
"a4 c #000000",
"a5 c #000000",
"a6 c #000000",
"a7 c #000000",
"a8 c #000000",
/* pixels */
"````````````````````````````````````````````````````````````````````````````````````````````````",
"```.`.`.`.`.`.`.`.`.`.`.`.`.```````.`.`.`.`.`.`.`.`.`.`.`.`.````````````````````````````````````",
"```.`#`#`#`#`#`#`#`#`#`#`#`.```````.`#`#`#`#`#`#`#`a`b`c`#`.````````````````````````````````````",
"```.`#`d`d`d`d`d`d`e`f`g`#`.```````.`#`d`d`d`d`d`h`i`j`k`l`.````````````````````````````````````",
"```.`#`d`m`m`m`m`n`o`p`q`#`.```````.`#`d`m`m`m`r`s`t`u`v`c`.````````````````````````````````````",
"```.`#`d`m`m`w`x`y`z`A`B`#`.```````.`#`d`m`m`w`C`D`E`F`G`#`.```````````````H`I`J`K`L`M``````````",
"```.`#`d`N`O`P`p`Q`R`S`T`#`.```````.`#`d`U`V`o`W`X`Y`Z`0`#`.```````````````H`I`J`1`2`3``````````",
"```.`#`4`o`5`6`S`7`8`8.``#`.```````.`#...#.a.b.c.d.e`a.f`#`.``````````````.g.g.h.i.j.k``````````",
"```.`#.l`z.m.n.o.p.p.p.q`#`.```````.`#.r.s`Y.t.u.v.w`c.q`#`.``````````````.x.h.y.z`3.A``````````",
"```.`#.B.C.D`8.p`#`l`#.E`#`.```````.`#.F.G.H.I.v.J.K`#.E`#`.``````````````.y.i.z`3.L.M``````````",
"```.`#.N.D`8.O`#`c`c`c.P`#`.```````.`#.Q.R.S.T.U.V`b`c.P`#`.``````````````.W`M.X.A.M.Y``````````",
"```.`#.Z.0.1.2.3.4.5.6.7`#`.```````.`#.Z.8#`#.###a#b.6.7`#`.````````````````````````````````````",
"```.`#`#`#`#`#`#`#`#`#`#`#`.```````.`#`#`#`l`b`a`l`#`#`#`#`.````````````````````````````````````",
"```.`.`.`.`.`.`.`.`.`.`.`.`.```````.`.`.`.`.`.`.`.`.`.`.`.`.````````````````````````````````````",
"````````````````````````````````````````````````````````````````````````````````````````````````",
"````````````````````````````````````````````````````````````````````````````````````````````````"
};
