/* XPM */
static const char *cont_view_48_xpm[] = {
/* width height num_colors chars_per_pixel */
"   144    48      256            2",
/* colors */
"`` c None",
"`. c #8c8e8c",
"`# c #bccacc",
"`a c #c4e6ec",
"`b c #e4e6e4",
"`c c #d4d6c4",
"`d c #d4e6ec",
"`e c #bcbebc",
"`f c #e4f6fc",
"`g c #d4eef4",
"`h c #d4dedc",
"`i c #9c9e9c",
"`j c #e4eeec",
"`k c #bcdeec",
"`l c #cce6ec",
"`m c #dce6ec",
"`n c #f4f2f4",
"`o c #d4dadc",
"`p c #c4c6c4",
"`q c #dceef4",
"`r c #e4e2e4",
"`s c #a4a6a4",
"`t c #eceeec",
"`u c #949694",
"`v c #c4c2c4",
"`w c #fcfafc",
"`x c #dcdedc",
"`y c #e4f2fc",
"`z c #cce2ec",
"`A c #dcf2f4",
"`B c #948e8c",
"`C c #cccacc",
"`D c #c4eaf4",
"`E c #d4d2d4",
"`F c #d4eaec",
"`G c #bcc2c4",
"`H c #e4f2f4",
"`I c #c4e2ec",
"`J c #cceaf4",
"`K c #dceaec",
"`L c #aca6a4",
"`M c #c4e6f4",
"`N c #eceaec",
"`O c #bcbec4",
"`P c #ecf6fc",
"`Q c #d4dee4",
"`R c #a4a2a4",
"`S c #e4eef4",
"`T c #bce2ec",
"`U c #cce6f4",
"`V c #dcdadc",
"`W c #dceefc",
"`X c #fcfefc",
"`Y c #dce2e4",
"`Z c #dcf2fc",
"`0 c #949294",
"`1 c #cccecc",
"`2 c #d4d6d4",
"`3 c #d4eaf4",
"`4 c #dceaf4",
"`5 c #acaaac",
"`6 c #000000",
"`7 c #000000",
"`8 c #000000",
".` c #000000",
".. c #000000",
".# c #000000",
".a c #000000",
".b c #000000",
".c c #000000",
".d c #000000",
".e c #000000",
".f c #000000",
".g c #000000",
".h c #000000",
".i c #000000",
".j c #000000",
".k c #000000",
".l c #000000",
".m c #000000",
".n c #000000",
".o c #000000",
".p c #000000",
".q c #000000",
".r c #000000",
".s c #000000",
".t c #000000",
".u c #000000",
".v c #000000",
".w c #000000",
".x c #000000",
".y c #000000",
".z c #000000",
".A c #000000",
".B c #000000",
".C c #000000",
".D c #000000",
".E c #000000",
".F c #000000",
".G c #000000",
".H c #000000",
".I c #000000",
".J c #000000",
".K c #000000",
".L c #000000",
".M c #000000",
".N c #000000",
".O c #000000",
".P c #000000",
".Q c #000000",
".R c #000000",
".S c #000000",
".T c #000000",
".U c #000000",
".V c #000000",
".W c #000000",
".X c #000000",
".Y c #000000",
".Z c #000000",
".0 c #000000",
".1 c #000000",
".2 c #000000",
".3 c #000000",
".4 c #000000",
".5 c #000000",
".6 c #000000",
".7 c #000000",
".8 c #000000",
"#` c #000000",
"#. c #000000",
"## c #000000",
"#a c #000000",
"#b c #000000",
"#c c #000000",
"#d c #000000",
"#e c #000000",
"#f c #000000",
"#g c #000000",
"#h c #000000",
"#i c #000000",
"#j c #000000",
"#k c #000000",
"#l c #000000",
"#m c #000000",
"#n c #000000",
"#o c #000000",
"#p c #000000",
"#q c #000000",
"#r c #000000",
"#s c #000000",
"#t c #000000",
"#u c #000000",
"#v c #000000",
"#w c #000000",
"#x c #000000",
"#y c #000000",
"#z c #000000",
"#A c #000000",
"#B c #000000",
"#C c #000000",
"#D c #000000",
"#E c #000000",
"#F c #000000",
"#G c #000000",
"#H c #000000",
"#I c #000000",
"#J c #000000",
"#K c #000000",
"#L c #000000",
"#M c #000000",
"#N c #000000",
"#O c #000000",
"#P c #000000",
"#Q c #000000",
"#R c #000000",
"#S c #000000",
"#T c #000000",
"#U c #000000",
"#V c #000000",
"#W c #000000",
"#X c #000000",
"#Y c #000000",
"#Z c #000000",
"#0 c #000000",
"#1 c #000000",
"#2 c #000000",
"#3 c #000000",
"#4 c #000000",
"#5 c #000000",
"#6 c #000000",
"#7 c #000000",
"#8 c #000000",
"a` c #000000",
"a. c #000000",
"a# c #000000",
"aa c #000000",
"ab c #000000",
"ac c #000000",
"ad c #000000",
"ae c #000000",
"af c #000000",
"ag c #000000",
"ah c #000000",
"ai c #000000",
"aj c #000000",
"ak c #000000",
"al c #000000",
"am c #000000",
"an c #000000",
"ao c #000000",
"ap c #000000",
"aq c #000000",
"ar c #000000",
"as c #000000",
"at c #000000",
"au c #000000",
"av c #000000",
"aw c #000000",
"ax c #000000",
"ay c #000000",
"az c #000000",
"aA c #000000",
"aB c #000000",
"aC c #000000",
"aD c #000000",
"aE c #000000",
"aF c #000000",
"aG c #000000",
"aH c #000000",
"aI c #000000",
"aJ c #000000",
"aK c #000000",
"aL c #000000",
"aM c #000000",
"aN c #000000",
"aO c #000000",
"aP c #000000",
"aQ c #000000",
"aR c #000000",
"aS c #000000",
"aT c #000000",
"aU c #000000",
"aV c #000000",
"aW c #000000",
"aX c #000000",
"aY c #000000",
"aZ c #000000",
"a0 c #000000",
"a1 c #000000",
"a2 c #000000",
"a3 c #000000",
"a4 c #000000",
"a5 c #000000",
"a6 c #000000",
"a7 c #000000",
"a8 c #000000",
/* pixels */
"````````````````````````````````````````````````````````````````````````````````````````````````````````````````````````````````````````````````````````````````````````````````````````````````````````````````````````````````````````````````````````````````````````````````````````````````",
"````````````````````````````````````````````````````````````````````````````````````````````````````````````````````````````````````````````````````````````````````````````````````````````````````````````````````````````````````````````````````````````````````````````````````````````````",
"````````````````````````````````````````````````````````````````````````````````````````````````````````````````````````````````````````````````````````````````````````````````````````````````````````````````````````````````````````````````````````````````````````````````````````````````",
"`````````````````````````````````````````````````````````````````````````````````````````````````````````````````````````````````````````````````````````````````````````````````````````````````````````````````V`V`E`V`E`V`E`V`E`V`E`V`E`V`E`V`E`V`E`V`E`r`c`V````````````````````````````````",
"`````````````````````````````````````````````````````````````````````````````````````````````````````````````````````````````````````````````````````````````````````````````````````````````````````````````````E`k`k`I`I`z`z`z`d`d`m`m`m`d`m`d`d`d`d`d`d`4`o`R`V``````````````````````````````",
"`````````````````````````````````````````````````````````````````````````````````````````````````````````````````````````````````````````````````````````````````````````````````````````````````````````````````E`M`U`M`U`J`J`J`J`3`J`g`J`g`g`g`W`W`q`W`q`q`m`V`R`V````````````````````````````",
"`````````````````````````````````````````````````````````````````````````````````````````````````````````````````````````````````````````````````````````````````````````````````````````````````````````````````E`D`M`U`M`U`D`J`J`J`J`3`3`3`g`3`g`g`W`q`3`3`q`e`2`L`2``````````````````````````",
"`````````````````````````````````````````````````````````````````````````````````````````````````````````````````````````````````````````````````````````````````````````````````````````````````````````````````E`M`M`M`J`M`J`U`J`d`J`3`J`3`g`3`W`g`q`g`W`q`Z`e`V`b`R`E````````````````````````",
"`````````````````````````````````````````````````````````````````````````````````````````````````````````````````````````````````````````````````````````````````````````````````````````````````````````````````E`D`U`a`U`J`l`J`J`J`J`3`g`3`g`3`g`q`3`W`q`q`W`O`r`N`r`L`E``````````````````````",
"`````````````````````````````````````````````````````````````````````````````````````````````````````````````````````````````````````````````````````````````````````````````````````````````````````````````````E`M`M`M`U`M`J`U`J`U`3`J`J`3`g`3`g`3`W`q`q`q`Z`G`t`X`t`N`s`E````````````````````",
"`````````````````````````````````````````````````````````````````````````````````````````````````````````````````````````````````````````````````````````````````````````````````````````````````````````````````E`D`M`U`D`l`M`J`J`J`J`3`3`3`g`3`W`3`q`g`W`q`A`G`n`w`n`t`t`R`C``````````````````",
"`````````````````````````````````````````````````````````````````````````````````````````````````````````````````````````````````````````````````````````````````````````````````````````````````````````````````E`M`M`a`U`M`J`U`J`U`3`J`g`3`g`3`g`3`W`q`q`q`Z`#`e`1`C`p`v`V`B`V````````````````",
"`````````````````````````````````````````````````````````````````````````````````````````````````````````````````````````````````````````````````````````````````````````````````````````````````````````````````E`D`U`M`M`U`J`l`J`J`J`3`J`3`3`g`3`W`g`4`q`W`S`4`o`z`o`o`o`Y`b`u````````````````",
"`````````````````````````````````````````````````````````````````````````````````````````````````````````````````````````````````````````````````````````````````````````````````````````````````````````````````E`M`M`a`J`a`J`U`J`J`3`J`3`g`3`g`3`g`q`g`q`q`q`Z`y`H`y`f`y`S`P`.````````````````",
"`````````````````````````````````````````````````````````````````````````````````````````````````````````````````````````````````````````````````````````````````````````````````````````````````````````````````E`D`M`U`M`U`J`U`J`J`J`3`J`3`3`g`3`W`3`W`q`W`q`q`q`S`A`S`H`S`f`0````````````````",
"`````````````````````````````````````````````````````````````````````````````````````````````````````````````````````````````````````````````````````````````````````````````````````````````````````````````````E`M`M`a`U`M`J`U`J`J`J`3`3`J`3`g`3`q`g`q`q`q`q`W`S`Z`S`y`H`y`P`.````````````````",
"`````````````````````````````````````````````````````````````````````````````````````````````````````````````````````````````````````````````````````````````````````````````````````````````````````````````````E`D`U`M`D`l`J`a`J`U`J`3`J`g`3`g`3`W`3`q`3`W`q`q`q`H`S`y`S`H`P`.````````````````",
"`````````````````````````````````````````````````````````````````````````````````````````````````````````````````````````````````````````````````````````````````````````````````````````````````````````````````E`M`M`a`U`M`J`U`J`J`J`3`3`3`3`g`3`q`3`q`q`q`q`y`q`y`q`H`y`S`P`.````````````````",
"`````````````````````````````````````````````````````````````````````````````````````````````````````````````````````````````````````````````````````````````````````````````````````````````````````````````````E`D`M`U`M`l`M`J`U`J`l`3`J`3`3`3`g`3`q`g`W`q`q`q`S`q`y`S`y`H`P`.````````````````",
"`````````````````````````````````````````````````````````````````````````````````````````````````````````````````````````````````````````````````````````````````````````````````````````````````````````````````E`M`M`a`M`J`U`l`J`J`J`3`J`g`3`3`g`4`g`4`q`q`q`W`A`S`q`y`S`H`P`.````````````````",
"`````````````````````````````````````````````````````````````````````````````````````````````````````````````````````````````````````````````````````````````````````````````````````````````````````````````````E`D`U`M`U`a`M`J`U`J`U`3`3`J`3`3`g`3`W`g`q`q`q`q`S`W`H`S`H`S`P`.````````````````",
"`````````````````````````````````````````````````````````````````````````````````````````````````````````````````````````````````````````````````````````````````````````````````````````````````````````````````E`M`M`a`M`U`U`J`l`J`J`J`F`3`g`3`g`3`q`4`q`W`q`W`S`q`H`S`y`H`P`.````````````````",
"`````````````````````````````````````````````````````````````````````````````````````````````````````````````````````````````````````````````````````````````````````````````````````````````````````````````````E`D`M`U`a`J`M`J`U`J`F`J`J`3`3`3`g`4`g`3`q`q`q`q`q`S`Z`S`H`S`f`B````````````````",
"`````````````````````````````````````````````````````````````````````````````````````````````````````````````````````````````````````````````````````````````````````````````````````````````````````````````````E`M`a`M`U`M`l`J`l`J`U`3`J`3`3`3`g`3`q`4`g`q`q`q`S`W`H`S`y`S`P`.````````````````",
"`````````````````````````````````````````````````````````````````````````````````````````````````````````````````````````````````````````````````````````````````````````````````````````````````````````````````E`D`M`M`l`M`U`U`J`U`J`3`J`3`3`3`g`3`g`4`W`q`q`W`S`q`S`y`S`H`P`.````````````````",
"`````````````````````````````````````````````````````````````````````````````````````````````````````````````````````````````````````````````````````````````````````````````````````````````````````````````````E`M`M`l`M`l`D`l`J`U`J`J`3`3`J`3`3`4`g`4`g`q`q`q`q`H`W`H`S`H`y`B````````````````",
"`````````````````````````````````````````````````````````````````````````````````````````````````````````````````````````````````````````````````````````````````````````````````````````````````````````````````E`D`M`a`M`U`M`U`J`l`J`F`J`3`F`g`3`3`g`4`q`q`q`q`q`S`S`A`S`y`P`.````````````````",
"`````````````````````````````````````````````````````````````````````````````````````````````````````````````````````````````````````````````````````````````````````````````````````````````````````````````````E`M`M`M`a`U`l`M`J`U`J`3`J`3`3`3`3`4`g`4`q`q`4`W`q`S`q`y`S`H`P`.````````````````",
"`````````````````````````````````````````````````````````````````````````````````````````````````````````````````````````````````````````````````````````````````````````````````````````````````````````````````E`D`a`z`M`M`U`l`J`l`J`3`U`3`J`3`g`3`g`4`g`q`q`q`q`y`S`H`S`H`P`.````````````````",
"`````````````````````````````````````````````````````````````````````````````````````````````````````````````````````````````````````````````````````````````````````````````````````````````````````````````````E`M`M`M`M`l`D`U`J`U`J`J`F`J`3`F`3`3`4`g`4`q`4`q`q`S`q`H`S`S`f`B````````````````",
"`````````````````````````````````````````````````````````````````````````````````````````````````````````````````````````````````````````````````````````````````````````````````````````````````````````````````E`D`M`a`U`M`l`U`l`J`l`3`U`3`3`g`3`g`4`3`q`q`q`W`q`S`q`S`y`H`P`.````````````````",
"`````````````````````````````````````````````````````````````````````````````````````````````````````````````````````````````````````````````````````````````````````````````````````````````````````````````````E`M`M`I`M`l`M`J`U`U`J`J`F`J`3`3`3`3`3`q`3`q`4`q`q`S`Z`S`S`S`f`B````````````````",
"`````````````````````````````````````````````````````````````````````````````````````````````````````````````````````````````````````````````````````````````````````````````````````````````````````````````````E`D`a`U`M`M`l`M`l`J`l`3`U`3`3`F`3`g`4`3`q`q`q`q`q`S`q`S`H`y`P`.````````````````",
"`````````````````````````````````````````````````````````````````````````````````````````````````````````````````````````````````````````````````````````````````````````````````````````````````````````````````E`M`a`I`M`l`M`U`U`J`U`J`F`J`3`3`3`3`F`q`3`q`4`q`q`S`q`y`S`S`f`B````````````````",
"`````````````````````````````````````````````````````````````````````````````````````````````````````````````````````````````````````````````````````````````````````````````````````````````````````````````````E`D`M`M`U`M`l`J`l`J`l`J`3`U`3`3`F`g`4`3`q`q`q`q`q`S`q`S`H`H`P`.````````````````",
"`````````````````````````````````````````````````````````````````````````````````````````````````````````````````````````````````````````````````````````````````````````````````````````````````````````````````E`M`I`M`I`M`l`M`l`J`U`J`F`3`J`3`3`3`g`4`g`4`q`4`q`S`Z`S`S`S`f`B````````````````",
"`````````````````````````````````````````````````````````````````````````````````````````````````````````````````````````````````````````````````````````````````````````````````````````````````````````````````E`M`a`M`l`M`U`l`U`J`l`J`U`3`F`3`g`3`4`g`4`q`q`q`q`q`S`q`H`H`P`.````````````````",
"`````````````````````````````````````````````````````````````````````````````````````````````````````````````````````````````````````````````````````````````````````````````````````````````````````````````````E`M`I`M`I`U`a`J`M`U`J`d`J`3`J`3`3`3`3`4`g`4`q`4`q`S`q`y`S`S`P`.````````````````",
"`````````````````````````````````````````````````````````````````````````````````````````````````````````````````````````````````````````````````````````````````````````````````````````````````````````````````E`M`M`a`U`M`U`a`U`l`J`U`3`J`F`3`F`3`g`4`4`g`q`q`q`S`q`S`H`S`f`B````````````````",
"`````````````````````````````````````````````````````````````````````````````````````````````````````````````````````````````````````````````````````````````````````````````````````````````````````````````````E`M`I`M`I`a`U`l`U`l`J`l`J`F`3`3`3`3`3`K`g`4`q`4`q`S`Z`S`q`S`P`.````````````````",
"`````````````````````````````````````````````````````````````````````````````````````````````````````````````````````````````````````````````````````````````````````````````````````````````````````````````````E`M`a`M`a`U`a`M`U`l`J`d`J`3`J`3`F`3`3`4`q`4`q`q`q`S`q`S`S`H`f`B````````````````",
"`````````````````````````````````````````````````````````````````````````````````````````````````````````````````````````````````````````````````````````````````````````````````````````````````````````````````E`M`I`I`M`I`U`l`U`U`J`U`J`3`d`3`3`3`g`4`g`4`q`q`q`q`S`q`S`S`P`.````````````````",
"`````````````````````````````````````````````````````````````````````````````````````````````````````````````````````````````````````````````````````````````````````````````````````````````````````````````````V`D`J`U`J`J`J`J`J`J`g`g`g`g`g`g`q`q`q`q`A`q`Z`H`S`y`y`y`f`y`P`.````````````````",
"`````````````````````````````````````````````````````````````````````````````````````````````````````````````````````````````````````````````````````````````````````````````````````````````````````````````````C`T`d`T`I`k`I`I`I`l`I`z`z`U`z`U`l`d`U`d`3`d`4`3`4`K`4`K`j`j`P`.````````````````",
"`````````````````````````````````````````````````````````````````````````````````````````````````````````````````````````````````````````````````````````````````````````````````````````````````````````````````E`R`i`i`i`i`i`R`i`i`i`i`i`i`i`R`i`i`R`i`i`R`i`i`i`i`i`i`i`i`i`L````````````````",
"````````````````````````````````````````````````````````````````````````````````````````````````````````````````````````````````````````````````````````````````````````````````````````````````````````````````````````````````````````````````````````````````````````````````````````````````",
"````````````````````````````````````````````````````````````````````````````````````````````````````````````````````````````````````````````````````````````````````````````````````````````````````````````````````````````````````````````````````````````````````````````````````````````````",
"````````````````````````````````````````````````````````````````````````````````````````````````````````````````````````````````````````````````````````````````````````````````````````````````````````````````````````````````````````````````````````````````````````````````````````````````"
};
