/* XPM */
static const char *cont_view_16_xpm[] = {
/* width height num_colors chars_per_pixel */
"    48    16      256            2",
/* colors */
"`` c None",
"`. c #c0c0c0",
"`# c #c4e6f2",
"`a c #c7e7f2",
"`b c #cbe9f3",
"`c c #ceeaf4",
"`d c #d2ecf5",
"`e c #d6edf6",
"`f c #d8eef6",
"`g c #dcf0f7",
"`h c #c9cecf",
"`i c #bababa",
"`j c #bfbfbf",
"`k c #c3e6f1",
"`l c #cae9f3",
"`m c #d9eff7",
"`n c #c4cdd0",
"`o c #f6f6f6",
"`p c #bbbbbb",
"`q c #bdbdbd",
"`r c #c3e5f1",
"`s c #c6e7f2",
"`t c #cae8f3",
"`u c #d5edf5",
"`v c #bdcacf",
"`w c #bcc4c7",
"`x c #bbbec0",
"`y c #bcbcbc",
"`z c #c3e5f0",
"`A c #c6e6f1",
"`B c #cae8f2",
"`C c #cee9f3",
"`D c #d1ebf4",
"`E c #e0f1f8",
"`F c #d7e5ec",
"`G c #d8e4ea",
"`H c #c2e4f0",
"`I c #c9e8f2",
"`J c #cde9f3",
"`K c #d5ecf5",
"`L c #dceff7",
"`M c #dff1f7",
"`N c #e3f2f9",
"`O c #e7f4f9",
"`P c #b8b8b8",
"`Q c #5d7aab",
"`R c #4a6798",
"`S c #6280b1",
"`T c #6986b8",
"`U c #6c89bb",
"`V c #6784b6",
"`W c #5a77a9",
"`X c #466496",
"`Y c #375486",
"`Z c #2d4a7b",
"`0 c #274475",
"`1 c #264374",
"`2 c #c2e4ef",
"`3 c #c5e5f0",
"`4 c #c9e7f1",
"`5 c #cde8f3",
"`6 c #d1eaf4",
"`7 c #d5ecf4",
"`8 c #6a88ba",
".` c #bbdeff",
".. c #a6c9ed",
".# c #345183",
".a c #5976a8",
".b c #badeff",
".c c #afd4f9",
".d c #9ec3e8",
".e c #8db1d5",
".f c #84a7ca",
".g c #233f6f",
".h c #b5b5b5",
".i c #c1e3ef",
".j c #cce8f2",
".k c #d0eaf3",
".l c #d4ebf4",
".m c #d7edf5",
".n c #dbeff6",
".o c #dff0f7",
".p c #e3f2f8",
".q c #6280b2",
".r c #bce0ff",
".s c #b0d5fa",
".t c #9fc4e9",
".u c #8eb1d5",
".v c #436091",
".w c #9fc2e7",
".x c #99bde2",
".y c #8eb2d7",
".z c #84a7cb",
".A c #213d6e",
".B c #b3b3b3",
".C c #c4e4ef",
".D c #c8e6f0",
".E c #dbeef6",
".F c #e3f1f8",
".G c #e6f3f9",
".H c #4c699b",
".I c #a9ccf0",
".J c #a1c5ea",
".K c #9abee4",
".L c #90b4da",
".M c #86a9cd",
".N c #80a2c6",
".O c #213d6d",
".P c #2c497a",
".Q c #86a9cc",
".R c #81a3c7",
".S c #203c6c",
".T c #b1b1b1",
".U c #c1e2ee",
".V c #cce7f1",
".W c #cfe9f2",
".X c #d3eaf3",
".Y c #d7ecf5",
".Z c #dbeef5",
".0 c #def0f6",
".1 c #e2f1f8",
".2 c #e6f3f8",
".3 c #415e8f",
".4 c #3c598a",
".5 c #2e4b7c",
".6 c #284576",
".7 c #234071",
".8 c #1f3b6c",
"#` c #1f3b6b",
"#. c #203d6d",
"## c #223e6e",
"#a c #adadad",
"#b c #c0e2ee",
"#c c #c3e3ef",
"#d c #c7e5ef",
"#e c #cbe7f1",
"#f c #d6ecf4",
"#g c #daedf5",
"#h c #deeff6",
"#i c #e2f1f7",
"#j c #e6f2f8",
"#k c #acacac",
"#l c #c0e1ed",
"#m c #c3e3ee",
"#n c #cbe6f0",
"#o c #cfe8f1",
"#p c #d3e9f2",
"#q c #d6ebf4",
"#r c #deeff5",
"#s c #e1f0f7",
"#t c #e5f2f8",
"#u c #9d9d9d",
"#v c #bfe1ed",
"#w c #c3e2ee",
"#x c #c7e4ef",
"#y c #cae6f0",
"#z c #cee8f1",
"#A c #d2e9f2",
"#B c #d5ebf3",
"#C c #d9ecf4",
"#D c #ddeef5",
"#E c #e1f0f6",
"#F c #e5f2f7",
"#G c #909090",
"#H c #c2e2ed",
"#I c #c6e4ee",
"#J c #cae5f0",
"#K c #cee7f0",
"#L c #d2e9f1",
"#M c #d5eaf3",
"#N c #e1eff6",
"#O c #e5f1f7",
"#P c #868686",
"#Q c #bfe0ec",
"#R c #cae5ef",
"#S c #cde7f0",
"#T c #d1e8f1",
"#U c #d5eaf2",
"#V c #d9ebf3",
"#W c #dcedf4",
"#X c #e0eff6",
"#Y c #e4f1f6",
"#Z c #797979",
"#0 c #000000",
"#1 c #000000",
"#2 c #000000",
"#3 c #000000",
"#4 c #000000",
"#5 c #000000",
"#6 c #000000",
"#7 c #000000",
"#8 c #000000",
"a` c #000000",
"a. c #000000",
"a# c #000000",
"aa c #000000",
"ab c #000000",
"ac c #000000",
"ad c #000000",
"ae c #000000",
"af c #000000",
"ag c #000000",
"ah c #000000",
"ai c #000000",
"aj c #000000",
"ak c #000000",
"al c #000000",
"am c #000000",
"an c #000000",
"ao c #000000",
"ap c #000000",
"aq c #000000",
"ar c #000000",
"as c #000000",
"at c #000000",
"au c #000000",
"av c #000000",
"aw c #000000",
"ax c #000000",
"ay c #000000",
"az c #000000",
"aA c #000000",
"aB c #000000",
"aC c #000000",
"aD c #000000",
"aE c #000000",
"aF c #000000",
"aG c #000000",
"aH c #000000",
"aI c #000000",
"aJ c #000000",
"aK c #000000",
"aL c #000000",
"aM c #000000",
"aN c #000000",
"aO c #000000",
"aP c #000000",
"aQ c #000000",
"aR c #000000",
"aS c #000000",
"aT c #000000",
"aU c #000000",
"aV c #000000",
"aW c #000000",
"aX c #000000",
"aY c #000000",
"aZ c #000000",
"a0 c #000000",
"a1 c #000000",
"a2 c #000000",
"a3 c #000000",
"a4 c #000000",
"a5 c #000000",
"a6 c #000000",
"a7 c #000000",
"a8 c #000000",
/* pixels */
"```````````````````````````````````````````````````````````````````.`.`.`.`.`.`.`.`.`.``````````",
"```````````````````````````````````````````````````````````````````.`#`a`b`c`d`e`f`g`h`i````````",
"```````````````````````````````````````````````````````````````````j`k`a`l`c`d`e`m`g`n`o`p``````",
"```````````````````````````````````````````````````````````````````q`r`s`t`c`d`u`m`g`v`w`x`i````",
"```````````````````````````````````````````````````````````````````y`z`A`B`C`D`u`f`g`E`F`G`i````",
"```````````````````````````````````````````````````````````````````i`H`A`I`J`D`K`f`L`M`N`O`P````",
"```````````````Q`R`````````````````````S`T`U`V`W`X`Y`Z`0`1`````````P`2`3`4`5`6`7`f`L`M`N`O`P````",
"`````````````8.`...#````````````````````.a.b.b.c.d.e.f.g``````````.h.i`3`4.j.k.l.m.n.o.p`O.h````",
"``````````.q.r.s.t.u`1````````````````````.v.w.x.y.z.A````````````.B.i.C.D.j.k.l.m.E.o.F.G.B````",
"````````.H.I.J.K.L.M.N.O````````````````````.P.Q.R.S``````````````.T.U.C.D.V.W.X.Y.Z.0.1.2.T````",
"``````.3.4.#.5.6.7.A.8#`#.````````````````````###`````````````````#a#b#c#d#e.W.X#f#g#h#i#j#a````",
"``````````````````````````````````````````````````````````````````#k#l#m#d#n#o#p#q#g#r#s#t#k````",
"``````````````````````````````````````````````````````````````````#u#v#w#x#y#z#A#B#C#D#E#F#u````",
"``````````````````````````````````````````````````````````````````#G#v#H#I#J#K#L#M#C#D#N#O#G````",
"``````````````````````````````````````````````````````````````````#P#Q#H#I#R#S#T#U#V#W#X#Y#P````",
"``````````````````````````````````````````````````````````````````#Z#Z#Z#Z#Z#Z#Z#Z#Z#Z#Z#Z#Z````"
};
