/* XPM */
static const char *db2_xpm[] = {
/* width height num_colors chars_per_pixel */
"    80    16      256            2",
/* colors */
"`` c #242224",
"`. c #247abc",
"`# c #849274",
"`a c #a4ca84",
"`b c #5c7a8c",
"`c c #84b264",
"`d c #649a54",
"`e c None",
"`f c #044e8c",
"`g c #84aabc",
"`h c #3c6e94",
"`i c #acaea4",
"`j c #0466ac",
"`k c #b4daa4",
"`l c #5496c4",
"`m c #7496ac",
"`n c #547a9c",
"`o c #84b6d4",
"`p c #bcced4",
"`q c #548eb4",
"`r c #447a9c",
"`s c #7ca6bc",
"`t c #4c86b4",
"`u c #849aa4",
"`v c #1c5e94",
"`w c #94aabc",
"`x c #246a9c",
"`y c #9cc2dc",
"`z c #045a9c",
"`A c #6c8a9c",
"`B c #a4bac4",
"`C c #84a6bc",
"`D c #648eac",
"`E c #acceec",
"`F c #84b2d4",
"`G c #1c72ac",
"`H c #6c9abc",
"`I c #6486a4",
"`J c #cccebc",
"`K c #6496bc",
"`L c #94b6c4",
"`M c #3c82b4",
"`N c #448ebc",
"`O c #043e7c",
"`P c #5482a4",
"`Q c #5492bc",
"`R c #74aed4",
"`S c #045694",
"`T c #84aecc",
"`U c #1466a4",
"`V c #d4dacc",
"`W c #3c7aac",
"`X c #acc2d4",
"`Y c #145e94",
"`Z c #b4bec4",
"`0 c #94a2ac",
"`1 c #044674",
"`2 c #5486ac",
"`3 c #a4aebc",
"`4 c #5c96c4",
"`5 c #7c9eb4",
"`6 c #4486bc",
"`7 c #8c9aac",
"`8 c #9cb2bc",
".` c #2c76a4",
".. c #0462ac",
".# c #acbac4",
".a c #ccd6dc",
".b c #94b6d4",
".c c #146eac",
".d c #2c7ab4",
".e c #a4a69c",
".f c #84ba74",
".g c #8caabc",
".h c #647254",
".i c #7c96a4",
".j c #c4cedc",
".k c #5c8aac",
".l c #7ca6cc",
".m c #346e9c",
".n c #045aa4",
".o c #8ca2b4",
".p c #b4d6ec",
".q c #7c9ebc",
".r c #044284",
".s c #5c829c",
".t c #0c568c",
".u c #ccdae4",
".v c #84a284",
".w c #94aa84",
".x c #549acc",
".y c #749aac",
".z c #8cb6d4",
".A c #447ea4",
".B c #849eac",
".C c #2c5a7c",
".D c #9caab4",
".E c #2c6e9c",
".F c #a4c6dc",
".G c #045e94",
".H c #a4bed4",
".I c #6492ac",
".J c #b4d2e4",
".K c #8cb2cc",
".L c #1c76b4",
".M c #6ca2c4",
".N c #ccd2bc",
".O c #649ecc",
".P c #9cb6c4",
".Q c #4c8ebc",
".R c #044274",
".S c #5c92bc",
".T c #7caecc",
".U c #3c7eac",
".V c #b4cad4",
".W c #a4b6c4",
".X c #4c8abc",
".Y c #1c6ea4",
".Z c #2c7eb4",
".0 c #cce2ec",
".1 c #849a74",
".2 c #a4ca94",
".3 c #649254",
".4 c #045294",
".5 c #84aac4",
".6 c #3c769c",
".7 c #acb2ac",
".8 c #d4eac4",
"#` c #5496cc",
"#. c #54728c",
"## c #94b284",
"#a c #6c8694",
"#b c #748ea4",
"#c c #b4c6d4",
"#d c #5c8ebc",
"#e c #4482b4",
"#f c #d4d6dc",
"#g c #acb6c4",
"#h c #d4e2ec",
"#i c #bcd2dc",
"#j c #4c8aac",
"#k c #649ac4",
"#l c #146aac",
"#m c #94a6b4",
"#n c #8c9eb4",
"#o c #acbecc",
"#p c #94badc",
"#q c #8caec4",
"#r c #8ca6bc",
"#s c #5c86a4",
"#t c #8cbadc",
"#u c #9caebc",
"#v c #1c6294",
"#w c #5486a4",
"#x c #5c9ac4",
"#y c #c4d2dc",
"#z c #7caacc",
"#A c #548ebc",
"#B c #447aa4",
"#C c #7ca6c4",
"#D c #849aac",
"#E c #a4bacc",
"#F c #84a6c4",
"#G c #648eb4",
"#H c #1c72b4",
"#I c #94b6cc",
"#J c #5492c4",
"#K c #04569c",
"#L c #84aed4",
"#M c #04467c",
"#N c #5486b4",
"#O c #9cb2c4",
"#P c #0c5694",
"#Q c #749ab4",
"#R c #2c6ea4",
"#S c #a4c6e4",
"#T c #045e9c",
"#U c #b4d2ec",
"#V c #8cb2d4",
"#W c #6ca2cc",
"#X c #ccd2c4",
"#Y c #4c8ec4",
"#Z c #04427c",
"#0 c #7caed4",
"#1 c #3c7eb4",
"#2 c #4c8ac4",
"#3 c #1c6eac",
"#4 c #2c7ebc",
"#5 c #000000",
"#6 c #000000",
"#7 c #000000",
"#8 c #000000",
"a` c #000000",
"a. c #000000",
"a# c #000000",
"aa c #000000",
"ab c #000000",
"ac c #000000",
"ad c #000000",
"ae c #000000",
"af c #000000",
"ag c #000000",
"ah c #000000",
"ai c #000000",
"aj c #000000",
"ak c #000000",
"al c #000000",
"am c #000000",
"an c #000000",
"ao c #000000",
"ap c #000000",
"aq c #000000",
"ar c #000000",
"as c #000000",
"at c #000000",
"au c #000000",
"av c #000000",
"aw c #000000",
"ax c #000000",
"ay c #000000",
"az c #000000",
"aA c #000000",
"aB c #000000",
"aC c #000000",
"aD c #000000",
"aE c #000000",
"aF c #000000",
"aG c #000000",
"aH c #000000",
"aI c #000000",
"aJ c #000000",
"aK c #000000",
"aL c #000000",
"aM c #000000",
"aN c #000000",
"aO c #000000",
"aP c #000000",
"aQ c #000000",
"aR c #000000",
"aS c #000000",
"aT c #000000",
"aU c #000000",
"aV c #000000",
"aW c #000000",
"aX c #000000",
"aY c #000000",
"aZ c #000000",
"a0 c #000000",
"a1 c #000000",
"a2 c #000000",
"a3 c #000000",
"a4 c #000000",
"a5 c #000000",
"a6 c #000000",
"a7 c #000000",
"a8 c #000000",
/* pixels */
"`e`e`e`e`e`e`e`e`e`e`e`e`e`e`e`e`e`e`e`e`e`e`e`e`e`e`e`e`e`e`e`e`e`e`e`e`e`e`e`e`e`e`e`e`e`e`e`e`e`e`e`e`e`e`e`e`e`e`e`e`e`e`e`e`e`e`e`e`e`e`e`e`e`e`e`e`e`e`e`e",
"`e`e`e`e`e`e`e`e`e`e`e`e`e`e`e`e`e`e`e`e`e`e`e`e`e`e`e`e`e`e`e`e`e`e`e`e`e`e`e`e`e`e`e`e`e`e`e`e`e`e`e`e`e`e`e`e`e`e`e`e`e`e`e`e`e`e`e`e`e`e`e`e`e`e`e`e`e`e`e`e",
"`e`e`e`e`e`e`e`e`e`e`e`e`e`e`e`e`e`e`e`e`e`e`e`e`e`e`e`e`e`e`e`e`e`e`e`e`e`e`e`e`e`e`e`e`e`e`e`e`e`e`e`e`e`e`e`e`e`e`e`e`e`e`e`e`e`e`e`e`e`e`e`e`e`e`e`e`e`e`e`e",
"`e`e.D.i`e`e`e`e`e`e`e`e#b`e`e`e`e`e`e`e`e`e`e`e`e`e#g`0`e`e`e`e`e`e`e`e#a`e`e`e`e`e`e`e`e`e`e`e`e`e`0#u`e`e`e`e`e`e`e`3#D`e`e`e`e`e`e`e`e`e`V`e`e`e`e`e`e`e`e`e",
"`e`e.B#q`e`e`e`e`e`e`Z.o#I`e`e`e`e`e`e`e`e`e`e`e`e`0#q#c`e`e`e`e`e`e`e`e#O.B`3`e`e`e`e`e`e`e`e`e`e`e#c.g`7`e`e`e`e`e`e.g`C`e`e`e`e`e`e`e`e`e.w#X`e`e`e`e`e`e`e`e",
"`e`e.W`p`e`e`e`e#f#u.o#y#y`e`e`e`e`e`e`e`e`e`e`Z.o.W.0.j`e`e`e`e`e`e`e`e#y.u#r#n`Z`e`e`e`e`e`e`e`e`e.a#h.W#n.D`e`e`e`e`X#c`e`e`e`e`e`e`e`e`e##`#`J`e`e`e`e`e`e`e",
"`e`e.q#V`e`e`e#D#G`y.p#U#V`e`e`e`e`e`e`e`e.#`I#F`E.p#S.H`e`e`e`e`e`e`e`e#V`E.p`X`K.s.j`e`e`e`e`e`e`e#E#S`E.p.l`n`w`e`e.g.5`e`e`e`e`e`e`e`e`e.w.8`#.N`e`e`e`e`e`e",
"`e`e`H.M`e.#`t.q#t.z#z`F#W`e`e`e`e`e`e`e#G.S`F#t#L#0#z#V`e`e`e`e`e`e`e`e#W`F#0`F#p.l`t`m`e`e`e`e`e`e.b`R`F#L#t#V#d`2`e#C#k`e`e`e`e`e`e`e`e`e##`k`a`#`J`e`e`e`e`e",
"`e`e#N`t`e#m.Z#J.x#J#J`4`M`e`e`e`e`e`e`e#B.Q#``l`l`4`N#C`e`e`e`e`e`e`e`e`6`4#J`l#`#J#1#s`e`e`e`e`e`e.l#Y#J`l`l`4`N.6`e`H#e`e`e`e`e`e`e`e`e`e.v`a`c`d.h`e`e`e`e`e",
"`e`e`W#R`e`e`e`P`U.L.d#4#l`e`e`e`e`e`e`e`e`C`x#3`..d#3#k`e`e`e`e`e`e`e`e#3.Z.d`.`U`h.P`e`e`e`e`e`e`e#k`G.Z.d#3`v`m`e`e#N#3`e`e`e`e`e`e`e`e`e.v`c.3```i`e`e`e`e`e",
"`e`e#3#T`e`e`e`e#O.m.4..#K`e`e`e`e`e`e`e`e`e`e.k#P`z.n#A`e`e`e`e`e`e`e`e`z`j.4`v#r`e`e`e`e`e`e`e`e`e#A.n`z.4`P`e`e`e`e#B#T`e`e`e`e`e`e`e`e`e`#.3``.D`e`e`e`e`e`e",
"`e`e`Y`f`e`e`e`e`e`e#r`Y.R`e`e`e`e`e`e`e`e`e`e`e`e#B.r.s`e`e`e`e`e`e`e`e#M.t#Q`e`e`e`e`e`e`e`e`e`e`e.s`O.A`e`e`e`e`e`e.``f`e`e`e`e`e`e`e`e`e`#``.D`e`e`e`e`e`e`e",
"`e`e.C#Z`e`e`e`e`e`e`e`e`b`e`e`e`e`e`e`e`e`e`e`e`e`e.P#a`e`e`e`e`e`e`e`e#.`e`e`e`e`e`e`e`e`e`e`e`e`e#b.W`e`e`e`e`e`e`e`h#Z`e`e`e`e`e`e`e`e`e`#.e`e`e`e`e`e`e`e`e",
"`e`e`e`e`e`e`e`e`e`e`e`e`e`e`e`e`e`e`e`e`e`e`e`e`e`e`e`e`e`e`e`e`e`e`e`e`e`e`e`e`e`e`e`e`e`e`e`e`e`e`e`e`e`e`e`e`e`e`e`e`e`e`e`e`e`e`e`e`e`e.e`e`e`e`e`e`e`e`e`e",
"`e`e`e`e`e`e`e`e`e`e`e`e`e`e`e`e`e`e`e`e`e`e`e`e`e`e`e`e`e`e`e`e`e`e`e`e`e`e`e`e`e`e`e`e`e`e`e`e`e`e`e`e`e`e`e`e`e`e`e`e`e`e`e`e`e`e`e`e`e`e`e`e`e`e`e`e`e`e`e`e",
"`e`e`e`e`e`e`e`e`e`e`e`e`e`e`e`e`e`e`e`e`e`e`e`e`e`e`e`e`e`e`e`e`e`e`e`e`e`e`e`e`e`e`e`e`e`e`e`e`e`e`e`e`e`e`e`e`e`e`e`e`e`e`e`e`e`e`e`e`e`e`e`e`e`e`e`e`e`e`e`e"
};
