/* XPM */
static const char *edit_xpm[] = {
/* width height num_colors chars_per_pixel */
"    16    16      256            2",
/* colors */
"`` c None",
"`. c #d3cab7",
"`# c #bb956f",
"`a c #a9774a",
"`b c #ca9b74",
"`c c #ff6c6c",
"`d c #f6211c",
"`e c #a08257",
"`f c #bea287",
"`g c #c8b2b2",
"`h c #e44848",
"`i c #b31d0f",
"`j c #ae9876",
"`k c #a1854f",
"`l c #dbaf6b",
"`m c #c99082",
"`n c #af827f",
"`o c #946e42",
"`p c #9e824e",
"`q c #dbb46c",
"`r c #cf9a35",
"`s c #af762f",
"`t c #957150",
"`u c #9c824f",
"`v c #d9b36b",
"`w c #d09b39",
"`x c #b37f1e",
"`y c #8b713e",
"`z c #9b8252",
"`A c #d7b169",
"`B c #d19d3d",
"`C c #b7821e",
"`D c #8a6e3b",
"`E c #9d8558",
"`F c #d4af68",
"`G c #d29f40",
"`H c #ba841f",
"`I c #896d36",
"`J c #a18a60",
"`K c #d1ab67",
"`L c #d3a145",
"`M c #bd8520",
"`N c #896b34",
"`O c #b19e7a",
"`P c #cba761",
"`Q c #d4a44a",
"`R c #c08820",
"`S c #886a31",
"`T c #b59c64",
"`U c #e2d39e",
"`V c #c49333",
"`W c #88682c",
"`X c #000000",
"`Y c #9b896a",
"`Z c #d4b975",
"`0 c #d7bb75",
"`1 c #977c40",
"`2 c #aea696",
"`3 c #cccbcb",
"`4 c #9c885f",
"`5 c #866d38",
"`6 c #8c7952",
"`7 c #acaba8",
"`8 c #b1b1b1",
".` c #c6c6c6",
".. c #ededed",
".# c #b1a99a",
".a c #7e683d",
".b c #a8a5a0",
".c c #cbcbcb",
".d c #fdfdfd",
".e c #d6d5d4",
".f c #bfbfbf",
".g c #d3d3d3",
".h c #000000",
".i c #000000",
".j c #000000",
".k c #000000",
".l c #000000",
".m c #000000",
".n c #000000",
".o c #000000",
".p c #000000",
".q c #000000",
".r c #000000",
".s c #000000",
".t c #000000",
".u c #000000",
".v c #000000",
".w c #000000",
".x c #000000",
".y c #000000",
".z c #000000",
".A c #000000",
".B c #000000",
".C c #000000",
".D c #000000",
".E c #000000",
".F c #000000",
".G c #000000",
".H c #000000",
".I c #000000",
".J c #000000",
".K c #000000",
".L c #000000",
".M c #000000",
".N c #000000",
".O c #000000",
".P c #000000",
".Q c #000000",
".R c #000000",
".S c #000000",
".T c #000000",
".U c #000000",
".V c #000000",
".W c #000000",
".X c #000000",
".Y c #000000",
".Z c #000000",
".0 c #000000",
".1 c #000000",
".2 c #000000",
".3 c #000000",
".4 c #000000",
".5 c #000000",
".6 c #000000",
".7 c #000000",
".8 c #000000",
"#` c #000000",
"#. c #000000",
"## c #000000",
"#a c #000000",
"#b c #000000",
"#c c #000000",
"#d c #000000",
"#e c #000000",
"#f c #000000",
"#g c #000000",
"#h c #000000",
"#i c #000000",
"#j c #000000",
"#k c #000000",
"#l c #000000",
"#m c #000000",
"#n c #000000",
"#o c #000000",
"#p c #000000",
"#q c #000000",
"#r c #000000",
"#s c #000000",
"#t c #000000",
"#u c #000000",
"#v c #000000",
"#w c #000000",
"#x c #000000",
"#y c #000000",
"#z c #000000",
"#A c #000000",
"#B c #000000",
"#C c #000000",
"#D c #000000",
"#E c #000000",
"#F c #000000",
"#G c #000000",
"#H c #000000",
"#I c #000000",
"#J c #000000",
"#K c #000000",
"#L c #000000",
"#M c #000000",
"#N c #000000",
"#O c #000000",
"#P c #000000",
"#Q c #000000",
"#R c #000000",
"#S c #000000",
"#T c #000000",
"#U c #000000",
"#V c #000000",
"#W c #000000",
"#X c #000000",
"#Y c #000000",
"#Z c #000000",
"#0 c #000000",
"#1 c #000000",
"#2 c #000000",
"#3 c #000000",
"#4 c #000000",
"#5 c #000000",
"#6 c #000000",
"#7 c #000000",
"#8 c #000000",
"a` c #000000",
"a. c #000000",
"a# c #000000",
"aa c #000000",
"ab c #000000",
"ac c #000000",
"ad c #000000",
"ae c #000000",
"af c #000000",
"ag c #000000",
"ah c #000000",
"ai c #000000",
"aj c #000000",
"ak c #000000",
"al c #000000",
"am c #000000",
"an c #000000",
"ao c #000000",
"ap c #000000",
"aq c #000000",
"ar c #000000",
"as c #000000",
"at c #000000",
"au c #000000",
"av c #000000",
"aw c #000000",
"ax c #000000",
"ay c #000000",
"az c #000000",
"aA c #000000",
"aB c #000000",
"aC c #000000",
"aD c #000000",
"aE c #000000",
"aF c #000000",
"aG c #000000",
"aH c #000000",
"aI c #000000",
"aJ c #000000",
"aK c #000000",
"aL c #000000",
"aM c #000000",
"aN c #000000",
"aO c #000000",
"aP c #000000",
"aQ c #000000",
"aR c #000000",
"aS c #000000",
"aT c #000000",
"aU c #000000",
"aV c #000000",
"aW c #000000",
"aX c #000000",
"aY c #000000",
"aZ c #000000",
"a0 c #000000",
"a1 c #000000",
"a2 c #000000",
"a3 c #000000",
"a4 c #000000",
"a5 c #000000",
"a6 c #000000",
"a7 c #000000",
"a8 c #000000",
/* pixels */
"```````````````````````.`#`a````",
"```````````````````````b`c`d`e``",
"`````````````````````f`g`h`i`j``",
"```````````````````k`l`m`n`o````",
"`````````````````p`q`r`s`t``````",
"```````````````u`v`w`x`y````````",
"`````````````z`A`B`C`D``````````",
"```````````E`F`G`H`I````````````",
"`````````J`K`L`M`N``````````````",
"```````O`P`Q`R`S````````````````",
"```````T`U`V`W``````````````````",
"```X`Y`Z`0`1`2`X`X`X`X`X`X`X`X``",
"`X`3`4`5`6`7`8.``X............`X",
"`X.#.a.b`8`8`8.c`X.d.d.d.d.d.d`X",
"`X.e.f.f.f.f.f.g`X.d.d.d.d.d.d`X",
"```X`X`X`X`X`X`X`X`X`X`X`X`X`X``"
};
