/* XPM */
static const char *folder_48_xpm[] = {
/* width height num_colors chars_per_pixel */
"    48    48      256            2",
/* colors */
"`` c #444244",
"`. c #847a6c",
"`# c #d4ba44",
"`a c #e4d66c",
"`b c #bc9a3c",
"`c c #b4b6b4",
"`d c #a47a34",
"`e c None",
"`f c #dcc654",
"`g c #d4d6d4",
"`h c #746a54",
"`i c #9c9a9c",
"`j c #b48a44",
"`k c #8c8a8c",
"`l c #d4b694",
"`m c #8c724c",
"`n c #9c7a4c",
"`o c #ccb674",
"`p c #e4d694",
"`q c #ccae3c",
"`r c #b48a54",
"`s c #dcc67c",
"`t c #ece6ac",
"`u c #7c7a74",
"`v c #5c5e5c",
"`w c #dcc6ac",
"`x c #d4be44",
"`y c #bc9a5c",
"`z c #746e64",
"`A c #ccaa84",
"`B c #b49254",
"`C c #ac823c",
"`D c #dcce64",
"`E c #ece29c",
"`F c #ecde84",
"`G c #c4c6c4",
"`H c #acaaac",
"`I c #9c723c",
"`J c #e4e6e4",
"`K c #848284",
"`L c #d4d2d4",
"`M c #c4a25c",
"`N c #bc9254",
"`O c #4c4e4c",
"`P c #e4d67c",
"`Q c #e4d6c4",
"`R c #8c7a5c",
"`S c #d4b664",
"`T c #ac7a3c",
"`U c #bc923c",
"`V c #94764c",
"`W c #d4be7c",
"`X c #ecde8c",
"`Y c #c4aa64",
"`Z c #e4d274",
"`0 c #f4e6ac",
"`1 c #6c6a6c",
"`2 c #e4d294",
"`3 c #dcbe44",
"`4 c #847664",
"`5 c #bc9664",
"`6 c #bcbebc",
"`7 c #e4ca64",
"`8 c #84725c",
".` c #a4a2a4",
".. c #949294",
".# c #d4c2a4",
".a c #847e74",
".b c #747674",
".c c #e4ce64",
".d c #c4a274",
".e c #bc9654",
".f c #ecda84",
".g c #e4e2e4",
".h c #8c7e6c",
".i c #ccb264",
".j c #f4eabc",
".k c #dcc254",
".l c #4c4a4c",
".m c #d4ba54",
".n c #a47a44",
".o c #a47634",
".p c #dcca5c",
".q c #7c6a4c",
".r c #b48e4c",
".s c #8c765c",
".t c #947a5c",
".u c #d4ba74",
".v c #dcca8c",
".w c #7c7e7c",
".x c #646664",
".y c #dccaac",
".z c #c49e74",
".A c #b48644",
".B c #ece6a4",
".C c #cccecc",
".D c #b4b2b4",
".E c #8c8674",
".F c #c4a65c",
".G c #545654",
".H c #e4da7c",
".I c #8c7e64",
".J c #ecdea4",
".K c #ccaa5c",
".L c #f4eaac",
".M c #dcc24c",
".N c #e4d264",
".O c #444644",
".P c #d4ba4c",
".Q c #e4d674",
".R c #bc9e54",
".S c #bcbabc",
".T c #a47a3c",
".U c #dcc65c",
".V c #dcdadc",
".W c #9c9e9c",
".X c #b48a4c",
".Y c #8c8e8c",
".Z c #d4ba94",
".0 c #8c7254",
".1 c #e4da9c",
".2 c #b48e54",
".3 c #dcc684",
".4 c #7c7a7c",
".5 c #646264",
".6 c #bc9e5c",
".7 c #747274",
".8 c #ccae84",
"#` c #b49654",
"#. c #f4eee4",
"## c #e4d2bc",
"#a c #dcceb4",
"#b c #dcce8c",
"#c c #ece2d4",
"#d c #cccacc",
"#e c #545254",
"#f c #c4c2c4",
"#g c #7c6e5c",
"#h c #ccae6c",
"#i c #bc924c",
"#j c #dcc2a4",
"#k c #7c7674",
"#l c #9c7644",
"#m c #d4ba5c",
"#n c #ac7e44",
"#o c #d4c284",
"#p c #947e64",
"#q c #acaeac",
"#r c #848684",
"#s c #e4dac4",
"#t c #6c6e6c",
"#u c #a4a6a4",
"#v c #949694",
"#w c #ac8244",
"#x c #ece2a4",
"#y c #bc925c",
"#z c #8c7a64",
"#A c #947654",
"#B c #ecde94",
"#C c #dcbe4c",
"#D c #bc965c",
"#E c #a4763c",
"#F c #d4ba7c",
"#G c #dccab4",
"#H c #c4a664",
"#I c #e4da84",
"#J c #f4eab4",
"#K c #e4d26c",
"#L c #000000",
"#M c #000000",
"#N c #000000",
"#O c #000000",
"#P c #000000",
"#Q c #000000",
"#R c #000000",
"#S c #000000",
"#T c #000000",
"#U c #000000",
"#V c #000000",
"#W c #000000",
"#X c #000000",
"#Y c #000000",
"#Z c #000000",
"#0 c #000000",
"#1 c #000000",
"#2 c #000000",
"#3 c #000000",
"#4 c #000000",
"#5 c #000000",
"#6 c #000000",
"#7 c #000000",
"#8 c #000000",
"a` c #000000",
"a. c #000000",
"a# c #000000",
"aa c #000000",
"ab c #000000",
"ac c #000000",
"ad c #000000",
"ae c #000000",
"af c #000000",
"ag c #000000",
"ah c #000000",
"ai c #000000",
"aj c #000000",
"ak c #000000",
"al c #000000",
"am c #000000",
"an c #000000",
"ao c #000000",
"ap c #000000",
"aq c #000000",
"ar c #000000",
"as c #000000",
"at c #000000",
"au c #000000",
"av c #000000",
"aw c #000000",
"ax c #000000",
"ay c #000000",
"az c #000000",
"aA c #000000",
"aB c #000000",
"aC c #000000",
"aD c #000000",
"aE c #000000",
"aF c #000000",
"aG c #000000",
"aH c #000000",
"aI c #000000",
"aJ c #000000",
"aK c #000000",
"aL c #000000",
"aM c #000000",
"aN c #000000",
"aO c #000000",
"aP c #000000",
"aQ c #000000",
"aR c #000000",
"aS c #000000",
"aT c #000000",
"aU c #000000",
"aV c #000000",
"aW c #000000",
"aX c #000000",
"aY c #000000",
"aZ c #000000",
"a0 c #000000",
"a1 c #000000",
"a2 c #000000",
"a3 c #000000",
"a4 c #000000",
"a5 c #000000",
"a6 c #000000",
"a7 c #000000",
"a8 c #000000",
/* pixels */
"`e`e`e`e`e`e`e`e`e`e`e`e`e`e`e`e`e`e`e`e`e`e`e`e`e`e`e`e`e`e`e`e`e`e`e`e`e`e`e`e`e`e`e`e`e`e`e`e",
"`e`e`e`e`e`e`e`e`e`e`e`e`e`e`e`e`e`e`e`e`e`e`e`e`e`e`e`e`e`e`e`e`e`e`e`e`e`e`e`e`e`e`e`e`e`e`e`e",
"`e`e`e`e`e`e`e`e`e`e`e`e`e`e`e`e`e`e`e`e`e`e`e`e`e`e`e`e`e`e`e`e`e`e`e`e`e`e`e`e`e`e`e`e`e`e`e`e",
"#f.4#k#k.b#k#k.b#k#k.b#k#k.b#k#k.b#k#k.Y`J`e`e`e`e`e`e`e`e`e`e`e`e`e`e`e`e`e`e`e`e`e`e`e`e`e`e`e",
".w.D#f#f#f`6#f`6`6`6#f.S`6`6`6.S.S.S.S#v..`e`e`e`e`e`e`e`e`e`e`e`e`e`e`e`e`e`e`e`e`e`e`e`e`e`e`e",
".4`6#d`c#q.D#q#q#q`H#u`H#u#u#u#u.`#u#u.S.7`e`e`e`e`e`e`e`e`e`e`e`e`e`e`e`e`e`e`e`e`e`e`e`e`e`e`e",
".w`6.S.W.`.W.W`i`i#v`i..#v.......Y...Y#u`K`L`e`e`e`e`e`e`e`e`e`e`e`e`e`e`e`e`e`e`e`e`e`e`e`e`e`e",
".w.S`c.W`i`i#v#v.....Y.Y...Y`k.Y`k`k`k...Y`c`e`e`e`e`e`e`e`e`e`e`e`e`e`e`e`e`e`e`e`e`e`e`e`e`e`e",
"`K.D.S.`.W.`.W`i`i#v`i#v.........Y.Y.Y.Y`k.4.g`e`e`e`e`e`e`e`e`e`e`e`e`e`e`e`e`e`e`e`e`e`e`e`e`e",
".w#q#q.Y...Y`k#r`k#r#r`K`K.w`K.w`K.w`K.w#r.4#t`1`1`1`1`1`1`1`1`1`1`1`1`1`1`1.7#d`e`e`e`e`e`e`e`e",
"#r`H`6.`.W`i`i#v#v#v.....Y...Y.Y`k`k`k`k`k`k.Y.`.D`c.S`c.S.S`c.S.S.S.S`6.S`6`i.4`e`e`e`e`e`e`e`e",
"`k#u#q.Y.Y.Y`k`k#r#r`K`K.w`K.w.w.w.4.4.b.4.b.4.4.4.4.4.4.w.w`K`K`K#r#r`k`k.Y`k.7`e`e`e`e`e`e`e`e",
"`k.`.D#v.....Y.Y`k`k#r#r#r`K`K`K.w`K.w.w.w.w.w.w.w.w.w`K`K`K`K#r#r#r`k`k.Y.Y`k`1`e`e`e`e`e`e`e`e",
".Y`i.D...Y`k`k#r#r`K`K`K`K.w.w.4.4.4.b.w.4.4.4.4.4.4.4.4.4.w.w.w`K`K`K#r#r`k#r.5`e`e`e`e`e`e`e`e",
"..#v`H`k#r#r.E.t#z#z#z#z.s.s`4.s`4`4.0`8`8`8`8`8`8`8`8`8`8.s.s.s.s`R`R#z.t#z#p.q`w`w`w`w`w`w`w`e",
"#v...D.....Y.o`B#D#D#`#D#`#D#`#D`B.e#`#`#D#``N#``N#``N#`.e`B#``B`B`B`B`B`B.e`B`B#D#D#D#D#D#D.r.2",
"`i.Y#u.w.w`..o`t.j#J`t.j.j`t.j`t.j`t.j.j`t.j`t.j`t.j#J`t.j`t.j#J.j.j#J.j#J.j`t.j.j`t.j.j#J.j`2#n",
".W`k#q...Y.E`T`0#I#I#I.H.H#I.H.f.H#I.H.H.f.H#I.H.f.H.H#I.H.f.H.H.H.H.H.H.H.H#I.H.H#I.H.H.H`E.v`r",
".`#r#u`K.w.s#w.j#I.f.H.f`P.f.H.H.H.f.H.H.H.H.f.H.H.H.f.H.H.H.H.H`P.H`P.H`P.f.H.f.H.f.H.f.H`E#o#D",
"#u`K#u`K`K#z.2#J#I.H`P.H.H.H.f.Q.H`P.f`P.f`P.H`P.f`P.H`P.f`P.f.H.f.H.f.H.H.H`P.H`P.H.H.H.Q`E#F.6",
"`H.w`H`K.w.t`y`t.H.f.H.f.Q.H`P.f.H.H.H.H.H.H.f.H.H.H.f.H.H.H`P.H`P.H`P.f`P.f.H.f.H.f.Q.Q.Q#x#h`A",
"#q.4.W.w.4.s`Y#J.H.H`P.H.f.H.H.H.f.Q.f`P.f.Q.H`P.f.Q.H`P.f.H.f.H.f.H.H.H.H.H`P.H.Q.H.f`a`a`0`Y`l",
".D.b`H#r`K#l`o.B.f`P.f.H.Q.H.f.Q.H.H.H.H.H.H.f.H.H.H.f.H.Q.H.Q.H.Q.f`P.f.Q.f.H.f.H.H`a`Z`a`t`y.#",
"`c.7`i.b.7#l`W#x.H.H.H.H.f`P.H.H.f`P.f.Q.f`P.H`P.f.Q.H.H.f.H.f.H.H.H.H.H.H.H`P.H.f`a.Q`a.Q#J#y#G",
".S#t.``K.w`n.3#x.f.H.f.Q.H.H.f`P.H.H.H.H.H.H.f.H.H.H.f.Q.H`P.H`P.f`P.f.Q.f.H.f.Q`a`Z`a`Z.Q#J#w#s",
"`6`1`i.4.7.o`2`E.H.Q.H.H.f.Q.H.H.f.Q.f`P.f.Q.H`P.f.Q.H.H.f.H.f.H.H.H.H.H`P.H.Q.Q.Q`a.Q`a`P#J`T#c",
"#f.x`i.w.b.o`p`E.H.f.H`P.H.f`P.H`P.H.H.H.H.H.f.H.H.H.f`P.H`P.H.Q.f.Q.f.H.f.Q.Q`a#K.Q#K.Q.H`t.o#.",
"#d`v`i.w#k.o.J`X.H`P.f.H.H.H.f.H.f.H.f.Q.f`P.H.Q.f`P.H.H.f.H.f.H.H.H`P.Q.Q`a`a.Q.Q`a.Q`a.f.J.o`e",
".C`v...b`z.o#x`X.H.H.H.f.Q.H`P.H.Q.H`P.H.H.H.f.H.H.H.f.Q.H.Q.H`P.f.Q.Q`a.Q#K.Q#K.Q#K.Q#K#I`p#E`e",
"`L.G`i`K`4.T.B.f.H.f.Q.H.H.f.H.f.H.f.H.f`P.H`P.f.Q.Q.H.Q.Q.Q.Q`a`a#K.Q`a.Q`a.Q`a.Q`a.Q.Q`X`2#n`e",
"`g#e`k.b#g#n.B#I`P.H.H.f`P.H.Q.H`P.Q.Q.Q`a.Q`a`a.Q`a.Q`a.Q.Q`a`Z.Q`a.Q#K.Q#K.Q#K.Q#K`a.Q.f#o.X`e",
".V.l...w.s.r`E.f.H.f`P.H.H.f.Q.Q.Q`a.Q`a`Z`a`Z`a`Z`a`Z`a`Z`a.Q`a.Q#K.Q`a.Q`a.Q`a.Q`a.Q`a`X.u#D`e",
".g.O.Y.b`m#``E.Q.H`P.H.Q#K`a`a.Q`a`Z`a.Q`a.Q`a.Q`a.Q`a.Q`a`Z`a`Z`a.Q`a`Z`a`Z`a`Z`a`Z`a`Z#I.i.d`e",
"`J.O`k.4`m`M`X.H`P`a`a.Q`a`Z`a`Z`a.Q#K.Q#K.Q#K.Q#K.Q#K.Q`a.Q`a.Q`a`Z`a.Q`a.Q`a.Q`a.Q`a.Q`X#H`A`e",
"`e``#r.w`V.K#I.Q`a.Q`Z`a.Q`a.Q`a.Q`a.Q`a.Q`a.Q`a.Q`a.Q#K.Q#K.Q#K.Q`a`Z#K`Z#K#K#K`Z#K`a#K#I.R`l`e",
"`e```K.b#l.i.H#K#K#K#K#K#K#K#K#K#K#K.c#K.c#K.c#K.c#K#K.c#K.c#K.c.N.c#K.N.N.c#K.c`D.N.c.c`P`N.#`e",
"`e```K.w.T`S#K.c`D.c.c`D.c.p.c.p.c`D.c`D.c.p.c.p`D`7.p`D`7`D.p`7.p.p.p.p.p.p.p`D`7.p.p.p`Z.X#a`e",
"`e``.4.7`I#m.p.p.p.p.p.U.p`7.p.U.p`f.U`f.p.U.p.U.U.p`f`f`f`f.p`f.p.U.U`f.U.U`f`f`f`f.U.U.p#w`Q`e",
"`e``.w.w.o.m.U`f`f.k`f.M`f.M.M`f.M`f.k.k.M.k.M`f.M.M.k.k.k.M.M.M.M.M.M.k.M.M.M.M.M.M.M.M.U`T#c`e",
"`e.l.b#k.o.P.M#C.M#C.M#C`x.M`x#C#C`x.M`x.M`x#C`x#C`x#C`x`3`x`x#C`x#C`x`3`x`x#C`#`#`#`x`x.P.o#.`e",
"`e.l.b`4.o`#`3`#`#`#`#`x`#`#`3`#`#`#`#`#`#`#`#`3`#`#`#`#`#`3`#`#`#`#`#`#`3`#`#`#`3`#`3`#`q.o`e`e",
"`e#e.b.t#n`#`#`#`#`3`#`3`#`#`#`#`3`#`3`#`3`#`#`#`#`3`#`3`#`#`#`3`#`3`#`#`#`#`3`#`#`#`#`#`b#y`e`e",
"`e.5`h#E`U`q`q`q`q`q`q`q`q`q`q`q`q`q`q`q`q`q`q`q`q`q`q`q`q`q`q`q`q`q`q`q`q`q`q`q`q`q`q`b`T#G`e`e",
"`e#f`I.o.o.o.o.o.o.o`I.o`I.o.o.o`I.o`I.o.o`I.o.o.o`I.o.o`I.o`I.o.o`I.o.o.o`I.o`I.o.o.o.A##`e`e`e",
"`e`e`e`e`e`e`e`e`e`e`e`e`e`e`e`e`e`e`e`e`e`e`e`e`e`e`e`e`e`e`e`e`e`e`e`e`e`e`e`e`e`e`e`e`e`e`e`e",
"`e`e`e`e`e`e`e`e`e`e`e`e`e`e`e`e`e`e`e`e`e`e`e`e`e`e`e`e`e`e`e`e`e`e`e`e`e`e`e`e`e`e`e`e`e`e`e`e",
"`e`e`e`e`e`e`e`e`e`e`e`e`e`e`e`e`e`e`e`e`e`e`e`e`e`e`e`e`e`e`e`e`e`e`e`e`e`e`e`e`e`e`e`e`e`e`e`e",
"`e`e`e`e`e`e`e`e`e`e`e`e`e`e`e`e`e`e`e`e`e`e`e`e`e`e`e`e`e`e`e`e`e`e`e`e`e`e`e`e`e`e`e`e`e`e`e`e"
};
