/* XPM */
static const char *folder_prj_16_xpm[] = {
/* width height num_colors chars_per_pixel */
"    16    16      256            2",
/* colors */
"`` c None",
"`. c #b8b8b8",
"`# c #b7b7b7",
"`a c #b5b5b5",
"`b c #b4b4b4",
"`c c #b2b2b2",
"`d c #afafaf",
"`e c #9d9d9d",
"`f c #979797",
"`g c #929292",
"`h c #8f8f8f",
"`i c #939393",
"`j c #c8c8c8",
"`k c #a7a7a7",
"`l c #8b8b8b",
"`m c #868686",
"`n c #838383",
"`o c #818181",
"`p c #919191",
"`q c #949494",
"`r c #969696",
"`s c #999999",
"`t c #a3a3a3",
"`u c #918b81",
"`v c #a28f6a",
"`w c #9f8d66",
"`x c #9d8a64",
"`y c #9c8963",
"`z c #9d8964",
"`A c #9d8b65",
"`B c #a3906a",
"`C c #b19f79",
"`D c #ddcaa5",
"`E c #deccaa",
"`F c #9c9c9c",
"`G c #998664",
"`H c #ece19b",
"`I c #eade8e",
"`J c #eade8f",
"`K c #eade90",
"`L c #dcca8e",
"`M c #9a9a9a",
"`N c #a28f67",
"`O c #e9dd8c",
"`P c #e6d97d",
"`Q c #e5d777",
"`R c #dac78b",
"`S c #a79569",
"`T c #e8dc88",
"`U c #e4d570",
"`V c #dcc991",
"`W c #af9b6e",
"`X c #e7db82",
"`Y c #c6c3a4",
"`Z c #d2d1c8",
"`0 c #9a9994",
"`1 c #c0bfb7",
"`2 c #bebeb5",
"`3 c #d8d7cc",
"`4 c #cbcac3",
"`5 c #909090",
"`6 c #b39f6d",
"`7 c #e6d97e",
"`8 c #e6d87a",
".` c #e5d675",
".. c #e5d673",
".# c #cdcab1",
".a c #f9f9f8",
".b c #ababaa",
".c c #121212",
".d c #b1b1b0",
".e c #ececeb",
".f c #acacaa",
".g c #8e8e8e",
".h c #b5a166",
".i c #e4d572",
".j c #e4d46f",
".k c #cdcab0",
".l c #636363",
".m c #afafae",
".n c #616161",
".o c #2d2d2d",
".p c #b8b7b4",
".q c #b59a52",
".r c #dcc656",
".s c #dcc655",
".t c #dcc555",
".u c #dcc554",
".v c #dbc553",
".w c #c2bea3",
".x c #434343",
".y c #676767",
".z c #f1f1f0",
".A c #aaaaaa",
".B c #4e4e4e",
".C c #a1a19e",
".D c #948b7b",
".E c #bc9a3e",
".F c #ceaf3f",
".G c #b7b199",
".H c #555555",
".I c #4d4d4d",
".J c #757575",
".K c #3e3e3e",
".L c #e1e1e1",
".M c #d8d7d5",
".N c #ebe7e2",
".O c #cfc5b6",
".P c #cec5b5",
".Q c #cec4b5",
".R c #c3c3bd",
".S c #dededd",
".T c #eaeaea",
".U c #323232",
".V c #363636",
".W c #bfbfbe",
".X c #d8d9d7",
".Y c #d2d3d2",
".Z c #d7d8d6",
".0 c #d4d4d3",
".1 c #b5b6b5",
".2 c #cacbc8",
".3 c #b1b1af",
".4 c #caccca",
".5 c #000000",
".6 c #000000",
".7 c #000000",
".8 c #000000",
"#` c #000000",
"#. c #000000",
"## c #000000",
"#a c #000000",
"#b c #000000",
"#c c #000000",
"#d c #000000",
"#e c #000000",
"#f c #000000",
"#g c #000000",
"#h c #000000",
"#i c #000000",
"#j c #000000",
"#k c #000000",
"#l c #000000",
"#m c #000000",
"#n c #000000",
"#o c #000000",
"#p c #000000",
"#q c #000000",
"#r c #000000",
"#s c #000000",
"#t c #000000",
"#u c #000000",
"#v c #000000",
"#w c #000000",
"#x c #000000",
"#y c #000000",
"#z c #000000",
"#A c #000000",
"#B c #000000",
"#C c #000000",
"#D c #000000",
"#E c #000000",
"#F c #000000",
"#G c #000000",
"#H c #000000",
"#I c #000000",
"#J c #000000",
"#K c #000000",
"#L c #000000",
"#M c #000000",
"#N c #000000",
"#O c #000000",
"#P c #000000",
"#Q c #000000",
"#R c #000000",
"#S c #000000",
"#T c #000000",
"#U c #000000",
"#V c #000000",
"#W c #000000",
"#X c #000000",
"#Y c #000000",
"#Z c #000000",
"#0 c #000000",
"#1 c #000000",
"#2 c #000000",
"#3 c #000000",
"#4 c #000000",
"#5 c #000000",
"#6 c #000000",
"#7 c #000000",
"#8 c #000000",
"a` c #000000",
"a. c #000000",
"a# c #000000",
"aa c #000000",
"ab c #000000",
"ac c #000000",
"ad c #000000",
"ae c #000000",
"af c #000000",
"ag c #000000",
"ah c #000000",
"ai c #000000",
"aj c #000000",
"ak c #000000",
"al c #000000",
"am c #000000",
"an c #000000",
"ao c #000000",
"ap c #000000",
"aq c #000000",
"ar c #000000",
"as c #000000",
"at c #000000",
"au c #000000",
"av c #000000",
"aw c #000000",
"ax c #000000",
"ay c #000000",
"az c #000000",
"aA c #000000",
"aB c #000000",
"aC c #000000",
"aD c #000000",
"aE c #000000",
"aF c #000000",
"aG c #000000",
"aH c #000000",
"aI c #000000",
"aJ c #000000",
"aK c #000000",
"aL c #000000",
"aM c #000000",
"aN c #000000",
"aO c #000000",
"aP c #000000",
"aQ c #000000",
"aR c #000000",
"aS c #000000",
"aT c #000000",
"aU c #000000",
"aV c #000000",
"aW c #000000",
"aX c #000000",
"aY c #000000",
"aZ c #000000",
"a0 c #000000",
"a1 c #000000",
"a2 c #000000",
"a3 c #000000",
"a4 c #000000",
"a5 c #000000",
"a6 c #000000",
"a7 c #000000",
"a8 c #000000",
/* pixels */
"````````````````````````````````",
"```.`.`#`a`b`c``````````````````",
"```d`e`f`g`h`i`j````````````````",
"```k`g`l`m`n`o`m`p`q`r`s`d``````",
"```t`u`v`w`x`y`y`z`A`w`B`C`D`E``",
"```F`G`H`I`I`J`J`J`J`J`J`J`K`L``",
"```M`N`O`P`P`P`P`P`P`P`P`P`Q`R``",
"```q`S`T`P`P`P`P`P`P`P`P`Q`U`V``",
"```g`W`X`P`P`P`P`Y`Z`0`1`2`3`4``",
"```5`6`7`8`Q.`...#.a.b.c.d.e.f``",
"``.g.h.i`U`U`U.j.k.a.l.m.n.o.p``",
"```h.q.r.s.t.u.v.w.x.y.z.A.B.C``",
"``.D.E.F.F.F.F.F.G.H.I.J.K.L.M``",
"``.N.O.O.P.Q.Q.Q.R.S.T.U.V.W.X``",
"````````````````.Y.Z.0.1.2.3.4``",
"````````````````````````````````"
};
