/* XPM */
static const char *folder_48_xpm[] = {
/* width height num_colors chars_per_pixel */
"    48    48      256            2",
/* colors */
"`` c None",
"`. c #8c7e64",
"`# c #d4ba44",
"`a c #e4da7c",
"`b c #ac7e34",
"`c c #bcbabc",
"`d c #c4a23c",
"`e c #5c5a5c",
"`f c #8c724c",
"`g c #dcdadc",
"`h c #dcca5c",
"`i c #b48e4c",
"`j c #949694",
"`k c #acaaac",
"`l c #e4da9c",
"`m c #e4d294",
"`n c #6c6e6c",
"`o c #a47634",
"`p c #7c7e7c",
"`q c #d4ba74",
"`r c #ccb23c",
"`s c #eceaec",
"`t c #dcca8c",
"`u c #b4925c",
"`v c #dcc24c",
"`w c #ac8644",
"`x c #e4e2e4",
"`y c #ece6a4",
"`z c #7c6e5c",
"`A c #8c8a8c",
"`B c #ccae64",
"`C c #d4be9c",
"`D c #9c7644",
"`E c #e4d264",
"`F c #cccacc",
"`G c #ece294",
"`H c #c4c2c4",
"`I c #bc963c",
"`J c #ac7a3c",
"`K c #8c8274",
"`L c #d4ba5c",
"`M c #ecde8c",
"`N c #646664",
"`O c #8c7a64",
"`P c #ecdecc",
"`Q c #e4ca64",
"`R c #a4a2a4",
"`S c #c4a67c",
"`T c #ece29c",
"`U c #a47a44",
"`V c #848684",
"`W c #bc9a5c",
"`X c #b48644",
"`Y c #7c766c",
"`Z c #d4b65c",
"`0 c #e4d2bc",
"`1 c #a47e34",
"`2 c #dcbe44",
"`3 c #ac8244",
"`4 c #ccbeb4",
"`5 c #bca264",
"`6 c #bc9254",
"`7 c #747674",
"`8 c #a47a34",
".` c #847e74",
".. c #dcc66c",
".# c #d4b64c",
".a c #dcc65c",
".b c #ece2d4",
".c c #f4eaac",
".d c #d4d2d4",
".e c #ecde84",
".f c #ac823c",
".g c #c4beac",
".h c #8c765c",
".i c #e4dacc",
".j c #dcce64",
".k c #b49254",
".l c #9c9e9c",
".m c #b4b2b4",
".n c #746e6c",
".o c #f4f2ec",
".p c #e4d67c",
".q c #dcc654",
".r c #84765c",
".s c #949294",
".t c #ccae6c",
".u c #9c7a44",
".v c #e4d674",
".w c #746654",
".x c #ece2ac",
".y c #bc9a6c",
".z c #b48a4c",
".A c #c4a65c",
".B c #848284",
".C c #d4c284",
".D c #947e5c",
".E c #d4be44",
".F c #e4da84",
".G c #ac7e3c",
".H c #bcbebc",
".I c #646264",
".J c #8c7654",
".K c #dcdedc",
".L c #dcca64",
".M c #b48e54",
".N c #9c9a9c",
".O c #ecdea4",
".P c #e4d694",
".Q c #a4763c",
".R c #ccae4c",
".S c #f4eadc",
".T c #dcce8c",
".U c #bc965c",
".V c #dcc254",
".W c #ac864c",
".X c #e4e6e4",
".Y c #ece6ac",
".Z c #846e54",
".0 c #8c8e8c",
".1 c #ccb25c",
".2 c #dcc6ac",
".3 c #e4d26c",
".4 c #cccecc",
".5 c #c4c6c4",
".6 c #bc9a54",
".7 c #ecde94",
".8 c #6c6a6c",
"#` c #947a54",
"#. c #ccb28c",
"## c #d4b674",
"#a c #7c7a7c",
"#b c #dcc284",
"#c c #84827c",
"#d c #ece6dc",
"#e c #747274",
"#f c #e4ce64",
"#g c #a4a6a4",
"#h c #d4d6d4",
"#i c #b4b6b4",
"#j c #ecded4",
"#k c #ece2a4",
"#l c #bc9a64",
"#m c #b4864c",
"#n c #a47e3c",
"#o c #dcbe4c",
"#p c #a47a3c",
"#q c #d4b654",
"#r c #f4eab4",
"#s c #9c7a4c",
"#t c #c4a664",
"#u c #000000",
"#v c #000000",
"#w c #000000",
"#x c #000000",
"#y c #000000",
"#z c #000000",
"#A c #000000",
"#B c #000000",
"#C c #000000",
"#D c #000000",
"#E c #000000",
"#F c #000000",
"#G c #000000",
"#H c #000000",
"#I c #000000",
"#J c #000000",
"#K c #000000",
"#L c #000000",
"#M c #000000",
"#N c #000000",
"#O c #000000",
"#P c #000000",
"#Q c #000000",
"#R c #000000",
"#S c #000000",
"#T c #000000",
"#U c #000000",
"#V c #000000",
"#W c #000000",
"#X c #000000",
"#Y c #000000",
"#Z c #000000",
"#0 c #000000",
"#1 c #000000",
"#2 c #000000",
"#3 c #000000",
"#4 c #000000",
"#5 c #000000",
"#6 c #000000",
"#7 c #000000",
"#8 c #000000",
"a` c #000000",
"a. c #000000",
"a# c #000000",
"aa c #000000",
"ab c #000000",
"ac c #000000",
"ad c #000000",
"ae c #000000",
"af c #000000",
"ag c #000000",
"ah c #000000",
"ai c #000000",
"aj c #000000",
"ak c #000000",
"al c #000000",
"am c #000000",
"an c #000000",
"ao c #000000",
"ap c #000000",
"aq c #000000",
"ar c #000000",
"as c #000000",
"at c #000000",
"au c #000000",
"av c #000000",
"aw c #000000",
"ax c #000000",
"ay c #000000",
"az c #000000",
"aA c #000000",
"aB c #000000",
"aC c #000000",
"aD c #000000",
"aE c #000000",
"aF c #000000",
"aG c #000000",
"aH c #000000",
"aI c #000000",
"aJ c #000000",
"aK c #000000",
"aL c #000000",
"aM c #000000",
"aN c #000000",
"aO c #000000",
"aP c #000000",
"aQ c #000000",
"aR c #000000",
"aS c #000000",
"aT c #000000",
"aU c #000000",
"aV c #000000",
"aW c #000000",
"aX c #000000",
"aY c #000000",
"aZ c #000000",
"a0 c #000000",
"a1 c #000000",
"a2 c #000000",
"a3 c #000000",
"a4 c #000000",
"a5 c #000000",
"a6 c #000000",
"a7 c #000000",
"a8 c #000000",
/* pixels */
"````````````````````````````````````````````````````````````````````````````````````````````````",
"````````````````````````````````````````````````````````````````````````````````````````````````",
"````````````````````````````````````````````````````````````````````````````````````````````````",
"````````````````````````````````````````````````````````````````````````````````````````````````",
"````````````````````````````````````````````````````````````````````````````````````````````````",
"`````````x`g`x`g`x`g`x`g`x`g`x`g`x`g`x`x````````````````````````````````````````````````````````",
"```````A`A.0.s.0.0.s.0.0.s.0.0.s.s.0.s`V.N``````````````````````````````````````````````````````",
"````.d.s.d`F`H`H`H.H`H`c`c`c`c`c`c`c#i`H`V`g````````````````````````````````````````````````````",
"````.d.N`F`k#g#g#g`R`R.l`R.l.N.N`j.N`j.l.l.m````````````````````````````````````````````````````",
"````#h`j`H`j.N`j.s.s.0.0.0`A`A`V`A`V`A`V.N.s````````````````````````````````````````````````````",
"`````g.s`F#g#g`R.l.l.N.N.N`j`j`j`j.s.s.s`j`7`s``````````````````````````````````````````````````",
"`````g`A.H.s.0.0`A`A`V`V`V.B.B.B`p.B`p`p.B.B.n.n.n.n.n`n.n.n`n.n`n.n`n.n`n`c````````````````````",
"`````x`V.5`R.l.l.N`j.N.s.s.0.0.0.0`A`A`A`V`A.0.l`k.m.m.m#i#i#i#i`c`c`c.H#i.8````````````````````",
"`````x.B`c.0`A`A`V`V.B`p.B`p`p#a#a#a`7`7#a`7`7`7`7`7#a#a#a#a`p`p.B`p`V.B`A#e`x``````````````````",
"`````s`7.H.l.N.s.s.0.0`A`A`V`A.B`V.B.B.B.B.B.B.B.B.B`V.B`V`V`A`A`A`A.0.s.s#e`g``````````````````",
"``````#e`c.0`V`V.B.B`p#a#a#a`7`7`7#e#e`n#e`n`n#e`n#e`n`7`7`7`7#a#a`p`p.B`V#e#h``````````````````",
"``````.n#i.N.s`A#p.Q`o#p`o`o.Q.Q`o.Q`8.Q`o#p.Q.Q#p.Q#p.Q.Q.Q.Q.Q.Q.Q.Q.Q.Q`o#p`J`J`J`J`J.z``````",
"``````.8.m`A.B.`#p.x.x.x.x.x.x#k.x.x.x#k.x#k.O.x.O.x.O.x.O.x.x#k.x#k.x.O.x.O.x.O.x.O.x.O.U`0````",
"``````.I.m`j`A`K.W.c.F.e.F.F.e.F`M.F.F`M.F.F`M.F.F`M.F.F`M.F.F`M.F.F`M.F`M.F`M.F`M.F.7.Y`6.i````",
"``````.I#g`A`p`..k#r`a.p`a.e.p`a.p.e.p`a.e.p`a.e.p`a.e.p.F.e.p`a.F.e.p`a.F`a.F`a.F`a.p#r.W.S````",
"``````.I#g.s`V`O`5.Y`a.e.p.p`a.e.p`a`a.p`a`a.p`a`a.p`a`a.p`a`a.e.p.p`a.e.p.p.e.p.p.e.3#r#p.o````",
"``````.I`R`A`p.h.t#k.e.v`a.e.p.p`a.e.p.e.p.e.p.e.p.e.p.e.p.e.p.p`a.e.p.p.e.v.p.e.v.v.v.Y`o``````",
"``````.I.l`A`p#`##`T.p`a.p.p`a.e.p.p`a.p`a.p`a.p`a.p`a.p`a.p`a.e.v.p`a`a.p.e.p`a.v.v`a.O`J``````",
"```````N.N`A#a#s.C`T.e.p.e.p`a.p`a.e.v.e.p.e.p.e.p.e.p.e.v.e.v.p`a.e.p.e.v`a.p.e.3.v.e.P.W``````",
"``````.8.s`V`7.u.T`G.p`a.p.e.v.e.v.p`a.p`a.p`a.p`a.p`a.p`a.p`a.e.p.p`a.p.e.p.v.v.v.3.F`m.M``````",
"``````.8.s`A#a#p`m.7`a.e.v`a.p`a`a.e.p.e.v.e.v.e.v.e.v.e.p.e.p.p`a.e.v`a.p`a.v.3.v.v`M`t.y``````",
"``````.8`A.B`n#p`l.7`a.p`a.e.p.e.p.p`a.p`a.p`a.p`a.p`a.p`a.p`a.e.v.p.e.p.v.v.v.v`E.v`M.C`S``````",
"``````#e`V`A`7.Q.Y.e.p`a.p.p`a.p`a.e.v.e.p.e.p.e.p.e.p.e.v.e.v.p`a`a.v.v.v`E.v.v.v.v.7###.``````",
"``````#e.B`p#e`o.Y.F.e.p.e.p.e.v`a.p`a.p`a.p`a.p`a.p`a.p`a.p`a.p.v.v.v.3.v.v.3.v`E.v`G.t`C``````",
"``````#a#c`V`Y.G#k.e.v`a.p`a.p.e.p.e.p.e.v.e.v.p`a.v.v.v.v.v.v.v.v.v.v.v`E.v.v`E.v.v.7#t.2``````",
"```````p#a`p`z.W`T.p`a.e.p.e.v`a.p.v.v.v.3.v.v.v.v.v.v.v.v.v.v.v`E.v`E.v.v.v.v.v.v.v.7`W`0``````",
"``````.B#a`V.r.M`T`a.p.p`a.v.v.v.v.v.v.v.v.3.v`E.v`E.v.v`E.v`E.v.v.v.v.v`E.v`E.v`E.v`M.M`P``````",
"```````A`n#a.Z.6.7`a.e.v.v.v.v.v.v`E.v.3.v.v.v.v.v.v.v`E.v.v.v.v`E.v`E.v.v.v.v.v.v.v`M`3.S``````",
"```````A.n`V.J#t.e.v.3.v.3.v.3.v.v.v.v.v`E.v`E.v`E.v.v.v.v`E.v.v.v.v.v.v`E.v`E.v`E.v`M.Q````````",
"```````j.8#a`f`B`a.3.3.3.3.3`E.3`E`E`E.3`E.3.3`E.3`E`E`E`E.3`E#f`E#f`E#f`E#f`E#f`E.3.p`o````````",
"``````.N.8`V`D.1.3.j#f.j#f.j#f.j#f.j#f.j#f.j#f.j`Q.j`Q`h#f`h#f`h#f`h`Q`h`Q`h.L`h.L`Q...G````````",
"```````R.I`7.u`Z.L`h`h`h`h`h`h`h.q`h.q.a.q.q.q.q.q.q`h.q.q.a.q.q.q.q.q.q.q.q.q.q.q.a`L.W````````",
"```````R`N`V.Q#q.q.V.q`v.V`v`v.V`v.V.q`v.V.V`v.V`v.V`v`v.V`v`v`v.V`v`v.E.V`v`v#o`v`v.R`u````````",
"```````k.I#a`o.#.E#o.E#o.E#o.E#o.E`2.E`2.E`2.E.E.E.E.E`#.E`#.E`#`#.E`##o`#`#`#`#`#.E`d.y````````",
"``````.m.I#c`o`#`#`#`#`#`2`#`#`#`2`#`#`#`#`#`#`2.#`2`#`2.#`2`#`2`#`2`#`#`#`2`#`#`2`#`I#.````````",
"```````c`e#`.f`#`#`2`#`#`#`#`2`#`#`#`2`#`2`#`#`#`#`#`#`#`#`#`#`#`#`#`#`2`#`#`2`#`#`r`J.b````````",
"````````.w`o`o`b`8`J`8`b`b`8`b`8`b`8`J`8`8`J`8`b`o`b`b`o`b`b`o`b`8`b`8`b`8`b`J.f`X`J`C``````````",
"``````````.g.g.g`4.g`4.g.g`4.g.g`4.g.g`4.g`4.g`4.g.g`4.g.g`4.g`4.g`4.g.g`4.g`P.b.b``````````````",
"````````````````````````````````````````````````````````````````````````````````````````````````",
"````````````````````````````````````````````````````````````````````````````````````````````````",
"````````````````````````````````````````````````````````````````````````````````````````````````",
"````````````````````````````````````````````````````````````````````````````````````````````````",
"````````````````````````````````````````````````````````````````````````````````````````````````"
};
