/* XPM */
static const char *folder_conn_48_xpm[] = {
/* width height num_colors chars_per_pixel */
"    48    48      256            2",
/* colors */
"`` c #244e8c",
"`. c #447ab4",
"`# c #a47a3c",
"`a c #c4b65c",
"`b c None",
"`c c #74a2cc",
"`d c #5c5a5c",
"`e c #b4b6b4",
"`f c #8c7a64",
"`g c #345e94",
"`h c #d4bea4",
"`i c #3c6ea5",
"`j c #747a9c",
"`k c #dcce64",
"`l c #a49c7c",
"`m c #846a44",
"`n c #5c8ebc",
"`o c #94b8dc",
"`p c #b4d2ec",
"`q c #4c628e",
"`r c #c4ba7c",
"`s c #6c6a6d",
"`t c #444444",
"`u c #948e64",
"`v c #a49e94",
"`w c #5c7aa4",
"`x c #8ca2c7",
"`y c #e4d6c4",
"`z c #7492bc",
"`A c #bcbcbc",
"`B c #d4d6d4",
"`C c #947a5b",
"`D c #4c6f9c",
"`E c #3466a4",
"`F c #bc9e58",
"`G c #949494",
"`H c #dcc252",
"`I c #545354",
"`J c #e4da7c",
"`K c #8caed4",
"`L c #5c5e88",
"`M c #5c86b9",
"`N c #749ac8",
"`O c #646c8c",
"`P c #ecded4",
"`Q c #b48a3c",
"`R c #a4c6e4",
"`S c #7c7a7c",
"`T c #c4aa7c",
"`U c #4c82b4",
"`V c #4c668c",
"`W c #ccc27c",
"`X c #4c76a5",
"`Y c #345684",
"`Z c #d4ba44",
"`0 c #44618c",
"`1 c #7c7268",
"`2 c #c4def8",
"`3 c #84acd4",
"`4 c #6c97c4",
"`5 c #d4eafc",
"`6 c #44527c",
"`7 c #6c86ac",
"`8 c #b49254",
".` c #848284",
".. c #9c723c",
".# c #646464",
".a c #3c5e8c",
".b c #4476ac",
".c c #747276",
".d c #acadac",
".e c #9ca2bc",
".f c #c4c6c4",
".g c #4c6ea4",
".h c #44668c",
".i c #e4da9c",
".j c #849dc4",
".k c #d4ba60",
".l c #84a2cc",
".m c #446ea4",
".n c #e4d294",
".o c #6c8ebc",
".p c #9cbee2",
".q c #4c4664",
".r c #8c8a80",
".s c #8caacf",
".t c #ece2a4",
".u c #947e64",
".v c #9cb2d4",
".w c #6486b7",
".x c #b4ceec",
".y c #545674",
".z c #a47635",
".A c #2c5692",
".B c #547aac",
".C c #e4d675",
".D c #b4ac7c",
".E c #ccb694",
".F c #8492ac",
".G c #c4a664",
".H c #dcca5d",
".I c #94aed4",
".J c #64667c",
".K c #7c9ac4",
".L c #acceec",
".M c #ccaa6c",
".N c #54668c",
".O c #d4be50",
".P c #f4eab4",
".Q c #6c5a5c",
".R c #a4b6d4",
".S c #8c7654",
".T c #c4daf4",
".U c #545e87",
".V c #6c6a7c",
".W c #6c7ea4",
".X c #7496bf",
".Y c #9c825c",
".Z c #546e98",
".0 c #3c669c",
".1 c #ecda84",
".2 c #6c7498",
".3 c #acc8e7",
".4 c #847c78",
".5 c #5484b8",
".6 c #dcc888",
".7 c #8c765c",
".8 c #cce6fc",
"#` c #e4e4e6",
"#. c #dccab4",
"## c #748aac",
"#a c #9c967c",
"#b c #ece8e8",
"#c c #d4d2d4",
"#d c #b4924c",
"#e c #a4c2e4",
"#f c #d4b674",
"#g c #ac8644",
"#h c #4c4b4c",
"#i c #9c9c9c",
"#j c #c4c2c4",
"#k c #b4b2b4",
"#l c #dcdedc",
"#m c #cccecc",
"#n c #5c5c74",
"#o c #dcd27c",
"#p c #bc9e6c",
"#q c #94764f",
"#r c #7c82a4",
"#s c #aca278",
"#t c #bcdaf4",
"#u c #4c5a84",
"#v c #ece299",
"#w c #d4be9c",
"#x c #a4a6a4",
"#y c #5c82b4",
"#z c #bcb27c",
"#A c #4c4e71",
"#B c #948674",
"#C c #ccb274",
"#D c #acaac0",
"#E c #446aa0",
"#F c #8c6e4c",
"#G c #9c8a54",
"#H c #dcdae1",
"#I c #9c7a4c",
"#J c #645e7c",
"#K c #3c5a8c",
"#L c #bc9357",
"#M c #8c8674",
"#N c #cccacc",
"#O c #f4e6b1",
"#P c #bc963c",
"#Q c #d4be7c",
"#R c #dcbe49",
"#S c #7ca4ce",
"#T c #645e64",
"#U c #e4d16b",
"#V c #6490c1",
"#W c #bcd6f3",
"#X c #94a6cc",
"#Y c #7c90b8",
"#Z c #d4c480",
"#0 c #847664",
"#1 c #cce2fc",
"#2 c #4c557f",
"#3 c #d4ba9c",
"#4 c #74769c",
"#5 c #f4eae4",
"#6 c #c4a264",
"#7 c #2c528c",
"#8 c #4c7db4",
"a` c #ac7e3c",
"a. c #8c7a6c",
"a# c #34609c",
"aa c #846e54",
"ab c #9cbadc",
"ac c #a4a2a4",
"ad c #5c7eb4",
"ae c #dcc65c",
"af c #4c6a9c",
"ag c #345a94",
"ah c #646674",
"ai c #3c629c",
"aj c #4472ac",
"ak c #8c8c8c",
"al c #545a84",
"am c #3c6aa4",
"an c #bc9664",
"ao c #ccb664",
"ap c #5476ac",
"aq c #94aacc",
"ar c #b48a4c",
"as c #c4c6d4",
"at c #64668c",
"au c #acc2e4",
"av c #c4c2d4",
"aw c #8c7e5c",
"ax c #3c72ac",
"ay c #846e4c",
"az c #6c6e6d",
"aA c #5c7eac",
"aB c #8ca6cc",
"aC c #947e5c",
"aD c #dcc654",
"aE c #8cb2da",
"aF c #5c6284",
"aG c #5c8abc",
"aH c #749ecc",
"aI c #7c7e7c",
"aJ c #4c6a92",
"aK c #345a8c",
"aL c #7c766c",
"aM c #6c8ab4",
"aN c #848684",
"aO c #9c7641",
"aP c #3c6293",
"aQ c #747674",
"aR c #4c72a5",
"aS c #84a6ce",
"aT c #4472a4",
"aU c #6c92c0",
"aV c #9cc2e4",
"aW c #ece6a7",
"aX c #648ab8",
"aY c #2c5a94",
"aZ c #547eb0",
"a0 c #94b2d7",
"a1 c #7c9ec8",
"a2 c #ccae68",
"a3 c #546a94",
"a4 c #a4badc",
"a5 c #54628c",
"a6 c #54729c",
"a7 c #3c6a9c",
"a8 c #ecde8a",
/* pixels */
"`b`b`b`b`b`b`b`b`b`b`b`b`b`b`b`b`b`b`b`b`b`b`b`b`b`b`b`b`b`b`b`b`b`b`b`b`b`b`b`b`b`b`b`b`b`b`b`b",
"#j`S`SaQ`S`S.c`SaLaQ`S`S.c`SaLaQ`S`S`S`G`b`b`b`b`b`b`b`b`b`b`b`b`b`b`b`b`b`b`b`b`b`b`b`b`b`b`b`b",
"`S#k.f#j#j#j#j#j`A#j`A#j`A`A`A#j`A`A`e`G`G`b`b`b`b`b`b`b`b`b`b`b`b`b`b`b`b`b`b`b`b`b`b`b`b`b`b`b",
"`S#j#N#k.d#k.d.d.d.d#x#x#x#xacacacac#x`e.c`b`b`b`b`b`b`b`b`b`b`b`b`b`b`b`b`b`b`b`b`b`b`b`b`b`b`b",
"aI`A`e#x#i#i#i#i`G#i`G#i`G`G`G`Gak`G`Gac.`#H`b`b`b`b`b`b`b`b`b`b`b`b`b`b`b`b`b`b`b`b`b`b`b`b`b`b",
"aI`A`e#i#i#i`G`G`G`G`Gakakakakakakak.r`Gak`A`b`b`b`b`b`b`b`b`b`b`b`b`b`b`b`b`b`b`b`b`b`b`b`b`b`b",
".``e`Aacac#i#i#i#i`G`G`G`G`G`Gak`Gakakak.r`S#l`b`b`b`b`b`b`b`b`b`b`b`b`b`b`b`b`b`b`b`b`b`b`b`b`b",
".`.d.d`GakakakakaNaN.r.`.`.`aI.`aIaI.`aIaN`S.c`s`s`s`s`s`s`s`s`s`s`s`s`s`s`s`s#c`b`b`b`b`b`b`b`b",
"aN.d`A#i#i#i#i#i`G`G`G`Gak`Gakakakakakakakakak#x#k`e`e`e`A`e`A`A`A`A#j`A#j#j`G.r`b`b`b`b`b`b`b`b",
"akac.d`GakakaNaNaNaN.`aI.`aI`SaI`S`S`SaQ`SaQ`S`S`S`S`SaI`S.4aI.`.4.`.`aNaNak.`aI`b`b`b`b`b`b`b`b",
"akac#k`G`G`G`Gakakak.raNaN.`.`.`.`aI.`aIaI.`aIaIaIaI.`.`.`.`.`aNaNaNakakakakaN`S`b`b`b`b`b`b`b`b",
"ak#i.d`GakakaN.r.`.`.`aI.`aIaI`S`SaQ`SaQ`SaQaQ`S`SaQ`SaQ`SaIaIaI.`aIaN.`aNak.`az`b`b`b`b`b`b`b`b",
"`G`G.dakakaN.u`C`C`f`C.7`C.7.7.S.S.7.S.S.S.7.S.S.S.S.S.S.S.S.7#q.7`C`C`C`C`C`Caa#3#3#3#3#3#3#3`b",
"`G`G#k`Gak.r.z#6#6#6#6#6#6#6#6#6#6#6#6#6#6#6#6#6#p#6#6#6#6#6#6#6#6#p#6#p.G#p.G#6.G#6.G#6.G#6#Lan",
"#iak#x.`aI.4.zaW#O.PaW.PaWaW.PaW.PaW.PaWaW#OaWaW.PaW#O.PaW.PaW.P.P.PaW.PaW.PaW.PaW.P.P.P.P.P#Z#L",
"#iak#kakak#B.z.Pa8`J`J`J`J`J`J`J`J`J`J.1`J`J`J.1`J`J`J`J`J`J`J`J`J`J`J`J`J`J`J`J`J`J`J.C`J.t#Q#p",
"#x.`#xaIaI.7#g.P`J`J`J`J.1`J.1`J.1`J`J`J`J.1`J`J`J.1`J`J.1`J`J`J`J`J`J.1`J.1.C.1`J`J`J`J`J.t#C`T",
"#x.`.daNaN`C`8.P`J.n.1.C`J`J`J`J`J.1`J.1`J`J`J.1`J`J.1.C`J`J#z#a#B`S.`#a.D#o`J`J.1`J.1`J#UaW.M.E",
".daI#x.`aI`C#p#O`J`J`J`J.1`J.1`J`J`J`J`J`J.1`J`J`J`J`J`r.cat.F#X#XaBaq`x##.V.J#s.C`J`J.C.C#O#6`h",
".d`SacaI`S#q.MaW`J.1`J.C`J`J`J.1.C.1`J.1.C`J`J.1.C#Z.c#4.va4.XaR.m#E`Xa0aEa0.s.Wal#z.C#U.CaWan#.",
"#kaQ#x.`aI#I#C.P`J.C.1`J.1.C`J`J`J`J.n.C`J.1.C`J#zaF.RaB#S.x.3ap.gaT.K`oa0`3#S`N`zaF#M.C.C.P`Q`y",
"`A.c#i`S.caO#Z.t`J`J`J.C`J.1`J.1.n.C.1`J.1.C`J`l.2.l.l.x.sab.3aRaS.3`K`o`o`K.w.m#EaX.Z`s.C.P`#`P",
"`Aazac.`aI`#.6#v.1.C.1`J`J`J`J.C.1`J`J.C`J`J.D#4`x.3.T`z.x.8#1a4#t#W.3`R`oa1.maXama#.m.ZaIaW.z#5",
"`A`s`G`Saz.z.n#v`J`J`J.1.C.1`J.C`J.1.C.1.C#ZaF.jaZabaB.B.w#1`5`5`2.T`p`R`NaSaU`Ma#a#agaR`0`v.z`b",
".f.##i.``S.z.ia8`J.1.C`J`J`J.1`J.C`J`J`J`J.V.KaAaR.B.B.X`K#W`5`5#1`2#W.3.l.B.0.0aia#`gaYap`6.z`b",
"#N.#`G`S`1.z.ta8`J`J`J.1`J`J`J.1`J.1.C.1#z.W`7aRapap.B`z#1#1`5`5`5`2#W.3`N.m.m#Ea#a#`gaYa#af`d`b",
"#m`d`G`S`1.zaW`J.1`J`J`J`J.n.C.C`J.C`J.C.V.j.gaR`XaA#e`5`5`5`5.8`5`2#W`K.maS.s`MaRaia#aY.A#E#A`b",
"#c`I`GaI#0`#aW.1`J`J.1`J.1.C.1`J.1`J.1#o`O.w.maRaRab`5`5`5`5`5`5#1`2#W`R.o.o#V#SaHaG.maYaYag`qas",
"`B`IakaQaa#g.t`J`J`J`J.n.C.1`J.C.C.C.C#s##aR.g#yaS#1`5`5`5.8`5`5#1#t`p.l#E#E.0aRamaRa#agaY.A#E`j",
"#l#h`G.`.S#d#v.1`J.1.C.1.C.C.C.C.C.C.C#M`z#y.p.3.3#t#1#1`5`5#1#1.T#Wab.m#E#E.0.0a#a#`ia#.A`E.m.U",
"#``takaQ#F`F#v.C`J`J.C.C.C.C.C.C#U.C#U.caM`Na0`R.x#W#W`2.T`2.T#t#W.x.o.m#E.0.0aia#`ga#am.A.A`D`L",
"#``takaI#q.Ga8.C.1#U#U.C.C#U.C#U.C.C.Cah.l.m`Xab`R.3`p#W#W#W#W`p.x`R#y#Eam.0aia#a#`gaYamaY.A`D.U",
"`b`taN`S..a2`J.C#U.C.C.C.C#U.C#U.C#U.Caza0.l#VaM.p.KaV.3.3.x.L.3`R#e`M#E.0.0aia#`gagaYaYaY.0`D`L",
"`b`t.`aQ#Iao.C#U#U#U#U#U#U#U#U#U#U#U#UaLaB#S`KaH.w#E#EaX`R#e#e#e.p`o.s.m.0.0aia#`gaYaY.A.Aa#`D`L",
"`b`t.``S.z.k#U`k#U.H`k.H`k.H.H.H.H.H.H`u#Y#S#S`3aZ#E#E#EaZab`o`o`o`K`3a1`N`N.5`gaYaY.A.AaYaP.Zat",
"`b`t`S.c.z.k.HaDaDaD.HaDaD.HaD.HaD.HaDao`O#S#S#S.0.0.0.0#E`X`N`K`3`3#S`c`4`4.5agaYaY.A.AaP.aa5#D",
"`b`t`S.4.z.kaD`H`H`H`HaD`H`HaD#RaD#RaD#RaF#S`4#Vai.0.0.0ai.0.0aX#Sa1aH`4`4`n`MaYaY.A``aYaP.h.U`b",
"`b#h.caL.z`Z#R.O#R`Z#R#R`Z#R`Z#R.O#R`Z#Raw`7`4`4.ma#aia#.0aiaiaU`4`4`4#VaG.5.5a#.A.A.A#7.a.Nat`b",
"`b#haQa..z`Z`Z#R`Z`Z`Z`Z`Z`Z#R`Z`Z`Z`Z`Z`Z#AaHaXaGa7`ga#a#a#.0`4#V#V`n`M.5`U`.aY.A````.A`V`6#H`b",
"`b`I.c`C`Q`Z`Z`Z`Z#R`Z`Z#R`Z`Z`Z#R`Z#R`Z`Z#G.N`4.5.5`g`g`g`gamaGaGaG.5`U#8`.aj.A.A``.A`0#u#J`b`b",
"`b.c`m.z`Q#P#P#P#P#P#P#P#P#P#P#P#P#P#P#P#P#P.#`w`M#8aYaYaYam.5.5`U#8#8`.axajama#``#7`Y`q.q#b`b`b",
"`b#b.Y#I#I#IaO#I`##I`##I#I`##IaO#IaO#IaO#IaO#q#A`w`Ma#.AaY`i#8`.`.ajaxaxamamai`g``aK`q#A#``b`b`b",
"`b`b`b`b`b`b`b`b`b`b`b`b`b`b`b`b`b`b`b`b`b`b`b`b#4.N.m`ga#`iaj`i`iajam.0#E.a.a#K`V#ual#``b`b`b`b",
"`b`b`b`b`b`b`b`b`b`b`b`b`b`b`b`b`b`b`b`b`b`b`b`b`b.e#2af#8.mamam.0.0aiaP.a#K`0`q#2#4`b`b`b`b`b`b",
"`b`b`b`b`b`b`b`b`b`b`b`b`b`b`b`b`b`b`b`b`b`b`b`b`b`b`b#r`L.Na6a6`DaJaJaJ`Va5.Uat#H`b`b`b`b`b`b`b",
"`b`b`b`b`b`b`b`b`b`b`b`b`b`b`b`b`b`b`b`b`b`b`b`b`b`b`b`b`bav#4`L`Lal`L`Lat#D`b`b`b`b`b`b`b`b`b`b",
"`b`b`b`b`b`b`b`b`b`b`b`b`b`b`b`b`b`b`b`b`b`b`b`b`b`b`b`b`b`b`b`b`b`b`b`b`b`b`b`b`b`b`b`b`b`b`b`b",
"`b`b`b`b`b`b`b`b`b`b`b`b`b`b`b`b`b`b`b`b`b`b`b`b`b`b`b`b`b`b`b`b`b`b`b`b`b`b`b`b`b`b`b`b`b`b`b`b"
};
