/* XPM */
static const char *folder_arch_48_xpm[] = {
/* width height num_colors chars_per_pixel */
"    48    48      256            2",
/* colors */
"`` c #444244",
"`. c #447ab4",
"`# c #94b6dc",
"`a c #848284",
"`b c None",
"`c c #3466a4",
"`d c #6496cc",
"`e c #c4d6e4",
"`f c #5c5e5c",
"`g c #bcbabc",
"`h c #6c7a8c",
"`i c #9c9e9c",
"`j c #4c627c",
"`k c #5c6e84",
"`l c #a4c6e4",
"`m c #74a2cc",
"`n c #a4a2a4",
"`o c #5c86b4",
"`p c #6c6e6c",
"`q c #b4b6b4",
"`r c #4472ac",
"`s c #bccae4",
"`t c #648abc",
"`u c #84a2cc",
"`v c #547eb4",
"`w c #446a9c",
"`x c #7496c4",
"`y c #e4e6e4",
"`z c #5c6e8c",
"`A c #84aed4",
"`B c #9cbedc",
"`C c #4c6e9c",
"`D c #949294",
"`E c #b4c6dc",
"`F c #7caad4",
"`G c #cccacc",
"`H c #4c4e4c",
"`I c #3c6eac",
"`J c #dcdadc",
"`K c #6486bc",
"`L c #4c6a8c",
"`M c #7ca2cc",
"`N c #5c7694",
"`O c #94aed4",
"`P c #3c669c",
"`Q c #646664",
"`R c #7c7a7c",
"`S c #acaeac",
"`T c #5c8ec4",
"`U c #6c7684",
"`V c #7492c4",
"`W c #5c82b4",
"`X c #749ecc",
"`Y c #4c7aac",
"`Z c #a4bad4",
"`0 c #8c8a8c",
"`1 c #6c9ecc",
"`2 c #d4deec",
"`3 c #c4c2c4",
"`4 c #5c8ac4",
"`5 c #bcd2e4",
"`6 c #6492c4",
"`7 c #8caed4",
"`8 c #a4bedc",
".` c #b4cee4",
".. c #546a8c",
".# c #7ca6cc",
".a c #3c6aac",
".b c #4c4a4c",
".c c #9cb6dc",
".d c #6c9acc",
".e c #74828c",
".f c #646e74",
".g c #acc6e4",
".h c #acaaac",
".i c #5c8abc",
".j c #acbedc",
".k c #84aad4",
".l c #5482b4",
".m c #446eac",
".n c #749ac4",
".o c #e4eef4",
".p c #5c728c",
".q c #9c9a9c",
".r c #b4cadc",
".s c #d4d2d4",
".t c #545654",
".u c #64768c",
".v c #3c6aa4",
".w c #6c6a6c",
".x c #747674",
".y c #4c7ebc",
".z c #8cb2dc",
".A c #a4c2dc",
".B c #444644",
".C c #848684",
".D c #649acc",
".E c #d4d6d4",
".F c #646264",
".G c #bcbebc",
".H c #747a84",
".I c #546674",
".J c #74a2d4",
".K c #a4a6a4",
".L c #5c86bc",
".M c #747274",
".N c #4476ac",
".O c #bccee4",
".P c #648ebc",
".Q c #84a6cc",
".R c #446aa4",
".S c #e4eaf4",
".T c #4c76b4",
".U c #949694",
".V c #cccecc",
".W c #545254",
".X c #e4e2e4",
".Y c #4c6a94",
".Z c #7ca2d4",
".0 c #94b2d4",
".1 c #3c66a4",
".2 c #5c6a7c",
".3 c #7c7e7c",
".4 c #b4b2b4",
".5 c #5c82bc",
".6 c #7c9ecc",
".7 c #4c7ab4",
".8 c #8c8e8c",
"#` c #d4e2ec",
"#. c #647284",
"## c #c4d2e4",
"#a c #6c92c4",
"#b c #546e94",
"#c c #c4c6c4",
"#d c #9cbadc",
"#e c #accae4",
"#f c #acc2dc",
"#g c #8caedc",
"#h c #7ca6d4",
"#i c #5482bc",
"#j c #749acc",
"#k c #5c7294",
"#l c #b4cae4",
"#m c #647694",
"#n c #74767c",
"#o c #a4c2e4",
"#p c #000000",
"#q c #000000",
"#r c #000000",
"#s c #000000",
"#t c #000000",
"#u c #000000",
"#v c #000000",
"#w c #000000",
"#x c #000000",
"#y c #000000",
"#z c #000000",
"#A c #000000",
"#B c #000000",
"#C c #000000",
"#D c #000000",
"#E c #000000",
"#F c #000000",
"#G c #000000",
"#H c #000000",
"#I c #000000",
"#J c #000000",
"#K c #000000",
"#L c #000000",
"#M c #000000",
"#N c #000000",
"#O c #000000",
"#P c #000000",
"#Q c #000000",
"#R c #000000",
"#S c #000000",
"#T c #000000",
"#U c #000000",
"#V c #000000",
"#W c #000000",
"#X c #000000",
"#Y c #000000",
"#Z c #000000",
"#0 c #000000",
"#1 c #000000",
"#2 c #000000",
"#3 c #000000",
"#4 c #000000",
"#5 c #000000",
"#6 c #000000",
"#7 c #000000",
"#8 c #000000",
"a` c #000000",
"a. c #000000",
"a# c #000000",
"aa c #000000",
"ab c #000000",
"ac c #000000",
"ad c #000000",
"ae c #000000",
"af c #000000",
"ag c #000000",
"ah c #000000",
"ai c #000000",
"aj c #000000",
"ak c #000000",
"al c #000000",
"am c #000000",
"an c #000000",
"ao c #000000",
"ap c #000000",
"aq c #000000",
"ar c #000000",
"as c #000000",
"at c #000000",
"au c #000000",
"av c #000000",
"aw c #000000",
"ax c #000000",
"ay c #000000",
"az c #000000",
"aA c #000000",
"aB c #000000",
"aC c #000000",
"aD c #000000",
"aE c #000000",
"aF c #000000",
"aG c #000000",
"aH c #000000",
"aI c #000000",
"aJ c #000000",
"aK c #000000",
"aL c #000000",
"aM c #000000",
"aN c #000000",
"aO c #000000",
"aP c #000000",
"aQ c #000000",
"aR c #000000",
"aS c #000000",
"aT c #000000",
"aU c #000000",
"aV c #000000",
"aW c #000000",
"aX c #000000",
"aY c #000000",
"aZ c #000000",
"a0 c #000000",
"a1 c #000000",
"a2 c #000000",
"a3 c #000000",
"a4 c #000000",
"a5 c #000000",
"a6 c #000000",
"a7 c #000000",
"a8 c #000000",
/* pixels */
"`b`b`b`b`b`b`b`b`b`b`b`b`b`b`b`b`b`b`b`b`b`b`b`b`b`b`b`b`b`b`b`b`b`b`b`b`b`b`b`b`b`b`b`b`b`b`b`b",
"`b`b`b`b`b`b`b`b`b`b`b`b`b`b`b`b`b`b`b`b`b`b`b`b`b`b`b`b`b`b`b`b`b`b`b`b`b`b`b`b`b`b`b`b`b`b`b`b",
"`b`b`b`b`b`b`b`b`b`b`b`b`b`b`b`b`b`b`b`b`b`b`b`b`b`b`b`b`b`b`b`b`b`b`b`b`b`b`b`b`b`b`b`b`b`b`b`b",
"`3`R`R`R.M`R`R.M`R`R.M`R`R.M`R`R.M`R`R`0`y`b`b`b`b`b`b`b`b`b`b`b`b`b`b`b`b`b`b`b`b`b`b`b`b`b`b`b",
".3.4`3`3`3.G`3.G.G`g`3`g`g.G`g`g`g`g`g.U`D`b`b`b`b`b`b`b`b`b`b`b`b`b`b`b`b`b`b`b`b`b`b`b`b`b`b`b",
"`R.G`G.4`S.4`S.h.h.h.K.h.K.K.K`n`n`n.K`g.M`b`b`b`b`b`b`b`b`b`b`b`b`b`b`b`b`b`b`b`b`b`b`b`b`b`b`b",
".3.G`g`i`n`i.q.q.q.U.q.U`D`D`D`D.8`D.8.K`a.s`b`b`b`b`b`b`b`b`b`b`b`b`b`b`b`b`b`b`b`b`b`b`b`b`b`b",
".3`g.4`i.q.q.U.U.U`D.8.8`D.8.8.8`0.8`0`D.8`q`b`b`b`b`b`b`b`b`b`b`b`b`b`b`b`b`b`b`b`b`b`b`b`b`b`b",
"`a.4`g`n`i`n`i.q.q.U.q.U`D`D`D.8`D.8.8.8`0`R.X`b`b`b`b`b`b`b`b`b`b`b`b`b`b`b`b`b`b`b`b`b`b`b`b`b",
".3`S`S.8`D.8`0.C`0.C.C`a`a.3`a.3.3`a.3.3.C`R`p.w.w.w.w.w.w.w.w.w.w.w.w.w.w.w.M`G`b`b`b`b`b`b`b`b",
".C.h.G`n`i.q.q.U.U.U`D`D.8`D.8.8.8`0`0`0`0`0.8`n.4`q`g`q`g`g`q`g`g`g`g.G`g.G.q`R`b`b`b`b`b`b`b`b",
"`0.K`S.8.8.8`0`0.C.C`a`a.3.3.3.3.3`R`R`R.x`R`R`R`R`R`R`R.3.3`a`a`a.C.C`0`0.8`0.M`b`b`b`b`b`b`b`b",
"`0`n.4.U`D`D.8.8`0`0.C.C.C.C`a`a`a.3.3.3.3.3.3.3.3.3.3`a`a`a`a.C.C.C`0`0.8.8`0.w`b`b`b`b`b`b`b`b",
".8.q.4`D.8`0`0.C.C`a`a`a`a.3.3`R`R`R`R`R`R`R.x`R`R`R`R`R`R.3.3.3`a`a`a.C.C`0.C.F`b`b`b`b`b`b`b`b",
"`D.U.h`0.C.C`h#m.u.u.p.p.p`z`z`k`z..`k..`k..`k..`k..`k...p`k.p`z.p.p.p#.`N.u#m`j.j`E.j.j`E.j`E`b",
".U`D.4`D`D.8`c`v`W.l`W`W`W`W.l`W.l`W.l`W.l`v.l`W.l`v.l`v`v`v`v`v`v`v`v`v`v`v`v`v.l`W.5.l`W`v.7`v",
".q.8.K.3.3.H`c#e.`.O.`.`.`.`.O.`.``5.`.O.`.O.O.`.O.O.O`5.O`5.``5.O.O.O.O.`.O.O.O.O.``5.O`5.O.c.m",
"`i`0`S`D.8.e.1.`#g`F.Q`F.k#h`F.k#h`F.Q`F.k`F`F.Q`F`F#h`F#h`F.Q`F#h`F`F`F.k`F`F`F`F.k#h`F#h`B`7.7",
"`n.C.K.3.3.u.m.`.k.k#h#h.k#h.k#h.k#h`F.Q#h.Q`F#h.k#h.k#h.k#h.k#h.k#h.Q#h.Q#h.Q#h.Q`F.Q`F#h`B.Q.L",
".K`a.h`a`a.u.7.O.k#h.k`F#h.k#h`F#h.k#h`F`F#h.k#h.k#h`F.Q`F.Q`F#h.k`F.k`F`F.k`F`F#h.k#h.k.J`8.6#a",
".h.3.K`a.3#k`o.`#h`F#h.k#h`F.Q`F.Q`F.Q`F.Q`F.Q`F#h.k#h.k#h`F.Q`F#h.Q#h.Q#h#h.Q`F.k#h`F.Z`X#o#a`u",
"`S`R`n.3`R`C.P#l`F.Q`F.Q`F.Q`F#h`F.Q`F.k#h.k#h.k#h.k#h`F.Q`F.Q`F.Q`F`F`F.k`F.k#h#h.k#h`X`X.g`6`O",
".4.x.K.C`a`C`x.g`F.Q`F#h.k#h.k#h.k#h#h`F.k#h`F#h.k#h.k#h.k#h`F.k#h`F.k#h.Q#h#h.k#h#h.J`X`1#e`t`Z",
"`q.M.q`R.M`w`M.A.k#h.k#h`F#h.k#h`F.k#h.Q#h.k#h.k#h`F#h.k#h.k#h#h.k#h.Q#h`F.k#h.k#h.J`X.J`X.``v`E",
"`g`p`n`a.3.v`7`8`F#h`F.Q`F.Q`F.Q`F.Q`F`F.k#h`F#h.k#h.k.#`F#h.k`F.Q`F#h.k#h.k#h#h.J`X`X`1.Z.`.N##",
".G.w.q.x.x`P`7`B.Q`F.Q`F.k#h`F.k#h`F.k#h#h.k#h.k#h`F#h.k#h.k#h`F#h.k#h.k#h`F#h.J`X.J`X.J#h#l.a`2",
"`3`Q.q.3.x`c#d#d`F#h`F.k#h.k#h#h.k#h.k#h.k#h.k#h.k.#.k#h`F#h.k#h.k#h`F#h.k.Z`X`X`X`1`X`1.k#e`c.S",
"`G`f.q.3#n`c`8`##h.k#h#h#h#h.k#h.k#h#h.k#h`F#h.k#h.k#h.k#h.k#h.k#h.k#h#h.J`X.J`1.J`X.J`X`A#o`c`b",
".V`f`D.x.f`c#o.z.Q`F.Q`F.k#h.k#h`F.Q`F#h.k#h.k#h`F#h.k.#.k#h`F.##h#h`X`X`X`1`X`X`X`1`X.J`A.c`c`b",
".s.t.q`a#..1`l`7#h`F.k#h.k#h`F.Q`F.k#h.k#h`F#h.#.Q#h#h.Z`m.Z`m.J`X`X.J`1.J`X.J`1.J`X`X`1.z`7.m`b",
".E.W`0.x.2.m.A.k#h.Q#h`F#h.k#h.k#h#h.Z.J`m`X`m`X.J`1`X`m`X.J`X`X`X`1`X`X`X`1`X`X`X.J`1.J#g.#`v`b",
"`J.b`D.3..`Y`B.k`F`F.Q`F.Q#h#h.J`X`X.J`X`X`X`X`X`X.J`X`1`X`1`X`1.J`X.J`1.J`X.J`1.J`X.J`X.z#j`K`b",
".X.B.8`R..`v#d#h.Q`F#h.Z.J`1`X`X.J`1`X`X`1.J`X`1.J`1`X.J`X.J`X.J`X`1`X`X`X`1`X.J`X`1`X`X.z#a`x`b",
"`y.B`0.x`L.L`##h#h`X`X`X`X`X.J`1`X`X.J`1.J`X.J`X`X.J`X`1`X`1`X`1.J`X.J`1.J`X.J`1.J`X`1.J#g.i`u`b",
"`b```0.3`w`t`A`m`X`X.J`1.J`1`X`X.J`1`X`X`X`1`X.J`1`X`X.J`X.J`X`X`X`1`X.J`X`1.J`X`1.J#j`1#g`W.0`b",
"`b``.3.x`w`6.k`1`X`1`1`X`1.J`1`1`X`1.J`1.J.d`1`1`1`1`1`1`1`1`1`1`1.J.d`1`1.d`1.d`1.d`1.J.k.y.j`b",
"`b```a`a`P`6.Z`1.d`1.d`1.d.d.d`1.d`1.d.d.d`1.d.d.d.d.d.d.d.d.d.d.d.d.d.d.d.d.d.d.d.d.d.d`F.T`E`b",
"`b```R`p.1`6`X.d.d.d.d.d.d.d.d.d.d.d.d.d.d.d.d.d.d.d.d.d.d.d.d.d.d.D.d.d.d.d.d.D.d.D.d.d.J.m`e`b",
"`b``.3.3`c`d.d.d.D.d`d.D`d.D`d.D`d.D`d.D`d.D.d`d.D`d.D`d`d`d`d`d`d`d`d`d`d`d`d`d`d`d`d`d`1.a`2`b",
"`b.b.x#n`c`d`d`d`d`d`d`d`d`d`d`d`d`d`d`d`d`d`d`d`d`d`d`d`d`d`d`d`d`d`d`d`d`d`d`d`d`d`d`d`d`c.S`b",
"`b.b.x`U`c`6`d`d`d`d`d`d`d`d`d`d`d`d`d`d`d`d`d`d`d`d`d`d`d`d`d`d`d`d`d`d`d`d`d`d`d`d`T`d`T`c`b`b",
"`b.W.M#m`I`6`d`T`d`T`d`T`d`T`d`T`d`T`d`T`d`T`d`T`d`T`d`d`T`d`d`T`d`d`T`d`d`T`d`d`T`d`d`d.y.5`b`b",
"`b.F.I`c.N`4`T`4`4`4`4`4`4`4`4`4`4`4`4`4`4`4`4`4`4`4`4`4`4`4`4`4`4`4`4`4`4`4`4`4`4`4`4.y.a`E`b`b",
"`b`3`P`c`c`c`c`c`c`c`c`c`c`c`c`c`c`c`c`c`c`c`c`c`c`c`c`c`c`c`c`c`c`c`c`c`c`c`c`c`c`c`c.7#l`b`b`b",
"`b`b`b`b`b`b`b`b`b`b`b`b`b`b`b`b`b`b`b`b`b`b`b`b`b`b`b`b`b`b`b`b`b`b`b`b`b`b`b`b`b`b`b`b`b`b`b`b",
"`b`b`b`b`b`b`b`b`b`b`b`b`b`b`b`b`b`b`b`b`b`b`b`b`b`b`b`b`b`b`b`b`b`b`b`b`b`b`b`b`b`b`b`b`b`b`b`b",
"`b`b`b`b`b`b`b`b`b`b`b`b`b`b`b`b`b`b`b`b`b`b`b`b`b`b`b`b`b`b`b`b`b`b`b`b`b`b`b`b`b`b`b`b`b`b`b`b",
"`b`b`b`b`b`b`b`b`b`b`b`b`b`b`b`b`b`b`b`b`b`b`b`b`b`b`b`b`b`b`b`b`b`b`b`b`b`b`b`b`b`b`b`b`b`b`b`b"
};
