/* XPM */
static const char *folder_conn_48_xpm[] = {
/* width height num_colors chars_per_pixel */
"    96    48      256            2",
/* colors */
"`` c #24720c",
"`. c #2c8214",
"`# c #9c8e6c",
"`a c #48c41c",
"`b c #3c82a4",
"`c c #acceac",
"`d c #649a7c",
"`e c None",
"`f c #244580",
"`g c #44a424",
"`h c #b4ae8c",
"`i c #346873",
"`j c #dcca94",
"`k c #4ca29c",
"`l c #c4b079",
"`m c #dce6d8",
"`n c #54627c",
"`o c #3c8850",
"`p c #54c2ac",
"`q c #2c649e",
"`r c #4ca654",
"`s c #3cb319",
"`t c #349214",
"`u c #ccc1a7",
"`v c #6c86a4",
"`w c #dcdcdc",
"`x c #84a29c",
"`y c #ecf6ec",
"`z c #24528c",
"`A c #ecda9f",
"`B c #ccbe92",
"`C c #a49e7c",
"`D c #54de24",
"`E c #3c84c7",
"`F c #9cb0bc",
"`G c #44a2e4",
"`H c #3472a8",
"`I c #62ecfc",
"`J c #b4a06c",
"`K c #6cc66c",
"`L c #3c7a6c",
"`M c #f4e8c8",
"`N c #54b230",
"`O c #3c93d4",
"`P c #4c9836",
"`Q c #acc6ac",
"`R c #5cc834",
"`S c #4cb5fc",
"`T c #3c851c",
"`U c #7caa4c",
"`V c #4ca430",
"`W c #e4d295",
"`X c #449658",
"`Y c #346c64",
"`Z c #d4caac",
"`0 c #4c627c",
"`1 c #445c85",
"`2 c #52c4fc",
"`3 c #d4be83",
"`4 c #2c6488",
"`5 c #c4dac4",
"`6 c #c4b689",
"`7 c #eceeec",
"`8 c #3c9b1c",
".` c #2c5e84",
".. c #84aa54",
".# c #244c87",
".a c #2c6aa4",
".b c #3fbb19",
".c c #9c9e9c",
".d c #b5b5b3",
".e c #3475b6",
".f c #5ad5fc",
".g c #eceaeb",
".h c #ece0b8",
".i c #3e8cc8",
".j c #d4c295",
".k c #5c727c",
".l c #3c8364",
".m c #45a4ee",
".n c #bba873",
".o c #4ca23c",
".p c #e4d4a6",
".q c #f4e2a5",
".r c #449ce2",
".s c #60da40",
".t c #d4ba7d",
".u c #348c16",
".v c #48d01c",
".w c #a0c6a0",
".x c #fcfdfb",
".y c #34558f",
".z c #54b24c",
".A c #3c8b22",
".B c #347664",
".C c #344e7c",
".D c #347cb8",
".E c #c4aa74",
".F c #2d7c10",
".G c #386e70",
".H c #54b29c",
".I c #f4dda3",
".J c #6bfcfc",
".K c #f4f2f4",
".L c #54bce8",
".M c #ecd598",
".N c #cccccc",
".O c #ccb97f",
".P c #2c4b82",
".Q c #717574",
".R c #b9aa7f",
".S c #4c96ac",
".T c #44a244",
".U c #bcb59f",
".V c #decc9e",
".W c #e2e8ee",
".X c #4cb524",
".Y c #44952f",
".Z c #d4c6ac",
".0 c #2c5595",
".1 c #a4b6ac",
".2 c #54bc2c",
".3 c #4c9e37",
".4 c #acc2c4",
".5 c #64c254",
".6 c #67ba51",
".7 c #4cac25",
".8 c #549650",
"#` c #58cdfb",
"#. c #849e9c",
"## c #908c7a",
"#a c #6cde44",
"#b c #54b46c",
"#c c #5cd2ac",
"#d c #94b294",
"#e c #60da78",
"#f c #8fba84",
"#g c #9c9a9a",
"#h c #7cb654",
"#i c #54b4b0",
"#j c #74f244",
"#k c #3c82bc",
"#l c #54a284",
"#m c #ac9a6c",
"#n c #546a94",
"#o c #aca794",
"#p c #d4d6d4",
"#q c #94aa6c",
"#r c #949694",
"#s c #a4aa74",
"#t c #60ea30",
"#u c #5f7e97",
"#v c #6c7e94",
"#w c #34758f",
"#x c #bcae74",
"#y c #64be74",
"#z c #c4c5c4",
"#A c #e4e2e4",
"#B c #bcbebc",
"#C c #84b271",
"#D c #bcc3c4",
"#E c #448c9c",
"#F c #3cae1c",
"#G c #4caed4",
"#H c #346c8f",
"#I c #448c60",
"#J c #4cadf5",
"#K c #4caa3c",
"#L c #acaeac",
"#M c #646e7c",
"#N c #7c8eac",
"#O c #6cd23c",
"#P c #54ce24",
"#Q c #448eb4",
"#R c #949eb4",
"#S c #5cdcfc",
"#T c #54c529",
"#U c #a4a28c",
"#V c #4cbd21",
"#W c #647699",
"#X c #408a38",
"#Y c #acb8c8",
"#Z c #acb674",
"#0 c #c4c684",
"#1 c #4a9e68",
"#2 c #c4decc",
"#3 c #bbbabd",
"#4 c #3c7e54",
"#5 c #84ae9c",
"#6 c #64e22c",
"#7 c #aca294",
"#8 c #3c823c",
"a` c #74fefc",
"a. c #f4eed8",
"a# c #b4d6bc",
"aa c #448e4c",
"ab c #64ce38",
"ac c #d8c68a",
"ad c #58ba90",
"ae c #d4d2d4",
"af c #449ebc",
"ag c #64da9c",
"ah c #cccec4",
"ai c #ccd6dc",
"aj c #3e8dd6",
"ak c #2c7c24",
"al c #51bcfc",
"am c #5cb284",
"an c #a9a8a8",
"ao c #dac694",
"ap c #4cd624",
"aq c #347a9c",
"ar c #64f2fc",
"as c #3c7264",
"at c #5cba4c",
"au c #8c9eb4",
"av c #64da8c",
"aw c #a49a84",
"ax c #d4dee0",
"ay c #c4b287",
"az c #4caa6c",
"aA c #4c6694",
"aB c #2c5c99",
"aC c #54b2c4",
"aD c #bcaf8c",
"aE c #44884c",
"aF c #44b51f",
"aG c #3c941d",
"aH c #f4f6f5",
"aI c #2c5484",
"aJ c #ac9f74",
"aK c #4ca6dc",
"aL c #4494de",
"aM c #64c934",
"aN c #449c23",
"aO c #346ca9",
"aP c #44865c",
"aQ c #3c7a5c",
"aR c #3c7dbe",
"aS c #5cba34",
"aT c #b4c1d1",
"aU c #3c7488",
"aV c #44ad24",
"aW c #54ac44",
"aX c #ccc6ac",
"aY c #94ba9c",
"aZ c #7cb66c",
"a0 c #e4e6e4",
"a1 c #fcf2e4",
"a2 c #549e3c",
"a3 c #348415",
"a4 c #2c467c",
"a5 c #e4cd94",
"a6 c #3466a0",
"a7 c #346287",
"a8 c #8cae5c",
/* pixels */
"`e`e`e`e`e`e`e`e`e`e`e`e`e`e`e`e`e`e`e`e`e`e`e`e`e`e`e`e`e`e`e`e`e`e`e`e`e`e`e`e`e`e`e`e`e`e`e`e`e`e`e`e`e`e`e`e`e`e`e`e`e`e`e`e`e`e`e`e`e`e`e`e`e`e`e`e`e`e`e`e`e`e`e`e`e`e`e`e`e`e`e`e`e`e`e`e",
"`e`e`e`e`e`e`e`e`e`e`e`e`e`7`5`c.w.w.4ai.K`e`e`e`e`e`e`e`e`e`e`e`e`e`e`e`e`e`e`e`e`e`e`e`e`e`e`e`e`e`e`e`e`e`e`e`e`e`e`e`e`e`7`5`c.w.w.4ai.K`e`e`e`e`e`e`e`e`e`e`e`e`e`e`e`e`e`e`e`e`e`e`e`e`e`e",
"`e`e`e`e`e`e`e`e`e`e.xa#`d.6at.T.7aW#w.0.y#5`m`e`e`e`e`e`e`e`e`e`e`e`e`e`e`e`e`e`e`e`e`e`e`e`e`e`e`e`e`e`e`e`e`e`e`e`e.xa#`d.6at.T.7aW#w.0.y#5`m`e`e`e`e`e`e`e`e`e`e`e`e`e`e`e`e`e`e`e`e`e`e`e`e",
"`e`e`e`e`e`e`e`e`e`5.6aMaMab#O.5#1.2.6`qa7a7`V#f`y`e`e`e`e`e`e`e`e.xaHa1a1`M`M`M`e`e`e`e`e`e`e`e`e`e`e`e`e`e`e`e`e`e`5.6aMaMab#O.5#1.2.6`qa7a7`V#f`y`e`e`e`e`e`e`e`e`e.xaHaH.K.K.K`e`e`e`e`e`e`e",
"`e`e`e`e`e`e`e.xaYaSaMaM#lam`K#y#Eab#EaOaU.#`iaQ.8`m.Ka.a1`M.h.h.M.M.M.M`W.M`A.I`e`e`e`e`e`e`e`e`e`e`e`e`e`e`e`e.xaYaSaMaM#lam`K#y#Eab#EaOaU.#`iaQ.8`maHaHaH.K.K`7.K.K.K.K.K.g.K.K`e`e`e`e`e`e`e",
"`e`e`e`e`e`e`e#..2.2#T`R.S.s#aad`E`OaR.e`qaB`L.Bak`T#0.M`W.M.Ma5.M.M`W.M.I.q.I.h`e`e`e`e`e`e`e`e`e`e`e`e`e`e`e`e#..2.2#T`R.S.s#aad`E`OaR.e`qaB`L.Bak.A`5.K.K.K.g.g.K.K.K.K.K.K.K`7`e`e`e`e`e`e`e",
"`e`e`e`e`e`e`FaW.2#V#P#P.s#6#6#jaKaj`E.eaOaB.`a7aka3`Pac`Wa5.M.Ma5`W.I.q.q.q.I`A`e`e`e`e`e`e`e`e`e`e`e`e`e`e`e`FaW.2#V#P#P.s#6#6#jaKaj`E.eaOaB.`a7aka3a2#A`y.g.W`7`7`7.KaH.KaH`7.K`e`e`e`e`e`e`e",
"`e`e`e`e`eaxaE.X#V#V`a.v`D#tag#e#iaLajaR.e.aaB`z#8#8`Y.k.Ma5`W`W`A.q.I.q.I.I.I`A`e`e`e`e`e`e`e`e`e`e`e`e`e`eaxaE.X#V#V`a.v`D#tag#e#iaLajaR.e.aaB`z#8#8`Y#u.g.ga0.g.KaHaH.K.K.K`7.g`e`e`e`e`e`e`e",
"`e`e`e`e`e#u`N.XaF.b`a.v.v#eagal`S#J.maj`E.ea6aB`o#X`i.##x`Wa5.I.I.q.I.q.I.q`A`A`e`e`e`e`e`e`e`e`e`e`e`e`e`e#u`N.XaF.b`a.v.v#eagal`S#J.maj`E.ea6aB`o#X`i.##3`w.g.K.K.K.K`7.K`y.g.g`e`e`e`e`e`e`e",
"`e`e`e`eai.G.7aFaF`s.b.b#c#`.f#S.f`2#J.majaRaO.a`4`L`V`V#ha5`W.q.I.I.I.I.I.I`A`A`e`e`e`e`e`e`e`e`e`e`e`e`eai.G.7aFaF`s.b.b#c#`.f#S.f`2#J.majaRaO.a`4as`V`VaZ`w.W.K.K`y.K`7.K`7`7.g`e`e`e`e`e`e`e",
"`e`e`e`e#N`i.7aV#F#F`s`p#``Ia`.Jar.f`2#J.r`E.e.aaBaEaN`g`Vac`W.I.I.I.I.q.I.I.M`A`e`e`e`e`e`e`e`e`e`e`e`e`e#N`i.7aV#F#F`s`p#``Ia`.Jar.f`2#J.r`E.e.aaB`oaNaN`V#pa0.K`7.g`7.g`7.K.g.W`e`e`e`e`e`e`e",
"`e`e`e`e`1`i`g.T#1aVaCal.f.Ja`a`a``I#`al.majaRaO`q`oaGaG`g#Zac.I.I`A.q.I`A.I.M`A`e`e`e`e`e`e`e`e`e`e`e`e`e`1`i`g.T#1aVaCal.f.Ja`a`a``I#`al.majaRaO`qaE.u.uaN`Qa0`7`7`7.g`7.g.g#Aa0`e`e`e`e`e`e`e",
"`e`e`e.K`f.G`V#w.e`k#Gal#S.Ja`a`.J`I.fal.maL`EaO.a.Aa3`.`ta8`j.I`A.q`A.I.I`A`W.p`e`e`e`e`e`e`e`e`e`e`e`e.K`f.G`V#w.e`k#Gal#S.Ja`a`.J`I.fal.maL`EaO.a.Aa3`.`t#f#A.g.g.g.g.g.g.ga0#A`e`e`e`e`e`e`e",
"`e`e`e#A`f`i.T#w`b`k.mal.far.J.J.J`I.fal.m`O`E`H#H.u`.`.aG`Uac.q.I`A.I`A.I`A.M.p`e`e`e`e`e`e`e`e`e`e`e`e#A`f`i.T#w`b`k.mal.far.J.J.J`I.fal.m`O`E`H#Ha3.F`.aGaZ`w.ga0.ga0.W.ga0#A#A`e`e`e`e`e`e`e",
"`e`e`eax`f`f.l`N`b#Qad.L#`#S`I`I`I#S`2`S.maj.D.e`q.Aa3.uaN`Uac`A.I`A.I`A`A.Ia5.p`e`e`e`e`e`e`e`e`e`e`e`eax`f`f.l`N`b#Qad.L#`#S`I`I`I#S`2`S.maj#k.a.a#Xa3.uaG#C`wa0a0#Aa0a0#Aa0`w`w`e`e`e`e`e`e`e",
"`e`e`e.W`f`f`z`X.z.DaL#G.L#`.f#S#`#`al`S.r.i.DaO`q#X.AaN`V..ac.I.M`A.M.I.M`Aa5.p`e`e`e`e`e`e`e`e`e`e`e`e.W`f`f`z`X.z.DaL#G.L#`.f#S#`#`al`S.r.i.DaO`q#X`TaGa2#C#p#A#A#A#A#A#A#A`w`w`e`e`e`e`e`e`e",
"`e`e`eaHa4`f`zaB#1aR`EaL.m`Sal`2`2`S`S.r`O`E.e.a`q`i`P`P`i#q`3.M`A.I.M`A`A`Aa5`W`e`e`e`e`e`e`e`e`e`e`e`eaHa4`f`zaB#1aR`EaL.m`Sal`2`2`S`S.r`O`E.e.a`q`i.Y`Pa7#dae#A`w#A`w`m#A`w`w#p.x`e`e`e`e`e`e",
"`e`e`e`eaA`f.#.0#H#1az#b#b#i#J#J.m.m.r`O.i.D.aa6aBaB#HaI.P#s`3`A.M`A.M`A.M`A`ja5`e`e`e`e`e`e`e`e`e`e`e`e`eaA`f.#.0#H#1az#b#b#i#J#J.m.m.r`O.i.D.a.aaBaBa7aI.#.1ae`w`w`w`w`w`w`w#p#p.x`e`e`e`e`e`e",
"`e`e`e`eau`f`f`zaB#waS.XaVaV.Taf.r`O`O#k.D`H.a`qaB`q.0.#.P`l.O.M`A.M`A.M.M.Ma5.V`e`e`e`e`e`e`e`e`e`e`e`e`eau`f`f`zaB#waS.XaVaV.Taf.r`O`O#k.D`H.a`qaBaB`z.#.P#z.N#p`w`w`w`w`w`waeae.x`e`e`e`e`e`e",
"`e`e`e`e#A`f`f.#`zaPaVaNaN`t`t`t`X.i.D.D.a.a`q`qaBaB`z`f.k.O.O.M.M.M.M.M`A.M`j.V`e`e`e`e`e`e`e`e`e`e`e`e`e#A`f`f.#`zaPaVaNaN`t`t`t`X.i.D.D.a.a`q`qaBaB.#`f#W.N.N#p#p#p`w#p`w`waeae.x`e`e`e`e`e`e",
"`e`e`e`e`e`v`f`f.#aaaN`8.ua3`..F.u.laq`H.a`q`q`qaB.0.#`f`J.O.O.M.M.M.M.M.M.Mac.V`e`e`e`e`e`e`e`e`e`e`e`e`e`e`v`f`f.#aaaN`8.ua3`..F.u.laq`H.a`q`qa6aB`z.#`f#L.N#z#p#p#p`w#p#p#pae.N.x`e`e`e`e`e`e",
"`e`e`e`e`e.g.P`f.#`iaN.Aa3.F````.F`..uaN`V`qaBaB`z.#`f.Qay`lay.M.p.M.p.M`W.M`jao`e`e`e`e`e`e`e`e`e`e`e`e`e`e.g.P`f.#`iaN.Aa3.F````.F`..uaN`V`qaBaB`z.#`f#v#z#z.Nae#p#p#p#p`w#pae.N.x`e`e`e`e`e`e",
"`e`e`e`e`e`eaT`f`f`f.BaG.u.F````.F`..AaN.laB.0aI.#.#`1.R`l`l`6.M`W.M`W.M`W.Maoao`e`e`e`e`e`e`e`e`e`e`e`e`e`e`eaT`f`f`f.BaG.u.F````.F`..AaN.laB.0`z.#`f`1#B#z#z#zaeae#p#p#pae#pae.N.x`e`e`e`e`e`e",
"`e`e`e`e`e`e`e`F`f`f.##4aG`t`..F.F.uaG`gaB`z.#.#`f`1ay`l`l`l`l`W.M`W.M`W`W`W`jao`e`e`e`e`e`e`e`e`e`e`e`e`e`e`e`e`F`f`f.##4aG`t`..F.F.uaG`gaB`z.#.#`f`1#3#z#z#3#zae#pae#pae#paeae#z.x`e`e`e`e`e`e",
"`e`e`e`e`e`e`e`e#Y.P`f.#`o`8`t.u.uaG.Y#4.#.#`f`f`0ay.t.n#x.E`l`Wa5`Wa5.Ma5.Mao.j`e`e`e`e`e`e`e`e`e`e`e`e`e`e`e`e`e#Y.P`f.#`o`8`t.u.uaG.Y#4.#.#`f`f#n.N#z#B#z#3#zaeaeaeaeaeaeae.N.N.x`e`e`e`e`e`e",
"`e`e`e`e`e`e`e`e`e.W#W.##4`8`8aGaG`Y.#`f`f`f.C##`3`3`3.n#x.n.R`W`Wa5.pa5a5`Wao.j`e`e`e`e`e`e`e`e`e`e`e`e`e`e`e`e`e`e.W#W.##4`8`8aGaG`Y.#`f`f`f.yau`w`w#z#B#3#z#3aeaeaeaeaeaeae.N#z.x`e`e`e`e`e`e",
"`e`e`e`e`e`e`e`e`e`e`eai#..8.YaQ.#`f`fa4`0##`6`3`3`3`3.n.n.n.n.Raoa5a5`Wa5a5`j.j`e`e`e`e`e`e`e`e`e`e`e`e`e`e`e`e`e`e`e`eai#..8.YaQ.#`f`f.PaA#R.N`w#p`w#p#z#3#3#B#B.N.N.N.N.N.N.N.NaH`e`e`e`e`e`e",
"`e`e`e`e`e`e`e`e`e`e`e`e`e.x.UaJaJ`C.R`6`3`3`3`3`3`3`3.O.n.n.n.n`3a5a5a5a5a5`j.j`e`e`e`e`e`e`e`e`e`e`e`e`e`e`e`e`e`e`e`e`e`e.x#D#3#Y#L#D.N`w#p`w#p#p`w`wae#3#3#3#3.N.Nae.Nae.N.N#z.x`e`e`e`e`e`e",
"`e`e`e`e`e`e`e`e`e`e`e`e`e`e.Z`3`3`3`3`3`3`3`3`3`3`3`3`3`l`J`J`J`Ba5a5a5.Va5`j.j`e`e`e`e`e`e`e`e`e`e`e`e`e`e`e`e`e`e`e`e`e`e`e`w#p#p`w#p`w#p#p#p`w#p#paeae#3#3#3.d#z.N.N.N.N.N.N#z.x`e`e`e`e`e`e",
"`e`e`e`e`e`e`e`e`e`e`e`e`e`e`Z`3`3`3`3`3`3`3`3`3`3`3`3`3`l`J.n`J.O.Va5a5a5a5ao.j`e`e`e`e`e`e`e`e`e`e`e`e`e`e`e`e`e`e`e`e`e`e`e`w`w#p#p#p#p#p#p#paeaeaeae.N#L.d.d.d#z.N.N.N.N.N.N#z.x`e`e`e`e`e`e",
"`e`e`e`e`e`e`e`e`e`e`e`e`e`e.Z.t`B`3.O`3.O`3`3.O`3`3`3.O`l`J#m`J`Ba5.Va5`ja5`j.j`e`e`e`e`e`e`e`e`e`e`e`e`e`e`e`e`e`e`e`e`e`e`e`w#p#p#p`wae#paeaeaeae.N.N.N#L#L.d.d#z.N.N.N.N.N#z#z.x`e`e`e`e`e`e",
"`e`e`e`e`e`e`e`e`e`e`e`e`e`eaX.t.t.O`3`3`3.O.t`3.O.t.O`3.n`J#m`J.O`ja5`ja5`jac.j`e`e`e`e`e`e`e`e`e`e`e`e`e`e`e`e`e`e`e`e`e`e`e#p#p#paeaeaeaeaeae.Nae.N.N.N#L#L#L.d#B.N#z.N#z.N.N#z.x`e`e`e`e`e`e",
"`e`e`e`e`e`e`e`e`e`e`e`e`e.x.U.t.O`3.O.O.t.O.O.t.O`3.O.t#x#m#m#m.O.V`j`j`ja5ao.j`e`e`e`e`e`e`e`e`e`e`e`e`e`e`e`e`e`e`e`e`e`e.x#Baeaeaeaeaeae.Nae.N.N.N.N.Nananan#L#z#z.N#z.N#z#z#z.x`e`e`e`e`e`e",
"`e`e`e`e`e`e`e`e`e`e`e`e.x.K`h.O.t.O.t.O`3.t.O`3.O.t.O`3.n#m#m#m`6a5aca5`ja5ac.j`e`e`e`e`e`e`e`e`e`e`e`e`e`e`e`e`e`e`e`e`e.xaH#Lae#paeaeai.N.N.N.N.N.N.N#zanananan#3.N#z#z#z.N.N#3.x`e`e`e`e`e`e",
"`e`e`e`e`e`e`e`e`e`e`e`eaH.K#7.O.O.t.O.t.O.O.t.O.t.O.t.O.n#m#m#m`6aca5aoacao.ja0`e`e`e`e`e`e`e`e`e`e`e`e`e`e`e`e`e`e`e`e`e.K.Kanaeaeae.N.Nae.N.N.N.N.N#z#zan.canan#3#z#B#z.N.N.N.K`e`e`e`e`e`e`e",
"`e`e`e`e`e`e`e`e`e`e`eaH.K.g#U.t.O.O.O.O.O.O.O.O.O.O.O.O.n`###awaDaoaca5ao.j.g`e`e`e`e`e`e`e`e`e`e`e`e`e`e`e`e`e`e`e`e`eaH.K.ganae.N.Nae.N.N.N.N.N#z.N#z#zan#g#r#r#Bae#p`waeae.K`e`e`e`e`e`e`e`e",
"`e`e`e`e`e`e`e`e`e`e`e.x.g#A#U.O.O.O.t.O.O.t.O.t.O.n`##oa0`wahaeaD`jao`j.j.K`e`e`e`e`e`e`e`e`e`e`e`e`e`e`e`e`e`e`e`e`e`e.x.g#Aan.N.N.N.N.N.N#z.N.N#z.d#r#L`wae.Nae.Naeaeae`w.K`e`e`e`e`e`e`e`e`e",
"`e`e`e`e`e`e`e`e`e`e`e`e.x#A#7aw.R.O`l.t.OaD`u#p`Z.c.Q#z`e.x`w.NaDac`j`B.K`e`e`e`e`e`e`e`e`e`e`e`e`e`e`e`e`e`e`e`e`e`e`e`e.x#Aan.d#B.N.N.N.N#B#z`w.N#g.Q.N`eaH#pae#zae#p`waH`e`e`e`e`e`e`e`e`e`e",
"`e`e`e`e`e`e`e`e`e`e`e`e`e.x.g.W.day.Z#p.K`e`e`e.g.gan`w`e`e.x#paD`j`ua1`e`e`e`e`e`e`e`e`e`e`e`e`e`e`e`e`e`e`e`e`e`e`e`e`e`e.x.g.W#3#z.N`w`7`e`e`e.g.gan`w`e`e.Kae#z#p`waH`e`e`e`e`e`e`e`e`e`e`e",
"`e`e`e`e`e`e`e`e`e`e`e`e`e`e`e`e`e`e`e`e`e`e`e`e.g.Kan`m`e`e`e.xaD`uaH`e`e`e`e`e`e`e`e`e`e`e`e`e`e`e`e`e`e`e`e`e`e`e`e`e`e`e`e`e`e`e`e`e`e`e`e`e`e.g.Kan#A`e`e`e.K#z`waH`e`e`e`e`e`e`e`e`e`e`e`e",
"`e`e`e`e`e`e`e`e`e`e`e`e`e`e`e`e`e`e`e`e`e`e`e`e`7.Kan#A`e`e`e`e#A.x`e`e`e`e`e`e`e`e`e`e`e`e`e`e`e`e`e`e`e`e`e`e`e`e`e`e`e`e`e`e`e`e`e`e`e`e`e`e`e`7.Kan`w`e`e`e`e.g.x`e`e`e`e`e`e`e`e`e`e`e`e`e",
"`e`e`e`e`e`e`e`e`e`e`e`e`e`e`e`e`e`e`e`e`e`e`e`e.g.Kan`w`e`e`e`e`e`e`e`e`e`e`e`e`e`e`e`e`e`e`e`e`e`e`e`e`e`e`e`e`e`e`e`e`e`e`e`e`e`e`e`e`e`e`e`e`e.g.Kan#A`e`e`e`e`e`e`e`e`e`e`e`e`e`e`e`e`e`e`e",
"`e`e`e`e`e`e`e`e`e`e`e`e`e`e`e`e`e`e`e`e`e`e`e`e`7.Kan#A`e`e`e`e`e`e`e`e`e`e`e`e`e`e`e`e`e`e`e`e`e`e`e`e`e`e`e`e`e`e`e`e`e`e`e`e`e`e`e`e`e`e`e`e`e`7.Kan`w`e`e`e`e`e`e`e`e`e`e`e`e`e`e`e`e`e`e`e",
"`e`e`e`e`e`e`e`e`e`e`e`e`e`e`e`e`e`e`e`e`e`e`e`e.g.Kan#A`e`e`e`e`e`e`e`e`e`e`e`e`e`e`e`e`e`e`e`e`e`e`e`e`e`e`e`e`e`e`e`e`e`e`e`e`e`e`e`e`e`e`e`e`e.g.Kan#A`e`e`e`e`e`e`e`e`e`e`e`e`e`e`e`e`e`e`e",
"`e`e`e`e`e`e`e`e`e#p#A`w#A`w#A`w#A`w#A`w#A`w#A`w#p.Kan`w`w#A`w#A`w#A`w#A`w#A`w#A`w#A`w.K`e`e`e`e`e`e`e`e`e`e`e`e`e`e#p#A`w#A`w#A`w#A`w#A`w#A`w#A`w#p.Kan`w`w#A`w#A`w#A`w#A`w#A`w#A`w#A`w.K`e`e`e",
"`e`e`e`e`e`e`e`e`e#L#Lan#Lan#Lan#Lan#Lan#Lan#L#Lan#B#ganan#Lan#Lan#Lan#Lan#Lan#Lanan#L.K`e`e`e`e`e`e`e`e`e`e`e`e`e`e#L#Lan#Lan#Lan#Lan#Lan#Lan#L#Lan#B.canan#Lan#Lan#Lan#Lan#Lan#Lanan#L.K`e`e`e",
"`e`e`e`e`e`e`e`e`e#3#3#B#B#B#B#3#B#B#3#B#B#B#3#B#B#B#B#3#B#B#B#B#3#B#B#3#B#B#B#B#B#B#3.g`e`e`e`e`e`e`e`e`e`e`e`e`e`e#3#3#B#B#B#B#3#B#B#3#B#B#B#3#B#B#B#3#B#B#B#B#B#3#B#B#3#B#B#B#B#B#B#3.g`e`e`e",
"`e`e`e`e`e`e`e`e`e.K.K.K.K.K.K.K.K.K.K.K.K.K.K.K.K.K.K.K.K.K.K.K.K.K.K.K.K.K.K.K.K.K.K`e`e`e`e`e`e`e`e`e`e`e`e`e`e`e.K.K.K.K.K.K.K.K.K.K.K.K.K.K.K.K.K.K.K.K.K.K.K.K.K.K.K.K.K.K.K.K.K.K`e`e`e`e"
};
