/* XPM */
static const char *folder1_48_xpm[] = {
/* width height num_colors chars_per_pixel */
"    48    48      256            2",
/* colors */
"`` c #c4aa54",
"`. c #f4d674",
"`# c #e4d6bc",
"`a c #dcc264",
"`b c #fcea94",
"`c c #ecc66c",
"`d c #e4d69c",
"`e c #fceebc",
"`f c #d4c294",
"`g c #f4eee4",
"`h c #ccb67c",
"`i c #d4b65c",
"`j c #ece2a4",
"`k c #fce284",
"`l c #fcfabc",
"`m c #dcc67c",
"`n c #fcd66c",
"`o c #dccea4",
"`p c #ecce7c",
"`q c #f4de94",
"`r c #f4eed4",
"`s c #d4b25c",
"`t c #ece2cc",
"`u c #ccb25c",
"`v c #fcf2ac",
"`w c #e4d6ac",
"`x c #ecce6c",
"`y c #fcfaec",
"`z c #c4aa64",
"`A c #f4de8c",
"`B c #e4ca6c",
"`C c #fcf6bc",
"`D c #dcba64",
"`E c #dcca8c",
"`F c #ecd68c",
"`G c #f4eeb4",
"`H c #ecde9c",
"`I c #dcca94",
"`J c #fce294",
"`K c #fcde84",
"`L c #e4c264",
"`M c #ccb66c",
"`N c #dcceac",
"`O c #fceabc",
"`P c #fcd264",
"`Q c #ecdebc",
"`R c #ecda94",
"`S c #fceecc",
"`T c #f4f6ec",
"`U c #d4be7c",
"`V c #fcfad4",
"`W c #fcde7c",
"`X c #f4eacc",
"`Y c #e4ca84",
"`Z c #ccae5c",
"`0 c #fcf2bc",
"`1 c #fcda7c",
"`2 c #e4ce9c",
"`3 c #fcf6dc",
"`4 c #f4e6cc",
"`5 c #f4d274",
"`6 c None",
"`7 c #ccae64",
"`8 c #f4d684",
".` c #fceaac",
".. c #dccaa4",
".# c #fce6a4",
".a c #e4c664",
".b c #c4ae5c",
".c c #f4da74",
".d c #ecdabc",
".e c #fceea4",
".f c #ecca6c",
".g c #e4da9c",
".h c #d4c6a4",
".i c #d4ba64",
".j c #f4e6b4",
".k c #fce68c",
".l c #dcc28c",
".m c #fcda74",
".n c #ecd28c",
".o c #fcf2dc",
".p c #ece6cc",
".q c #fcf6b4",
".r c #ecdeb4",
".s c #ecd274",
".t c #fcfef4",
".u c #c4ae64",
".v c #fcf6cc",
".w c #fce694",
".x c #d4ba6c",
".y c #fcf6e4",
".z c #d4be94",
".A c #fcfedc",
".B c #e4ce84",
".C c #e4d294",
".D c #f4da84",
".E c #fceeb4",
".F c #c4aa5c",
".G c #e4dabc",
".H c #dcc26c",
".I c #fcea9c",
".J c #e4d6a4",
".K c #fceec4",
".L c #d4c29c",
".M c #f4f2e4",
".N c #ccb68c",
".O c #d4b664",
".P c #f4e294",
".Q c #fce28c",
".R c #fcfac4",
".S c #dcc684",
".T c #fcd674",
".U c #ecd284",
".V c #f4de9c",
".W c #f4eedc",
".X c #ccb264",
".Y c #fcf2b4",
".Z c #e4d6b4",
".0 c #ecce74",
".1 c #fcfaf4",
".2 c #e4ca74",
".3 c #fcf6c4",
".4 c #dcbe64",
".5 c #dcce8c",
".6 c #ecdea4",
".7 c #dcca9c",
".8 c #fce29c",
"#` c #fcde8c",
"#. c #ccba74",
"## c #e4c26c",
"#a c #dcceb4",
"#b c #fcd26c",
"#c c #ecdec4",
"#d c #ecda9c",
"#e c #d4be84",
"#f c #fcfadc",
"#g c #fcf2c4",
"#h c #fceab4",
"#i c #dccaac",
"#j c #e4c66c",
"#k c #f4da7c",
"#l c #ecca74",
"#m c #ece6d4",
"#n c #c4ae6c",
"#o c #fcf6ec",
"#p c #e4ce8c",
"#q c #e4d29c",
"#r c #f4da8c",
"#s c #000000",
"#t c #000000",
"#u c #000000",
"#v c #000000",
"#w c #000000",
"#x c #000000",
"#y c #000000",
"#z c #000000",
"#A c #000000",
"#B c #000000",
"#C c #000000",
"#D c #000000",
"#E c #000000",
"#F c #000000",
"#G c #000000",
"#H c #000000",
"#I c #000000",
"#J c #000000",
"#K c #000000",
"#L c #000000",
"#M c #000000",
"#N c #000000",
"#O c #000000",
"#P c #000000",
"#Q c #000000",
"#R c #000000",
"#S c #000000",
"#T c #000000",
"#U c #000000",
"#V c #000000",
"#W c #000000",
"#X c #000000",
"#Y c #000000",
"#Z c #000000",
"#0 c #000000",
"#1 c #000000",
"#2 c #000000",
"#3 c #000000",
"#4 c #000000",
"#5 c #000000",
"#6 c #000000",
"#7 c #000000",
"#8 c #000000",
"a` c #000000",
"a. c #000000",
"a# c #000000",
"aa c #000000",
"ab c #000000",
"ac c #000000",
"ad c #000000",
"ae c #000000",
"af c #000000",
"ag c #000000",
"ah c #000000",
"ai c #000000",
"aj c #000000",
"ak c #000000",
"al c #000000",
"am c #000000",
"an c #000000",
"ao c #000000",
"ap c #000000",
"aq c #000000",
"ar c #000000",
"as c #000000",
"at c #000000",
"au c #000000",
"av c #000000",
"aw c #000000",
"ax c #000000",
"ay c #000000",
"az c #000000",
"aA c #000000",
"aB c #000000",
"aC c #000000",
"aD c #000000",
"aE c #000000",
"aF c #000000",
"aG c #000000",
"aH c #000000",
"aI c #000000",
"aJ c #000000",
"aK c #000000",
"aL c #000000",
"aM c #000000",
"aN c #000000",
"aO c #000000",
"aP c #000000",
"aQ c #000000",
"aR c #000000",
"aS c #000000",
"aT c #000000",
"aU c #000000",
"aV c #000000",
"aW c #000000",
"aX c #000000",
"aY c #000000",
"aZ c #000000",
"a0 c #000000",
"a1 c #000000",
"a2 c #000000",
"a3 c #000000",
"a4 c #000000",
"a5 c #000000",
"a6 c #000000",
"a7 c #000000",
"a8 c #000000",
/* pixels */
"`6`6`6`6`6`6`6`6`6`6`6`6`6`6`6`6`6`6`6`6`6`6`6`6`6`6`6`6`6`6`6`6`6#o.W`t`#`o.N..`y`6`6`6`6`6`6`6",
"`6`6`6`6`6`6`6`6`6`6`6`6`6`6`6`6`6`6`6`6`6`6`6`6`6.1.o#m.G#i`f`h`7`z.F.F```z.5.3.A`6`6`6`6`6`6`6",
"`6`6`6`6`6`6`6`6`6`6`6`6`6`6`6`6`6`6#o.W#c.Z`2.l`U.O.O`s.O`u`Z`u`Z.b.F.b`E`G.R.R#f`6`6`6`6`6`6`6",
"`6`6`6`6`6`6`6`6`6`6`6#o`4`Q`w`2`Y#l`5`.`5`x`B#j`L.4.x.O`u`u`u`Z.b`M.C`0.R.R`l.R#f`6`6`6`6`6`6`6",
"`6`6`6`6`6`6`6`6`6`6`4.S.D`K`W`1.m#k.c`.`5`x`B#j.H.4.i.O`s`u`Z#.`F`0`l.R`l`l.3`l.A`6`6`6`6`6`6`6",
"`6`6`6`6`6`6`6`6`6`6.h#``K`K#k`W#k`1.m`5.s.f`B.a##.4`D.O`u.X`d`C.3`l.3`l`C`C`l`C#f`6`6`6`6`6`6`6",
"`6`6`6`6`6`6`6`6`6`6.L`k`K`K`K`W`1#k.m`.`5`x.f#j.4.4.i.O`Z`o`l`l`C`l`C`l`C`l`C`l#f`6`6`6`6`6`6`6",
"`6`6`6`6`6`6`6`6`6`6.h`K`k`A`W#k`1.m#k`..s.f`B#j##.4.i.O`Z`j`C`l`C`C`l`C`C`l`C`C.A`6`6`6`6`6`6`6",
"`6`6`6`6`6`6`6`6`6`6`f.Q`K`K`W`K#k`1.c`.`5`x`c#j`a.4`D.O.u`j`C`C`l.q`C`l`C`C`l`C`V`6`6`6`6`6`6`6",
"`6`6`6`6`6`6`6`6`6`6.l.Q`A`K#k`W`1.m`1`.`5`x`B#j##.4.i`i`z.6.q.q.q`C.q.q.q.q.q.q`V`6`6`6`6`6`6`6",
"`6`6`6`6`6`6`6`6`6`6.L.Q`K`K`K`1#k`1.c`.`5.f.f#j`a.4`D.O.F`j.Y.q.Y.Y.Y.Y.Y.Y.Y.q`V`6`6`6`6`6`6`6",
"`6`6`6`6`6`6`6`6`6`6.L`k`K`K#k`W#k`1.c`5`5`x`B#j`L.4.i.O`7`H.Y.Y.q`v.q.Y.q.Y.Y.Y`V`6`6`6`6`6`6`6",
"`6`6`6`6`6`6`6`6`6`6.l.Q`A`K`K`W`1`1.m`.`5`x.f#j##.4`D.i.F.6.q`v`v.Y`v`v`v`v.q`v`3`6`6`6`6`6`6`6",
"`6`6`6`6`6`6`6`6`6`6.h`k`K`K`K#k`W#k`1`.`.`x`B#j##.4.i.O`7`H`v`v`v`v`v`v`v`v`v`v.v`6`6`6`6`6`6`6",
"`6`6`6`6`6`6`6`6`6`6.L.Q`K`A`W`K#k`1.c`.`5.0.f`B##`a`D.i.b#d`v.e`v.e`v.e`v.e`v.e`V`6`6`6`6`6`6`6",
"`6`6`6`6`6`6`6`6`6`6.l.Q`K`K`K`1`W`1.m`.`5`x.f#j`a.4.4.O`7`R.e.e.e.e.e.e.e.e.e.e.v`6`6`6`6`6`6`6",
"`6`6`6`6`6`6`6`6`6`6.h`k`A`W`A`1#k`W#k`.`.`x`B`B##.4.4.O.F`H.e.e.e.e.e.e.e.e.e.e`3`6`6`6`6`6`6`6",
"`6`6`6`6`6`6`6`6`6`6.l.Q`K`K`W`W`1.c`1`.`5.0.f#j#j.4`D.i`7`R.e.e.e.e.e.e.e.e.e.e.3`6`6`6`6`6`6`6",
"`6`6`6`6`6`6`6`6`6`6.h#``A`K`K#k`W`1.m`.`.`x.f#j##`a.4.i.F`R.e.e.e.I.e.e.`.e.e.I.v`6`6`6`6`6`6`6",
"`6`6`6`6`6`6`6`6`6`6.L`k`K`K`K`1#k`W#k`.`5.0.f`B`L.4.i.i`7`F.I.I.I.I.I.I`b.I.I.I.v`6`6`6`6`6`6`6",
"`6`6`6`6`6`6`6`6`6`6.7`K.Q`A`W`K`1#k.m`.`.`x.f#j##.H`D.O`Z`F.I`b.I.I.I.I.I.I.I.I#g`6`6`6`6`6`6`6",
"`6`6`6`6`6`6`6`6`6`6.L.Q`K`W`A`1#k`W.m`.`5.0`B`B`L`a.4.i`z`F.I.I`b.I`b.I`b.I`b.I#g`6`6`6`6`6`6`6",
"`6`6`6`6`6`6`6`6`6`6.L`k`A`K`W`W`1#k`1`.`.`x.f#j##.4`D.i`Z`F.w`b.w.#`b.w.w`b.w.w#g`6`6`6`6`6`6`6",
"`6`6`6`6`6`6`6`6`6`6.7`K`k`K`1`A`W.m#k.T`..0.f`B#j`a`D.O`z`F.w.w.w.w.w.w.w.w.w.w#g`6`6`6`6`6`6`6",
"`6`6`6`6`6`6`6`6`6`6.L.Q`K`A`K`1#k`W`1`.`.`x`x#j##`a.4.i`Z.n.w.w.k.w.k.w.w.w.w.w.K`6`6`6`6`6`6`6",
"`6`6`6`6`6`6`6`6`6`6.L.Q`K`K`K#k`W#k`W`.`..0.f`B#j##`D.i`7.U.k.Q.w.Q.w.Q`J.k.Q.w`0`6`6`6`6`6`6`6",
"`6`6`6`6`6`6`6`6`6`6.7`K.P`W`K`K`W`1.m`.`.`5.f`B##`a.4.i.b.U.Q.k.P.k.Q.k.k.Q.k.Q.K`6`6`6`6`6`6`6",
"`6`6`6`6`6`6`6`6`6`6.z.Q`K`K`A`1#k`W#k.T`.`x`x#j#j`a`D.i`7.B.Q.Q.Q.Q.P.Q.P.Q.P.k`e`6`6`6`6`6`6`6",
"`6`6`6`6`6`6`6`6#o...B`k`k`K`W`K`W#k.m.c`..0`x#j#j##.4.i`Z`Y`k.P`k`k`k`k`k`k`k.Q`e`6`6`6`6`6`6`6",
"`6`6`6`6`6`6`6#o#e.Q.Q.Q`A`K`A`W`1`1`1`.`.`5.f`B##.4.4.i.O`Z.B`k`k.P`k`k.P`k`k`k`e`6`6`6`6`6`6`6",
"`6`6`6`6`6`6`6`##r.Q.P`k#``k`W.D`W#k`1.c`..0.f.f#j`a.4.i.O`u.F`p`K`k`K`k`K`k`A`k`e`6`6`6`6`6`6`6",
"`6`6`6`6`6`6`6#i.P.Q.Q.Q`K`K`K`W#k`W.m.T`.`5.f`B#j##.4.i`i`u.F.B`W`A`W`K`A`W`K`K#h`6`6`6`6`6`6`6",
"`6`6`6`6`6`6`6#i.Q.Q.Q.Q`A`k`A`W`1#k`W`.`..0`x#j#j.4.4.i.O`s.F#l`W`W`W`W`W`W`W`K.E`6`6`6`6`6`6`6",
"`6`6`6`6`6`6`6#i.P.Q.P`k`k`K`1`A`W`1`1.c`..0`x.f#j`a.4.i.O`u.F`Y`W`1`A`W#k`K#k`W#h`6`6`6`6`6`6`6",
"`6`6`6`6`6`6`6#i.P.Q.Q.Q`K`K`K`W`1#k`1`.`.`5.f`B####.4.O`i`s.F#l`W#k`W`1`W`1`W`W#h`6`6`6`6`6`6`6",
"`6`6`6`6`6`6`6#i.P.Q.Q.P`K`A`K`A`W`1.c`1`.`5`x`B#j`a.4`D.i.X.F.2`1.m#k.m#k`1#k`1.E`6`6`6`6`6`6`6",
"`6`6`6`6`6`6`6#a`A`J.Q`k.Q`K`K`W`1#k`W.c`..0`x.f#j##.4.i.O`i.F#l.c`1.m`1.c.m.m.c#h`6`6`6`6`6`6`6",
"`6`6`6`6`6`6`6#a#`.Q.Q.Q`A`k`K#k`W`1`1.m`.`5`x`B#j`L.4.i.O`u.F`c`1.c.m.m`1.c`1.m#h`6`6`6`6`6`6`6",
"`6`6`6`6`6`6`6#a`q.k.Q.Q`K`K`K`K#k`W#k.m`..s.f.f#j.H.4`D.i`i`z#j.m.T`..m`..T.m`..``6`6`6`6`6`6`6",
"`6`6`6`6`6`6`6#a`A`J.P.Q`A`k`A`W`W#k`1.c`.`5`x`B#j`L.4.i.O`u.F`c`..T.T`.`n.T`.`n`O`6`6`6`6`6`6`6",
"`6`6`6`6`6`6`6.Z`q.Q.Q`k`K`K`K`K#k`1`1.m`.`5`x.f#j##`a`D.O`i`z`c`n`.`n`n`.`n`n.#`6`6`6`6`6`6`6`6",
"`6`6`6`6`6`6`6.d`A`J.Q.Q.Q`K`A`W`1`W#k`1`..s`x.f#j##.4.i.i.S.7#j`n`n`n`n`n`n.#`6`6`6`6`6`6`6`6`6",
"`6`6`6`6`6`6`6`t#r.Q.P.Q`A`k`K`W.D`1`1.c`.`5.f`B.2.C.r`S`6`6.o###b`5`P`5`..#`6`6`6`6`6`6`6`6`6`6",
"`6`6`6`6`6`6`6.W.n.Q.Q`k#``K`A`W`W#k`1.m`8`q.j.o.1`6`6`6`6`6.W.a`P`.`P`n#h`6`6`6`6`6`6`6`6`6`6`6",
"`6`6`6`6`6`6`6`6`X.V.P.Q`k`K`K`K.D.w`O`3.1`6`6`6`6`6`6`6`6`6.o##`P`P`.#h`6`6`6`6`6`6`6`6`6`6`6`6",
"`6`6`6`6`6`6`6`6`6`6`4`F`A.#`e`3`6`6`6`6`6`6`6`6`6`6`6`6`6`6.o`L`P`5`e`6`6`6`6`6`6`6`6`6`6`6`6`6",
"`6`6`6`6`6`6`6`6`6`6.1`3.t`6`6`6`6`6`6`6`6`6`6`6`6`6`6`6`6`6.W`L`P.K`6`6`6`6`6`6`6`6`6`6`6`6`6`6",
"`6`6`6`6`6`6`6`6`6`6`6`6`6`6`6`6`6`6`6`6`6`6`6`6`6`6`6`6`6`6`y`Y.o`6`6`6`6`6`6`6`6`6`6`6`6`6`6`6"
};
