/* XPM */
static const char *folder_conn_disbl16_xpm[] = {
/* width height num_colors chars_per_pixel */
"    16    15      256            2",
/* colors */
"`` c #adadad",
"`. c #b0b0b0",
"`# c #aeaeae",
"`a c #ababab",
"`b c #a9a9a9",
"`c c None",
"`d c #b1b1b1",
"`e c #9f9f9f",
"`f c #999999",
"`g c #949494",
"`h c #919191",
"`i c #8f8f8f",
"`j c #939393",
"`k c #acacac",
"`l c #8e8e8e",
"`m c #898989",
"`n c #858585",
"`o c #838383",
"`p c #888888",
"`q c #969696",
"`r c #989898",
"`s c #9a9a9a",
"`t c #a8a8a8",
"`u c #8d8d8d",
"`v c #818181",
"`w c #7e7e7e",
"`x c #7d7d7d",
"`y c #7c7c7c",
"`z c #828282",
"`A c #868686",
"`B c #c2c2c2",
"`C c #a4a4a4",
"`D c #b5b5b4",
"`E c #c3c2c0",
"`F c #c4c4c2",
"`G c #c5c4c3",
"`H c #bfbfbe",
"`I c #a0a0a0",
"`J c #c1c0be",
"`K c #c2c1bf",
"`L c #a8aab4",
"`M c #99a0b4",
"`N c #939cb4",
"`O c #9a9eae",
"`P c #bebdbc",
"`Q c #c0bfbd",
"`R c #c6c5c5",
"`S c #9e9e9e",
"`T c #808080",
"`U c #c6c5c4",
"`V c #bdbcbc",
"`W c #8997b3",
"`X c #95aed0",
"`Y c #6d8fbc",
"`Z c #7c9fc9",
"`0 c #88abd3",
"`1 c #6680aa",
"`2 c #969bab",
"`3 c #c8c8c7",
"`4 c #cac9c7",
"`5 c #8494b2",
"`6 c #7e9ec6",
"`7 c #95b3d5",
"`8 c #cce3fb",
".` c #b4d1ee",
".. c #6d92bf",
".# c #416aa1",
".a c #476a9d",
".b c #b3b5bc",
".c c #979797",
".d c #888887",
".e c #cbcac8",
".f c #a8a9b3",
".g c #6485b3",
".h c #7394bf",
".i c #c7def7",
".j c #d3e9ff",
".k c #b6d1ee",
".l c #668bba",
".m c #527baf",
".n c #325d98",
".o c #63799f",
".p c #8c8b8b",
".q c #c8c7c5",
".r c #bfbebd",
".s c #bebdbb",
".t c #8c98af",
".u c #7b9dc7",
".v c #b8d3ef",
".w c #d2e8fe",
".x c #cae2fa",
".y c #8babd2",
".z c #41699f",
".A c #3b659d",
".B c #325f99",
".C c #4d6998",
".D c #929292",
".E c #919190",
".F c #bcbbb9",
".G c #909bb2",
".H c #7297c3",
".I c #83a5cd",
".J c #a8c6e6",
".K c #abc9e9",
".L c #6e93c0",
".M c #3c659d",
".N c #335e98",
".O c #2d5b96",
".P c #536a95",
".Q c #8e8e8d",
".R c #a7a6a4",
".S c #a6a5a2",
".T c #a5a4a2",
".U c #a5a4a1",
".V c #858c9d",
".W c #7aa2cd",
".X c #40699f",
".Y c #4b73a7",
".Z c #7ca1cc",
".0 c #7ca4cf",
".1 c #6591c2",
".2 c #2e5a95",
".3 c #2e5a94",
".4 c #6a7797",
".5 c #898988",
".6 c #8f8e8b",
".7 c #8a8a8a",
".8 c #6680a7",
"#` c #4671a8",
"#. c #356099",
"## c #5984b7",
"#a c #5e8cbf",
"#b c #4e7fb6",
"#c c #2a5691",
"#d c #395b8c",
"#e c #9da1b3",
"#f c #c3c3c3",
"#g c #919090",
"#h c #909090",
"#i c #8f8f8e",
"#j c #8d8c8c",
"#k c #777c8b",
"#l c #4c6fa1",
"#m c #34629c",
"#n c #4779b2",
"#o c #4073ac",
"#p c #3e699e",
"#q c #36598c",
"#r c #717996",
"#s c #8694b3",
"#t c #6b7ea3",
"#u c #5d7198",
"#v c #7984a3",
"#w c #b3b6c7",
"#x c #000000",
"#y c #000000",
"#z c #000000",
"#A c #000000",
"#B c #000000",
"#C c #000000",
"#D c #000000",
"#E c #000000",
"#F c #000000",
"#G c #000000",
"#H c #000000",
"#I c #000000",
"#J c #000000",
"#K c #000000",
"#L c #000000",
"#M c #000000",
"#N c #000000",
"#O c #000000",
"#P c #000000",
"#Q c #000000",
"#R c #000000",
"#S c #000000",
"#T c #000000",
"#U c #000000",
"#V c #000000",
"#W c #000000",
"#X c #000000",
"#Y c #000000",
"#Z c #000000",
"#0 c #000000",
"#1 c #000000",
"#2 c #000000",
"#3 c #000000",
"#4 c #000000",
"#5 c #000000",
"#6 c #000000",
"#7 c #000000",
"#8 c #000000",
"a` c #000000",
"a. c #000000",
"a# c #000000",
"aa c #000000",
"ab c #000000",
"ac c #000000",
"ad c #000000",
"ae c #000000",
"af c #000000",
"ag c #000000",
"ah c #000000",
"ai c #000000",
"aj c #000000",
"ak c #000000",
"al c #000000",
"am c #000000",
"an c #000000",
"ao c #000000",
"ap c #000000",
"aq c #000000",
"ar c #000000",
"as c #000000",
"at c #000000",
"au c #000000",
"av c #000000",
"aw c #000000",
"ax c #000000",
"ay c #000000",
"az c #000000",
"aA c #000000",
"aB c #000000",
"aC c #000000",
"aD c #000000",
"aE c #000000",
"aF c #000000",
"aG c #000000",
"aH c #000000",
"aI c #000000",
"aJ c #000000",
"aK c #000000",
"aL c #000000",
"aM c #000000",
"aN c #000000",
"aO c #000000",
"aP c #000000",
"aQ c #000000",
"aR c #000000",
"aS c #000000",
"aT c #000000",
"aU c #000000",
"aV c #000000",
"aW c #000000",
"aX c #000000",
"aY c #000000",
"aZ c #000000",
"a0 c #000000",
"a1 c #000000",
"a2 c #000000",
"a3 c #000000",
"a4 c #000000",
"a5 c #000000",
"a6 c #000000",
"a7 c #000000",
"a8 c #000000",
/* pixels */
"```.`#```a`b`b`c`c`c`c`c`c`c`c`c",
"`d`e`f`g`h`i`j`c`c`c`c`c`c`c`c`c",
"`k`g`l`m`n`o`o`p`g`q`r`s`r`c`c`c",
"`t`u`p`n`v`w`x`y`x`w`z`A`m`B`c`c",
"`C`m`D`E`E`E`E`E`E`E`E`E`E`F`G`H",
"`I`z`J`K`K`K`K`K`K`L`M`N`O`P`Q`R",
"`S`T`U`K`K`K`K`V`W`X`Y`Z`0`1`2`3",
"`f`n`4`K`K`K`K`5`6`7`8.`...#.a.b",
".c.d.e`K`K`K.f.g.h.i.j.k.l.m.n.o",
"`j.p.q`J.r.s.t.u.v.w.x.y.z.A.B.C",
".D.E`Q.F.F.F.G.H.I.J.K.L.M.N.O.P",
"`h.Q.R.S.T.U.V.W.X.Y.Z.0.1.2.3.4",
".D.5.6.6.6.6.7.8#`#.###a#b#c#d#e",
"#f`h#g#h#i.Q#j#k#l#m#n#o#p#q#r`c",
"`c`c`c`c`c`c`c`c`c#s#t#u#v#w`c`c"
};
