/* XPM */
static const char *folder_arch1_48_xpm[] = {
/* width height num_colors chars_per_pixel */
"    48    48      256            2",
/* colors */
"`` c None",
"`. c #c5d3f1",
"`# c #b9c8e7",
"`a c #a4b3d0",
"`b c #b7c6e5",
"`c c #e9f8ff",
"`d c #abbad7",
"`e c #a2afcf",
"`f c #9baac7",
"`g c #9aa7c6",
"`h c #95a4c3",
"`i c #93a3c1",
"`j c #b5c5e3",
"`k c #e0edff",
"`l c #e8f7ff",
"`m c #c3d0f0",
"`n c #bcc9e9",
"`o c #aebedc",
"`p c #a9b6d6",
"`q c #a1aece",
"`r c #9eadcd",
"`s c #9cacca",
"`t c #9ba8c7",
"`u c #97a6c6",
"`v c #96a5c4",
"`w c #b6c6e4",
"`x c #d8e5ff",
"`y c #e2f2ff",
"`z c #e7f6ff",
"`A c #c4d1f1",
"`B c #b6c3e2",
"`C c #bfcdeb",
"`D c #c0cfee",
"`E c #bdcce9",
"`F c #b1c0df",
"`G c #acbbd8",
"`H c #a9b8d7",
"`I c #a4b4d2",
"`J c #9daccb",
"`K c #bdcae9",
"`L c #ddebff",
"`M c #e3f2ff",
"`N c #c7d5f3",
"`O c #c7d7f5",
"`P c #c6d6f4",
"`Q c #c6d4f2",
"`R c #a3b2cf",
"`S c #b2c1de",
"`T c #cbd8f8",
"`U c #cad7f7",
"`V c #aab9d6",
"`W c #a2b1ce",
"`X c #dfecff",
"`Y c #e1f1ff",
"`Z c #b0bfde",
"`0 c #cbdaf9",
"`1 c #b8c7e6",
"`2 c #e1efff",
"`3 c #e6f3ff",
"`4 c #e4f3ff",
"`5 c #dceaff",
"`6 c #cddbf9",
"`7 c #beceec",
"`8 c #acbcdb",
".` c #a5b4d4",
".. c #dbe9ff",
".# c #d9e8ff",
".a c #a8b5d5",
".b c #d8e8ff",
".c c #d9e6ff",
".d c #d6e4ff",
".e c #d4e3ff",
".f c #d3e2ff",
".g c #d2e1ff",
".h c #bfceed",
".i c #d2dfff",
".j c #afbedd",
".k c #d0dffe",
".l c #b3c2df",
".m c #cedefd",
".n c #cfddfb",
".o c #cedcfa",
".p c #9babc9",
".q c #94a4c2",
".r c #000000",
".s c #000000",
".t c #000000",
".u c #000000",
".v c #000000",
".w c #000000",
".x c #000000",
".y c #000000",
".z c #000000",
".A c #000000",
".B c #000000",
".C c #000000",
".D c #000000",
".E c #000000",
".F c #000000",
".G c #000000",
".H c #000000",
".I c #000000",
".J c #000000",
".K c #000000",
".L c #000000",
".M c #000000",
".N c #000000",
".O c #000000",
".P c #000000",
".Q c #000000",
".R c #000000",
".S c #000000",
".T c #000000",
".U c #000000",
".V c #000000",
".W c #000000",
".X c #000000",
".Y c #000000",
".Z c #000000",
".0 c #000000",
".1 c #000000",
".2 c #000000",
".3 c #000000",
".4 c #000000",
".5 c #000000",
".6 c #000000",
".7 c #000000",
".8 c #000000",
"#` c #000000",
"#. c #000000",
"## c #000000",
"#a c #000000",
"#b c #000000",
"#c c #000000",
"#d c #000000",
"#e c #000000",
"#f c #000000",
"#g c #000000",
"#h c #000000",
"#i c #000000",
"#j c #000000",
"#k c #000000",
"#l c #000000",
"#m c #000000",
"#n c #000000",
"#o c #000000",
"#p c #000000",
"#q c #000000",
"#r c #000000",
"#s c #000000",
"#t c #000000",
"#u c #000000",
"#v c #000000",
"#w c #000000",
"#x c #000000",
"#y c #000000",
"#z c #000000",
"#A c #000000",
"#B c #000000",
"#C c #000000",
"#D c #000000",
"#E c #000000",
"#F c #000000",
"#G c #000000",
"#H c #000000",
"#I c #000000",
"#J c #000000",
"#K c #000000",
"#L c #000000",
"#M c #000000",
"#N c #000000",
"#O c #000000",
"#P c #000000",
"#Q c #000000",
"#R c #000000",
"#S c #000000",
"#T c #000000",
"#U c #000000",
"#V c #000000",
"#W c #000000",
"#X c #000000",
"#Y c #000000",
"#Z c #000000",
"#0 c #000000",
"#1 c #000000",
"#2 c #000000",
"#3 c #000000",
"#4 c #000000",
"#5 c #000000",
"#6 c #000000",
"#7 c #000000",
"#8 c #000000",
"a` c #000000",
"a. c #000000",
"a# c #000000",
"aa c #000000",
"ab c #000000",
"ac c #000000",
"ad c #000000",
"ae c #000000",
"af c #000000",
"ag c #000000",
"ah c #000000",
"ai c #000000",
"aj c #000000",
"ak c #000000",
"al c #000000",
"am c #000000",
"an c #000000",
"ao c #000000",
"ap c #000000",
"aq c #000000",
"ar c #000000",
"as c #000000",
"at c #000000",
"au c #000000",
"av c #000000",
"aw c #000000",
"ax c #000000",
"ay c #000000",
"az c #000000",
"aA c #000000",
"aB c #000000",
"aC c #000000",
"aD c #000000",
"aE c #000000",
"aF c #000000",
"aG c #000000",
"aH c #000000",
"aI c #000000",
"aJ c #000000",
"aK c #000000",
"aL c #000000",
"aM c #000000",
"aN c #000000",
"aO c #000000",
"aP c #000000",
"aQ c #000000",
"aR c #000000",
"aS c #000000",
"aT c #000000",
"aU c #000000",
"aV c #000000",
"aW c #000000",
"aX c #000000",
"aY c #000000",
"aZ c #000000",
"a0 c #000000",
"a1 c #000000",
"a2 c #000000",
"a3 c #000000",
"a4 c #000000",
"a5 c #000000",
"a6 c #000000",
"a7 c #000000",
"a8 c #000000",
/* pixels */
"`````````````````````````````````````````````````````````````````````````.`#`a`b`c``````````````",
"```````````````````````````````````````````````````````````b`d`e`f`g`h`i`i`h`j`k`l``````````````",
"```````````````````````````````````````````m`n`o`p`a`q`q`r`s`f`f`t`u`v`u`w`x`y`y`z``````````````",
"`````````````````````````````A`j`B`w`C`D`E`b`B`F`G`H`I`e`J`s`f`t`u`q`K`L`y`M`M`y`l``````````````",
"```````````````````````F`N`O`O`P`N`Q`.`D`E`b`B`F`G`H`I`e`J`s`t`R`D`L`y`y`y`y`y`y`l``````````````",
"`````````````````````S`T`T`U`O`P`N`Q`.`D`E`b`B`F`G`V`I`W`r`f`m`X`Y`Y`Y`Y`Y`Y`Y`Y`z``````````````",
"`````````````````````Z`0`T`U`O`P`N`Q`.`D`E`1`B`F`G`H`I`e`f`K`Y`Y`Y`Y`Y`Y`Y`Y`Y`Y`z``````````````",
"`````````````````````Z`0`T`U`O`P`N`Q`.`D`E`1`B`F`G`H`I`e`u`T`Y`Y`Y`2`Y`Y`2`Y`Y`2`z``````````````",
"`````````````````````Z`0`T`U`O`P`N`Q`.`D`C`1`B`F`G`V`I`W`u`0`2`2`2`2`2`2`2`2`2`2`z``````````````",
"`````````````````````Z`0`T`U`O`P`N`Q`.`D`C`1`B`F`G`V`I`e`v`T`X`X`X`X`X`X`X`X`X`X`3``````````````",
"`````````````````````Z`0`T`U`O`P`N`Q`.`D`C`1`B`F`G`V`I`e`v`T`L`L`L`L`L`L`L`L`L`L`4``````````````",
"`````````````````````Z`0`T`U`O`P`N`Q`.`D`C`1`B`F`G`V`I`W`u`U`5`5`5`5`5`5`5`5`5`5`M``````````````",
"`````````````````````Z`6`T`U`O`P`P`N`Q`m`7`#`j`S`8`V.``W`u`O`5`5`5`5`5`5`5`5`5`5`M``````````````",
"`````````````````````Z`6`T`U`O`P`P`N`Q`m`7`#`j`S`8`V.``W`u`P`5`5`5..`5`5..`5`5..`y``````````````",
"`````````````````````Z`0`T`U`O`P`N`N`Q`m`7`#`j`S`8`d.``R`g`N.#.#.#.#.#.#.#.#.#.#`y``````````````",
"`````````````````````Z`6`T`U`O`P`P`N`Q`m`7`#`j`S`8`V.a`W`u`Q.b.b.b.b.b.b.b.b.b.b`Y``````````````",
"`````````````````````Z`6`T`U`O`P`P`N`Q`m`7`#`j`S`o`V.a`W`u`Q.c.c.c.c.c.c.c.c.c.c`Y``````````````",
"`````````````````````Z`6`T`U`O`P`P`N`Q`m`7`#`j`S`o`V.a`R`u`Q.c.c.c`x.c.c`x.c.c`x`Y``````````````",
"`````````````````````Z`0`T`U`O`P`N`N`Q`m`7`#`j`S`o`d.a`a`g`..d.d.d.d.d.d.d.d.d.d`2``````````````",
"`````````````````````Z`6`T`U`O`P`P`N`Q`m`7`#`j`S`o`V.a`R`u`A.e.e.e.e.e.e.e.e.e.e`2``````````````",
"`````````````````````Z`6`T`U`O`P`P`N`Q`m`7`#`j`S`o`V.a`R`u`m.f.f.f.f.f.f.f.f.f.f`k``````````````",
"`````````````````````Z`0`T`U`O`P`N`N`Q`m`7`#`j`S`o`d.a`a`g`D.g.g.g.g.g.g.g.g.g.g`X``````````````",
"`````````````````````Z`6`T`U`O`P`P`N`Q`m`7`#`j`S`o`d.a`R`u.h.g.g.g.i.g.g.i.g.g.i`X``````````````",
"`````````````````````Z`6`0`U`O`O`P`N`Q`A`7`n`w`S.j`d.a`R`u`7.k.k.k.k.k.k.k.k.k.k`L``````````````",
"`````````````````````Z`6`0`T`U`P`P`N`Q`A.h`n`w.l.j`G`p`I`t`7.m.m.m.m.m.m.m.m.m.m`5``````````````",
"`````````````````````Z`6`0`T`U`O`P`N`N`A.h`n`w.l`Z`d`p`a`g`C.m.m.m.n.m.m.n.m.m.n`5``````````````",
"`````````````````````Z`6`0`T`U`O`P`N`N`A.h`n`w.l`Z`d`p`a`g`E.n.n.n.n.n.n.n.n.n.n`5``````````````",
"`````````````````````8`6`0`T`U`P`P`N`Q`A.h`K`w.l`Z`G`p`I`t`K.o.o.o.o.o.o.o.o.o.o..``````````````",
"```````````````````b`#`6`0`T`U`O`P`N`N`A.h`K`w.l`Z`d`p`a.p`Z`6`6`6`6`6`6`6`6`6`6..``````````````",
"`````````````````V`6.o`6`0`T`U`O`P`N`N`A.h`K`b.l`Z`d`H`a`q`f`#`0`0`0`0`0`0`0`0`0.#``````````````",
"```````````````.`N.o.o`6`0`T`U`P`P`N`Q`A.h`K`b.l`Z`G`H`I`e`J.q`#`T`T`T`T`T`T`T`T.#``````````````",
"```````````````w`0.n.o`6`0`T`U`O`P`N`N`..h`K`b.l`Z`d`H`a`e`J.q`b`U`U`U`U`U`U`U`U.b``````````````",
"```````````````w`6.n.o`6`0`T`U`O`P`N`N`..h`K`b`B`Z`d`H`a`e`J.q`b`U`O`U`U`O`U`U`O.b``````````````",
"```````````````w`6.o.o`6`0`T`U`P`P`N`Q`A.h`K`b`B`Z`G`H`I`e`J`h`w`O`O`O`O`O`O`O`O.b``````````````",
"```````````````b`6.n.o`6`0`T`U`O`P`N`N`..h`E`b`B`Z`G`H`a`e`J.q`w`P`P`P`P`P`P`P`P.c``````````````",
"```````````````1`0.o.o`6`0`T`U`O`P`N`Q`.`D`E`1`B`F`G`V.``W`r`h`B`N`N`N`N`N`N`N`N`x``````````````",
"```````````````#`0.n.o`6`0`T`U`O`P`N`N`.`D`E`1`B`F`G`V`I`W`r.q`j`N`Q`N`N`Q`N`N`Q`x``````````````",
"```````````````#`0.n.o`6`0`T`U`O`P`N`N`.`D`E`1`B`F`G`V`I`W`r.q`B`Q`.`Q`Q`.`Q`Q`..d``````````````",
"```````````````n`T.n.o`6`0`T`U`O`P`N`N`.`D`E`1`B`F`G`V`I`W`r.q.l`.`A`.`.`A`.`.`A.d``````````````",
"```````````````n`U.o.o`6`0`T`U`O`P`N`Q`.`D`C`1`B`F`8`V.``W`r`h`S`m`m`m`m`m`m`m`m.b``````````````",
"```````````````m`U.n.o`6`0`T`U`O`P`N`N`Q`D`C`1`B`F`8`d`I`W`r.q`S`m`m`m`m`m`m`m.g````````````````",
"```````````````O`U.n.o`6`0`T`U`O`P`N`N`Q`D`C`#`B`F`8`d`I`I`F`w`S`D`D`D`D`D`D.g``````````````````",
"```````````````6`N.o.o`6`0`T`U`O`P`N`Q`Q`D`C`1`B`j`E```````````F.h.h.h.h`D.e````````````````````",
"`````````````````E.n.o`6`0`T`U`O`P`N`N`.`Q`O```````````````````Z.h`7.h.h`x``````````````````````",
"```````````````````T.o`6`0`T`U`O`P.n```````````````````````````Z`7`C.h.c````````````````````````",
"````````````````````.f`m`T.i``````````````````````````````````.j`C`7..``````````````````````````",
"```````````````````````````````````````````````````````````````o`7..````````````````````````````",
"```````````````````````````````````````````````````````````````1`L``````````````````````````````"
};
