/* XPM */
static const char *folder_conn_del16_xpm[] = {
/* width height num_colors chars_per_pixel */
"    16    16      256            2",
/* colors */
"`` c #adadad",
"`. c #afafaf",
"`# c #ababab",
"`a c #aaaaaa",
"`b c #a9a9a9",
"`c c None",
"`d c #de8f8f",
"`e c #cd3d3d",
"`f c #cd3838",
"`g c #d26565",
"`h c #b2b2b2",
"`i c #9e9e9e",
"`j c #999999",
"`k c #949494",
"`l c #919191",
"`m c #8e8e8e",
"`n c #939393",
"`o c #d46363",
"`p c #d94242",
"`q c #ea9494",
"`r c #cc0101",
"`s c #de5b5b",
"`t c #e68181",
"`u c #acacac",
"`v c #898989",
"`w c #858585",
"`x c #838383",
"`y c #888888",
"`z c #969696",
"`A c #ba4848",
"`B c #cd0606",
"`C c #f0b3b3",
"`D c #f2bdbd",
"`E c #f8dcdc",
"`F c #d22020",
"`G c #8c857c",
"`H c #888177",
"`I c #847c72",
"`J c #817a70",
"`K c #81796f",
"`L c #80786e",
"`M c #b4403e",
"`N c #cc0000",
"`O c #df5f5f",
"`P c #fdf5f5",
"`Q c #eea8a8",
"`R c #cb3737",
"`S c #a4a4a4",
"`T c #8a8782",
"`U c #ccb57a",
"`V c #decd88",
"`W c #decc88",
"`X c #cc5543",
"`Y c #d42626",
"`Z c #f0b6b6",
"`0 c #e78686",
"`1 c #c8312c",
"`2 c #a1a1a1",
"`3 c #857d73",
"`4 c #dcca85",
"`5 c #e6d97d",
"`6 c #c15341",
"`7 c #d22121",
"`8 c #d52f2f",
".` c #d01616",
".. c #d11d1d",
".# c #c9433b",
".a c #877c68",
".b c #e3d38a",
".c c #ddd17d",
".d c #929d9f",
".e c #9ba9c5",
".f c #904c61",
".g c #9c566a",
".h c #a0596d",
".i c #944854",
".j c #b95e43",
".k c #d19f78",
".l c #9b9b9b",
".m c #918062",
".n c #e6d98f",
".o c #8895a0",
".p c #7e9ec7",
".q c #98b5d8",
".r c #cbe2fa",
".s c #b1cfed",
".t c #698fbd",
".u c #406aa1",
".v c #4d6f99",
".w c #cab893",
".x c #989898",
".y c #97815b",
".z c #eadd8e",
".A c #bfb983",
".B c #6283b0",
".C c #7596c0",
".D c #c7dff7",
".E c #d3e9ff",
".F c #b3cfec",
".G c #648ab9",
".H c #4f78ad",
".I c #325d97",
".J c #6f7b92",
".K c #9d875c",
".L c #e9dc88",
".M c #e6d87b",
".N c #e5d777",
".O c #e5d675",
".P c #989e90",
".Q c #7c9ec8",
".R c #bad4f1",
".S c #d2e8ff",
".T c #c9e1fa",
".U c #86a7ce",
".V c #40689f",
".W c #3c669e",
".X c #325e99",
".Y c #566e93",
".Z c #a38c5d",
".0 c #e5d87a",
".1 c #e4d570",
".2 c #99a193",
".3 c #7399c5",
".4 c #83a5cd",
".5 c #a9c7e7",
".6 c #abc9e9",
".7 c #6b90be",
".8 c #3b659c",
"#` c #335e98",
"#. c #2e5b96",
"## c #5c6f90",
"#a c #959595",
"#b c #a78d55",
"#c c #ddc95b",
"#d c #ddc859",
"#e c #ddc758",
"#f c #a29d71",
"#g c #79a1cc",
"#h c #3f689f",
"#i c #4d75a9",
"#j c #7da3cd",
"#k c #7ca3ce",
"#l c #628ebf",
"#m c #2d5994",
"#n c #305b94",
"#o c #757c90",
"#p c #969695",
"#q c #ac8d45",
"#r c #d6ba41",
"#s c #cab146",
"#t c #6f859c",
"#u c #4470a6",
"#v c #356099",
"#w c #5b86b8",
"#x c #5e8cbf",
"#y c #4d7eb5",
"#z c #295590",
"#A c #3c5c8a",
"#B c #aeaab1",
"#C c #c6bfb5",
"#D c #a88d5a",
"#E c #a78e5b",
"#F c #a78d5b",
"#G c #a68c5a",
"#H c #a48b59",
"#I c #a38a57",
"#J c #827869",
"#K c #4c6f9c",
"#L c #35639d",
"#M c #4779b2",
"#N c #4073ac",
"#O c #3d699d",
"#P c #37598b",
"#Q c #80808d",
"#R c #8694b3",
"#S c #687da3",
"#T c #5e7198",
"#U c #7985a3",
"#V c #b7b9ca",
"#W c #000000",
"#X c #000000",
"#Y c #000000",
"#Z c #000000",
"#0 c #000000",
"#1 c #000000",
"#2 c #000000",
"#3 c #000000",
"#4 c #000000",
"#5 c #000000",
"#6 c #000000",
"#7 c #000000",
"#8 c #000000",
"a` c #000000",
"a. c #000000",
"a# c #000000",
"aa c #000000",
"ab c #000000",
"ac c #000000",
"ad c #000000",
"ae c #000000",
"af c #000000",
"ag c #000000",
"ah c #000000",
"ai c #000000",
"aj c #000000",
"ak c #000000",
"al c #000000",
"am c #000000",
"an c #000000",
"ao c #000000",
"ap c #000000",
"aq c #000000",
"ar c #000000",
"as c #000000",
"at c #000000",
"au c #000000",
"av c #000000",
"aw c #000000",
"ax c #000000",
"ay c #000000",
"az c #000000",
"aA c #000000",
"aB c #000000",
"aC c #000000",
"aD c #000000",
"aE c #000000",
"aF c #000000",
"aG c #000000",
"aH c #000000",
"aI c #000000",
"aJ c #000000",
"aK c #000000",
"aL c #000000",
"aM c #000000",
"aN c #000000",
"aO c #000000",
"aP c #000000",
"aQ c #000000",
"aR c #000000",
"aS c #000000",
"aT c #000000",
"aU c #000000",
"aV c #000000",
"aW c #000000",
"aX c #000000",
"aY c #000000",
"aZ c #000000",
"a0 c #000000",
"a1 c #000000",
"a2 c #000000",
"a3 c #000000",
"a4 c #000000",
"a5 c #000000",
"a6 c #000000",
"a7 c #000000",
"a8 c #000000",
/* pixels */
"```.```#`a`b`a`c`c`d`e`f`f`f`f`g",
"`h`i`j`k`l`m`n`c`c`o`p`q`r`s`t`f",
"`u`k`m`v`w`x`x`y`z`A`B`C`D`E`F`f",
"`b`m`G`H`I`J`K`L`K`M`N`O`P`Q`r`R",
"`S`T`U`V`W`W`W`W`W`X`p`E`Y`Z`0`1",
"`2`3`4`5`5`5`5`5`5`6`7`8.`..`8.#",
"`i.a.b`5`5`5`5.c.d.e.f.g.h.i.j.k",
".l.m.n`5`5`5`5.o.p.q.r.s.t.u.v.w",
".x.y.z`5`5`5.A.B.C.D.E.F.G.H.I.J",
"`z.K.L.M.N.O.P.Q.R.S.T.U.V.W.X.Y",
"`k.Z.0.1.1.1.2.3.4.5.6.7.8#`#.##",
"#a#b#c#d#e#e#f#g#h#i#j#k#l#m#n#o",
"#p#q#r#r#r#r#s#t#u#v#w#x#y#z#A#B",
"#C#D#E#F#G#H#I#J#K#L#M#N#O#P#Q`c",
"`c`c`c`c`c`c`c`c`c#R#S#T#U#V`c`c",
"`c`c`c`c`c`c`c`c`c`c`c`c`c`c`c`c"
};
