/* XPM */
static const char *folder_conn_16_xpm[] = {
/* width height num_colors chars_per_pixel */
"    64    16      256            2",
/* colors */
"`` c #244a84",
"`. c #2c8214",
"`# c #ac828c",
"`a c #9cc2a4",
"`b c #e4c25c",
"`c c #fcea7c",
"`d c #94263c",
"`e c #44c21c",
"`f c #b4a674",
"`g c #d4c2c4",
"`h c #3482bc",
"`i c #e4e2d4",
"`j c #aca284",
"`k c #2c5e74",
"`l c #fcfac4",
"`m c #8c8a7c",
"`n c #8c5a5c",
"`o c #ac425c",
"`p c #c4b27c",
"`q c #ecd674",
"`r c #dcd2b4",
"`s c #2c5e8c",
"`t c #549e3c",
"`u c #ecdaa4",
"`v c #6c8ea4",
"`w c #dc56cc",
"`x c #348254",
"`y c #fce2e4",
"`z c #a4baac",
"`A c #cc929c",
"`B c #f4e6ac",
"`C c #ecf2ec",
"`D c #e4eaec",
"`E c #945664",
"`F c #e4d294",
"`G c #d4d2d4",
"`H c #f4faf4",
"`I c #cce2cc",
"`J c #54bee4",
"`K c #dcaa24",
"`L c #c4c2c4",
"`M c #dcc694",
"`N c #4cae9c",
"`O c #347a4c",
"`P c #ccb684",
"`Q c #dcdad4",
"`R c #8c3244",
"`S c #449234",
"`T c #a4a2a4",
"`U c #64a23c",
"`V c #3472ac",
"`W c #ecd294",
"`X c #bcd2c4",
"`Y c #fcee94",
"`Z c None",
"`0 c #ece2d4",
"`1 c #dcb62c",
"`2 c #c4beac",
"`3 c #6cb664",
"`4 c #9c9684",
"`5 c #647684",
"`6 c #8c9aac",
"`7 c #5c8264",
"`8 c #e496a4",
".` c #9c626c",
".. c #fcfaf4",
".# c #4ca6cc",
".a c #e4dadc",
".b c #348634",
".c c #94364c",
".d c #8cc684",
".e c #b44ea4",
".f c #ecd6dc",
".g c #749aa4",
".h c #b4b2b4",
".i c #c49aa4",
".j c #fcfabc",
".k c #f4f2ec",
".l c #5ce6fc",
".m c #e4ce7c",
".n c #5c7a7c",
".o c #bcaaac",
".p c #ecda9c",
".q c #e4be54",
".r c #7caa64",
".s c #245294",
".t c #e4ca5c",
".u c #5cca5c",
".v c #fcc2cc",
".w c #e4e2e4",
".x c #5c6e84",
".y c #bc4a64",
".z c #34668c",
".A c #7c8eac",
".B c #fc7efc",
".C c #449a84",
".D c #fceaac",
".E c #eceadc",
".F c #cccacc",
".G c #3c7e54",
".H c #d4be84",
".I c #7c424c",
".J c #9caac4",
".K c #5c7e8c",
".L c #cccecc",
".M c #fcee9c",
".N c #e4be34",
".O c #8c6e74",
".P c #ac626c",
".Q c #fcfef4",
".R c #b43e54",
".S c #b4babc",
".T c #84aa84",
".U c #348a1c",
".V c #bc828c",
".W c #f4e69c",
".X c #c4ae74",
".Y c #dcceac",
".Z c #3c8edc",
".0 c #bcaa7c",
".1 c #2c6684",
".2 c #f4de74",
".3 c #fc56fc",
".4 c #3c827c",
".5 c #f4eaec",
".6 c #f4eaac",
".7 c #dcda9c",
".8 c #d4d6d4",
"#` c #bccae4",
"#. c #e436d4",
"## c #5cdafc",
"#a c #dca6b4",
"#b c #4cb22c",
"#c c #4cb6f4",
"#d c #5cda84",
"#e c #cc66bc",
"#f c #6cf6fc",
"#g c #b49e8c",
"#h c #dcbac4",
"#i c #5cc62c",
"#j c #549a2c",
"#k c #9cae7c",
"#l c #fcdee4",
"#m c #9c4e5c",
"#n c #acaaac",
"#o c #347ebc",
"#p c #d4cacc",
"#q c #6c7e9c",
"#r c #8c6664",
"#s c #d49ea4",
"#t c #bccee4",
"#u c #4caaec",
"#v c #8c464c",
"#w c #449a4c",
"#x c #5c8a7c",
"#y c #448a6c",
"#z c #3c824c",
"#A c #9c5e6c",
"#B c #4cb294",
"#C c #843a4c",
"#D c #943e54",
"#E c #64eefc",
"#F c #2c66a4",
"#G c #6c92bc",
"#H c #647a9c",
"#I c #f4de8c",
"#J c #e4ce94",
"#K c #e4ca74",
"#L c #f4d664",
"#M c #d4ba7c",
"#N c #e4ba34",
"#O c #a46274",
"#P c #cc9eac",
"#Q c #a4aebc",
"#R c #348614",
"#S c #bcaa74",
"#T c #2c629c",
"#U c #f4dea4",
"#V c #d48e9c",
"#W c #e4ca94",
"#X c #54aa9c",
"#Y c #64a64c",
"#Z c #ece6e4",
"#0 c #9c3a4c",
"#1 c #f4d2dc",
"#2 c #7cae74",
"#3 c #2c5694",
"#4 c #eceaec",
"#5 c #ccd2dc",
"#6 c #bcbabc",
"#7 c #34667c",
"#8 c #fcea8c",
"a` c #244e8c",
"a. c #f4fefc",
"a# c #347e4c",
"aa c #ccba7c",
"ab c #dcdedc",
"ac c #ecd69c",
"ad c #fcf28c",
"ae c #ece6dc",
"af c #9c9a7c",
"ag c #e4ded4",
"ah c #f4f6f4",
"ai c #bc8694",
"aj c #3c92d4",
"ak c #a4666c",
"al c #e4c65c",
"am c #dcae24",
"an c #c4c6c4",
"ao c #dcca94",
"ap c #3476ac",
"aq c #e4e6e4",
"ar c #bc4e64",
"as c #7c92ac",
"at c #84ae84",
"au c #f4eeec",
"av c #eceeec",
"aw c #bcbebc",
"ax c #e4e2dc",
"ay c #dcd2bc",
"az c #ecf2f4",
"aA c #e4d29c",
"aB c #dcdadc",
"aC c #ecd29c",
"aD c #dcb634",
"aE c #c4beb4",
"aF c #fcfafc",
"aG c #f4f2f4",
"aH c #fcfefc",
"aI c #f4eab4",
"aJ c #d4d6dc",
"aK c #347e54",
"aL c #fcf294",
"aM c #e4dedc",
"aN c #000000",
"aO c #000000",
"aP c #000000",
"aQ c #000000",
"aR c #000000",
"aS c #000000",
"aT c #000000",
"aU c #000000",
"aV c #000000",
"aW c #000000",
"aX c #000000",
"aY c #000000",
"aZ c #000000",
"a0 c #000000",
"a1 c #000000",
"a2 c #000000",
"a3 c #000000",
"a4 c #000000",
"a5 c #000000",
"a6 c #000000",
"a7 c #000000",
"a8 c #000000",
/* pixels */
"`Z`Z`Z`I.d`3`v`X`Z`Z`ZaFauah`Z`Z`Z`Z`Z`I.d`3`v`X`Z`Z`ZaFaG`H`Z`Z`Z`Z`Z`I.d`3`v`X#K#I.Mam`Y.W`W`Z`Z`Z`Z`I.d`3`v`X`Z#p`#ai#O.O.B`Z",
"`Z`Z`a#i.u#Xap.1.r`uaCac#Uae`Z`Z`Z`Z`a#i.u#Xap.1#2auavaGaGav`Z`Z`Z`Z`a#i.u#Xap.1.D#Nad`bad#N.W`Z`Z`Z`a#i.u#Xap.g.o#l`y.f#a#V.P.3",
"`Z#5#b`e#d`J.Z.z.G#k.p#U#Uae`Z`Z`Z#5#b`e#d`J.Z.z.G`zavaGavav`Z`Z`Z#5#b`e#d`J.Z.z.MaL`l`B`l`Y`q`Z`Z#5#b`e#d`J.Z#`#P.faH.i.5av`R#e",
"`Zas#w#B#E#f#c#oaK`Uac#U.pae`Z`Z`Zas#w#B#E#f#c#oaK#Y#4av#4#4`Z`Z`Zas#w#B#E#f#c#o`K.q.6.Q.D.q#N`Z`Zas#w#B#E#f#caM.v.i.faH.k`E.y#A",
"`Z#H#y.###.l#c#o.G#jac.pacae`Z`Z`Z#H#y.###.l#c#o.G`taMaq.w#4`Z`Z`Z#H#y.###.l#c#o.MaL`l`B`laL#8`Z`Z#H#y.###.l#c.w`8`Aau..`H.V.R`n",
"`Z.A`s.C`N#uaj`V.1.n#J.p`F`0`Z`Z`Z.A`s.C`N#uaj`V.1.KaJabaBaq`Z`Z`Z.A`s.C`N#uaj`V.D#N`cal`Y#N.2`Z`Z.A`s.C`N#uaj#t#C#ha..``g`C`d.e",
"`ZaJ```S`..b.4#T#3`maoac`F`i`Z`Z`ZaJ```S`..b.4#Ta``6`G.8aJ.w`Z`Z`ZaJ```S`..b.4#T.m#I#8.NaA#Lal`Z`ZaJ```S`..b.4#G#g.c#0.y`o.c.I#.",
"`Z`Z.J`k.U`.`xa``5#S`M`F#Jag`Z`Z`Z`Z.J`k.U`.`xa`#q`L.L`G`G.w`Z`Z`Z`Z.J`k.U`.`xa``5.X`MaC`F`i`Z`Z`Z`Z.J`k.U`.`xa`.S`2.`#m#v#r`w`Z",
"`Z`Z`Z#5.T`7.x`4.H#S`P#J#Jag`Z`Z`Z`Z`Z#5.T#x#H#Q.8`L`L.L.L.w`Z`Z`Z`Z`Z#5.T`7.x`4.H#S`P#Jaoag`Z`Z`Z`Z`Z#5.T`7.xaf.H#S`P#Jaoag`Z`Z",
"`Z`Z`Z`Zax#M.H#M.H.X#S#Jaoag`Z`Z`Z`Z`Z`Zaq`Q.8.8`G#6#6.L.Fab`Z`Z`Z`Z`Z`Zax#M.H.H.H.X#S#Jaoag`Z`Z`Z`Z`Z`Zax#M.H#M.H.X#S#Jaoag`Z`Z",
"`Z`Z`Z`Z`Qaa#Maa#M#S`f#Waoag`Z`Z`Z`Z`Z`Zab`G`G.L.L.h.han.Fab`Z`Z`Z`Z`Z`Z`Qaa#Maa#M#S`f#Waoag`Z`Z`Z`Z`Z`Z`Qaa#Maa#M#S`fao#Wag`Z`Z",
"`Z`Z`Z`Z.F`Paaaa`p#gafao.YaH`Z`Z`Z`Z`Z`Z.F.L.L.F`L`T`T.LabaH`Z`Z`Z`Z`Z`Z.F`P`Paa`p#g`4ao.YaH`Z`Z`Z`Z`Z`Z.F`P`Paa`p`j`4#W.Y.Q`Z`Z",
"`Z`Z`Z`Z#4`2ay#Z`Laqaw.YaH`Z`Z`Z`Z`Z`Z`ZauanaBaqan.w.L.w`Z`Z`Z`Z`Z`Z`Z`Z#4`2ayae`Laxaw.YaH`Z`Z`Z`Z`Z`Z`Z#4`2ayae`L.waE.YaH`Z`Z`Z",
"`Z`Z`Z`Z`Z`Z`Z`Z`QaqaH`Z`Z`Z`Z`Z`Z`Z`Z`Z`Z`Z`Z`ZaB`DaH`Z`Z`Z`Z`Z`Z`Z`Z`Z`Z`Z`Z`ZaB`D..`Z`Z`Z`Z`Z`Z`Z`Z`Z`Z`Z`Z`ZaB`DaF`Z`Z`Z`Z`Z",
"`Z`Z`Z.aabaMabab.FaBabaMabaM#4`Z`Z`Z`Z.aabaMabab.F`QaBaMabaM#4`Z`Z`Z`Z.aabaMabab.F`QabaMabaM#4`Z`Z`Z`Z.aabaMabab.F`QababaMab#4`Z",
"`Z`Z`ZaBaBaBaBaBaBaBaBaBaBaBav`Z`Z`Z`ZaBaBaBaBaBaBaBaBaBaBaBav`Z`Z`Z`ZaBaBaBaBaBaBaBaBaBaBaBav`Z`Z`Z`ZaBaBaBaBaBaBaBaBaBaBaBau`Z"
};
