/* XPM */
static const char *location16_xpm[] = {
/* width height num_colors chars_per_pixel */
"   144    16      256            2",
/* colors */
"`` c #1c120c",
"`. c #4c8244",
"`# c #84c272",
"`a c #ac821c",
"`b c #f4c258",
"`c c None",
"`d c #2c4b24",
"`e c #244a94",
"`f c #5c82cb",
"`g c #c4e4bc",
"`h c #4c7094",
"`i c #cce4c4",
"`j c #74a2f7",
"`k c #a49584",
"`l c #346ad4",
"`m c #54a23c",
"`n c #a4c2fc",
"`o c #c4cedc",
"`p c #94969c",
"`q c #5c524c",
"`r c #6492ea",
"`s c #fcf2c4",
"`t c #4c76c4",
"`u c #fce288",
"`v c #d4a224",
"`w c #f4d274",
"`x c #a4c294",
"`y c #ece6b4",
"`z c #6482cc",
"`A c #3c6934",
"`B c #b4aa94",
"`C c #8c8674",
"`D c #2c5aac",
"`E c #cce2fc",
"`F c #8cb2fc",
"`G c #74b65c",
"`H c #4c82e4",
"`I c #547abc",
"`J c #5c7eca",
"`K c #545044",
"`L c #f4f0ac",
"`M c #94ce84",
"`N c #94a2b4",
"`O c #b4cffc",
"`P c #747064",
"`Q c #4c7adc",
"`R c #e4b234",
"`S c #fcde8c",
"`T c #3c66b4",
"`U c #a49e8c",
"`V c #3c76e4",
"`W c #64ae4c",
"`X c #c4d8fc",
"`Y c #eceef4",
"`Z c #3c362c",
"`0 c #c48e0c",
"`1 c #ecc66c",
"`2 c #345b2c",
"`3 c #f4da84",
"`4 c #dce6ec",
"`5 c #f4fafc",
"`6 c #44962c",
"`7 c #547ed2",
"`8 c #a4d694",
".` c #3c62b4",
".. c #f4f2b4",
".# c #4c6eb4",
".a c #2452a4",
".b c #b4c2d9",
".c c #649af4",
".d c #fcea96",
".e c #a4b5cc",
".f c #9c9684",
".g c #3462c0",
".h c #548aec",
".i c #d4dbe4",
".j c #344a64",
".k c #5482d7",
".l c #d4eecc",
".m c #7caafc",
".n c #5476c4",
".o c #e4ba50",
".p c #ecf6fc",
".q c #e4eefc",
".r c #549a34",
".s c #acbad1",
".t c #8cca7c",
".u c #f4cd64",
".v c #64a644",
".w c #646054",
".x c #6c96e4",
".y c #f4e294",
".z c #44743c",
".A c #9c8e7c",
".B c #345aa7",
".C c #74ba64",
".D c #9cd690",
".E c #847a70",
".F c #4c6ab4",
".G c #b4a294",
".H c #447ee9",
".I c #fcda76",
".J c #e4eaf0",
".K c #b4d6a4",
".L c #242214",
".M c #8cc676",
".N c #bc8a0c",
".O c #345228",
".P c #a49a85",
".Q c #4472c4",
".R c #749ae7",
".S c #5c92f8",
".T c #e4aa34",
".U c #648ada",
".V c #94bafc",
".W c #5c86e4",
".X c #fceea7",
".Y c #8caeec",
".Z c #4466ac",
".0 c #aca68c",
".1 c #6cae53",
".2 c #ccdefc",
".3 c #443a34",
".4 c #c49a24",
".5 c #3452a4",
".6 c #5c82d8",
".7 c #b4bed4",
".8 c #345db4",
"#` c #fcdc84",
"#. c #94721c",
"## c #ac7e18",
"#a c #2c4624",
"#b c #dcae34",
"#c c #545a6c",
"#d c #d4d6c4",
"#e c #fceaa4",
"#f c #342a24",
"#g c #a4ce94",
"#h c #9caabc",
"#i c #84a2e4",
"#j c #241e14",
"#k c #547ea4",
"#l c #f4bd4c",
"#m c #84be6c",
"#n c #847264",
"#o c #746254",
"#p c #bc8e28",
"#q c #3c72d4",
"#r c #f4eab4",
"#s c #ecce78",
"#t c #bcdeb4",
"#u c #4c423c",
"#v c #d49a24",
"#w c #cca63c",
"#x c #b4c2ec",
"#y c #a4bae4",
"#z c #d4eacc",
"#A c #3c6234",
"#B c #949e8c",
"#C c #accafc",
"#D c #ccd6dc",
"#E c #bcd6fc",
"#F c #f4dea4",
"#G c #f4e2a4",
"#H c #948974",
"#I c #ecb23c",
"#J c #4476dc",
"#K c #ccd6ec",
"#L c #acd6a4",
"#M c #5c8ae4",
"#N c #6c8ed4",
"#O c #4c8a44",
"#P c #3c6e34",
"#Q c #447a3c",
"#R c #accea4",
"#S c #f4ce6c",
"#T c #d4e2cc",
"#U c #7ca6fc",
"#V c #5ca442",
"#W c #fcd472",
"#X c #5484e7",
"#Y c #5c76b4",
"#Z c #9cd28c",
"#0 c #aca28c",
"#1 c #f4f2f4",
"#2 c #4c992f",
"#3 c #fcf1b7",
"#4 c #2c55a7",
"#5 c #bcc6d4",
"#6 c #6c9efc",
"#7 c #dcf0d4",
"#8 c #84adfa",
"a` c #fce595",
"a. c #7cbc69",
"a# c #7c9ee4",
"aa c #f4c264",
"ab c #244aa4",
"ac c #acc6fc",
"ad c #4c78d4",
"ae c #d4e3fc",
"af c #bcd2fc",
"ag c #7c7264",
"ah c #dce8fc",
"ai c #fcfefc",
"aj c #d4def4",
"ak c #547ad4",
"al c #6c6254",
"am c #9cbbfc",
"an c #6cb25c",
"ao c #443e44",
"ap c #948a84",
"aq c #447ae4",
"ar c #ccdafc",
"as c #5c8ef4",
"at c #241214",
"au c #b48214",
"av c #645254",
"aw c #f4f6fc",
"ax c #6492f4",
"ay c #cc9a1c",
"az c #94b2fc",
"aA c #3c4a64",
"aB c #e4eafc",
"aC c #a49a94",
"aD c #4472d4",
"aE c #ecaa34",
"aF c #648ae4",
"aG c #3c72e4",
"aH c #84c674",
"aI c #f4c65c",
"aJ c #244e9c",
"aK c #94d288",
"aL c #94a6bc",
"aM c #4c7ee0",
"aN c #3c6abc",
"aO c #a4a294",
"aP c #ecf2fa",
"aQ c #c49214",
"aR c #a4da99",
"aS c #4c72bb",
"aT c #547ac9",
"aU c #549e38",
"aV c #acbed4",
"aW c #64aa4c",
"aX c #9c9284",
"aY c #345eac",
"aZ c #fcde7c",
"a0 c #34562c",
"a1 c #749eec",
"a2 c #fcf2a4",
"a3 c #446ab0",
"a4 c #6cb254",
"a5 c #5c86dc",
"a6 c #9caec4",
"a7 c #ecb644",
"a8 c #447ad4",
/* pixels */
"`c`c`c`c`c`c`c`c`c`c`c`c`c`c`c`c`c`c`c`c`c`c`c`c`c`c`c`c`c`c`c`c`c`c`c`c`c`c`c`c`c`c`c`c`c`c`c`c`c`c`c`c`c`c`c`c`c`c`c`c`c`c`c`c`c`c`c`c`c`c`c`c`c`c`c`c`c`c`c`c`c`c`c`c`c`c`c`c`c`c`c`c`c`c`c`c`c`c`c`c`c`c`c`c`c`c`c`c`c`c`c`c`c`c`c`c`c`c`c`c`c`c`c`c`c`c`c`c`c`c`c`c`c`c`c`c`c`c`c`c`c`c`c`c",
"`c`c`c#0#0#0#0#0`c`c`c`c`c`c`c`c`c`c#0#0#0#0#0`c`c`c`c`c`c`c`c`c`c`c`c`c`c.b.b.7aV.s.s.s.e`c`c`c`c.b.b.7aV.s.s.s.e`c`c`c`c`c`c`c`c`c`caF.W.Wa5.6.6`7akaT.naSaS`c`caF.W.Wa5.6.6`7akaT.naSaS`c`c`c`c`c`c`c`c`c`c`c`c`c`c`c`c`c`c`c`c`xaU#V.v.v.1.1`G`Ga.#m`#.M#T`c`c#T.M`##ma.`G`G.1.1.v.v#VaU`x`c",
"`c`c#0`y#3#3#r.y#0`c`c`c`c`c`c`c`c#0`y#3#3#r.y#0`c`c`c`c`c`c`c`c`c`c`c`c`c.7aiaiaiaiaiai#h#5`c`c`c.7aiaiaiaiaiai#h#5`c`c`c`c`c`c`c`c#M#kaiai`5#1.q.qahaj.2`X#k.##M#kaiai`5#1.q.qahaj.2`X#k.#`c`c`c`c`B`B`B`B`c`c`c`c`c`c`c`c`c`c`c`.`M`M`M#Z.D.D`8aRaRaRaRaR`#`c`c`#aRaRaRaRaR`8.D.D#Z`M`M`M`.`c",
"`c`c#0#0#0#0#0#0.P.P.P`k`k`k`C`c`c#0#0#0#0#0#0.P.P.P`k`k`k`C`c`c`c`c`c`c`c.saiaiaiaiaiai`NaA.j`c`c.saiaiaiaiaiai`NaA.j`c`c`c`c`c`c`caFaiaiai#1aP.qahae.2`Xaf`O.F#Maiaiai#1aP.qahae.2`Xaf`O.F`c`c`c`B`y.X`L.y#0`c`c`c`c`c`c`c`c`c`c`..M.t`M`M`M.D`gaRaRaRaRaR`#`c`c#maRaRaRaRaR`g.D#Z`M.t.t.M`.`c",
"`c`c#0`s#r`s`s`L#e#ea``S#``bag`c`c#0`s#r`s`s`L#e#ea``S#``bag`c`c`c`c`c`c`c.saia1.x#Xaqai.i#KaA`c`c.saia1.x#Xaqai.i#KaA`c`c`c`c`c`c`c.Waiai#1aP.qahae.2`X#Eaf#C.F#Maiai#1aP.qahae.2`X#Eaf#C.F`c`c`c.G.G#0aC.G.G`UaC`k`k.P`k`k`c`c`c#Q`#`#.M.t`M#7ai#7.DaRaRaRa.`c`ca.aRaRaR`8#7ai#7`M.t.MaH`##Q`c",
"`c`c.P`s#r#r`L#ea`a`.I#W.uayag`c`c.P`s#r#r`L#ea`a`.I#W.uayag`c`c`c`c`c`c`ca6aiaiaiaiai#1#1.i.j`c`ca6aiaiaiaiai#1#1.i.j`c`c`c`c`c`c`c#MaiawaP.qahah`Ear`X`O`Oaca3#MaiawaP.qahah`Ear`X`O`Oaca3`c`c`c.G#r`s#3#r#3#3a`.d`S.I#W`b#n`c`c.za.#maH.M#zaiai`g#Z.DaRaRa.`c`ca.aR`8.D#Z`gaiai#z.M`##ma..z`c",
"`c`c`k#d#J#3#ea``u.I#W#S`b`0al`c`c`k`s..#e#ea``u#`#W`1aM#pal`c`c`c`c`c`c#Ja6ai.R`r#XaqaG`Y#D.j`c`ca6ai.R`r#XaqaG`Y#D.jaM`c`c`c`c`c`c.Waj`VaP.qahaear#Eaf`Oac`na3.Wawaw.q.qahaear#EafacaMama3`c`c`c`U`s#3#3`L.Xa``u#`#W.R#layag`c`c#P`Ga.a.#zaiai#t`MaK#Z#Z.D`G`c`c`G`8.D#ZaK.t#taiai#za.a.`G#P`c",
"`c`c`p`H#q#ea``u#``w.uaI#l`0`q`c`c`k..#3#e#e`u#``w.uaI`VaD#c`c`c`c`c`c#X#q#haiaiaiaw#1`Y.J`oaA`c`c#haiaiaiaw#1`Y.J`oaA`V#J`c`c`c`c`caF`H#qaBahae`X`X#E`O#Cac`na3.WawaP.qahae.2`Xaf`O#C`V#Ja3`c`c`c`k#3#3.X#ea``u`u#W`jam`D`0#o`c`c`A.1`G`iaiaiaiaiaiaiaiai#Z`G`c`c`GaKaiaiaiaiaiaiaiai`i`Gan`A`c",
"`c`c#X`nam.g.8.a#4.uaI#l#Iau#u`c`c.A#r#e#e`u`3aq`V`V`VaM.h.g`c`c`c`c#X`nam.g.8#4aJ#X.HaG.J#5.j`c`c#hai.R`r#X.H.H`V`V`VaM.h.g`c`c`c`c#X`nam.g`D#4#4af`O`O`n`n`n.Za5.p.qahae.2#Eaq`V`V`V`H.h.g`c`c`c`k`s`L.Xa`a`aZ.I`jamaz.UaJav`c`c#A.1.1`iaiaiaiaiaiaiaiai`M.1`c`c.1`Maiaiaiaiaiaiaiai`i.1aW#A`c",
"`c#Xamam.Ya#.x`J`eaI#l#I.T##`Z`c`c.A#r#ea`#`#saq`n`n#8.m#6#X#4`c`c#Xamam.Ya##N`JaJ#1.q.J`4.7aA`c`c`NaiawawaP`Y#J`n`n#8#U`j#X#4`c`c#Xamam.Ya#.x`J`e`O`Oac`n`n`ha3.6`hahae`Ear`Oaq`n`n#8#U`j#X#4`c`c.A#3.X#e`S#`.I.Ramaz#6`r#J.5`c`c`2.vaW.1`iaiai.K#m`#.M.t`MaW`c`caW`M.M.M`##m.Kaiai`i.1aW.v`2`c",
"#J`nam.Ya##N`JaS`e.4#p`a###.#j`c`c#H#F#sa7#b#w`V.V#U.Sas#X`Q.BaJ#J`nam.Ya##N`f.#aJ.xaF.U.6`7.U`c`c.x.x#N#M.6`7aq.V#U.Sas#X`Q`DaJ#J`nam.Ya##N`J.#aJaS.#.#a3a3.Z`c`c.k.k`7aT`t`t#J.V`j.Sas#X`Q`DaJ`c.A#r#ea``u.I.RaN`l`F.c.S`DaJ`e`ca0`m#VaW`W`iaiai#La.`#`#aH.v`c`c.v.M`#`#a.#Laiai`i.1aW#V`ma0`c",
"`cad.Ya##N`JaS`T`e#j```````````c`c`C.E`P.w`Kao`V`Fas#XaMad.BaJ`c`cad.Ya##N`JaS`T`eaiai`5#1aP#x`f.x#Kaiaiawaw.qaq`Fas#XaM#J.BaJ`c`cad.Ya##N`JaS`T`e`c`c`c`c`c`c`c`c`c`c`c`c`c`caq`F.S.haM#J.BaJ`c`cap#ra``u#W#SaI`b`H`n.S.U.a.L`c`c.O.r`m#V#VaW`iai`ia..Ca.`##V`c`c#V`#a.a.`G`iai`iaW#V#V`m.r.O`c",
"`c`caN#N`faJ`e`eaJ`c`c`c`c`c`c`c`c`c`c`c`c`c`c`7aS`T.`#4.8aJ`c`c`c`caN#N`f`e`eaJ`eaiawaP.qahae.F.WaiawawaP.qah`7aS.``T#4.8aJ`c`c`c`caN#N`f`e`eaJ`e`c`c`c`c`c`c`c`c`c`c`c`c`c`c`7aS.`.`#4aYaJ`c`c`c#H#F.u.o#b.T`vaQ`H#U.Uad`e.L`c`c`d#2.raU#V#V.v#g.1a4`Ga.a.aU`c`caUa..C`Gana4#g.v#V#VaU.r#2`d`c",
"`c`c`c.B`e`c`c`c`c`c`c`c`c`c`c`c`c`c`c`c`c`c`c`c`c`c`c.BaJ`c`c`c`c`c`c.B`e`c`c.6aiawaP.qahaj`X.Z.kawaw#1.qahae`X.Z`c`c.B`e`c`c`c`c`c`c.B`e`c`c`c`c`c`c`c`c`c`c`c`c`c`c`c`c`c`c`c`c`c`c.B`e`c`c`c`c`C.E`P.w`K`Z#f.L`Ha5`faN`e```c`c#a`6#2#2.raU#V#VaW.1.1`G`G.r`c`caU`G`G.1.1aW#V#V`m.r#2#2`6#a`c",
"`c`c`c`c`e`c`c`c`c`c`c`c`c`c`c`c`c`c`c`c`c`c`c`c`c`c`c.5`c`c`c`c`c`c`c`c`e`c`c.n#y`YaBae.2`X#i#YaT#yaPaBae.2`X#i#Y`c`c.5`c`c`c`c`c`c`c`c`e`c`c`c`c`c`c`c`c`c`c`c`c`c`c`c`c`c`c`c`c`c`c.5`c`c`c`c`c`c`c`c`c`c`c`c`caM.5`e`e`e`c`c`c#B#a#a`d.Oa0`2#A#A`A#P.z.z#R`c`c#R.z.z#P`A`A`2`2a0.O`d`d#a#B`c",
"`c`c`c`c`c`c`c`c`c`c`c`c`c`c`c`c`c`c`c`c`c`c`c`c`c`c`c`c`c`c`c`c`c`c`c`c`c`c`c`c`z`f`J#Y`t.#`I`c`c`z`z`J#Y`t.F`I`c`c`c`c`c`c`c`c`c`c`c`c`c`c`c`c`c`c`c`c`c`c`c`c`c`c`c`c`c`c`c`c`c`c`c`c`c`c`c`c`c`c`c`c`c`c`c`c`c`c`c`c`c`c`c`c`c`c`c`c`c`c`c`c`c`c`c`c`c`c`c`c`c`c`c`c`c`c`c`c`c`c`c`c`c`c`c`c"
};
