/* XPM */
static const char *mi_dset_48_xpm[] = {
/* width height num_colors chars_per_pixel */
"    48    48      256            2",
/* colors */
"`` c None",
"`. c #a48264",
"`# c #c4c2c4",
"`a c #c4a284",
"`b c #cc8244",
"`c c #8c4e14",
"`d c #bc6a24",
"`e c #cc925c",
"`f c #e4a264",
"`g c #f4e2cc",
"`h c #a46a34",
"`i c #b49274",
"`j c #e4924c",
"`k c #e4b28c",
"`l c #e4c2a4",
"`m c #dc761c",
"`n c #f4d2b4",
"`o c #a45a1c",
"`p c #9c7654",
"`q c #f4f2ec",
"`r c #dc8234",
"`s c #bc824c",
"`t c #d4b294",
"`u c #bc7634",
"`v c #cc966c",
"`w c #e4be9c",
"`x c #d4a27c",
"`y c #945e2c",
"`z c #e4aa7c",
"`A c #eceeec",
"`B c #f4c29c",
"`C c #b46a2c",
"`D c #e49a5c",
"`E c #dc8a44",
"`F c #bc8a5c",
"`G c #ac7644",
"`H c #cc7634",
"`I c #dca684",
"`J c #f4dac4",
"`K c #cc8e54",
"`L c #8c5624",
"`M c #dc9254",
"`N c #e4aa74",
"`O c #bc9a7c",
"`P c #f4b684",
"`Q c #ac621c",
"`R c #f4caac",
"`S c #ac8a6c",
"`T c #ac723c",
"`U c #fcfaf4",
"`V c #dc9e6c",
"`W c #dc8e4c",
"`X c #fce2cc",
"`Y c #c4926c",
"`Z c #ecba8c",
"`0 c #d47e3c",
"`1 c #fcd2ac",
"`2 c #bc7e4c",
"`3 c #cc9e74",
"`4 c #fceadc",
"`5 c #ec9a54",
"`6 c #bc8a6c",
"`7 c #b4621c",
"`8 c #bc7234",
".` c #d49a64",
".. c #ac6a2c",
".# c #ecb27c",
".a c #a47e5c",
".b c #fcf2e4",
".c c #c47e3c",
".d c #f4be9c",
".e c #dca26c",
".f c #9c561c",
".g c #b48664",
".h c #d4823c",
".i c #d4965c",
".j c #eca264",
".k c #ec9654",
".l c #eccaac",
".m c #dc7e2c",
".n c #c4864c",
".o c #dcba9c",
".p c #c4762c",
".q c #ecba94",
".r c #9c6634",
".s c #ecae7c",
".t c #e48a3c",
".u c #b47e4c",
".v c #d4ae8c",
".w c #a4622c",
".x c #fccaa4",
".y c #ac8264",
".z c #c46e2c",
".A c #f4e6dc",
".B c #bc926c",
".C c #e4965c",
".D c #ecc29c",
".E c #dc7a2c",
".F c #a47a5c",
".G c #e4863c",
".H c #9c5e2c",
".I c #f4eadc",
".J c #fcc6a4",
".K c #b4723c",
".L c #c48a54",
".M c #b47644",
".N c #cc7e34",
".O c #d48a4c",
".P c #945624",
".Q c #ecaa6c",
".R c #fcd6bc",
".S c #d49e6c",
".T c #ec9e64",
".U c #ecb68c",
".V c #fcf6f4",
".W c #dca67c",
".X c #c4763c",
".Y c #ac662c",
".Z c #ccaa8c",
".0 c #94521c",
".1 c #bc6e34",
".2 c #cc9664",
".3 c #e4a674",
".4 c #f4e6d4",
".5 c #a46e3c",
".6 c #e49654",
".7 c #dc7a24",
".8 c #f4d6bc",
"#` c #9c7a5c",
"#. c #dc9a64",
"## c #fcdabc",
"#a c #b48a64",
"#b c #dcae84",
"#c c #cca68c",
"#d c #dcb694",
"#e c #d49a6c",
"#f c #c49e84",
"#g c #c48e64",
"#h c #ac5e1c",
"#i c #dc8644",
"#j c #e4ae8c",
"#k c #ac6e3c",
"#l c #bc967c",
"#m c #ecc6ac",
"#n c #b48e74",
"#o c #e48e4c",
"#p c #dc7e34",
"#q c #c4722c",
"#r c #d49e7c",
"#s c #b4967c",
"#t c #f4f6f4",
"#u c #dc863c",
"#v c #bc8654",
"#w c #cc9a74",
"#x c #f4c69c",
"#y c #b46e2c",
"#z c #e49e5c",
"#A c #f4decc",
"#B c #f4ceb4",
"#C c #fcfefc",
"#D c #fce6d4",
"#E c #c4966c",
"#F c #fcd6b4",
"#G c #fceedc",
"#H c #ec9e5c",
"#I c #ecb684",
"#J c #fcf6ec",
"#K c #dca674",
"#L c #9c5a24",
"#M c #d4863c",
"#N c #eca66c",
"#O c #dcbea4",
"#P c #ecbe94",
"#Q c #e48e44",
"#R c #a4662c",
"#S c #fccea4",
"#T c #ac8664",
"#U c #9c622c",
"#V c #f4eee4",
"#W c #c48e5c",
"#X c #b47a44",
"#Y c #945a24",
"#Z c #ecae74",
"#0 c #cc8644",
"#1 c #bc6e24",
"#2 c #e4b68c",
"#3 c #d4a67c",
"#4 c #e4ae7c",
"#5 c #dc8e44",
"#6 c #cc7a34",
"#7 c #dcaa84",
"#8 c #dc9654",
"a` c #bc8e6c",
"a. c #b4661c",
"a# c #d48e4c",
"aa c #c47a3c",
"ab c #8c4e1c",
"ac c #cc9264",
"ad c #e4a26c",
"ae c #f4e2d4",
"af c #a46a3c",
"ag c #e49254",
"ah c #dc7624",
"ai c #f4d2bc",
"aj c #9c765c",
"ak c #bc8254",
"al c #e4bea4",
"am c #cc8e5c",
"an c #f4b68c",
"ao c #ac7244",
"ap c #dc8e54",
"aq c #fce2d4",
"ar c #fcd2b4",
"as c #ec9a5c",
"at c #ac6a34",
"au c #ecb284",
"av c #a47e64",
"aw c #fcf2ec",
"ax c #dca274",
"ay c #d49664",
"az c #c48654",
"aA c #c47634",
"aB c #ecae84",
"aC c #e48a44",
"aD c #d4ae94",
"aE c #ecc2a4",
"aF c #f4eae4",
"aG c #c48a5c",
"aH c #cc7e3c",
"aI c #ecaa74",
"aJ c #d49e74",
"aK c #dcb69c",
"aL c #f4c6a4",
"aM c #b46e34",
"aN c #e49e64",
"aO c #c49674",
"aP c #fceee4",
"aQ c #d48644",
"aR c #ecbe9c",
"aS c #a46634",
"aT c #fcceac",
"aU c #ac866c",
"aV c #9c6234",
"aW c #b47a4c",
"aX c #945a2c",
"aY c #000000",
"aZ c #000000",
"a0 c #000000",
"a1 c #000000",
"a2 c #000000",
"a3 c #000000",
"a4 c #000000",
"a5 c #000000",
"a6 c #000000",
"a7 c #000000",
"a8 c #000000",
/* pixels */
"````````````````````````````````````````````````````````````````````````````````````````````````",
"````````````````````````````````````````````````````````````````````````````````````````````````",
"````````````````````````````````````````````````````````````````````````````````````````````````",
"````````````````````````````````````````````````````````````````````````````````````````````````",
"````````````````````````````````````````````````````````````````````````````````````````````````",
"`````````````X.J.J`B`B`B.d.d.d.q.d.q.U.U.U#2.U`k#j#j#j#b#j#7`I`I`I#3`I`x`x#r#r`3al``````````````",
"``````````.J#H`D`Das`D.C.C#8`M`M`Map`Ma#.O.O.O.OaQ#0aQ`b`b`b`b.caHaaaaaa.X`u.X`8`8#r````````````",
"`````````X.T`j`j`j#o`W#Q`E`E`E`E#u#M.h.h.h`0`0aH#6aH#6#6`H.p.p#q#q#q.z#1#1#1`d`d`d`8#O``````````",
"````````.x.T`j`j`j#o#5#5`E`E`E#iaQ#i.h.h.h.haH`0#6#6#6#6.p`H.p`H#q#q.1.z#1.z`d`da.`8#w``````````",
"````````.x.j`j`j`j`D`D.C`D.6`M`M`Map`Map.O.O.O.O.OaQ#0`b`b`baH.c#6.caaaaaA.1`d`d`d.1#w``````````",
"````````.x.j.6.6.6.j#C#C#C#C#C#C#C#C#C#C#C#C#C#C#C#C#C#C#C#C#C#C#C#C#C#C#C.1`7`7`7.1#w``````````",
"````````.x.j.k.6.k.j#C`U`U`U`U`U`U`U`U`U`U`U`U.V`U`U`U`U`U`U`U`U`U`U`U`U`A`8a.a.a..1#E``````````",
"````````.x.j.6.k`j.j#C`U#t.V#t.V#t.V#t.V#t.V#t`U#t.V#t.A.laE`z`zaN.3.q`J#taM`7`7`7aM`v``````````",
"````````.x#N`5.6`5#N#C`U.V#t`U`U#t`U`U#t`U`U#t`U.Aau#iahahahahahahah#p`z`U`C`7`7#haM#E``````````",
"````````.x#N`D`5`D.j#C`U#t`U`U#t`U#t`U.V#t`U.Aadahahahah`mah`m`m`mah.EaI.V`C#h`Q`7`C`Y``````````",
"````````.x#N`5`D`5#N#C`U`U#t`U.V`U.V#t`U`qaBahahah`m`m`mah`maCaBaEaL.8#V`Uat`7#h#h`C`Y``````````",
"````````aT#N`5`D`5#N#C`U#t`U.V#t#t`U`U.A#iah`mah`mah`E.q#A#C#C#C#C#C#C#C.Vat#h#h`Qat`Y``````````",
"````````aT#N#H#z#H#N#C`U.V#t`U`U`U#tai.Eah`m`m.Eau.A#C#C#C#C#C#C#C`U#D.A`U.Y#h#h#h.Ya```````````",
"````````aT#N#H#H#z#N#C`U#t`U#t`U#t.lahah`m`E`J#C#C#C#C#DaL#N`j.Gahah.maI#tat#h`o#h.Ya```````````",
"````````aT#N#H#z#H.Q#C`U.V`U#t`U#Aahah`r#B#C.V`nau.Cah`mah`mahah`m`m.E`z.V.Y`o#h`o.Ya```````````",
"````````aTaI#H.T#HaI#C`U#t`U.VaF#p.E.q#A.q.6`mah`m`mah`m`mah`m`mahah.E`z`U.Y`o`o`o.Y#a``````````",
"````````aTaI.j`f.TaI#C`U.V#t.Vap.GaN#p`m`mah`mah`mah`mah`m`m#pag.3aI`R`J#taS`o`o`oaS#a``````````",
"````````aTaI.j.j.jaI#C`U#t`UaE`m`m`m`mah`m`mah`mah#iaBaE#A.V#C#C#C#C#C#C`U.w`o#L`o.w.g``````````",
"````````ar#Z.j.j`f#Z#C`U`U`q#pahah`mah`mah`mag.qaP#C#C#C#C#C#C#C#C#C#C#C.V.w.f`o.f.w.g``````````",
"````````ar#Z.j.j.j.s#C.V#taRah`m`mahah`D`Raw#C#C#C#C#C.V##`RauaI`j`j`raI#t.w.f.f`o.H.g``````````",
"````````ar#Z.j#N#N#Z#C`U`UaCah`m.Eauaw#C#C#Caw`J.d`f.Gahah`mahah`mah.E`z`U.w.f.f.f`o#T``````````",
"````````ar.s#N#N.j.s#C`Uaeah.EaE.V#C`4`BaN.Gah`m`mah`m`mah`m`mah`mah.EaI#t.H.f.f.f.H.y``````````",
"````````ar.s#N#N.Q.##C.V.q`zaP`naI#uahahah`mah`m`mah`mah`mah`m`m.z`m.E`z.V.H.0.0.f.H.y``````````",
"````````ar`P#N#N#N.##C`U.Uag`mah`mah`m`mah`m`mah`m.z`mahaC.3.q`Raqaqaw#C`U.H.f.0.f#Y.y``````````",
"````````ar.s.Q.Q#Nau#C`U#i`mah`mah`mah`m`mah.zah.T.Jaq#C#C#C#C#C#C#C#C#C.VaX.0.0.0#L.a``````````",
"````````ar`P#NaIaI`P#Cawah`mah`m`mah.z`m.EaB`X#C#C#C#C#C#C#C#C#Cawaq`X.8`UaX.0.0.0#Y.a``````````",
"````````.RauaIaIaIau#C.Aah`m`m.z`m`m.T.R#C#C#C#C#C#CaP`n.Uas#oah`m`mahag#t#Y.0`c.0#Y.F``````````",
"````````ar`PaIaIaI#I#C.A#p.E#p.GaI`4#C#C#C`4#B.q.T#u#p.m#p#p`r.m#p.E`r`N.VaX.0`c`c#L.F``````````",
"````````.R#IaI#Z#Z`P#CaP`zaI#m.V#CaP`J`BaB`zaI`NaI`NaIaI`NaI`NaI`N.3aB.l`U.P`c.0.0`L`p``````````",
"````````.R`P#Z#ZaI#I.V#C#C#C#C#C#C#C#C#C#C#C#C#C#C#C#C#C#C#C#C#C#C#C#C#C`U`Lab`c`c.0aj``````````",
"````````.R`P.s.s.s`P`X`##t`U`U`U`U`U`U`U`U`U`U`U`U.V`U.V`U.V`U.V`U.V`U`U#t`Lab`cab`Laj``````````",
"````````.R.UaI`N.3.3#K.3.WaxaJ#e#e`vacac#gaGaG`Fakak.gaWaW`G`Gaoao.5af.r.raV.P.0`L.Paj``````````",
"````````.R`P#4#N.3ad.e`V#..`ayayamamamazazaz`2`2`2#X.M.M`Tao#kafaSaSaVaV.H#LaX.P.0`Laj``````````",
"````````###IaI`N.3.e`V`V#.#eay.iamam`KaGaz.nak`2`2#X.M.M.K#k#kat`h#R#U.H.H#Y.P.P`L.Paj``````````",
"`````````4an`z`N.3ad.e`V#..`ay.iamam`Kazaz.n`2`2`2`u#X.K`T`T#k`haSaS.w#U.H#L#Y.P.0`L#s``````````",
"``````````#Bauau#4#4`z.W#Kax.S#e#e`vacac#WaGaG#v#vak.u.uaW.M`Gao.5.5af.r.raV`y`yaXaj````````````",
"````````````#G#B#B`R#m#m`laRalal.o#d#d`taD.v.Z#c#c`a#f#f`O#l#l`i#n#n`S`SaU`.`.av#s``````````````",
"````````````````````````````````````````````````````````````````````````````````````````````````",
"````````````````````````````````````````````````````````````````````````````````````````````````",
"````````````````````````````````````````````````````````````````````````````````````````````````",
"````````````````````````````````````````````````````````````````````````````````````````````````",
"````````````````````````````````````````````````````````````````````````````````````````````````",
"````````````````````````````````````````````````````````````````````````````````````````````````"
};
