/* XPM */
static const char *next16_xpm[] = {
/* width height num_colors chars_per_pixel */
"    15    16      256            2",
/* colors */
"`` c None",
"`. c #c3d5b1",
"`# c #86ac62",
"`a c #ffffff",
"`b c #b6cda1",
"`c c #adcd8e",
"`d c #88af63",
"`e c #f9fbf8",
"`f c #a6ca84",
"`g c #a7cc85",
"`h c #85ad60",
"`i c #f1f5ed",
"`j c #e5edde",
"`k c #e1ead8",
"`l c #a3bf88",
"`m c #a1c87d",
"`n c #90c063",
"`o c #9ec778",
"`p c #88b062",
"`q c #e3ecdb",
"`r c #80a958",
"`s c #92bc6b",
"`t c #94bd6e",
"`u c #95bd6f",
"`v c #96be70",
"`w c #a1c97b",
"`x c #8abc5a",
"`y c #87bb57",
"`z c #94c269",
"`A c #8cb365",
"`B c #d0dec1",
"`C c #90b869",
"`D c #7db548",
"`E c #80b64c",
"`F c #82b84f",
"`G c #84b952",
"`H c #86ba53",
"`I c #85bb52",
"`J c #84ba51",
"`K c #81b84d",
"`L c #7eb549",
"`M c #87ba57",
"`N c #b9cfa3",
"`O c #8db565",
"`P c #77b13f",
"`Q c #79b343",
"`R c #7db546",
"`S c #7fb949",
"`T c #81bb4a",
"`U c #82bd4a",
"`V c #81bb48",
"`W c #7eb945",
"`X c #7ab541",
"`Y c #75b03c",
"`Z c #8fba67",
"`0 c #a4c189",
"`1 c #8bb562",
"`2 c #70ad36",
"`3 c #74b03a",
"`4 c #78b63d",
"`5 c #7bba40",
"`6 c #7ebd42",
"`7 c #7bbd3c",
"`8 c #6eb62a",
".` c #64af1c",
".. c #5aa811",
".# c #529f08",
".a c #559e10",
".b c #60a520",
".c c #89b75b",
".d c #93b572",
".e c #83b059",
".f c #5aa117",
".g c #5fa819",
".h c #63ae1b",
".i c #66b31c",
".j c #64b417",
".k c #5eb30d",
".l c #5eb20d",
".m c #5caf0c",
".n c #59aa0b",
".o c #55a409",
".p c #509d07",
".q c #529c0c",
".r c #7db14d",
".s c #8eb36c",
".t c #7eac52",
".u c #509e07",
".v c #55a509",
".w c #5aad0b",
".x c #61b70e",
".y c #63ba0f",
".z c #62b90f",
".A c #60b50e",
".B c #5cb00c",
".C c #58a90a",
".D c #5ba514",
".E c #80b152",
".F c #9ebd80",
".G c #52a108",
".H c #5db10c",
".I c #62b80f",
".J c #66be10",
".K c #68c111",
".L c #67c011",
".M c #64bb0f",
".N c #5fb40d",
".O c #67b31e",
".P c #83b455",
".Q c #b3cb9c",
".R c #72a047",
".S c #7eb04e",
".T c #80b350",
".U c #83b650",
".V c #84ba52",
".W c #87bd52",
".X c #8ad146",
".Y c #6bc613",
".Z c #67bf11",
".0 c #74c12b",
".1 c #84b355",
".2 c #c9dab8",
".3 c #edf2e8",
".4 c #b8cea3",
".5 c #8acc48",
".6 c #6ecb14",
".7 c #80ca38",
".8 c #81b153",
"#` c #dee8d3",
"#. c #c4d7b3",
"## c #89cb48",
"#a c #89d143",
"#b c #81b053",
"#c c #eef3e9",
"#d c #93c95f",
"#e c #84b15a",
"#f c #f8faf6",
"#g c #ceddc0",
"#h c #82ac59",
"#i c #fdfefd",
"#j c #000000",
"#k c #000000",
"#l c #000000",
"#m c #000000",
"#n c #000000",
"#o c #000000",
"#p c #000000",
"#q c #000000",
"#r c #000000",
"#s c #000000",
"#t c #000000",
"#u c #000000",
"#v c #000000",
"#w c #000000",
"#x c #000000",
"#y c #000000",
"#z c #000000",
"#A c #000000",
"#B c #000000",
"#C c #000000",
"#D c #000000",
"#E c #000000",
"#F c #000000",
"#G c #000000",
"#H c #000000",
"#I c #000000",
"#J c #000000",
"#K c #000000",
"#L c #000000",
"#M c #000000",
"#N c #000000",
"#O c #000000",
"#P c #000000",
"#Q c #000000",
"#R c #000000",
"#S c #000000",
"#T c #000000",
"#U c #000000",
"#V c #000000",
"#W c #000000",
"#X c #000000",
"#Y c #000000",
"#Z c #000000",
"#0 c #000000",
"#1 c #000000",
"#2 c #000000",
"#3 c #000000",
"#4 c #000000",
"#5 c #000000",
"#6 c #000000",
"#7 c #000000",
"#8 c #000000",
"a` c #000000",
"a. c #000000",
"a# c #000000",
"aa c #000000",
"ab c #000000",
"ac c #000000",
"ad c #000000",
"ae c #000000",
"af c #000000",
"ag c #000000",
"ah c #000000",
"ai c #000000",
"aj c #000000",
"ak c #000000",
"al c #000000",
"am c #000000",
"an c #000000",
"ao c #000000",
"ap c #000000",
"aq c #000000",
"ar c #000000",
"as c #000000",
"at c #000000",
"au c #000000",
"av c #000000",
"aw c #000000",
"ax c #000000",
"ay c #000000",
"az c #000000",
"aA c #000000",
"aB c #000000",
"aC c #000000",
"aD c #000000",
"aE c #000000",
"aF c #000000",
"aG c #000000",
"aH c #000000",
"aI c #000000",
"aJ c #000000",
"aK c #000000",
"aL c #000000",
"aM c #000000",
"aN c #000000",
"aO c #000000",
"aP c #000000",
"aQ c #000000",
"aR c #000000",
"aS c #000000",
"aT c #000000",
"aU c #000000",
"aV c #000000",
"aW c #000000",
"aX c #000000",
"aY c #000000",
"aZ c #000000",
"a0 c #000000",
"a1 c #000000",
"a2 c #000000",
"a3 c #000000",
"a4 c #000000",
"a5 c #000000",
"a6 c #000000",
"a7 c #000000",
"a8 c #000000",
/* pixels */
"```````````.`#`a``````````````",
"```````````b`c`d`e````````````",
"```````````b`f`g`h`i``````````",
"`j`k`k`k`k`l`m`n`o`p`q````````",
"`r`s`t`u`v`v`w`x`y`z`A`B``````",
"`C`D`E`F`G`H`I`J`K`L`M`C`N````",
"`O`P`Q`R`S`T`U`V`W`X`Y`Q`Z`0``",
"`1`2`3`4`5`6`7`8.`...#.a.b.c.d",
".e.f.g.h.i.j.k.l.m.n.o.p.q.r.s",
".t.u.v.w.k.x.y.z.A.B.C.D.E.F``",
".t.G.C.H.I.J.K.L.M.N.O.P.Q````",
".R.S.T.U.V.W.X.Y.Z.0.1.2``````",
"`i.3.3.3.3.4.5.6.7.8#`````````",
"``````````#.###a#b#c``````````",
"``````````#.#d#e#f````````````",
"``````````#g#h#i``````````````"
};
