/* XPM */
static const char *open_xpm[] = {
/* width height num_colors chars_per_pixel */
"    16    16      256            2",
/* colors */
"`` c None",
"`. c #6e8bb4",
"`# c #a0b4d2",
"`a c #87a0c3",
"`b c #6f90ba",
"`c c #a1b4cf",
"`d c #b7b7b7",
"`e c #bbbbbb",
"`f c #b9b9b9",
"`g c #b8b8b8",
"`h c #b6b6b6",
"`i c #88a1c4",
"`j c #416faa",
"`k c #6185b6",
"`l c #869fc1",
"`m c #b0b0b0",
"`n c #a1a1a1",
"`o c #9b9b9b",
"`p c #989898",
"`q c #949494",
"`r c #929292",
"`s c #9a9a9a",
"`t c #8aa2c4",
"`u c #819bc1",
"`v c #7796bf",
"`w c #4c77ae",
"`x c #3465a4",
"`y c #527bb1",
"`z c #7a95bc",
"`A c #acacac",
"`B c #8e8e8e",
"`C c #8a8a8a",
"`D c #878787",
"`E c #787f89",
"`F c #6a86ac",
"`G c #7293bf",
"`H c #6288b9",
"`I c #5b83b6",
"`J c #537db2",
"`K c #3868a6",
"`L c #577fb4",
"`M c #708cb5",
"`N c #a7a7a7",
"`O c #8f8f8f",
"`P c #888888",
"`Q c #838383",
"`R c #7f7f7f",
"`S c #7c7c7c",
"`T c #5b769c",
"`U c #7e9dc5",
"`V c #7193bf",
"`W c #698ebc",
"`X c #5a82b5",
"`Y c #4370ab",
"`Z c #6f8db7",
"`0 c #a2a2a2",
"`1 c #898886",
"`2 c #baa06b",
"`3 c #c7b27e",
"`4 c #c6b17d",
"`5 c #a59e7f",
"`6 c #7e9abe",
"`7 c #7f9ec6",
"`8 c #7f9dc5",
".` c #7e96b2",
".. c #748caa",
".# c #698dbc",
".a c #507ab0",
".b c #627fa2",
".c c #c5b890",
".d c #ceb47f",
".e c #a0a0a0",
".f c #87827c",
".g c #d7c483",
".h c #e6d97d",
".i c #9ca483",
".j c #8faacc",
".k c #89a5c9",
".l c #798f97",
".m c #e3d77d",
".n c #88988d",
".o c #7295c0",
".p c #6d88a6",
".q c #cec87f",
".r c #e6d87b",
".s c #d8c288",
".t c #9d9d9d",
".u c #857c6f",
".v c #e0cf88",
".w c #97a284",
".x c #8ca7ca",
".y c #839cb7",
".z c #ddd37d",
".A c #8c9989",
".B c #7590aa",
".C c #cac67f",
".D c #e5d673",
".E c #d9c48e",
".F c #999999",
".G c #897b64",
".H c #e5d68c",
".I c #ded37d",
".J c #7c96b1",
".K c #879fb1",
".L c #b4b580",
".M c #c8c47f",
".N c #e6d97c",
".O c #e4d572",
".P c #dac593",
".Q c #969696",
".R c #927f5d",
".S c #e9dc8f",
".T c #949f89",
".U c #a1b0b2",
".V c #acb082",
".W c #e5d778",
".X c #e4d672",
".Y c #e4d570",
".Z c #e5d777",
".0 c #d9c494",
".1 c #98835c",
".2 c #e9dd8a",
".3 c #e6d87a",
".4 c #a4aa81",
".5 c #819394",
".6 c #b4b47c",
".7 c #e6d879",
".8 c #d8c294",
"#` c #919191",
"#. c #9f895c",
"## c #e7da7f",
"#a c #d5cb72",
"#b c #bfbb78",
"#c c #c8c173",
"#d c #d8c396",
"#e c #a28c59",
"#f c #e1cf67",
"#g c #e0cd63",
"#h c #e0cd62",
"#i c #e0cd61",
"#j c #e0cc61",
"#k c #dfcc60",
"#l c #dfcb5f",
"#m c #dfcb5e",
"#n c #dfca5e",
"#o c #deca5d",
"#p c #e0cc64",
"#q c #d7c298",
"#r c #a58b4e",
"#s c #d9c04c",
"#t c #d9bf4a",
"#u c #d8bf49",
"#v c #d8be49",
"#w c #d8be48",
"#x c #d8be47",
"#y c #d8bd47",
"#z c #d8bd46",
"#A c #d7bd46",
"#B c #d7bc45",
"#C c #d6bb45",
"#D c #dac5a0",
"#E c #9f978c",
"#F c #ab853e",
"#G c #b69641",
"#H c #b59540",
"#I c #b59440",
"#J c #b4933f",
"#K c #b4933e",
"#L c #b3923d",
"#M c #b3933e",
"#N c #b4943f",
"#O c #bb9a45",
"#P c #c6a664",
"#Q c #000000",
"#R c #000000",
"#S c #000000",
"#T c #000000",
"#U c #000000",
"#V c #000000",
"#W c #000000",
"#X c #000000",
"#Y c #000000",
"#Z c #000000",
"#0 c #000000",
"#1 c #000000",
"#2 c #000000",
"#3 c #000000",
"#4 c #000000",
"#5 c #000000",
"#6 c #000000",
"#7 c #000000",
"#8 c #000000",
"a` c #000000",
"a. c #000000",
"a# c #000000",
"aa c #000000",
"ab c #000000",
"ac c #000000",
"ad c #000000",
"ae c #000000",
"af c #000000",
"ag c #000000",
"ah c #000000",
"ai c #000000",
"aj c #000000",
"ak c #000000",
"al c #000000",
"am c #000000",
"an c #000000",
"ao c #000000",
"ap c #000000",
"aq c #000000",
"ar c #000000",
"as c #000000",
"at c #000000",
"au c #000000",
"av c #000000",
"aw c #000000",
"ax c #000000",
"ay c #000000",
"az c #000000",
"aA c #000000",
"aB c #000000",
"aC c #000000",
"aD c #000000",
"aE c #000000",
"aF c #000000",
"aG c #000000",
"aH c #000000",
"aI c #000000",
"aJ c #000000",
"aK c #000000",
"aL c #000000",
"aM c #000000",
"aN c #000000",
"aO c #000000",
"aP c #000000",
"aQ c #000000",
"aR c #000000",
"aS c #000000",
"aT c #000000",
"aU c #000000",
"aV c #000000",
"aW c #000000",
"aX c #000000",
"aY c #000000",
"aZ c #000000",
"a0 c #000000",
"a1 c #000000",
"a2 c #000000",
"a3 c #000000",
"a4 c #000000",
"a5 c #000000",
"a6 c #000000",
"a7 c #000000",
"a8 c #000000",
/* pixels */
"`````````````````````.`#````````",
"`````````````````````a`b`c``````",
"`d`e`f`g`d`h`h```````i`j`k`l````",
"`m`n`o`p`q`r`s```t`u`v`w`x`y`z``",
"`A`p`r`B`C`D`E`F`G`H`I`J`K`x`L`M",
"`N`O`P`Q`R`S`T`U`V`W`H`X`j`Y`Z``",
"`0`1`2`3`4`5`6`7`8.`...#.a.b.c.d",
".e.f.g.h.h.i.j.k.l.m.n.o.p.q.r.s",
".t.u.v.h.h.w.x.y.z.h.A.B.C.h.D.E",
".F.G.H.h.h.I.J.K.h.h.L.M.N.D.O.P",
".Q.R.S.h.h.h.T.U.V.h.r.W.X.Y.Z.0",
"`q.1.2.h.N.3.W.4.5.6.Y.Y.Y.Y.7.8",
"#`#.##.D.Y.Y.Y.Y#a#b#c.Y.Y.Y.7#d",
"#`#e#f#g#h#i#j#k#k#l#l#m#n#o#p#q",
"`r#r#s#t#t#u#v#w#w#x#y#z#A#B#C#D",
"#E#F#G#H#I#J#K#L#L#L#M#J#N#O#P``"
};
