/* XPM */
static const char *previous16_xpm[] = {
/* width height num_colors chars_per_pixel */
"    15    16      256            2",
/* colors */
"`` c None",
"`. c #fefefe",
"`# c #7fa859",
"`a c #cbdbbc",
"`b c #f9fbf7",
"`c c #86ae62",
"`d c #a1c67f",
"`e c #c0d4ae",
"`f c #f1f5ed",
"`g c #87ae61",
"`h c #aacd89",
"`i c #9dc478",
"`j c #e3ecdb",
"`k c #8bb367",
"`l c #abd08b",
"`m c #96c36b",
"`n c #9cc477",
"`o c #ffffff",
"`p c #fdfefd",
"`q c #fcfdfc",
"`r c #fbfcfa",
"`s c #fcfdfb",
"`t c #d0dfc2",
"`u c #91b96c",
"`v c #a8ce86",
"`w c #97c46d",
"`x c #93c167",
"`y c #a3ca7f",
"`z c #95bc72",
"`A c #94ba70",
"`B c #92b96c",
"`C c #90b869",
"`D c #8db665",
"`E c #77a34e",
"`F c #bcd1a8",
"`G c #96bd73",
"`H c #a0c979",
"`I c #92c164",
"`J c #8fc060",
"`K c #8bbe5a",
"`L c #86bb54",
"`M c #80b64c",
"`N c #7bb445",
"`O c #76b13e",
"`P c #70ae36",
"`Q c #8bb564",
"`R c #a9c48e",
"`S c #99c075",
"`T c #94c268",
"`U c #8cbe5e",
"`V c #8ec05d",
"`W c #8dc25c",
"`X c #8bc159",
"`Y c #89c054",
"`Z c #84bd4e",
"`0 c #7fb948",
"`1 c #78b341",
"`2 c #72af39",
"`3 c #6dac32",
"`4 c #8bb563",
"`5 c #97b977",
"`6 c #97c172",
"`7 c #88bb58",
"`8 c #84b953",
".` c #87bd54",
".. c #89c055",
".# c #89c253",
".a c #89c351",
".b c #85c14c",
".c c #7abb3b",
".d c #6fb42f",
".e c #6db02e",
".f c #6cac2f",
".g c #69aa2c",
".h c #89b461",
".i c #88af64",
".j c #87b75a",
".k c #70ad36",
".l c #76b33e",
".m c #7db943",
".n c #78ba39",
".o c #70b92a",
".p c #68b71c",
".q c #5fb40f",
".r c #5db10c",
".s c #5aad0b",
".t c #57a80a",
".u c #53a108",
".v c #539d0c",
".w c #83af59",
".x c #98b978",
".y c #7fb050",
".z c #5ca615",
".A c #58a90a",
".B c #5caf0c",
".C c #60b50e",
".D c #62b90f",
".E c #63ba0f",
".F c #61b70e",
".G c #5eb30d",
".H c #56a509",
".I c #509e07",
".J c #81ae56",
".K c #afc896",
".L c #82b254",
".M c #68b320",
".N c #5fb40d",
".O c #64bb0f",
".P c #67bf11",
".Q c #68c111",
".R c #66be10",
".S c #62b80f",
".T c #52a108",
".U c #c6d9b5",
".V c #81b253",
".W c #75c02c",
".X c #6bc613",
".Y c #8ad244",
".Z c #85c04c",
".0 c #83bc4b",
".1 c #80b849",
".2 c #7db449",
".3 c #7baf47",
".4 c #72a146",
".5 c #dce7d1",
".6 c #80b052",
".7 c #80ca38",
".8 c #6ecb14",
"#` c #87cb44",
"#. c #acc694",
"## c #e1ead8",
"#a c #e5edde",
"#b c #edf3e8",
"#c c #80af53",
"#d c #8ad144",
"#e c #86ca44",
"#f c #c2d6ae",
"#g c #f8faf6",
"#h c #85b15b",
"#i c #91c75c",
"#j c #c1d6ae",
"#k c #83ac5a",
"#l c #ccdcbc",
"#m c #000000",
"#n c #000000",
"#o c #000000",
"#p c #000000",
"#q c #000000",
"#r c #000000",
"#s c #000000",
"#t c #000000",
"#u c #000000",
"#v c #000000",
"#w c #000000",
"#x c #000000",
"#y c #000000",
"#z c #000000",
"#A c #000000",
"#B c #000000",
"#C c #000000",
"#D c #000000",
"#E c #000000",
"#F c #000000",
"#G c #000000",
"#H c #000000",
"#I c #000000",
"#J c #000000",
"#K c #000000",
"#L c #000000",
"#M c #000000",
"#N c #000000",
"#O c #000000",
"#P c #000000",
"#Q c #000000",
"#R c #000000",
"#S c #000000",
"#T c #000000",
"#U c #000000",
"#V c #000000",
"#W c #000000",
"#X c #000000",
"#Y c #000000",
"#Z c #000000",
"#0 c #000000",
"#1 c #000000",
"#2 c #000000",
"#3 c #000000",
"#4 c #000000",
"#5 c #000000",
"#6 c #000000",
"#7 c #000000",
"#8 c #000000",
"a` c #000000",
"a. c #000000",
"a# c #000000",
"aa c #000000",
"ab c #000000",
"ac c #000000",
"ad c #000000",
"ae c #000000",
"af c #000000",
"ag c #000000",
"ah c #000000",
"ai c #000000",
"aj c #000000",
"ak c #000000",
"al c #000000",
"am c #000000",
"an c #000000",
"ao c #000000",
"ap c #000000",
"aq c #000000",
"ar c #000000",
"as c #000000",
"at c #000000",
"au c #000000",
"av c #000000",
"aw c #000000",
"ax c #000000",
"ay c #000000",
"az c #000000",
"aA c #000000",
"aB c #000000",
"aC c #000000",
"aD c #000000",
"aE c #000000",
"aF c #000000",
"aG c #000000",
"aH c #000000",
"aI c #000000",
"aJ c #000000",
"aK c #000000",
"aL c #000000",
"aM c #000000",
"aN c #000000",
"aO c #000000",
"aP c #000000",
"aQ c #000000",
"aR c #000000",
"aS c #000000",
"aT c #000000",
"aU c #000000",
"aV c #000000",
"aW c #000000",
"aX c #000000",
"aY c #000000",
"aZ c #000000",
"a0 c #000000",
"a1 c #000000",
"a2 c #000000",
"a3 c #000000",
"a4 c #000000",
"a5 c #000000",
"a6 c #000000",
"a7 c #000000",
"a8 c #000000",
/* pixels */
"```````````````.`#`a``````````",
"`````````````b`c`d`e``````````",
"```````````f`g`h`i`e``````````",
"`````````j`k`l`m`n`e`o`p`q`r`s",
"```````t`u`v`w`x`y`z`A`B`C`D`E",
"`````F`G`H`x`I`J`K`L`M`N`O`P`Q",
"```R`S`T`U`V`W`X`Y`Z`0`1`2`3`4",
"`5`6`7`8.`...#.a.b.c.d.e.f.g.h",
".i.j.k.l.m.n.o.p.q.r.s.t.u.v.w",
"``.x.y.z.A.B.C.D.E.F.G.s.H.I.J",
"````.K.L.M.N.O.P.Q.R.S.r.A.T.J",
"``````.U.V.W.P.X.Y.Z.0.1.2.3.4",
"````````.5.6.7.8#`#.#########a",
"``````````#b#c#d#e#f``````````",
"````````````#g#h#i#j``````````",
"```````````````p#k#l``````````"
};
