/* XPM */
static const char *refresh_xpm[] = {
/* width height num_colors chars_per_pixel */
"    16    16      256            2",
/* colors */
"`` c None",
"`. c #90abce",
"`# c #688ebd",
"`a c #648abb",
"`b c #658cbc",
"`c c #89a6cb",
"`d c #5c8fc6",
"`e c #688dbc",
"`f c #a2bcda",
"`g c #b8cfe6",
"`h c #b8cee7",
"`i c #b7cde6",
"`j c #b5cde5",
"`k c #a3bedc",
"`l c #81a2ca",
"`m c #8aa7cb",
"`n c #6a8fbd",
"`o c #638abb",
"`p c #b7cde5",
"`q c #bad0e6",
"`r c #b8cee6",
"`s c #b3cbe5",
"`t c #adc8e3",
"`u c #aac5e2",
"`v c #acc5e0",
"`w c #789bc5",
"`x c #7396c1",
"`y c #8baace",
"`z c #7195c0",
"`A c #8fabce",
"`B c #9bb6d7",
"`C c #799bc5",
"`D c #5c84b7",
"`E c #537eb4",
"`F c #5e85b7",
"`G c #7598c3",
"`H c #96b3d4",
"`I c #aec7e3",
"`J c #9dbcdd",
"`K c #8cb1d8",
"`L c #90b3d8",
"`M c #94b2d5",
"`N c #98b9db",
"`O c #7496c2",
"`P c #5b84b7",
"`Q c #5982b7",
"`R c #4c7ab1",
"`S c #5982b6",
"`T c #688dbd",
"`U c #89a8cf",
"`V c #8aafd6",
"`W c #79a4d2",
"`X c #77a2d1",
"`Y c #8bb0d8",
"`Z c #4270ab",
"`0 c #5c85bb",
"`1 c #9bb6da",
"`2 c #7e9ec6",
"`3 c #9ab3d3",
"`4 c #7d9ec6",
"`5 c #8eb2d8",
"`6 c #73a0cf",
"`7 c #8db1d8",
"`8 c #789ac4",
".` c #4673ac",
".. c #7093c0",
".# c #98b7d9",
".a c #7ca6d2",
".b c #78a3d1",
".c c #91b4da",
".d c #799ac4",
".e c #82a0c7",
".f c #b8c9df",
".g c #b5c7de",
".h c #b3c6dd",
".i c #b1c4dc",
".j c #aec2db",
".k c #aec1db",
".l c #7799c3",
".m c #7a9bc4",
".n c #8eacd0",
".o c #91aed1",
".p c #96b1d2",
".q c #99b4d4",
".r c #7698c3",
".s c #678bbb",
".t c #a8bfda",
".u c #a5bcd9",
".v c #a3bad8",
".w c #a0b9d6",
".x c #7495c0",
".y c #87a4ca",
".z c #7294c0",
".A c #a8c4e1",
".B c #98b9dc",
".C c #9ebdde",
".D c #9eb8d7",
".E c #7698c2",
".F c #4774ad",
".G c #7193bf",
".H c #a7c3e0",
".I c #a6c1df",
".J c #7d9ec5",
".K c #7c9bc5",
".L c #6087ba",
".M c #3b6ba8",
".N c #6f91be",
".O c #a6c2e0",
".P c #9bbcdd",
".Q c #96b8db",
".R c #9ab9db",
".S c #80a2cb",
".T c #4e79b1",
".U c #5d88bd",
".V c #396aa7",
".W c #557fb4",
".X c #6d90be",
".Y c #b2c9e3",
".Z c #9db8d7",
".0 c #a0bdde",
".1 c #719ecf",
".2 c #6b9acd",
".3 c #749fcd",
".4 c #6890c1",
".5 c #5a84b8",
".6 c #4572ad",
".7 c #406eaa",
".8 c #406fab",
"#` c #4b7bb5",
"#. c #4375b0",
"## c #6b8fbd",
"#a c #85a4ca",
"#b c #6d91be",
"#c c #5d85b7",
"#d c #7ba0cb",
"#e c #729fcf",
"#f c #6496cb",
"#g c #6194ca",
"#h c #6395ca",
"#i c #6396ca",
"#j c #5c90c7",
"#k c #588ec7",
"#l c #487db9",
"#m c #4674ad",
"#n c #577fb3",
"#o c #8aa7cc",
"#p c #5780b5",
"#q c #5b85b7",
"#r c #6792c3",
"#s c #6694c7",
"#t c #6394c8",
"#u c #5286bf",
"#v c #4676b2",
"#w c #4471ac",
"#x c #6b8ebc",
"#y c #5e86b8",
"#z c #000000",
"#A c #000000",
"#B c #000000",
"#C c #000000",
"#D c #000000",
"#E c #000000",
"#F c #000000",
"#G c #000000",
"#H c #000000",
"#I c #000000",
"#J c #000000",
"#K c #000000",
"#L c #000000",
"#M c #000000",
"#N c #000000",
"#O c #000000",
"#P c #000000",
"#Q c #000000",
"#R c #000000",
"#S c #000000",
"#T c #000000",
"#U c #000000",
"#V c #000000",
"#W c #000000",
"#X c #000000",
"#Y c #000000",
"#Z c #000000",
"#0 c #000000",
"#1 c #000000",
"#2 c #000000",
"#3 c #000000",
"#4 c #000000",
"#5 c #000000",
"#6 c #000000",
"#7 c #000000",
"#8 c #000000",
"a` c #000000",
"a. c #000000",
"a# c #000000",
"aa c #000000",
"ab c #000000",
"ac c #000000",
"ad c #000000",
"ae c #000000",
"af c #000000",
"ag c #000000",
"ah c #000000",
"ai c #000000",
"aj c #000000",
"ak c #000000",
"al c #000000",
"am c #000000",
"an c #000000",
"ao c #000000",
"ap c #000000",
"aq c #000000",
"ar c #000000",
"as c #000000",
"at c #000000",
"au c #000000",
"av c #000000",
"aw c #000000",
"ax c #000000",
"ay c #000000",
"az c #000000",
"aA c #000000",
"aB c #000000",
"aC c #000000",
"aD c #000000",
"aE c #000000",
"aF c #000000",
"aG c #000000",
"aH c #000000",
"aI c #000000",
"aJ c #000000",
"aK c #000000",
"aL c #000000",
"aM c #000000",
"aN c #000000",
"aO c #000000",
"aP c #000000",
"aQ c #000000",
"aR c #000000",
"aS c #000000",
"aT c #000000",
"aU c #000000",
"aV c #000000",
"aW c #000000",
"aX c #000000",
"aY c #000000",
"aZ c #000000",
"a0 c #000000",
"a1 c #000000",
"a2 c #000000",
"a3 c #000000",
"a4 c #000000",
"a5 c #000000",
"a6 c #000000",
"a7 c #000000",
"a8 c #000000",
/* pixels */
"```````.`#`a`a`b`c```````````d``",
"`````e`f`g`h`i`j`k`l`#`````m`n``",
"```o`p`q`r`h`s`t`u`t`v`w`x`y`z``",
"`A`B`C`D`E`F`G`H`I`J`K`L`M`N`O``",
"`P`Q`R`S`````````T`U`V`W`X`Y`G``",
"`Z`0`1`2```````````3`4`5`6`7`8``",
".`````````````````...#.a.b.c.d``",
".e.f.g.h.i.j.k``.l.m.n.o.p.q.r``",
".s.t.u.v.w.x`d``````````````.y``",
".z.A.B.C.D.E````````````````.F``",
".G.H.B.I.J.K``````````````.L.M``",
".N.O.P.Q.R.S.T`d```````d.U.V.W``",
".X.Y.Z.0.1.2.3.4.5.6.7.8#`#.`d``",
"###a#b#c#d#e#f#g#h#i#j#k#l#m````",
"#n#o````#p#q#r#s#t`d#u#v#w``````",
"#x```````````d.W`Z.7#y`d````````"
};
