/* XPM */
static const char *remoteserver_48_xpm[] = {
/* width height num_colors chars_per_pixel */
"    48    48      256            2",
/* colors */
"`` c #34369c",
"`. c #7c7e7c",
"`# c #b4bab4",
"`a c None",
"`b c #545a54",
"`c c #9c9e9c",
"`d c #d4dad4",
"`e c #545aac",
"`f c #545254",
"`g c #c4cac4",
"`h c #8c8e8c",
"`i c #acaea4",
"`j c #6c6e6c",
"`k c #4446a4",
"`l c #e4eae4",
"`m c #4c52ac",
"`n c #bcc2bc",
"`o c #6c6eb4",
"`p c #7c7eb4",
"`q c #646664",
"`r c #dce2d4",
"`s c #acaec4",
"`t c #3c3e9c",
"`u c #9c9ec4",
"`v c #ccd2cc",
"`w c #9496bc",
"`x c #4c4ea4",
"`y c #6466ac",
"`z c #94968c",
"`A c #a4a6a4",
"`B c #acb6ac",
"`C c #747674",
"`D c #848684",
"`E c #b4bacc",
"`F c #64625c",
"`G c #4c4aa4",
"`H c #5452ac",
"`I c #c4c6cc",
"`J c #3c3eac",
"`K c #6462b4",
"`L c #f4f2ec",
"`M c #e4e2dc",
"`N c #5452bc",
"`O c #bcbab4",
"`P c #5c625c",
"`Q c #dcdad4",
"`R c #5c5aac",
"`S c #cccac4",
"`T c #b4b2ac",
"`U c #ecf2ec",
"`V c #c4c2bc",
"`W c #7476b4",
"`X c #8486bc",
"`Y c #d4d2cc",
"`Z c #9c9a94",
"`0 c #84827c",
"`1 c #5c5a54",
"`2 c #a4a29c",
"`3 c #94928c",
"`4 c #74726c",
"`5 c #4446b4",
"`6 c #eceae4",
"`7 c #6c6a64",
"`8 c #44429c",
".` c #acaaa4",
".. c #7c7a74",
".# c #5456ac",
".a c #e4e6dc",
".b c #bcbeb4",
".c c #dcded4",
".d c #5c5eac",
".e c #cccec4",
".f c #c4c6bc",
".g c #d4d6cc",
".h c #3c3a9c",
".i c #acb2ac",
".j c #444aac",
".k c #8482bc",
".l c #b4b6c4",
".m c #4c4eb4",
".n c #6c6ab4",
".o c #949a94",
".p c #b4b6ac",
".q c #8c8a8c",
".r c #4c4ab4",
".s c #4442ac",
".t c #7c7ab4",
".u c #5c5e5c",
".v c #eceeec",
".w c #3432ac",
".x c #7c827c",
".y c #9ca29c",
".z c #545654",
".A c #8c928c",
".B c #acaeac",
".C c #6c726c",
".D c #4446ac",
".E c #7472b4",
".F c #7c7ebc",
".G c #646a64",
".H c #dce2dc",
".I c #acaecc",
".J c #3c3ea4",
".K c #a4a6c4",
".L c #4c4eac",
".M c #6466b4",
".N c #949694",
".O c #a4aaa4",
".P c #747a74",
".Q c #848a84",
".R c #bcbec4",
".S c #646264",
".T c #4c4aac",
".U c #5452b4",
".V c #c4c6d4",
".W c #e4e2e4",
".X c #5456bc",
".Y c #bcbabc",
".Z c #dcdadc",
".0 c #5c5ab4",
".1 c #cccacc",
".2 c #b4b2b4",
".3 c #c4c2c4",
".4 c #8c8abc",
".5 c #d4d2d4",
".6 c #9c9a9c",
".7 c #848284",
".8 c #5c5a5c",
"#` c #a4a2a4",
"#. c #949294",
"## c #747274",
"#a c #eceaec",
"#b c #6c6a6c",
"#c c #4442a4",
"#d c #acaaac",
"#e c #7c7a7c",
"#f c #5456b4",
"#g c #e4e6e4",
"#h c #bcbebc",
"#i c #dcdedc",
"#j c #5c5eb4",
"#k c #cccecc",
"#l c #c4c6c4",
"#m c #d4d6d4",
"#n c #b4b6b4",
"#o c #4442b4",
"#p c #7c7abc",
"#q c #000000",
"#r c #000000",
"#s c #000000",
"#t c #000000",
"#u c #000000",
"#v c #000000",
"#w c #000000",
"#x c #000000",
"#y c #000000",
"#z c #000000",
"#A c #000000",
"#B c #000000",
"#C c #000000",
"#D c #000000",
"#E c #000000",
"#F c #000000",
"#G c #000000",
"#H c #000000",
"#I c #000000",
"#J c #000000",
"#K c #000000",
"#L c #000000",
"#M c #000000",
"#N c #000000",
"#O c #000000",
"#P c #000000",
"#Q c #000000",
"#R c #000000",
"#S c #000000",
"#T c #000000",
"#U c #000000",
"#V c #000000",
"#W c #000000",
"#X c #000000",
"#Y c #000000",
"#Z c #000000",
"#0 c #000000",
"#1 c #000000",
"#2 c #000000",
"#3 c #000000",
"#4 c #000000",
"#5 c #000000",
"#6 c #000000",
"#7 c #000000",
"#8 c #000000",
"a` c #000000",
"a. c #000000",
"a# c #000000",
"aa c #000000",
"ab c #000000",
"ac c #000000",
"ad c #000000",
"ae c #000000",
"af c #000000",
"ag c #000000",
"ah c #000000",
"ai c #000000",
"aj c #000000",
"ak c #000000",
"al c #000000",
"am c #000000",
"an c #000000",
"ao c #000000",
"ap c #000000",
"aq c #000000",
"ar c #000000",
"as c #000000",
"at c #000000",
"au c #000000",
"av c #000000",
"aw c #000000",
"ax c #000000",
"ay c #000000",
"az c #000000",
"aA c #000000",
"aB c #000000",
"aC c #000000",
"aD c #000000",
"aE c #000000",
"aF c #000000",
"aG c #000000",
"aH c #000000",
"aI c #000000",
"aJ c #000000",
"aK c #000000",
"aL c #000000",
"aM c #000000",
"aN c #000000",
"aO c #000000",
"aP c #000000",
"aQ c #000000",
"aR c #000000",
"aS c #000000",
"aT c #000000",
"aU c #000000",
"aV c #000000",
"aW c #000000",
"aX c #000000",
"aY c #000000",
"aZ c #000000",
"a0 c #000000",
"a1 c #000000",
"a2 c #000000",
"a3 c #000000",
"a4 c #000000",
"a5 c #000000",
"a6 c #000000",
"a7 c #000000",
"a8 c #000000",
/* pixels */
"`a`a`a`a`a`a`a`a`a`a`a`a`a`a`a`a`a`a`a`a`a`a`a`a`a`a`a`a`a`a`a`a`a`a`a`a`a`a`a`a`a`a`a`a`a`a`a`a",
"`a`a`a`a`a`a`a`a`a`a`a`a`a`a`a`a`a`a`a`a`a`a`a`a`a`a`a`a`a`a`a`a`a`a`a`a`a`a`a`a`a`a`a`a`a`a`a`a",
"`a`a`a`a`a`a`a`a`a`a`a`a`a`a`a`a`a`a`a`a`a`a`a`a`a`a`a`a`a`a`a`a`a`a`a`a`a`a`a`a`a`a`a`a`a`a`a`a",
"`a`a`a`a`a`a`a`a`a`a`a`a`a`a`a`a`a`a`a`a`a`a`a`a`a`a`a`a`a`a`a`a`a`a`a`a`a`a`a`a`a`a`a`a`a`a`a`a",
"`a`a`a`a`a`a`a`a`a`a`a`a`a`a`a`a`a`a`a`a`a`a`a`a`a`a`a`a`a`a`a`a`a`a`a`a`a`a`a`a`a`a`a`a`a`a`a`a",
"`a`a`a`a`a`a`a`a`a`a`a`a`a`a`a`a`a`a`a`a`a`a`a`a`a`a`a`a`a`a`a`a`a`a`a`a`a`a`a`a`a`a`a`a`a`a`a`a",
"`a`a`a`a`a`a`a`a`a.2#`.6#``c#`#`.6#`.6.6.6.6.6.6#..N#.#.#.#..q#..q.q.2`a`a`a`a`a`a`a`a`a`a`a`a`a",
"`a`a`a`a`a`a`a`a.5.3`U`L.v`L.v`L.v.v`L.v`L.v.v.v.v.v.v.v#a.v#a`6.v.v.6#a`a`a`a`a`a`a`a`a`a`a`a`a",
"`a`a`a`a`a`a`a`a.1.Z#g`K#f#f`R#f`e.0.##f.##f`R.#`R.#`R.#.#.#.#`I#m.a.2.Z`a`a`a`a`a`a`a`a`a`a`a`a",
"`a`a`a`a`a`a`a`a.3#i.a#j.4`X`X.k.k.k.k.k.k`p#p`p#p.t#p.t`W`W`x.K`#`M`#.5`a`a`a`a`a`a`a`a`a`a`a`a",
"`a`a`a`a`a`a`a`a#h.W.a.0.F.k.F`p.F.t.t`W.t`W.t`W`W.E.E.E.E.E`x`w#k`M.R.1`a`a`a`a`a`a`a`a`a`a`a`a",
"`a`a`a`a`a`a`a`a.Y#g.H`e.t.t.t.t`W`W`W`W`W`W.E.E.E`o`o`o`o`o`x.k`n#i#l#h`a`a`a`a`a`a`a`a`a`a`a`a",
"`a`a`a`a`a`a`a`a`T#a.5#f.t`W`W.E`W.E.E.E.E`o.E`o`o`o`o`o.n`y`G`o.b.c.1#n`a`a`a`a`a`a`a`a`a`a`a`a",
"`a`a`a`a`a`a`a`a`A.v.V.#.E.E.E.E`o.E`o`o.n`o.n.n.n.n.d`G`8`````K`v`d#k.B`a`a`a`a`a`a`a`a`a`a`a`a",
"`a`a`a`a`a`a`a`a#`.v`E.#`o`o`o`o.n.n.n.n.n`y.n`y.#`8.h.h.h.h.h`e`V`Y`Y#``a`a`a`a`a`a`a`a`a`a`a`a",
"`a`a`a`a`a`a`a`a#`.v.I`H.n.n.n.n.M.M.M`y.M`K`K`G`t`t`t`t`t`t`t`H.f`v#m.N`a`a`a`a`a`a`a`a`a`a`a`a",
"`a`a`a`a`a`a`a`a.6.v`u`H.n.M.M.M.M`y`K`K`K`R`t`t#c`t#c`t#c`8#c.L`v`Y`d#.`a`a`a`a`a`a`a`a`a`a`a`a",
"`a`a`a`a`a`a`a`a.6.v.4#f`K.M`K`K`K`K#j`K`x#c#c#c#c#c#c#c#c.J.s.L`v`Y.Z`D`a`a`a`a`a`a`a`a`a`a`a`a",
"`a`a`a`a`a`a`a`a.6.v`W#f`K#j`K.d#j#j`R.T#c`k.s`k.s`k.s.D.D.D`k.T`v`v.c`.`a`a`a`a`a`a`a`a`a`a`a`a",
"`a`a`a`a`a`a`a`a#`.v`o.0#j#j#j.0.0.#.T.D.D.D.D.D.D.j.T.D.T.T.T.D`v`Y#i`C`a`a`a`a`a`a`a`a`a`a`a`a",
"`a`a`a`a`a`a`a`a#``6#j.0.0.0.0.0.L.T.D.T.j.T.T.T.T.r.T.r.T.r.r`J`v`v`Q`j`a`a`a`a`a`a`a`a`a`a`a`a",
"`a`a`a`a`a`a`a`a#d#g`e.0#f#f.U.m.r.r.r.r.r.m.r.m.m.m.m.m.m.m`m.s#k`v.c#b`a`a`a`a`a`a`a`a`a`a`a`a",
"`a`a`a`a`a`a`a.W.2#g#f.U.U.m.m.m.L.m.m.m.U.m.m.U.m.U.m.U`N.U`N`J`S.e#i`q`a`a`a`a`a`a`a`a`a`a`a`a",
"`a`a`a`a`a`a`a#i#n.a.U.m.m.U.m.U`N.U.U`m`N`N.U`N`N`N`N`N.X`N`N`J.R`v#i#b`a`a`a`a`a`a`a`a`a`a`a`a",
"`a`a`a`a`a`a`a.5.Y.H.m.U`N`N`N`N`N`N`N`N.X.X.X.X.X.X.X.X.X.X.0`5.l#k`d##`a`a`a`a`a`a`a`a`a`a`a`a",
"`a`a`a`a`a`a`a#k`V#i.D#o`J`J#o`J.s`J#o`J#o#o`J#o#o#o#o#o#o#o`J.w`s.e`d#e#g`a`a`a`a`a`a`a`a`a`a`a",
"`a`a`a`a`a`a`a.3.3.c#m.g`d.g.g#m`v.g`v.g#h.O`V`v.e`v.e`v.e`v#k#k.e`g#m`0.Z`a`a`a`a`a`a`a`a`a`a`a",
"`a`a`a`a`a`a`a.3#h`Q#h.b.b#h`#`n.b`##h`#.b`#`O`#`#`#`#.p`##n.p`##n.p#m#e#m`a`a`a`a`a`a`a`a`a`a`a",
"`a`a`a`a`a`a`a#a`D#k.5`v.5`v`Y#k#k#k.e#k`g`S#l#l#l`V.3`V`V#h#h#h`O#h`A.u`a`a`a`a`a`a`a`a`a`a`a`a",
"`a`a`a`a`a`a`a`a.Z`A.6#..Q.7`j.S.u`F`P`q`q.S.S`F`P.8`f.z`f.8`q`j`C#e.6#g`a`a`a`a`a`a`a`a`a`a`a`a",
"`a`a`a`a`a`a`a`a`a`a`a`a.1.B.z`q`C.G`C.q`D.Q`D.Q`D.C.u`q.G##`D.N.3#g`a`a`a`a`a`a`a`a`a`a`a`a`a`a",
"`a`a`a`a`a`a`a`a`a`a`a.W.1.Y.S.P`3.A.q`D`0`..x`0.7`D`D`0`q##`c.2#d.B.Y.1.1.W`a`a`a`a`a`a`a`a`a`a",
"`a`a`a`a`a`a`a`a`a`a`a.Z#l.2.A`1.P`h.y.i`#`#.p`B.O.o.Q`j.u.7.o#d#h.1`I.1`S.Y.Y.1`a`a`a`a`a`a`a`a",
"`a`a`a`a`a`a`a`a`a#d.6#..q`0#e##.S`1`b.u.u`P.u.8.z`f.z.z`F#b`j#e#e`D`2`a`a`a.5.3.Y#a`a`a`a`a`a`a",
"`a`a`a`a`a`a`a`a#d#.`T.i`T.i.i.i.i.i`T.i`T.B.i.i.i.B.i.i.i.i`T.B.i.i.7#d`a`a`a`a.3.1`a`a`a`a`a`a",
"`a`a`a`a`a`a`a`a###h`c.y`c#``c#``c#``c`c`c#``c`2`2`c`2`c#`.H#``2`c#``##b.W`a`a.1.2#i`a`a`a`a`a`a",
"`a`a`a`a`a`a`a.W`0.B`A#d`A#d`A#d`A`A#d`A#d#`#d#``A#d#`#d`A`d.y#d`A.`.B`4#..6#`.Y`a`a`a`a`a`a`a`a",
"`a`a`a`a`a`a`a#`#n.B.B.B.B.6.6.6.6.6`c.6`c.6`c`c.6.B.B.B`T`O.2.B.B.B#d#d`C.2.5`l`a`a`a`a`a`a`a`a",
"`a`a`a`a`a`a`a##`g#n.Y.2.B.2#n#n#n#n#n#n#n#n.2#n.2.2#n.2.2.i#m.B.2.2#n`g`q#k.Z`a`a`a`a`a`a`a`a`a",
"`a`a`a`a`a`a.Z`3`S.B`i.B#n.p`i`i`i#d`i.`.B`i.B`i`n`i.B#d.B`T.c#h`#`#.p#m.x`Y`a`a`a`a`a`a`a`a`a`a",
"`a`a`a`a`a`a#``n.c`d`d.c`d.c`d`d.c.c#i.c.c.c.c#i`r.H.c`r#i`r.H`r.H`r.H.H#h#d`a`a`a`a`a`a`a`a`a`a",
"`a`a`a`a`a`a.B`q.S.S`P.u.u.u.u`P.u.u.u.u`b.u.8.u.8.u.8.u.8.u.u.u.8.u.8.u`F#n`a`a`a`a`a`a`a`a`a`a",
"`a`a`a`a`a`a`a`a`a`a`a`a`a`a`a`a`a`a`a`a`a`a`a`a`a`a`a`a`a`a`a`a`a`a`a`a`a`a`a`a`a`a`a`a`a`a`a`a",
"`a`a`a`a`a`a`a`a`a`a`a`a`a`a`a`a`a`a`a`a`a`a`a`a`a`a`a`a`a`a`a`a`a`a`a`a`a`a`a`a`a`a`a`a`a`a`a`a",
"`a`a`a`a`a`a`a`a`a`a`a`a`a`a`a`a`a`a`a`a`a`a`a`a`a`a`a`a`a`a`a`a`a`a`a`a`a`a`a`a`a`a`a`a`a`a`a`a",
"`a`a`a`a`a`a`a`a`a`a`a`a`a`a`a`a`a`a`a`a`a`a`a`a`a`a`a`a`a`a`a`a`a`a`a`a`a`a`a`a`a`a`a`a`a`a`a`a",
"`a`a`a`a`a`a`a`a`a`a`a`a`a`a`a`a`a`a`a`a`a`a`a`a`a`a`a`a`a`a`a`a`a`a`a`a`a`a`a`a`a`a`a`a`a`a`a`a",
"`a`a`a`a`a`a`a`a`a`a`a`a`a`a`a`a`a`a`a`a`a`a`a`a`a`a`a`a`a`a`a`a`a`a`a`a`a`a`a`a`a`a`a`a`a`a`a`a"
};
