/* XPM */
static const char *shape_icon16_xpm[] = {
/* width height num_colors chars_per_pixel */
"    80    16      256            2",
/* colors */
"`` c #040204",
"`. c #5c8a3c",
"`# c #9cc274",
"`a c #948e64",
"`b c #ccc69c",
"`c c #7482dc",
"`d c None",
"`e c #444644",
"`f c #646664",
"`g c #6ca244",
"`h c #9496c4",
"`i c #dce6cc",
"`j c #5466bc",
"`k c #b4deb4",
"`l c #94ae84",
"`m c #ece6bc",
"`n c #848254",
"`o c #c4c2c4",
"`p c #7cb254",
"`q c #6c76c4",
"`r c #fcf6cc",
"`s c #9c9e74",
"`t c #c4c294",
"`u c #d4d2d4",
"`v c #4c5284",
"`w c #64963c",
"`x c #6c6a44",
"`y c #b4b2b4",
"`z c #a4d2ac",
"`A c #b4ae84",
"`B c #749254",
"`C c #8496e4",
"`D c #74a27c",
"`E c #646aa4",
"`F c #94c29c",
"`G c #f4f6f4",
"`H c #949294",
"`I c #848284",
"`J c #84b28c",
"`K c #dcdadc",
"`L c #545ea4",
"`M c #d4fed4",
"`N c #acaaac",
"`O c #eceae4",
"`P c #9c9e9c",
"`Q c #7c764c",
"`R c #a4aef4",
"`S c #2c2e2c",
"`T c #54865c",
"`U c #a4ca84",
"`V c #5466c4",
"`W c #b4c6fc",
"`X c #8cb264",
"`Y c #6476cc",
"`Z c #a4c284",
"`0 c #9c966c",
"`1 c #dcdeb4",
"`2 c #848ec4",
"`3 c #545654",
"`4 c #84a264",
"`5 c #c4eecc",
"`6 c #6c966c",
"`7 c #bcbabc",
"`8 c #fcfaf4",
".` c #e4fee4",
".. c #4c764c",
".# c #94a2f4",
".a c #94ba6c",
".b c #8c8a5c",
".c c #aca67c",
".d c #dcd6dc",
".e c #545a94",
".f c #8c9eec",
".g c #7caa7c",
".h c #747674",
".i c #3c3a3c",
".j c #648e64",
".k c #747edc",
".l c #cccacc",
".m c #74aa4c",
".n c #9c9eb4",
".o c #5c66ac",
".p c #bce6bc",
".q c #eceec4",
".r c #fcfedc",
".s c #a4a67c",
".t c #b4ce94",
".u c #cccee4",
".v c #6c9e3c",
".w c #c4be94",
".x c #646ec4",
".y c #848e94",
".z c #e4dee4",
".A c #5c62a4",
".B c #dcfedc",
".C c #fcf2ec",
".D c #c4caec",
".E c #8cba64",
".F c #6c7ed4",
".G c #fcfef4",
".H c #5c7e44",
".I c #9cc67c",
".J c #949264",
".K c #7486dc",
".L c #545254",
".M c #74a644",
".N c #acaa7c",
".O c #8c865c",
".P c #c4c6d4",
".Q c #84b25c",
".R c #a49e74",
".S c #4c569c",
".T c #6c9644",
".U c #6c727c",
".V c #b4b6b4",
".W c #b4b284",
".X c #749e74",
".Y c #8c96dc",
".Z c #9ccaa4",
".0 c #9c9a9c",
".1 c #5462ac",
".2 c #94be94",
".3 c #f4f2f4",
".4 c #a4a6a4",
".5 c #7c7e54",
".6 c #2c3244",
".7 c #5c6ac4",
".8 c #6c76d4",
"#` c #a4c67c",
"#. c #847e54",
"## c #646264",
"#a c #7cae54",
"#b c #d4defc",
"#c c #7c8ae4",
"#d c #bcd6ac",
"#e c #6c72b4",
"#f c #acaecc",
"#g c #0c0a0c",
"#h c #74724c",
"#i c #64923c",
"#j c #ecfef4",
"#k c #9ca2cc",
"#l c #747ab4",
"#m c #bcd2a4",
"#n c #4c7e54",
"#o c #eceafc",
"#p c #c4f6cc",
"#q c #e4e6bc",
"#r c #a4a2a4",
"#s c #5c8a64",
"#t c #5c5a5c",
"#u c #7c7a7c",
"#v c #d4d2e4",
"#w c #8c8a8c",
"#x c #444a54",
"#y c #acd6ac",
"#z c #7ca67c",
"#A c #9cc69c",
"#B c #8cb68c",
"#C c #bcbecc",
"#D c #5c6abc",
"#E c #f4eec4",
"#F c #8c9aec",
"#G c #bcc6f4",
"#H c #545694",
"#I c #e4deb4",
"#J c #b4e2bc",
"#K c #84865c",
"#L c #7c7a54",
"#M c #a4b2fc",
"#N c #9c9a6c",
"#O c #6c9a74",
"#P c #4c7a54",
"#Q c #94be74",
"#R c #8ca2f4",
"#S c #7cae84",
"#T c #64926c",
"#U c #9ca2bc",
"#V c #5c6ab4",
"#W c #bceac4",
"#X c #6472cc",
"#Y c #acae84",
"#Z c #ccca9c",
"#0 c #6ca644",
"#1 c #c4c6c4",
"#2 c #fcfacc",
"#3 c #649a3c",
"#4 c #949694",
"#5 c #848684",
"#6 c #acaeac",
"#7 c #8cb664",
"#8 c #bcbebc",
"a` c #3c3e3c",
"a. c #cccecc",
"a# c #e4e2e4",
"aa c #84b65c",
"ab c #a4a274",
"ac c #7c8ee4",
"ad c #f4f2c4",
"ae c #9cc27c",
"af c #545eac",
"ag c #d4fedc",
"ah c #2c2e34",
"ai c #6476d4",
"aj c #fcfafc",
"ak c #e4feec",
"al c #8c8a64",
"am c #545a9c",
"an c #7caa84",
"ao c #648e6c",
"ap c #fcfee4",
"aq c #ccceec",
"ar c #dcfee4",
"as c #c4caf4",
"at c #8cba6c",
"au c #fcfefc",
"av c #94926c",
"aw c #7486e4",
"ax c #b4b28c",
"ay c #749e7c",
"az c #5c6acc",
"aA c #a4c684",
"aB c #9c9a74",
"aC c #000000",
"aD c #000000",
"aE c #000000",
"aF c #000000",
"aG c #000000",
"aH c #000000",
"aI c #000000",
"aJ c #000000",
"aK c #000000",
"aL c #000000",
"aM c #000000",
"aN c #000000",
"aO c #000000",
"aP c #000000",
"aQ c #000000",
"aR c #000000",
"aS c #000000",
"aT c #000000",
"aU c #000000",
"aV c #000000",
"aW c #000000",
"aX c #000000",
"aY c #000000",
"aZ c #000000",
"a0 c #000000",
"a1 c #000000",
"a2 c #000000",
"a3 c #000000",
"a4 c #000000",
"a5 c #000000",
"a6 c #000000",
"a7 c #000000",
"a8 c #000000",
/* pixels */
"`d`d`d`d`d`d`d`d`d`d`d`d`d`d`d`d`d`d`d`d`d`d`d`d`d`d`d`d`d`d`d`d`d`d`d`d`d`d`d`d`d`d`d`d`d`d`d`d`d`d`d`d`d`d`d`d`d`d`d`d`d`d`d`d`d`d`d`d`d`d`d`d`d`d`d`d`d`d`d`d",
"`d`d`d`d.0`I.0#m#d#d`H###u`d`d`d`dakag.p.`ag.pakag`k#j`M`k#jag#z`d`0.R`0`a`0`0.Oav`a.Oav`a.O`d`d`d`a.R`0`aaB`0.O`0av.O`d`d`d`d`d`d`d`d.R#..w`d`d`d.R#..w`d`d`d`d",
"`d`d`d`d#w`u`I#m#m#m##`o#t`d`d`d`d.p#y`J`k`zan#J.Z#z#J#A#z#J#A#s`dax.q#qax.q#q`A.q#q`A#E`m#Y`d`d`d`A#E`m`A#E`m`Aad`m`A`d`d`d`d`d`d`d`d#..q`x.Yaz`V#..q#.`d`d`d`d",
"`d`d`d#d.0`I.y.t.t.t.U.L.h`i`d`d`d`D#z#O#zay`6.X#O.j#O#Tao#O#Tao`d`0`b.wav`b.wav`b.wal.w#Y.O`d`d`dal.w#Yal.w#Yal.w#Y.O`d`d`d`d`d`d`d`d.w`x.Rauas.8.w#L.R`d`d`d`d",
"`d`d`d`Z`#.IaA.IaA.I.I`Z`Uae`d`d`d`M.p`J`G.3a.`G.3a.`G.3a.`G.3.l`d`aaB`0`aaB`0`aaB`0.Oavaval`d`d`d.Oavav`aaB`0alaB`0al`0av.O`d`d`d`d`d#G#bajauauaq#X#Daf`d`d`d`d",
"`d`d`Zae.a#Q#Q`##Qaeae#Q#QaA#m`d`d`z`F.Xa#`K.Va#`K.Va#`K`y`Ka.`N`d`A#E`m`A#E`m`Aad`m.Wad`m#Y`d`d`d.c#2#E`A.q.q`Aad`m`A.q`m`A`d`d`d`d.8`c.##G#o.G`8.u#Xaf.A`d`d`d",
"`d`d#7.Qaa#7.E.Eat#7.E#7#7#7`X`d`dayay#T#8.V`y#8`7`y#8.V#6.V.V#6`dal.w#Yal.w#Yal.w#Yal.w#Y.O`d`d`d#.ax.sal.w#Yal.w#Yal.w#Y.O`d`d`d`d.8#c.#`R`Ras.3`8`u#l.S`d`d`d",
"`d.0#5.0#a#a`p.Q.Q.Q.Q.Q`p`H`f#u`d.B`5`Jaj`Ga.`G.3a.`G`Ga.aj.3.l`d.Oavavalavav.bavav.Oavaval`d`d`d`Qal.b.Oav`0.Oavavalavaval`d`d.R#.`s`c`C.f.f#c.Y#v.C`K.R`x.w`d",
"`d#w`u`I#0.m.m.m#a.m.m.m.m##`o`3`d#A#B#T`K.l`y`Ka.`y`Ka.`y`ua.#6`d.c#2#E.s#2.q.s`r#E.sap#q.R`d`d`dab.r`1.s#2.q.s`r#E.sap#I.R`d`d#..q`x.8.k.Kaw.Faz.x#k.d`x#E`x`d",
"`d.0`I.y`g`g`g`g`g#0`g#0`g.U.L.h`day#O.j.V.V#6.V.V`N`7.V`N`7.V#6`d#.ax.s#..W.c#.ax.s`x.w`0`x`d`d`dal#Z`A#.ax.c#.ax.s`x.waB`x`d`d.R`x.w.7#X#X#X#X.7#Vaf.oab`x.R`d",
"`d`d.T#3.v#3.v.v.v.v.v.v#3#3`4`d`dar#Wanaj`G#1aj`G.P`8`G#1au.3`o`d`Q.b.O#hal.b#h.b.b`Q.Jal.5`d`d`d`Q#K`n`Q.b#K`Q.b.b`Q.J.O.5`d`d`d`d#f`2#D`j#D#D#V.o.A.e`v`d`d`d",
"`d`d`d#i`w`w#3#3#3#3#3`w#3#i`d`d`d.2an#sa.#1#r`u`o#ra..P`H`K`7#4`daB#2.q.c.r#Iabap#q.sap#IaB`d`d`d`d`d`d.s.r#I`sap#q.sap#I`s`d`d`d`d`d`O.P`h#e.1amam`v`v`d`d`d`d",
"`d`d`d`B`3a`#x#i#i#i.6#g`S`l`d`d`d`6ao#P`y`N`P#6#6`P`y#6`P`y#6#r`dal.w`A.b#Z#Y`a#Z.N`a`b.N#.`d`d`d`d`d`d.O#Z`Aav#Z.c`a`b.N#.`d`d`d`d`d.R#L.w.d#C.n.R`xab`d`d`d`d",
"`d`d`d`d.i.Vah`.`.`.#g.4```d`d`d`d#j`5#z`8.3.Pau.3`oaj.3#1au.3#8`d#h`n#K#L`n#K#L.O`n.5.O`n.5`d`d`d`d`d`d#L`n#K#L.O#K#L.O`n.5`d`d`d`d`d#.#E`x.n`7`o`xad`x`d`d`d`d",
"`d`d`d`d#t`S#t.H.H.H`e``.i`d`d`d`d#A`J.j`Ka.`ya#a.`ya#.l`ya#.l#r`d`d`d`d`d`d`d`d`d`d`d`d`d`d`d`d`d`d`d`d`d`d`d`d`d`d`d`d`d`d`d`d`d`d`d.w`x.R`d`d`d.w`x.R`d`d`d`d",
"`d`d`d`d`d`d`d`d`d`d`d`d`d`d`d`d`d#P#P...4`N`P`N.4#r`N.4#r`N.4#r`d`d`d`d`d`d`d`d`d`d`d`d`d`d`d`d`d`d`d`d`d`d`d`d`d`d`d`d`d`d`d`d`d`d`d`d`d`d`d`d`d`d`d`d`d`d`d`d"
};
