/* XPM */
static const char *sql_16_xpm[] = {
/* width height num_colors chars_per_pixel */
"    16    16      256            2",
/* colors */
"`` c None",
"`. c #c0cddf",
"`# c #bccadc",
"`a c #b8c7da",
"`b c #b3c2d6",
"`c c #b0bed3",
"`d c #a8b8cd",
"`e c #a5b5cb",
"`f c #a3b2c7",
"`g c #9fafc5",
"`h c #9dacc2",
"`i c #9aa9bf",
"`j c #99a7bc",
"`k c #96a5ba",
"`l c #bfccde",
"`m c #ffffff",
"`n c #354963",
"`o c #bcc9dd",
"`p c #fcfdfe",
"`q c #fcfcfe",
"`r c #e2eaf8",
"`s c #b4c3d6",
"`t c #fbfcfe",
"`u c #f7f9fd",
"`v c #dde5f8",
"`w c #afbed3",
"`x c #d9d9d9",
"`y c #000000",
"`z c #b9b9b9",
"`A c #fcfcff",
"`B c #f1f5fc",
"`C c #d8e2f6",
"`D c #a8b7cd",
"`E c #757473",
"`F c #d2d4d7",
"`G c #ebf0fb",
"`H c #d1ddf5",
"`I c #a5b5ca",
"`J c #ced0d6",
"`K c #e5ecfa",
"`L c #cdd9f4",
"`M c #a2b2c8",
"`N c #fbfdff",
"`O c #d2d5d7",
"`P c #c9ccd6",
"`Q c #dee6f8",
"`R c #c7d5f2",
"`S c #a0afc4",
"`T c #a3a6a8",
"`U c #808386",
"`V c #d6d6d8",
"`W c #c8ccd6",
"`X c #e5ebf9",
"`Y c #828da3",
"`Z c #fbfdfe",
"`0 c #f7f9fe",
"`1 c #f2f5fc",
"`2 c #91949b",
"`3 c #d7e1f6",
"`4 c #cfdbf4",
"`5 c #bdcef0",
"`6 c #9baabf",
"`7 c #ecf1fa",
"`8 c #dee6f7",
".` c #c9d6f3",
".. c #b9cbf0",
".# c #99a7bd",
".a c #e8eefa",
".b c #e2e9f8",
".c c #dce5f7",
".d c #d6e0f5",
".e c #d0dcf4",
".f c #c9d7f3",
".g c #c4d2f2",
".h c #bfcff1",
".i c #b9cbef",
".j c #b5c8ee",
".k c #000000",
".l c #000000",
".m c #000000",
".n c #000000",
".o c #000000",
".p c #000000",
".q c #000000",
".r c #000000",
".s c #000000",
".t c #000000",
".u c #000000",
".v c #000000",
".w c #000000",
".x c #000000",
".y c #000000",
".z c #000000",
".A c #000000",
".B c #000000",
".C c #000000",
".D c #000000",
".E c #000000",
".F c #000000",
".G c #000000",
".H c #000000",
".I c #000000",
".J c #000000",
".K c #000000",
".L c #000000",
".M c #000000",
".N c #000000",
".O c #000000",
".P c #000000",
".Q c #000000",
".R c #000000",
".S c #000000",
".T c #000000",
".U c #000000",
".V c #000000",
".W c #000000",
".X c #000000",
".Y c #000000",
".Z c #000000",
".0 c #000000",
".1 c #000000",
".2 c #000000",
".3 c #000000",
".4 c #000000",
".5 c #000000",
".6 c #000000",
".7 c #000000",
".8 c #000000",
"#` c #000000",
"#. c #000000",
"## c #000000",
"#a c #000000",
"#b c #000000",
"#c c #000000",
"#d c #000000",
"#e c #000000",
"#f c #000000",
"#g c #000000",
"#h c #000000",
"#i c #000000",
"#j c #000000",
"#k c #000000",
"#l c #000000",
"#m c #000000",
"#n c #000000",
"#o c #000000",
"#p c #000000",
"#q c #000000",
"#r c #000000",
"#s c #000000",
"#t c #000000",
"#u c #000000",
"#v c #000000",
"#w c #000000",
"#x c #000000",
"#y c #000000",
"#z c #000000",
"#A c #000000",
"#B c #000000",
"#C c #000000",
"#D c #000000",
"#E c #000000",
"#F c #000000",
"#G c #000000",
"#H c #000000",
"#I c #000000",
"#J c #000000",
"#K c #000000",
"#L c #000000",
"#M c #000000",
"#N c #000000",
"#O c #000000",
"#P c #000000",
"#Q c #000000",
"#R c #000000",
"#S c #000000",
"#T c #000000",
"#U c #000000",
"#V c #000000",
"#W c #000000",
"#X c #000000",
"#Y c #000000",
"#Z c #000000",
"#0 c #000000",
"#1 c #000000",
"#2 c #000000",
"#3 c #000000",
"#4 c #000000",
"#5 c #000000",
"#6 c #000000",
"#7 c #000000",
"#8 c #000000",
"a` c #000000",
"a. c #000000",
"a# c #000000",
"aa c #000000",
"ab c #000000",
"ac c #000000",
"ad c #000000",
"ae c #000000",
"af c #000000",
"ag c #000000",
"ah c #000000",
"ai c #000000",
"aj c #000000",
"ak c #000000",
"al c #000000",
"am c #000000",
"an c #000000",
"ao c #000000",
"ap c #000000",
"aq c #000000",
"ar c #000000",
"as c #000000",
"at c #000000",
"au c #000000",
"av c #000000",
"aw c #000000",
"ax c #000000",
"ay c #000000",
"az c #000000",
"aA c #000000",
"aB c #000000",
"aC c #000000",
"aD c #000000",
"aE c #000000",
"aF c #000000",
"aG c #000000",
"aH c #000000",
"aI c #000000",
"aJ c #000000",
"aK c #000000",
"aL c #000000",
"aM c #000000",
"aN c #000000",
"aO c #000000",
"aP c #000000",
"aQ c #000000",
"aR c #000000",
"aS c #000000",
"aT c #000000",
"aU c #000000",
"aV c #000000",
"aW c #000000",
"aX c #000000",
"aY c #000000",
"aZ c #000000",
"a0 c #000000",
"a1 c #000000",
"a2 c #000000",
"a3 c #000000",
"a4 c #000000",
"a5 c #000000",
"a6 c #000000",
"a7 c #000000",
"a8 c #000000",
/* pixels */
"````````````````````````````````",
"```.`#`a`b`c`d`e`f`g`h`i`j`k`k``",
"```l`m`m`m`m`m`m`m`m`m`m`m`m`n``",
"```o`m`m`m`m`m`m`m`m`m`m`m`p`n``",
"```a`m`m`m`m`m`m`m`m`m`m`q`r`n``",
"```s`m`m`m`m`m`m`m`m`m`t`u`v`n``",
"```w`m`x`y`y`x`y`y`z`A`y`B`C`n``",
"```D`m`y`x`m`E`x`m`y`F`y`G`H`n``",
"```I`m`m`y`m`y`m`q`y`J`y`K`L`n``",
"```M`m`x`m`y`E`N`O`y`P`y`Q`R`n``",
"```S`m`T`y`U`V`y`y`W`X`y`y`Y`n``",
"```h`m`m`m`Z`0`1`2`y`Q`3`4`5`n``",
"```6`m`m`Z`u`1`7`X`8`3`4.`..`n``",
"``.#`m`q.a.b.c.d.e.f.g.h.i.j`n``",
"```k`n`n`n`n`n`n`n`n`n`n`n`n`n``",
"````````````````````````````````"
};
