/* XPM */
static const char *state_xpm[] = {
/* width height num_colors chars_per_pixel */
"    80    16      256            2",
/* colors */
"`` c #343234",
"`. c #04820d",
"`# c #9c941c",
"`a c #ccc610",
"`b c #8ccc94",
"`c c #44a644",
"`d c #d4c690",
"`e c #cc0c0c",
"`f c #847e24",
"`g c #d48684",
"`h c #44b253",
"`i c #e4e244",
"`j c #2ca63c",
"`k c #accaa8",
"`l c #6cb2cc",
"`m c #cceacf",
"`n c #cc4e47",
"`o c #dc625c",
"`p c #64b664",
"`q c #84a6d4",
"`r c #2c9d34",
"`s c #d4c654",
"`t c #c4ba0f",
"`u c #ec4240",
"`v c #eceeec",
"`w c #94c6d4",
"`x c #a4badc",
"`y c None",
"`z c #d42624",
"`A c #b4e2b4",
"`B c #d4bf6c",
"`C c #049214",
"`D c #84ba84",
"`E c #f4ee46",
"`F c #64c274",
"`G c #44be54",
"`H c #34b844",
"`I c #dcd60c",
"`J c #74b274",
"`K c #ccb64c",
"`L c #ccd6c4",
"`M c #acd1e4",
"`N c #e4f6e8",
"`O c #e4d65c",
"`P c #ec5254",
"`Q c #9cd0dc",
"`R c #7496cc",
"`S c #8cb8dc",
"`T c #54ac54",
"`U c #cc1e18",
"`V c #dc6f6c",
"`W c #148e24",
"`X c #dce9f4",
"`Y c #54b257",
"`Z c #f4e24c",
"`0 c #cc524c",
"`1 c #64ba64",
"`2 c #349a3c",
"`3 c #d4c684",
"`4 c #ec4b4c",
"`5 c #acd6dc",
"`6 c #048a0e",
"`7 c #84be7c",
"`8 c #dcce0c",
".` c #f4faf7",
".. c #dcd6c4",
".# c #94d69c",
".a c #34ae41",
".b c #cc362c",
".c c #84becc",
".d c #e4e24c",
".e c #cce6ec",
".f c #ccb634",
".g c #a4cad4",
".h c #149424",
".i c #34be44",
".j c #c4bf44",
".k c #ccdef4",
".l c #34a234",
".m c #44ae4d",
".n c #dc0e0c",
".o c #4cb254",
".p c #e4d254",
".q c #d4c21c",
".r c #b4dee4",
".s c #fcf64d",
".t c #a4ced7",
".u c #ec7374",
".v c #c4d6d4",
".w c #d4ce10",
".x c #9cc69c",
".y c #74bacc",
".z c #e44644",
".A c #d46a64",
".B c #94aedc",
".C c #ccc20f",
".D c #ecf6ec",
".E c #9cc6dc",
".F c #dcb2ac",
".G c #54bf5e",
".H c #dcda34",
".I c #5cab59",
".J c #dc1e1c",
".K c #6cbe70",
".L c #fc4c4c",
".M c #b4ae1c",
".N c #3cb04b",
".O c #94c2dc",
".P c #d4be3c",
".Q c #0c8414",
".R c #dcd1aa",
".S c #d4120c",
".T c #f48684",
".U c #6cb469",
".V c #d4c668",
".W c #fc4644",
".X c #c4e8cc",
".Y c #94c18c",
".Z c #fcf149",
".0 c #3cb74b",
".1 c #74bb72",
".2 c #e4524c",
".3 c #0c8c14",
".4 c #e43a3c",
".5 c #8cc0d9",
".6 c #149a24",
".7 c #d4dff4",
".8 c #a4cee4",
"#` c #bcb944",
"#. c #7c7a24",
"## c #047e0c",
"#a c #2c3ab4",
"#b c #aca614",
"#c c #e4e2f4",
"#d c #c4d2bc",
"#e c #c4caec",
"#f c #7cca84",
"#g c #94a2dc",
"#h c #bcc2e4",
"#i c #a49e3c",
"#j c #e42e2c",
"#k c #fc5554",
"#l c #dcbcbc",
"#m c #a4d9aa",
"#n c #bcd2d4",
"#o c #3ca63c",
"#p c #e4de4c",
"#q c #d43e3c",
"#r c #c4deec",
"#s c #e46a64",
"#t c #bcb614",
"#u c #e4d224",
"#v c #ccbe5c",
"#w c #bcd9ec",
"#x c #e4de44",
"#y c #dc8e8c",
"#z c #dc7674",
"#A c #dc4e4c",
"#B c #dc5a54",
"#C c #24a234",
"#D c #dceef4",
"#E c #ccd8d8",
"#F c #d4c054",
"#G c #d4ca0c",
"#H c #4ca850",
"#I c #d4eed8",
"#J c #ccbe1c",
"#K c #bce4c0",
"#L c #ecda4c",
"#M c #3c9e40",
"#N c #5cbe6c",
"#O c #ec5a5c",
"#P c #54ba5c",
"#Q c #f4ea48",
"#R c #dcd624",
"#S c #e4d26c",
"#T c #3ca240",
"#U c #f4f6fc",
"#V c #dc8a88",
"#W c #ece343",
"#X c #34aa44",
"#Y c #b4ceac",
"#Z c #74b6ce",
"#0 c #f44644",
"#1 c #acbbe4",
"#2 c #dc2727",
"#3 c #0c931c",
"#4 c #8cbe8c",
"#5 c #d45650",
"#6 c #dcc97f",
"#7 c #b4d8e3",
"#8 c #fcfefc",
"a` c #d43a34",
"a. c #ece650",
"a# c #d4e7f3",
"aa c #3cc04c",
"ab c #a4c7a0",
"ac c #7cbcd0",
"ad c #e4dc2c",
"ae c #e42220",
"af c #bcb224",
"ag c #dcca64",
"ah c #9cc294",
"ai c #7cbe74",
"aj c #d40e0c",
"ak c #e4605c",
"al c #8caad4",
"am c #dcca54",
"an c #ecf2fc",
"ao c #e4f2f4",
"ap c #94badc",
"aq c #64be74",
"ar c #f44c4c",
"as c #1c9224",
"at c #f47274",
"au c #9cb2dc",
"av c #9ccae4",
"aw c #5cae64",
"ax c #ec3e3c",
"ay c #1c9e24",
"az c #9ca6dc",
"aA c #d4c61c",
"aB c #ecd65c",
"aC c #d44e4c",
"aD c #4cbe5c",
"aE c #d41e1c",
"aF c #4cae50",
"aG c #dc6a6c",
"aH c #d4c69c",
"aI c #1c8e24",
"aJ c #a4cae4",
"aK c #34a244",
"aL c #ecf6fc",
"aM c #e47674",
"aN c #e44e4c",
"aO c #e4eef4",
"aP c #04860c",
"aQ c #44b64f",
"aR c #c4be14",
"aS c #ec4644",
"aT c #ecf2f4",
"aU c #94cad8",
"aV c #ccba54",
"aW c #54b65c",
"aX c #64be69",
"aY c #349e34",
"aZ c #048e14",
"a0 c #dcd20e",
"a1 c #34b244",
"a2 c #84c2d4",
"a3 c #cce2ee",
"a4 c #dc1214",
"a5 c #4cb656",
"a6 c #a4d2d9",
"a7 c #9ccad4",
"a8 c #dcb6b4",
/* pixels */
"`y`y`y`y`y`y`y`y`y`y`y`y`y`y`y`y`y`y`y`y`y`y`y`y`y`y`y`y`y`y`y`y`y`y`y`y`y`y`y`y`y`y`y`y`y`y`y`y`y`y`y`y`y`y`y`y`y`y`y`y`y`y`y`y`y`y`y`y`y`y`y`y`y`y`y`y`y`y`y`y",
"`y`y`y`y`y`M#7#7.r#7.g`y`y`y`y`y`y`y`y`y`yai`1#N#P.K.1`y`y`y`y`y`y`y`y`y`y#yaM#s#saM#y`y`y`y`y`y`y`y`y`y`y#6#SaBaB#S#6`y`y`y`y`y`y`y`y`y`y`kai.K`1.K`7`y`y`y`y`y",
"`y`y`y#n#7.`#8#8#8#8aLa6#n`y`y`y`y`y`yaba5aa.i`Haa`Haa`Yab`y`y`y`y`y`y#lak#k.L.L.W.L#kak#l`y`y`y`y`y`y.R.p.Z.s.s.Z.Z.Z.p.R`y`y`y`y`y`y`y.U`Gaa.i.iaa`Ga5ab`y`y`y",
"`y`y#n.e#8#8#cazaz#caLan#7.v`y`y`y`y`kaQ.iaa`Haa`H.0`H.0aQ#Y`y`y`y`y#l`P.L.W#k.T.T#k#0ar`Pa8`y`y`y`y.R`Z.Z.s#L#i#i#x`E`EaB.R`y`y`y`y`y`Y.iaa`Haa`H`H`H.0.0.Y`y`y",
"`y`ya6#8.`#U#h#a#a#eaoaoaOaU`y`y`y`ya5`Haa`H.0`H`H.0`AaD.NaW`y`y`y`y.2.L.W.Lat`v#Uat#0#0#0#B`y`y`y`y.p.Z.Z.Z.j````.j#Q#Q#Qam`y`y`y`yai`H.i.0aa#K.G`H.0a1.0`h`L`y",
"`y.gaLaLaLan.7#g#g.kaO`X`Xa3.g`y`y`7`H.0`H`Ha1.0.N`m#8`Na5.a`D`y`y#Var.W#0.Wat`v`vat#0`u`u`u#V`y`y#6#Q.Z`E`E.j````.j#Q#W#Q#W`3`y`y`y.N`H.0.0#I#8`N.Ga1a1.N.a`p`y",
"`y.tananaoaO.7#1#1.k`Xa#a#.e`w`y`y.U`H.0.G`b.0aQ.X#8#8`m`h#X.U`y`y`V#0ar#0arat`v`vataS`4aS.z`V`y`yag#Q`E#Q#Q.j````#`#Wa.`i#W`B`y`y.Y`H.0.0.0#m#8#8.``F.N.N.N#H`y",
"`y.taOaO#D#D#1#a#a`x.ka3.ea3.5`y`y.oaQ#P`N#8#m`m#8#8.X.m.m.m#H`y`y#Oarar`P`4.u#U`v#O#jaSaN`4#5`y`yam#Q#Qa.#Q#`````afad`i#W#pam`y`y.1.N.0.N.0.N#m#8#8#8.K.m#o#o`y",
"`y`Q`X`X`Xa##1#a#a.B#w#7#w#w.5`y`yaw`h#N.D#8#8#8#8#K#3aZ.h`r`T`y`y#B`P`P`P`P.u`v`v.z.na4ae.4#5`y`yag`Za.a.a.#`````.M`Ia0#R.H#F`y`y`J.0`h`h`h`h`b#8#8#8aF.6#XaY`y",
"`y.E.ea#a3#rau#a#a.B`M`M.g`M.5`y`y.U`j.maW.`#8#8#I#3`6`6`6`6.U`y`y`Vax`PaS#jae.z.z.J.najajaj.A`y`y`B#Wa..dad#G#t#t`aa0.w`8#G`B`y`y.Y#X`h.o`j#f#8#8.`aF`6`6aP`c`y",
"`y.g`M#w#w`M.B#a#aal.gaJaJ.5.g`y`y.YayaZaZ.m#8#U.haPaPaP`..hah`y`y`gae.n.n.n#2aMaM`zajajajaE`g`y`y#6#Ra0a0a0aR#.`f`t.w#G`aaA`d`y`y`L#CaZ`CaZ#m#8.D`raPaPaPaPaw`y",
"`y`yac`M`M`Mal#a#a`q.E.O.O#Z`y`y`y`y`TaZ`6`6#T`WaP`.`.`.aP.I`y`y`y`yaCa4ajaj#A`van.4`e`e`e`n`y`y`y`y#F`8`8.w#b````#b`a`a#G`K`y`y`y`y.U#3`6`6aP`basaP`.`.`.`r#d`y",
"`y`y.vacaJ.Eap`R`R`S.5.5`l#E`y`y`y`y`L#T`6`.aP`.######`.#M`y`y`y`y`y.Fa`ajaj`zaGaG`U`e`e.ba8`y`y`y`y...P.w#G`t`#`#`t.C.C.f..`y`y`y`y`y`caZaP`.`.`.`.####aI`D`y`y",
"`y`y`y#E.y.5.5.O`S`S#Z#Z`y`y`y`y`y`y`y`y.I`W.Q####`.aI.I`y`y`y`y`y`y`y.F`naE`e`e`e`e`U`n.F`y`y`y`y`y`y..`K#J`aaR.C.CaR`K`y`y`y`y`y`y`y`y.Ias`.######`.`2.Y`y`y`y",
"`y`y`y`y`y.g.c#Z#Z.c.g`y`y`y`y`y`y`y`y`y`yab`J`T.I`Jab`y`y`y`y`y`y`y`y`y`y`g.A`n`n.A`g`y`y`y`y`y`y`y`y`y`yaH`B#vaV#vaH`y`y`y`y`y`y`y`y`y`yah`p#H#M.I`J`y`y`y`y`y",
"`y`y`y`y`y`y`y`y`y`y`y`y`y`y`y`y`y`y`y`y`y`y`y`y`y`y`y`y`y`y`y`y`y`y`y`y`y`y`y`y`y`y`y`y`y`y`y`y`y`y`y`y`y`y`y`y`y`y`y`y`y`y`y`y`y`y`y`y`y`y`y`y`y`y`y`y`y`y`y`y"
};
