/* XPM */
static const char *toolboxfavor_16_xpm[] = {
/* width height num_colors chars_per_pixel */
"    16    16      256            2",
/* colors */
"`` c None",
"`. c #b0b0b0",
"`# c #aeaeae",
"`a c #ababab",
"`b c #a9a9a9",
"`c c #a98f8d",
"`d c #d07760",
"`e c #d37357",
"`f c #d38170",
"`g c #d6978f",
"`h c #d2765b",
"`i c #d47358",
"`j c #d28177",
"`k c #979797",
"`l c #909090",
"`m c #8d8d8d",
"`n c #898989",
"`o c #c26146",
"`p c #da653d",
"`q c #d9633b",
"`r c #da613a",
"`s c #da643d",
"`t c #d85d36",
"`u c #d95b34",
"`v c #d7532f",
"`w c #d3847c",
"`x c #a4a4a4",
"`y c #929292",
"`z c #8b8b8b",
"`A c #868686",
"`B c #837676",
"`C c #cf5533",
"`D c #d7522b",
"`E c #d6512a",
"`F c #d64f28",
"`G c #d44b24",
"`H c #ce2f14",
"`I c #c81f0b",
"`J c #c71807",
"`K c #ca564d",
"`L c #9c9c9c",
"`M c #968972",
"`N c #b8a77b",
"`O c #b6a579",
"`P c #b39f74",
"`Q c #c64e2c",
"`R c #d2411c",
"`S c #d2411b",
"`T c #ce3213",
"`U c #c81c09",
"`V c #c91e0e",
"`W c #c35b49",
"`X c #969696",
"`Y c #a6936b",
"`Z c #e9dd8c",
"`0 c #e6da7f",
"`1 c #c87747",
"`2 c #ca2a12",
"`3 c #c81e0a",
"`4 c #c6412e",
"`5 c #d3ad81",
"`6 c #ac996e",
"`7 c #e8dc86",
"`8 c #e6d97d",
".` c #e5d77c",
".. c #c46c42",
".# c #c82413",
".a c #c5442f",
".b c #d7ab5e",
".c c #ddcb9c",
".d c #8e8e8e",
".e c #b4a273",
".f c #e7da81",
".g c #c67e4f",
".h c #c7311f",
".i c #c71908",
".j c #b43a30",
".k c #d7b461",
".l c #d3c772",
".m c #ddcc9e",
".n c #8c8c8c",
".o c #b9a574",
".p c #e6d97c",
".q c #606772",
".r c #805456",
".s c #a7413e",
".t c #6b657d",
".u c #6f7478",
".v c #5e667a",
".w c #c8b997",
".x c #baa66d",
".y c #e6d87b",
".z c #e5d776",
".A c #e5d673",
".B c #e4d572",
".C c #e4d570",
".D c #797b72",
".E c #6c7da6",
".F c #6b799b",
".G c #6c7795",
".H c #7b87af",
".I c #74787e",
".J c #dcc9a1",
".K c #bca460",
".L c #e2d16a",
".M c #e2d169",
".N c #e2d068",
".O c #807f71",
".P c #747b8d",
".Q c #7a84aa",
".R c #8d896b",
".S c #b2a767",
".T c #7d829a",
".U c #888ba8",
".V c #757587",
".W c #8b8b8a",
".X c #bb9e4a",
".Y c #dac14e",
".Z c #dac14d",
".0 c #d9c14d",
".1 c #d9c04c",
".2 c #878166",
".3 c #7c7e8c",
".4 c #8f94b7",
".5 c #847e63",
".6 c #a19457",
".7 c #8b8ca3",
".8 c #908ea3",
"#` c #8b8791",
"#. c #9d8c6f",
"## c #b39344",
"#a c #b59645",
"#b c #b49544",
"#c c #b39543",
"#d c #b29442",
"#e c #b19341",
"#f c #756f6b",
"#g c #aca9cb",
"#h c #a3a1c0",
"#i c #9f9bb9",
"#j c #bab3d4",
"#k c #888291",
"#l c #7b7e96",
"#m c #8d8ea4",
"#n c #9a97b2",
"#o c #aea7c4",
"#p c #9495aa",
"#q c #7d7e97",
"#r c #a6a7b7",
"#s c #82849a",
"#t c #000000",
"#u c #000000",
"#v c #000000",
"#w c #000000",
"#x c #000000",
"#y c #000000",
"#z c #000000",
"#A c #000000",
"#B c #000000",
"#C c #000000",
"#D c #000000",
"#E c #000000",
"#F c #000000",
"#G c #000000",
"#H c #000000",
"#I c #000000",
"#J c #000000",
"#K c #000000",
"#L c #000000",
"#M c #000000",
"#N c #000000",
"#O c #000000",
"#P c #000000",
"#Q c #000000",
"#R c #000000",
"#S c #000000",
"#T c #000000",
"#U c #000000",
"#V c #000000",
"#W c #000000",
"#X c #000000",
"#Y c #000000",
"#Z c #000000",
"#0 c #000000",
"#1 c #000000",
"#2 c #000000",
"#3 c #000000",
"#4 c #000000",
"#5 c #000000",
"#6 c #000000",
"#7 c #000000",
"#8 c #000000",
"a` c #000000",
"a. c #000000",
"a# c #000000",
"aa c #000000",
"ab c #000000",
"ac c #000000",
"ad c #000000",
"ae c #000000",
"af c #000000",
"ag c #000000",
"ah c #000000",
"ai c #000000",
"aj c #000000",
"ak c #000000",
"al c #000000",
"am c #000000",
"an c #000000",
"ao c #000000",
"ap c #000000",
"aq c #000000",
"ar c #000000",
"as c #000000",
"at c #000000",
"au c #000000",
"av c #000000",
"aw c #000000",
"ax c #000000",
"ay c #000000",
"az c #000000",
"aA c #000000",
"aB c #000000",
"aC c #000000",
"aD c #000000",
"aE c #000000",
"aF c #000000",
"aG c #000000",
"aH c #000000",
"aI c #000000",
"aJ c #000000",
"aK c #000000",
"aL c #000000",
"aM c #000000",
"aN c #000000",
"aO c #000000",
"aP c #000000",
"aQ c #000000",
"aR c #000000",
"aS c #000000",
"aT c #000000",
"aU c #000000",
"aV c #000000",
"aW c #000000",
"aX c #000000",
"aY c #000000",
"aZ c #000000",
"a0 c #000000",
"a1 c #000000",
"a2 c #000000",
"a3 c #000000",
"a4 c #000000",
"a5 c #000000",
"a6 c #000000",
"a7 c #000000",
"a8 c #000000",
/* pixels */
"````````````````````````````````",
"```.`.`#`a`b`c`d`e`f`g`h`i`j````",
"```b`k`l`m`n`o`p`q`r`s`t`u`v`w``",
"```x`y`z`A`B`C`D`E`F`G`H`I`J`K``",
"```L`M`N`O`P`Q`R`S`T`U`J`J`V`W``",
"```X`Y`Z`0`0`1`2`3`J`J`J`J`4`5``",
"```y`6`7`8`8.`...#`J`J`J.a.b.c``",
"``.d.e.f`8`8`8`8.g.h.i.j.k.l.m``",
"``.n.o`8`8`8`8.p.q.r.s.t.u.v.w``",
"```n.x.y.z.A.B.C.D.E.F.G.H.I.J``",
"```n.K.L.M.M.N.O.P.Q.R.S.T.U.V``",
"``.W.X.Y.Z.0.1.2.3.4.5.6.7.8#```",
"``#.###a#b#c#d#e#f#g#h#i#j#k````",
"````````````````#l#m#n#o#p#q````",
"````````````````````#r#s````````",
"````````````````````````````````"
};
