/* XPM */
static const char *tool_48_xpm[] = {
/* width height num_colors chars_per_pixel */
"    48    48      256            2",
/* colors */
"`` c None",
"`. c #c1caef",
"`# c #d3dcff",
"`a c #d4ddff",
"`b c #bfc8eb",
"`c c #d2dbff",
"`d c #dee6ff",
"`e c #e2eaff",
"`f c #c3ccf1",
"`g c #919abd",
"`h c #a8b1d6",
"`i c #a3accf",
"`j c #b0b9de",
"`k c #e2ebff",
"`l c #cdd6f9",
"`m c #d9e1ff",
"`n c #a4add0",
"`o c #abb4d7",
"`p c #aab3d8",
"`q c #d1daff",
"`r c #e3ebff",
"`s c #dae3ff",
"`t c #e8f0ff",
"`u c #e7efff",
"`v c #adb6d9",
"`w c #9ba4c7",
"`x c #a6afd5",
"`y c #a9b2d7",
"`z c #afb8dd",
"`A c #b9c2e7",
"`B c #c5cef1",
"`C c #dce4ff",
"`D c #e4ecff",
"`E c #e1e9ff",
"`F c #8f98bd",
"`G c #9da6cb",
"`H c #9099be",
"`I c #7e87ac",
"`J c #828bae",
"`K c #8790b5",
"`L c #9ca6ca",
"`M c #d5deff",
"`N c #8e97bc",
"`O c #838cb1",
"`P c #828caf",
"`Q c #9aa3c6",
"`R c #8c96ba",
"`S c #767fa2",
"`T c #596386",
"`U c #5f688a",
"`V c #737d9f",
"`W c #818aad",
"`X c #697294",
"`Y c #8992b5",
"`Z c #b6c0e4",
"`0 c #dae2ff",
"`1 c #c7d0f3",
"`2 c #bdc6e9",
"`3 c #a5aed1",
"`4 c #9fa8ce",
"`5 c #8089ac",
"`6 c #545d82",
"`7 c #7c83a6",
"`8 c #9ea7cc",
".` c #bec7ea",
".. c #cfd8fb",
".# c #cad3f8",
".a c #b1badf",
".b c #6e779a",
".c c #d9e3ff",
".d c #d7dfff",
".e c #bac3e8",
".f c #b8c1e6",
".g c #616b8d",
".h c #5b6489",
".i c #cbd4f9",
".j c #c7d1f5",
".k c #e0e8ff",
".l c #ccd5fa",
".m c #949ec2",
".n c #a5afd3",
".o c #747da0",
".p c #a2abd0",
".q c #727b9d",
".r c #8c95b7",
".s c #adb8dc",
".t c #626b90",
".u c #60698b",
".v c #616a8c",
".w c #7a81a4",
".x c #8a93b6",
".y c #7b82a5",
".z c #5e678a",
".A c #969fc4",
".B c #646d90",
".C c #656e91",
".D c #5d6689",
".E c #b7c0e5",
".F c #666f92",
".G c #6c7598",
".H c #a1aacf",
".I c #acb5d8",
".J c #6d7699",
".K c #b6bfe2",
".L c #8891b6",
".M c #9ca5c8",
".N c #7b84a7",
".O c #c4cdf2",
".P c #c0c9ee",
".Q c #b4bee0",
".R c #858eb3",
".S c #939cbe",
".T c #98a1c7",
".U c #7f88ad",
".V c #b3bcdf",
".W c #c8d1f6",
".X c #7d84a9",
".Y c #7e85aa",
".Z c #c6cff2",
".0 c #8d96bb",
".1 c #868fb4",
".2 c #949dc0",
".3 c #525b80",
".4 c #757ea1",
".5 c #bcc5ea",
".6 c #97a0c5",
".7 c #b2bbe0",
".8 c #959ec3",
"#` c #6f789b",
"#. c #515a7f",
"## c #697496",
"#a c #7780a5",
"#b c #737c9e",
"#c c #4c557a",
"#d c #464f72",
"#e c #70799b",
"#f c #687193",
"#g c #4f587a",
"#h c #454e71",
"#i c #000000",
"#j c #000000",
"#k c #000000",
"#l c #000000",
"#m c #000000",
"#n c #000000",
"#o c #000000",
"#p c #000000",
"#q c #000000",
"#r c #000000",
"#s c #000000",
"#t c #000000",
"#u c #000000",
"#v c #000000",
"#w c #000000",
"#x c #000000",
"#y c #000000",
"#z c #000000",
"#A c #000000",
"#B c #000000",
"#C c #000000",
"#D c #000000",
"#E c #000000",
"#F c #000000",
"#G c #000000",
"#H c #000000",
"#I c #000000",
"#J c #000000",
"#K c #000000",
"#L c #000000",
"#M c #000000",
"#N c #000000",
"#O c #000000",
"#P c #000000",
"#Q c #000000",
"#R c #000000",
"#S c #000000",
"#T c #000000",
"#U c #000000",
"#V c #000000",
"#W c #000000",
"#X c #000000",
"#Y c #000000",
"#Z c #000000",
"#0 c #000000",
"#1 c #000000",
"#2 c #000000",
"#3 c #000000",
"#4 c #000000",
"#5 c #000000",
"#6 c #000000",
"#7 c #000000",
"#8 c #000000",
"a` c #000000",
"a. c #000000",
"a# c #000000",
"aa c #000000",
"ab c #000000",
"ac c #000000",
"ad c #000000",
"ae c #000000",
"af c #000000",
"ag c #000000",
"ah c #000000",
"ai c #000000",
"aj c #000000",
"ak c #000000",
"al c #000000",
"am c #000000",
"an c #000000",
"ao c #000000",
"ap c #000000",
"aq c #000000",
"ar c #000000",
"as c #000000",
"at c #000000",
"au c #000000",
"av c #000000",
"aw c #000000",
"ax c #000000",
"ay c #000000",
"az c #000000",
"aA c #000000",
"aB c #000000",
"aC c #000000",
"aD c #000000",
"aE c #000000",
"aF c #000000",
"aG c #000000",
"aH c #000000",
"aI c #000000",
"aJ c #000000",
"aK c #000000",
"aL c #000000",
"aM c #000000",
"aN c #000000",
"aO c #000000",
"aP c #000000",
"aQ c #000000",
"aR c #000000",
"aS c #000000",
"aT c #000000",
"aU c #000000",
"aV c #000000",
"aW c #000000",
"aX c #000000",
"aY c #000000",
"aZ c #000000",
"a0 c #000000",
"a1 c #000000",
"a2 c #000000",
"a3 c #000000",
"a4 c #000000",
"a5 c #000000",
"a6 c #000000",
"a7 c #000000",
"a8 c #000000",
/* pixels */
"````````````````````````````````````````````````````````````````````````````````````````````````",
"````````````````````````````````````````````````````````````````````````````````````````````````",
"`````````````````````````````````````````````````````````````````.`#`a``````````````````````````",
"```````````````````````````````````````````````````````````````b`c`d`e`f````````````````````````",
"`````````````````````````````````````````````````````g`h`i`````j`c`d`k`l`````a`d`m``````````````",
"`````````````````````````````````````````````````````n`h`o`p`h`.`q`d`r`k`#`s`r`t`u`v````````````",
"`````````````````````````````````````````````````````w`x`y`z`A`B`q`C`D`u`u`u`t`t`E`i````````````",
"`````````````````````````````````````````````````````F`G`i`p`i`H`I`J`K`L`.`u`u`D`M`z````````````",
"`````````````````````````````````````````````N`N`O`P`Q`w`R`S`T`U`V`W`J`V`X`Y`Z`e`0`1`2`f`f``````",
"```````````````````````````````````````````w`3`i`4`L`w`5`U`6`7`8.`..`a.#.a`5.b`3.c.d`#`#`q.e````",
"```````````````````````````````````````````g.f.a`i`4`K.g.h`Y.a.i`1.`.j.k`E.l.m.b.n`a`#`a`m`i````",
"``````````````````````````````````````````.o`H.f`h.p.q.h.r.s.s`I.t.u.v.w`A`d.#.x.y`b`q`M`h`X````",
"````````````````````````````````````````````.z`h`p.A.B`5`o`4.C``````````.D`v`M.E.o.p..`l.F``````",
"`````````````````````````````````````````````g`j.a`N.G.H.I.J``````````````.v`B.i`H`K`f`f`h``````",
"`````````````````````````````````````````i`z`Z.f.K.L`J.K.M``````````````````.p.#`4.N.E.O.P`A.Q``",
"```````````````````````````````````````i`b`b`b`b`Z.R.S`2.T``````````````````.U`f.n.y.V.O.O`f`.`p",
"```````````````````````````````````````y.i...W`B`b`g.A`B`i``````````````````.X.E`L.Y.V`b`f.W.#`v",
"```````````````````````````.`#`a````````.w`8.``l.Z`x.S`1.E``````````````````.x`p.0.1.a`2`Z.2.b.x",
"`````````````````````````b`c`d`e`f````````.3``.W.#`b`O`2`B``````````````````.T.M.4.p.I`j.h``````",
"```````````````g`h`i`````j`c`d`k`l`````a`d`m```..W`1.2.H.5.K``````````````.S`w.x`V`z`i.H````````",
"```````````````n`h`o`p`h`.`q`d`r`k`#`s`r`t`u.F`f`1.P`1.U`p.f.V````````.6`Q`w.2.G.I`3`L`L`Q``````",
"```````````````w`x`y`z`A`B`q`C`D`u`u`u`t`t`E.o.`.`.``B`b.Y`i.V.7`p`3.p`4`G`H.b`G.7.M.M`L.M.8````",
"```````````````F`G`i`p`i`H`I`J`K`L`.`u`u`D`M`I.O.P.P`b`1.W`J.1`w`i.p`L`g`I#``z.K`i.s.V`Z.Q.y````",
"```````N`N`O`P`Q`w`R`S`T`U`V`W`J`V`X`Y`Z`e`0`1`J#.##.V.Q`2.i.K.0#a.N.4.Y`4`1`z`Q`4#b#c.y.R`P````",
"`````w`3`i`4`L`w`5`U`6`7`8.`..`a.#.a`5.b`3.c.d`#`#`q.e`h`x`3.s`b.i.i.#`b`h.m.S`g`R.v````````````",
"`````g.f.a`i`4`K.g.h`Y.a.i`1.`.j.k`E.l.m.b.n`a`#`a`m`i`w`L`G`G`w.8.S`g.m.6.8`N`Y.1``````````````",
"````.o`H.f`h.p.q.h.r.s.s`I.t.u.v.w`A`d.#.x.y`b`q`M`h`N`F`F.R`X.x.x.1`K`Y`X.N.x.L`P``````````````",
"``````.z`h`p.A.B`5`o`4.C``````````.D`v`M.E.o.p..`l.F.q.1`J#d.3.F`7.w.y#e#.#c.y`O`V``````````````",
"```````g`j.a`N.G.H.I.J``````````````.v`B.i`H`K`f`f`h#f#c`T````.o#`.b.J.q````.g#g`U``````````````",
"```i`z`Z.f.K.L`J.K.M``````````````````.p.#`4.N.E.O.P`A.Q```````I`V`S.o#a````````````````````````",
"`i`b`b`b`b`Z.R.S`2.T``````````````````.U`f.n.y.V.O.O`f`.`p``````````````````````````````````````",
"`y.i...W`B`b`g.A`B`i``````````````````.X.E`L.Y.V`b`f.W.#`v``````````````````````````````````````",
"``.w`8.``l.Z`x.S`1.E``````````````````.x`p.0.1.a`2`Z.2.b.x``````````````````````````````````````",
"````.3``.W.#`b`O`2`B``````````````````.T.M.4.p.I`j.h````````````````````````````````````````````",
"`````````..W`1.2.H.5.K``````````````.S`w.x`V`z`i.H``````````````````````````````````````````````",
"``````.e`f`1.P`1.U`p.f.V````````.6`Q`w.2.G.I`3`L`L`Q````````````````````````````````````````````",
"````.s.O.`.`.``B`b.Y`i.V.7`p`3.p`4`G`H.b`G.7.M.M`L.M.8``````````````````````````````````````````",
"`````S`..O.P.P`b`1.W`J.1`w`i.p`L`g`I#``z.K`i.s.V`Z.Q.y``````````````````````````````````````````",
"```````O`J#.##.V.Q`2.i.K.0#a.N.4.Y`4`1`z`Q`4#b#c.y.R`P``````````````````````````````````````````",
"````````````#h`L`h`x`3.s`b.i.i.#`b`h.m.S`g`R.v``````````````````````````````````````````````````",
"``````````````.6`w`L`G`G`w.8.S`g.m.6.8`N`Y.1````````````````````````````````````````````````````",
"`````````````7`N`F`F.R`X.x.x.1`K`Y`X.N.x.L`P````````````````````````````````````````````````````",
"`````````````W.q.1`J#d.3.F`7.w.y#e#.#c.y`O`V````````````````````````````````````````````````````",
"``````````````#f#c`T````.o#`.b.J.q````.g#g`U````````````````````````````````````````````````````",
"`````````````````````````I`V`S.o#a``````````````````````````````````````````````````````````````",
"````````````````````````````````````````````````````````````````````````````````````````````````",
"````````````````````````````````````````````````````````````````````````````````````````````````",
"````````````````````````````````````````````````````````````````````````````````````````````````"
};
