/* XPM */
static const char *toolbox_48_xpm[] = {
/* width height num_colors chars_per_pixel */
"    48    48      256            2",
/* colors */
"`` c #444244",
"`. c #847a64",
"`# c #c4b664",
"`a c #9c7a44",
"`b c None",
"`c c #746e54",
"`d c #e4d675",
"`e c #ac9a4c",
"`f c #4c5e7c",
"`g c #647aa4",
"`h c #b4b6b4",
"`i c #9c9a9c",
"`j c #4c5e84",
"`k c #8c8e8c",
"`l c #dcc655",
"`m c #44526c",
"`n c #d4d6d8",
"`o c #acaaac",
"`p c #546e99",
"`q c #9c8a7c",
"`r c #bc9a58",
"`s c #9c925c",
"`t c #747273",
"`u c #7c7a94",
"`v c #8c8a6c",
"`w c #c4ba6c",
"`x c #d4b694",
"`y c #8c724c",
"`z c #645e5c",
"`A c #7c7a7c",
"`B c #9c9abc",
"`C c #ece297",
"`D c #848eb4",
"`E c #545454",
"`F c #646e8c",
"`G c #8c8a8c",
"`H c #3c4664",
"`I c #ccaa3c",
"`J c #f4eab4",
"`K c #ac7a3c",
"`L c #c4c6c4",
"`M c #5c6284",
"`N c #dcc684",
"`O c #b48c4c",
"`P c #9496b4",
"`Q c #d4ba44",
"`R c #aca66c",
"`S c #acaacc",
"`T c #d4ba70",
"`U c #6c6a54",
"`V c #848274",
"`W c #9ca2c4",
"`X c #64729c",
"`Y c #74725c",
"`Z c #e4d694",
"`0 c #c4b6d4",
"`1 c #9c713c",
"`2 c #4c4e67",
"`3 c #d4c064",
"`4 c #9c7a4c",
"`5 c #5c5e60",
"`6 c #7483ac",
"`7 c #dcce65",
"`8 c #445274",
".` c #e4d6c4",
".. c #c4a65c",
".# c #7c8294",
".a c #545673",
".b c #b48a54",
".c c #947c5c",
".d c #a49d74",
".e c #a4a4a4",
".f c #e4ce94",
".g c #f4eaac",
".h c #7c86ac",
".i c #444e6a",
".j c #bcb2d4",
".k c #d4c284",
".l c #747a8c",
".m c #4c6a94",
".n c #bc9a65",
".o c #74728c",
".p c #64627c",
".q c #ece2a4",
".r c #9492ac",
".s c #6c6e89",
".t c #c4aa64",
".u c #5c6a8c",
".v c #8c96bc",
".w c #dcc24d",
".x c #b4b2d4",
".y c #aca6c8",
".z c #847254",
".A c #5c617c",
".B c #8486a4",
".C c #4c4c4c",
".D c #ecde84",
".E c #dcdee1",
".F c #5c769c",
".G c #7c7c9c",
".H c #8c8a84",
".I c #8c7254",
".J c #646664",
".K c #8c7e6c",
".L c #8c8eb4",
".M c #5c5a5c",
".N c #e4e6e6",
".O c #b4aacc",
".P c #848484",
".Q c #c4c2c4",
".R c #b49264",
".S c #d4d2d8",
".T c #ccaa84",
".U c #a47a39",
".V c #e4da84",
".W c #6c7aa4",
".X c #bcb6d4",
".Y c #9c9cac",
".Z c #546084",
".0 c #949694",
".1 c #dcca6c",
".2 c #4c526b",
".3 c #b4b2b4",
".4 c #5c6e94",
".5 c #9c9670",
".6 c #7c766c",
".7 c #94926c",
".8 c #ccc26c",
"#` c #847a74",
"#. c #a47634",
"## c #9c96b4",
"#a c #e4e2e4",
"#b c #dcc6ac",
"#c c #bc963c",
"#d c #f4eee4",
"#e c #ac8244",
"#f c #d4c2a4",
"#g c #dcd07c",
"#h c #aca26c",
"#i c #94824c",
"#j c #ccced4",
"#k c #b4ae74",
"#l c #ecde91",
"#m c #ccb264",
"#n c #646a64",
"#o c #c4bedc",
"#p c #bcbebc",
"#q c #b4a24c",
"#r c #c4a274",
"#s c #747ea4",
"#t c #8c7e54",
"#u c #948a64",
"#v c #5c565c",
"#w c #b4aa6c",
"#x c #bc9254",
"#y c #9c7643",
"#z c #dcceb4",
"#A c #948264",
"#B c #8482a0",
"#C c #ece2d4",
"#D c #7c6a54",
"#E c #bcbabc",
"#F c #949294",
"#G c #dcdadc",
"#H c #c49e5c",
"#I c #947647",
"#J c #a49ebc",
"#K c #444664",
"#L c #cccacc",
"#M c #dcbe4a",
"#N c #8c8274",
"#O c #a4a2c4",
"#P c #6c769c",
"#Q c #7c745c",
"#R c #dcc25c",
"#S c #a47e4c",
"#T c #e4ce64",
"#U c #4c5474",
"#V c #f4e6ac",
"#W c #9496bc",
"#X c #eceaec",
"#Y c #b4863c",
"#Z c #6c6e6a",
"#0 c #b49e4c",
"#1 c #acaebc",
"#2 c #ccb66c",
"#3 c #545664",
"#4 c #646484",
"#5 c #d4bc7c",
"#6 c #5c626c",
"#7 c #545a7c",
"#8 c #a49e84",
"a` c #a4a6b4",
"a. c #6c7194",
"a# c #ccae64",
"aa c #847664",
"ab c #848ab4",
"ac c #4c4e5c",
"ad c #bc9664",
"ae c #a49254",
"af c #dcc284",
"ag c #646a88",
"ah c #6c665c",
"ai c #545e7c",
"aj c #444e74",
"ak c #546a94",
"al c #a47a44",
"am c #9496a4",
"an c #ccc27c",
"ao c #ccb274",
"ap c #ccbedc",
"aq c #b4aa7c",
"ar c #e4da7c",
"as c #4c628c",
"at c #dcca5c",
"au c #747674",
"av c #7c7e90",
"aw c #646262",
"ax c #7c7e7c",
"ay c #9c9ec2",
"az c #647294",
"aA c #ac7e44",
"aB c #dcca8c",
"aC c #949aac",
"aD c #84866c",
"aE c #6476a1",
"aF c #747664",
"aG c #e4da9c",
"aH c #c4badc",
"aI c #9c7e50",
"aJ c #5c6264",
"aK c #44567c",
"aL c #7c8ab2",
"aM c #bc9e6c",
"aN c #747694",
"aO c #ece6a5",
"aP c #848aac",
"aQ c #8c765c",
"aR c #8c92b7",
"aS c #b4aece",
"aT c #6c7ea5",
"aU c #4c566c",
"aV c #5c729c",
"aW c #948e5c",
"aX c #bc965c",
"aY c #7c6e5c",
"aZ c #444a65",
"a0 c #a4a6c8",
"a1 c #e4d26c",
"a2 c #949abe",
"a3 c #444644",
"a4 c #847e64",
"a5 c #c4ba64",
"a6 c #9c9e9c",
"a7 c #acaeac",
"a8 c #8492b4",
/* pixels */
"#paxau`Aauau`Aauau`Aauau`Aauau`Aauauax`o`b`b`b`b`b`b`b`b`b`b`b`b`b`b`b`b`b`b`b`b`b`b`b`b`b`b`b`b",
"ax.3`L`L.Q`L.Q.Q#p.Q#p.Q#p#p.Q#E#p#p#E.P#L`b`b`b`b`b`b`b`b`b`b`b`b`b`b`b`b`b`b`b`b`b`b`b`b`b`b`b",
"`A`L#L.3a7a7`o`o`o.e.e.e.e.ea6.ea6a6`oa6a6`b`b`b`b`b`b`b`b`b`b`b`b`b`b`b`b`b`b`b`b`b`b`b`b`b`b`b",
"`A#p.3a6a6`i`i.0.0.0.0#F#F#F#F`k#F#F`k.eax`b`b`b`b`b`b`b`b`b`b`b`b`b`b`b`b`b`b`b`b`b`b`b`b`b`b`b",
"ax#E`ha6a6`i`i.0`i#F#F#F`k`k`k`k`G`G`G.e`t`b`b`b`b`b`b`b`b`b`b`b`b`b`b`b`b`b`b`b`b`b`b`b`b`b`b`b",
"ax#E`ha6a6`i`i.0.0.0.0#F#F`k#F`k`k`k`G`kax`i#G#G#G#G#G#G#G#G#G#G#G#G#G#G#G#a`b`b`b`b`b`b`b`b`b`b",
".Pa7.3#F#F`k`k`G`G`G.P.P.P.P.Pax.Paxax.P`G`A`t`t`t`t`t`t`t`t`t`t`t`t`t`t#Z#Z#E`b`b`b`b`b`b`b`b`b",
".P`o`ha6a6`i`i.0.0#F`k#F`k`k`G`G`G`G`G`G.P.P.0`o.3`h`h`h#E`h#E#E#p#p#p.Q.Q.3aw`b`b`b`b`b`b`b`b`b",
".P`o`o`G`G`G.P.P.P.Paxaxax`A`A`Aau`Aauau`Aau`Aauau`A`Aau`A`Aaxaxax.P.P.P.P`G.J`b`b`b`b`b`b`b`b`b",
"`G.e.3.0.0#F#F`k`k`G`G`G.P.P.P.P.Pax.Paxax.Paxax.Pax.P.P.P.P.P`G`G`G`G`k#F#Faw#X`b`b`b`b`b`b`b`b",
"`ka6`o`k`G.P.P.P.Paxax`A`A`Aauauauau`tau`t`tau`tauau`tau`Aau`A`A`Aaxax.P.P`Gaw#a`b`b`b`b`b`b`b`b",
"#F`ia7`k`G.HaI`4`aal`4`a`a`a`4`a#y`4#y#y`4#y#y#y#y`4#y`4#y`4`a`a`4`4`4`4aI`a#I.R.nad.nad.n.n.``b",
".0#F`o`G`G#N#..kaf.k.k.k.kaf#5af.kaf.kaf.k.k.k.k.kaf.k.kaf.k.k.k.kaf.kaf#5af.k#5af#5af#5afao`K`b",
"`i`k.e.Hax#N#e`J.q.q#V`C.q.qaOaO.q.qaO.q.q#V`C#V.q.q#V`C.q#V`C#V`CaOaOaOaOaO#VaOaOaOaOaO#V`ZaA`b",
"a6`ka7`G`G.c`O`J.Varar.D`d.D`d.D`d.D`d.D`dararar.D`dararar`d.Varar.D`d.D`dar`dar.D`d.D.V#laB.b`b",
".e.Pa6axaxaQ`r`Jarar`d.V`d.V`d.V`d.V`darar.D`d`d`d.V.D`d.D`d.D`d.V`d`dar`d.D`dar`d.V`d`d`C.kad`b",
"`o.P`o`G.P.c.t`J`d.D`d.D`d.D`d.D`d.D`d.D`d`d.D.V.D`d`d.V`d.V`d.D`d.D.V`d.D`d.V.D`d.D`d`d.q#5aM`b",
"`oaxa6ax`A#IaoaO.V`d.V`d.V`d.V`d.V`d.V`d.V.V`d`d.V`d.D`d.D`d.V`d.V`d.D`d.Var`d.V`d.V`d`d`Cao.T`b",
".3ax.e.Paxal#5aO.D`d.D`d.D`d.D`d.D`d.D.V`d.D.V`d.D`d.V`d.V`d.D`d.D`d.V`d.D`d.D`d.D`d`d`d#V..`x`b",
"`hau.e`Aaual`N.q`d.V`d.V`d.V`d.V`d.V`d.D`d`d.D`d.V`d.D`d.D.V`d.V`d.D`d.D`d.V`d.V`da1`da1aO#H#f`b",
"#E`ta6`Aau.UaBaOar.D`d.D.V.D`d.D.V.D`d.V.D`d.V`d.D.V`d.V`d.V`d.D.d`2aZ.a.d`d.D`d`d`d`d`d`J.R#z`b",
"#p#Za6ax`A#.aG#l.V`d.V`d`d.V`d.V`d`d.D`d.V`d.D.V`d.V`d.D`d.D`d.V#3`H`8aZ`5.V`d`da1`da1`d.g#Y.``b",
".Q#Z`iau`t#..q#l.V.D`d.D`d.D`d.D`d.V`d.V`d.D`d.V`d.D`N`d.V`d.D#g`H#U.maK#K`da1`d`d.1.8ar`Jal#C`b",
"`Lah`i.P#`#..q#l`d`d.V`d.V`d.V`d.D`d.D`d.D`d.V`d.D.5`H`5an.V`d#k#Kas`p`j`H`#`d`d`R`2#K.daO#.#d`b",
"#Law`kau`cal#V.V.V.D`d.D`d.D.V`d.V.V`d.V`d.V`d.D.7`H.iaZaZ.7`t`H#K`paV.u#K`H`Y`t#K.iaU`H#8#.`b`b",
"#j`5`iaxaa#eaO.D`d.V`d.V.V`d.V`d.D`d.D`d.D.V`d.V#KaZ`pak#U`H#K`f.4aE.FaEaV.ZaZ#K.ZaT.W`2aZ`K`b`b",
"`n.M`k`A.z.b.q.V`d.D`d.D`d.D`d.D`d.V`d`d`d`d`da1`t#KakaVaV.4`XaE`gaE.W`gaT.WaTaTaT`6az`H`VaA`b`b",
"#G`E#F`A.z`r`C.D`d.V`d.V`d.V`d`d`da1`da1`d`d`d`d.1.2`maE`g.W`g.WaTaTaT#saT`6`6`6`6#saZaw.k.b`b`b",
".E.C`k`A#I..#l.V`d.D`d`d`da1`da1`d`d`d`d`da1`da1`d.5`Haz.WaTaT`6aT`6.W`6`6.h.haLaL#P`Haq`Tad`b`b",
".N.C.Hau#Ia##lar`d`d`d`d`d`d`d`da1`da1`d`d`d`d`da1#n`2aT`6`6`6aT#7#K`HaZai.haLab`DaP.i#Z#m#r`b`b",
"#X```k`A#y#m#la1`d`da1`da1`da1`d`d`d`da1`da1a1`7#w#K.u`6.h.h`6aZaZ`v#ha4aZ.iaLaRa8aRa.#K#Q`q#a`b",
"`b``.P`t#y`T`da1a1a1a1a1a1a1a1a1a1a1a1a1a1#u#3`H#KaZ`6aLaLabaiaZ#2a1`7a1`##K.A.v#W.vaR#7#K`H`H#B",
"`b``.Pax#.`3a1#T`7#T`7#T#T`7#T#T`7#T#T`7#T#K.2ag#P.h`D`D`D`DaZa4at`7#Tatat`.aZa2a2`B`Baya2.L.A.2",
"`b``ax`t#.`3#T.1atat#Tatatatatat`lat`l`l`l`H`F`D`Da8aRaRaR`D`H`s`l`l`lat`laW#K#Way`W`W#O#O#O.o#K",
"`b``ax#`#.#R`l`l`l`l.w`l.w`l.w`l.w`l`l.w`l#K`2.Aa.aLaR.v`Pa2aZ#Q.w.w.w.w.w`Y`2`W#Oa0a0.G`M.2`H#U",
"`ba3`A.6#.#M`3#M#M.w`Q.w.w`Q.w#M`Q.w#M`Q.w`sah`m`HaZ`Pa2a2ay#4aZ`e#M`Q`Q`e#K.sa0.y`S`B`Hacava`.E",
"`b.C`Aaa#.`Q#M`Q`Q`Q#M`Q`Q`Q`Q`Q`Q`Q`Q`Q`Q`Q`Q`Q#0#KaNay`W#OayaU#K`U#t`UaZaUa0`S`SaS.G#K`1`b`b`b",
"`bac`A.c#Y`Q`Q`Q`Q`Q`Q`Q#M`Q#M`Q#M`Q`Q`Q`Q`Q`Q`Q`Q`zaU#O#Oa0a0#Oa..a`H.aaN`SaSaS.x.x.a.M`O`b`b`b",
"`baw#D#.#c`I`I`I`I`I`I`I`I`I`I`I`I`I`I`I`I`I`I`I`I#i#K`P`S`S`S.O`SaSaSaS.x.j.j.j.X.j`2#v#f`b`b`b",
"`b#X`1#.`1#.#.#.#.#.#.#.#.#.#.#.#.#.#.#.#.#.#.#.`1.C.2`S.OaSaS.x.x.j.x.X.j.X.X.XaHaH.r`H#1`b`b`b",
"`b`b`b`b`b`b`b`b`b`b`b`b`b`b`b`b`b`b`b`b`b`b`b`b.##K`BaS.x#O.j.X.X.XaH.XaHaHaH###JaHap.s#K.N`b`b",
"`b`b`b`b`b`b`b`b`b`b`b`b`b`b`b`b`b`b`b`b`b`b`b`b#K.A.X.y.A`H.a#BaSaH#oap.X#B.2`H#K`u`0.o`H#G`b`b",
"`b`b`b`b`b`b`b`b`b`b`b`b`b`b`b`b`b`b`b`b`b`b`b`baC#K#4aZ.2a`.l#K#K##apaH.a#K.l#LaC`H.2`Ha``b`b`b",
"`b`b`b`b`b`b`b`b`b`b`b`b`b`b`b`b`b`b`b`b`b`b`b`b`b`i`Hav`b`b`b#XaU.o#o.O`H#1`b`b`b#j.s.e`b`b`b`b",
"`b`b`b`b`b`b`b`b`b`b`b`b`b`b`b`b`b`b`b`b`b`b`b`b`b`b`b`b`b`b`b`b.l.Aap##`H#G`b`b`b`b`b`b`b`b`b`b",
"`b`b`b`b`b`b`b`b`b`b`b`b`b`b`b`b`b`b`b`b`b`b`b`b`b`b`b`b`b`b`b`b`PaZ#B.AaZ`b`b`b`b`b`b`b`b`b`b`b",
"`b`b`b`b`b`b`b`b`b`b`b`b`b`b`b`b`b`b`b`b`b`b`b`b`b`b`b`b`b`b`b`b.S`2#K`2.r`b`b`b`b`b`b`b`b`b`b`b",
"`b`b`b`b`b`b`b`b`b`b`b`b`b`b`b`b`b`b`b`b`b`b`b`b`b`b`b`b`b`b`b`b`b`b`b`b`b`b`b`b`b`b`b`b`b`b`b`b"
};
