/* XPM */
static char * add_layer_xpm[] = {
"16 16 75 1",
" 	c None",
".	c #995D03",
"+	c #D07305",
"@	c #CA6C02",
"#	c #AD6301",
"$	c #975B03",
"%	c #8F5802",
"&	c #AF6301",
"*	c #F19C1A",
"=	c #FBE049",
"-	c #FCE34B",
";	c #FAC938",
">	c #F8AD25",
",	c #E58B11",
"'	c #C66B02",
")	c #AB6201",
"!	c #945B03",
"~	c #955B03",
"{	c #D07607",
"]	c #FAC233",
"^	c #FCE94F",
"/	c #F9BE31",
"(	c #BE6701",
"_	c #A96202",
":	c #EE9617",
"<	c #FBDE47",
"[	c #F5D644",
"}	c #D7710C",
"|	c #D56E0B",
"1	c #F6AF27",
"2	c #9A5C01",
"3	c #8F5902",
"4	c #A56002",
"5	c #CD7407",
"6	c #F2A420",
"7	c #FACC3B",
"8	c #FCE84E",
"9	c #F1C63B",
"0	c #E79F52",
"a	c #FEE2BA",
"b	c #E69C4D",
"c	c #FCE54D",
"d	c #D27707",
"e	c #925A01",
"f	c #AF6101",
"g	c #D27207",
"h	c #E38613",
"i	c #E8A054",
"j	c #FDCB81",
"k	c #E07F19",
"l	c #E7AB2C",
"m	c #EFA524",
"n	c #AA5E02",
"o	c #D16103",
"p	c #E49951",
"q	c #E39A52",
"r	c #F7D0A1",
"s	c #FDC168",
"t	c #F2A84E",
"u	c #E8A055",
"v	c #E69A4F",
"w	c #CE6103",
"x	c #D16204",
"y	c #FCC87F",
"z	c #FCAF3E",
"A	c #D06204",
"B	c #D26103",
"C	c #DD7613",
"D	c #DE7714",
"E	c #F2A84F",
"F	c #EF972B",
"G	c #DC7714",
"H	c #DA7513",
"I	c #E79D55",
"J	c #E69B52",
"                ",
"                ",
"                ",
"      .+@#$%    ",
"     &*=-;>,')! ",
"   ~{]^^^^^^-/( ",
"  _:<^^[}|}[^12 ",
" 34567890ab9cd  ",
"    efghijklmn  ",
"     opqrstuvw  ",
"     xyjszsjyA  ",
"     BCDEsFGHB  ",
"        IjD     ",
"        JyC     ",
"        BxB     ",
"                "};
