/* XPM */
static const char *cursors_16_xpm[] = {
/* width height num_colors chars_per_pixel */
"    96    16      256            2",
/* colors */
"`` c None",
"`. c #808080",
"`# c #000000",
"`a c #4d4d4d",
"`b c #ffffff",
"`c c #f5f5f5",
"`d c #4b4b4b",
"`e c #4a4a4a",
"`f c #c0c0c0",
"`g c #d6d6da",
"`h c #949494",
"`i c #494949",
"`j c #898989",
"`k c #484848",
"`l c #d6d7da",
"`m c #d3d3d6",
"`n c #ececec",
"`o c #9a9a9a",
"`p c #b7b7b7",
"`q c #828282",
"`r c #797979",
"`s c #444444",
"`t c #fbfbfb",
"`u c #d9dadd",
"`v c #95969f",
"`w c #f8f8f8",
"`x c #858585",
"`y c #fdfdfd",
"`z c #9f9f9f",
"`A c #bdbdbd",
"`B c #707070",
"`C c #676767",
"`D c #3e3e3e",
"`E c #d5d6d9",
"`F c #bababa",
"`G c #f3f3f3",
"`H c #818181",
"`I c #bcbcbc",
"`J c #6f6f6f",
"`K c #f9f9f9",
"`L c #a0a0a0",
"`M c #8b8b8b",
"`N c #666666",
"`O c #5c5c5c",
"`P c #4f4f4f",
"`Q c #343434",
"`R c #fefefe",
"`S c #fcfcfc",
"`T c #cecfd2",
"`U c #efefef",
"`V c #e8e8e8",
"`W c #c1c1c1",
"`X c #f4f4f4",
"`Y c #bebebe",
"`Z c #ababab",
"`0 c #cacaca",
"`1 c #e4e4e4",
"`2 c #636363",
"`3 c #535353",
"`4 c #474747",
"`5 c #3b3b3b",
"`6 c #292929",
"`7 c #c5c6ca",
"`8 c #96979f",
".` c #eeeeee",
".. c #f6f6f6",
".# c #b5b5b5",
".a c #f7f7f7",
".b c #c3c3c3",
".c c #585858",
".d c #505050",
".e c #404040",
".f c #373737",
".g c #2d2d2d",
".h c #212121",
".i c #f9f9f7",
".j c #bbbcbf",
".k c #dddddd",
".l c #f2f2f2",
".m c #464646",
".n c #2f2f2f",
".o c #222222",
".p c #1c1c1c",
".q c #ffff00",
".r c #fbfbfa",
".s c #e9e9e9",
".t c #eeedec",
".u c #b6b6ba",
".v c #f0f0f0",
".w c #d5d5d5",
".x c #c8c7c7",
".y c #434343",
".z c #454545",
".A c #424242",
".B c #353535",
".C c #303030",
".D c #ffff99",
".E c #363636",
".F c #e9e8e9",
".G c #cfcfd2",
".H c #484a58",
".I c #eaeaea",
".J c #ededed",
".K c #e6e6e6",
".L c #aeaeae",
".M c #3f3f3f",
".N c #393939",
".O c #323232",
".P c #ffcc00",
".Q c #fefefd",
".R c #e2e2e3",
".S c #7b7d86",
".T c #d0d0d2",
".U c #e5e5e5",
".V c #e3e3e3",
".W c #e2e2e2",
".X c #d7d7d7",
".Y c #313131",
".Z c #e0e0e2",
".0 c #dedddd",
".1 c #8a8b92",
".2 c #c4c4c4",
".3 c #dfdfdf",
".4 c #dcdcdc",
".5 c #dadada",
".6 c #d2d3d2",
".7 c #c8c8c8",
".8 c #d6d6d6",
"#` c #d3d3d3",
"#. c #969696",
"## c #eeeeea",
"#a c #dbdbdb",
"#b c #d8d8d8",
"#c c #cccccc",
"#d c #2e2e2e",
"#e c #2b2b2b",
"#f c #000000",
"#g c #000000",
"#h c #000000",
"#i c #000000",
"#j c #000000",
"#k c #000000",
"#l c #000000",
"#m c #000000",
"#n c #000000",
"#o c #000000",
"#p c #000000",
"#q c #000000",
"#r c #000000",
"#s c #000000",
"#t c #000000",
"#u c #000000",
"#v c #000000",
"#w c #000000",
"#x c #000000",
"#y c #000000",
"#z c #000000",
"#A c #000000",
"#B c #000000",
"#C c #000000",
"#D c #000000",
"#E c #000000",
"#F c #000000",
"#G c #000000",
"#H c #000000",
"#I c #000000",
"#J c #000000",
"#K c #000000",
"#L c #000000",
"#M c #000000",
"#N c #000000",
"#O c #000000",
"#P c #000000",
"#Q c #000000",
"#R c #000000",
"#S c #000000",
"#T c #000000",
"#U c #000000",
"#V c #000000",
"#W c #000000",
"#X c #000000",
"#Y c #000000",
"#Z c #000000",
"#0 c #000000",
"#1 c #000000",
"#2 c #000000",
"#3 c #000000",
"#4 c #000000",
"#5 c #000000",
"#6 c #000000",
"#7 c #000000",
"#8 c #000000",
"a` c #000000",
"a. c #000000",
"a# c #000000",
"aa c #000000",
"ab c #000000",
"ac c #000000",
"ad c #000000",
"ae c #000000",
"af c #000000",
"ag c #000000",
"ah c #000000",
"ai c #000000",
"aj c #000000",
"ak c #000000",
"al c #000000",
"am c #000000",
"an c #000000",
"ao c #000000",
"ap c #000000",
"aq c #000000",
"ar c #000000",
"as c #000000",
"at c #000000",
"au c #000000",
"av c #000000",
"aw c #000000",
"ax c #000000",
"ay c #000000",
"az c #000000",
"aA c #000000",
"aB c #000000",
"aC c #000000",
"aD c #000000",
"aE c #000000",
"aF c #000000",
"aG c #000000",
"aH c #000000",
"aI c #000000",
"aJ c #000000",
"aK c #000000",
"aL c #000000",
"aM c #000000",
"aN c #000000",
"aO c #000000",
"aP c #000000",
"aQ c #000000",
"aR c #000000",
"aS c #000000",
"aT c #000000",
"aU c #000000",
"aV c #000000",
"aW c #000000",
"aX c #000000",
"aY c #000000",
"aZ c #000000",
"a0 c #000000",
"a1 c #000000",
"a2 c #000000",
"a3 c #000000",
"a4 c #000000",
"a5 c #000000",
"a6 c #000000",
"a7 c #000000",
"a8 c #000000",
/* pixels */
"```````.`#`#`#`.```````````````````````.`#`#`#`.`````````````````#`````````````````#`#`#`#`#`````````````````#`#`#`````````````````````````````````````````````````````a````````````````````````",
"`````#`.`.`.`.`.`#```````````````````#`.`.`.`.`.`#```````````````#`#`````````````#`b`b`b`b`b`#```````````````#`c`#```#`#```````````````````````````````````````````````d`e``````````````````````",
"```#`.`f```````f`.`#```````````````#`.`f```````f`.`#`````````````#`g`#`````````#`b`b`b`#`b`b`b`#```````#`````#`b`h`#`b`f`#`````````````````````````````````````````````i`j`k````````````````````",
"`.`.`f`````#`````f`.`.```````````.`.`f```````````f`.`.```````````#`b`l`#```````#`b`b`m`b`m`m`m`#`````#`n`#```#`b`o`#`b`p`#`````````````````````#`#`````````````````````k`q`r`s``````````````````",
"`#`.```````#```````.`#```````````#`.```````````````.`#```````````#`t`b`u`#`````#`b`m`m`#`m`v`v`#`````#`w`n`#`x`y`z`#`b`A`#```#```````````````#`b`f`#`#`#```````````````k`r`B`C`D````````````````",
"`#`.```#`#`#`#`#```.`#```````````#`.```#`#`#`#`#```.`#```````````#`b`t`b`E`#```#`m`v`m`#`m`v`v`#```````#`b`F`q`G`z`H`b`I`J`#`K`#`````````#`#`L`b`p`M`b`p`#`````````````i`J`N`O`P`Q``````````````",
"`#`.```````#```````.`#```````````#`.```````````````.`#```````````#`R`R`S`b`T`#`#`v`v`m`#`m`v`v`#```````#`U`V`W`X`Y`Z`t`0`J`V`1`#```````#`w`n`W`X`f`Z`t`0`J`#```````````k`2`O`3`4`5`6````````````",
"`.`.`f`````#`````f`.`.```````````.`.`f```````````f`.`.```````````#`R`R`S`w`b`7`8`#`v`v`m`v`v`#`````#`#```#`n`y`y`G.``X...#.a.b`#```````#`w`n`y`y`G.``X..`G`V`#`````````i.c.d`k.e.f.g.h``````````",
"```#`.`f```````f`.`#`Z`````````````#`.`f```````f`.`#`Z```````````#`R`S`K...`.i.j`v`#`#`#`#`#`````#`R.k`#`W`q`b.a.a`c`X`c`c.l`#`````````#`p`R`b.a.a`c`X`c`c.l`#````````.m`P`4.e`Q.n`6.o.p````````",
"`````#`.`.`.`.`.`#`f`..q`````````````#`.`.`.`.`.`#`f`..q`````````#`S.a.r`G.`.s.t.u`#```````````````#..`V`q`q`R`G`X`X`G.v.v.w`#```````#`R.x`R`R`G`X`X`G.v.v.w`#````````.y.z.A.f.B.C``````````````",
"```````.`#`#`#`.`Z`..D`..E`````````````.`#`#`#`.`Z`..D`..E```````#..`b`m.F.G.H`#`#`#`````````````````#.l`t.I.l`X`G`G.J.I.K.L`#```````#..`t.I.l`X`G`G.J.I.K.L`#````````.e.M.N```Q.O``````````````",
"``````````````````.P`#.E`..E``````````````````````.P`#.E`..E`````#.Q.R`#.S.T`#```````````````````````#.x`c.`.U.I.I.K.V.W.X`x`#```````#.x`c.`.U.I.I.K.V.W.X`x`#`````````5.N```````Q.Y````````````",
"`````````````````````#`#.E`..E```````````````````````#`#.E`..E```#.Z`#```#.0.1`#```````````````````````#.2`1.3.4.k.4.5.5`f`#```````````#.2`1.3.4.k.4.5.5`f`#``````````.N`````````Q.C````````````",
"```````````````````````#`#.E`..E```````````````````````#`#.E`..E`#`#```````#.6`#`````````````````````````#.7.8.8.w#``0.7#.`#`````````````#.7.8.8.w#``0.7#.`#``````````````````````.C.g``````````",
"`````````````````````````#`#.E.E`````````````````````````#`#.E.E```````````###`#```````````````````````````#.5#a#b#`#c`F`#`````````````````#.5#a#b#`#c`F`#````````````````````````#d#e``````````",
"```````````````````````````#`#`````````````````````````````#`#```````````````#`````````````````````````````#`#`#`#`#`#`#`#`````````````````#`#`#`#`#`#`#`#``````````````````````````````````````"
};
