/* XPM */
static const char *folder_new_xpm[] = {
/* width height num_colors chars_per_pixel */
"    16    16      256            2",
/* colors */
"`` c None",
"`. c #b5b5b5",
"`# c #b8b8b8",
"`a c #b7b7b7",
"`b c #b4b4b4",
"`c c #bababa",
"`d c #f0ccad",
"`e c #e1985c",
"`f c #b3b3b3",
"`g c #a1a1a1",
"`h c #9c9c9c",
"`i c #979797",
"`j c #949494",
"`k c #919191",
"`l c #9b9b9b",
"`m c #e39f67",
"`n c #e09453",
"`o c #df924f",
"`p c #e6a668",
"`q c #df9453",
"`r c #d97e33",
"`s c #aeaeae",
"`t c #989898",
"`u c #929292",
"`v c #8d8d8d",
"`w c #898989",
"`x c #868686",
"`y c #888888",
"`z c #a5a5a5",
"`A c #b98961",
"`B c #e7ac65",
"`C c #eec07b",
"`D c #eec17c",
"`E c #a9a9a9",
"`F c #8e8e8e",
"`G c #838383",
"`H c #7e7e7e",
"`I c #7b7b7b",
"`J c #797979",
"`K c #a17148",
"`L c #cf7d31",
"`M c #e6ab58",
"`N c #e8b15d",
"`O c #df9547",
"`P c #e09658",
"`Q c #a6a6a6",
"`R c #898784",
"`S c #bca36e",
"`T c #c7b37b",
"`U c #c6b27b",
"`V c #c6b17a",
"`W c #c5b17a",
"`X c #c7a365",
"`Y c #d17c29",
"`Z c #df9838",
"`0 c #e1a23e",
"`1 c #e1a13e",
"`2 c #d6802b",
"`3 c #d39a58",
"`4 c #a2a2a2",
"`5 c #888279",
"`6 c #dbca85",
"`7 c #e6d97d",
"`8 c #db9d40",
".` c #d98824",
".. c #dc8f26",
".# c #dc9326",
".a c #db8d24",
".b c #d68025",
".c c #dcc897",
".d c #a0a0a0",
".e c #887d6d",
".f c #e3d48a",
".g c #db9e42",
".h c #da953a",
".i c #d67f24",
".j c #d77f25",
".k c #db9b3f",
".l c #d7872b",
".m c #dbc697",
".n c #8d7d62",
".o c #e8da8e",
".p c #e2c367",
".q c #db9c41",
".r c #e4d672",
".s c #e7d97f",
".t c #dac599",
".u c #9a9a9a",
".v c #94815d",
".w c #eade90",
".x c #e6d87b",
".y c #e5d777",
".z c #e4d571",
".A c #e4d570",
".B c #e8da83",
".C c #d9c59b",
".D c #9a875e",
".E c #e9dd89",
".F c #e6d87c",
".G c #e6d87a",
".H c #e5d778",
".I c #e5d775",
".J c #e5d673",
".K c #e7da82",
".L c #d8c39c",
".M c #959595",
".N c #a18b5e",
".O c #e7d97e",
".P c #e5d67c",
".Q c #dbc8a8",
".R c #a48e59",
".S c #e1cf66",
".T c #e0cd62",
".U c #e0cd61",
".V c #dfcc61",
".W c #dfcc60",
".X c #dfcb5f",
".Y c #dfcb5e",
".Z c #deca5e",
".0 c #deca5d",
".1 c #d9c360",
".2 c #e4d5bc",
".3 c #a68d4f",
".4 c #d9c04b",
".5 c #d9bf4a",
".6 c #d8bf49",
".7 c #d8be49",
".8 c #d8be48",
"#` c #d8be47",
"#. c #d8bd47",
"## c #d7bd46",
"#a c #d7bd45",
"#b c #d7bc45",
"#c c #ceaf46",
"#d c #ebe1d2",
"#e c #a29b90",
"#f c #ab863f",
"#g c #b69641",
"#h c #b59540",
"#i c #b59440",
"#j c #b4933f",
"#k c #b4933e",
"#l c #b3923d",
"#m c #b3933e",
"#n c #bd9c48",
"#o c #cbad73",
"#p c #000000",
"#q c #000000",
"#r c #000000",
"#s c #000000",
"#t c #000000",
"#u c #000000",
"#v c #000000",
"#w c #000000",
"#x c #000000",
"#y c #000000",
"#z c #000000",
"#A c #000000",
"#B c #000000",
"#C c #000000",
"#D c #000000",
"#E c #000000",
"#F c #000000",
"#G c #000000",
"#H c #000000",
"#I c #000000",
"#J c #000000",
"#K c #000000",
"#L c #000000",
"#M c #000000",
"#N c #000000",
"#O c #000000",
"#P c #000000",
"#Q c #000000",
"#R c #000000",
"#S c #000000",
"#T c #000000",
"#U c #000000",
"#V c #000000",
"#W c #000000",
"#X c #000000",
"#Y c #000000",
"#Z c #000000",
"#0 c #000000",
"#1 c #000000",
"#2 c #000000",
"#3 c #000000",
"#4 c #000000",
"#5 c #000000",
"#6 c #000000",
"#7 c #000000",
"#8 c #000000",
"a` c #000000",
"a. c #000000",
"a# c #000000",
"aa c #000000",
"ab c #000000",
"ac c #000000",
"ad c #000000",
"ae c #000000",
"af c #000000",
"ag c #000000",
"ah c #000000",
"ai c #000000",
"aj c #000000",
"ak c #000000",
"al c #000000",
"am c #000000",
"an c #000000",
"ao c #000000",
"ap c #000000",
"aq c #000000",
"ar c #000000",
"as c #000000",
"at c #000000",
"au c #000000",
"av c #000000",
"aw c #000000",
"ax c #000000",
"ay c #000000",
"az c #000000",
"aA c #000000",
"aB c #000000",
"aC c #000000",
"aD c #000000",
"aE c #000000",
"aF c #000000",
"aG c #000000",
"aH c #000000",
"aI c #000000",
"aJ c #000000",
"aK c #000000",
"aL c #000000",
"aM c #000000",
"aN c #000000",
"aO c #000000",
"aP c #000000",
"aQ c #000000",
"aR c #000000",
"aS c #000000",
"aT c #000000",
"aU c #000000",
"aV c #000000",
"aW c #000000",
"aX c #000000",
"aY c #000000",
"aZ c #000000",
"a0 c #000000",
"a1 c #000000",
"a2 c #000000",
"a3 c #000000",
"a4 c #000000",
"a5 c #000000",
"a6 c #000000",
"a7 c #000000",
"a8 c #000000",
/* pixels */
"````````````````````````````````",
"`.`#`a`.`.`b`c`````````d`e``````",
"`f`g`h`i`j`k`l`````m`n`o`p`q`r``",
"`s`t`u`v`w`x`y`j`z`A`B`C`D`C`o``",
"`E`F`y`G`H`I`J`J`K`L`M`N`N`N`O`P",
"`Q`R`S`T`U`V`V`W`X`Y`Z`0`0`1`2`3",
"`4`5`6`7`7`7`7`7`7`8.`...#.a.b.c",
".d.e.f`7`7`7`7`7`7.g.h.i.j.k.l.m",
"`h.n.o`7`7`7`7`7`7`7`7.p.q.r.s.t",
".u.v.w`7`7`7`7`7`7`7.x.y.z.A.B.C",
"`i.D.E`7.F.G.H.I.J.z.A.A.A.A.K.L",
".M.N.O.J.A.A.A.A.A.A.A.A.A.A.P.Q",
".M.R.S.T.T.U.V.W.W.X.X.Y.Z.0.1.2",
"`i.3.4.5.5.6.7.8.8#`#.###a#b#c#d",
"#e#f#g#h#i#j#k#l#l#l#m#j#i#n#o``",
"````````````````````````````````"
};
