/* XPM */
static const char *folder_16_xpm[] = {
/* width height num_colors chars_per_pixel */
"    16    16      256            2",
/* colors */
"`` c None",
"`. c #afafaf",
"`# c #adadad",
"`a c #ababab",
"`b c #a8a8a8",
"`c c #a6a6a6",
"`d c #a5a5a5",
"`e c #acacac",
"`f c #979797",
"`g c #919191",
"`h c #8d8d8d",
"`i c #898989",
"`j c #8b8b8b",
"`k c #aaaaaa",
"`l c #c6c6c6",
"`m c #c7c7c7",
"`n c #e6e6e6",
"`o c #a7a7a7",
"`p c #939393",
"`q c #8c8c8c",
"`r c #878787",
"`s c #848484",
"`t c #818181",
"`u c #838383",
"`v c #8e8e8e",
"`w c #929292",
"`x c #969696",
"`y c #9b9b9b",
"`z c #9d9d9d",
"`A c #938873",
"`B c #b7a375",
"`C c #b5a376",
"`D c #b5a274",
"`E c #b4a174",
"`F c #b4a173",
"`G c #b7a476",
"`H c #c0ad7f",
"`I c #dcc89b",
"`J c #d7c294",
"`K c #999999",
"`L c #a18e68",
"`M c #eadf91",
"`N c #e7da81",
"`O c #dcca87",
"`P c #959595",
"`Q c #a6956b",
"`R c #e9dc8a",
"`S c #e6d97d",
"`T c #e5d776",
"`U c #d9c586",
"`V c #ae9b6f",
"`W c #e8dc85",
"`X c #e4d570",
"`Y c #dac78b",
"`Z c #b5a272",
"`0 c #e7da80",
"`1 c #e6d87c",
"`2 c #e6d87a",
"`3 c #e4d672",
"`4 c #dbc78e",
"`5 c #8a8a8a",
"`6 c #b8a46d",
"`7 c #e6d97c",
"`8 c #e5d778",
".` c #e5d675",
".. c #e5d673",
".# c #e4d571",
".a c #dac790",
".b c #b9a364",
".c c #e3d36e",
".d c #e3d36d",
".e c #e3d36c",
".f c #e3d26b",
".g c #e2d26b",
".h c #e2d26a",
".i c #e2d169",
".j c #e2d168",
".k c #e1d068",
".l c #d9c38e",
".m c #898988",
".n c #b79c4f",
".o c #dbc452",
".p c #dbc351",
".q c #dac350",
".r c #dac24f",
".s c #dac24e",
".t c #dac14d",
".u c #d9c04c",
".v c #d9c14e",
".w c #d5be89",
".x c #96886e",
".y c #b8963f",
".z c #c1a140",
".A c #c1a13f",
".B c #c0a03e",
".C c #bf9f3e",
".D c #bf9f3d",
".E c #c9a850",
".F c #e7dac1",
".G c #e9e6e2",
".H c #efece8",
".I c #000000",
".J c #000000",
".K c #000000",
".L c #000000",
".M c #000000",
".N c #000000",
".O c #000000",
".P c #000000",
".Q c #000000",
".R c #000000",
".S c #000000",
".T c #000000",
".U c #000000",
".V c #000000",
".W c #000000",
".X c #000000",
".Y c #000000",
".Z c #000000",
".0 c #000000",
".1 c #000000",
".2 c #000000",
".3 c #000000",
".4 c #000000",
".5 c #000000",
".6 c #000000",
".7 c #000000",
".8 c #000000",
"#` c #000000",
"#. c #000000",
"## c #000000",
"#a c #000000",
"#b c #000000",
"#c c #000000",
"#d c #000000",
"#e c #000000",
"#f c #000000",
"#g c #000000",
"#h c #000000",
"#i c #000000",
"#j c #000000",
"#k c #000000",
"#l c #000000",
"#m c #000000",
"#n c #000000",
"#o c #000000",
"#p c #000000",
"#q c #000000",
"#r c #000000",
"#s c #000000",
"#t c #000000",
"#u c #000000",
"#v c #000000",
"#w c #000000",
"#x c #000000",
"#y c #000000",
"#z c #000000",
"#A c #000000",
"#B c #000000",
"#C c #000000",
"#D c #000000",
"#E c #000000",
"#F c #000000",
"#G c #000000",
"#H c #000000",
"#I c #000000",
"#J c #000000",
"#K c #000000",
"#L c #000000",
"#M c #000000",
"#N c #000000",
"#O c #000000",
"#P c #000000",
"#Q c #000000",
"#R c #000000",
"#S c #000000",
"#T c #000000",
"#U c #000000",
"#V c #000000",
"#W c #000000",
"#X c #000000",
"#Y c #000000",
"#Z c #000000",
"#0 c #000000",
"#1 c #000000",
"#2 c #000000",
"#3 c #000000",
"#4 c #000000",
"#5 c #000000",
"#6 c #000000",
"#7 c #000000",
"#8 c #000000",
"a` c #000000",
"a. c #000000",
"a# c #000000",
"aa c #000000",
"ab c #000000",
"ac c #000000",
"ad c #000000",
"ae c #000000",
"af c #000000",
"ag c #000000",
"ah c #000000",
"ai c #000000",
"aj c #000000",
"ak c #000000",
"al c #000000",
"am c #000000",
"an c #000000",
"ao c #000000",
"ap c #000000",
"aq c #000000",
"ar c #000000",
"as c #000000",
"at c #000000",
"au c #000000",
"av c #000000",
"aw c #000000",
"ax c #000000",
"ay c #000000",
"az c #000000",
"aA c #000000",
"aB c #000000",
"aC c #000000",
"aD c #000000",
"aE c #000000",
"aF c #000000",
"aG c #000000",
"aH c #000000",
"aI c #000000",
"aJ c #000000",
"aK c #000000",
"aL c #000000",
"aM c #000000",
"aN c #000000",
"aO c #000000",
"aP c #000000",
"aQ c #000000",
"aR c #000000",
"aS c #000000",
"aT c #000000",
"aU c #000000",
"aV c #000000",
"aW c #000000",
"aX c #000000",
"aY c #000000",
"aZ c #000000",
"a0 c #000000",
"a1 c #000000",
"a2 c #000000",
"a3 c #000000",
"a4 c #000000",
"a5 c #000000",
"a6 c #000000",
"a7 c #000000",
"a8 c #000000",
/* pixels */
"````````````````````````````````",
"````````````````````````````````",
"```.`#`a`b`c`d``````````````````",
"```e`f`g`h`i`j`k`l`l`m`m`n``````",
"```o`p`q`r`s`t`u`v`w`x`y`o``````",
"```z`A`B`C`D`E`F`E`D`C`G`H`I`J``",
"```K`L`M`N`N`N`N`N`N`N`N`N`N`O``",
"```P`Q`R`S`S`S`S`S`S`S`S`S`T`U``",
"```g`V`W`S`S`S`S`S`S`S`S`T`X`Y``",
"```h`Z`0`S`S`S`S`1`2`T`3`X`X`4``",
"```5`6`7`8.`...#`X`X`X`X`X`X.a``",
"```i.b.c.d.e.f.g.h.i.i.j.k.k.l``",
"``.m.n.o.p.p.q.r.r.s.t.t.u.v.w``",
"``.x.y.z.A.B.C.C.D.C.C.B.z.E.F``",
"````.G.G.G.G.G.G.G.G.G.G.H``````",
"````````````````````````````````"
};
