/* XPM */
static const char *folder_conn_48_xpm[] = {
/* width height num_colors chars_per_pixel */
"    48    48      256            2",
/* colors */
"`` c #244e8c",
"`. c #447ab4",
"`# c #a47a3c",
"`a c #d4b64c",
"`b c None",
"`c c #749ecc",
"`d c #5c5e5c",
"`e c #b4b6b4",
"`f c #8c7a64",
"`g c #3c6292",
"`h c #e4daa4",
"`i c #4c6288",
"`j c #e4ce64",
"`k c #a49a7c",
"`l c #748aac",
"`m c #5c8ebc",
"`n c #7c6e5c",
"`o c #b4d2ef",
"`p c #8cb2dc",
"`q c #5c6e94",
"`r c #a4a2a4",
"`s c #3c6ea5",
"`t c #8c8a8c",
"`u c #d4d2d4",
"`v c #5c7aa4",
"`w c #bcb67c",
"`x c #4c4a6c",
"`y c #bcbabc",
"`z c #4c6ea4",
"`A c #e4da7c",
"`B c #9c9e9c",
"`C c #9c7a47",
"`D c #ac8a4c",
"`E c #44628f",
"`F c #bc9e5c",
"`G c #d4e6fc",
"`H c #5c86b5",
"`I c #5c6274",
"`J c #7496c0",
"`K c #dcc254",
"`L c #2c5a94",
"`M c #848684",
"`N c #6c6e6c",
"`O c #ac863c",
"`P c #4c6a98",
"`Q c #dcce94",
"`R c #c4def6",
"`S c #ccb28c",
"`T c #949694",
"`U c #c4c6c4",
"`V c #c4ae4c",
"`W c #7ca6d4",
"`X c #a4c6e4",
"`Y c #7c7a7c",
"`Z c #3c6aa1",
"`0 c #6c96c4",
"`1 c #acacac",
"`2 c #d4ba7c",
"`3 c #445a8c",
"`4 c #4c76a6",
"`5 c #e4da9c",
"`6 c #ece6a9",
"`7 c #94badc",
"`8 c #4476ae",
".` c #e4e2e7",
".. c #6c6e84",
".# c #54567c",
".a c #4c82b4",
".b c #ac7a3c",
".c c #ccba6c",
".d c #34629c",
".e c #54638c",
".f c #e4d673",
".g c #6c8ebc",
".h c #6c7a94",
".i c #8ca1c4",
".j c #6c8ab4",
".k c #6c667c",
".l c #8496b4",
".m c #d4c674",
".n c #9c763c",
".o c #84a2cc",
".p c #74624c",
".q c #7492bc",
".r c #8c7654",
".s c #c4daf4",
".t c #446ea4",
".u c #8c8eac",
".v c #dcdae1",
".w c #446a9b",
".x c #6486b4",
".y c #646a86",
".z c #7c96bc",
".A c #3c5e8c",
".B c #8c8274",
".C c #eceaec",
".D c #8cadd4",
".E c #34568c",
".F c #dcbe4b",
".G c #7c9ec8",
".H c #4c6594",
".I c #7c7670",
".J c #bcdaf4",
".K c #9cb6d8",
".L c #949294",
".M c #5c82b4",
".N c #c4c2c4",
".O c #546e9c",
".P c #ecde8c",
".Q c #948e7c",
".R c #b49258",
".S c #c4a264",
".T c #dcca5d",
".U c #345a94",
".V c #cccecc",
".W c #bcb27c",
".X c #b4ceec",
".Y c #848279",
".Z c #b4b2b4",
".0 c #ece6e0",
".1 c #545e85",
".2 c #a47636",
".3 c #2c5693",
".4 c #547aac",
".5 c #a47c44",
".6 c #646664",
".7 c #a4bede",
".8 c #ecdecc",
"#` c #dcd27c",
"#. c #b4ae7c",
"## c #8c9abc",
"#a c #a4a6bc",
"#b c #6c6a6c",
"#c c #b4a274",
"#d c #d4be9c",
"#e c #ccb264",
"#f c #ccb26c",
"#g c #6c82ac",
"#h c #a4a6a4",
"#i c #445e8c",
"#j c #6c7694",
"#k c #5c7eaf",
"#l c #947a54",
"#m c #5c638c",
"#n c #d4c66c",
"#o c #dcc684",
"#p c #94724c",
"#q c #84765c",
"#r c #747674",
"#s c #e4d69c",
"#t c #cce6fc",
"#u c #acceec",
"#v c #ece299",
"#w c #acaec4",
"#x c #c4a67c",
"#y c #646266",
"#z c #ac9e94",
"#A c #c4baac",
"#B c #c49e6c",
"#C c #cccace",
"#D c #4c567c",
"#E c #f4e6ac",
"#F c #747284",
"#G c #d4b65c",
"#H c #9496ac",
"#I c #8c8260",
"#J c #d4c284",
"#K c #7c8cac",
"#L c #648ec0",
"#M c #bcd5f4",
"#N c #94b2d4",
"#O c #948c94",
"#P c #64667c",
"#Q c #747273",
"#R c #cce2fc",
"#S c #9c9a9c",
"#T c #84a6cc",
"#U c #acc6e4",
"#V c #ecde94",
"#W c #9cbadc",
"#X c #5482b4",
"#Y c #3c649c",
"#Z c #94a2bc",
"#0 c #bc965c",
"#1 c #2c528c",
"#2 c #4c7cb4",
"#3 c #d4b654",
"#4 c #ecdda4",
"#5 c #c4ba7c",
"#6 c #bc9a6c",
"#7 c #749acc",
"#8 c #8c8a84",
"a` c #ac854c",
"a. c #e4d294",
"a# c #c4aa5c",
"aa c #6c7294",
"ab c #94aed4",
"ac c #846e54",
"ad c #646e90",
"ae c #647a9c",
"af c #546a94",
"ag c #5476a9",
"ah c #7c92b4",
"ai c #e4d274",
"aj c #e4da8c",
"ak c #b48a4c",
"al c #c4c6d4",
"am c #e4d67c",
"an c #446aa4",
"ao c #c4c2d4",
"ap c #848284",
"aq c #b4b2c4",
"ar c #d4ba44",
"as c #3c6694",
"at c #4c668c",
"au c #e4d26c",
"av c #748eb4",
"aw c #3c72ac",
"ax c #4c72a3",
"ay c #446694",
"az c #5c8abc",
"aA c #749ac4",
"aB c #e4e6e4",
"aC c #545a80",
"aD c #ac7e3c",
"aE c #3466a4",
"aF c #6c92be",
"aG c #d4ca7c",
"aH c #4472a8",
"aI c #dcdee0",
"aJ c #648ab9",
"aK c #7c9ac4",
"aL c #7ca2cc",
"aM c #5472a4",
"aN c #345e98",
"aO c #a4c2e4",
"aP c #947e5c",
"aQ c #dcca8c",
"aR c #947654",
"aS c #f4eab4",
"aT c #6492c4",
"aU c #94b6dc",
"aV c #84aad4",
"aW c #accaec",
"aX c #9cbee4",
"aY c #5486bc",
"aZ c #74a2cc",
"a0 c #a49e7c",
"a1 c #8c8e8c",
"a2 c #d4d6d4",
"a3 c #bcbebc",
"a4 c #d4eafc",
"a5 c #dcc654",
"a6 c #2c5e94",
"a7 c #7c7e7c",
"a8 c #6c9ac4",
/* pixels */
"`b`b`b`b`b`b`b`b`b`b`b`b`b`b`b`b`b`b`b`b`b`b`b`b`b`b`b`b`b`b`b`b`b`b`b`b`b`b`b`b`b`b`b`b`b`b`b`b",
"`b`b`b`b`b`b`b`b`b`b`b`b`b`b`b`b`b`b`b`b`b`b`b`b`b`b`b`b`b`b`b`b`b`b`b`b`b`b`b`b`b`b`b`b`b`b`b`b",
"`b`b`b`b`b`b`b`b`b`b`b`b`b`b`b`b`b`b`b`b`b`b`b`b`b`b`b`b`b`b`b`b`b`b`b`b`b`b`b`b`b`b`b`b`b`b`b`b",
"`b`b`b`b`b`b`b`b`b`b`b`b`b`b`b`b`b`b`b`b`b`b`b`b`b`b`b`b`b`b`b`b`b`b`b`b`b`b`b`b`b`b`b`b`b`b`b`b",
"`b`b`b#Oap`M`tap`tap`t`M`t`t`t`tap`tapap`r`b`b`b`b`b`b`b`b`b`b`b`b`b`b`b`b`b`b`b`b`b`b`b`b`b`b`b",
"`b`b#C`T`u#C`U`U.N`U.N.Na3`ya3`ya3`y`ya3ap.``b`b`b`b`b`b`b`b`b`b`b`b`b`b`b`b`b`b`b`b`b`b`b`b`b`b",
"`b`b.V#S#C`1`1#h#h`r`r`r`B`r#S`B#S#S#S`r#Sa3`b`b`b`b`b`b`b`b`b`b`b`b`b`b`b`b`b`b`b`b`b`b`b`b`b`b",
"`b`b`u`T.N`T`T.L.L.La1a1`t`t`M`t`M`M`M`M#S`B`b`b`b`b`b`b`b`b`b`b`b`b`b`b`b`b`b`b`b`b`b`b`b`b`b`b",
"`b`b`u.L#C#h#h`r`r`B`B#S#S`T`T`T`T.L.L.L`T`Y`b`b`b`b`b`b`b`b`b`b`b`b`b`b`b`b`b`b`b`b`b`b`b`b`b`b",
"`b`b.v`ta3.L#Oa1a1`t#8ap`M`Mapapapapa7apapa7#Q#r`Y#Q`Y#Q`Y#Q#F.I#Q#r.I#F`Y`u`b`b`b`b`b`b`b`b`b`b",
"`b`b.v`M`U`r`B#S`T`T.L.La1#Oa1`t`t`t`t`M`t`t`t#S#h`1`1.Z`1.Z.Z`e`e`e`e`y`1#b`b`b`b`b`b`b`b`b`b`b",
"`b`b.`.Y`ya1a1`t#8`M`Mapapa7a7a7`Y#ra7`Y#r`Y#r`Y`Y`Y`Y`Ya7a7a7.Yapap`M`ta1#b`b`b`b`b`b`b`b`b`b`b",
"`b`baBa7a3#S`T.La1#Oa1`t`M`t`M`M`Mapapapa7apa7apa7apapapap`M`M`M`t`ta1a1`T#b`b`b`b`b`b`b`b`b`b`b",
"`b`b.C#r`ya1`t`M`Mapa7a7a7`Y`Y#r#r#r#r#Q#r#r#r#Q#r#r#r#r#r#r`Y`Ya7a7apap`M#Q.``b`b`b`b`b`b`b`b`b",
"`b`b`b#Q`e`T#Oa1.5.5.5`#.5`#.5`#.5.2.5`#`#.2.5`#`#`#`#`#`#.5`#.5.5.5`#.5`#.2a`akakakakak#B`b`b`b",
"`b`b`b#b.Za1`M.YaD`h#4`h#4`h#4`h#4`h`h`h`h`h`h`h`h`h`h`h`h#4`h`5#4`5`h#4#s`h#4#s#s`h#s#sak.8`b`b",
"`b`b`b#y.Z.L`M.Bak#Eaj.P.Paj.P.Paj.P.P.P.P.P.P.P.P.P.P.P.Paj.P.P.P#V.P.P#V.P#V#V#V#V#VaSa`.0`b`b",
"`b`b`b#y`1a1ap`f#0`6`A`A`A`A`A`A`A`A`A`A`A`A`A`A`A`A`A`A`A`A`Aam`Aam`Aam`A`Aam`A`A`A`AaS.b`b`b`b",
"`b`b`b`d#h#Oap`f.S`6`A`Aam`Aam`Aam`Aam`Aam`Aam`Aam`Aam`Aamai.Wa0.Q`k#.aG`A`A`A`Aamam.f`6.2`b`b`b",
"`b`b`b#y`ra1a7#l#f`6`A`A.Pam`A`A`A`A`A`A`A`A.Pam`A`A.P`k..#j##.i.o.iahaa#P.Qai.Pam.f`A#4.b`b`b`b",
"`b`b`b#y`r#8`YaR`2#v`Aamam`A`Aam.Pamam.Pamamam`A`A#o#Q#Z.7ab`v.t.w.xaUaU#N.z#P#5.f.f.P#sak`b`b`b",
"`b`b`b#y#S`Ma7`C#J#v.Pam`A`A.P.fam.P.fam`A.P.f`Aa0aa.KaK.D#M`H`z#k.D`7.DaV#LaJ`q.Yau.P`Q.R`b`b`b",
"`b`b`b#b`T`t#r`Ca.#V`A`A`Aamam`A`A.f`A.P.f`A.P.B.l.i.K#U#W`R.M.7.X.DaXaUaF.t`z.4`v`Iaj#o#B`b`b`b",
"`b`b`b#b.L`M`Y.2#s.P`Aam`A.P.f.P.f.P.fam`A.f#.#KaK`R#NaJ.sa4`R`R#M#uaOaVaF.x`4aNaNaM#8#J#x`b`b`b",
"`b`b`b#ba1ap#Q.2`h.P`A`Aam`A.f`Aam`A`A.P.fai..avax.gag.4aba4a4#R`R`o.K.g.4axaEaNaN#Y`i#c`S`b`b`b",
"`b`b`b#Q`t`M.I.2`6.P`A`A`A.P.f.P.f.P.fam`A`Y.qaxaM.4`v#W.sa4a4`G`R#MaW`Han#Y#Y.daN`L.t#D#d`b`b`b",
"`b`b`b#Qapa7#Q.2#E`Aam`Aamam`Aam`A.f`A.P.W#Kagax`4#k#U#ta4a4a4a4`R#MaA.4aV`HaH#Y.U`L.U.H`t`b`b`b",
"`b`b`b`Yap`M.IaD`6`A`A`A`A.P.f.P.f.P.f.f`Yah`zaxax#Ua4a4a4`G#t`G`R`o#N.g.g.G#7az.t`L.3an.1`b`b`b",
"`b`b`b`Y`Ya7`n`D#vam.Pamam.f`Aam`A.f.f.f...x`z`H.D#R`Ga4a4a4a4`R.s.XaJan`Z.t.taH.d`L`L#Y`3`b`b`b",
"`b`b`bap`Y`M#q#0#V`Aam`A`A.P.f.f.f.f.fai.yaJ#WaW.X.J#R#t#t#t#R`R`o#T.t.w#Y#Y.daNanaN`L`Z`i.v`b`b",
"`b`b`b`M#Q`Yac`F.P`Aam.f.fau.fau.fau.f#n.h.M#T.7aW`o#M`R`R.s.J#M#u.Man`Z#Y#Y#YaNa6`Z.3.3afao`b`b",
"`b`b`b`t#Q`M.ra#.Pai.f.f.f.f.f.f.f.f.f.c#KaJ.taL#UaW.X`o#M`o.XaW`X`zan#Y#Y#YaNaN`LaE`L#Y.H#w`b`b",
"`b`b`b#O.6`Y#p#e.fau.fauauauauauauauau#n.h.D.D#L`J#2aFaX#UaW`XaOaX.g#Y`Z#Y.daN`L`L.3.3as.e#C`b`b",
"`b`b`b#S#b`M.n#eau`j`j`j`j`j`j`j`j`j`j`j#P.DaV.D`Han.w.MaUaX#W`7#NaVaJaz.MaNaN`L.3.3`L.w.1aI`b`b",
"`b`b`b`r.6`Y.n#G.T.T.T.T.T.T.Ta5.Ta5.Ta5`I.DaZaLan#Yan#YagaL`p.DaV`WaLa8aT.d`L`L.3.3`g`P.1`b`b`b",
"`b`b`b#h.6ap`##3a5`K`K`K`K.Fa5`K.Fa5`K`K#I.qa8aF#Y#Y#Y#Y#Y#Y.M`WaL`c`0aT#L`Z.U.3.3`L.A.H#F`b`b`b",
"`b`b`b`1#y`Y.n`aar`K.Far.F.Far.F.Far.Far`V.y#7aT.t.d.d#Y#YaE`H`ca8aFaTaz#X`s.3.3```L`EaCal`b`b`b",
"`b`b`b.Z#y.Y.2arararararararararararar.Far#I#gaTaz#Y.daN.daN#LaT#LazaY#X#2aE.3``#1.E`i.k`b`b`b`b",
"`b`b`b`e`d#l`Oararar.Far.Farar.Far.Farararar#y.gaY#2.UaNaN.daz`HaY#X#2`.aH.d.3``#1at`x.0`b`b`b`b",
"`b`b`b`b.p.2.2aDaDaD`#aD`#aD`#aD`#aD`#aDaDaD.naCaz`8`L`LaN#X.a#2#2`.awaH`s#Y`````g.##z`b`b`b`b`b",
"`b`b`b`b`b#A#A#A#A#A#A#A#A#A#A#A#A#A#A#A#A#A#A#O#m.M.U.3.d`8`8awaHaw`s#Y#Y`g#1`EaC#H`b`b`b`b`b`b",
"`b`b`b`b`b`b`b`b`b`b`b`b`b`b`b`b`b`b`b`b`b`b`b`b`bad.w.w`s`s`s`s`Z#Y`g`g.A#i.e`I.v`b`b`b`b`b`b`b",
"`b`b`b`b`b`b`b`b`b`b`b`b`b`b`b`b`b`b`b`b`b`b`b`b`b`b#w#m.Oagax`Payay`Pat`i.1.u`b`b`b`b`b`b`b`b`b",
"`b`b`b`b`b`b`b`b`b`b`b`b`b`b`b`b`b`b`b`b`b`b`b`b`b`b`b`b#a.y#m.1#m#m.1#m#H.``b`b`b`b`b`b`b`b`b`b",
"`b`b`b`b`b`b`b`b`b`b`b`b`b`b`b`b`b`b`b`b`b`b`b`b`b`b`b`b`b`b`b`b`b`b`b`b`b`b`b`b`b`b`b`b`b`b`b`b",
"`b`b`b`b`b`b`b`b`b`b`b`b`b`b`b`b`b`b`b`b`b`b`b`b`b`b`b`b`b`b`b`b`b`b`b`b`b`b`b`b`b`b`b`b`b`b`b`b",
"`b`b`b`b`b`b`b`b`b`b`b`b`b`b`b`b`b`b`b`b`b`b`b`b`b`b`b`b`b`b`b`b`b`b`b`b`b`b`b`b`b`b`b`b`b`b`b`b",
"`b`b`b`b`b`b`b`b`b`b`b`b`b`b`b`b`b`b`b`b`b`b`b`b`b`b`b`b`b`b`b`b`b`b`b`b`b`b`b`b`b`b`b`b`b`b`b`b"
};
