/* XPM */
static char * get_info_cur_xpm[] = {
"16 16 257 2",
"  	c None",
". 	c #000000",
"+ 	c #FF00FF",
"@ 	c #FFFFFF",
"# 	c #D6D6DA",
"$ 	c #D6D7DA",
"% 	c #D3D3D6",
"& 	c #FBFBFB",
"* 	c #D9DADD",
"= 	c #95969F",
"- 	c #D5D6D9",
"; 	c #FEFEFE",
"> 	c #FCFCFC",
", 	c #CECFD2",
"' 	c #F8F8F8",
") 	c #C5C6CA",
"! 	c #96979F",
"~ 	c #F9F9F9",
"{ 	c #F6F6F6",
"] 	c #EEEEEE",
"^ 	c #F9F9F7",
"/ 	c #BBBCBF",
"( 	c #F7F7F7",
"_ 	c #FBFBFA",
": 	c #F3F3F3",
"< 	c #E9E9E9",
"[ 	c #EEEDEC",
"} 	c #B6B6BA",
"| 	c #E9E8E9",
"1 	c #CFCFD2",
"2 	c #484A58",
"3 	c #FEFEFD",
"4 	c #E2E2E3",
"5 	c #7B7D86",
"6 	c #D0D0D2",
"7 	c #E0E0E2",
"8 	c #DEDDDD",
"9 	c #8A8B92",
"0 	c #D2D3D2",
"a 	c #EEEEEA",
"b 	c #000000",
"c 	c #000000",
"d 	c #000000",
"e 	c #000000",
"f 	c #000000",
"g 	c #000000",
"h 	c #000000",
"i 	c #000000",
"j 	c #000000",
"k 	c #000000",
"l 	c #000000",
"m 	c #000000",
"n 	c #000000",
"o 	c #000000",
"p 	c #000000",
"q 	c #000000",
"r 	c #000000",
"s 	c #000000",
"t 	c #000000",
"u 	c #000000",
"v 	c #000000",
"w 	c #000000",
"x 	c #000000",
"y 	c #000000",
"z 	c #000000",
"A 	c #000000",
"B 	c #000000",
"C 	c #000000",
"D 	c #000000",
"E 	c #000000",
"F 	c #000000",
"G 	c #000000",
"H 	c #000000",
"I 	c #000000",
"J 	c #000000",
"K 	c #000000",
"L 	c #000000",
"M 	c #000000",
"N 	c #000000",
"O 	c #000000",
"P 	c #000000",
"Q 	c #000000",
"R 	c #000000",
"S 	c #000000",
"T 	c #000000",
"U 	c #000000",
"V 	c #000000",
"W 	c #000000",
"X 	c #000000",
"Y 	c #000000",
"Z 	c #000000",
"` 	c #000000",
" .	c #000000",
"..	c #000000",
"+.	c #530A00",
"@.	c #55776F",
"#.	c #776F44",
"$.	c #540809",
"%.	c #724F62",
"&.	c #027265",
"*.	c #615605",
"=.	c #056575",
"-.	c #000000",
";.	c #C457E8",
">.	c #C457E8",
",.	c #00062C",
"'.	c #076567",
").	c #696445",
"!.	c #616843",
"~.	c #006567",
"{.	c #545408",
"].	c #426C6F",
"^.	c #540772",
"/.	c #426C6F",
"(.	c #4C0472",
"_.	c #027466",
":.	c #6F5403",
"<.	c #009103",
"[.	c #646957",
"}.	c #590268",
"|.	c #696548",
"1.	c #027468",
"2.	c #6C4105",
"3.	c #076E67",
"4.	c #4E6C61",
"5.	c #0C656E",
"6.	c #747475",
"7.	c #65486E",
"8.	c #746867",
"9.	c #420B1B",
"0.	c #6F7474",
"a.	c #646957",
"b.	c #1B0268",
"c.	c #706143",
"d.	c #6E6F69",
"e.	c #6F5407",
"f.	c #61426C",
"g.	c #64450B",
"h.	c #6F4265",
"i.	c #726564",
"j.	c #04000B",
"k.	c #74616C",
"l.	c #6D4906",
"m.	c #736567",
"n.	c #614D12",
"o.	c #6F466E",
"p.	c #492E6D",
"q.	c #656761",
"r.	c #747369",
"s.	c #626154",
"t.	c #656472",
"u.	c #0B0302",
"v.	c #6E6172",
"w.	c #726170",
"x.	c #09746E",
"y.	c #617257",
"z.	c #6C6261",
"A.	c #0B0008",
"B.	c #6F6F54",
"C.	c #747542",
"D.	c #036E6F",
"E.	c #043042",
"F.	c #746665",
"G.	c #540300",
"H.	c #000270",
"I.	c #706143",
"J.	c #6E6F69",
"K.	c #425403",
"L.	c #6D490A",
"M.	c #496567",
"N.	c #786564",
"O.	c #4F0728",
"P.	c #696C43",
"Q.	c #07076B",
"R.	c #6C4342",
"S.	c #006B63",
"T.	c #54540B",
"U.	c #426C6F",
"V.	c #6F7474",
"W.	c #425403",
"X.	c #615403",
"Y.	c #040102",
"Z.	c #746665",
"`.	c #54031B",
" +	c #000270",
".+	c #706143",
"++	c #6E6F69",
"@+	c #425403",
"#+	c #6D490A",
"$+	c #496567",
"%+	c #786564",
"&+	c #4F0728",
"*+	c #696C43",
"=+	c #07076B",
"-+	c #6C4342",
";+	c #006B63",
">+	c #54540B",
",+	c #426C6F",
"'+	c #C45964",
")+	c #C45964",
"!+	c #0004B0",
"~+	c #040202",
"{+	c #746665",
"]+	c #540336",
"^+	c #000270",
"/+	c #706143",
"(+	c #6E6F69",
"_+	c #425403",
":+	c #6D490A",
"<+	c #496567",
"[+	c #786564",
"}+	c #570428",
"|+	c #097061",
"1+	c #436E4F",
"2+	c #6B6369",
"3+	c #425407",
"4+	c #63696C",
"5+	c #0B0000",
"6+	c #6F6F54",
"7+	c #747542",
"8+	c #036E6F",
"9+	c #033342",
"0+	c #026761",
"a+	c #654C04",
"b+	c #000274",
"c+	c #706F54",
"d+	c #43071B",
"e+	c #697470",
"f+	c #03066E",
"g+	c #0A3342",
"h+	c #67616D",
"i+	c #646E49",
"j+	c #280278",
"k+	c #436E4F",
"l+	c #6B6369",
"m+	c #425407",
"n+	c #63696C",
"o+	c #0B0000",
"p+	c #6F6F54",
"q+	c #747542",
"r+	c #036E6F",
"s+	c #033442",
"t+	c #026761",
"u+	c #654C04",
"v+	c #1B0274",
"w+	c #706F54",
"x+	c #43071B",
"y+	c #697470",
"z+	c #03066E",
"A+	c #0A3442",
"B+	c #67616D",
"C+	c #646E49",
"D+	c #280278",
"E+	c #436E4F",
"F+	c #6B6369",
"G+	c #425407",
"H+	c #63696C",
".                 . . . . .     ",
". .             . @ @ @ @ @ .   ",
". # .         . @ @ @ . @ @ @ . ",
". @ $ .       . @ @ % @ % % % . ",
". & @ * .     . @ % % . % = = . ",
". @ & @ - .   . % = % . % = = . ",
". ; ; > @ , . . = = % . % = = . ",
". ; ; > ' @ ) ! . = = % = = .   ",
". ; > ~ { ] ^ / = . . . . .     ",
". > ( _ : ] < [ } .             ",
". { @ % | 1 2 . . .             ",
". 3 4 . 5 6 .                   ",
". 7 .   . 8 9 .                 ",
". .       . 0 .                 ",
"          . a .                 ",
"            .                   "};
