/* XPM */
static char * select_cur_xpm[] = {
"16 16 256 2",
"  	c None",
". 	c #4D4D4D",
"+ 	c #4B4B4B",
"@ 	c #4A4A4A",
"# 	c #494949",
"$ 	c #898989",
"% 	c #484848",
"& 	c #828282",
"* 	c #797979",
"= 	c #444444",
"- 	c #707070",
"; 	c #676767",
"> 	c #3E3E3E",
", 	c #6F6F6F",
"' 	c #666666",
") 	c #5C5C5C",
"! 	c #4F4F4F",
"~ 	c #343434",
"{ 	c #636363",
"] 	c #535353",
"^ 	c #474747",
"/ 	c #3B3B3B",
"( 	c #292929",
"_ 	c #585858",
": 	c #505050",
"< 	c #404040",
"[ 	c #373737",
"} 	c #2D2D2D",
"| 	c #212121",
"1 	c #464646",
"2 	c #2F2F2F",
"3 	c #222222",
"4 	c #1C1C1C",
"5 	c #434343",
"6 	c #454545",
"7 	c #424242",
"8 	c #353535",
"9 	c #303030",
"0 	c #3F3F3F",
"a 	c #393939",
"b 	c #323232",
"c 	c #313131",
"d 	c #2E2E2E",
"e 	c #2B2B2B",
"f 	c #000000",
"g 	c #000000",
"h 	c #000000",
"i 	c #000000",
"j 	c #000000",
"k 	c #000000",
"l 	c #000000",
"m 	c #000000",
"n 	c #000000",
"o 	c #000000",
"p 	c #000000",
"q 	c #000000",
"r 	c #000000",
"s 	c #000000",
"t 	c #000000",
"u 	c #000000",
"v 	c #000000",
"w 	c #000000",
"x 	c #000000",
"y 	c #000000",
"z 	c #000000",
"A 	c #000000",
"B 	c #000000",
"C 	c #000000",
"D 	c #000000",
"E 	c #000000",
"F 	c #000000",
"G 	c #000000",
"H 	c #000000",
"I 	c #000000",
"J 	c #000000",
"K 	c #000000",
"L 	c #000000",
"M 	c #000000",
"N 	c #000000",
"O 	c #000000",
"P 	c #000000",
"Q 	c #000000",
"R 	c #000000",
"S 	c #000000",
"T 	c #000000",
"U 	c #000000",
"V 	c #000000",
"W 	c #000000",
"X 	c #000000",
"Y 	c #000000",
"Z 	c #000000",
"` 	c #000000",
" .	c #000000",
"..	c #000000",
"+.	c #000000",
"@.	c #000000",
"#.	c #000000",
"$.	c #000000",
"%.	c #000000",
"&.	c #000000",
"*.	c #000000",
"=.	c #000000",
"-.	c #000000",
";.	c #000000",
">.	c #000000",
",.	c #000000",
"'.	c #000000",
").	c #000000",
"!.	c #000000",
"~.	c #000000",
"{.	c #000000",
"].	c #000000",
"^.	c #000000",
"/.	c #000000",
"(.	c #000000",
"_.	c #000000",
":.	c #000000",
"<.	c #000000",
"[.	c #000000",
"}.	c #000000",
"|.	c #000000",
"1.	c #000000",
"2.	c #000000",
"3.	c #000001",
"4.	c #C48218",
"5.	c #C48218",
"6.	c #0002A0",
"7.	c #000000",
"8.	c #000000",
"9.	c #000000",
"0.	c #000000",
"a.	c #000000",
"b.	c #000008",
"c.	c #000000",
"d.	c #000001",
"e.	c #418AB2",
"f.	c #418AC2",
"g.	c #000000",
"h.	c #000000",
"i.	c #46385C",
"j.	c #C4821C",
"k.	c #000108",
"l.	c #000078",
"m.	c #00004B",
"n.	c #000019",
"o.	c #0000A0",
"p.	c #000000",
"q.	c #010101",
"r.	c #000000",
"s.	c #000301",
"t.	c #C49150",
"u.	c #C48438",
"v.	c #000000",
"w.	c #00000F",
"x.	c #C48460",
"y.	c #F40000",
"z.	c #000000",
"A.	c #000000",
"B.	c #FFFFF4",
"C.	c #000000",
"D.	c #000000",
"E.	c #000000",
"F.	c #000000",
"G.	c #010010",
"H.	c #000000",
"I.	c #000000",
"J.	c #000000",
"K.	c #000000",
"L.	c #000000",
"M.	c #000000",
"N.	c #000000",
"O.	c #484060",
"P.	c #000000",
"Q.	c #000000",
"R.	c #000000",
"S.	c #000000",
"T.	c #000000",
"U.	c #000000",
"V.	c #000000",
"W.	c #000000",
"X.	c #000000",
"Y.	c #000000",
"Z.	c #000000",
"`.	c #000000",
" +	c #000000",
".+	c #000000",
"++	c #000000",
"@+	c #000000",
"#+	c #000000",
"$+	c #000000",
"%+	c #000000",
"&+	c #000000",
"*+	c #000000",
"=+	c #000000",
"-+	c #000000",
";+	c #000000",
">+	c #000000",
",+	c #000000",
"'+	c #000000",
")+	c #000000",
"!+	c #000000",
"~+	c #000000",
"{+	c #000000",
"]+	c #000000",
"^+	c #000000",
"/+	c #000000",
"(+	c #000000",
"_+	c #000000",
":+	c #000000",
"<+	c #000001",
"[+	c #000000",
"}+	c #000000",
"|+	c #000000",
"1+	c #0F0000",
"2+	c #000001",
"3+	c #000001",
"4+	c #000000",
"5+	c #C48484",
"6+	c #000000",
"7+	c #000000",
"8+	c #000000",
"9+	c #000000",
"0+	c #000003",
"a+	c #000000",
"b+	c #38068A",
"c+	c #000000",
"d+	c #000000",
"e+	c #000000",
"f+	c #000000",
"g+	c #000003",
"h+	c #000101",
"i+	c #000100",
"j+	c #000000",
"k+	c #000000",
"l+	c #000000",
"m+	c #000000",
"n+	c #000000",
"o+	c #000000",
"p+	c #000000",
"q+	c #000000",
"r+	c #000000",
"s+	c #000000",
"t+	c #000000",
"u+	c #000000",
"v+	c #000000",
"w+	c #000000",
"x+	c #000000",
"y+	c #000000",
"z+	c #000000",
"A+	c #000000",
"B+	c #000000",
"C+	c #000000",
"D+	c #000000",
"E+	c #000000",
"F+	c #000000",
"G+	c #000000",
"      .                         ",
"      + @                       ",
"      # $ %                     ",
"      % & * =                   ",
"      % * - ; >                 ",
"      # , ' ) ! ~               ",
"      % { ) ] ^ / (             ",
"      # _ : % < [ } |           ",
"      1 ! ^ < ~ 2 ( 3 4         ",
"      5 6 7 [ 8 9               ",
"      < 0 a   ~ b               ",
"      / a       ~ c             ",
"      a         ~ 9             ",
"                  9 }           ",
"                  d e           ",
"                                "};
