/* XPM */
static const char *toolbox_48_xpm[] = {
/* width height num_colors chars_per_pixel */
"    48    48      256            2",
/* colors */
"`` c #3c4664",
"`. c #847e64",
"`# c #d4ba44",
"`a c #9c7a44",
"`b c None",
"`c c #b4b6b4",
"`d c #746a54",
"`e c #9c9a6c",
"`f c #647aa4",
"`g c #5c6264",
"`h c #9c9a9c",
"`i c #e4d2bc",
"`j c #dcce64",
"`k c #8c8e8c",
"`l c #645654",
"`m c #546284",
"`n c #ccb28c",
"`o c #acaaac",
"`p c #d4d2d4",
"`q c #948a54",
"`r c #bcb684",
"`s c #7c7a9c",
"`t c #747274",
"`u c #d4ba9c",
"`v c #bc9a5c",
"`w c #7c7a74",
"`x c #9c8e4c",
"`y c #5c6e94",
"`z c #4c566c",
"`A c #9c9abc",
"`B c #e4da7c",
"`C c #8c6e44",
"`D c #848eb4",
"`E c #848694",
"`F c #bcaa4c",
"`G c #c4c2c4",
"`H c #54566c",
"`I c #dce2e4",
"`J c #d4b674",
"`K c #444e64",
"`L c #5c627c",
"`M c #ece29f",
"`N c #d4c664",
"`O c #8c7e6c",
"`P c #a4a2b4",
"`Q c #ac8244",
"`R c #bcb6d4",
"`S c #7c7258",
"`T c #6c6e8c",
"`U c #8c96bc",
"`V c #7c86ac",
"`W c #7482ac",
"`X c #e4d684",
"`Y c #d4be60",
"`Z c #646284",
"`0 c #acaacc",
"`1 c #747294",
"`2 c #ccbedc",
"`3 c #b48e3c",
"`4 c #545e80",
"`5 c #4c4e67",
"`6 c #f4eab1",
"`7 c #84725c",
"`8 c #848264",
".` c #ac7a3c",
".. c #747a9a",
".# c #e4d674",
".a c #ecdacc",
".b c #c4be7c",
".c c #bc9a64",
".d c #84826c",
".e c #5c6e9c",
".f c #ece294",
".g c #948eac",
".h c #c4aa6c",
".i c #747267",
".j c #8c8aa4",
".k c #dcc24d",
".l c #bcbebc",
".m c #6c6a5c",
".n c #a4a2a4",
".o c #546a91",
".p c #dcdadf",
".q c #948a84",
".r c #ecde8d",
".s c #ece6d9",
".t c #d4c284",
".u c #6c6a6c",
".v c #f4e6ac",
".w c #aca6cc",
".x c #8486a8",
".y c #947a4c",
".z c #bcbabf",
".A c #aca664",
".B c #dcd27c",
".C c #949694",
".D c #5c5e5f",
".E c #7c8294",
".F c #445e84",
".G c #a49abc",
".H c #9c7644",
".I c #ece2ac",
".J c #9ca2c4",
".K c #b4b2d4",
".L c #7c7694",
".M c #b49254",
".N c #5c769c",
".O c #ccaa7c",
".P c #7c7268",
".Q c #444664",
".R c #dcbe4e",
".S c #a47a3d",
".T c #6c7aa4",
".U c #6c6654",
".V c #e4da9c",
".W c #948e94",
".X c #5c6284",
".Y c #8c8e6c",
".Z c #dcc6ac",
".0 c #7c7e7c",
".1 c #ecda84",
".2 c #94764c",
".3 c #8c92b8",
".4 c #545a7c",
".5 c #445274",
".6 c #64666c",
".7 c #8c866c",
".8 c #c4b6d4",
"#` c #b4aecf",
"#. c #a4763b",
"## c #bcb2d3",
"#a c #c4a63c",
"#b c #cccacc",
"#c c #c4a264",
"#d c #ccb66c",
"#e c #94864c",
"#f c #ccb244",
"#g c #aca26c",
"#h c #9c926c",
"#i c #d4ca7c",
"#j c #c4a65c",
"#k c #b4b2b4",
"#l c #6c769c",
"#m c #949274",
"#n c #848284",
"#o c #eceaec",
"#p c #c4a67c",
"#q c #8c7a5c",
"#r c #c4ba74",
"#s c #8c8a8c",
"#t c #dcc654",
"#u c #ccbe6c",
"#v c #aca294",
"#w c #b4aa6f",
"#x c #646a8c",
"#y c #646e84",
"#z c #5c5e78",
"#A c #84829e",
"#B c #dcca8c",
"#C c #e4ce64",
"#D c #a49254",
"#E c #ccaa68",
"#F c #a4a2c4",
"#G c #bc965c",
"#H c #b4b6c4",
"#I c #746e64",
"#J c #646264",
"#K c #9c9eac",
"#L c #645a5c",
"#M c #7c7674",
"#N c #4c5a7c",
"#O c #8c7254",
"#P c #e4e2e4",
"#Q c #94826c",
"#R c #9496bc",
"#S c #e4d294",
"#T c #74769c",
"#U c #b48a4c",
"#V c #747ea4",
"#W c #64729c",
"#X c #848ab4",
"#Y c #ccbe7c",
"#Z c #e4d274",
"#0 c #6476a4",
"#1 c #948e68",
"#2 c #8c8e9c",
"#3 c #947a5c",
"#4 c #4c5e84",
"#5 c #64667c",
"#6 c #645a4c",
"#7 c #54668c",
"#8 c #d4d6d6",
"a` c #d4bea4",
"a. c #9c9ec4",
"a# c #8c724c",
"aa c #848a9c",
"ab c #c4c6c6",
"ac c #545a74",
"ad c #d4ba6c",
"ae c #44526c",
"af c #ece6a4",
"ag c #ac8647",
"ah c #6c7294",
"ai c #7c8ab0",
"aj c #747691",
"ak c #4c526b",
"al c #ac7e3d",
"am c #9492b0",
"an c #74766c",
"ao c #dcdedc",
"ap c #d4c68c",
"aq c #a49ec0",
"ar c #444a64",
"as c #6c7ea5",
"at c #e4dea4",
"au c #c4badb",
"av c #cccecf",
"aw c #8c7e54",
"ax c #dcca5c",
"ay c #e4d26c",
"az c #ccae64",
"aA c #a4a6c8",
"aB c #d4be44",
"aC c #9c9e9c",
"aD c #e4d6bc",
"aE c #acaeac",
"aF c #7c7e9c",
"aG c #747674",
"aH c #8492b4",
"aI c #5c667c",
"aJ c #8c826c",
"aK c #7486ac",
"aL c #acaecc",
"aM c #bc9e64",
"aN c #5c729c",
"aO c #6c6e5c",
"aP c #a4a6a4",
"aQ c #6c6e6c",
"aR c #ece6ac",
"aS c #949294",
"aT c #5c6684",
"aU c #dccaac",
"aV c #ecde84",
"aW c #848684",
"aX c #b4bac4",
"aY c #646664",
"aZ c #e4e6e4",
"a0 c #949abc",
"a1 c #b48e4c",
"a2 c #ccc27c",
"a3 c #9c7a4c",
"a4 c #7c7a7c",
"a5 c #4c5674",
"a6 c #e4da84",
"a7 c #545674",
"a8 c #444e6c",
/* pixels */
"`b`b`b`b`b`b`b`b`b`b`b`b`b`b`b`b`b`b`b`b`b`b`b`b`b`b`b`b`b`b`b`b`b`b`b`b`b`b`b`b`b`b`b`b`b`b`b`b",
"`b`b`b`b`b`b`b`b`b`b`b`b`b`b`b`b`b`b`b`b`b`b`b`b`b`b`b`b`b`b`b`b`b`b`b`b`b`b`b`b`b`b`b`b`b`b`b`b",
"`b`b`b`b`b`b`b`b`b`b`b`b`b`b`b`b`b`b`b`b`b`b`b`b`b`b`b`b`b`b`b`b`b`b`b`b`b`b`b`b`b`b`b`b`b`b`b`b",
"`b`b`b.Wa4a4a4a4a4a4a4a4a4a4a4a4a4a4a4#n.p`b`b`b`b`b`b`b`b`b`b`b`b`b`b`b`b`b`b`b`b`b`b`b`b`b`b`b",
"`b`b#b.C`p#b#b#babab`Gab`G`G`G`G`G.l`G`o#n`b`b`b`b`b`b`b`b`b`b`b`b`b`b`b`b`b`b`b`b`b`b`b`b`b`b`b",
"`b`bav.n#baE`oaP`o.n.n.naC.naCaC`h`h`h#k.0`b`b`b`b`b`b`b`b`b`b`b`b`b`b`b`b`b`b`b`b`b`b`b`b`b`b`b",
"`b`b`p`h.z.C.CaSaS`k`k`k#s#saW#saWaWaW`kaS`p`b`b`b`b`b`b`b`b`b`b`b`b`b`b`b`b`b`b`b`b`b`b`b`b`b`b",
"`b`b`paSabaPaP.naCaC`h`h.C.C.C.CaSaSaSaS`kaC`b`b`b`b`b`b`b`b`b`b`b`b`b`b`b`b`b`b`b`b`b`b`b`b`b`b",
"`b`b.p`k.zaS.W`k`k#s#saWaWaW#n#n.0#n.0.0#n#M`taG#MaG#M`taG#M`taG#M`taG#M.n`b`b`b`b`b`b`b`b`b`b`b",
"`b`b.p#s`GaCaC`h`h.C.CaSaS.W`k`k`k#s#s#s#s`E.C.n`oaEaE#k#kaE`c#k`c.z.z.z#n`G`b`b`b`b`b`b`b`b`b`b",
"`b`b#PaW.z`k`k#saWaW#n#n.0.0.0a4a4a4aGaG`waG`waGa4a4a4a4a4.0#n.0#n#naWaWa4`c`b`b`b`b`b`b`b`b`b`b",
"`b`b#P.0.l`h.C.CaS`k`k#s#saWaWaW#n#n#n.0#n.0#n.0#n.0#n#naW`EaW#s#s`kaSaSa4aE`b`b`b`b`b`b`b`b`b`b",
"`b`b#o`w#k#saWaW#n#n.0a4`wa4aGaGaG`taG`taQaGaQ`t`t`taG`taGaGa4a4a4.0.0#naG`o`b`b`b`b`b`b`b`b`b`b",
"`b`b`b`t.z.CaS#s#.#.#.#.#.#.#.#.#.#.#..S.S#..S#.#.#.#.#.#.#.#.#..S#.#..S#..S.`.`.`.`.``Q.s`b`b`b",
"`b`b`b`taE#s#n`Oa1af.IaR.IaR.IaR.IaR`M.I.I.I.IaR.Iaf.IaR.Iaf.I`M.Iaf.I`M.I.I.I.I.I.I.I#E`u`b`b`b",
"`b`b`b.u#k`k#s`OaM.va6.1aVa6aV.1a6aVa6aV.1a6aV.1a6aVa6a6aVa6a6.ra6.ra6.ra6.ra6aVa6a6aR.h.Z`b`b`b",
"`b`b`b#J`oaW.0.y.haf`B`B`B`B`B`B`B`B.1`B`B`B`B`B`Ba6.1`B`B.1`B`B`B`B`B`B.1`B`B`Ba6.1`M#c`i`b`b`b",
"`b`b`b#LaE`kaW#3`J`M`B.1`X.1`X.1`B`X`B`X.1`B.1`B.1`B`B`B`B`B`B.1`X.1`X`B`X`B.1`X`B.#af#GaD`b`b`b",
"`b`b`b.DaPaWa4.y.t`M`B`B`B`B`B`B.1`B.1`B`B.#`B`X`B`X.1.#.1`X`B`B`B`B.1`B.1.#`B.1.#.#.v#U.s`b`b`b",
"`b`b`b#J.n#s.0.S#B.f.1.#.1.#.1.#`B.#`B.#.1`B.1`B.1`B`B`B`B.1.#.1.#`B.#`B`B`B`B.#.#ayaRal`b`b`b`b",
"`b`b`b#JaC#naG.S#S.r`B`B`B`B`B`B.1`B.1`B`B`X`B.#`B.#.1.#`B`B`B`B#Z.B`X.1.#.1.#.#.#.#`6#.`b`b`b`b",
"`b`b`b#J`h`E.0.Sata6a6.1`X.1.#`B`X`B.#`B.1`B.1`B.1`B`B.1.#.1`X#h````ar#r`B.#.#.#ay`B`M.``b`b`b`b",
"`b`b`b.uaS#n.i#..I.r`B`X`B`B.1`B.1`B.1.#`B.#`B.#`B.#`B`B`B`B`B`ga8#4ar#1`X.#.#ay.#.1.V`Q`b`b`b`b",
"`b`b`b.u`kaWaG#.`6a6`B.1`B.#`B.#`B.#`B`B.1`B.1`B.1#u.Y#i.1.#`Xar#N.o.5an.#ay.##g.7.B#S#G`b`b`b`b",
"`b`b`b.u#s#n.P.SaR.1`B.#`B.1`B.1`B.1`B`X`B.#`B`X.b`5.Q`5.Aa2.d``#7.e#N`K#h#u.i``araYap.c`b`b`b`b",
"`b`b`b`taW#n.Pag.v`B`B.1`B.#`B.#`B`X.1`B.1`B.1`B`5ae.o.5.Q```K`4aN.NaN#Nar```K#y#War.i#p`b`b`b`b",
"`b`b`b`t#n.0`Sa1`M`B.#`B`B.1`B.1`B`B`B.#.#.#.#.#.Da8aNaN#7`y#W`f#0`f.Tas.T`y.Tas#laraJ`n`b`b`b`b",
"`b`b`b#M.0#n`7`v.f`B.1`X`B.#`B.#.#.#.#.#.#.#.#.##uar`4#0`f`f.T`fasasas`Was`WaK`Wak.6#Ea``b`b`b`b",
"`b`b`b.0a4.0`7#j.r`B`B.1.#.#.#.#.#ay.#ay.#ayay.#.#`.a8asasas`W`Was#l`WaK`V`Vai#V```r#caU`b`b`b`b",
"`b`b`b#naG.0a#az.r`X.#.#.#.#ay.#.#.#.#ay.#ay.#ayayak`m`W`W`Was`H``.Q.QaTai#X`D`Dak`w`vaD`b`b`b`b",
"`b`b`b#s`t#n.2#d.1.#ay.#ay.#.#ay.#ayay.#ay.##u#w`8.Q#VaK`V`V`K.D#w#r`ear.X.3.3.3..ar.D.W`G`b`b`b",
"`b`b`b#saQa4.Had.#ayayay#Cay#Cayay#Cay#Cay#1``.Q`KaTai`D#X#x`K`N#C#C#C.A.Q`V#Ra0#Raj.Xa7```p`b`b",
"`b`b`baS.u.0.S`Y`j`jax`jax`j#Caxax#Cax`jax`S#Nai`DaH`DaH.3`4#Iaxaxaxaxaxar..`Aa0.Ja..J#Far.z`b`b",
"`b`b`b`h.ua4#.`Yax#t#tax#t#t#t#t#t#t#t#t#t.m`H#Vaa.3`U.3#R`L.m#t.k#t.k.karaF.J#F#F#R#Aajar#H`b`b",
"`b`b`b.naY.0#..R.k.k.k.k.k.k.k.k.k.k.k.R.k`xak``.Q.Xa0a0a0...Q`F.RaB.k`q```AaA.w#Far.QaI#A`b`b`b",
"`b`b`b`oaY`w#.aB`#.R`#`#`#`#aB`#`#`#`#`#aB`#`##f#e``.3a.#Fa.`4araw`x`S``aj`0`0aLaFarag`b`b`b`b`b",
"`b`b`b#k#J`Oal`#`#`#`#`#`#`#`#`#`#`#`#`#`#`#`#`#`#`5`T#FaAaA`P`1ak``ac.j#`#`.K###z.U.O`b`b`b`b`b",
"`b`b`b`G#6#.`3#a#a#a#a#a#a#a#a#a#a#a#a#a#a#a#a#a#a`d`H`0.w`0#`aL#`#`#`#`####`R`R`H`l.s`b`b`b`b`b",
"`b`b`b`b#v.H.H.H.H#..H#..H#.#..H#.#..H#.#..H#..H`C.Q`saL#`#`.K.K##`R`R`R`Rau.8au.G``.z`b`b`b`b`b",
"`b`b`b`b`b`b`b`b`b`b`b`b`b`b`b`b`b`b`b`b`b`b`b`b#z`L#`##.j.g##`Rauauauau###A`1.K`2`1`5`b`b`b`b`b",
"`b`b`b`b`b`b`b`b`b`b`b`b`b`b`b`b`b`b`b`b`b`b`b`bak`Z`P#zar``akaF##auau.Larak#z`5.ja5aj`b`b`b`b`b",
"`b`b`b`b`b`b`b`b`b`b`b`b`b`b`b`b`b`b`b`b`b`b`b`b.pak``#5`I#o#K`5#A`2amaraX`b`b#2```T`b`b`b`b`b`b",
"`b`b`b`b`b`b`b`b`b`b`b`b`b`b`b`b`b`b`b`b`b`b`b`b`b#PaX`b`b`b`b.E`TauaF#5`b`b`b`b#P`b`b`b`b`b`b`b",
"`b`b`b`b`b`b`b`b`b`b`b`b`b`b`b`b`b`b`b`b`b`b`b`b`b`b`b`b`b`b`b`Pa7`P#zaa`b`b`b`b`b`b`b`b`b`b`b`b",
"`b`b`b`b`b`b`b`b`b`b`b`b`b`b`b`b`b`b`b`b`b`b`b`b`b`b`b`b`b`b`b`par``.Qab`b`b`b`b`b`b`b`b`b`b`b`b",
"`b`b`b`b`b`b`b`b`b`b`b`b`b`b`b`b`b`b`b`b`b`b`b`b`b`b`b`b`b`b`b`b`b`b`b`b`b`b`b`b`b`b`b`b`b`b`b`b",
"`b`b`b`b`b`b`b`b`b`b`b`b`b`b`b`b`b`b`b`b`b`b`b`b`b`b`b`b`b`b`b`b`b`b`b`b`b`b`b`b`b`b`b`b`b`b`b`b",
"`b`b`b`b`b`b`b`b`b`b`b`b`b`b`b`b`b`b`b`b`b`b`b`b`b`b`b`b`b`b`b`b`b`b`b`b`b`b`b`b`b`b`b`b`b`b`b`b"
};
