/* XPM */
static char * zoom_out_cur_xpm[] = {
"16 16 256 2",
"  	c None",
". 	c #808080",
"+ 	c #000000",
"@ 	c #C0C0C0",
"# 	c #FFFFFF",
"$ 	c #ABABAB",
"% 	c #FFFF00",
"& 	c #FFFF99",
"* 	c #363636",
"= 	c #FFCC00",
"- 	c #000000",
"; 	c #000000",
"> 	c #000000",
", 	c #000000",
"' 	c #000000",
") 	c #000000",
"! 	c #000000",
"~ 	c #000000",
"{ 	c #000000",
"] 	c #000000",
"^ 	c #000000",
"/ 	c #000000",
"( 	c #000000",
"_ 	c #000000",
": 	c #000000",
"< 	c #000000",
"[ 	c #000000",
"} 	c #000000",
"| 	c #000000",
"1 	c #000000",
"2 	c #000000",
"3 	c #000000",
"4 	c #000000",
"5 	c #000000",
"6 	c #000000",
"7 	c #000000",
"8 	c #000000",
"9 	c #000000",
"0 	c #000000",
"a 	c #000000",
"b 	c #000000",
"c 	c #000000",
"d 	c #000000",
"e 	c #000000",
"f 	c #000000",
"g 	c #000000",
"h 	c #000000",
"i 	c #000000",
"j 	c #000000",
"k 	c #000000",
"l 	c #000000",
"m 	c #000000",
"n 	c #000000",
"o 	c #000000",
"p 	c #000000",
"q 	c #000000",
"r 	c #000000",
"s 	c #000000",
"t 	c #000000",
"u 	c #000000",
"v 	c #000000",
"w 	c #000000",
"x 	c #000000",
"y 	c #000000",
"z 	c #000000",
"A 	c #000000",
"B 	c #000000",
"C 	c #000000",
"D 	c #000000",
"E 	c #000000",
"F 	c #000000",
"G 	c #000000",
"H 	c #000000",
"I 	c #000000",
"J 	c #000001",
"K 	c #000000",
"L 	c #000000",
"M 	c #000000",
"N 	c #0F0000",
"O 	c #000001",
"P 	c #000001",
"Q 	c #000000",
"R 	c #C21E44",
"S 	c #000000",
"T 	c #000000",
"U 	c #000000",
"V 	c #000000",
"W 	c #000003",
"X 	c #000000",
"Y 	c #3807DC",
"Z 	c #000000",
"` 	c #000000",
" .	c #000000",
"..	c #000000",
"+.	c #000002",
"@.	c #000101",
"#.	c #000100",
"$.	c #000000",
"%.	c #000000",
"&.	c #000000",
"*.	c #000000",
"=.	c #000000",
"-.	c #000000",
";.	c #000000",
">.	c #000000",
",.	c #000000",
"'.	c #000000",
").	c #000000",
"!.	c #000000",
"~.	c #000000",
"{.	c #000000",
"].	c #000000",
"^.	c #000000",
"/.	c #000000",
"(.	c #000000",
"_.	c #000000",
":.	c #000000",
"<.	c #000000",
"[.	c #000000",
"}.	c #000000",
"|.	c #000000",
"1.	c #000000",
"2.	c #000000",
"3.	c #000001",
"4.	c #C34B60",
"5.	c #C34B60",
"6.	c #0004A8",
"7.	c #000000",
"8.	c #000000",
"9.	c #000000",
"0.	c #000000",
"a.	c #000000",
"b.	c #000008",
"c.	c #000000",
"d.	c #000001",
"e.	c #418AB2",
"f.	c #418AC2",
"g.	c #000000",
"h.	c #000000",
"i.	c #46385C",
"j.	c #C34B64",
"k.	c #000108",
"l.	c #000078",
"m.	c #00004B",
"n.	c #000019",
"o.	c #0000A0",
"p.	c #000000",
"q.	c #010101",
"r.	c #000000",
"s.	c #000301",
"t.	c #C397E8",
"u.	c #C35E3C",
"v.	c #000000",
"w.	c #00000F",
"x.	c #C35E64",
"y.	c #F40000",
"z.	c #000000",
"A.	c #000000",
"B.	c #FFFFF4",
"C.	c #000000",
"D.	c #000000",
"E.	c #000000",
"F.	c #000000",
"G.	c #010010",
"H.	c #000000",
"I.	c #000000",
"J.	c #000000",
"K.	c #000000",
"L.	c #000000",
"M.	c #000000",
"N.	c #000000",
"O.	c #484060",
"P.	c #000000",
"Q.	c #000000",
"R.	c #000000",
"S.	c #000000",
"T.	c #000000",
"U.	c #000000",
"V.	c #000000",
"W.	c #000000",
"X.	c #000000",
"Y.	c #000000",
"Z.	c #000000",
"`.	c #000000",
" +	c #000000",
".+	c #000000",
"++	c #000000",
"@+	c #000000",
"#+	c #000000",
"$+	c #000000",
"%+	c #000000",
"&+	c #000000",
"*+	c #000000",
"=+	c #000000",
"-+	c #000000",
";+	c #000000",
">+	c #000000",
",+	c #000000",
"'+	c #000000",
")+	c #000000",
"!+	c #000000",
"~+	c #000000",
"{+	c #000000",
"]+	c #000000",
"^+	c #000000",
"/+	c #000000",
"(+	c #000000",
"_+	c #000000",
":+	c #000000",
"<+	c #000001",
"[+	c #000000",
"}+	c #000000",
"|+	c #000000",
"1+	c #0F0000",
"2+	c #000001",
"3+	c #000001",
"4+	c #000000",
"5+	c #C35E88",
"6+	c #000000",
"7+	c #000000",
"8+	c #000000",
"9+	c #000000",
"0+	c #000003",
"a+	c #000000",
"b+	c #3807CF",
"c+	c #000000",
"d+	c #000000",
"e+	c #000000",
"f+	c #000000",
"g+	c #000003",
"h+	c #000101",
"i+	c #000100",
"j+	c #000000",
"k+	c #000000",
"l+	c #000000",
"m+	c #000000",
"n+	c #000000",
"o+	c #000000",
"p+	c #000000",
"q+	c #000000",
"r+	c #000000",
"s+	c #000000",
"t+	c #000000",
"u+	c #000000",
"v+	c #000000",
"w+	c #000000",
"x+	c #000000",
"y+	c #000000",
"z+	c #000000",
"A+	c #000000",
"B+	c #000000",
"C+	c #000000",
"D+	c #000000",
"E+	c #000000",
"F+	c #000000",
"G+	c #000000",
"      . + + + .                 ",
"    + . . . . . +               ",
"  + . @ # # # @ . +             ",
". . @ # # # # # @ . .           ",
"+ . # # # # # # # . +           ",
"+ . # + + + + + # . +           ",
"+ . # # # # # # # . +           ",
". . @ # # # # # @ . .           ",
"  + . @ # # # @ . + $           ",
"    + . . . . . + @ . %         ",
"      . + + + . $ . & . *       ",
"                  = + * . *     ",
"                    + + * . *   ",
"                      + + * . * ",
"                        + + * * ",
"                          + +   "};
