/* XPM */
static const char *close_16_xpm[] = {
/* width height num_colors chars_per_pixel */
"    16    16      256            2",
/* colors */
"`` c None",
"`. c #f4f2ee",
"`# c #f6edf0",
"`a c #f6f3f0",
"`b c #f6f3f1",
"`c c #f6f4f1",
"`d c #f6f4f0",
"`e c #f5f2ef",
"`f c #f9eff0",
"`g c #e9f3ef",
"`h c #ecb49e",
"`i c #ec8870",
"`j c #e97f65",
"`k c #e6765a",
"`l c #e56c4f",
"`m c #e66a4d",
"`n c #e56746",
"`o c #e56847",
"`p c #e46447",
"`q c #e25f40",
"`r c #e25b3a",
"`s c #e2532f",
"`t c #d74019",
"`u c #cd8661",
"`v c #e9ffef",
"`w c #ec8b73",
"`x c #f0ae9a",
"`y c #eea189",
"`z c #ec8c73",
"`A c #ec856d",
"`B c #ec856c",
"`C c #ea7c64",
"`D c #ea7d64",
"`E c #e87961",
"`F c #e7765e",
"`G c #e5694d",
"`H c #e46244",
"`I c #e25835",
"`J c #b12300",
"`K c #f8eff1",
"`L c #ea856d",
"`M c #efa892",
"`N c #eb9077",
"`O c #e88f78",
"`P c #eb7e65",
"`Q c #e8755b",
"`R c #e7735a",
"`S c #e66e53",
"`T c #e36344",
"`U c #e4684c",
"`V c #e46d43",
"`W c #e25a35",
"`X c #df5533",
"`Y c #b43715",
"`Z c #f5f3f1",
"`0 c #e6785d",
"`1 c #ec8b72",
"`2 c #e89078",
"`3 c #f0ffff",
"`4 c #f5c8bf",
"`5 c #e36245",
"`6 c #e36243",
"`7 c #e35d3c",
"`8 c #df4a25",
".` c #f4bdb0",
".. c #eafef8",
".# c #df6242",
".a c #e04d27",
".b c #b23615",
".c c #e77256",
".d c #ec8871",
".e c #eb7d65",
".f c #f5c7bd",
".g c #ffffff",
".h c #f1c1b4",
".i c #e25534",
".j c #e24f2c",
".k c #f1b9ab",
".l c #f5b9a9",
".m c #e4502a",
".n c #df522c",
".o c #b33614",
".p c #e5694c",
".q c #ea7d65",
".r c #e77359",
".s c #f2c1b4",
".t c #efaf9f",
".u c #efae9d",
".v c #f1b3a1",
".w c #e13f0d",
".x c #e34a20",
".y c #e2512b",
".z c #b43616",
".A c #f5f2f0",
".B c #e8775e",
".C c #e7755b",
".D c #e56f53",
".E c #e26243",
".F c #f0b4a4",
".G c #fcffff",
".H c #f0ab95",
".I c #e24516",
".J c #e34d20",
".K c #e34e22",
".L c #e64e25",
".M c #b93310",
".N c #f6f2ef",
".O c #e35f3f",
".P c #e56e53",
".Q c #e56f54",
".R c #efaa94",
".S c #e54a19",
".T c #e7501d",
".U c #e54c1a",
".V c #e24c1f",
".W c #b42b08",
".X c #f5f3f0",
".Y c #e45631",
".Z c #e46a4d",
".0 c #e46346",
".1 c #f2c1b5",
".2 c #f0b3a0",
".3 c #f0b29e",
".4 c #eeb29a",
".5 c #e3410d",
".6 c #e44914",
".7 c #e54c1b",
".8 c #b62d09",
"#` c #df4f2a",
"#. c #e36242",
"## c #e46b4e",
"#a c #f2c3b6",
"#b c #f2c2b6",
"#c c #e25c36",
"#d c #e55525",
"#e c #f1bbac",
"#f c #feffff",
"#g c #f3baa6",
"#h c #e44c19",
"#i c #e7430c",
"#j c #bb2901",
"#k c #de4618",
"#l c #e55634",
"#m c #e16f52",
"#n c #ebfffe",
"#o c #f5c7bc",
"#p c #e15a37",
"#q c #e46338",
"#r c #e66235",
"#s c #e64d1c",
"#t c #f6c2ad",
"#u c #f9f5f5",
"#v c #e55120",
"#w c #e03902",
"#x c #b72000",
"#y c #f5edf0",
"#z c #dd4316",
"#A c #e0522f",
"#B c #de5836",
"#C c #e07053",
"#D c #e15e3e",
"#E c #e25b39",
"#F c #e25f3a",
"#G c #e65a30",
"#H c #ea5923",
"#I c #e55323",
"#J c #e65727",
"#K c #e33d03",
"#L c #e23c03",
"#M c #ba2102",
"#N c #f6ffef",
"#O c #d53407",
"#P c #d74a22",
"#Q c #d54b24",
"#R c #db4b24",
"#S c #d94f29",
"#T c #df502a",
"#U c #e0512e",
"#V c #e15027",
"#W c #e44918",
"#X c #e44716",
"#Y c #e2400d",
"#Z c #e23d04",
"#0 c #db3904",
"#1 c #ae1500",
"#2 c #ce8465",
"#3 c #b41d00",
"#4 c #b92e09",
"#5 c #b52f0b",
"#6 c #b62e0a",
"#7 c #b62c07",
"#8 c #b52c07",
"a` c #b52905",
"a. c #b72600",
"a# c #b92200",
"aa c #ae1600",
"ab c #b78053",
"ac c #000000",
"ad c #000000",
"ae c #000000",
"af c #000000",
"ag c #000000",
"ah c #000000",
"ai c #000000",
"aj c #000000",
"ak c #000000",
"al c #000000",
"am c #000000",
"an c #000000",
"ao c #000000",
"ap c #000000",
"aq c #000000",
"ar c #000000",
"as c #000000",
"at c #000000",
"au c #000000",
"av c #000000",
"aw c #000000",
"ax c #000000",
"ay c #000000",
"az c #000000",
"aA c #000000",
"aB c #000000",
"aC c #000000",
"aD c #000000",
"aE c #000000",
"aF c #000000",
"aG c #000000",
"aH c #000000",
"aI c #000000",
"aJ c #000000",
"aK c #000000",
"aL c #000000",
"aM c #000000",
"aN c #000000",
"aO c #000000",
"aP c #000000",
"aQ c #000000",
"aR c #000000",
"aS c #000000",
"aT c #000000",
"aU c #000000",
"aV c #000000",
"aW c #000000",
"aX c #000000",
"aY c #000000",
"aZ c #000000",
"a0 c #000000",
"a1 c #000000",
"a2 c #000000",
"a3 c #000000",
"a4 c #000000",
"a5 c #000000",
"a6 c #000000",
"a7 c #000000",
"a8 c #000000",
/* pixels */
"`````.`#`a`a`b`a`a`c`d`e`f`g````",
"```h`i`j`k`l`m`n`o`p`q`r`s`t`u``",
"`v`w`x`y`z`A`B`C`D`E`F`G`H`I`J`v",
"`K`L`M`N`O`P`Q`R`S`T`U`V`W`X`Y`K",
"`Z`0`1`2`3`4`5`6`7`8.`...#.a.b`Z",
"`a.c.d.e.f.g.h.i.j.k.g.l.m.n.o`a",
"`Z.p.q.r`U.s.g.t.u.g.v.w.x.y.z`Z",
".A`H.B.C.D.E.F.G.G.H.I.J.K.L.M.A",
".N.O.P`R.Q.E.F.G.G.R.S.T.U.V.W.N",
".X.Y.Z`S.0.1.g.2.3.g.4.5.6.7.8.X",
".A#`#.###a.g#b#c#d#e#f#g#h#i#j.A",
".N#k#l#m#n#o#p#q#r#s#t#u#v#w#x.N",
"#y#z#A#B#C#D#E#F#G#H#I#J#K#L#M#y",
"#N#O#P#Q#R#S#T#U#V#W#X#Y#Z#0#1#N",
"``#2#3#4#5#6#7#8#8a`a.a#a#aaab``",
"`````.`#`a`a`b`a`a`c`d`e`f`g````"
};
