/* XPM */
static const char *dxf_dset_48_xpm[] = {
/* width height num_colors chars_per_pixel */
"    48    48      256            2",
/* colors */
"`` c #040224",
"`. c #7c8284",
"`# c #bcc2c4",
"`a c None",
"`b c #444a54",
"`c c #d4e6ec",
"`d c #24263c",
"`e c #9ca2a4",
"`f c #5c626c",
"`g c #d4d2c4",
"`h c #dcf2fc",
"`i c #040e5c",
"`j c #8c929c",
"`k c #14227c",
"`l c #747a84",
"`m c #e4e2e4",
"`n c #b4b6b4",
"`o c #ccd2ec",
"`p c #041254",
"`q c #546294",
"`r c #7c86a4",
"`s c #243284",
"`t c #34428c",
"`u c #c4cad4",
"`v c #343654",
"`w c #141e5c",
"`x c #8c92b4",
"`y c #e4eaf4",
"`z c #040244",
"`A c #9ca6d4",
"`B c #d4dae4",
"`C c #5c6ab4",
"`D c #d4eaf4",
"`E c #d4dadc",
"`F c #f4f2f4",
"`G c #b4becc",
"`H c #24328c",
"`I c #4452a4",
"`J c #c4cacc",
"`K c #1c225c",
"`L c #5462ac",
"`M c #8c8e8c",
"`N c #a4aa9c",
"`O c #6c6e6c",
"`P c #6472b4",
"`Q c #7c8ac4",
"`R c #949acc",
"`S c #eceaec",
"`T c #041674",
"`U c #bcbeb4",
"`V c #0c1a84",
"`W c #040a44",
"`X c #dcdaec",
"`Y c #040a34",
"`Z c #7c8294",
"`0 c #646274",
"`1 c #d4d2d4",
"`2 c #9c9e9c",
"`3 c #242a7c",
"`4 c #e4e2f4",
"`5 c #1c1a34",
"`6 c #f4fafc",
"`7 c #2c3a8c",
"`8 c #c4c2bc",
".` c #444a74",
".. c #dce2e4",
".# c #aca6a4",
".a c #3c4aa4",
".b c #c4cee4",
".c c #343a6c",
".d c #8c92cc",
".e c #dceaf4",
".f c #545e8c",
".g c #1c2a5c",
".h c #5c62b4",
".i c #6c7abc",
".j c #eceefc",
".k c #040a54",
".l c #84827c",
".m c #242a44",
".n c #a4a2a4",
".o c #ecf2f4",
".p c #0c1664",
".q c #949294",
".r c #1c267c",
".s c #bcbaac",
".t c #d4d6e4",
".u c #5c629c",
".v c #7c82bc",
".w c #2c3a7c",
".x c #cccad4",
".y c #0c1a6c",
".z c #d4def4",
".A c #dcdadc",
".B c #cccac4",
".C c #8c8ea4",
".D c #eceeec",
".E c #141a44",
".F c #c4c6cc",
".G c #4c5674",
".H c #dce2f4",
".I c #04023c",
".J c #5c627c",
".K c #d4d6c4",
".L c #04126c",
".M c #7c7e84",
".N c #e4e6e4",
".O c #b4babc",
".P c #2c3674",
".Q c #3442a4",
".R c #c4c6e4",
".S c #3c3e4c",
".T c #e4eef4",
".U c #a4a6d4",
".V c #d4deec",
".W c #f4f6fc",
".X c #b4badc",
".Y c #24369c",
".Z c #1c2664",
".0 c #acaaac",
".1 c #6c76ac",
".2 c #9c9ecc",
".3 c #0c167c",
".4 c #bcbec4",
".5 c #0c1e84",
".6 c #040e44",
".7 c #dcdeec",
".8 c #040e34",
"#` c #646674",
"#. c #4c5aac",
"## c #1c2254",
"#a c #646a84",
"#b c #1c2e94",
"#c c #3c3a44",
"#d c #242e6c",
"#e c #4c56ac",
"#f c #84869c",
"#g c #141e6c",
"#h c #bcbee4",
"#i c #14268c",
"#j c #646eb4",
"#k c #848ec4",
"#l c #fcfafc",
"#m c #2c3a9c",
"#n c #747ebc",
"#o c #84868c",
"#p c #a4a6b4",
"#q c #3c46a4",
"#r c #545eac",
"#s c #0c124c",
"#t c #747a94",
"#u c #5462a4",
"#v c #948e8c",
"#w c #041684",
"#x c #1c268c",
"#y c #8c8eb4",
"#z c #2c3684",
"#A c #6c76bc",
"#B c #5c6674",
"#C c #041264",
"#D c #04064c",
"#E c #d4d6d4",
"#F c #e4e6f4",
"#G c #c4c6c4",
"#H c #444e74",
"#I c #8c96c4",
"#J c #dceef4",
"#K c #5c66ac",
"#L c #242e4c",
"#M c #ecf6fc",
"#N c #949694",
"#O c #5c66a4",
"#P c #7c86c4",
"#Q c #cccecc",
"#R c #141e4c",
"#S c #acaeb4",
"#T c #ccd6ec",
"#U c #d4eef4",
"#V c #d4dedc",
"#W c #949ecc",
"#X c #3c4ea4",
"#Y c #343e6c",
"#Z c #040e54",
"#0 c #a4a6a4",
"#1 c #dcdedc",
"#2 c #dce6f4",
"#3 c #04063c",
"#4 c #c4cae4",
"#5 c #a4aad4",
"#6 c #fcfefc",
"#7 c #2c3e9c",
"#8 c #b4b6bc",
"a` c #8c92bc",
"a. c #d4daec",
"a# c #f4f2fc",
"aa c #243294",
"ab c #1c2264",
"ac c #5462b4",
"ad c #eceaf4",
"ae c #bcbebc",
"af c #040a3c",
"ag c #9c9ea4",
"ah c #c4c2c4",
"ai c #dce2ec",
"aj c #848284",
"ak c #ecf2fc",
"al c #94929c",
"am c #d4d6ec",
"an c #7c82c4",
"ao c #0c1a74",
"ap c #cccacc",
"aq c #eceef4",
"ar c #141a4c",
"as c #d4d6cc",
"at c #e4e6ec",
"au c #e4eefc",
"av c #0c1e8c",
"aw c #040e4c",
"ax c #dcdef4",
"ay c #64667c",
"az c #d4d6dc",
"aA c #e4e6fc",
"aB c #444e7c",
"aC c #8c96cc",
"aD c #dceefc",
"aE c #5c66b4",
"aF c #000000",
"aG c #000000",
"aH c #000000",
"aI c #000000",
"aJ c #000000",
"aK c #000000",
"aL c #000000",
"aM c #000000",
"aN c #000000",
"aO c #000000",
"aP c #000000",
"aQ c #000000",
"aR c #000000",
"aS c #000000",
"aT c #000000",
"aU c #000000",
"aV c #000000",
"aW c #000000",
"aX c #000000",
"aY c #000000",
"aZ c #000000",
"a0 c #000000",
"a1 c #000000",
"a2 c #000000",
"a3 c #000000",
"a4 c #000000",
"a5 c #000000",
"a6 c #000000",
"a7 c #000000",
"a8 c #000000",
/* pixels */
"`a`a`a`a`a`a`a`a`a`a`a`a`a`a`a`a`a`a`a`a`a`a`a`a`a`a`a`a`a`a`a`a`a`a`a`a`a`a`a`a`a`a`a`a`a`a`a`a",
"`a`a`a`a`a`a`a`a`a`a`a`a`a`a`a`a`a`a`a`a`a`a`a`a`a`a`a`a`a`a`a`a`a`a`a`a`a`a`a`a`a`a`a`a`a`a`a`a",
"`a`a`a`a`a`a`a`a`a`a`a`a`a`a`a`a`a`a`a`a`a`a`a`a`a`a`a`a`a`a`a`a`a`a`a`a`a`a`a`a`a`a`a`a`a`a`a`a",
"`a`a`a`a`a`a`a`a.A.A`1.A`1.A`1.A`1.A`1.A`1.A`1.A`1.A`1.A`1`m`g.A`a`a`a`a`a`a`a`a`a`a`a`a`a`a`a`a",
"`a`a`a`a`a`a`a`a`1aqakaqa#ak`F.jaq#l#4#A#f`1.W`c`c`c`c`c`c.e#V.n.A`a`a`a`a`a`a`a`a`a`a`a`a`a`a`a",
"`a`a`a`a`a`a`a`a`1.jaq.jaq.jaq.jaq`6#hac#t.Bak#UaDaD#JaD#J#J#2.A.n.A`a`a`a`a`a`a`a`a`a`a`a`a`a`a",
"`a`a`a`a`a`a`a`a`1aqa#.oa#.oa#.o.j#6.R#A.C#Q.Wau#J#U#JaD`D`D#Jae#E.#az`a`a`a`a`a`a`a`a`a`a`a`a`a",
"`a`a`a`a`a`a`a`a`1.j.o.j.oakaq.jaq`6#hac#t`Jakaq`y.T#U#J#J#J`hae.A.N.n`1`a`a`a`a`a`a`a`a`a`a`a`a",
"`a`a`a`a`a`a`a`a`1aqakaqakaq.W.W.o#6.RaE`Z.A`6`6.Wadau#J#J#JaDae`m`S`m.#`1`a`a`a`a`a`a`a`a`a`a`a",
"`a`a`a`a`a`a`a`a`1.jakaqa#.jat.H.Had.X`C`r#G`o`o`oaq`y`yau#Jau`G`F#6.D`y.#`1`a`a`a`a`a`a`a`a`a`a",
"`a`a`a`a`a`a`a`a`1aqa#aqak.o.UaC#I#k#n`P#.#q#m`k`t.xaq`y`y`y.T`#.o#l.W`F`S.nap`a`a`a`a`a`a`a`a`a",
"`a`a`a`a`a`a`a`a`1.j.o.j.o.j`A.d.d#P#nac.a#7aa#x.w.n#2ad#F`y#F.Vap#Q#G#Gae#1`M.A`a`a`a`a`a`a`a`a",
"`a`a`a`a`a`a`a`a`1aq.jaqaq.o.2#k#P#n#j#r.Qaaaa.r.P.n#2`y#F#F#2#F#2.7#V`E`E..`S.q`a`a`a`a`a`a`a`a",
"`a`a`a`a`a`a`a`a`1`6#l`6#l`6`R#n.vama.`o.t#5`sao.c`U.W`6`6`6.W.W.W.W`6.W.W.W.W`M`a`a`a`a`a`a`a`a",
"`a`a`a`a`a`a`a`a`1`R.U#W`A`A#P#A#A#l#6#6#6.x`3#g.Z#H.f.f.f.u`q.u#O#u.f.u.u#O#u.q`a`a`a`a`a`a`a`a",
"`a`a`a`a`a`a`a`a`1#e#K#e#K.h`C`L#rad#6`F.A#p`w`war.6#3af`Waw#Z`p.p#Caw#Z`p.p`i`M`a`a`a`a`a`a`a`a",
"`a`a`a`a`a`a`a`a`1#o`j#o`jag#u#q#Xaq#l.A`8`j`K.6.m.l`..M`..Maj`..M.M`.aj.M`..M`M`a`a`a`a`a`a`a`a",
"`a`a`a`a`a`a`a`a`1az#1az#1..#raa.Q.t.A#8#0`laraf#L`Naz`Baz`Baz.tazaz.taz.taz.t`M`a`a`a`a`a`a`a`a",
"`a`a`a`a`a`a`a`a`1.jakauak.j`I#b`H`7#z#d.Z##.E.8`d.n.H#F#F#2#F.H#2.H#2#2#2.H.H`M`a`a`a`a`a`a`a`a",
"`a`a`a`a`a`a`a`a`1`yaq`yaq`y#m`V`k.3.yar#s#3`Y```5`2ai.H.H.H.Hax.Hax.H.Hax.H.H`M`a`a`a`a`a`a`a`a",
"`a`a`a`a`a`a`a`a`1#Fau#Fad`y.1aB.`.G#Y#s`v`b.S#c#c`j.7.H.H.Hai.Hai.z.Hai.Haiax`M`a`a`a`a`a`a`a`a",
"`a`a`a`a`a`a`a`a`1`y#F`y`yadatae`n`g`Z`z`O`n.O.O#S.O.H.Hai.Haiaxax`caxaiax.H.V#v`a`a`a`a`a`a`a`a",
"`a`a`a`a`a`a`a`a`1#F`y#F`y#F.e#F.H#l#k.I`f`J#F.H#2#2.H.Haxaiax.z.7.Vaxax`cax.z#v`a`a`a`a`a`a`a`a",
"`a`a`a`a`a`a`a`a`1#F`y#F#F#F#F#F.H`6.C`z`fap#2.H.H.Haiax.7.zax.Vax.zaiaxa.ax.V`M`a`a`a`a`a`a`a`a",
"`a`a`a`a`a`a`a`a`1#F#F#2aA#2#F#2ai.W`x#D`f`JaAaiax.H.7.z.H.7`c`X.z.Vax.V.z.Va.#v`a`a`a`a`a`a`a`a",
"`a`a`a`a`a`a`a`a`1#2#F#2`y#F#2#F.H.W#k`W`f`u.H.H.7.H.z.7.z.7.z.z.Va..Vax.Vaxa.`M`a`a`a`a`a`a`a`a",
"`a`a`a`a`a`a`a`a`1#2#F.H#F#2#2aiax#M`x.k#Bap.H.H.Vax.Vax.V.z`Xa..za.axa.a..za.#v`a`a`a`a`a`a`a`a",
"`a`a`a`a`a`a`a`a`1.H#F.H#2`4.Haiai.Wa``i.J.F.H.z.7.z.7.za..V.za.a.a..z.Va..za.`M`a`a`a`a`a`a`a`a",
"`a`a`a`a`a`a`a`a`1.H#2.H#Fai.H.H.zak#I.L#`.F.H.Vax.V.za..z`Xa.a..za.a.a.a.a.a.#v`a`a`a`a`a`a`a`a",
"`a`a`a`a`a`a`a`a`1.H`4ai.H.H.Hai.7ak#I.Lay`#.H.za..z.7a..za..za.a.a.a..za.a.a..C`a`a`a`a`a`a`a`a",
"`a`a`a`a`a`a`a`a`1.H.Hax.Hai.Hax.VakaC.3ay.F.zaxa..Va.a.a.a.a.a.#Ta.a.a.a..z#T#v`a`a`a`a`a`a`a`a",
"`a`a`a`a`a`a`a`a`1axai.z.H.H.7.za.ak#I#w#a`#.H.Va.a..za.a.a.a.#T.z#Ta..z#Tam#T`M`a`a`a`a`a`a`a`a",
"`a`a`a`a`a`a`a`a`1.V.H.7.Hai.z.7.V.jaC`Vay`#.za..za.a.a.a.#T.zam#Tam#Ta.am#T.z`M`a`a`a`a`a`a`a`a",
"`a`a`a`a`a`a`a`a`1ax.H.Vax.zaiaxa.ak`R`V#a`#.Ha.a.a.a..z#Ta.am#T.z#T.zam#T.z`o#v`a`a`a`a`a`a`a`a",
"`a`a`a`a`a`a`a`a`1a..za.ax.V.za.a..j.d#w.J`#.z#Ta.#T#Ta.#T#T#Ta.#T`o#Tam#Tam`o`M`a`a`a`a`a`a`a`a",
"`a`a`a`a`a`a`a`a`1.H`4.H.H.H.H.H.Vak#I`Tay.F.H.z.zax.z.z.za..z.za.a..za..za.a..C`a`a`a`a`a`a`a`a",
"`a`a`a`a`a`a`a`a`1axai.Hai.Haiax.Va##I`Tay`#ax.za.a.a.a.a.a.a.a..z#Ta.a.#T.z#T#v`a`a`a`a`a`a`a`a",
"`a`a`a`a`a`a`a`a`1.H.H.H.H.H.H.H.Vak#I.3ay.F.H.z.zax.z.za..za..zam#T.za..zama.`M`a`a`a`a`a`a`a`a",
"`a`a`a`a`a`a`a`a`1ax.Hai.Hai.H.7.za##I`T#B.F.zaxa.a.a.a.a.a.a.#Ta.a.a.a.a.#Ta.`M`a`a`a`a`a`a`a`a",
"`a`a`a`a`a`a`a`a`1.7.Hax.Haiax.7a.akaC.3ay`#.Ha..za..za.a..zam.z#T#T.zam#T.z#Tal`a`a`a`a`a`a`a`a",
"`a`a`a`a`a`a`a`a`1.zai.V.H.H.Vax.V.jaC`V#a`#.za.a.a.a.a.a.a.#Tam.z`oa..zam#Tam`M`a`a`a`a`a`a`a`a",
"`a`a`a`a`a`a`a`a`1ax.Haxai.Hai.za.ak#I`Tay.F.z.z.za..za.#T.za..z#Tam.zam#T.z#T#v`a`a`a`a`a`a`a`a",
"`a`a`a`a`a`a`a`a.A.V.H`caxaxaxax.VaqaC`V#a`#axa.a.a.a.a.a.a.am#T.z`oa..z#Tam#Tal`a`a`a`a`a`a`a`a",
"`a`a`a`a`a`a`a`aapax.7axax`c.7.Va.ak`R`V#a`#.z.za.a.a..z#T.zama.#Tam#Tama.#Tam`M`a`a`a`a`a`a`a`a",
"`a`a`a`a`a`a`a`a`1.n`2`2`2`2ag`2ag`2agagagag.n`2agagagagagagagagagagagagagagag.#`a`a`a`a`a`a`a`a",
"`a`a`a`a`a`a`a`a`a`a`a`a`a`a`a`a`a`a`a`a`a`a`a`a`a`a`a`a`a`a`a`a`a`a`a`a`a`a`a`a`a`a`a`a`a`a`a`a",
"`a`a`a`a`a`a`a`a`a`a`a`a`a`a`a`a`a`a`a`a`a`a`a`a`a`a`a`a`a`a`a`a`a`a`a`a`a`a`a`a`a`a`a`a`a`a`a`a",
"`a`a`a`a`a`a`a`a`a`a`a`a`a`a`a`a`a`a`a`a`a`a`a`a`a`a`a`a`a`a`a`a`a`a`a`a`a`a`a`a`a`a`a`a`a`a`a`a"
};
