/* XPM */
static const char *kml_subdset_16_xpm[] = {
/* width height num_colors chars_per_pixel */
"    16    16      256            2",
/* colors */
"`` c None",
"`. c #a09e74",
"`# c #807e53",
"`a c #c0bc94",
"`b c #f2f0c6",
"`c c #6f6b41",
"`d c #8a95dd",
"`e c #5969cc",
"`f c #5464c2",
"`g c #ffffff",
"`h c #c5caed",
"`i c #6875d3",
"`j c #bec4f3",
"`k c #d7ddfa",
"`l c #fdfcfe",
"`m c #fffffd",
"`n c #fffffc",
"`o c #cccfeb",
"`p c #6674ce",
"`q c #5a68ba",
"`r c #525da8",
"`s c #6674d3",
"`t c #7586e0",
"`u c #8fa0f0",
"`v c #b7c4fe",
"`w c #e9ebfc",
"`x c #fefcf5",
"`y c #fefcf4",
"`z c #cccee7",
"`A c #6874c2",
"`B c #525eac",
"`C c #5a61a0",
"`D c #6775d3",
"`E c #7f8ce1",
"`F c #94a3f0",
"`G c #a2b0fa",
"`H c #a1aff6",
"`I c #c4c9f0",
"`J c #f3f2f1",
"`K c #fef9f0",
"`L c #d3d2e1",
"`M c #7078b6",
"`N c #4b5498",
"`O c #7382dc",
"`P c #8594e7",
"`Q c #8e9feb",
"`R c #8b9bea",
"`S c #7a8ae2",
"`T c #8c97dd",
"`U c #d2d1e3",
"`V c #faf3ea",
"`W c #e1dde1",
"`X c #6775d1",
"`Y c #717fd9",
"`Z c #7787de",
"`0 c #7586de",
"`1 c #6d7dd7",
"`2 c #5e6bce",
"`3 c #616fc3",
"`4 c #9ba0c9",
"`5 c #dcd7dc",
"`6 c #5b69c2",
"`7 c #6171cb",
"`8 c #6574cf",
".` c #6473cf",
".. c #6171ca",
".# c #606ec2",
".a c #5c68b6",
".b c #525ea8",
".c c #6169a2",
".d c #abadcf",
".e c #878dc4",
".f c #5d69ba",
".g c #5765ba",
".h c #5c69bd",
".i c #5e69ba",
".j c #5d69b4",
".k c #5c66aa",
".l c #5961a1",
".m c #525a94",
".n c #495182",
".o c #ebe8e6",
".p c #c6c5d7",
".q c #9196c4",
".r c #6973b4",
".s c #5761a9",
".t c #525ca2",
".u c #515a99",
".v c #505690",
".w c #4c5285",
".x c #ded9dc",
".y c #bebcca",
".z c #9fa0b9",
".A c #9e9eb0",
".B c #bab8be",
".C c #c4c0c2",
".D c #000000",
".E c #000000",
".F c #000000",
".G c #000000",
".H c #000000",
".I c #000000",
".J c #000000",
".K c #000000",
".L c #000000",
".M c #000000",
".N c #000000",
".O c #000000",
".P c #000000",
".Q c #000000",
".R c #000000",
".S c #000000",
".T c #000000",
".U c #000000",
".V c #000000",
".W c #000000",
".X c #000000",
".Y c #000000",
".Z c #000000",
".0 c #000000",
".1 c #000000",
".2 c #000000",
".3 c #000000",
".4 c #000000",
".5 c #000000",
".6 c #000000",
".7 c #000000",
".8 c #000000",
"#` c #000000",
"#. c #000000",
"## c #000000",
"#a c #000000",
"#b c #000000",
"#c c #000000",
"#d c #000000",
"#e c #000000",
"#f c #000000",
"#g c #000000",
"#h c #000000",
"#i c #000000",
"#j c #000000",
"#k c #000000",
"#l c #000000",
"#m c #000000",
"#n c #000000",
"#o c #000000",
"#p c #000000",
"#q c #000000",
"#r c #000000",
"#s c #000000",
"#t c #000000",
"#u c #000000",
"#v c #000000",
"#w c #000000",
"#x c #000000",
"#y c #000000",
"#z c #000000",
"#A c #000000",
"#B c #000000",
"#C c #000000",
"#D c #000000",
"#E c #000000",
"#F c #000000",
"#G c #000000",
"#H c #000000",
"#I c #000000",
"#J c #000000",
"#K c #000000",
"#L c #000000",
"#M c #000000",
"#N c #000000",
"#O c #000000",
"#P c #000000",
"#Q c #000000",
"#R c #000000",
"#S c #000000",
"#T c #000000",
"#U c #000000",
"#V c #000000",
"#W c #000000",
"#X c #000000",
"#Y c #000000",
"#Z c #000000",
"#0 c #000000",
"#1 c #000000",
"#2 c #000000",
"#3 c #000000",
"#4 c #000000",
"#5 c #000000",
"#6 c #000000",
"#7 c #000000",
"#8 c #000000",
"a` c #000000",
"a. c #000000",
"a# c #000000",
"aa c #000000",
"ab c #000000",
"ac c #000000",
"ad c #000000",
"ae c #000000",
"af c #000000",
"ag c #000000",
"ah c #000000",
"ai c #000000",
"aj c #000000",
"ak c #000000",
"al c #000000",
"am c #000000",
"an c #000000",
"ao c #000000",
"ap c #000000",
"aq c #000000",
"ar c #000000",
"as c #000000",
"at c #000000",
"au c #000000",
"av c #000000",
"aw c #000000",
"ax c #000000",
"ay c #000000",
"az c #000000",
"aA c #000000",
"aB c #000000",
"aC c #000000",
"aD c #000000",
"aE c #000000",
"aF c #000000",
"aG c #000000",
"aH c #000000",
"aI c #000000",
"aJ c #000000",
"aK c #000000",
"aL c #000000",
"aM c #000000",
"aN c #000000",
"aO c #000000",
"aP c #000000",
"aQ c #000000",
"aR c #000000",
"aS c #000000",
"aT c #000000",
"aU c #000000",
"aV c #000000",
"aW c #000000",
"aX c #000000",
"aY c #000000",
"aZ c #000000",
"a0 c #000000",
"a1 c #000000",
"a2 c #000000",
"a3 c #000000",
"a4 c #000000",
"a5 c #000000",
"a6 c #000000",
"a7 c #000000",
"a8 c #000000",
/* pixels */
"````````````````````````````````",
"`````````.`#`a```````.`#`a``````",
"`````````#`b`c`d`e`f`#`b`#``````",
"`````````a`c`.`g`h`i`a`#`.``````",
"`````````j`k`l`m`n`o`p`q`r``````",
"```````s`t`u`v`w`x`y`z`A`B`C````",
"```````D`E`F`G`H`I`J`K`L`M`N````",
"```.`#`.`O`P`Q`R`S`T`U`V`W`.`c`a",
"```#`b`c`X`Y`Z`0`1`2`3`4`5`c`b`c",
"```.`c`a`6`7`8.`...#.a.b.c`.`c`.",
"``````.d.e.f.g.h.i.j.k.l.m.n````",
"````````.o.p.q.r.s.t.u.v.w``````",
"`````````.`#`a.x.y.z`.`c`.``````",
"`````````#`b`c.A.B.C`c`b`c``````",
"`````````a`c`.```````a`c`.``````",
"````````````````````````````````"
};
