/* XPM */
static const char *md_dset_48_xpm[] = {
/* width height num_colors chars_per_pixel */
"    48    48      256            2",
/* colors */
"`` c None",
"`. c #fbd3ff",
"`# c #e2beea",
"`a c #e1bde9",
"`b c #e0bce8",
"`c c #dfb9e6",
"`d c #ddb8e5",
"`e c #dcb7e4",
"`f c #dbb6e3",
"`g c #d9b5e1",
"`h c #d8b3df",
"`i c #d6b2de",
"`j c #d5b0dd",
"`k c #d4afdc",
"`l c #d3aedb",
"`m c #d2acda",
"`n c #cfabd7",
"`o c #ceaad6",
"`p c #cea9d6",
"`q c #cca7d4",
"`r c #cba5d3",
"`s c #caa4d1",
"`t c #c7a3cf",
"`u c #c6a2ce",
"`v c #c5a1ce",
"`w c #c49ecc",
"`x c #c39dca",
"`y c #c19cc9",
"`z c #c09bc8",
"`A c #be9ac6",
"`B c #bd99c5",
"`C c #bd97c5",
"`D c #ba95c2",
"`E c #b994c1",
"`F c #b893c0",
"`G c #d6b1de",
"`H c #bb96c3",
"`I c #b793bf",
"`J c #b490bc",
"`K c #b48fbc",
"`L c #b38ebb",
"`M c #b18cb9",
"`N c #b08bb8",
"`O c #af8bb6",
"`P c #ac88b4",
"`Q c #ab87b4",
"`R c #ab86b3",
"`S c #aa85b2",
"`T c #a882af",
"`U c #a681ae",
"`V c #a581ad",
"`W c #a480ac",
"`X c #a37eab",
"`Y c #a27daa",
"`Z c #a17ca8",
"`0 c #9e7aa6",
"`1 c #9d7aa5",
"`2 c #9c79a4",
"`3 c #9b76a3",
"`4 c #9a75a1",
"`5 c #9874a0",
"`6 c #97739f",
"`7 c #95729d",
"`8 c #94719c",
".` c #936f9a",
".. c #916d99",
".# c #bf9bc7",
".a c #b28dba",
".b c #ad89b5",
".c c #a984b1",
".d c #9b78a3",
".e c #96729e",
".f c #916e9a",
".g c #8f6b97",
".h c #8e6a96",
".i c #8d6895",
".j c #8c6893",
".k c #896691",
".l c #896591",
".m c #886490",
".n c #906c98",
".o c #e7c2ef",
".p c #ffefff",
".q c #84608b",
".r c #ffe7ff",
".s c #ffdaff",
".t c #fdd8ff",
".u c #f0caf7",
".v c #825e89",
".w c #e8c3f0",
".x c #fad4ff",
".y c #825d89",
".z c #fcd5ff",
".A c #815c88",
".B c #ffdfff",
".C c #c8a4d0",
".D c #ffdbff",
".E c #e9c4f0",
".F c #c5a0cd",
".G c #dab5e2",
".H c #ffecff",
".I c #87638f",
".J c #7e5986",
".K c #eac5f1",
".L c #ebc6f2",
".M c #d1acd8",
".N c #ffd8ff",
".O c #fcd7ff",
".P c #86618e",
".Q c #7c5884",
".R c #f1ccf8",
".S c #7b5783",
".T c #f2cdf9",
".U c #ffe4ff",
".V c #ffd9ff",
".W c #a37fab",
".X c #9f7ba7",
".Y c #f6cefc",
".Z c #7a5682",
".0 c #b692bd",
".1 c #e4bfec",
".2 c #795380",
".3 c #ffe8ff",
".4 c #805a87",
".5 c #77527f",
".6 c #eec6f3",
".7 c #ffe0ff",
".8 c #75507d",
"#` c #efc7f4",
"#. c #ffe3ff",
"## c #f1cbf8",
"#a c #744f7c",
"#b c #cda8d5",
"#c c #f7d1fe",
"#d c #724e79",
"#e c #efc9f6",
"#f c #795582",
"#g c #704c78",
"#h c #ffe1ff",
"#i c #6f4a77",
"#j c #76517e",
"#k c #6e4976",
"#l c #6d4875",
"#m c #ffdcff",
"#n c #734f7b",
"#o c #6b4772",
"#p c #ffe6ff",
"#q c #694571",
"#r c #704b78",
"#s c #684370",
"#t c #8a6792",
"#u c #835f8a",
"#v c #ffdeff",
"#w c #dfbbe8",
"#x c #000000",
"#y c #000000",
"#z c #000000",
"#A c #000000",
"#B c #000000",
"#C c #000000",
"#D c #000000",
"#E c #000000",
"#F c #000000",
"#G c #000000",
"#H c #000000",
"#I c #000000",
"#J c #000000",
"#K c #000000",
"#L c #000000",
"#M c #000000",
"#N c #000000",
"#O c #000000",
"#P c #000000",
"#Q c #000000",
"#R c #000000",
"#S c #000000",
"#T c #000000",
"#U c #000000",
"#V c #000000",
"#W c #000000",
"#X c #000000",
"#Y c #000000",
"#Z c #000000",
"#0 c #000000",
"#1 c #000000",
"#2 c #000000",
"#3 c #000000",
"#4 c #000000",
"#5 c #000000",
"#6 c #000000",
"#7 c #000000",
"#8 c #000000",
"a` c #000000",
"a. c #000000",
"a# c #000000",
"aa c #000000",
"ab c #000000",
"ac c #000000",
"ad c #000000",
"ae c #000000",
"af c #000000",
"ag c #000000",
"ah c #000000",
"ai c #000000",
"aj c #000000",
"ak c #000000",
"al c #000000",
"am c #000000",
"an c #000000",
"ao c #000000",
"ap c #000000",
"aq c #000000",
"ar c #000000",
"as c #000000",
"at c #000000",
"au c #000000",
"av c #000000",
"aw c #000000",
"ax c #000000",
"ay c #000000",
"az c #000000",
"aA c #000000",
"aB c #000000",
"aC c #000000",
"aD c #000000",
"aE c #000000",
"aF c #000000",
"aG c #000000",
"aH c #000000",
"aI c #000000",
"aJ c #000000",
"aK c #000000",
"aL c #000000",
"aM c #000000",
"aN c #000000",
"aO c #000000",
"aP c #000000",
"aQ c #000000",
"aR c #000000",
"aS c #000000",
"aT c #000000",
"aU c #000000",
"aV c #000000",
"aW c #000000",
"aX c #000000",
"aY c #000000",
"aZ c #000000",
"a0 c #000000",
"a1 c #000000",
"a2 c #000000",
"a3 c #000000",
"a4 c #000000",
"a5 c #000000",
"a6 c #000000",
"a7 c #000000",
"a8 c #000000",
/* pixels */
"````````````````````````````````````````````````````````````````````````````````````````````````",
"````````````````````````````````````````````````````````````````````````````````````````````````",
"````````````````````````````````````````````````````````````````````````````````````````````````",
"````````````````````````````````````````````````````````````````````````````````````````````````",
"````````````````````````````````````````````````````````````````````````````````````````````````",
"`````````````.`#`a`b`c`d`e`f`g`h`i`j`k`l`m`n`o`p`q`r`s`t`u`v`w`x`y`z`A`B`C`D`E`F`G``````````````",
"```````````#`A`B`C`H`E`F`I`J`K`L`M`N`O`P`Q`R`S`T`U`V`W`X`Y`Z`0`1`2`3`4`5`6`7`8.`..`F````````````",
"`````````..#`K`L.a`N`O.b`Q`R`S.c`U`V`W`X`Y`Z`0`1`2.d`3`4`6.e`7.`.f...g.h.i.j.k.l.m.n`G``````````",
"````````.o.#`K`L.a`N`O.b`Q`R`S.c`U`V`W`X`Y`Z`0`1`2.d`3`4`6.e`7.`.f...g.h.i.j.k.l.m.n`K``````````",
"````````.o.#`K`L.a`H`E`F`I`J`K`L`M`N`O`P`Q`R`S`T`U`V`W`X`Y`Z`0`1`2`3`4`5`6.g.k.l.m.n`K``````````",
"````````.o`z`I`I`I`z.p.p.p.p.p.p.p.p.p.p.p.p.p.p.p.p.p.p.p.p.p.p.p.p.p.p.p.i.q.q.q.i.a``````````",
"````````.o`z`I`I`I`z.p.r.r.r.r.r.r.r.r.r.r.r.r.r.r.r.r.r.r.r.r.r.r.r.r.r.s.i.q.q.q.i.a``````````",
"````````.o`y`F`F`F`y.p.r.r.r.r.r.r.r.r.r.r.r.r.r.r.r.r.t`#`d`s`u`A`u`i.u.r.j.v.v.v.j`M``````````",
"````````.w`x`E`E`E`x.p.r.r.r.r.r.r.r.r.r.r.r.r.r.x`o.c`3`3`3`3`4`4`4`Y`t.r.k.y.y.y.k`O``````````",
"````````.w`w`D`D`D`w.p.r.r.r.r.r.r.r.r.r.r.r.z`y`4`4`4`4`4`4`4`4`4`4`Y`v.r.l.A.A.A.l`P``````````",
"````````.w`w`D`D`D`w.p.r.r.r.r.r.r.r.r.r.B.C.d`4`4`4`4`4`4`4`M`r`a`a.u.D.r.l.A.A.A.l`P``````````",
"````````.E.F`H`H`H.F.p.r.r.r.r.r.r.r.r.x.c`4`4`4`4`4`M.G.x.p.p.p.p.p.p.H.r.I.J.J.J.I`R``````````",
"````````.K`v`C`C`C`v.p.r.r.r.r.r.r.r.L`0`4`4`4`W.M.N.p.p.p.p.p.p.p.r.O.N.r.P.Q.Q.Q.P.c``````````",
"````````.K`u`B`B`B`u.p.r.r.r.r.r.r`#`3`4`4.a.R.p.p.p.p.x`c`w`M`S`4`4`Y`u.r.q.S.S.S.q`U``````````",
"````````.K`u`B`B`B`u.p.r.r.r.r.r.T.d`4`U.o.p.U.K.M`J.d`4`4`4`4`4`4`4`Y`u.r.q.S.S.S.q`U``````````",
"````````.K`t`A`A`A`t.p.r.r.r.r.V.W.X`i.Y`G`J`4`4`4`4`4`4`4`4`4`4`4`4`Y`u.r.v.Z.Z.Z.v`W``````````",
"````````.L.C.#.#.#.C.p.r.r.r.U`O`V`C`X`4`4`4`4`4`4`4`4`4`4`4`V.0`s`s.1.T.r.y.2.2.2.y`Y``````````",
"````````.L`s`z`z`z`s.p.r.r.r`e`4`4`4`4`4`4`4`4`4`4`O`o`a.x.3.p.p.p.p.p.H.r.4.5.5.5.4.X``````````",
"````````.6`r`x`x`x`r.p.r.r.7`X`4`4`4`4`4`4`4`D`f.B.p.p.p.p.p.p.p.p.p.p.H.r.J.8.8.8.J`1``````````",
"````````.6`r`x`x`x`r.p.r.r`g`4`4`4`4`1.#.o.U.p.p.p.p.p.U.T`a.M`u`M`M`W`u.r.J.8.8.8.J`1``````````",
"````````#``q`x`x`x`q.p.r.r`P`4`4`Y`j#..p.p.p#.##`i`z.c`4`4`4`4`4`4`4`Y`u.r.Q#a#a#a.Q`2``````````",
"````````#`#b`w`w`w#b.p.r#c`3`Y`c.3.p.D`e.#`U`4`4`4`4`4`4`4`4`4`4`4`4`Y`u.r.S#d#d#d.S`3``````````",
"````````#e`p`v`v`v`p.p.r`i`s.D.K`t`U`4`4`4`4`4`4`4`4`4`4`4`4`4`4`4`4`Y`u.r#f#g#g#g#f`5``````````",
"````````#e`p`v`v`v`p.p.r`l`L`4`4`4`4`4`4`4`4`4`4`4`4`4.d.a`s`f.o.x.x#h.H.r#f#g#g#g#f`5``````````",
"````````#e`o`u`u`u`o.p.r`U`4`4`4`4`4`4`4`4`4`4`Y`z`a.N.p.p.p.p.p.p.p.p.H.r.2#i#i#i.2.e``````````",
"````````#e`n`t`t`t`n.p.7`4`4`4`4`4`4`4`4`W`o#c.p.p.p.p.p.p.p.p.p.7.x#c##.r#j#k#k#k#j`8``````````",
"````````.u.M.C.C.C.M.p.t`4`4`4`4`4`4`y##.p.p.p.p.p.p.D.E.M`D`N`4`4`4`4`K.r#a#l#l#l#a..``````````",
"````````.u.M.C.C.C.M.p.x`W`X`X`U`o#m.p.p.p.s.E`k`A`T`X`X`X`X`X`X`X`Z`U`v.r#a#l#l#l#a..``````````",
"````````##`m`s`s`s`m.p#m`s`t`#.U.H.7##`d`r`u`u`u`u`u`u`u`u`u`u`u`u`w`q`a.r#n#o#o#o#n.g``````````",
"````````##`l`r`r`r`m#p.p.p.p.p.p.p.p.p.p.p.p.p.p.p.p.p.p.p.p.p.p.p.p.p.p.r#g#q#q#q#g.i``````````",
"````````.R`k#b#b#b`n.z`l.U.r.r.r.r.r.r.r.r.r.r.r.r.r.r.r.r.r.r.r.r.r.r.r.r#r#s#s#s#r#t``````````",
"````````.R`m`t`v`w`x`w`x`z`B`D`F`J.a`N`P`R`T`V`X`Z`1.d`5.e.`.n.h#t.m.P#u.y.J#a#d#i#a.j``````````",
"````````.R`m`t`v`x`z`B`H`F.0`L`M.b`R.c`V`X`Z`1`3`5.e`8...h.j.l.P.q.y.J.Q#f.5#a#d#i#a.j``````````",
"````````.R`m`t`v`x`z`B`H`F.0`L`M.b`R.c`V`X`Z`1`3`5.e`8...h.j.l.P.q.y.J.Q#f.5#a#d#i#a.j``````````",
"````````#v`m`t`v`x`z`B`H`F.0`L`M.b`R.c`V`X`Z`1`3`5.e`8...h.j.l.P.q.y.J.Q#f.5#a#d#i#a.b``````````",
"``````````.K`n`p`r.C`v`x`z`B`D`F`J.a`N`P`R`T`V`X`Z`1.d`5.e.`.n.h#t.m.P#u.y.J.S#f#j.j````````````",
"````````````#v.K.o.1`a#w`e`g`i`j`m`o#b`s`u.F`y.#`C`D`I`K.a`O`Q`S`U`W`Y.X`2`4`6`8.b``````````````",
"````````````````````````````````````````````````````````````````````````````````````````````````",
"````````````````````````````````````````````````````````````````````````````````````````````````",
"````````````````````````````````````````````````````````````````````````````````````````````````",
"````````````````````````````````````````````````````````````````````````````````````````````````",
"````````````````````````````````````````````````````````````````````````````````````````````````",
"````````````````````````````````````````````````````````````````````````````````````````````````"
};
