/* XPM */
static const char *shp_dset_16_xpm[] = {
/* width height num_colors chars_per_pixel */
"    16    16      256            2",
/* colors */
"`` c None",
"`. c #969696",
"`# c #878787",
"`a c #9a9a9a",
"`b c #bed5ad",
"`c c #909090",
"`d c #656565",
"`e c #7b7b7b",
"`f c #888888",
"`g c #d3d3d3",
"`h c #838383",
"`i c #b8d2a2",
"`j c #616161",
"`k c #c3c3c3",
"`l c #575757",
"`m c #bed7a9",
"`n c #9d9d9d",
"`o c #828282",
"`p c #868c95",
"`q c #b2cf97",
"`r c #69717d",
"`s c #525252",
"`t c #777777",
"`u c #d9e7cd",
"`v c #9fc47e",
"`w c #9dc37a",
"`x c #9fc47c",
"`y c #a1c57e",
"`z c #a2c680",
"`A c #a3c681",
"`B c #a1c57f",
"`C c #a6c884",
"`D c #9dc17c",
"`E c #a1c385",
"`F c #9ac177",
"`G c #91bb6c",
"`H c #94bd70",
"`I c #96bf72",
"`J c #98c074",
"`K c #99c075",
"`L c #97bf73",
"`M c #95be71",
"`N c #a4c783",
"`O c #8bb666",
"`P c #83b35c",
"`Q c #87b55f",
"`R c #89b763",
"`S c #8bb865",
"`T c #8db967",
"`U c #8eb968",
"`V c #8cb866",
"`W c #8ab764",
"`X c #8ab763",
"`Y c #89b266",
"`Z c #7cae53",
"`0 c #7eb056",
"`1 c #80b158",
"`2 c #81b259",
"`3 c #82b25a",
"`4 c #81b158",
"`5 c #7fb056",
"`6 c #71a745",
"`7 c #73a948",
"`8 c #75aa4b",
".` c #76ab4c",
".. c #77ab4d",
".# c #76aa4b",
".a c #74a949",
".b c #6ba140",
".c c #6ca240",
".d c #6ca341",
".e c #6da441",
".f c #6ca441",
".g c #699445",
".h c #679b3e",
".i c #689c3e",
".j c #689d3f",
".k c #699e3f",
".l c #699f3f",
".m c #81a266",
".n c #63943c",
".o c #64963c",
".p c #65973d",
".q c #65983d",
".r c #66983d",
".s c #66993d",
".t c #61903c",
".u c #729357",
".v c #3c3c3c",
".w c #454a52",
".x c #62923b",
".y c #62933b",
".z c #2a3241",
".A c #0a0a0a",
".B c #2f2f2f",
".C c #97ac86",
".D c #393939",
".E c #b6b6b6",
".F c #2f2f30",
".G c #5d8b39",
".H c #090909",
".I c #a5a5a5",
".J c #030303",
".K c #5a5a5a",
".L c #2d2d2d",
".M c #5d7e43",
".N c #5d7d42",
".O c #474747",
".P c #010101",
".Q c #3b3b3b",
".R c #000000",
".S c #000000",
".T c #000000",
".U c #000000",
".V c #000000",
".W c #000000",
".X c #000000",
".Y c #000000",
".Z c #000000",
".0 c #000000",
".1 c #000000",
".2 c #000000",
".3 c #000000",
".4 c #000000",
".5 c #000000",
".6 c #000000",
".7 c #000000",
".8 c #000000",
"#` c #000000",
"#. c #000000",
"## c #000000",
"#a c #000000",
"#b c #000000",
"#c c #000000",
"#d c #000000",
"#e c #000000",
"#f c #000000",
"#g c #000000",
"#h c #000000",
"#i c #000000",
"#j c #000000",
"#k c #000000",
"#l c #000000",
"#m c #000000",
"#n c #000000",
"#o c #000000",
"#p c #000000",
"#q c #000000",
"#r c #000000",
"#s c #000000",
"#t c #000000",
"#u c #000000",
"#v c #000000",
"#w c #000000",
"#x c #000000",
"#y c #000000",
"#z c #000000",
"#A c #000000",
"#B c #000000",
"#C c #000000",
"#D c #000000",
"#E c #000000",
"#F c #000000",
"#G c #000000",
"#H c #000000",
"#I c #000000",
"#J c #000000",
"#K c #000000",
"#L c #000000",
"#M c #000000",
"#N c #000000",
"#O c #000000",
"#P c #000000",
"#Q c #000000",
"#R c #000000",
"#S c #000000",
"#T c #000000",
"#U c #000000",
"#V c #000000",
"#W c #000000",
"#X c #000000",
"#Y c #000000",
"#Z c #000000",
"#0 c #000000",
"#1 c #000000",
"#2 c #000000",
"#3 c #000000",
"#4 c #000000",
"#5 c #000000",
"#6 c #000000",
"#7 c #000000",
"#8 c #000000",
"a` c #000000",
"a. c #000000",
"a# c #000000",
"aa c #000000",
"ab c #000000",
"ac c #000000",
"ad c #000000",
"ae c #000000",
"af c #000000",
"ag c #000000",
"ah c #000000",
"ai c #000000",
"aj c #000000",
"ak c #000000",
"al c #000000",
"am c #000000",
"an c #000000",
"ao c #000000",
"ap c #000000",
"aq c #000000",
"ar c #000000",
"as c #000000",
"at c #000000",
"au c #000000",
"av c #000000",
"aw c #000000",
"ax c #000000",
"ay c #000000",
"az c #000000",
"aA c #000000",
"aB c #000000",
"aC c #000000",
"aD c #000000",
"aE c #000000",
"aF c #000000",
"aG c #000000",
"aH c #000000",
"aI c #000000",
"aJ c #000000",
"aK c #000000",
"aL c #000000",
"aM c #000000",
"aN c #000000",
"aO c #000000",
"aP c #000000",
"aQ c #000000",
"aR c #000000",
"aS c #000000",
"aT c #000000",
"aU c #000000",
"aV c #000000",
"aW c #000000",
"aX c #000000",
"aY c #000000",
"aZ c #000000",
"a0 c #000000",
"a1 c #000000",
"a2 c #000000",
"a3 c #000000",
"a4 c #000000",
"a5 c #000000",
"a6 c #000000",
"a7 c #000000",
"a8 c #000000",
/* pixels */
"````````````````````````````````",
"`````````.`#`a`b`b`b`c`d`e``````",
"`````````f`g`h`i`i`i`j`k`l``````",
"```````m`n`o`p`q`q`q`r`s`t`u````",
"```````v`w`x`y`z`A`A`z`B`C`D````",
"`````E`F`G`H`I`J`K`K`J`L`M`N`b``",
"`````O`P`Q`R`S`T`U`U`T`V`W`X`Y``",
"```.`#`a`Z`0`1`2`3`3`3`4`5`c`d`e",
"```f`g`h`6`7`8.`.......#.a`j`k`l",
"```n`o`p.b.c.d.e.e.e.e.f.d`r`s`t",
"````.g.h.i.j.k.k.l.l.k.k.j.k.m``",
"``````.n.o.p.q.r.s.s.s.q.p.t````",
"``````.u`l.v.w.x.y.y.z.A.B.C````",
"````````.D.E.F.G.G.G.H.I.J``````",
"````````.K.L`l.M.M.N.O.P.Q``````",
"````````````````````````````````"
};
