/* XPM */
static const char *shp_dset_48_xpm[] = {
/* width height num_colors chars_per_pixel */
"    48    48      256            2",
/* colors */
"`` c #3c5624",
"`. c #4c7a2c",
"`# c #84b65c",
"`a c #649a3c",
"`b c #bcd29c",
"`c c #5c8a34",
"`d c #7ca654",
"`e c #a4c67c",
"`f c None",
"`g c #446a2c",
"`h c #6c8a54",
"`i c #648244",
"`j c #9cc274",
"`k c #6ca644",
"`l c #cce2b4",
"`m c #5c9234",
"`n c #54822c",
"`o c #94ba6c",
"`p c #546e3c",
"`q c #7cae4c",
"`r c #3c6224",
"`s c #749e4c",
"`t c #b4ce94",
"`u c #5c7a3c",
"`v c #6ca23c",
"`w c #c4daa4",
"`x c #648a44",
"`y c #4c722c",
"`z c #dce6c4",
"`A c #649234",
"`B c #9cbe74",
"`C c #8cae6c",
"`D c #a4ca84",
"`E c #74a644",
"`F c #5c8234",
"`G c #84b254",
"`H c #3c5e24",
"`I c #547a2c",
"`J c #8cb664",
"`K c #6c9a3c",
"`L c #648e3c",
"`M c #94ba7c",
"`N c #547634",
"`O c #e4eecc",
"`P c #649244",
"`Q c #74a654",
"`R c #5c8e34",
"`S c #84aa64",
"`T c #4c6a34",
"`U c #6c9644",
"`V c #94be6c",
"`W c #5c7244",
"`X c #7cb25c",
"`Y c #446224",
"`Z c #ccdeac",
"`0 c #74aa44",
"`1 c #547e2c",
"`2 c #bcd69c",
"`3 c #7caa4c",
"`4 c #a4c28c",
"`5 c #9cc67c",
"`6 c #548634",
"`7 c #547234",
"`8 c #7cb254",
".` c #b4d294",
".. c #4c762c",
".# c #e4eacc",
".a c #64963c",
".b c #acca84",
".c c #5c8634",
".d c #445e24",
".e c #8cba64",
".f c #6c9e3c",
".g c #446624",
".h c #3c5a24",
".i c #84b664",
".j c #649e3c",
".k c #5c8a3c",
".l c #a4c684",
".m c #446e24",
".n c #6c8e54",
".o c #6c8654",
".p c #9cc27c",
".q c #d4e6bc",
".r c #5c923c",
".s c #548234",
".t c #94ba74",
".u c #7cae54",
".v c #74a254",
".w c #5c7a44",
".x c #6ca244",
".y c #c4daac",
".z c #648a4c",
".A c #4c7234",
".B c #dceac4",
".C c #64923c",
".D c #9cbe7c",
".E c #74a64c",
".F c #84b25c",
".G c #3c5e2c",
".H c #547a34",
".I c #e4eed4",
".J c #649644",
".K c #5c8e3c",
".L c #4c6e2c",
".M c #74925c",
".N c #94be74",
".O c #ccdeb4",
".P c #74aa4c",
".Q c #547e34",
".R c #bcd6a4",
".S c #7caa54",
".T c #54723c",
".U c #b4d29c",
".V c #acca8c",
".W c #5c863c",
".X c #8cba6c",
".Y c #6c9e44",
".Z c #44662c",
".0 c #000000",
".1 c #000000",
".2 c #000000",
".3 c #000000",
".4 c #000000",
".5 c #000000",
".6 c #000000",
".7 c #000000",
".8 c #000000",
"#` c #000000",
"#. c #000000",
"## c #000000",
"#a c #000000",
"#b c #000000",
"#c c #000000",
"#d c #000000",
"#e c #000000",
"#f c #000000",
"#g c #000000",
"#h c #000000",
"#i c #000000",
"#j c #000000",
"#k c #000000",
"#l c #000000",
"#m c #000000",
"#n c #000000",
"#o c #000000",
"#p c #000000",
"#q c #000000",
"#r c #000000",
"#s c #000000",
"#t c #000000",
"#u c #000000",
"#v c #000000",
"#w c #000000",
"#x c #000000",
"#y c #000000",
"#z c #000000",
"#A c #000000",
"#B c #000000",
"#C c #000000",
"#D c #000000",
"#E c #000000",
"#F c #000000",
"#G c #000000",
"#H c #000000",
"#I c #000000",
"#J c #000000",
"#K c #000000",
"#L c #000000",
"#M c #000000",
"#N c #000000",
"#O c #000000",
"#P c #000000",
"#Q c #000000",
"#R c #000000",
"#S c #000000",
"#T c #000000",
"#U c #000000",
"#V c #000000",
"#W c #000000",
"#X c #000000",
"#Y c #000000",
"#Z c #000000",
"#0 c #000000",
"#1 c #000000",
"#2 c #000000",
"#3 c #000000",
"#4 c #000000",
"#5 c #000000",
"#6 c #000000",
"#7 c #000000",
"#8 c #000000",
"a` c #000000",
"a. c #000000",
"a# c #000000",
"aa c #000000",
"ab c #000000",
"ac c #000000",
"ad c #000000",
"ae c #000000",
"af c #000000",
"ag c #000000",
"ah c #000000",
"ai c #000000",
"aj c #000000",
"ak c #000000",
"al c #000000",
"am c #000000",
"an c #000000",
"ao c #000000",
"ap c #000000",
"aq c #000000",
"ar c #000000",
"as c #000000",
"at c #000000",
"au c #000000",
"av c #000000",
"aw c #000000",
"ax c #000000",
"ay c #000000",
"az c #000000",
"aA c #000000",
"aB c #000000",
"aC c #000000",
"aD c #000000",
"aE c #000000",
"aF c #000000",
"aG c #000000",
"aH c #000000",
"aI c #000000",
"aJ c #000000",
"aK c #000000",
"aL c #000000",
"aM c #000000",
"aN c #000000",
"aO c #000000",
"aP c #000000",
"aQ c #000000",
"aR c #000000",
"aS c #000000",
"aT c #000000",
"aU c #000000",
"aV c #000000",
"aW c #000000",
"aX c #000000",
"aY c #000000",
"aZ c #000000",
"a0 c #000000",
"a1 c #000000",
"a2 c #000000",
"a3 c #000000",
"a4 c #000000",
"a5 c #000000",
"a6 c #000000",
"a7 c #000000",
"a8 c #000000",
/* pixels */
"`f`f`f`f`f`f`f`f`f`f`f`f`f`f`f`f`f`f`f`f`f`f`f`f`f`f`f`f`f`f`f`f`f`f`f`f`f`f`f`f`f`f`f`f`f`f`f`f",
"`f`f`f`f`f`f`f`f`f`f`f`f`f`f`f`f`f`f`f`f`f`f`f`f`f`f`f`f`f`f`f`f`f`f`f`f`f`f`f`f`f`f`f`f`f`f`f`f",
"`f`f`f`f`f`f`f`f`f`f`f`f`f`f`f`f`f`f`f`f`f`f`f`f`f`f`f`f`f`f`f`f`f`f`f`f`f`f`f`f`f`f`f`f`f`f`f`f",
"`f`f`f`f`f`f`f`f`f`f`f`f`f`f`f`f`f`f`f`f`f`f`f`f`f`f`f`f`f`f`f`f`f`f`f`f`f`f`f`f`f`f`f`f`f`f`f`f",
"`f`f`f`f`f`f`f`f`f`f`f`f`f`B`J.N`e.D.p`e.D`e.D`e.D.p.D.p`B.D`B.D`B`J.F`f`f`f`f`f`f`f`f`f`f`f`f`f",
"`f`f`f`f`f`f`f`f`f`f`f`f.S`t.O`z.#.#`O.#.I`O.I`O.I`O`O.I`O`O.#.B.#.q`w.u`f`f`f`f`f`f`f`f`f`f`f`f",
"`f`f`f`f`f`f`f`f`f`f`f.u`Z.B.y.R.``b.U`b.U`b`b`2`b`2`b`2`b`b.U`2.U.R`z.O`3`f`f`f`f`f`f`f`f`f`f`f",
"`f`f`f`f`f`f`f`f`f`f.F`t`z.V.l.b`D.V`D.V.b.V`D.V.V.V`D.V.V`D.V.b.V`D.b.q`t.P`f`f`f`f`f`f`f`f`f`f",
"`f`f`f`f`f`f`f`f`f`f.F.q.`.l.l`D.V.l.V.V`D.V.V.V`D.V.V.V.V.V`D.V`D.V.l.`.q.F`f`f`f`f`f`f`f`f`f`f",
"`f`f`f`f`f`f`f`f`f.E.``Z.p.l.l.l.l.l`D.l.b`D`D.V`D.V`D`D`D`D.b.l`D.l.l`4`w`b`v`f`f`f`f`f`f`f`f`f",
"`f`f`f`f`f`f`f`f`J`J.O.V.D`5`e`e.l`e.l`e.l.l.l.l.l.l.l.l.l.l.l.l.l`e`e`5.b.O`J`S`f`f`f`f`f`f`f`f",
"`f`f`f`f`f`f`f`f`E`b.U`B.p`j.p.p.p.p`e.p.l.p`e`5`e`e`e.l`5`e.p`e.p.p.p.p`B.`.R.x`f`f`f`f`f`f`f`f",
"`f`f`f`f`f`f`f.S`J.y`j.N`B`j.D`j.p`j.p.p.p.p.p.p.p.p.p.p.p.p.p.p.p.p`j.p`j.p.R`o.v`f`f`f`f`f`f`f",
"`f`f`f`f`f`f`f.x.R.l`o.N.N.N.N.N`B.N`j`B`j`j.p`j.p.p`j`j.p`j`B`j`j`B`B.N.N`V.l`2.Y`4`f`f`f`f`f`f",
"`f`f`f`f`f`f`s`B`t.X.X`o.X`o`V`o.N.N.N.N.N.N.N`B.N`B.N`B.N.N.N.N.N.N`V`V.N`o`o`t.D`a`f`f`f`f`f`f",
"`f`f`f`f`f.D.x`t.N`J.e.e.e`o.X`o.X`o`V`o`V`o`V`V`o`V.N`V`V`o`V`V`o.X`o.X.X.e.e.N`t.v`C`f`f`f`f`f",
"`f`f`f`f`f.a.D`5.F.i`J`J`J`J.e.e.e.X.e.X.X.X`o.X`o.X.X`o.X`o.X.X.X.e.X.e`J.e`J`#.p`j.a`f`f`f`f`f",
"`f`f`f`f`S`d`D`J.F.F`#.F`#.i`J`J`J`J`J`J`J.e`J.e.e.e.e.e`J.e`J`J`J`J`J`J.i`J.F.F`J.l`d.v`f`f`f`f",
"`f`f`f`f.a.N`o.u.u`G`X.F.F.F.F`#.F.i`#`J`J`#`J.i`J`J`J.i`J.i`J`#`J`#.F`#.F.F.F.F`8.X`B.C`f`f`f`f",
"`f`f`f`s`d.N.u`q.u.u.u.u`G`X.F.F.F.F.F.F.F.F.i.F`#.F.i.F.F`#.F.F.F.F.F.F`G.u`X.u.u.u.N.S`U`f`f`f",
"`f`f`f.C.e.F.P.P.u.u.u.u.u.u.u.u`8.u.F.u.F.F`G.F.F.F`G.F.F.F`8.F.u`G`8.u.u.u.u.u.u`3`8`J.K`f`f`f",
"`f`f`U`Q`#`k.E.P.P.P`3.P.u`q.u.u.u.u.u.u`8.u.u.u.u`8.u`8.u.u.u.u.u.u.u.u.u.u`3`3.P.P.P.F.S.c`f`f",
"`f`f.C.u.E`k`E`k`E`0.P.P.P.P.P.P`3.P.u`q.u`q.u.u.u.u.u.S.u`q.u`3.P.u.P.P.P.P.P.P.P.E`E.P.u.k`f`f",
"`f`f`U`q`k`v`k`k`k`k`E`E`E`0.E`0.P.P.P.P.P.P.P.P.P.P.P.P.P.P.P.P.P.P.P`E.P`0.E`k`E`k`k`k`q.C`f`f",
"`f`f.J`0.x`v`v`v`v`v`k`k`k`k`k`E`E`0`E`E.E`0`E.P`0.P`E.P`0`E.P`E`0`E`k`E`k`k`k`k`k`k`v`v.P`L`f`f",
"`f`f.k`E`v.j.x`v.x`v`v`v`k`v`k`v`k`k`k`k`k`k`k`E`k`E`k`E`k`k`k`k`k`k.x`k`v.x`v`v`v`v`v.x`k`n`f`f",
"`f`f`x.a`k.f.j.Y.j.x.f.x.j`v.x.x`v.x`v`k`v`k`k`v`k`v`k`k`v`k`v`k`v`v`v.x`v`v.x`v.x.f.j`k.a.H`f`f",
"`f`f`f`1.x.f`a.f.j.Y.j.x.f.x`v`v.x.j`v.x`v`v`v.x`v.x`v`v.x`v.x`v.x.Y`v.x.f.x.f.j.f.j.Y.x`1`f`f`f",
"`f`f`f.z`R.x.j`a.Y.j.f.j.f.j.Y.j.f.x.f.f.x.Y`v.Y`v.Y`v.Y`v.Y`v.Y.j`v.j.j.Y.j.f.j.Y.j.x`R`i`f`f`f",
"`f`f`f`f`1.Y.f`a`a`a`a`K`a.j`a.Y.j.j.j.Y.j.f.j.Y.j.Y.j.Y.j.f.j.f.j.Y.f.j.j.Y`a`K`a.Y`K..`f`f`f`f",
"`f`f`f`f.n`6.f.a.a`K`a`a`a`K`a`a`K`K`a.f.j`a.Y.j.f.j.f.j.Y`a.Y`a`K`a`a`K`a`a`K`a`a.Y`n`h`f`f`f`f",
"`f`f`f`f`f`N.a`a.a.a.J`a.J`a`a`K`a`a`a`a`K`a`a`K`a`a`K`a`a`a`a`a`a`K`a`a`a`a.J.a`K.r`y`f`f`f`f`f",
"`f`f`f`f`f.M`1`a.a.a.a.a.a.a.J.J`a.J`a`a.J`a`a.J`K`a`a.J`K`a.a`K.J.a`a.J.a.a.a`a`a..`f`f`f`f`f`f",
"`f`f`f`f`f`f`y`L.a.C.C.a.a.a.a.a.a.a.a.a.a.a`U`a.a.J.a.a.a.a.J.a.a.a.a.a.a.a.a.a.k`7`f`f`f`f`f`f",
"`f`f`f`f`f`f`f`y.a.r.C.r.C.C.C.C.C.a.C.a.a.a.a.a.a.a.a.a.a.a.a.a.C.a.C.C.C.C.a.C.m`f`f`f`f`f`f`f",
"`f`f`f`f`f`f`f`u.Q.a`R`L`m`L.r`A.r.C.C.C.C.C.r.C.C.C.C.C.C.C.C.r.C.r.C.r`A.K.a`..w`f`f`f`f`f`f`f",
"`f`f`f`f`f`f`f`f.L.k`L`R.K`L`R.K`L`m.K.C.K.C`A.r.C`m.r.C.K.C`m`L`m.C`R`L.K.r.c`T`f`f`f`f`f`f`f`f",
"`f`f`f`f`f`f`f`f.o`y`R.k`c.K`c`L.K`R`L`R.K`R.K`L.K`L.K`L`R.K`L`R.K`L.K`c`R`L`y.o`f`f`f`f`f`f`f`f",
"`f`f`f`f`f`f`f`f`f.Z`F`c.W`c.k`c.k`c.k.k`c.k.k`R.k`R`c.K`c.K`c.k`c.k`c.k`c.Q`Y`f`f`f`f`f`f`f`f`f",
"`f`f`f`f`f`f`f`f`f`f`Y.W.c.c.W.c`c.W`c.c.k`c.k`c.k`c.k`c.k`c.k`c.W.c`c.c.W`r`f`f`f`f`f`f`f`f`f`f",
"`f`f`f`f`f`f`f`f`f`f.T`y.W`6.c`6.W.c.c.W.c.k.c.c.W.c.W.c.c.W.c.c.c.c.s.W.L`T`f`f`f`f`f`f`f`f`f`f",
"`f`f`f`f`f`f`f`f`f`f`f`H.A.s`F.s.s.s.s.W.s`F.W`F.c`F.c`F.W.s`F.s.s`F.s.A.d`f`f`f`f`f`f`f`f`f`f`f",
"`f`f`f`f`f`f`f`f`f`f`f`f.h.L..`N.H.H.H.H.Q.Q.Q.H.Q.Q.H.Q.H.H.Q.H.H..`T```f`f`f`f`f`f`f`f`f`f`f`f",
"`f`f`f`f`f`f`f`f`f`f`f`f`f`p.h.G`Y.G`Y.G.d`r.d`r.d.G.G.d`r.G`H.G.d``.T`f`f`f`f`f`f`f`f`f`f`f`f`f",
"`f`f`f`f`f`f`f`f`f`f`f`f`f`f`f`f`f`f`f`f`f`f`f`f`f`f`f`f`f`f`f`f`f`f`f`f`f`f`f`f`f`f`f`f`f`f`f`f",
"`f`f`f`f`f`f`f`f`f`f`f`f`f`f`f`f`f`f`f`f`f`f`f`f`f`f`f`f`f`f`f`f`f`f`f`f`f`f`f`f`f`f`f`f`f`f`f`f",
"`f`f`f`f`f`f`f`f`f`f`f`f`f`f`f`f`f`f`f`f`f`f`f`f`f`f`f`f`f`f`f`f`f`f`f`f`f`f`f`f`f`f`f`f`f`f`f`f",
"`f`f`f`f`f`f`f`f`f`f`f`f`f`f`f`f`f`f`f`f`f`f`f`f`f`f`f`f`f`f`f`f`f`f`f`f`f`f`f`f`f`f`f`f`f`f`f`f"
};
