/* XPM */
static const char *state_16_xpm[] = {
/* width height num_colors chars_per_pixel */
"    80    16      256            2",
/* colors */
"`` c #040a6c",
"`. c #14850f",
"`# c #ac821c",
"`a c #8cc66c",
"`b c #b40a04",
"`c c #54923c",
"`d c #dcc638",
"`e c #c44244",
"`f c #1ca317",
"`g c #ecda9c",
"`h c None",
"`i c #f4875f",
"`j c #b4220c",
"`k c #5cae34",
"`l c #348818",
"`m c #9c6e0c",
"`n c #fce041",
"`o c #a4c6e4",
"`p c #0c6204",
"`q c #94ae8c",
"`r c #fcf8a1",
"`s c #74562c",
"`t c #c80204",
"`u c #dc2404",
"`v c #1c9d16",
"`w c #ccad1e",
"`x c #5cbe4c",
"`y c #5c82a4",
"`z c #44a324",
"`A c #248411",
"`B c #349414",
"`C c #c45254",
"`D c #ec6234",
"`E c #ecde8c",
"`F c #c4d8c0",
"`G c #0c680c",
"`H c #d43214",
"`I c #74aa64",
"`J c #e4eee4",
"`K c #c41511",
"`L c #4cb22c",
"`M c #ecd868",
"`N c #ccb268",
"`O c #bc9e17",
"`P c #8ca8c4",
"`Q c #acc6a4",
"`R c #6c9e64",
"`S c #f4d430",
"`T c #ccdaec",
"`U c #248c11",
"`V c #247b14",
"`W c #64b944",
"`X c #d4b624",
"`Y c #3caa2c",
"`Z c #449924",
"`0 c #d41604",
"`1 c #a9170c",
"`2 c #54a034",
"`3 c #b9d6f1",
"`4 c #dc3234",
"`5 c #94b6d4",
"`6 c #e4e6e4",
"`7 c #90d280",
"`8 c #fceb5d",
".` c #4c6e94",
".. c #7c9aba",
".# c #e45230",
".a c #e4765c",
".b c #f4f2f5",
".c c #e44821",
".d c #3c8331",
".e c #a47a1c",
".f c #fcf070",
".g c #e43204",
".h c #cce6fa",
".i c #c3dffc",
".j c #ec9880",
".k c #c82212",
".l c #b4c8e0",
".m c #d42e1c",
".n c #349d17",
".o c #14770c",
".p c #bc9b59",
".q c #fcf48c",
".r c #148c0c",
".s c #b48a38",
".t c #ecce2f",
".u c #fce65c",
".v c #fcf9ba",
".w c #79c259",
".x c #2c822c",
".y c #b4190c",
".z c #64a254",
".A c #ec7e5c",
".B c #6cac54",
".C c #a47614",
".D c #294674",
".E c #d42a14",
".F c #ccac44",
".G c #6c8fb1",
".H c #2c8515",
".I c #c81c14",
".J c #fcda34",
".K c #2c8b14",
".L c #4cac30",
".M c #58a638",
".N c #c4d8ec",
".O c #5c7ea4",
".P c #ec5c30",
".Q c #dc4a4c",
".R c #c72c14",
".S c #9cc291",
".T c #34a214",
".U c #d80e0a",
".V c #4ca531",
".W c #74ba50",
".X c #ecf4fc",
".Y c #4cb447",
".Z c #c4aa28",
".0 c #91b0cc",
".1 c #f2da48",
".2 c #6cb84f",
".3 c #e4be24",
".4 c #d41e04",
".5 c #a4bcd8",
".6 c #ec4e1c",
".7 c #84c868",
".8 c #34547c",
"#` c #1c830d",
"#. c #24426c",
"## c #44628c",
"#a c #f8aa88",
"#b c #acda8c",
"#c c #bc9624",
"#d c #9cd47c",
"#e c #c44e4c",
"#f c #94be8c",
"#g c #dcdadc",
"#h c #f49068",
"#i c #d45e54",
"#j c #b4d2b4",
"#k c #106e10",
"#l c #f79f7c",
"#m c #84aa7c",
"#n c #ec3a04",
"#o c #7ca674",
"#p c #1caa14",
"#q c #448e39",
"#r c #b6cfec",
"#s c #f47548",
"#t c #84be6c",
"#u c #bc1008",
"#v c #6c8aac",
"#w c #f46c3c",
"#x c #e43e3c",
"#y c #fbfdfc",
"#z c #ece6a8",
"#A c #ac822c",
"#B c #bccab4",
"#C c #347e1c",
"#D c #5c7294",
"#E c #e4ca4c",
"#F c #e42a04",
"#G c #dcbe28",
"#H c #b89248",
"#I c #d44234",
"#J c #3faa39",
"#K c #2c9a14",
"#L c #dceafc",
"#M c #1c7214",
"#N c #ecd684",
"#O c #9cb2cc",
"#P c #b42a24",
"#Q c #90ce78",
"#R c #5c9a48",
"#S c #acceec",
"#T c #9cb698",
"#U c #d4b228",
"#V c #c4a21c",
"#W c #9cbedc",
"#X c #b41e1c",
"#Y c #fcb294",
"#Z c #a4da8c",
"#0 c #6cbe4c",
"#1 c #3ca63c",
"#2 c #e1f0fc",
"#3 c #ec927c",
"#4 c #e43c1a",
"#5 c #ac120c",
"#6 c #d43a1c",
"#7 c #449e24",
"#8 c #84a2bc",
"a` c #2c4e7c",
"a. c #3c5a84",
"a# c #4c6a90",
"aa c #fce64c",
"ab c #c40a04",
"ac c #74a664",
"ad c #cce2fc",
"ae c #ac1e0c",
"af c #107e0c",
"ag c #6cb257",
"ah c #dce2e7",
"ai c #d4be3c",
"aj c #d41c1c",
"ak c #b4860c",
"al c #e4c42c",
"am c #64b240",
"an c #3c8a24",
"ao c #3c931f",
"ap c #7cae74",
"aq c #c49a24",
"ar c #2c7d17",
"as c #dc1604",
"at c #5c9f41",
"au c #547097",
"av c #ec5527",
"aw c #ec724c",
"ax c #ec4a1c",
"ay c #ac7e28",
"az c #f47a50",
"aA c #a4c69c",
"aB c #24ae24",
"aC c #4cba4c",
"aD c #84b27c",
"aE c #cc524c",
"aF c #44aa1c",
"aG c #dc2e2c",
"aH c #bc1e0c",
"aI c #a4710f",
"aJ c #acc7e0",
"aK c #249e1c",
"aL c #6486ac",
"aM c #dc3416",
"aN c #cc1614",
"aO c #4c9a2c",
"aP c #9cb9d2",
"aQ c #eceaec",
"aR c #849ebc",
"aS c #44862c",
"aT c #d4e9fc",
"aU c #3c9c1c",
"aV c #1c8a14",
"aW c #dc2c10",
"aX c #7492b4",
"aY c #647a9c",
"aZ c #9cba94",
"a0 c #ecce44",
"a1 c #54964c",
"a2 c #fce24c",
"a3 c #fcf6ac",
"a4 c #e42204",
"a5 c #4cb63c",
"a6 c #f4d23c",
"a7 c #dcba24",
"a8 c #d41214",
/* pixels */
"`h`h`h`h`h`haR`y.O..`h`h`h`h`h`h`h`h`h`h`h`h`h`h`h`h`h`h`h`h`h`h`h`h`h`h`h`h`h`h`h`h`h`h`h`h`h`h`h`h`h`h`h`h`h`h`h`h`h`h`h`h`h`h`h`h`h`h`h`h`h`h`h`h`h`h`h`h`h`h",
"`h`h`h`haLaP`T.b.X.N`Pau`h`h`h`h`h`h`h`h`h`haC`f`v.Y`h`h`h`h`h`h`h`h`h`h`h`h#e#X#XaE`h`h`h`h`h`h`h`h`h`h`h`h.payay.p`h`h`h`h`h`h`h`h`h`h`h`h.Y`v`v.Y`h`h`h`h`h`h",
"`h`h`haXah.b#y.X#2.X#L.Nau`h`h`h`h`h`h`h`f`x`7#Z#d.w#1.r`h`h`h`h`h`h`h`h#X#i#3#a.j.a#I`K`h`h`h`h`h`h`h`hay`N`g.va3#N.Fay`h`h`h`h`h`h`h`h`v.Vag#t#t.2#J.r`h`h`h`h",
"`h`haLah.b.X.X````#2aTaTaJ##`h`h`h`h`haB#d#b#d.7.w.2`W.L#``h`h`h`h`h`h#P.j#Y#l`i#saz#s.#.I`h`h`h`h`h`h.s#z.v.v`r.q.q.q`M`#`h`h`h`h`h`haK.B.z#Rat.Mam`W`L.r`h`h`h",
"`h`h#O.b.X.X#2````aTaTad.N.G`h`h`h`h`f`a`7.w.2`k.V`z#7`z.n.o`h`h`h`h#X#3#a#h#w#y#y.6.P.QaMaN`h`h`h`hay#z.va3.q`s`s.f.u.ua0aI`h`h`h`h`v.B#R`q`R#C`lao#7aF.T.o`h`h",
"`haR`T.X.X#2aTaTaT.h.h.i`3`PaY`h`h`h.Y`a.W`2`Zao`l`l`I.K`B#``h`h`h`haE#l`i#s#n#y#ya4#x#4`H.I`h`h`h`h`N.v`r.q.f`s`s`8`8a2.1aq`h`h`h`h.L.BaS#T#g#B#qar`l`B.naV`h`h",
"`haL.X.X#2#2``````.had.i#raPa.`h`h.Y.2agaO`l.Harar.S.b#f.K`U#q`h`h#e.A#h#s.P#F#y#yas#4aM.R.k.Q`h`h.p`E`r.q.f.f`s`s`8a2a2a6#U#H`h`h.Yagat#C#T`6.baQ#T.d.H.K.K#q`h",
"`h.O#2#2#2aTaT````.h.i`3aJ.0.8`h`h`v.W`2an`FaDar.S.baQaD.H.K#M`h`h#X`iaz`Dava4#y#yasaMaM.kaHaj`h`hay.q.q.q.f`8`s`saa`n.Ja0a7.C`h`h`v.W`2ar#TaQ.b#y.bah#o.K`U#M`h",
"`haX.N#LaTaT.h````.i.i#SaPaRa#`h`h`v`k`ZaD.b.b`F.b.baD`V.K`U#k`h`h#X#s#wavax.g#y#y.4aW.E.k`jas`h`hay.q.q.f`8`8`s`saa`n.Jal#UaI`h`h`vam`Zar#TaQ#y#y#y`Jac`A`U#k`h",
"`h`h`PaTad.h.h````.i`3`o.0au`h`h`h#1`z`ZaraA.b.b.bap`V.K`U`A.d`h`h`e.6avax.caM`t`taWaW.k.y.y#x`h`h#H`M.f`8`8.uaa`n`n.J.ta7#V.s`h`h#J.L`Zar#T`6#y#y.Sar`A`A`V.d`h",
"`h`hau.l.N`3````````#SaP...D`h`h`h`h#KaU`laraA.bap`V`A`U`U.o`h`h`h`h.m.c#4#4aW#y#y`0.kaH`1#u`h`h`h`h.F.u.ua2a2`s`s.J`S.3`wak`h`h`h`h#Kao.H#TaQ#jaS`V`A.H`U.o`h`h",
"`h`h`hau.5.laJaJ#S#S`o`5.8`h`h`h`h`h.r.n`B.Har#R`V.K`U`U#``p`h`h`h`h`K#6#6#6.4#y#yabaH`1#5.U`h`h`h`h.e#E.1.1.1`s`s.t#G`w`OaI`h`h`h`h`.`B.H#m`c`V.H`A.K`U#``p`h`h",
"`h`h`h`h###v`P#OaP.5aP.0.D`h`h`h`h`h`h#``B.K.K`A.K`U`U#``G`h`h`h`h`h`h.I.R.R.R`b`b.y`1#5.U`h`h`h`h`h`hayai`dal#G#G`X`w`OaI`h`h`h`h`h`h#`.K.H.H.H`U`U`U#``G`h`h`h",
"`h`h`h`h`h`ha#a`a#...0`P#.`h`h`h`h`h`h`h.o#`.H`U`A`A.o`p`h`h`h`h`h`h`h`haNaHaeae`1`1#u.U`h`h`h`h`h`h`h`h.C#c.Z`w`w`OakaI`h`h`h`h`h`h`h`h.o#`.H`A`A`A.o`p`h`h`h`h",
"`h`h`h`h`h`h`h`h`haua.#v#.`h`h`h`h`h`h`h`h`h.x`G`G`V`h`h`h`h`h`h`h`h`h`h`h`h`4a8a8aG`h`h`h`h`h`h`h`h`h`h`h`h#A`maIay`h`h`h`h`h`h`h`h`h`h`h`har#k`G`V`h`h`h`h`h`h",
"`h`h`h`h`h`h`h`h`h`h`h#D`h`h`h`h`h`h`h`h`h`h`h`h`h`h`h`h`h`h`h`h`h`h`h`h`h`h`h`h`h`h`h`h`h`h`h`h`h`h`h`h`h`h`h`h`h`h`h`h`h`h`h`h`h`h`h`h`h`h`h`h`h`h`h`h`h`h`h`h"
};
