/* XPM */
static char * layers_xpm[] = {
"16 16 97 2",
"  	c None",
". 	c #D26607",
"+ 	c #E69523",
"@ 	c #E69725",
"# 	c #D26807",
"$ 	c #D36606",
"% 	c #DE8018",
"& 	c #F8BC3F",
"* 	c #FCCA46",
"= 	c #FCCE47",
"- 	c #F9CA43",
"; 	c #E08E1E",
"> 	c #D36506",
", 	c #D7700D",
"' 	c #F4AC36",
") 	c #FCC244",
"! 	c #FCC645",
"~ 	c #FCD248",
"{ 	c #FCD649",
"] 	c #F6CA41",
"^ 	c #DC8317",
"/ 	c #D26908",
"( 	c #CF5E01",
"_ 	c #E4871E",
": 	c #FCBA41",
"< 	c #FCBE42",
"[ 	c #FCDA4B",
"} 	c #FCDE4C",
"| 	c #E49C25",
"1 	c #CF5F02",
"2 	c #D36406",
"3 	c #DB7612",
"4 	c #F5B038",
"5 	c #F2C03B",
"6 	c #D7750E",
"7 	c #D16205",
"8 	c #DE7D17",
"9 	c #EF9F2E",
"0 	c #D97410",
"a 	c #E1861C",
"b 	c #F7C440",
"c 	c #DE871A",
"d 	c #DB8116",
"e 	c #F3C53E",
"f 	c #E29621",
"g 	c #D06002",
"h 	c #D36507",
"i 	c #E89024",
"j 	c #FBBC41",
"k 	c #EEA22F",
"l 	c #D7710E",
"m 	c #E49122",
"n 	c #E49221",
"o 	c #D8750F",
"p 	c #F0B535",
"q 	c #FAD447",
"r 	c #E39622",
"s 	c #D46307",
"t 	c #D56B0B",
"u 	c #E1831A",
"v 	c #D76F0D",
"w 	c #EC9F2D",
"x 	c #FBC544",
"y 	c #EA9F2B",
"z 	c #EAA22B",
"A 	c #FBD046",
"B 	c #EAA62C",
"C 	c #D6730E",
"D 	c #E59E26",
"E 	c #DA8015",
"F 	c #D16807",
"G 	c #D26405",
"H 	c #DA7310",
"I 	c #F4AB36",
"J 	c #F8B63D",
"K 	c #E2881E",
"L 	c #D8740F",
"M 	c #F0AD33",
"N 	c #EFAE33",
"O 	c #E49623",
"P 	c #EFBA37",
"Q 	c #D56F0B",
"R 	c #D36A07",
"S 	c #D26506",
"T 	c #F7B63C",
"U 	c #F6B83C",
"V 	c #DE8319",
"W 	c #DF851A",
"X 	c #F7C540",
"Y 	c #F4C13D",
"Z 	c #D87911",
"` 	c #E0881D",
" .	c #F9C241",
"..	c #F8C441",
"+.	c #DE861B",
"@.	c #D26606",
"#.	c #D26707",
"                                ",
"                                ",
"            . + @ #             ",
"        $ % & * = - ; #         ",
"    > , ' ) ! * = ~ { ] ^ /     ",
"  ( _ : < ) ! * = ~ { [ } | 1   ",
"    2 3 4 ) ! * = ~ { 5 6 #     ",
"  7 8 9 0 a & * = b c d e f g   ",
"    h i j k l m n o p q r #     ",
"  s t u v w x y z A B C D E F   ",
"  G H I J K L M N o O q P Q R   ",
"      S 8 T U V W X Y Z #       ",
"          S `  ...+.@.          ",
"              @.#.              ",
"                                ",
"                                "};
