/* XPM */
static const char *close_16a_xpm[] = {
/* width height num_colors chars_per_pixel */
"    16    16      256            2",
/* colors */
"`` c None",
"`. c #cad0d1",
"`# c #b3c1c5",
"`a c #b9bec4",
"`b c #b8c1c2",
"`c c #b8c4c9",
"`d c #bfc3c9",
"`e c #c3cace",
"`f c #b2979b",
"`g c #b27d7d",
"`h c #b36c6c",
"`i c #b76f6d",
"`j c #b77e7f",
"`k c #c09fa2",
"`l c #c5c4c1",
"`m c #d3d9d8",
"`n c #dee0e2",
"`o c #bbb4ba",
"`p c #9b4e4d",
"`q c #8d0002",
"`r c #a6191a",
"`s c #b94647",
"`t c #b44043",
"`u c #b7413f",
"`v c #b9484b",
"`w c #c07278",
"`x c #c6b2b2",
"`y c #cdd7d9",
"`z c #b7bab9",
"`A c #99323b",
"`B c #940000",
"`C c #9e0a09",
"`D c #960000",
"`E c #aa2422",
"`F c #b84d4b",
"`G c #b03d39",
"`H c #af3a3a",
"`I c #b33b3b",
"`J c #c06264",
"`K c #c2b2b1",
"`L c #d6d7dc",
"`M c #c7cbd3",
"`N c #a45d5e",
"`O c #900000",
"`P c #9f1d1e",
"`Q c #b19596",
"`R c #b06465",
"`S c #930000",
"`T c #b32d2a",
"`U c #b75257",
"`V c #e5d1d0",
"`W c #cd898b",
"`X c #b23e3f",
"`Y c #c07376",
"`Z c #c2bfc1",
"`0 c #cdd3d2",
"`1 c #b4abaa",
"`2 c #971111",
"`3 c #990101",
"`4 c #a14f4d",
"`5 c #aec3be",
"`6 c #b3b8bc",
"`7 c #ad5a5a",
"`8 c #9e272a",
".` c #e8d9d8",
".. c #faffff",
".# c #ebe1e2",
".a c #b13c3d",
".b c #b95050",
".c c #c19b9d",
".d c #c9d0d0",
".e c #b1c2bf",
".f c #ab7c7f",
".g c #9b0704",
".h c #970203",
".i c #a46a66",
".j c #acb9ba",
".k c #acaead",
".l c #c3b4b7",
".m c #edf2f4",
".n c #ebe4e4",
".o c #b65a58",
".p c #af3233",
".q c #b74648",
".r c #c08181",
".s c #a9b6b5",
".t c #a2b6b5",
".u c #a95f61",
".v c #9d0000",
".w c #a00408",
".x c #a10607",
".y c #950000",
".z c #a46e6b",
".A c #acb1b1",
".B c #acaaaa",
".C c #cfc8c9",
".D c #bf5d62",
".E c #b23735",
".F c #b33f3d",
".G c #b54042",
".H c #be7678",
".I c #a1a7a8",
".J c #af6667",
".K c #a80000",
".L c #af0c0b",
".M c #a40000",
".N c #a41a1b",
".O c #c4a9ab",
".P c #bdbdbe",
".Q c #a9b2b2",
".R c #b3b3b8",
".S c #c18883",
".T c #b9393d",
".U c #ac3f3d",
".V c #b74341",
".W c #c17578",
".X c #a6a7ab",
".Y c #a1b1b0",
".Z c #b98a89",
".0 c #bc0305",
".1 c #be0b08",
".2 c #bd262a",
".3 c #e8ccca",
".4 c #f3ffff",
".5 c #cfbebc",
".6 c #a87774",
".7 c #b4bebe",
".8 c #cacecc",
"#` c #c48a8b",
"#. c #b23e43",
"## c #bc4a48",
"#a c #c18589",
"#b c #afbbba",
"#c c #b1b4b4",
"#d c #b5adae",
"#e c #cd383a",
"#f c #cc0d10",
"#g c #cc6b67",
"#h c #fcffff",
"#i c #eddddb",
"#j c #a82e2d",
"#k c #910000",
"#l c #ab6f6a",
"#m c #c9d5d7",
"#n c #cec4c3",
"#o c #b84947",
"#p c #c1585b",
"#q c #bea3a7",
"#r c #d7dddb",
"#s c #acaeb4",
"#t c #cd948f",
"#u c #e23b3a",
"#v c #d62d2e",
"#w c #d17476",
"#x c #be363b",
"#y c #a20202",
"#z c #9c100e",
"#A c #c79393",
"#B c #bb6468",
"#C c #b74748",
"#D c #c48387",
"#E c #c1bfc4",
"#F c #d1d0d1",
"#G c #a4a9aa",
"#H c #e69097",
"#I c #e84043",
"#J c #cc1816",
"#K c #c30b07",
"#L c #b40f0e",
"#M c #9e0303",
"#N c #ac2528",
"#O c #bb4d4e",
"#P c #bc4945",
"#Q c #c57a7d",
"#R c #beb2b5",
"#S c #c4c2c4",
"#T c #a2a9a9",
"#U c #cf9493",
"#V c #d53f40",
"#W c #c3080a",
"#X c #ae0000",
"#Y c #9c0000",
"#Z c #b53335",
"#0 c #c36e6b",
"#1 c #c58a92",
"#2 c #bab3b4",
"#3 c #d8e1de",
"#4 c #d1d0d0",
"#5 c #a0abac",
"#6 c #aca7a5",
"#7 c #b78285",
"#8 c #a96160",
"a` c #a15c5b",
"a. c #bd8e8d",
"a# c #baa9a9",
"aa c #bbc0c3",
"ab c #c1c2c1",
"ac c #9fada9",
"ad c #9ca5a7",
"ae c #9da8aa",
"af c #aabab8",
"ag c #d3dad6",
"ah c #000000",
"ai c #000000",
"aj c #000000",
"ak c #000000",
"al c #000000",
"am c #000000",
"an c #000000",
"ao c #000000",
"ap c #000000",
"aq c #000000",
"ar c #000000",
"as c #000000",
"at c #000000",
"au c #000000",
"av c #000000",
"aw c #000000",
"ax c #000000",
"ay c #000000",
"az c #000000",
"aA c #000000",
"aB c #000000",
"aC c #000000",
"aD c #000000",
"aE c #000000",
"aF c #000000",
"aG c #000000",
"aH c #000000",
"aI c #000000",
"aJ c #000000",
"aK c #000000",
"aL c #000000",
"aM c #000000",
"aN c #000000",
"aO c #000000",
"aP c #000000",
"aQ c #000000",
"aR c #000000",
"aS c #000000",
"aT c #000000",
"aU c #000000",
"aV c #000000",
"aW c #000000",
"aX c #000000",
"aY c #000000",
"aZ c #000000",
"a0 c #000000",
"a1 c #000000",
"a2 c #000000",
"a3 c #000000",
"a4 c #000000",
"a5 c #000000",
"a6 c #000000",
"a7 c #000000",
"a8 c #000000",
/* pixels */
"```````````.`#`a`b`c`d``````````",
"`````````e`f`g`h`i`j`k`l`m``````",
"`````n`o`p`q`r`s`t`u`v`w`x`y````",
"`````z`A`B`C`D`E`F`G`H`I`J`K`L``",
"```M`N`O`P`Q`R`S`T`U`V`W`X`Y`Z``",
"`0`1`2`3`4`5`6`7`8.`...#.a.b.c.d",
".e.f`B.g.h.i.j.k.l.m.n.o.p.q.r.s",
".t.u.v.w.x.y.z.A.B.C.D.E.F.G.H.I",
".t.J.K.L.M.N.O.P.Q.R.S.T.U.V.W.X",
".Y.Z.0.1.2.3.4.5.6.7.8#`#.###a#b",
"#c#d#e#f#g#h#i#j#k#l#m#n#o#p#q#r",
"``#s#t#u#v#w#x.K#y#z#A#B#C#D#E``",
"``#F#G#H#I#J#K#L#M#N#O#P#Q#R````",
"````#S#T#U#V#W#X#Y#Z#0#1#2#3````",
"``````#4#5#6#7#8a`a.a#aa````````",
"``````````abacadaeafag``````````"
};
