/* XPM */
static const char *default_16_xpm[] = {
/* width height num_colors chars_per_pixel */
"    16    16      256            2",
/* colors */
"`` c None",
"`. c #9b9cdd",
"`# c #b6b7e1",
"`a c #797dce",
"`b c #7271bd",
"`c c #adaae2",
"`d c #9e9fdb",
"`e c #7d82d0",
"`f c #6f6eb9",
"`g c #c4c4e7",
"`h c #9594d9",
"`i c #babaf2",
"`j c #a8a9ed",
"`k c #8689dd",
"`l c #767cd6",
"`m c #6c6bc2",
"`n c #7171c0",
"`o c #8e90dd",
"`p c #a6a4e5",
"`q c #a8a8f0",
"`r c #6d6aaa",
"`s c #67678e",
"`t c #6b6b99",
"`u c #5655b1",
"`v c #35346c",
"`w c #8687d3",
"`x c #8d8fe0",
"`y c #434373",
"`z c #ebebef",
"`A c #dddce6",
"`B c #6d6dcd",
"`C c #8687dc",
"`D c #7674c0",
"`E c #5c5b91",
"`F c #c6c5d4",
"`G c #9697c9",
"`H c #6262c4",
"`I c #545698",
"`J c #484882",
"`K c #696dc0",
"`L c #5d60bb",
"`M c #656cbe",
"`N c #6e6fda",
"`O c #8184b1",
"`P c #535493",
"`Q c #6561b1",
"`R c #3b3b6f",
"`S c #525195",
"`T c #696a9d",
"`U c #5e5f99",
"`V c #b2b5d2",
"`W c #000000",
"`X c #000000",
"`Y c #000000",
"`Z c #000000",
"`0 c #000000",
"`1 c #000000",
"`2 c #000000",
"`3 c #000000",
"`4 c #000000",
"`5 c #000000",
"`6 c #000000",
"`7 c #000000",
"`8 c #000000",
".` c #000000",
".. c #000000",
".# c #000000",
".a c #000000",
".b c #000000",
".c c #000000",
".d c #000000",
".e c #000000",
".f c #000000",
".g c #000000",
".h c #000000",
".i c #000000",
".j c #000000",
".k c #000000",
".l c #000000",
".m c #000000",
".n c #000000",
".o c #000000",
".p c #000000",
".q c #000000",
".r c #000000",
".s c #000000",
".t c #000000",
".u c #000000",
".v c #000000",
".w c #000000",
".x c #000000",
".y c #000000",
".z c #000000",
".A c #000000",
".B c #000000",
".C c #000000",
".D c #000000",
".E c #000000",
".F c #000000",
".G c #000000",
".H c #000000",
".I c #000000",
".J c #000000",
".K c #000000",
".L c #000000",
".M c #000000",
".N c #000000",
".O c #000000",
".P c #000000",
".Q c #000000",
".R c #000000",
".S c #000000",
".T c #000000",
".U c #000000",
".V c #000000",
".W c #000000",
".X c #000000",
".Y c #000000",
".Z c #000000",
".0 c #000000",
".1 c #000000",
".2 c #000000",
".3 c #000000",
".4 c #000000",
".5 c #000000",
".6 c #000000",
".7 c #000000",
".8 c #000000",
"#` c #000000",
"#. c #000000",
"## c #000000",
"#a c #000000",
"#b c #000000",
"#c c #000000",
"#d c #000000",
"#e c #000000",
"#f c #000000",
"#g c #000000",
"#h c #000000",
"#i c #000000",
"#j c #000000",
"#k c #000000",
"#l c #000000",
"#m c #000000",
"#n c #000000",
"#o c #000000",
"#p c #000000",
"#q c #000000",
"#r c #000000",
"#s c #000000",
"#t c #000000",
"#u c #000000",
"#v c #000000",
"#w c #000000",
"#x c #000000",
"#y c #000000",
"#z c #000000",
"#A c #000000",
"#B c #000000",
"#C c #000000",
"#D c #000000",
"#E c #000000",
"#F c #000000",
"#G c #000000",
"#H c #000000",
"#I c #000000",
"#J c #000000",
"#K c #000000",
"#L c #000000",
"#M c #000000",
"#N c #000000",
"#O c #000000",
"#P c #000000",
"#Q c #000000",
"#R c #000000",
"#S c #000000",
"#T c #000000",
"#U c #000000",
"#V c #000000",
"#W c #000000",
"#X c #000000",
"#Y c #000000",
"#Z c #000000",
"#0 c #000000",
"#1 c #000000",
"#2 c #000000",
"#3 c #000000",
"#4 c #000000",
"#5 c #000000",
"#6 c #000000",
"#7 c #000000",
"#8 c #000000",
"a` c #000000",
"a. c #000000",
"a# c #000000",
"aa c #000000",
"ab c #000000",
"ac c #000000",
"ad c #000000",
"ae c #000000",
"af c #000000",
"ag c #000000",
"ah c #000000",
"ai c #000000",
"aj c #000000",
"ak c #000000",
"al c #000000",
"am c #000000",
"an c #000000",
"ao c #000000",
"ap c #000000",
"aq c #000000",
"ar c #000000",
"as c #000000",
"at c #000000",
"au c #000000",
"av c #000000",
"aw c #000000",
"ax c #000000",
"ay c #000000",
"az c #000000",
"aA c #000000",
"aB c #000000",
"aC c #000000",
"aD c #000000",
"aE c #000000",
"aF c #000000",
"aG c #000000",
"aH c #000000",
"aI c #000000",
"aJ c #000000",
"aK c #000000",
"aL c #000000",
"aM c #000000",
"aN c #000000",
"aO c #000000",
"aP c #000000",
"aQ c #000000",
"aR c #000000",
"aS c #000000",
"aT c #000000",
"aU c #000000",
"aV c #000000",
"aW c #000000",
"aX c #000000",
"aY c #000000",
"aZ c #000000",
"a0 c #000000",
"a1 c #000000",
"a2 c #000000",
"a3 c #000000",
"a4 c #000000",
"a5 c #000000",
"a6 c #000000",
"a7 c #000000",
"a8 c #000000",
/* pixels */
"````````````````````````````````",
"```````````````````.`#```a`b````",
"```````````````````c`d`e`a`f````",
"```````````````g`h`i`j`k`l`m`n`b",
"```````````````o`p`q`r`s`t`m`u`v",
"`````````````````w`x`y`z`A`B`u``",
"`````.`#```a`b`C`D`C`E`F`G`H`u`u",
"`````c`d`e`a`f`I`J`K`L`M`N`H`O`v",
"`g`h`i`j`k`l`m`n`b`P`Q`R`S`R````",
"`o`p`q`r`s`t`m`u`v`T`U```V`S````",
"```w`x`y`z`A`B`u````````````````",
"`C`D`C`E`F`G`H`u`u``````````````",
"`I`J`K`L`M`N`H`O`v``````````````",
"`````P`Q`R`S`R``````````````````",
"`````T`U```V`S``````````````````",
"````````````````````````````````"
};
