/* XPM */
static const char *doc_16_xpm[] = {
/* width height num_colors chars_per_pixel */
"    16    16      256            2",
/* colors */
"`` c None",
"`. c #c0c0c0",
"`# c #c4e6f2",
"`a c #c7e7f2",
"`b c #cbe9f3",
"`c c #ceeaf4",
"`d c #d2ecf5",
"`e c #d6edf6",
"`f c #d8eef6",
"`g c #dcf0f7",
"`h c #c9cecf",
"`i c #bababa",
"`j c #bfbfbf",
"`k c #c3e6f1",
"`l c #cae9f3",
"`m c #d9eff7",
"`n c #c4cdd0",
"`o c #f6f6f6",
"`p c #bbbbbb",
"`q c #bdbdbd",
"`r c #c3e5f1",
"`s c #c6e7f2",
"`t c #cae8f3",
"`u c #d5edf5",
"`v c #bdcacf",
"`w c #bcc4c7",
"`x c #bbbec0",
"`y c #bcbcbc",
"`z c #c3e5f0",
"`A c #c6e6f1",
"`B c #cae8f2",
"`C c #cee9f3",
"`D c #d1ebf4",
"`E c #e0f1f8",
"`F c #d7e5ec",
"`G c #d8e4ea",
"`H c #c2e4f0",
"`I c #c9e8f2",
"`J c #cde9f3",
"`K c #d5ecf5",
"`L c #dceff7",
"`M c #dff1f7",
"`N c #e3f2f9",
"`O c #e7f4f9",
"`P c #b8b8b8",
"`Q c #c2e4ef",
"`R c #c5e5f0",
"`S c #c9e7f1",
"`T c #cde8f3",
"`U c #d1eaf4",
"`V c #d5ecf4",
"`W c #b5b5b5",
"`X c #c1e3ef",
"`Y c #cce8f2",
"`Z c #d0eaf3",
"`0 c #d4ebf4",
"`1 c #d7edf5",
"`2 c #dbeff6",
"`3 c #dff0f7",
"`4 c #e3f2f8",
"`5 c #b3b3b3",
"`6 c #c4e4ef",
"`7 c #c8e6f0",
"`8 c #dbeef6",
".` c #e3f1f8",
".. c #e6f3f9",
".# c #b1b1b1",
".a c #c1e2ee",
".b c #cce7f1",
".c c #cfe9f2",
".d c #d3eaf3",
".e c #d7ecf5",
".f c #dbeef5",
".g c #def0f6",
".h c #e2f1f8",
".i c #e6f3f8",
".j c #adadad",
".k c #c0e2ee",
".l c #c3e3ef",
".m c #c7e5ef",
".n c #cbe7f1",
".o c #d6ecf4",
".p c #daedf5",
".q c #deeff6",
".r c #e2f1f7",
".s c #e6f2f8",
".t c #acacac",
".u c #c0e1ed",
".v c #c3e3ee",
".w c #cbe6f0",
".x c #cfe8f1",
".y c #d3e9f2",
".z c #d6ebf4",
".A c #deeff5",
".B c #e1f0f7",
".C c #e5f2f8",
".D c #9d9d9d",
".E c #bfe1ed",
".F c #c3e2ee",
".G c #c7e4ef",
".H c #cae6f0",
".I c #cee8f1",
".J c #d2e9f2",
".K c #d5ebf3",
".L c #d9ecf4",
".M c #ddeef5",
".N c #e1f0f6",
".O c #e5f2f7",
".P c #909090",
".Q c #c2e2ed",
".R c #c6e4ee",
".S c #cae5f0",
".T c #cee7f0",
".U c #d2e9f1",
".V c #d5eaf3",
".W c #e1eff6",
".X c #e5f1f7",
".Y c #868686",
".Z c #bfe0ec",
".0 c #cae5ef",
".1 c #cde7f0",
".2 c #d1e8f1",
".3 c #d5eaf2",
".4 c #d9ebf3",
".5 c #dcedf4",
".6 c #e0eff6",
".7 c #e4f1f6",
".8 c #797979",
"#` c #000000",
"#. c #000000",
"## c #000000",
"#a c #000000",
"#b c #000000",
"#c c #000000",
"#d c #000000",
"#e c #000000",
"#f c #000000",
"#g c #000000",
"#h c #000000",
"#i c #000000",
"#j c #000000",
"#k c #000000",
"#l c #000000",
"#m c #000000",
"#n c #000000",
"#o c #000000",
"#p c #000000",
"#q c #000000",
"#r c #000000",
"#s c #000000",
"#t c #000000",
"#u c #000000",
"#v c #000000",
"#w c #000000",
"#x c #000000",
"#y c #000000",
"#z c #000000",
"#A c #000000",
"#B c #000000",
"#C c #000000",
"#D c #c442a8",
"#E c #000000",
"#F c #c4461c",
"#G c #000000",
"#H c #c46e88",
"#I c #000000",
"#J c #c46d20",
"#K c #000000",
"#L c #c46bc4",
"#M c #000000",
"#N c #c46b14",
"#O c #000000",
"#P c #c45960",
"#Q c #000000",
"#R c #c457cc",
"#S c #000000",
"#T c #c45620",
"#U c #000000",
"#V c #c45460",
"#W c #000000",
"#X c #000000",
"#Y c #000000",
"#Z c #000000",
"#0 c #000000",
"#1 c #000000",
"#2 c #000000",
"#3 c #000000",
"#4 c #000000",
"#5 c #000000",
"#6 c #000000",
"#7 c #000000",
"#8 c #000000",
"a` c #000000",
"a. c #000000",
"a# c #000000",
"aa c #000000",
"ab c #000000",
"ac c #000000",
"ad c #000000",
"ae c #000000",
"af c #000000",
"ag c #000000",
"ah c #000000",
"ai c #000000",
"aj c #000000",
"ak c #000000",
"al c #00069c",
"am c #000013",
"an c #000000",
"ao c #000001",
"ap c #0006ac",
"aq c #0000e7",
"ar c #000000",
"as c #c47504",
"at c #000000",
"au c #c45f3c",
"av c #000000",
"aw c #c45e8c",
"ax c #000000",
"ay c #c45a10",
"az c #000000",
"aA c #c442a8",
"aB c #000000",
"aC c #c4461c",
"aD c #000000",
"aE c #c46e88",
"aF c #000000",
"aG c #c46d20",
"aH c #000000",
"aI c #c46bc4",
"aJ c #000000",
"aK c #c46b14",
"aL c #000000",
"aM c #c45960",
"aN c #000000",
"aO c #c457cc",
"aP c #000000",
"aQ c #c45620",
"aR c #000000",
"aS c #c45460",
"aT c #000000",
"aU c #000000",
"aV c #000000",
"aW c #000000",
"aX c #000000",
"aY c #000000",
"aZ c #000000",
"a0 c #000000",
"a1 c #000000",
"a2 c #000000",
"a3 c #000000",
"a4 c #000000",
"a5 c #000000",
"a6 c #000000",
"a7 c #000000",
"a8 c #000000",
/* pixels */
"```.`.`.`.`.`.`.`.`.`.``````````",
"```.`#`a`b`c`d`e`f`g`h`i````````",
"```j`k`a`l`c`d`e`m`g`n`o`p``````",
"```q`r`s`t`c`d`u`m`g`v`w`x`i````",
"```y`z`A`B`C`D`u`f`g`E`F`G`i````",
"```i`H`A`I`J`D`K`f`L`M`N`O`P````",
"```P`Q`R`S`T`U`V`f`L`M`N`O`P````",
"```W`X`R`S`Y`Z`0`1`2`3`4`O`W````",
"```5`X`6`7`Y`Z`0`1`8`3.`..`5````",
"``.#.a`6`7.b.c.d.e.f.g.h.i.#````",
"``.j.k.l.m.n.c.d.o.p.q.r.s.j````",
"``.t.u.v.m.w.x.y.z.p.A.B.C.t````",
"``.D.E.F.G.H.I.J.K.L.M.N.O.D````",
"``.P.E.Q.R.S.T.U.V.L.M.W.X.P````",
"``.Y.Z.Q.R.0.1.2.3.4.5.6.7.Y````",
"``.8.8.8.8.8.8.8.8.8.8.8.8.8````"
};
