/* XPM */
static const char *dxf_dset_16_xpm[] = {
/* width height num_colors chars_per_pixel */
"    16    16      256            2",
/* colors */
"`` c None",
"`. c #969696",
"`# c #878787",
"`a c #9a9a9a",
"`b c #909090",
"`c c #656565",
"`d c #7b7b7b",
"`e c #888888",
"`f c #d3d3d3",
"`g c #838383",
"`h c #2b3785",
"`i c #222f8b",
"`j c #2a3682",
"`k c #2a3681",
"`l c #29357f",
"`m c #29357e",
"`n c #29347c",
"`o c #28347b",
"`p c #616161",
"`q c #c3c3c3",
"`r c #575757",
"`s c #9d9d9d",
"`t c #828282",
"`u c #868c95",
"`v c #dce2f2",
"`w c #152384",
"`x c #dbe1f2",
"`y c #dae1f2",
"`z c #dae0f2",
"`A c #dae0f1",
"`B c #d9e0f1",
"`C c #d9dff1",
"`D c #69717d",
"`E c #525252",
"`F c #777777",
"`G c #313f9b",
"`H c #222a61",
"`I c #d8dff1",
"`J c #d8def1",
"`K c #273276",
"`L c #303e97",
"`M c #232b64",
"`N c #242c65",
"`O c #242d69",
"`P c #252e6d",
"`Q c #263071",
"`R c #d7def1",
"`S c #d7def0",
"`T c #d6ddf0",
"`U c #060e46",
"`V c #d7ddf0",
"`W c #07104a",
"`X c #d7ddf1",
"`Y c #d6dcf0",
"`Z c #d5dcf0",
"`0 c #09114f",
"`1 c #d5ddf0",
"`2 c #d4dcf0",
"`3 c #0a1353",
"`4 c #d4dbef",
"`5 c #0b1459",
"`6 c #3c3c3c",
"`7 c #454a52",
"`8 c #0c155d",
".` c #d4dbf0",
".. c #d3dbef",
".# c #2a3241",
".a c #0a0a0a",
".b c #2f2f2f",
".c c #393939",
".d c #b6b6b6",
".e c #2f2f30",
".f c #253074",
".g c #242e72",
".h c #222d6f",
".i c #212b6d",
".j c #1f2a6b",
".k c #1e2869",
".l c #1d2767",
".m c #1b2565",
".n c #090909",
".o c #a5a5a5",
".p c #030303",
".q c #5a5a5a",
".r c #2d2d2d",
".s c #474747",
".t c #010101",
".u c #3b3b3b",
".v c #000000",
".w c #000000",
".x c #000000",
".y c #000000",
".z c #000000",
".A c #000000",
".B c #000000",
".C c #000000",
".D c #000000",
".E c #000000",
".F c #000000",
".G c #000000",
".H c #000000",
".I c #000000",
".J c #000000",
".K c #000000",
".L c #000000",
".M c #000000",
".N c #000000",
".O c #000000",
".P c #000000",
".Q c #000000",
".R c #000000",
".S c #000000",
".T c #000000",
".U c #000000",
".V c #000000",
".W c #000000",
".X c #000000",
".Y c #000000",
".Z c #000000",
".0 c #000000",
".1 c #000000",
".2 c #000000",
".3 c #000000",
".4 c #000000",
".5 c #000000",
".6 c #000000",
".7 c #000000",
".8 c #000000",
"#` c #000000",
"#. c #000000",
"## c #000000",
"#a c #000000",
"#b c #000000",
"#c c #000000",
"#d c #000000",
"#e c #000000",
"#f c #000000",
"#g c #000000",
"#h c #000000",
"#i c #000000",
"#j c #000000",
"#k c #000000",
"#l c #000000",
"#m c #000000",
"#n c #000000",
"#o c #000000",
"#p c #000000",
"#q c #000000",
"#r c #000000",
"#s c #000000",
"#t c #000000",
"#u c #000000",
"#v c #000000",
"#w c #000000",
"#x c #000000",
"#y c #000000",
"#z c #000000",
"#A c #000000",
"#B c #000000",
"#C c #000000",
"#D c #000000",
"#E c #000000",
"#F c #000000",
"#G c #000000",
"#H c #000000",
"#I c #000000",
"#J c #000000",
"#K c #000000",
"#L c #000000",
"#M c #000000",
"#N c #000000",
"#O c #000000",
"#P c #000000",
"#Q c #000000",
"#R c #000000",
"#S c #000000",
"#T c #000000",
"#U c #000000",
"#V c #000000",
"#W c #000000",
"#X c #000000",
"#Y c #000000",
"#Z c #000000",
"#0 c #000000",
"#1 c #000000",
"#2 c #000000",
"#3 c #000000",
"#4 c #000000",
"#5 c #000000",
"#6 c #000000",
"#7 c #000000",
"#8 c #000000",
"a` c #000000",
"a. c #000000",
"a# c #000000",
"aa c #000000",
"ab c #000000",
"ac c #000000",
"ad c #000000",
"ae c #000000",
"af c #000000",
"ag c #000000",
"ah c #000000",
"ai c #000000",
"aj c #000000",
"ak c #000000",
"al c #000000",
"am c #000000",
"an c #000000",
"ao c #000000",
"ap c #000000",
"aq c #000000",
"ar c #000000",
"as c #000000",
"at c #000000",
"au c #000000",
"av c #000000",
"aw c #000000",
"ax c #000000",
"ay c #000000",
"az c #000000",
"aA c #000000",
"aB c #000000",
"aC c #000000",
"aD c #000000",
"aE c #000000",
"aF c #000000",
"aG c #000000",
"aH c #000000",
"aI c #000000",
"aJ c #000000",
"aK c #000000",
"aL c #000000",
"aM c #000000",
"aN c #000000",
"aO c #000000",
"aP c #000000",
"aQ c #000000",
"aR c #000000",
"aS c #000000",
"aT c #000000",
"aU c #000000",
"aV c #000000",
"aW c #000000",
"aX c #000000",
"aY c #000000",
"aZ c #000000",
"a0 c #000000",
"a1 c #000000",
"a2 c #000000",
"a3 c #000000",
"a4 c #000000",
"a5 c #000000",
"a6 c #000000",
"a7 c #000000",
"a8 c #000000",
/* pixels */
"````````````````````````````````",
"```.`#`a`````````````````b`c`d``",
"```e`f`g`h`i`j`k`l`m`n`o`p`q`r``",
"```s`t`u`v`w`x`y`z`A`B`C`D`E`F``",
"`````h`x`G`G`H`z`C`C`C`I`J`K````",
"`````L`G`G`z`H`H`M`N`O`P`Q`K````",
"`````j`z`G`H`H`I`I`J`R`S`T`K````",
"`````k`C`C`U`R`R`R`S`V`T`T`K````",
"`````l`C`J`W`R`X`V`T`T`Y`Z`K````",
"`````m`I`J`0`S`T`T`1`Z`Z`2`K````",
"`````n`R`S`3`T`T`Z`Z`2`2`4`K````",
"`````o`T`T`5`Y`Z`Z`Z`4`4`4`K````",
"```r`6`7`1`8`Z`2.``4`4...#.a.b``",
"``.c.d.e.f.g.h.i.j.k.l.m.n.o.p``",
"``.q.r`r````````````````.s.t.u``",
"````````````````````````````````"
};
