/* XPM */
static const char *folder_prj_16_xpm[] = {
/* width height num_colors chars_per_pixel */
"    16    16      256            2",
/* colors */
"`` c None",
"`. c #fcfaf3",
"`# c #f7f0df",
"`a c #efe5c9",
"`b c #e6d8b3",
"`c c #dccb9d",
"`d c #d3c088",
"`e c #d8c890",
"`f c #fbf7de",
"`g c #f3e9d1",
"`h c #f0d993",
"`i c #f1d47d",
"`j c #f4d474",
"`k c #e8c96c",
"`l c #dcbd66",
"`m c #d0b360",
"`n c #dcc981",
"`o c #f5ecaf",
"`p c #fff9bf",
"`q c #fffcdd",
"`r c #eddeb5",
"`s c #fade82",
"`t c #fadb7c",
"`u c #f5d574",
"`v c #dcbe66",
"`w c #d7c076",
"`x c #fff7bb",
"`y c #fffbdb",
"`z c #eedeb5",
"`A c #f5d675",
"`B c #e8ca6c",
"`C c #d8c077",
"`D c #fef4b3",
"`E c #fffad8",
"`F c #eedfb5",
"`G c #fade83",
"`H c #fadc7c",
"`I c #f6d675",
"`J c #e9cb6d",
"`K c #ddbf67",
"`L c #d8c075",
"`M c #fdf1ac",
"`N c #fef8d4",
"`O c #d8bf73",
"`P c #fdeea4",
"`Q c #fef7d0",
"`R c #fadc7d",
"`S c #b2b2b2",
"`T c #d9d9d9",
"`U c #e9e9e9",
"`V c #9b9b9b",
"`W c #9a9a9a",
"`X c #b5b5b5",
"`Y c #8c8c8c",
"`Z c #ebebeb",
"`0 c #fbdf84",
"`1 c #b0b0b0",
"`2 c #999999",
"`3 c #959595",
"`4 c #fafafa",
"`5 c #ffffff",
"`6 c #aeaeae",
"`7 c #faf6ed",
"`8 c #eed99a",
".` c #cdcdcd",
".. c #dcdcdc",
".# c #f7f7f7",
".a c #e2e2e2",
".b c #acacac",
".c c #ede0bc",
".d c #fbe28c",
".e c #fbfbfb",
".f c #c6c6c6",
".g c #fefefe",
".h c #fcfcfc",
".i c #c8c8c8",
".j c #9d9d9d",
".k c #adadad",
".l c #ece0bc",
".m c #fbdf85",
".n c #fadc7e",
".o c #939393",
".p c #aaaaaa",
".q c #979797",
".r c #626262",
".s c #a5a5a5",
".t c #e0e0e0",
".u c #ece0bd",
".v c #fbe28d",
".w c #8f8f8f",
".x c #7b7b7b",
".y c #d4d4d4",
".z c #f0f0f0",
".A c #a6a6a6",
".B c #f6f6f6",
".C c #f1f1f1",
".D c #efe3c0",
".E c #bbbbbb",
".F c #dadada",
".G c #a9a9a9",
".H c #f5edd5",
".I c #fae28e",
".J c #f9dd82",
".K c #fbf6e8",
".L c #fdf6e0",
".M c #efd99e",
".N c #fef7e2",
".O c #000000",
".P c #000000",
".Q c #000000",
".R c #000000",
".S c #000000",
".T c #000000",
".U c #000000",
".V c #000000",
".W c #000000",
".X c #000000",
".Y c #000000",
".Z c #000000",
".0 c #000000",
".1 c #000000",
".2 c #000000",
".3 c #000000",
".4 c #000000",
".5 c #000000",
".6 c #000000",
".7 c #000000",
".8 c #000000",
"#` c #000000",
"#. c #000000",
"## c #000000",
"#a c #000000",
"#b c #000000",
"#c c #000000",
"#d c #000000",
"#e c #000000",
"#f c #000000",
"#g c #000000",
"#h c #000000",
"#i c #000000",
"#j c #000000",
"#k c #000000",
"#l c #000000",
"#m c #000000",
"#n c #000000",
"#o c #000000",
"#p c #000000",
"#q c #000000",
"#r c #000000",
"#s c #000000",
"#t c #000000",
"#u c #000000",
"#v c #000000",
"#w c #000000",
"#x c #000000",
"#y c #000000",
"#z c #000000",
"#A c #000000",
"#B c #000000",
"#C c #000000",
"#D c #000000",
"#E c #000000",
"#F c #000000",
"#G c #000000",
"#H c #000000",
"#I c #000000",
"#J c #000000",
"#K c #000000",
"#L c #000000",
"#M c #000000",
"#N c #000000",
"#O c #000000",
"#P c #000000",
"#Q c #000000",
"#R c #000000",
"#S c #000000",
"#T c #000000",
"#U c #000000",
"#V c #000000",
"#W c #000000",
"#X c #000000",
"#Y c #000000",
"#Z c #000000",
"#0 c #000000",
"#1 c #000000",
"#2 c #000000",
"#3 c #000000",
"#4 c #000000",
"#5 c #000000",
"#6 c #000000",
"#7 c #000000",
"#8 c #000000",
"a` c #000000",
"a. c #000000",
"a# c #000000",
"aa c #000000",
"ab c #000000",
"ac c #000000",
"ad c #000000",
"ae c #000000",
"af c #000000",
"ag c #000000",
"ah c #000000",
"ai c #000000",
"aj c #000000",
"ak c #000000",
"al c #000000",
"am c #000000",
"an c #000000",
"ao c #000000",
"ap c #000000",
"aq c #000000",
"ar c #000000",
"as c #000000",
"at c #000000",
"au c #000000",
"av c #000000",
"aw c #000000",
"ax c #000000",
"ay c #000000",
"az c #000000",
"aA c #000000",
"aB c #000000",
"aC c #000000",
"aD c #000000",
"aE c #000000",
"aF c #000000",
"aG c #000000",
"aH c #000000",
"aI c #000000",
"aJ c #000000",
"aK c #000000",
"aL c #000000",
"aM c #000000",
"aN c #000000",
"aO c #000000",
"aP c #000000",
"aQ c #000000",
"aR c #000000",
"aS c #000000",
"aT c #000000",
"aU c #000000",
"aV c #000000",
"aW c #000000",
"aX c #000000",
"aY c #000000",
"aZ c #000000",
"a0 c #000000",
"a1 c #000000",
"a2 c #000000",
"a3 c #000000",
"a4 c #000000",
"a5 c #000000",
"a6 c #000000",
"a7 c #000000",
"a8 c #000000",
/* pixels */
"`````````````.`#`a`b`c`d`e`f````",
"```````g`h`i`j`k`l`m`n`o`p`q````",
"```````r`s`t`u`k`v`w`x`x`x`y````",
"```````z`s`t`A`B`v`C`D`D`D`E````",
"```````F`G`H`I`J`K`L`M`M`M`N````",
"```````F`G`H`I`J`K`O`P`P`P`Q````",
"```````F`G`R`S`S`S`S`S`S`S`S`S``",
"```````F`G`R`S`T`U`V`W`X`Y`Z`S``",
"```````F`0`R`S`1`2`3`4`5`6`4`S``",
"`````7`8`0`R`S`U.`...#.a.b`5`S``",
"````.c.d`0`R`S.e.f.g.h.i.j.k`S``",
"````.l.d.m.n`S`5.o.p.q.r.s.t`S``",
"````.u.v.m.n`S.w.x.y.z.A.B.C`S``",
"````.D.v.m.n`S.E.F.g`Z.G`5`5`S``",
"````.H.I.m.J`S`S`S`S`S`S`S`S`S``",
"``````.K.L``````````.M.N````````"
};
