/* XPM */
static const char *kml_subdset_48_xpm[] = {
/* width height num_colors chars_per_pixel */
"    48    48      256            2",
/* colors */
"`` c #04023c",
"`. c #848294",
"`# c None",
"`a c #3c4269",
"`b c #c4c2be",
"`c c #14225c",
"`d c #646274",
"`e c #a4a29e",
"`f c #14268d",
"`g c #e4e2e1",
"`h c #2c42ac",
"`i c #8c8690",
"`j c #5462b4",
"`k c #aca5a3",
"`l c #243693",
"`m c #2c3262",
"`n c #d4d2d2",
"`o c #44529c",
"`p c #b4b2af",
"`q c #8c95cd",
"`r c #7482c9",
"`s c #24295a",
"`t c #0c144b",
"`u c #4c526c",
"`v c #f4f3f2",
"`w c #2438b1",
"`x c #747487",
"`y c #8c96bc",
"`z c #6472b4",
"`A c #041264",
"`B c #acb2dc",
"`C c #ccc5c2",
"`D c #142277",
"`E c #1428a4",
"`F c #3c469c",
"`G c #dcd5d3",
"`H c #8492d4",
"`I c #94a2dc",
"`J c #bcb4b3",
"`K c #5462a9",
"`L c #343c90",
"`M c #4c55a1",
"`N c #eceae2",
"`O c #54587a",
"`P c #1c2e91",
"`Q c #8c92af",
"`R c #2c3e8c",
"`S c #343765",
"`T c #7c86cc",
"`U c #141b4e",
"`V c #6c77be",
"`W c #cccee8",
"`X c #dcdad9",
"`Y c #9ca5d9",
"`Z c #444664",
"`0 c #5c66b8",
"`1 c #24379f",
"`2 c #fcfdf3",
"`3 c #9c9897",
"`4 c #cccacb",
"`5 c #1c2a7a",
"`6 c #bcbabc",
"`7 c #54588f",
"`8 c #9ca2e4",
".` c #7c83af",
".. c #2c42b9",
".# c #948f92",
".a c #141d66",
".b c #3c4cb7",
".c c #1c2a64",
".d c #6c6b81",
".e c #acaaa4",
".f c #2c3eb1",
".g c #4c5ebf",
".h c #bcc2dc",
".i c #142267",
".j c #ece5e0",
".k c #242e81",
".l c #6c72a4",
".m c #dcdcea",
".n c #a4aad0",
".o c #3c52c4",
".p c #6c82dc",
".q c #0c1456",
".r c #646694",
".s c #5c5e76",
".t c #243190",
".u c #343a80",
".v c #6c7ddc",
".w c #2c3aa3",
".x c #9c9eac",
".y c #bcbdc9",
".z c #344291",
".A c #1c2a91",
".B c #4c62cc",
".C c #243284",
".D c #acb2cc",
".E c #fcf6f1",
".F c #2c3aac",
".G c #1c2676",
".H c #1c2fa6",
".I c #545ca0",
".J c #f4ede7",
".K c #7c8ce0",
".L c #1c1e54",
".M c #d4cccc",
".N c #344bbd",
".O c #acadb9",
".P c #ccd2ec",
".Q c #242e5c",
".R c #5c72d5",
".S c #3c3e67",
".T c #141e5c",
".U c #747ec0",
".V c #e4ddd8",
".W c #a4a6d0",
".X c #444e88",
".Y c #a49a9c",
".Z c #8484ac",
".0 c #8c8ea4",
".1 c #141e77",
".2 c #444eb4",
".3 c #c4c5df",
".4 c #445acb",
".5 c #748ae4",
".6 c #848aa4",
".7 c #5c628c",
".8 c #a4a3be",
"#` c #e4e3ec",
"#. c #847e8c",
"## c #8c9ef4",
"#a c #b4badc",
"#b c #747cac",
"#c c #0c1b6f",
"#d c #445294",
"#e c #7c94f0",
"#f c #5c6ed4",
"#g c #9caaf4",
"#h c #040d44",
"#i c #949ecc",
"#j c #3c4eac",
"#k c #848ed1",
"#l c #4c4e74",
"#m c #6c6e94",
"#n c #647add",
"#o c #4c5cb4",
"#p c #646eb9",
"#q c #3c4a94",
"#r c #546ad4",
"#s c #b4bacc",
"#t c #849aec",
"#u c #8ca2f4",
"#v c #2c3a84",
"#w c #d4daec",
"#x c #8486a4",
"#y c #c4c6d4",
"#z c #8c88a0",
"#A c #aca6b4",
"#B c #4456b4",
"#C c #343ea4",
"#D c #5c63a1",
"#E c #5c5a7c",
"#F c #4c4a74",
"#G c #4455c2",
"#H c #7485e3",
"#I c #2432a4",
"#J c #bcbee4",
"#K c #4c5684",
"#L c #a4aee4",
"#M c #3c4277",
"#N c #2c3ea0",
"#O c #3442a2",
"#P c #9492ac",
"#Q c #2c2e5c",
"#R c #1c2355",
"#S c #2c3a90",
"#T c #14164c",
"#U c #9497ba",
"#V c #848ac4",
"#W c #747abc",
"#X c #c4bdbb",
"#Y c #3445ba",
"#Z c #1c1e64",
"#0 c #b4adac",
"#1 c #1c246a",
"#2 c #141654",
"#3 c #c4bec4",
"#4 c #5465d1",
"#5 c #b4b3c4",
"#6 c #b4aeb4",
"#7 c #6476dc",
"#8 c #9490a0",
"a` c #646688",
"a. c #7c7ea8",
"a# c #8496ec",
"aa c #142a9c",
"ab c #2c346c",
"ac c #d4d6dc",
"ad c #242a64",
"ae c #f4f6fc",
"af c #243abc",
"ag c #747294",
"ah c #0c1664",
"ai c #b4b6dc",
"aj c #ccc6cc",
"ak c #3c4aac",
"al c #dcd6dc",
"am c #bcb6bc",
"an c #ecebec",
"ao c #545684",
"ap c #1c309c",
"aq c #343674",
"ar c #fcfdfc",
"as c #9c9aa4",
"at c #1c2d84",
"au c #7c84bc",
"av c #3c4ec4",
"aw c #6c6c8c",
"ax c #ece6ec",
"ay c #646aa4",
"az c #24329c",
"aA c #1c2684",
"aB c #1c32b4",
"aC c #7c8eec",
"aD c #d4ced4",
"aE c #c4c6ec",
"aF c #0c1e7c",
"aG c #0c0e44",
"aH c #545eb4",
"aI c #4456cc",
"aJ c #7486ec",
"aK c #a49eb4",
"aL c #444ea7",
"aM c #a4a2ac",
"aN c #b4b2bc",
"aO c #4c527c",
"aP c #142284",
"aQ c #8c92bc",
"aR c #cccad4",
"aS c #2c3ebc",
"aT c #4c5ecc",
"aU c #bcc2ec",
"aV c #a4aadc",
"aW c #5c5e84",
"aX c #1c2a9c",
"aY c #d4d2ec",
"aZ c #242e6c",
"a0 c #444e94",
"a1 c #b4baec",
"a2 c #3442ac",
"a3 c #848690",
"a4 c #64667c",
"a5 c #142a94",
"a6 c #e4e6e4",
"a7 c #8c8a94",
"a8 c #5466bc",
/* pixels */
"`#`#`#`#`#`#`#`#`#`#`#`#`#`#`#`#`#`#`#`#`#`#`#`#`#`#`#`#`#`#`#`#`#`#`#`#`#`#`#`#`#`#`#`#`#`#`#`#",
"`#`#`#`#`#`#`#`#`#`#`#`#`#`#`#`#`#`#`#`#`#`#`#`#`#`#`#`#`#`#`#`#`#`#`#`#`#`#`#`#`#`#`#`#`#`#`#`#",
"`#`#`#`#`#`#`#`#`#`#`#`#`#`#`#`#`#`#`#`#`#`#`#`#`#`#`#`#`#`#`#`#`#`#`#`#`#`#`#`#`#`#`#`#`#`#`#`#",
"`#`#`#`#`#`#`#`#`#`#`#`#`#`#`#`#`#`#`##k`0.b.F`w.w.FaL`0#k`#`#`#`#`#`#`#`#`#`#`#`#`#`#`#`#`#`#`#",
"`#`#`#`#`#`#`#`#`#`#`#`#`#`#`#`#`8#oa2ak#o#p`V#W`V#paHaL.w.taL`q`#`#`#`#`#`#`#`#`#`#`#`#`#`#`#`#",
"`#`#`#`#`#`#`#`#`#`#`#`#`#`##ka2#I.g`q#J#`.J`2`2`2`2.J`X.y#U.I.t.A.U`#`#`#`#`#`#`#`#`#`#`#`#`#`#",
"`#`#`#`#`#`#`#`#`#`#`#`#`8.2.H.F#N#o`0aHaH`0`V#V.8#y`g.E`v`N`g.y#b.t.t#i`#`#`#`#`#`#`#`#`#`#`#`#",
"`#`#`#`#`#`#`#`#`#`#`#`V`w.w.f.w.FaB.HaX.H`EaaaXap#OaH`QaR`N.V.j`g#3#DaF#D`#`#`#`#`#`#`#`#`#`#`#",
"`#`#`#`#`#`#`#`#`#`##o`E.H.H#I`w`waB`wafa2..a2.f`1.H.A`P`F.`al`g`G.V`G#P`D`F`#`#`#`#`#`#`#`#`#`#",
"`#`#`#`#`#`#`#`#`#.2`E#G`T`BaU`W.haV`r#G`waf...f.f#N.F`1.A`f#q#5.j`n`G.V.O.k#v`#`#`#`#`#`#`#`#`#",
"`#`#`#`#`#`#`#`#.2a2#J`vararararararara6aV#Gaf.f.f.f.F`1.w.t`f`P#U.jaDaD.VaN.G.z`#`#`#`#`#`#`#`#",
"`#`#`#`#`#`#`##p`w.Parararararar.Eae.Eae`2#``r..aS...F.F`1`1.tat.G#U.V.M.M.V#A.a.I`#`#`#`#`#`#`#",
"`#`#`#`#`#`#`8`Eaiar.Eae.Eae.Eae.E`v`v.Jan.E.E`8#YaS..`w.w.w.tazaAat#6.V`4.M`G.0ah#U`#`#`#`#`#`#",
"`#`#`#`#`#`#.w#W`2`vararararar`v`v`v`van`vanan.E`Y...f`h.F`1.w.t`l.1a0aD`Gaj.M.Mao.G`#`#`#`#`#`#",
"`#`#`#`#`#.U#C.marar`v#waY.manarar.J`vanananax`N`v`Y.f`w.f.w`1.t.t.t.1.``G.M`C`4.e#1.l`#`#`#`#`#",
"`#`#`#`#`##I`qara6`q#4aT.B#7.KaV.mae`van.Janana6.j.J`Y.f`w.w`1az.t.C.G.k`p`G`C#3`Caw#2`#`#`#`#`#",
"`#`#`#`#`q`1#``W#Gaf#Y.oaT#r.R#naCa1an`vananax.j`g`g.J.W.faB.w`l.t`P.kaF.X.M`4#X`CaM.a.Z`#`#`#`#",
"`#`#`#`#aL.U.3`1aB#YavaT#4.R.vaJaC#e#g#w.Jana6a6a6`g`g`N.D#Cap`1.t.kataZah.r.M#Xam#X`uab`#`#`#`#",
"`#`#`#`#.w#V#j.Ha2..av.4#r.R.v.5#e#u#u#taU`Nan`g`g`g.Val.j#sak`f.t.tat.G.G#c`x`C`b`C#E.q`#`#`#`#",
"`#`#`#`q#S#Oaz.F.f#Yav.4#4.R.v#HaCa###a#aJ`I.m.j`g.m.V`X`X.j`b#B`f.t.k`5.G#Zah`OaM`.#R.q#P`#`#`#",
"`#`#`##p.taz`1.F.f..av#G.B#f#7.v.5aC.K.5.5#7#Hai.j.jal`X`Xal.V.MayaPaA.k#1.i.a.q.L`U`t#TaW`#`#`#",
"`#`#`#`M.t`1.w`1.faS.N.oaT#4.R#n.v.p.5#H.v#n#4.B`q`n.jal`G`GaDal`G.`.GaF`5#1.L.T`t#T`U#T#M`#`#`#",
"`#`#`#`F.t.t`1.F.f.f..avaI.B#4#f#7#n#n#n#7#r#raT.NaT.n.j`X`n`n.M`n`GaK#vah#1.a.T`U`U#T#T`m`#`#`#",
"`#`#`#`L.t.t`1`1.F.f..#Y.oaI.B#4#r#f#f#f#r#4aT.4avaS.F`Vaj.V`G.M`4.M`G`6`O#c#2`U`U#T`U#T`s`#`#`#",
"`#`#`##S.t.t.t`1`1.F.faS.Nav#G.4.B.B#4.BaT.4#Gav#Y..`w.Ha2aQ.M`G.Maj`b`C`C#z`m`taG#T`U#T`s`#`#`#",
"`#`#`#`F`5.t.t`1.w`w.F.f..#Yav.o#GaIaI#GaIav.b#YaS.f.f.wap.A`o.8.M`G`C#3am`C.ea``s`taG`t`m`#`#`#",
"`#`#`#a0at.k.t.t`1`1.w.f.f.f..#Y.N.Nav.N.N#Y..aS.f`w.w`1`1.taAaA`7.x`C`C#X.e#6`J`e`x`O`s.S`#`#`#",
"`#`#`#ayaA.k`P.t.t`1`1.w`w.f.faS......aS...f.f.F.f`1.w`1.t.t.tataF`5`7#z`J#X`J`k`k.e`k`m`O`#`#`#",
"`#`#`#aQ.G.kat.t.t`1.w`1.w.F`w.f.f.F.f.f.F.f.F`w`1.waz.t.t.tat.k.k#1ah.a`aaw`3#0.e`k.#.L#z`#`#`#",
"`#`#`#`#.k.GataAaP`faAapaz`1.w.w`1.F.F`w.w`w`1.w`1.t`l.t.tat.k.G.G#1#1.T.q`t#R.S.s#.`d`t`#`#`#`#",
"`#`#`#`#.X#1`D`L.`#U#ba0.t.Aaz`1.w`1`1.w`1.w`l`1.t.t.t.t`5.k.G.G#1.i.a.L`U#2`t`taG`U`t`S`#`#`#`#",
"`#`#`#`#aQah#vaN.j.V.Val.8.I`P.A`P`1`l`1`l.t.t.t.t`P.kat`5.G`5#1.i#1.T`U`U`U#T`U#T`U#h`.`#`#`#`#",
"`#`#`#`#`#.a#m.V.M.MaD`n.V`G.8`K#S.AaA`P.t#S.t.tat.kat.G`5.G#1.i.a.T`U`U#2#T`U`U#2`U`U`#`#`#`#`#",
"`#`#`#`#`#.labaj`G.M.M`n.MaD.V`G#5a.a0.taP`DaAat.k.k`5.k.G#1#1#1.T.L`U`U`U`U`taG`U#h#m`#`#`#`#`#",
"`#`#`#`#`#`#.Gag`X.M`4.M.M`4`4.M`G`X`C.8a.`M#v#1#c#c.a.a.a.i.a.T`U.q`taG#haG`U`a#Q#R`#`#`#`#`#`#",
"`#`#`#`#`#`##Pah#A`G`4`4`4.M`4aj`C`C`4.M.M`C.e#P.lao#Mab#1#1`U`U`U.T#R#Q`Z.s`i`x`t#x`#`#`#`#`#`#",
"`#`#`#`#`#`#`#aoad`6.M`C`C`C`C`Caj`C`C#X#X#X`C#X#X`6#6aM`3#8a7a3`i`i.#`3`3`e.#`U#F`#`#`#`#`#`#`#",
"`#`#`#`#`#`#`#`#ab`S#3.M#X#3#3`b`p#Aam`C`b#X`J`J`J`p`J#0`p#0#0`k`k`k`e`e.Y`i#R`m`#`#`#`#`#`#`#`#",
"`#`#`#`#`#`#`#`#`#ad`m`p`Cam#XaK.Q.aabaW`iaK.O`J`p`J#0#0#0`k`k`e.Y.##.a4`aaG.Q`#`#`#`#`#`#`#`#`#",
"`#`#`#`#`#`#`#`#`#`##Q`sas#X`C`x.q`U#2`A`t#R`S`Z.sa4.d.d.da4.s`u.S.Q`U`t```S`#`#`#`#`#`#`#`#`#`#",
"`#`#`#`#`#`#`#`#`#`#`##l`ta4#X#8.T#T`U`U`U#T`t#h#h#h#h#h#haG#h#haG#T`t`t`O`#`#`#`#`#`#`#`#`#`#`#",
"`#`#`#`#`#`#`#`#`#`#`#`#.0.L#Q`x#Q`t`U#T`U`U`U`U.L`U.L`U`U`U.L.L`UaG`s#z`#`#`#`#`#`#`#`#`#`#`#`#",
"`#`#`#`#`#`#`#`#`#`#`#`#`#`#a`.L`t`t#T#T`U#T#2`U#T#2#T`U#T`U`taG.Taw`#`#`#`#`#`#`#`#`#`#`#`#`#`#",
"`#`#`#`#`#`#`#`#`#`#`#`#`#`#`#`#`.`S#T`t#T#T`U#T`U#T#T`t#T`t`S#x`#`#`#`#`#`#`#`#`#`#`#`#`#`#`#`#",
"`#`#`#`#`#`#`#`#`#`#`#`#`#`#`#`#`#`#`#`QaW`a`m`s`s`m`aaW`Q`#`#`#`#`#`#`#`#`#`#`#`#`#`#`#`#`#`#`#",
"`#`#`#`#`#`#`#`#`#`#`#`#`#`#`#`#`#`#`#`#`#`#`#`#`#`#`#`#`#`#`#`#`#`#`#`#`#`#`#`#`#`#`#`#`#`#`#`#",
"`#`#`#`#`#`#`#`#`#`#`#`#`#`#`#`#`#`#`#`#`#`#`#`#`#`#`#`#`#`#`#`#`#`#`#`#`#`#`#`#`#`#`#`#`#`#`#`#",
"`#`#`#`#`#`#`#`#`#`#`#`#`#`#`#`#`#`#`#`#`#`#`#`#`#`#`#`#`#`#`#`#`#`#`#`#`#`#`#`#`#`#`#`#`#`#`#`#"
};
