/* XPM */
static const char *md_dset_16_xpm[] = {
/* width height num_colors chars_per_pixel */
"    16    16      256            2",
/* colors */
"`` c None",
"`. c #a581ad",
"`# c #96729e",
"`a c #aa85b2",
"`b c #9f7ba7",
"`c c #744f7c",
"`d c #896691",
"`e c #97739f",
"`f c #e4bfec",
"`g c #916e9a",
"`h c #ffe1ff",
"`i c #e2beea",
"`j c #b28dba",
"`k c #9b76a3",
"`l c #8e6a96",
"`m c #906c98",
"`n c #704b78",
"`o c #d4afdc",
"`p c #66416e",
"`q c #ac88b4",
"`r c #916d99",
"`s c #b38ebb",
"`t c #8a6792",
"`u c #a681ae",
"`v c #caa4d1",
"`w c #e1bde9",
"`x c #805a87",
"`y c #603c68",
"`z c #86618e",
"`A c #f1cbf8",
"`B c #9874a0",
"`C c #c8a4d0",
"`D c #f2cdf9",
"`E c #f1ccf8",
"`F c #a37fab",
"`G c #b994c1",
"`H c #eec6f3",
"`I c #d2acda",
"`J c #b48fbc",
"`K c #896591",
"`L c #886490",
"`M c #b08bb8",
"`N c #ab87b4",
"`O c #be9ac6",
"`P c #c5a1ce",
"`Q c #94719c",
"`R c #95729d",
"`S c #b490bc",
"`T c #dab5e2",
"`U c #a27daa",
"`V c #b692bd",
"`W c #e0bce8",
"`X c #d9b5e1",
"`Y c #c7a3cf",
"`Z c #b893c0",
"`0 c #ad89b5",
"`1 c #f6d0fd",
"`2 c #dfbbe8",
"`3 c #bf9bc7",
"`4 c #9c79a4",
"`5 c #8d6895",
"`6 c #b18cb9",
"`7 c #c6a2ce",
"`8 c #d5b0dd",
".` c #936f9a",
".. c #d6b2de",
".# c #4a2552",
".a c #583460",
".b c #fbd3ff",
".c c #dfb9e6",
".d c #c49ecc",
".e c #3f1b47",
".f c #14001c",
".g c #3d1845",
".h c #46224e",
".i c #cba5d3",
".j c #c09bc8",
".k c #b793bf",
".l c #bb96c3",
".m c #12001a",
".n c #0b0013",
".o c #684470",
".p c #3b1542",
".q c #56305d",
".r c #090011",
".s c #492551",
".t c #000000",
".u c #000000",
".v c #000000",
".w c #000000",
".x c #000000",
".y c #000000",
".z c #000000",
".A c #000000",
".B c #000000",
".C c #000000",
".D c #000000",
".E c #000000",
".F c #000000",
".G c #000000",
".H c #000000",
".I c #000000",
".J c #000000",
".K c #000000",
".L c #000000",
".M c #000000",
".N c #000000",
".O c #000000",
".P c #000000",
".Q c #000000",
".R c #000000",
".S c #000000",
".T c #000000",
".U c #000000",
".V c #000000",
".W c #000000",
".X c #000000",
".Y c #000000",
".Z c #000000",
".0 c #000000",
".1 c #000000",
".2 c #000000",
".3 c #000000",
".4 c #000000",
".5 c #000000",
".6 c #000000",
".7 c #000000",
".8 c #000000",
"#` c #000000",
"#. c #000000",
"## c #000000",
"#a c #000000",
"#b c #000000",
"#c c #000000",
"#d c #000000",
"#e c #000000",
"#f c #000000",
"#g c #000000",
"#h c #000000",
"#i c #000000",
"#j c #000000",
"#k c #000000",
"#l c #000000",
"#m c #000000",
"#n c #000000",
"#o c #000000",
"#p c #000000",
"#q c #000000",
"#r c #000000",
"#s c #000000",
"#t c #000000",
"#u c #000000",
"#v c #000000",
"#w c #000000",
"#x c #000000",
"#y c #000000",
"#z c #000000",
"#A c #000000",
"#B c #000000",
"#C c #000000",
"#D c #000000",
"#E c #000000",
"#F c #000000",
"#G c #000000",
"#H c #000000",
"#I c #000000",
"#J c #000000",
"#K c #000000",
"#L c #000000",
"#M c #000000",
"#N c #000000",
"#O c #000000",
"#P c #000000",
"#Q c #000000",
"#R c #000000",
"#S c #000000",
"#T c #000000",
"#U c #000000",
"#V c #000000",
"#W c #000000",
"#X c #000000",
"#Y c #000000",
"#Z c #000000",
"#0 c #000000",
"#1 c #000000",
"#2 c #000000",
"#3 c #000000",
"#4 c #000000",
"#5 c #000000",
"#6 c #000000",
"#7 c #000000",
"#8 c #000000",
"a` c #000000",
"a. c #000000",
"a# c #000000",
"aa c #000000",
"ab c #000000",
"ac c #000000",
"ad c #000000",
"ae c #000000",
"af c #000000",
"ag c #000000",
"ah c #000000",
"ai c #000000",
"aj c #000000",
"ak c #000000",
"al c #000000",
"am c #000000",
"an c #000000",
"ao c #000000",
"ap c #000000",
"aq c #000000",
"ar c #000000",
"as c #000000",
"at c #000000",
"au c #000000",
"av c #000000",
"aw c #000000",
"ax c #000000",
"ay c #000000",
"az c #000000",
"aA c #000000",
"aB c #000000",
"aC c #000000",
"aD c #000000",
"aE c #000000",
"aF c #000000",
"aG c #000000",
"aH c #000000",
"aI c #000000",
"aJ c #000000",
"aK c #000000",
"aL c #000000",
"aM c #000000",
"aN c #000000",
"aO c #000000",
"aP c #000000",
"aQ c #000000",
"aR c #000000",
"aS c #000000",
"aT c #000000",
"aU c #000000",
"aV c #000000",
"aW c #000000",
"aX c #000000",
"aY c #000000",
"aZ c #000000",
"a0 c #000000",
"a1 c #000000",
"a2 c #000000",
"a3 c #000000",
"a4 c #000000",
"a5 c #000000",
"a6 c #000000",
"a7 c #000000",
"a8 c #000000",
/* pixels */
"````````````````````````````````",
"```.`#`a`````````````````b`c`d``",
"```e`f`g`h`h`h`i`j`k`l`m`n`o`p``",
"```q`r`k`h`h`s`t`l`u`v`w`x`y`z``",
"`````h`h`A`k`B`C`D`h`h`h`E`f````",
"`````h`h`F`G`H`A`I`J`b`r`K`L````",
"`````h`M`N`O`F`d`L`m`k`u`G`P````",
"`````I`g`Q`d`R`S`T`h`h`h`h`h````",
"`````U`m`V`W`h`h`h`D`X`Y`Z`0````",
"`````V`i`1`2`3`q`4`l`d`t`d`t````",
"`````3`j`e`m`5`d`Q`b`6`7`8`2````",
"````.``r`g`e`6..`1`h`h`h`h`h````",
"```p.#.a`P.b`h`h`1.c.d`6.e.f.g``",
"``.h`7.g`h`f.i.j.k`V.l`O.m`S.n``",
"``.o.p`p````````````````.q.r.s``",
"````````````````````````````````"
};
