/* XPM */
static const char *sr_48_xpm[] = {
/* width height num_colors chars_per_pixel */
"    48    48      256            2",
/* colors */
"`` c None",
"`. c #e1e1e1",
"`# c #d8d8d8",
"`a c #d7d7d7",
"`b c #c7c7c7",
"`c c #dbdbdb",
"`d c #efefef",
"`e c #9a9a9a",
"`f c #b7b7b7",
"`g c #c8c8c8",
"`h c #cfcfcf",
"`i c #bdbdbd",
"`j c #f2f2f2",
"`k c #ededed",
"`l c #f8f8f8",
"`m c #b5b5b5",
"`n c #e0e0e0",
"`o c #ececec",
"`p c #d6d6d6",
"`q c #d1d1d1",
"`r c #c6c6c6",
"`s c #e4e4e4",
"`t c #c1c1c1",
"`u c #a9a9a9",
"`v c #b6b6b6",
"`w c #9d9d9d",
"`x c #ffffff",
"`y c #cbcbcb",
"`z c #cecece",
"`A c #dadada",
"`B c #616161",
"`C c #aaaaaa",
"`D c #afafaf",
"`E c #e2e2e2",
"`F c #dedede",
"`G c #bbbbbb",
"`H c #bcbcbc",
"`I c #eeeeee",
"`J c #f0f0f0",
"`K c #fbfbfb",
"`L c #7e7e7e",
"`M c #a2a2a2",
"`N c #828282",
"`O c #dddddd",
"`P c #c3c3c3",
"`Q c #b3b3b3",
"`R c #d9d9d9",
"`S c #cacaca",
"`T c #b8b8b8",
"`U c #d3d3d3",
"`V c #c0c0c0",
"`W c #f7f7f7",
"`X c #999999",
"`Y c #9e9e9e",
"`Z c #a8a8a8",
"`0 c #8f8f8f",
"`1 c #fdfdfd",
"`2 c #8e8e8e",
"`3 c #939393",
"`4 c #acacac",
"`5 c #b0b0b0",
"`6 c #ff35ff",
"`7 c #cdcdcd",
"`8 c #c4c4c4",
".` c #e7e7e7",
".. c #a7a7a7",
".# c #787878",
".a c #f5f5f5",
".b c #f9f9f9",
".c c #6d6d6d",
".d c #969696",
".e c #9f9f9f",
".f c #d4d4d4",
".g c #f63df6",
".h c #dcdcdc",
".i c #9c9c9c",
".j c #c5c5c5",
".k c #f6f6f6",
".l c #f3f3f3",
".m c #868686",
".n c #979797",
".o c #686868",
".p c #777777",
".q c #adadad",
".r c #b2b2b2",
".s c #b4b4b4",
".t c #aeaeae",
".u c #b1b1b1",
".v c #e9e9e9",
".w c #727272",
".x c #a4a4a4",
".y c #a3a3a3",
".z c #717171",
".A c #f1f1f1",
".B c #fcfcfc",
".C c #8d8d8d",
".D c #c9c9c9",
".E c #dfdfdf",
".F c #8c8c8c",
".G c #909090",
".H c #fefefe",
".I c #535353",
".J c #878787",
".K c #c2c2c2",
".L c #747474",
".M c #bebebe",
".N c #ebebeb",
".O c #a1a1a1",
".P c #545454",
".Q c #6e6e6e",
".R c #888888",
".S c #e3e3e3",
".T c #898989",
".U c #bfbfbf",
".V c #f4f4f4",
".W c #707070",
".X c #565656",
".Y c #8a8a8a",
".Z c #cccccc",
".0 c #929292",
".1 c #989898",
".2 c #696969",
".3 c #7a7a7a",
".4 c #a6a6a6",
".5 c #838383",
".6 c #575757",
".7 c #8b8b8b",
".8 c #b9b9b9",
"#` c #e6e6e6",
"#. c #7f7f7f",
"## c #808080",
"#a c #fafafa",
"#b c #d5d5d5",
"#c c #797979",
"#d c #a0a0a0",
"#e c #bababa",
"#f c #e8e8e8",
"#g c #949494",
"#h c #eaeaea",
"#i c #9b9b9b",
"#j c #858585",
"#k c #585858",
"#l c #959595",
"#m c #848484",
"#n c #656565",
"#o c #6f6f6f",
"#p c #d2d2d2",
"#q c #7b7b7b",
"#r c #515151",
"#s c #626262",
"#t c #a5a5a5",
"#u c #505050",
"#v c #767676",
"#w c #919191",
"#x c #3f3f3f",
"#y c #818181",
"#z c #3b3b3b",
"#A c #636363",
"#B c #5c5c5c",
"#C c #fb26fb",
"#D c #7c7c7c",
"#E c #4c4c4c",
"#F c #ababab",
"#G c #5e5e5e",
"#H c #4b4b4b",
"#I c #4f4f4f",
"#J c #e5e5e5",
"#K c #d0d0d0",
"#L c #5f5f5f",
"#M c #737373",
"#N c #404040",
"#O c #525252",
"#P c #5b5b5b",
"#Q c #484848",
"#R c #6a6a6a",
"#S c #676767",
"#T c #464646",
"#U c #646464",
"#V c #555555",
"#W c #5d5d5d",
"#X c #444444",
"#Y c #4a4a4a",
"#Z c #494949",
"#0 c #474747",
"#1 c #6b6b6b",
"#2 c #757575",
"#3 c #000000",
"#4 c #000000",
"#5 c #000000",
"#6 c #000000",
"#7 c #000000",
"#8 c #000000",
"a` c #000000",
"a. c #000000",
"a# c #000000",
"aa c #000000",
"ab c #000000",
"ac c #000000",
"ad c #000000",
"ae c #000000",
"af c #000000",
"ag c #000000",
"ah c #000000",
"ai c #000000",
"aj c #000000",
"ak c #000000",
"al c #000000",
"am c #000000",
"an c #000000",
"ao c #000000",
"ap c #000000",
"aq c #000000",
"ar c #000000",
"as c #000000",
"at c #000000",
"au c #000000",
"av c #000000",
"aw c #000000",
"ax c #000000",
"ay c #000000",
"az c #000000",
"aA c #000000",
"aB c #000000",
"aC c #000000",
"aD c #000000",
"aE c #000000",
"aF c #000000",
"aG c #000000",
"aH c #000000",
"aI c #000000",
"aJ c #000000",
"aK c #000000",
"aL c #000000",
"aM c #000000",
"aN c #000000",
"aO c #000000",
"aP c #000000",
"aQ c #000000",
"aR c #000000",
"aS c #000000",
"aT c #000000",
"aU c #000000",
"aV c #000000",
"aW c #000000",
"aX c #000000",
"aY c #000000",
"aZ c #000000",
"a0 c #000000",
"a1 c #000000",
"a2 c #000000",
"a3 c #000000",
"a4 c #000000",
"a5 c #000000",
"a6 c #000000",
"a7 c #000000",
"a8 c #000000",
/* pixels */
"````````````````````````````````````````````````````````````````````````````````````````````````",
"```````````````````````````````````````````````.`#`a`b`c`d`e`f`g`h`i`j`k`l`m`j`n`o``````````````",
"`````````````````````````````````````````````p`q`r`s`t`u`v`w`x`x`y`z`x`A`w`B`C`D`q`y````````````",
"```````````````````````````````````````````E`F`t`p`G`H`I`J`a`K`p`L`M`C`f`N`O`x`d`P`Q`P``````````",
"`````````````````````````````````````````R`S`G`T`U`V`W`x`X`Y`G`Z`0`o`1`K`2`1`x`x`3`u`4`5````````",
"```````````````````````````````````````6`7`8`4`o.``t`q...#.``1`v`7.a`1`s`f.b.a`E.c.d.e`C.f``````",
"````````````````````````````````````.g`P`r.h`U`I`3.i`z.j`F`x`W`5`I.k.l.e.m`2.n`w.o.p`0.q`t``````",
"`````````````````````````````````````..r`1.r`Z.s.t`K`x.u.a.b.v.w.x.y`Y.z.u.A`1.B.o.o.C`Q`t``````",
"```````````````````````````````````I`g.D.u`Y`x`g.E`x`n.F`G`w.C.G`O.b.H`0.a`x`l`s.I.c.J.s`S``````",
"```````````````````````````````````S.t`F`T`W`K.x.K`i.L.m`c.a.M.D`1.H.N.O`x`x.H`a.P.Q.R.s`y``````",
"`````````````````````````````````o`T`i`j`T.S.O.T.U`R.x`1`x`x`u.S`x.V`8.x`O.K`f.W.X.W.Y`v.Z``````",
"```````````````````````````````i`b`h`x.s.0`t.q`a`x.b`M.b`J`k.1`s`8`5.2.3.y.4`y.5.6.z.7`f`z``````",
"`````````````````````````````.`q.B`m`V`3.k`j`f.H.V`c`5.h`G.Y`B`Z`v.U.C`E`x`x`x.Y.6.w.7`T`z``````",
"`````````````````````````````T`U.T`g.h`H`x.k.8#``g#.##.4`y`u`r`k`x`W.n`I`l`x#a.m.6.z.7`f`z``````",
"```````````````````````````t.s`y`q.b#b.S`o`3#c#d#e.T#f`x`x`M#``x`x`k#g`x.H`x#h`3.X.W.Y`f`7``````",
"````````````````````````.U`P`n`n`R.v#i`e`m.F.N`x`x`Z`K`x`x.1`o`x.l.E#j`k.M.4.R#k.X.W.Y`v`7``````",
"`````````````````````````y#b`x.t`5`X#l#a`x.t#a`x`F.t`x.V.A#m`8`C.C.2#n.i`D.8.0.n.X#o.T`v`z``````",
"``````````````````````.f#p.f.j#q.v`7.h`W`E`4`x`x`f`3.r`e`N#r`f#e`E`M`V`l`x.B`f`z.X#o.T`v`z``````",
"``````````````````````.v`f#i`T.h`K`r.H.B`g`w.q#j.c#i`g.``H`f`x`x`x#l`F`x`x`l#l.D.X#o.T`v`z``````",
"`````````````````````V`4#i`x`i.H`x`3`C.n#s#t`n`l#t.l`J`x#t`P`x.b`x#j`o.B.k`x.i`J.X#o.T`v`z``````",
"```````````````````F`w.S.a`x`T`r`0#q.f`J.4.k.A.V`M`x`K`x#t`.`x.H.k.7`x`J`R`y#u#i.X#o.T`v`z``````",
"```````````````````G.N`c`7#g#v#p`G`A.H.N`u`x`x`n.y.B`l.b#w`S.K.s#g#x#i`L#y`2.P`t.X#o.T`v`z``````",
"`````````````````C`c`n`Z`H.i.B`W.t.l`K.f.j`x.k.r#g#e.x#y#z`X.4#e.4.C`W`1`x`.`Y`K.X#o.T`v`z``````",
"`````````````````a`m`Y.8`J.K`x.H`v`x`j#t.n.C.n#A`2`T#b`S`C`x`W`x`r.s`K.B`x.K#g`x.X#o.T`v`z``````",
"``````````````.``5#p`y`x`J`7`x#p#....i#B`D`c`j...N.b`x`g..`x`1`x..`i`x`x`K`8.i.H.X#o.T`v`z``````",
"````````````#C`4`g.b#b`W`m.n`M#v.4`A.S`D`1`x#a`e`1.H`x`t`Q`x`j.V.u`z`x.b.b`i`Z.a.X#o.T`v`z``````",
"`````````````F#p.S`d`Y`m#D`V.S`q`E`x.V`v`x`x.V.O`x.a`1.r.D`K.l`J#n#l.4`e.1#E.P#m.X#o.T`v`z``````",
"`````````````E.`.q#F`M`O`f`x`K.x`o`x`.`5.k.l.h`Y`R`8`V#G.m.F#y.p#H.4`v`t`U.7.Z.l.X#o.T`v`z``````",
"```````````j`b`Z`H.u`W`x`H`W`x`f`x`x`G.0`m#d.z#I.n.n#F.2`U.v`x`x.7`1`x.B`W.C.S.H.X#o.T`v`z``````",
"```````````S`Q`H`x`V#a.N`g.A`c`L`0#i#B#j`t`a`T`z`x`x.B`M`x.H`x.b#y`1`x`x.b#y#J`1.X#o.T`v`z``````",
"````````.``V`h.A.l`r.V`5`N`0`L.m#J.V#F`l`x.B..`g#a`x#f.G`x.B.l.S#w`x`x`x`x.J#f.B.X#o.T`v`z``````",
"`````````#`J.b`z.j.F.n.5.D`x`8`O.H`x.e.b.b.b...`.B`x`E.C`x`x.k.E.O`x`1.V.B.3#K`O.X#o.T`v`z``````",
"```````U`c`k#t.0.O`S`1`i#a`x.u.E`x`K`Y`1.l`x.O#a`x.k`U`e`h#e.q.##L#m.####M#N`N`N.X#o.T`v`z``````",
"```````k`T.e`w`x`b.v`x.U`x`x`t`l.V.A.x`J.f`r#O`3`N`L#P#Q.n.e`T.T.7#b#f`J`U#w`W`x.X#o.T`v`z``````",
"``````.U`5`n`p.l`h#a#a`b`x`n#m.t.e.T#Q.7.Y#t.w#K#J.A`t.Z`x.b`x.t.u#a`x`x`F.Y.H`x.X#o.T`v`z``````",
"```````S`U`k.S`x#p#f`Z.W.y`0#R`v`U`H`f`x`x`J#F.a.l`W`M`P`K`J`x.x.K`x`1`W`a.R`x`x.X#o.T`v`z``````",
"````.l`O#h.N.U`X#S#t`2`u`k`q#e.B#a.8`t.H#a`a`D`x`x`x`w`q.B`W`x#i#K`x`x`x`h.F`x`x.X#o.T`v`z``````",
"`````x`j`b#m.i`5.Z`K`g`k`x`U`g`K`x`m`R`x`x.D#t`J.b.B.O.``x`x`1#w`R.b.k`J`f.C`F`z.X#o.T`v`z``````",
"````.M.0.x.M`x`U.``x`T`d`K`t#K.b`x.q.S`l#a`z`G.k`F`U#o.O.1.O#i#T#M`L`L.m#r.I.R#D.X#o.T`v`z``````",
"````.u`a`K#K`x.K#h.B.u.b`1`i#K.v`a#D..#g.7#U.X###y.C#V.x#t.K.M.#`q`s.l.V.y`G`j`x.X#o.T`v`z``````",
"````.M#w#M#W#X#Y#Z#Z#Z#Z#Z#Z#Z#Z#Z#Z#Z#Z#Z#Z#Z#Z#Z#Z#Z#Z#Z#Z#Z#Z#0#Z#Z#Z#0#0#Y#E#U.Q`3`G````````",
"`````C.n#q#R#n#B.6.6.6.6.6.6.6.6.6.6.6.6.6.6.6.6.6.6.6.6.6.6.6.6.X.6#k.6.X.X#k#P#1#j.1.M````````",
"````.M.4#D#2#..6#o#o#o#o#o#o#o#o#o#o#o#o#o#o#o#o#o#o#o#o#o#o#o#o.Q#o.W#o.c.Q.W.w#M`Z`Z``````````",
"`````P`m.e#g#d#m.T.T.T.T.T.T.T.T.T.T.T.T.T.T.T.T.T.T.T.T.T.T.T.T.R.T.Y.T.R.R.Y.C.n.8````````````",
"```````f`G`M`Y#F`m`m`m`m`m`m`m`m`m`m`m`m`m`m`m`m`m`m`m`m`m`m`m`m.s`m`v`m`Q.s`v`T.j.U````````````",
"```````S.j.D.K#K`q`q`q`q`q`q`q`q`q`q`q`q`q`q`q`q`q`q`q`q`q`q`q`q#K`q#p`q`h#K#p.f`p``````````````",
"````````````````````````````````````````````````````````````````````````````````````````````````",
"````````````````````````````````````````````````````````````````````````````````````````````````"
};
